# This file uses meters as units for non-parametric coordinates.

v -100.000000 57.721230 99.999992
v 0.000000 0.000008 100.000000
v -100.000000 69.290726 99.999969
v 0.000000 11.569504 92.185608
v -100.000000 11.569503 -0.000027
v 0.000000 11.569503 -0.000027
v -100.000000 0.000000 -0.000000
v 0.000000 0.000000 -0.000000
v -8.748084 16.619007 99.999969
v 0.000000 5.563782 99.999985
v -37.608486 33.277580 37.608459
v -54.205929 42.857830 54.205902
v -58.569550 39.876438 49.040741
v -40.449074 34.917202 46.640724
vt 0.247760 0.303287
vt 0.247760 0.303287
vt 0.247760 0.303287
vt 0.247760 0.303287
vt 0.247760 0.303287
vt 0.247760 0.303287
vt 0.247760 0.303287
vt 0.247760 0.303287
vt 0.247760 0.303287
vt 0.247760 0.303287
vt 0.247760 0.303287
vt 0.247760 0.303287
vt 0.247760 0.303287
vt 0.247760 0.303287
vn 0.707811 0.560096 0.430461
vn 0.707811 0.560096 0.430461
vn 0.707811 0.560096 0.430461
vn 0.000000 -0.000002 -1.000000
vn 0.000000 -0.000002 -1.000000
vn 0.000000 -0.000002 -1.000000
vn 0.000000 -0.000002 -1.000000
vn 0.000000 -0.000002 -1.000000
vn 0.000000 -0.000002 -1.000000
vn -0.499910 -0.866077 0.000000
vn -0.499910 -0.866077 0.000000
vn -0.499910 -0.866077 0.000000
vn -1.000000 -0.000000 0.000000
vn -1.000000 -0.000000 0.000000
vn -1.000000 -0.000000 0.000000
vn -1.000000 -0.000000 0.000000
vn -1.000000 -0.000000 0.000000
vn -1.000000 0.000000 0.000000
vn 0.000000 0.866077 -0.499911
vn 0.000000 0.866077 -0.499911
vn 0.000000 0.866077 -0.499911
vn 0.000000 -0.866077 0.499910
vn 0.000000 -0.866077 0.499910
vn 0.000000 -0.866077 0.499910
vn -0.000005 0.000003 1.000000
vn -0.000005 0.000003 1.000000
vn -0.000005 0.000003 1.000000
vn 1.000000 0.000000 0.000000
vn 1.000000 0.000000 0.000000
vn 1.000000 0.000000 0.000000
vn 1.000000 0.000000 0.000000
vn 1.000000 0.000000 0.000000
vn 1.000000 0.000000 0.000000
vn 0.142016 0.800617 -0.582102
vn 0.142016 0.800617 -0.582102
vn 0.142016 0.800618 -0.582102
vn 1.000000 0.000000 0.000000
vn 1.000000 0.000000 0.000000
vn 1.000000 0.000000 0.000000
vn 0.000002 0.000003 1.000000
vn 0.000002 0.000003 1.000000
vn 0.000001 0.000002 1.000000
vn 0.000001 0.000002 1.000000
vn 0.000002 0.000003 1.000000
vn 0.000001 0.000002 1.000000
vn 0.000000 0.866077 -0.499910
vn 0.000000 0.866077 -0.499910
vn 0.000000 0.866077 -0.499910
vn 0.000000 0.866077 -0.499911
vn 0.000000 0.866077 -0.499911
vn 0.000000 0.866077 -0.499911
vn 0.499910 0.866077 0.000000
vn 0.499910 0.866077 0.000000
vn 0.499910 0.866077 0.000000
vn 0.250914 0.963243 -0.095946
vn 0.250914 0.963243 -0.095946
vn 0.250914 0.963243 -0.095946
vn 0.499911 0.866077 -0.000000
vn 0.499910 0.866077 -0.000000
vn 0.499911 0.866077 -0.000000
vn 0.499911 0.866077 -0.000000
vn 0.499910 0.866077 -0.000000
vn 0.499910 0.866077 0.000000
vn 0.499910 0.866077 0.000000
vn 0.499910 0.866077 0.000000
vn 0.499910 0.866077 0.000000
vn 0.000000 0.866077 -0.499910
vn 0.000000 0.866077 -0.499910
vn 0.000000 0.866077 -0.499910
vn 0.499910 0.866077 0.000000
vn 0.499910 0.866077 0.000000
vn 0.499910 0.866077 0.000000
s off
f 9/1/1 10/2/2 4/3/3
f 5/4/4 6/5/5 7/7/6
f 7/7/7 6/5/8 8/6/9
f 1/8/10 8/6/11 2/9/12
f 7/7/13 1/8/14 5/4/15
f 5/4/16 1/8/17 3/10/18
f 3/10/19 12/11/20 13/12/21
f 7/7/22 8/6/23 1/8/24
f 9/1/25 2/9/26 10/2/27
f 2/9/28 8/6/29 4/3/30
f 4/3/31 8/6/32 6/5/33
f 12/11/34 14/13/35 13/12/36
f 2/9/37 4/3/38 10/2/39
f 2/9/40 9/1/41 1/8/42
f 1/8/43 9/1/44 3/10/45
f 5/4/46 11/14/47 6/5/48
f 5/4/49 13/12/50 11/14/51
f 4/3/52 6/5/53 11/14/54
f 13/12/55 14/13/56 11/14/57
f 12/11/58 9/1/59 14/13/60
f 14/13/61 9/1/62 4/3/63
f 4/3/64 11/14/65 14/13/66
f 3/10/67 13/12/68 5/4/69
f 3/10/70 9/1/71 12/11/72
