# This file uses meters as units for non-parametric coordinates.

v -500.000000 -10.000000 499.998413
v 0.000000 -10.000000 499.998413
v -500.000000 -2.372857 499.998413
v 0.000000 0.000000 479.078735
v -497.652710 0.000000 2.409487
v -6.058066 0.000000 0.000000
v -500.000000 -10.000000 0.000000
v 0.000000 -10.000000 0.000000
v -11.868736 0.000000 496.357239
v 0.000000 -2.643132 499.998413
v 0.000000 0.000000 6.278714
v 0.000000 -3.090549 0.000000
v -169.280777 0.000000 0.000000
v -199.507446 0.000000 0.000000
v -269.733490 0.000000 495.306335
v -179.461304 0.000000 5.087226
v -184.546234 -1.615655 0.000000
v -500.000000 0.000000 407.351959
v -335.574341 0.000000 499.998474
v -497.092712 0.000000 495.957001
v 0.000000 0.000000 377.940674
v 0.000000 0.000000 412.425842
v 0.000000 -2.601132 388.737000
v -3.931633 0.000000 393.633148
v -306.195099 -10.000000 499.998413
v -304.482910 -6.024886 499.998413
v -443.109375 0.000000 0.000000
v -500.000000 -3.349202 0.000000
v -500.000000 0.000000 42.673805
v -497.542938 0.000000 299.229614
v -500.000000 -1.987350 321.287476
v -497.996368 0.000000 348.322327
v -490.718231 0.000000 321.899048
v 0.000000 0.000000 112.730553
v 0.000000 0.000000 71.111916
v 0.000000 -2.737894 78.219681
v -8.403904 0.000000 84.555283
vt 0.247760 0.303287
vt 0.247760 0.303287
vt 0.247760 0.303287
vt 0.247760 0.303287
vt 0.247760 0.303287
vt 0.247760 0.303287
vt 0.247760 0.303287
vt 0.247760 0.303287
vt 0.247760 0.303287
vt 0.247760 0.303287
vt 0.247760 0.303287
vt 0.247760 0.303287
vt 0.247760 0.303287
vt 0.247760 0.303287
vt 0.247760 0.303287
vt 0.247760 0.303287
vt 0.247760 0.303287
vt 0.247760 0.303287
vt 0.247760 0.303287
vt 0.247760 0.303287
vt 0.247760 0.303287
vt 0.247760 0.303287
vt 0.247760 0.303287
vt 0.247760 0.303287
vt 0.247760 0.303287
vt 0.247760 0.303287
vt 0.247760 0.303287
vt 0.247760 0.303287
vt 0.247760 0.303287
vt 0.247760 0.303287
vt 0.247760 0.303287
vt 0.247760 0.303287
vt 0.247760 0.303287
vt 0.247760 0.303287
vt 0.247760 0.303287
vt 0.247760 0.303287
vt 0.247760 0.303287
vn 0.179520 0.975995 0.123314
vn 0.179520 0.975995 0.123314
vn 0.179520 0.975995 0.123314
vn 0.000000 1.000000 0.000000
vn 0.000000 1.000000 0.000000
vn 0.000000 1.000000 0.000000
vn -0.035312 0.599822 -0.799354
vn -0.035312 0.599822 -0.799354
vn -0.035312 0.599822 -0.799354
vn 0.000000 -1.000000 0.000000
vn 0.000000 -1.000000 0.000000
vn 0.000000 -1.000000 0.000000
vn 0.000000 -1.000000 0.000000
vn 0.000000 -1.000000 0.000000
vn 0.000000 -1.000000 0.000000
vn 0.000000 -1.000000 0.000000
vn 0.000000 -1.000000 0.000000
vn 0.000000 -1.000000 0.000000
vn 0.416186 0.815805 -0.401561
vn 0.416186 0.815805 -0.401561
vn 0.416186 0.815805 -0.401561
vn -0.801890 0.595640 -0.046748
vn -0.801890 0.595640 -0.046748
vn -0.801890 0.595640 -0.046748
vn 0.000000 0.000000 1.000000
vn 0.000000 0.000000 1.000000
vn 0.000000 0.000000 1.000000
vn 0.000000 0.000000 1.000000
vn 0.000000 0.000000 1.000000
vn 0.000000 0.000000 1.000000
vn 1.000000 0.000000 0.000000
vn 1.000000 0.000000 0.000000
vn 1.000000 0.000000 0.000000
vn 0.000000 0.000000 -1.000000
vn 0.000000 0.000000 -1.000000
vn 0.000000 0.000000 -1.000000
vn 0.000000 0.000000 -1.000000
vn 0.000000 0.000000 -1.000000
vn 0.000000 0.000000 -1.000000
vn 0.000000 1.000000 0.000000
vn 0.000000 1.000000 0.000000
vn 0.000000 1.000000 0.000000
vn 0.000000 1.000000 0.000000
vn 0.000000 1.000000 0.000000
vn 0.000000 1.000000 0.000000
vn -0.102990 0.973096 -0.206103
vn -0.102990 0.973095 -0.206103
vn -0.102990 0.973095 -0.206103
vn 0.000000 0.000000 -1.000000
vn 0.000000 0.000000 -1.000000
vn 0.000000 0.000000 -1.000000
vn 0.000000 0.000000 -1.000000
vn 0.000000 0.000000 -1.000000
vn 0.000000 0.000000 -1.000000
vn 0.098880 0.915646 -0.389636
vn 0.098880 0.915645 -0.389636
vn 0.098880 0.915646 -0.389636
vn -0.012500 0.866181 0.499573
vn -0.012500 0.866181 0.499574
vn -0.012500 0.866181 0.499574
vn -0.615185 0.788124 0.020185
vn -0.615185 0.788124 0.020185
vn -0.615185 0.788124 0.020185
vn 1.000000 0.000000 0.000000
vn 1.000000 0.000000 0.000000
vn 1.000000 0.000000 0.000000
vn 1.000000 0.000000 0.000000
vn 1.000000 0.000000 0.000000
vn 1.000000 0.000000 0.000000
vn 1.000000 0.000000 0.000000
vn 1.000000 0.000000 0.000000
vn 1.000000 0.000000 0.000000
vn 0.000000 1.000000 0.000000
vn 0.000000 1.000000 0.000000
vn 0.000000 1.000000 0.000000
vn 0.462548 0.881297 -0.096770
vn 0.462549 0.881297 -0.096770
vn 0.462549 0.881297 -0.096770
vn 0.682918 0.710174 0.171100
vn 0.682918 0.710174 0.171100
vn 0.682918 0.710174 0.171100
vn -0.007104 0.639602 0.768674
vn -0.003052 0.786009 0.618208
vn -0.007091 0.640141 0.768225
vn -0.007091 0.640141 0.768225
vn -0.003052 0.786009 0.618208
vn -0.002415 0.805503 0.592587
vn 0.000000 0.000000 1.000000
vn 0.000000 0.000000 1.000000
vn 0.000000 0.000000 1.000000
vn 0.000000 0.000000 1.000000
vn 0.000000 0.000000 1.000000
vn 0.000000 0.000000 1.000000
vn 0.066736 0.344383 0.936454
vn 0.066736 0.344383 0.936454
vn 0.066736 0.344383 0.936454
vn 0.000000 0.000000 -1.000000
vn 0.000000 0.000000 -1.000000
vn 0.000000 0.000000 -1.000000
vn 0.000000 0.000000 -1.000000
vn 0.000000 0.000000 -1.000000
vn 0.000000 0.000000 -1.000000
vn -1.000000 0.000000 0.000000
vn -1.000000 0.000000 0.000000
vn -1.000000 0.000000 0.000000
vn 0.000000 1.000000 0.000000
vn 0.000000 1.000000 0.000000
vn 0.000000 1.000000 0.000000
vn 0.000000 1.000000 0.000000
vn 0.000000 1.000000 0.000000
vn 0.000000 1.000000 0.000000
vn 0.000000 1.000000 0.000000
vn 0.000000 1.000000 0.000000
vn 0.000000 1.000000 0.000000
vn 0.000000 1.000000 0.000000
vn 0.000000 1.000000 0.000000
vn 0.000000 1.000000 0.000000
vn 0.000000 1.000000 0.000000
vn 0.000000 1.000000 0.000000
vn 0.000000 1.000000 0.000000
vn -0.212973 0.974952 0.064116
vn -0.212973 0.974952 0.064116
vn -0.212973 0.974952 0.064116
vn -1.000000 0.000612 0.000000
vn -1.000000 0.000479 0.000000
vn -1.000000 0.000000 0.000000
vn -1.000000 0.000000 0.000000
vn -1.000000 0.000479 0.000000
vn -1.000000 0.000000 0.000000
vn -1.000000 -0.000006 0.000000
vn -1.000000 -0.000006 0.000000
vn -1.000000 -0.000006 0.000000
vn 1.000000 0.000000 0.000000
vn 1.000000 0.000000 0.000000
vn 1.000000 0.000000 0.000000
vn 0.000000 1.000000 0.000000
vn 0.000000 1.000000 0.000000
vn 0.000000 1.000000 0.000000
vn 0.000000 1.000000 0.000000
vn 0.000000 1.000000 0.000000
vn 0.000000 1.000000 0.000000
vn 0.000000 1.000000 0.000000
vn 0.000000 1.000000 0.000000
vn 0.000000 1.000000 0.000000
vn 0.000000 1.000000 0.000000
vn 0.000000 1.000000 0.000000
vn 0.000000 1.000000 0.000000
vn 0.000000 1.000000 0.000000
vn 0.000000 1.000000 0.000000
vn 0.000000 1.000000 0.000000
vn 0.000000 1.000000 0.000000
vn 0.000000 1.000000 0.000000
vn 0.000000 1.000000 0.000000
vn 0.000000 1.000000 0.000000
vn 0.000000 1.000000 0.000000
vn 0.000000 1.000000 0.000000
vn -1.000000 -0.000023 0.000000
vn -0.655215 0.755423 0.005388
vn -0.999997 0.002601 0.000019
vn -0.999997 0.002601 0.000019
vn -0.655215 0.755423 0.005388
vn -0.597312 0.801988 0.005721
vn -0.562362 0.826671 -0.019088
vn -0.562362 0.826671 -0.019088
vn -0.562362 0.826671 -0.019088
vn 0.000000 1.000000 0.000000
vn 0.000000 1.000000 0.000000
vn 0.000000 1.000000 0.000000
vn -0.205467 0.977026 -0.056595
vn -0.205467 0.977026 -0.056595
vn -0.205467 0.977026 -0.056595
vn 0.000000 1.000000 0.000000
vn 0.000000 1.000000 0.000000
vn 0.000000 1.000000 0.000000
vn 0.000000 1.000000 0.000000
vn 0.000000 1.000000 0.000000
vn 0.000000 1.000000 0.000000
vn -0.000000 -0.000011 1.000000
vn -0.000000 -0.000011 1.000000
vn -0.000000 -0.000011 1.000000
vn 0.000000 1.000000 0.000000
vn 0.000000 1.000000 0.000000
vn 0.000000 1.000000 0.000000
vn 0.000000 1.000000 0.000000
vn 0.000000 1.000000 0.000000
vn 0.000000 1.000000 0.000000
vn 1.000000 0.000000 0.000000
vn 1.000000 0.000000 0.000000
vn 1.000000 0.000000 0.000000
vn 1.000000 0.000000 0.000000
vn 1.000000 0.000000 0.000000
vn 1.000000 0.000000 0.000000
vn 1.000000 0.000000 0.000000
vn 1.000000 0.000000 0.000000
vn 1.000000 0.000000 0.000000
vn 0.256290 0.963572 -0.076444
vn 0.256290 0.963572 -0.076444
vn 0.256290 0.963572 -0.076444
vn 0.498471 0.808965 0.311611
vn 0.498471 0.808965 0.311611
vn 0.498471 0.808965 0.311611
vn 1.000000 0.000000 0.000000
vn 1.000000 0.000000 0.000000
vn 1.000000 0.000000 0.000000
vn 1.000000 0.000000 0.000000
vn 1.000000 0.000000 0.000000
vn 1.000000 0.000000 0.000000
vn 0.000000 0.000000 -1.000000
vn 0.000000 0.000000 -1.000000
vn 0.000000 0.000000 -1.000000
s off
f 9/1/1 10/2/2 4/3/3
f 22/4/4 9/1/5 4/3/6
f 5/5/7 27/6/8 28/7/9
f 7/8/10 8/9/11 1/12/12
f 1/12/13 8/9/14 25/11/15
f 8/9/16 2/10/17 25/11/18
f 11/13/19 12/14/20 6/15/21
f 28/7/22 29/16/23 5/5/24
f 1/12/25 25/11/26 3/18/27
f 3/18/28 25/11/29 26/17/30
f 12/14/31 36/19/32 8/9/33
f 7/8/34 17/20/35 8/9/36
f 7/8/37 14/21/38 17/20/39
f 16/23/40 14/21/41 15/22/42
f 27/6/43 15/22/44 14/21/45
f 13/24/46 17/20/47 16/23/48
f 17/20/49 13/24/50 12/14/51
f 12/14/52 13/24/53 6/15/54
f 16/23/55 17/20/56 14/21/57
f 3/18/58 19/25/59 20/26/60
f 3/18/61 20/26/62 18/27/63
f 23/28/64 22/4/65 2/10/66
f 2/10/67 22/4/68 4/3/69
f 2/10/70 8/9/71 23/28/72
f 24/29/73 16/23/74 15/22/75
f 23/28/76 24/29/77 22/4/78
f 21/30/79 24/29/80 23/28/81
f 26/17/82 10/2/83 15/22/84
f 15/22/85 10/2/86 9/1/87
f 10/2/88 26/17/89 2/10/90
f 2/10/91 26/17/92 25/11/93
f 19/25/94 26/17/95 15/22/96
f 28/7/97 27/6/98 7/8/99
f 7/8/100 27/6/101 14/21/102
f 18/27/103 1/12/104 3/18/105
f 30/31/106 33/32/107 29/16/108
f 5/5/109 29/16/110 27/6/111
f 29/16/112 15/22/113 27/6/114
f 18/27/115 20/26/116 19/25/117
f 18/27/118 19/25/119 15/22/120
f 30/31/121 31/33/122 33/32/123
f 18/27/124 31/33/125 7/8/126
f 7/8/127 31/33/128 28/7/129
f 7/8/130 1/12/131 18/27/132
f 2/10/133 4/3/134 10/2/135
f 22/4/136 15/22/137 9/1/138
f 22/4/139 24/29/140 15/22/141
f 13/24/142 16/23/143 21/30/144
f 21/30/145 16/23/146 24/29/147
f 21/30/148 34/34/149 13/24/150
f 13/24/151 34/34/152 37/35/153
f 13/24/154 11/13/155 6/15/156
f 28/7/157 31/33/158 29/16/159
f 29/16/160 31/33/161 30/31/162
f 32/36/163 31/33/164 18/27/165
f 32/36/166 15/22/167 33/32/168
f 33/32/169 31/33/170 32/36/171
f 29/16/172 33/32/173 15/22/174
f 18/27/175 15/22/176 32/36/177
f 3/18/178 26/17/179 19/25/180
f 13/24/181 37/35/182 35/37/183
f 13/24/184 35/37/185 11/13/186
f 8/9/187 36/19/188 23/28/189
f 23/28/190 36/19/191 21/30/192
f 21/30/193 36/19/194 34/34/195
f 36/19/196 37/35/197 34/34/198
f 35/37/199 37/35/200 36/19/201
f 36/19/202 12/14/203 35/37/204
f 35/37/205 12/14/206 11/13/207
f 8/9/208 17/20/209 12/14/210
