# This file uses meters as units for non-parametric coordinates.

v -100.000000 -10.000000 100.000000
v 0.000000 -10.000000 100.000000
v -100.000000 0.000000 100.000000
v 0.000000 0.000000 100.000000
v -100.000000 0.000000 0.000000
v 0.000000 0.000000 0.000000
v -100.000000 -10.000000 0.000000
v 0.000000 -10.000000 0.000000
v -90.000000 0.000000 90.000000
v -90.000000 0.000000 10.000000
v -10.000000 0.000000 90.000000
v -10.000000 0.000000 10.000000
v -90.000000 -10.000000 90.000000
v -90.000000 -10.000000 10.000000
v -10.000000 -10.000000 90.000000
v -10.000000 -10.000000 10.000000
vt 0.247760 0.303287
vt 0.247760 0.303287
vt 0.247760 0.303287
vt 0.247760 0.303287
vt 0.247760 0.303287
vt 0.247760 0.303287
vt 0.247760 0.303287
vt 0.247760 0.303287
vt 0.247760 0.303287
vt 0.247760 0.303287
vt 0.247760 0.303287
vt 0.247760 0.303287
vt 0.247760 0.303287
vt 0.247760 0.303287
vt 0.247760 0.303287
vt 0.247760 0.303287
vn 0.000000 0.000000 1.000000
vn 0.000000 0.000000 1.000000
vn 0.000000 0.000000 1.000000
vn 0.000000 0.000000 1.000000
vn 0.000000 0.000000 1.000000
vn 0.000000 0.000000 1.000000
vn 0.000000 0.000000 -1.000000
vn 0.000000 0.000000 -1.000000
vn 0.000000 0.000000 -1.000000
vn 0.000000 0.000000 -1.000000
vn 0.000000 0.000000 -1.000000
vn 0.000000 0.000000 -1.000000
vn 1.000000 0.000000 0.000000
vn 1.000000 0.000000 0.000000
vn 1.000000 0.000000 0.000000
vn 1.000000 0.000000 0.000000
vn 1.000000 0.000000 0.000000
vn 1.000000 0.000000 0.000000
vn -1.000000 0.000000 0.000000
vn -1.000000 0.000000 0.000000
vn -1.000000 0.000000 0.000000
vn -1.000000 0.000000 0.000000
vn -1.000000 0.000000 0.000000
vn -1.000000 0.000000 0.000000
vn 0.000000 1.000000 0.000000
vn 0.000000 1.000000 0.000000
vn 0.000000 1.000000 0.000000
vn 0.000000 1.000000 0.000000
vn 0.000000 1.000000 0.000000
vn 0.000000 1.000000 0.000000
vn 0.000000 1.000000 0.000000
vn 0.000000 1.000000 0.000000
vn 0.000000 1.000000 0.000000
vn 0.000000 1.000000 0.000000
vn 0.000000 1.000000 0.000000
vn 0.000000 1.000000 0.000000
vn 0.000000 1.000000 0.000000
vn 0.000000 1.000000 0.000000
vn 0.000000 1.000000 0.000000
vn 0.000000 1.000000 0.000000
vn 0.000000 1.000000 0.000000
vn 0.000000 1.000000 0.000000
vn 0.000000 1.000000 0.000000
vn 0.000000 1.000000 0.000000
vn 0.000000 1.000000 0.000000
vn 0.000000 1.000000 0.000000
vn 0.000000 1.000000 0.000000
vn 0.000000 1.000000 0.000000
vn 1.000000 0.000000 0.000000
vn 1.000000 0.000000 0.000000
vn 1.000000 0.000000 0.000000
vn 1.000000 0.000000 0.000000
vn 1.000000 0.000000 0.000000
vn 1.000000 0.000000 0.000000
vn 0.000000 0.000000 -1.000000
vn 0.000000 0.000000 -1.000000
vn 0.000000 0.000000 -1.000000
vn 0.000000 0.000000 -1.000000
vn 0.000000 0.000000 -1.000000
vn 0.000000 0.000000 -1.000000
vn -1.000000 0.000000 0.000000
vn -1.000000 0.000000 0.000000
vn -1.000000 0.000000 0.000000
vn -1.000000 0.000000 0.000000
vn -1.000000 0.000000 0.000000
vn -1.000000 0.000000 0.000000
vn 0.000000 0.000000 1.000000
vn 0.000000 0.000000 1.000000
vn 0.000000 0.000000 1.000000
vn 0.000000 0.000000 1.000000
vn 0.000000 0.000000 1.000000
vn 0.000000 0.000000 1.000000
vn 0.000000 -1.000000 0.000000
vn 0.000000 -1.000000 0.000000
vn 0.000000 -1.000000 0.000000
vn 0.000000 -1.000000 0.000000
vn 0.000000 -1.000000 0.000000
vn 0.000000 -1.000000 0.000000
vn 0.000000 -1.000000 0.000000
vn 0.000000 -1.000000 0.000000
vn 0.000000 -1.000000 0.000000
vn 0.000000 -1.000000 0.000000
vn 0.000000 -1.000000 0.000000
vn 0.000000 -1.000000 0.000000
vn 0.000000 -1.000000 0.000000
vn 0.000000 -1.000000 0.000000
vn 0.000000 -1.000000 0.000000
vn 0.000000 -1.000000 0.000000
vn 0.000000 -1.000000 0.000000
vn 0.000000 -1.000000 0.000000
vn 0.000000 -1.000000 0.000000
vn 0.000000 -1.000000 0.000000
vn 0.000000 -1.000000 0.000000
vn 0.000000 -1.000000 0.000000
vn 0.000000 -1.000000 0.000000
vn 0.000000 -1.000000 0.000000
s off
f 4/1/1 3/2/2 2/4/3
f 2/4/4 3/2/5 1/3/6
f 7/5/7 5/6/8 8/8/9
f 8/8/10 5/6/11 6/7/12
f 4/1/13 2/4/14 6/7/15
f 6/7/16 2/4/17 8/8/18
f 1/3/19 3/2/20 7/5/21
f 7/5/22 3/2/23 5/6/24
f 5/6/25 3/2/26 10/10/27
f 10/10/28 3/2/29 9/9/30
f 3/2/31 4/1/32 9/9/33
f 9/9/34 4/1/35 11/11/36
f 4/1/37 6/7/38 11/11/39
f 11/11/40 6/7/41 12/12/42
f 6/7/43 5/6/44 12/12/45
f 12/12/46 5/6/47 10/10/48
f 10/10/49 9/9/50 14/14/51
f 14/14/52 9/9/53 13/13/54
f 9/9/55 11/11/56 13/13/57
f 13/13/58 11/11/59 15/15/60
f 11/11/61 12/12/62 15/15/63
f 15/15/64 12/12/65 16/16/66
f 12/12/67 10/10/68 16/16/69
f 16/16/70 10/10/71 14/14/72
f 2/4/73 1/3/74 15/15/75
f 15/15/76 1/3/77 13/13/78
f 1/3/79 7/5/80 13/13/81
f 13/13/82 7/5/83 14/14/84
f 7/5/85 8/8/86 14/14/87
f 14/14/88 8/8/89 16/16/90
f 8/8/91 2/4/92 16/16/93
f 16/16/94 2/4/95 15/15/96
