# This file uses meters as units for non-parametric coordinates.

v -500.000000 -10.000000 499.998413
v 0.000000 -10.000000 499.998413
v -500.000000 0.000000 499.998413
v 0.000000 0.000000 499.998413
v -500.000000 0.000000 0.000000
v 0.000000 0.000000 0.000000
v -500.000000 -10.000000 0.000000
v 0.000000 -10.000000 0.000000
v -350.000000 0.000000 349.999207
v -350.000000 -10.000000 349.999207
v -150.000000 -10.000000 349.999207
v -150.000000 0.000000 349.999207
v -350.000000 0.000000 149.999207
v -350.000000 -10.000000 149.999207
v -150.000000 -10.000000 149.999207
v -150.000000 0.000000 149.999207
vt 0.247760 0.303287
vt 0.247760 0.303287
vt 0.247760 0.303287
vt 0.247760 0.303287
vt 0.247760 0.303287
vt 0.247760 0.303287
vt 0.247760 0.303287
vt 0.247760 0.303287
vt 0.247760 0.303287
vt 0.247760 0.303287
vt 0.247760 0.303287
vt 0.247760 0.303287
vt 0.247760 0.303287
vt 0.247760 0.303287
vt 0.247760 0.303287
vt 0.247760 0.303287
vn 0.000000 0.000000 1.000000
vn 0.000000 0.000000 1.000000
vn 0.000000 0.000000 1.000000
vn 0.000000 0.000000 1.000000
vn 0.000000 0.000000 1.000000
vn 0.000000 0.000000 1.000000
vn 0.000000 1.000000 0.000000
vn 0.000000 1.000000 0.000000
vn 0.000000 1.000000 0.000000
vn 0.000000 1.000000 0.000000
vn 0.000000 1.000000 0.000000
vn 0.000000 1.000000 0.000000
vn 0.000000 0.000000 -1.000000
vn 0.000000 0.000000 -1.000000
vn 0.000000 0.000000 -1.000000
vn 0.000000 0.000000 -1.000000
vn 0.000000 0.000000 -1.000000
vn 0.000000 0.000000 -1.000000
vn 0.000000 -1.000000 0.000000
vn 0.000000 -1.000000 0.000000
vn 0.000000 -1.000000 0.000000
vn 0.000000 -1.000000 0.000000
vn 0.000000 -1.000000 0.000000
vn 0.000000 -1.000000 0.000000
vn 1.000000 0.000000 0.000000
vn 1.000000 0.000000 0.000000
vn 1.000000 0.000000 0.000000
vn 1.000000 0.000000 0.000000
vn 1.000000 0.000000 0.000000
vn 1.000000 0.000000 0.000000
vn -1.000000 0.000000 0.000000
vn -1.000000 0.000000 0.000000
vn -1.000000 0.000000 0.000000
vn -1.000000 0.000000 0.000000
vn -1.000000 0.000000 0.000000
vn -1.000000 0.000000 0.000000
vn 0.000000 -1.000000 0.000000
vn 0.000000 -1.000000 0.000000
vn 0.000000 -1.000000 0.000000
vn 0.000000 -1.000000 0.000000
vn 0.000000 -1.000000 0.000000
vn 0.000000 -1.000000 0.000000
vn 0.000000 -1.000000 0.000000
vn 0.000000 -1.000000 0.000000
vn 0.000000 -1.000000 0.000000
vn 0.000000 -1.000000 0.000000
vn 0.000000 -1.000000 0.000000
vn 0.000000 -1.000000 0.000000
vn 0.000000 1.000000 0.000000
vn 0.000000 1.000000 0.000000
vn 0.000000 1.000000 0.000000
vn 0.000000 1.000000 0.000000
vn 0.000000 1.000000 0.000000
vn 0.000000 1.000000 0.000000
vn 0.000000 1.000000 0.000000
vn 0.000000 1.000000 0.000000
vn 0.000000 1.000000 0.000000
vn 0.000000 1.000000 0.000000
vn 0.000000 1.000000 0.000000
vn 0.000000 1.000000 0.000000
vn 0.000000 1.000000 0.000000
vn 0.000000 1.000000 0.000000
vn 0.000000 1.000000 0.000000
vn 0.000000 1.000000 0.000000
vn 0.000000 1.000000 0.000000
vn 0.000000 1.000000 0.000000
vn 0.000000 -1.000000 0.000000
vn 0.000000 -1.000000 0.000000
vn 0.000000 -1.000000 0.000000
vn 0.000000 -1.000000 0.000000
vn 0.000000 -1.000000 0.000000
vn 0.000000 -1.000000 0.000000
vn 1.000000 0.000000 0.000000
vn 1.000000 0.000000 0.000000
vn 1.000000 0.000000 0.000000
vn 1.000000 0.000000 0.000000
vn 1.000000 0.000000 0.000000
vn 1.000000 0.000000 0.000000
vn 0.000000 0.000000 -1.000000
vn 0.000000 0.000000 -1.000000
vn 0.000000 0.000000 -1.000000
vn 0.000000 0.000000 -1.000000
vn 0.000000 0.000000 -1.000000
vn 0.000000 0.000000 -1.000000
vn 0.000000 0.000000 1.000000
vn 0.000000 0.000000 1.000000
vn 0.000000 0.000000 1.000000
vn 0.000000 0.000000 1.000000
vn 0.000000 0.000000 1.000000
vn 0.000000 0.000000 1.000000
vn -1.000000 0.000000 0.000000
vn -1.000000 0.000000 0.000000
vn -1.000000 0.000000 0.000000
vn -1.000000 0.000000 0.000000
vn -1.000000 0.000000 0.000000
vn -1.000000 0.000000 0.000000
s off
f 4/1/1 3/2/2 2/4/3
f 2/4/4 3/2/5 1/3/6
f 12/5/7 9/6/8 4/1/9
f 4/1/10 9/6/11 3/2/12
f 7/7/13 5/8/14 8/10/15
f 8/10/16 5/8/17 6/9/18
f 14/11/19 10/12/20 7/7/21
f 7/7/22 10/12/23 1/3/24
f 4/1/25 2/4/26 6/9/27
f 6/9/28 2/4/29 8/10/30
f 1/3/31 3/2/32 7/7/33
f 7/7/34 3/2/35 5/8/36
f 8/10/37 2/4/38 15/14/39
f 15/14/40 2/4/41 11/13/42
f 15/14/43 14/11/44 8/10/45
f 8/10/46 14/11/47 7/7/48
f 16/15/49 12/5/50 6/9/51
f 6/9/52 12/5/53 4/1/54
f 6/9/55 5/8/56 16/15/57
f 16/15/58 5/8/59 13/16/60
f 3/2/61 9/6/62 5/8/63
f 5/8/64 9/6/65 13/16/66
f 2/4/67 1/3/68 11/13/69
f 11/13/70 1/3/71 10/12/72
f 10/12/73 14/11/74 9/6/75
f 9/6/76 14/11/77 13/16/78
f 11/13/79 10/12/80 12/5/81
f 12/5/82 10/12/83 9/6/84
f 14/11/85 15/14/86 13/16/87
f 13/16/88 15/14/89 16/15/90
f 15/14/91 11/13/92 16/15/93
f 16/15/94 11/13/95 12/5/96
