# This file uses meters as units for non-parametric coordinates.

v -95.105667 300.000000 30.901707
v -85.595108 300.000000 27.811537
v -95.105667 0.000000 30.901707
v -85.595108 0.000000 27.811537
v 0.000000 0.000000 100.000015
v 0.000000 0.000000 90.000015
v 0.000000 300.000000 97.193298
v 0.000000 300.000000 90.000015
v -98.772560 300.000000 7.749778
v -90.000000 300.000000 0.000000
v -100.000000 0.000000 0.000000
v -90.000000 0.000000 0.000000
v -27.811537 300.000000 85.595100
v -30.901707 300.000000 95.105667
v -30.901707 0.000000 95.105667
v -27.811537 0.000000 85.595100
v -44.577236 300.000000 81.430138
v -30.901707 292.654602 95.105667
v -22.316275 300.000000 96.465469
v -6.931723 300.000000 98.902138
v 0.000000 291.335815 100.000015
v 0.000000 37.933830 90.000015
v 0.000000 66.490860 90.000015
v 0.000000 43.253132 94.664795
v -6.865620 50.076778 88.912605
v 0.000000 179.547470 100.000015
v 0.000000 206.913666 100.000015
v -10.150340 184.590134 98.392357
v 0.000000 187.691483 98.631142
v -95.963242 300.000000 0.000000
v -100.000000 269.466278 0.000000
v -90.000000 47.502941 0.000000
v -100.000000 56.233936 0.000000
v -100.000000 82.947029 0.000000
v -90.000000 80.044617 0.000000
v -88.054443 44.690380 12.283842
v -98.845795 63.386101 7.287374
v -98.428246 68.897476 1.237295
v -90.393677 65.112144 1.468673
v -30.901703 125.782791 95.105667
v -30.901703 151.219360 95.105667
v -24.051138 145.196625 96.190689
v -36.489685 131.139389 89.517685
vt 0.247760 0.303287
vt 0.247760 0.303287
vt 0.247760 0.303287
vt 0.247760 0.303287
vt 0.247760 0.303287
vt 0.247760 0.303287
vt 0.247760 0.303287
vt 0.247760 0.303287
vt 0.247760 0.303287
vt 0.247760 0.303287
vt 0.247760 0.303287
vt 0.247760 0.303287
vt 0.247760 0.303287
vt 0.247760 0.303287
vt 0.247760 0.303287
vt 0.247760 0.303287
vt 0.247760 0.303287
vt 0.247760 0.303287
vt 0.247760 0.303287
vt 0.247760 0.303287
vt 0.247760 0.303287
vt 0.247760 0.303287
vt 0.247760 0.303287
vt 0.247760 0.303287
vt 0.247760 0.303287
vt 0.247760 0.303287
vt 0.247760 0.303287
vt 0.247760 0.303287
vt 0.247760 0.303287
vt 0.247760 0.303287
vt 0.247760 0.303287
vt 0.247760 0.303287
vt 0.247760 0.303287
vt 0.247760 0.303287
vt 0.247760 0.303287
vt 0.247760 0.303287
vt 0.247760 0.303287
vt 0.247760 0.303287
vt 0.247760 0.303287
vt 0.247760 0.303287
vt 0.247760 0.303287
vt 0.247760 0.303287
vt 0.247760 0.303287
vn 0.000000 1.000000 -0.000001
vn 0.000000 1.000000 0.000000
vn 0.000000 1.000000 -0.000001
vn 0.000000 1.000000 0.000006
vn 0.000000 1.000000 0.000002
vn 0.000000 1.000000 0.000000
vn 0.000000 1.000000 -0.000001
vn 0.000000 1.000000 0.000000
vn 0.000000 1.000000 0.000002
vn -0.707109 0.000000 0.707105
vn -0.707109 0.000000 0.707105
vn -0.707109 0.000000 0.707105
vn 1.000000 0.000000 0.000000
vn 1.000000 0.000000 0.000000
vn 1.000000 0.000000 0.000000
vn 0.000000 1.000000 -0.000001
vn 0.000000 1.000000 -0.000001
vn 0.000000 1.000000 -0.000000
vn 0.000000 1.000000 -0.000000
vn 0.000000 1.000000 -0.000001
vn 0.000000 1.000000 -0.000002
vn 0.000000 1.000000 0.000000
vn 0.000000 1.000000 -0.000002
vn 0.000000 1.000000 -0.000006
vn 0.000000 1.000000 -0.000006
vn 0.000000 1.000000 -0.000002
vn 0.000000 1.000000 -0.000001
vn 0.000000 -1.000000 0.000000
vn 0.000000 -1.000000 0.000000
vn 0.000000 -1.000000 0.000000
vn 0.000000 -1.000000 0.000000
vn 0.000000 -1.000000 0.000000
vn 0.000000 -1.000000 0.000000
vn 0.156435 0.000000 -0.987688
vn 0.156434 0.000000 -0.987688
vn 0.156435 0.000000 -0.987688
vn 0.156435 0.000000 -0.987688
vn 0.156434 0.000000 -0.987688
vn 0.156436 0.000000 -0.987688
vn 0.156436 0.000000 -0.987688
vn 0.156434 0.000000 -0.987688
vn 0.156434 0.000000 -0.987688
vn -0.156435 0.000000 0.987688
vn -0.156435 0.000000 0.987688
vn -0.156435 0.000000 0.987688
vn 0.000000 1.000000 0.000000
vn 0.000000 1.000000 -0.000000
vn 0.000000 1.000000 -0.000002
vn 0.000000 1.000000 0.000000
vn 0.000000 1.000000 -0.000001
vn 0.000000 1.000000 -0.000000
vn 0.000000 1.000000 -0.000000
vn 0.000000 1.000000 -0.000001
vn 0.000000 1.000000 -0.000002
vn -0.932957 0.123342 -0.338199
vn -0.156868 0.020739 -0.987402
vn -0.027309 0.003610 -0.999621
vn 0.000000 -1.000000 0.000000
vn 0.000000 -1.000000 0.000000
vn 0.000000 -1.000000 0.000000
vn 0.000000 -1.000000 0.000000
vn 0.000000 -1.000000 0.000000
vn 0.000000 -1.000000 0.000000
vn 0.988291 0.034491 -0.148632
vn 0.988291 0.034491 -0.148632
vn 0.988291 0.034491 -0.148632
vn -0.987688 0.000000 0.156434
vn -0.987688 0.000000 0.156434
vn -0.987688 -0.000000 0.156434
vn -0.987688 -0.000000 0.156434
vn -0.987688 0.000000 0.156434
vn -0.987688 -0.000000 0.156434
vn -0.987689 0.000001 0.156434
vn -0.987688 0.000000 0.156434
vn -0.987688 0.000000 0.156434
vn -0.987688 -0.000000 0.156434
vn -0.987688 0.000000 0.156434
vn -0.987688 0.000000 0.156434
vn 0.000000 -1.000000 0.000000
vn 0.000000 -1.000000 0.000000
vn 0.000000 -1.000000 0.000000
vn 0.000000 -1.000000 0.000000
vn 0.000000 -1.000000 0.000000
vn 0.000000 -1.000000 0.000000
vn 0.707107 0.000000 -0.707107
vn 0.707107 0.000000 -0.707107
vn 0.707107 0.000000 -0.707107
vn 0.707107 0.000000 -0.707107
vn 0.707107 0.000000 -0.707107
vn 0.707107 0.000000 -0.707107
vn -0.707107 0.000000 0.707107
vn -0.707107 0.000000 0.707107
vn -0.707107 0.000000 0.707107
vn -0.707107 0.000000 0.707107
vn -0.707107 0.000000 0.707107
vn -0.707107 0.000000 0.707107
vn 0.228332 0.300037 0.926198
vn 0.228332 0.300037 0.926198
vn 0.228332 0.300037 0.926198
vn -0.156435 -0.000000 0.987688
vn -0.156434 -0.000000 0.987689
vn -0.156434 -0.000000 0.987688
vn -0.156434 0.000000 0.987688
vn -0.156434 -0.000000 0.987688
vn -0.156434 -0.000000 0.987689
vn 0.156434 0.000000 -0.987688
vn 0.156434 0.000000 -0.987688
vn 0.156434 0.000000 -0.987688
vn 0.530501 -0.166837 -0.831104
vn 0.530501 -0.166837 -0.831104
vn 0.530501 -0.166837 -0.831104
vn 0.156435 -0.000000 -0.987688
vn 0.156435 -0.000000 -0.987688
vn 0.156435 -0.000000 -0.987688
vn 0.789237 0.404890 -0.461701
vn 0.789237 0.404890 -0.461701
vn 0.789237 0.404890 -0.461701
vn 1.000000 0.000000 0.000000
vn 1.000000 0.000000 0.000000
vn 1.000000 0.000000 0.000000
vn 1.000000 0.000000 0.000000
vn 1.000000 0.000000 0.000000
vn 1.000000 0.000000 0.000000
vn 1.000000 0.000000 0.000000
vn 1.000000 0.000000 0.000000
vn 1.000000 0.000000 0.000000
vn 1.000000 0.000000 0.000000
vn 1.000000 0.000000 0.000000
vn 1.000000 0.000000 0.000000
vn 1.000000 0.000000 0.000000
vn 1.000000 0.000000 0.000000
vn 1.000000 0.000000 0.000000
vn 1.000000 0.000000 0.000000
vn 1.000000 0.000000 0.000000
vn 1.000000 0.000000 0.000000
vn -0.156435 -0.000000 0.987688
vn -0.156435 -0.000000 0.987688
vn -0.156436 -0.000000 0.987688
vn -0.156436 -0.000000 0.987688
vn -0.156435 -0.000000 0.987688
vn -0.156435 -0.000000 0.987688
vn -0.156435 -0.000000 0.987688
vn -0.156435 -0.000000 0.987688
vn -0.156434 0.000000 0.987689
vn -0.156435 -0.000000 0.987688
vn -0.156432 0.000000 0.987689
vn -0.156434 0.000000 0.987689
vn -0.001764 -0.071033 0.997472
vn -0.001764 -0.071033 0.997472
vn -0.001764 -0.071033 0.997472
vn 1.000000 0.000000 0.000000
vn 1.000000 0.000000 0.000000
vn 1.000000 0.000000 0.000000
vn 1.000000 0.000000 0.000000
vn 1.000000 0.000000 0.000000
vn 1.000000 0.000000 0.000000
vn -0.073646 0.165308 0.983488
vn -0.073646 0.165308 0.983488
vn -0.073646 0.165309 0.983488
vn -0.156435 0.000000 0.987688
vn -0.156435 0.000000 0.987688
vn -0.156435 0.000000 0.987688
vn -0.156435 0.000000 0.987688
vn -0.156435 0.000000 0.987688
vn -0.156435 0.000000 0.987688
vn 0.070244 0.088363 -0.993608
vn 0.072139 0.086320 -0.993652
vn 0.072986 0.085406 -0.993670
vn 0.072986 0.085406 -0.993670
vn 0.072139 0.086320 -0.993652
vn 0.073800 0.084527 -0.993684
vn 0.987689 0.000000 -0.156434
vn 0.987688 0.000000 -0.156434
vn 0.987688 0.000000 -0.156434
vn 0.000000 0.000000 -1.000000
vn 0.000000 0.000000 -1.000000
vn 0.000000 0.000000 -1.000000
vn 0.000000 0.000000 -1.000000
vn 0.000000 0.000000 -1.000000
vn 0.000000 0.000000 -1.000000
vn 0.000000 0.000000 -1.000000
vn 0.000000 0.000000 -1.000000
vn 0.000000 0.000000 -1.000000
vn 0.000000 0.000000 -1.000000
vn 0.000000 0.000000 -1.000000
vn -0.156868 0.020739 -0.987402
vn -0.027309 0.003610 -0.999621
vn -0.156868 0.020739 -0.987402
vn 0.000000 0.000000 -1.000000
vn 0.987688 0.000000 -0.156434
vn 0.987688 0.000000 -0.156434
vn 0.987688 0.000000 -0.156434
vn 0.987688 0.000000 -0.156434
vn 0.987688 0.000000 -0.156434
vn 0.987688 0.000000 -0.156434
vn 0.987688 0.000000 -0.156434
vn 0.987688 0.000000 -0.156434
vn 0.987688 0.000000 -0.156434
vn 0.987689 0.000000 -0.156433
vn 0.987689 0.000000 -0.156433
vn 0.987688 0.000000 -0.156433
vn -0.992058 0.119209 0.040128
vn -0.992058 0.119209 0.040128
vn -0.992058 0.119209 0.040128
vn -0.987688 0.000000 0.156434
vn -0.987688 0.000000 0.156434
vn -0.987688 0.000000 0.156434
vn -0.987688 0.000000 0.156434
vn -0.987688 0.000000 0.156434
vn -0.987688 0.000000 0.156434
vn -0.975445 -0.125089 -0.181272
vn -0.975445 -0.125089 -0.181272
vn -0.975445 -0.125089 -0.181272
vn -0.026300 -0.090616 -0.995539
vn -0.023455 -0.092753 -0.995413
vn -0.020702 -0.094820 -0.995279
vn -0.020702 -0.094820 -0.995279
vn -0.023455 -0.092753 -0.995413
vn -0.017240 -0.097417 -0.995094
vn 0.949075 -0.055523 -0.310118
vn 0.949075 -0.055523 -0.310118
vn 0.949075 -0.055523 -0.310118
vn -0.156433 0.000000 0.987689
vn -0.156433 0.000000 0.987689
vn -0.156434 0.000000 0.987688
vn -0.156433 0.000000 0.987689
vn -0.156436 0.000000 0.987688
vn -0.156434 0.000000 0.987688
vn -0.303247 -0.176219 0.936477
vn -0.303247 -0.176219 0.936477
vn -0.303247 -0.176219 0.936477
vn -0.707107 0.000000 0.707107
vn -0.707107 -0.000000 0.707107
vn -0.707107 0.000000 0.707107
vn -0.707107 -0.000000 0.707107
vn -0.707107 -0.000000 0.707107
vn -0.707107 0.000000 0.707107
vn -0.707107 0.000000 0.707107
vn -0.707107 0.000000 0.707107
vn -0.707107 -0.000000 0.707107
vn -0.707107 0.000000 0.707107
vn -0.707107 -0.000000 0.707107
vn -0.707107 0.000000 0.707107
vn -0.609385 0.171773 0.774044
vn -0.609385 0.171773 0.774044
vn -0.609385 0.171773 0.774044
s off
f 1/2/1 17/3/2 2/1/3
f 14/4/4 13/5/5 17/3/6
f 2/1/7 17/3/8 13/5/9
f 17/3/10 18/6/11 14/4/12
f 26/7/13 5/8/14 24/9/15
f 14/4/16 19/13/17 13/5/18
f 13/5/19 19/13/20 8/12/21
f 7/11/22 8/12/23 20/10/24
f 20/10/25 8/12/26 19/13/27
f 15/14/28 16/15/29 5/8/30
f 5/8/31 16/15/32 6/16/33
f 16/15/34 13/5/35 25/18/36
f 25/18/37 13/5/38 23/17/39
f 23/17/40 13/5/41 8/12/42
f 18/6/43 19/13/44 14/4/45
f 1/2/46 2/1/47 9/21/48
f 10/19/49 30/20/50 2/1/51
f 2/1/52 30/20/53 9/21/54
f 9/21/55 30/20/56 31/22/57
f 11/23/58 12/24/59 3/26/60
f 3/26/61 12/24/62 4/25/63
f 36/27/64 32/28/65 39/29/66
f 3/26/67 1/2/68 37/31/69
f 37/31/70 1/2/71 34/30/72
f 9/21/73 31/22/74 1/2/75
f 34/30/76 1/2/77 31/22/78
f 4/25/79 16/15/80 3/26/81
f 3/26/82 16/15/83 15/14/84
f 2/1/85 13/5/86 4/25/87
f 4/25/88 13/5/89 16/15/90
f 43/33/91 3/26/92 40/32/93
f 40/32/94 3/26/95 15/14/96
f 20/10/97 21/34/98 7/11/99
f 42/36/100 28/37/101 41/35/102
f 18/6/103 41/35/104 28/37/105
f 6/16/106 16/15/107 22/38/108
f 23/17/109 24/9/110 25/18/111
f 22/38/112 16/15/113 25/18/114
f 25/18/115 24/9/116 22/38/117
f 6/16/118 22/38/119 5/8/120
f 5/8/121 22/38/122 24/9/123
f 23/17/124 8/12/125 29/40/126
f 29/40/127 8/12/128 27/39/129
f 8/12/130 7/11/131 27/39/132
f 27/39/133 7/11/134 21/34/135
f 28/37/136 27/39/137 18/6/138
f 18/6/139 27/39/140 19/13/141
f 19/13/142 27/39/143 20/10/144
f 27/39/145 21/34/146 20/10/147
f 27/39/148 28/37/149 29/40/150
f 24/9/151 23/17/152 26/7/153
f 26/7/154 23/17/155 29/40/156
f 29/40/157 28/37/158 26/7/159
f 5/8/160 26/7/161 15/14/162
f 15/14/163 26/7/164 28/37/165
f 38/41/166 39/29/167 33/42/168
f 33/42/169 39/29/170 32/28/171
f 4/25/172 12/24/173 32/28/174
f 33/42/175 32/28/176 11/23/177
f 11/23/178 32/28/179 12/24/180
f 35/43/181 34/30/182 10/19/183
f 10/19/184 34/30/185 30/20/186
f 31/22/187 30/20/188 34/30/189
f 4/25/190 36/27/191 2/1/192
f 36/27/193 35/43/194 2/1/195
f 35/43/196 10/19/197 2/1/198
f 4/25/199 32/28/200 36/27/201
f 33/42/202 37/31/203 38/41/204
f 3/26/205 37/31/206 11/23/207
f 11/23/208 37/31/209 33/42/210
f 38/41/211 37/31/212 34/30/213
f 34/30/214 35/43/215 38/41/216
f 38/41/217 35/43/218 39/29/219
f 36/27/220 39/29/221 35/43/222
f 28/37/223 42/36/224 15/14/225
f 42/36/226 40/32/227 15/14/228
f 43/33/229 42/36/230 41/35/231
f 3/26/232 43/33/233 1/2/234
f 43/33/235 41/35/236 1/2/237
f 18/6/238 17/3/239 41/35/240
f 1/2/241 41/35/242 17/3/243
f 40/32/244 42/36/245 43/33/246
