# This file uses meters as units for non-parametric coordinates.

v -475.528381 300.000000 154.508545
v -466.017822 300.000000 151.418381
v -475.528381 0.000000 154.508530
v -466.017822 0.000000 151.418365
v 0.000000 0.000000 499.998413
v 0.000000 0.000000 489.998444
v 0.000000 300.000000 499.998413
v 0.000000 300.000000 489.998444
v -500.000000 300.000000 0.000000
v -490.000000 300.000000 0.000000
v -500.000000 0.000000 0.000000
v -490.000000 0.000000 0.000000
v -151.418365 300.000000 466.017761
v -154.508530 300.000000 475.528351
v -154.508530 0.000000 475.528351
v -151.418365 0.000000 466.017761
vt 0.247760 0.303287
vt 0.247760 0.303287
vt 0.247760 0.303287
vt 0.247760 0.303287
vt 0.247760 0.303287
vt 0.247760 0.303287
vt 0.247760 0.303287
vt 0.247760 0.303287
vt 0.247760 0.303287
vt 0.247760 0.303287
vt 0.247760 0.303287
vt 0.247760 0.303287
vt 0.247760 0.303287
vt 0.247760 0.303287
vt 0.247760 0.303287
vt 0.247760 0.303287
vn 0.000000 1.000000 -0.000002
vn 0.000000 1.000000 0.000004
vn 0.000000 1.000000 -0.000002
vn 0.000000 1.000000 -0.000002
vn 0.000000 1.000000 0.000004
vn 0.000000 1.000000 0.000004
vn -0.707107 0.000000 0.707107
vn -0.707107 0.000000 0.707107
vn -0.707107 0.000000 0.707107
vn -0.707107 0.000000 0.707107
vn -0.707107 0.000000 0.707107
vn -0.707107 0.000000 0.707107
vn 1.000000 0.000000 0.000000
vn 1.000000 0.000000 0.000000
vn 1.000000 0.000000 0.000000
vn 1.000000 0.000000 0.000000
vn 1.000000 0.000000 0.000000
vn 1.000000 0.000000 0.000000
vn 0.000000 1.000000 0.000000
vn 0.000000 1.000000 -0.000000
vn 0.000000 1.000000 -0.000002
vn 0.000000 1.000000 -0.000002
vn 0.000000 1.000000 -0.000000
vn 0.000000 1.000000 -0.000002
vn 0.000000 -1.000000 0.000000
vn 0.000000 -1.000000 0.000000
vn 0.000000 -1.000000 0.000000
vn 0.000000 -1.000000 0.000000
vn 0.000000 -1.000000 0.000000
vn 0.000000 -1.000000 0.000000
vn 0.156424 0.000000 -0.987690
vn 0.156424 0.000000 -0.987690
vn 0.156424 0.000000 -0.987690
vn 0.156424 0.000000 -0.987690
vn 0.156424 0.000000 -0.987690
vn 0.156424 0.000000 -0.987690
vn -0.156424 0.000000 0.987690
vn -0.156424 0.000000 0.987690
vn -0.156424 0.000000 0.987690
vn -0.156424 0.000000 0.987690
vn -0.156424 0.000000 0.987690
vn -0.156424 0.000000 0.987690
vn 0.000000 1.000000 0.000000
vn 0.000000 1.000000 0.000000
vn 0.000000 1.000000 0.000000
vn 0.000000 1.000000 0.000000
vn 0.000000 1.000000 0.000000
vn 0.000000 1.000000 0.000000
vn 0.000000 0.000000 -1.000000
vn 0.000000 0.000000 -1.000000
vn 0.000000 0.000000 -1.000000
vn 0.000000 0.000000 -1.000000
vn 0.000000 0.000000 -1.000000
vn 0.000000 0.000000 -1.000000
vn 0.000000 -1.000000 0.000000
vn 0.000000 -1.000000 0.000000
vn 0.000000 -1.000000 0.000000
vn 0.000000 -1.000000 0.000000
vn 0.000000 -1.000000 0.000000
vn 0.000000 -1.000000 0.000000
vn 0.987688 0.000000 -0.156434
vn 0.987688 0.000000 -0.156434
vn 0.987688 0.000000 -0.156434
vn 0.987688 0.000000 -0.156434
vn 0.987688 0.000000 -0.156434
vn 0.987688 0.000000 -0.156434
vn -0.987688 0.000000 0.156434
vn -0.987688 0.000000 0.156434
vn -0.987689 0.000000 0.156434
vn -0.987689 0.000000 0.156434
vn -0.987688 0.000000 0.156434
vn -0.987689 0.000000 0.156434
vn 0.000000 -1.000000 0.000000
vn 0.000000 -1.000000 0.000000
vn 0.000000 -1.000000 0.000000
vn 0.000000 -1.000000 0.000000
vn 0.000000 -1.000000 0.000000
vn 0.000000 -1.000000 0.000000
vn 0.707107 -0.000000 -0.707107
vn 0.707107 -0.000000 -0.707107
vn 0.707107 -0.000000 -0.707107
vn 0.707107 -0.000000 -0.707107
vn 0.707107 -0.000000 -0.707107
vn 0.707107 0.000000 -0.707107
s off
f 1/1/1 14/2/2 2/4/3
f 2/4/4 14/2/5 13/3/6
f 3/5/7 15/6/8 1/1/9
f 1/1/10 15/6/11 14/2/12
f 5/7/13 6/8/14 7/10/15
f 7/10/16 6/8/17 8/9/18
f 7/10/19 8/9/20 14/2/21
f 14/2/22 8/9/23 13/3/24
f 15/6/25 16/11/26 5/7/27
f 5/7/28 16/11/29 6/8/30
f 6/8/31 16/11/32 8/9/33
f 8/9/34 16/11/35 13/3/36
f 15/6/37 5/7/38 14/2/39
f 14/2/40 5/7/41 7/10/42
f 1/1/43 2/4/44 9/13/45
f 9/13/46 2/4/47 10/12/48
f 9/13/49 10/12/50 11/15/51
f 11/15/52 10/12/53 12/14/54
f 11/15/55 12/14/56 3/5/57
f 3/5/58 12/14/59 4/16/60
f 4/16/61 12/14/62 2/4/63
f 2/4/64 12/14/65 10/12/66
f 11/15/67 3/5/68 9/13/69
f 9/13/70 3/5/71 1/1/72
f 4/16/73 16/11/74 3/5/75
f 3/5/76 16/11/77 15/6/78
f 2/4/79 13/3/80 4/16/81
f 4/16/82 13/3/83 16/11/84
