# This file uses meters as units for non-parametric coordinates.

v -200.000000 49.948872 0.000000
v 0.000000 49.948872 0.000000
v -200.000000 31.581764 0.000000
v 0.000000 31.581764 0.000000
v -200.000000 0.000000 100.000000
v 0.000000 0.000000 100.000000
v -200.000000 13.400299 75.000000
v 0.000000 13.400299 75.000000
v -200.000000 25.583155 50.000000
v 0.000000 25.583155 50.000000
v -200.000000 37.766010 25.000000
v 0.000000 37.766010 25.000000
v 0.000000 49.948872 25.000000
v -200.000000 49.948872 20.977442
v 0.000000 37.766010 50.000000
v -200.000000 37.766010 50.000000
v 0.000000 25.583155 75.000000
v -190.875748 25.583157 75.000000
v 0.000000 13.400299 95.096992
v -200.000000 13.400299 100.000000
v -200.000000 7.216045 50.000000
v 0.000000 7.216046 50.000000
v 0.000000 0.000000 75.000000
v -200.000000 0.000000 75.000000
v -200.000000 19.398907 25.000000
v 0.000000 19.398907 25.000000
v 0.000000 7.216048 75.000000
v 0.000000 19.398903 50.000000
v 0.000000 31.581764 25.000000
v -200.000000 7.216048 75.000000
v -200.000000 19.398907 50.000000
v -200.000000 31.581764 25.000000
v -200.000000 25.583155 70.799644
v -200.000000 20.803020 75.000000
v -12.292536 13.400298 100.000000
v 0.000000 9.849689 100.000000
v -69.820747 37.766010 50.000000
v -101.170685 37.766010 50.000000
v -87.523682 37.766010 41.838295
v -86.931763 32.735985 50.000000
v -200.000000 44.413986 25.000000
v -188.975067 49.948872 25.000002
vt 0.247760 0.303287
vt 0.247760 0.303287
vt 0.247760 0.303287
vt 0.247760 0.303287
vt 0.247760 0.303287
vt 0.247760 0.303287
vt 0.247760 0.303287
vt 0.247760 0.303287
vt 0.247760 0.303287
vt 0.247760 0.303287
vt 0.247760 0.303287
vt 0.247760 0.303287
vt 0.247760 0.303287
vt 0.247760 0.303287
vt 0.247760 0.303287
vt 0.247760 0.303287
vt 0.247760 0.303287
vt 0.247760 0.303287
vt 0.247760 0.303287
vt 0.247760 0.303287
vt 0.247760 0.303287
vt 0.247760 0.303287
vt 0.247760 0.303287
vt 0.247760 0.303287
vt 0.247760 0.303287
vt 0.247760 0.303287
vt 0.247760 0.303287
vt 0.247760 0.303287
vt 0.247760 0.303287
vt 0.247760 0.303287
vt 0.247760 0.303287
vt 0.247760 0.303287
vt 0.247760 0.303287
vt 0.247760 0.303287
vt 0.247760 0.303287
vt 0.247760 0.303287
vt 0.247760 0.303287
vt 0.247760 0.303287
vt 0.247760 0.303287
vt 0.247760 0.303287
vt 0.247760 0.303287
vt 0.247760 0.303287
vt 0.247760 0.303287
vt 0.247760 0.303287
vt 0.247760 0.303287
vt 0.247760 0.303287
vt 0.247760 0.303287
vt 0.247760 0.303287
vt 0.247760 0.303287
vt 0.247760 0.303287
vt 0.247760 0.303287
vt 0.247760 0.303287
vt 0.247760 0.303287
vt 0.247760 0.303287
vn 0.000000 0.000000 -1.000000
vn 0.000000 0.000000 -1.000000
vn 0.000000 0.000000 -1.000000
vn 0.000000 0.000000 -1.000000
vn 0.000000 1.000000 0.000000
vn 0.000000 1.000000 0.000000
vn 0.000000 1.000000 0.000000
vn 0.000000 1.000000 0.000000
vn 0.000000 1.000000 0.000000
vn 0.000000 0.000000 -1.000000
vn 0.000000 0.000000 -1.000000
vn 0.000000 0.000000 -1.000000
vn 0.000000 0.000000 -1.000000
vn -1.000000 0.000000 0.000000
vn -1.000000 0.000000 0.000000
vn -1.000000 0.000000 0.000000
vn 0.227792 0.788636 0.571107
vn 0.227792 0.788637 0.571107
vn 0.000000 0.000000 1.000000
vn 0.000000 0.000000 1.000000
vn 0.000000 0.000000 1.000000
vn 0.000000 0.000000 1.000000
vn -0.283074 0.563856 0.775845
vn -0.283074 0.563856 0.775845
vn 0.000000 0.000000 1.000000
vn 0.000000 1.000000 0.000000
vn 0.000000 1.000000 0.000000
vn 0.000000 1.000000 0.000000
vn 0.000000 1.000000 0.000000
vn 0.000000 1.000000 0.000000
vn 0.000000 1.000000 -0.000000
vn 0.000000 1.000000 -0.000000
vn 0.000000 1.000000 0.000000
vn 0.000000 1.000000 0.000000
vn 0.000000 1.000000 0.000000
vn 0.000000 1.000000 0.000000
vn 0.000000 1.000000 0.000000
vn 0.000000 1.000000 0.000000
vn 0.000000 1.000000 0.000000
vn 1.000000 0.000000 0.000000
vn 1.000000 0.000000 0.000000
vn 1.000000 0.000000 0.000000
vn 1.000000 0.000000 0.000000
vn 1.000000 0.000000 0.000000
vn 1.000000 0.000000 0.000000
vn 1.000000 0.000000 0.000000
vn 1.000000 0.000000 0.000000
vn 1.000000 0.000000 0.000000
vn 1.000000 0.000000 0.000000
vn 1.000000 0.000000 0.000000
vn 1.000000 0.000000 0.000000
vn 1.000000 0.000000 0.000000
vn -0.326821 0.623835 0.709942
vn -0.326821 0.623835 0.709942
vn -1.000000 0.000000 0.000000
vn -1.000000 0.000000 0.000000
vn -1.000000 0.000000 0.000000
vn -1.000000 0.000000 0.000000
vn 1.000000 0.000000 0.000000
vn 1.000000 0.000000 0.000000
vn 1.000000 0.000000 0.000000
vn 1.000000 0.000000 0.000000
vn -0.000000 -1.000000 -0.000000
vn -0.000000 -1.000000 -0.000000
vn -0.000000 -1.000000 -0.000000
vn -0.000000 -1.000000 -0.000000
vn 1.000000 0.000000 0.000000
vn 1.000000 0.000000 0.000000
vn 1.000000 0.000000 0.000000
vn 1.000000 0.000000 0.000000
vn 1.000000 0.000000 0.000000
vn 1.000000 0.000000 0.000000
vn 1.000000 0.000000 0.000000
vn 1.000000 0.000000 0.000000
vn 0.000000 -1.000000 0.000000
vn 0.000000 -1.000000 0.000000
vn 0.000000 -1.000000 0.000000
vn 0.000000 -1.000000 0.000000
vn -1.000000 0.000000 0.000000
vn -1.000000 0.000000 0.000000
vn -1.000000 0.000000 0.000000
vn -1.000000 0.000000 0.000000
vn 0.000000 -1.000000 0.000000
vn 0.000000 -1.000000 0.000000
vn 0.000000 -1.000000 0.000000
vn 0.000000 -1.000000 0.000000
vn 1.000000 0.000000 0.000000
vn 1.000000 0.000000 0.000000
vn 1.000000 0.000000 0.000000
vn 1.000000 0.000000 0.000000
vn -1.000000 0.000000 0.000000
vn -1.000000 0.000000 0.000000
vn -1.000000 0.000000 0.000000
vn -1.000000 0.000000 0.000000
vn -1.000000 0.000000 0.000000
vn -1.000000 0.000000 0.000000
vn -1.000000 0.000000 0.000000
vn -1.000000 0.000000 0.000000
vn -1.000000 0.000000 0.000000
vn -1.000000 0.000000 0.000000
vn 0.000000 -1.000000 0.000000
vn 0.000000 -1.000000 0.000000
vn 0.000000 -1.000000 0.000000
vn 0.000000 -1.000000 0.000000
vn 0.000000 0.000000 -1.000000
vn 0.000000 0.000000 -1.000000
vn 0.000000 0.000000 -1.000000
vn 0.000000 0.000000 -1.000000
vn 0.000000 0.000000 -1.000000
vn 0.000000 0.000000 -1.000000
vn 0.000000 0.000000 -1.000000
vn 0.000000 0.000000 -1.000000
vn 1.000000 0.000000 0.000000
vn 1.000000 0.000000 0.000000
vn 1.000000 0.000000 0.000000
vn 1.000000 0.000000 0.000000
vn 1.000000 0.000000 0.000000
vn 1.000000 0.000000 0.000000
vn -1.000000 0.000000 0.000000
vn -1.000000 0.000000 0.000000
vn -1.000000 0.000000 0.000000
vn -1.000000 0.000000 0.000000
vn -1.000000 0.000000 0.000000
vn -1.000000 0.000000 0.000000
vn -1.000000 0.000000 0.000000
vn -1.000000 0.000000 0.000000
vn -1.000000 0.000000 0.000000
vn -1.000000 0.000000 0.000000
vn -1.000000 0.000000 0.000000
vn -1.000000 0.000000 0.000000
vn 0.000000 0.000000 1.000000
vn 0.000000 0.000000 1.000000
vn 0.000000 0.000000 1.000000
vn 0.000000 0.000000 1.000000
vn 0.000000 0.000000 1.000000
vn 0.000000 0.000000 1.000000
vn 0.000000 0.000000 1.000000
vn 0.000000 0.000000 1.000000
vn -0.000000 0.000000 1.000000
vn -0.000000 0.000000 1.000000
vn 0.000000 0.000000 1.000000
vn 0.000000 0.000000 1.000000
vn 0.000000 0.000000 1.000000
vn 0.000000 0.851312 0.524659
vn 0.000000 0.851312 0.524659
vn 0.000000 0.851312 0.524659
vn 0.000000 0.851312 0.524659
vn 0.000000 1.000000 0.000000
vn 0.000000 1.000000 0.000000
vn 0.000000 1.000000 0.000000
vn 0.000000 1.000000 0.000000
vn 0.000000 0.000000 1.000000
vn 0.000000 0.000000 1.000000
vn 0.000000 0.000000 1.000000
vn 0.000000 0.000000 1.000000
vn -0.000000 0.000000 1.000000
vn -0.000000 0.000000 1.000000
vn 0.000000 0.000000 1.000000
vn 0.000000 1.000000 0.000000
vn 0.000000 1.000000 0.000000
vn 0.000000 1.000000 0.000000
vn -1.000000 0.000000 0.000000
vn -1.000000 0.000000 0.000000
vn -1.000000 0.000000 0.000000
vn -1.000000 0.000000 0.000000
vn 0.000000 0.000000 1.000000
vn 0.000000 0.000000 1.000000
vn 0.000000 -0.000000 1.000000
vn 0.000000 -0.000000 1.000000
vn 0.000000 0.000000 1.000000
s off
f 3/5/1 1/3/2 2/2/3 4/4/4
f 13/7/5 2/22/6 1/23/7 14/6/8 42/54/9
f 23/30/10 24/32/11 30/39/12 27/42/13
f 7/11/14 5/9/15 20/12/16
f 35/47/17 36/48/18 19/13/19
f 10/19/20 15/16/21 37/49/22
f 41/53/23 42/54/24 14/6/25
f 11/20/26 16/17/27 38/50/28 39/51/29
f 9/18/30 33/45/31 18/15/32 17/14/33 10/19/34
f 7/11/35 20/12/36 35/47/37 19/13/38 8/10/39
f 12/21/40 2/22/41 13/7/42
f 10/19/43 12/21/44 15/16/45
f 8/10/46 10/19/47 17/14/48
f 6/8/49 8/10/50 19/13/51 36/48/52
f 33/45/53 34/46/54 18/15/55
f 11/20/56 9/18/57 16/17/58
f 27/36/59 22/29/60 28/37/61 8/10/62
f 28/44/63 31/40/64 25/33/65 26/34/66
f 28/37/67 26/35/68 29/38/69 10/19/70
f 23/31/71 27/36/72 8/10/73 6/8/74
f 5/9/75 24/32/76 23/30/77 6/8/78
f 7/11/79 30/39/80 24/32/81 5/9/82
f 29/43/83 32/41/84 3/26/85 4/24/86
f 29/38/87 4/25/88 2/22/89 12/21/90
f 9/18/91 31/40/92 7/11/93
f 32/41/94 9/18/95 11/20/96
f 11/20/97 1/1/98 3/26/99 32/41/100
f 27/42/101 30/39/102 21/27/103 22/28/104
f 26/34/105 25/33/106 32/41/107 29/43/108
f 22/28/109 21/27/110 31/40/111 28/44/112
f 8/10/113 28/37/114 10/19/115
f 10/19/116 29/38/117 12/21/118
f 25/33/119 31/40/120 9/18/121 32/41/122
f 7/11/123 31/40/124 21/27/125 30/39/126
f 9/18/127 7/11/128 34/46/129 33/45/130
f 8/10/131 17/14/132 18/15/133 34/46/134 7/11/135
f 20/12/136 5/9/137 6/8/138 36/48/139 35/47/140
f 9/18/141 38/50/142 16/17/143
f 38/50/144 40/52/145 37/49/146 39/51/147
f 12/21/148 39/51/149 37/49/150 15/16/151
f 10/19/152 37/49/153 40/52/154
f 10/19/155 40/52/156 38/50/157 9/18/158
f 11/20/159 39/51/160 12/21/161
f 1/23/162 11/20/163 41/53/164 14/6/165
f 12/21/166 13/7/167 42/54/168 41/53/169 11/20/170
