# This file uses meters as units for non-parametric coordinates.

v -100.000000 3.841484 96.158524
v 0.000000 0.000000 6.758590
v -97.931290 93.526077 0.000000
v -100.000000 0.000000 0.000000
v -99.999992 44.783722 2.624861
v -26.872980 2.347587 97.652420
v -45.603485 0.000008 100.000000
v 0.000000 0.000000 100.000015
v -100.000000 5.231681 94.768326
v -92.147675 0.000008 100.000000
v -4.993264 5.113088 0.000000
v -9.380615 0.000000 0.000000
v -45.871193 46.971970 0.000000
v -62.261955 63.756065 0.000000
v -57.322449 50.229282 0.000000
v -53.823120 55.114723 4.245128
v -94.779465 97.053894 2.946103
v -97.756584 95.953545 4.046454
v -93.725090 95.974220 0.000000
v -47.155666 48.287266 51.712738
v -61.856987 63.341373 36.658630
v -56.649597 51.562660 48.437340
v -54.510155 55.818237 38.112274
v -98.004585 43.849270 0.336670
vt 0.247760 0.303287
vt 0.247760 0.303287
vt 0.247760 0.303287
vt 0.247760 0.303287
vt 0.247760 0.303287
vt 0.247760 0.303287
vt 0.247760 0.303287
vt 0.247760 0.303287
vt 0.247760 0.303287
vt 0.247760 0.303287
vt 0.247760 0.303287
vt 0.247760 0.303287
vt 0.247760 0.303287
vt 0.247760 0.303287
vt 0.247760 0.303287
vt 0.247760 0.303287
vt 0.247760 0.303287
vt 0.247760 0.303287
vt 0.247760 0.303287
vt 0.247760 0.303287
vt 0.247760 0.303287
vt 0.247760 0.303287
vt 0.247760 0.303287
vt 0.247760 0.303287
vn -0.018230 -0.999668 0.018230
vn -0.003545 -0.999992 0.001895
vn 0.000000 -1.000000 0.000000
vn 0.000000 -1.000000 0.000000
vn -0.003545 -0.999992 0.001895
vn 0.000000 -1.000000 0.000000
vn -0.018230 -0.999668 0.018230
vn -0.037557 -0.997935 0.052115
vn -0.003545 -0.999992 0.001895
vn -0.037557 -0.997935 0.052115
vn 0.051255 -0.998296 -0.027881
vn -0.003545 -0.999992 0.001895
vn -0.453161 -0.890718 0.035584
vn -0.003545 -0.999992 0.001895
vn -0.049071 -0.998788 0.003853
vn -0.003545 -0.999992 0.001895
vn 0.051255 -0.998296 -0.027881
vn -0.049071 -0.998788 0.003853
vn -0.014050 0.008316 -0.999867
vn -0.014050 0.008316 -0.999867
vn -0.014050 0.008316 -0.999867
vn -0.754349 -0.003336 -0.656465
vn -0.754349 -0.003336 -0.656465
vn -0.754349 -0.003336 -0.656465
vn -1.000000 0.000000 0.000000
vn -0.999818 0.017520 0.007518
vn -1.000000 0.000000 -0.000000
vn -1.000000 0.000000 -0.000000
vn -0.999818 0.017520 0.007518
vn -0.999553 0.027461 0.011787
vn -0.000002 0.707106 0.707108
vn -0.000002 0.707106 0.707108
vn -0.000002 0.707106 0.707107
vn -0.000000 0.707107 0.707107
vn -0.000001 0.707106 0.707107
vn -0.000000 0.707107 0.707107
vn -0.000000 0.707107 0.707107
vn -0.000001 0.707106 0.707107
vn -0.000001 0.707106 0.707107
vn 0.000001 0.707106 0.707107
vn 0.000001 0.707106 0.707107
vn 0.000001 0.707106 0.707107
vn -0.450512 0.774024 -0.444889
vn -0.003331 0.711595 0.702582
vn -0.017413 0.730167 0.683047
vn 0.715440 0.698674 0.000000
vn 0.715440 0.698674 0.000000
vn 0.715440 0.698674 0.000000
vn 0.522516 -0.448352 -0.725229
vn 0.522516 -0.448352 -0.725229
vn 0.522516 -0.448352 -0.725229
vn 0.000000 0.000000 -1.000000
vn 0.000000 0.000000 -1.000000
vn 0.000000 0.000000 -1.000000
vn 0.000000 0.000000 -1.000000
vn 0.000000 0.000000 -1.000000
vn 0.000000 0.000000 -1.000000
vn 0.000000 0.000000 -1.000000
vn 0.000000 0.000000 -1.000000
vn 0.000000 0.000000 -1.000000
vn 0.000000 0.000000 -1.000000
vn 0.000000 0.000000 -1.000000
vn 0.000000 0.000000 -1.000000
vn 0.610588 0.222965 -0.759914
vn 0.440644 0.387844 -0.809574
vn 0.397607 0.422807 -0.814335
vn 0.397607 0.422807 -0.814335
vn 0.440644 0.387844 -0.809574
vn 0.164228 0.577350 -0.799810
vn 0.683625 0.729481 -0.022674
vn 0.715440 0.698674 0.000000
vn 0.705291 0.708879 -0.007372
vn 0.715440 0.698674 0.000000
vn 0.715440 0.698674 0.000000
vn 0.705291 0.708879 -0.007372
vn -0.998944 0.042398 0.017695
vn -0.998895 0.043214 0.018456
vn -0.999818 0.017520 0.007518
vn -0.998895 0.043214 0.018456
vn -0.999553 0.027461 0.011787
vn -0.999818 0.017520 0.007518
vn 0.000000 0.707107 0.707107
vn 0.000000 0.707107 0.707107
vn 0.000000 0.707107 0.707107
vn 0.683625 0.729481 -0.022674
vn 0.705291 0.708879 -0.007372
vn -0.450507 0.774026 -0.444891
vn 0.715440 0.698674 0.000000
vn 0.715440 0.698674 0.000000
vn 0.715440 0.698674 0.000000
vn 0.715440 0.698674 0.000000
vn 0.715440 0.698674 0.000000
vn 0.715440 0.698674 0.000000
vn 0.715440 0.698674 0.000000
vn 0.715440 0.698674 0.000000
vn 0.715440 0.698674 0.000000
vn 0.715440 0.698674 0.000000
vn 0.715440 0.698674 0.000000
vn 0.715440 0.698674 0.000000
vn -0.000002 0.707107 0.707107
vn -0.000002 0.707107 0.707107
vn -0.000002 0.707107 0.707107
vn 0.170002 0.898184 0.405420
vn 0.170002 0.898184 0.405420
vn 0.170002 0.898184 0.405420
vn 0.613262 0.677391 0.406266
vn 0.613262 0.677391 0.406266
vn 0.613262 0.677391 0.406266
vn -0.017413 0.730167 0.683047
vn -0.003331 0.711595 0.702582
vn -0.000000 0.707107 0.707107
vn -0.003331 0.711595 0.702582
vn -0.000000 0.707107 0.707107
vn -0.000000 0.707107 0.707107
vn 0.000000 0.707107 0.707107
vn 0.000000 0.707107 0.707107
vn 0.000000 0.707107 0.707107
vn 0.715440 0.698674 0.000000
vn 0.715440 0.698674 -0.000001
vn 0.715440 0.698674 0.000000
vn 0.715440 0.698674 0.000000
vn 0.715440 0.698674 -0.000001
vn 0.715440 0.698674 -0.000001
vn -0.745157 0.039021 -0.665746
vn -0.745157 0.039021 -0.665746
vn -0.745157 0.039021 -0.665746
vn 0.000000 0.000000 -1.000000
vn -0.005593 -0.006701 -0.999962
vn -0.004841 -0.005800 -0.999972
vn -0.005593 -0.006701 -0.999962
vn -0.005649 -0.006769 -0.999961
vn -0.004841 -0.005800 -0.999972
s off
f 8/3/1 4/4/2 2/2/3
f 2/2/4 4/4/5 12/12/6
f 8/3/7 6/5/8 4/4/9
f 6/5/10 7/6/11 4/4/12
f 1/7/13 4/4/14 10/8/15
f 4/4/16 7/6/17 10/8/18
f 14/14/19 4/4/20 24/24/21
f 5/9/22 3/1/23 24/24/24
f 1/7/25 9/10/26 4/4/27
f 4/4/28 9/10/29 5/9/30
f 1/7/31 10/8/32 9/10/33
f 8/3/34 20/20/35 6/5/36
f 6/5/37 20/20/38 22/22/39
f 9/10/40 10/8/41 18/18/42
f 3/1/43 18/18/44 17/17/45
f 8/3/46 2/2/47 16/16/48
f 2/2/49 12/12/50 11/11/51
f 11/11/52 12/12/53 13/13/54
f 12/12/55 4/4/56 13/13/57
f 15/15/58 4/4/59 14/14/60
f 13/13/61 4/4/62 15/15/63
f 14/14/64 16/16/65 15/15/66
f 15/15/67 16/16/68 13/13/69
f 17/17/70 21/21/71 19/19/72
f 21/21/73 16/16/74 19/19/75
f 18/18/76 3/1/77 9/10/78
f 3/1/79 5/9/80 9/10/81
f 22/22/82 10/8/83 7/6/84
f 17/17/85 19/19/86 3/1/87
f 19/19/88 16/16/89 14/14/90
f 8/3/91 16/16/92 20/20/93
f 21/21/94 23/23/95 16/16/96
f 20/20/97 16/16/98 23/23/99
f 22/22/100 21/21/101 17/17/102
f 23/23/103 22/22/104 20/20/105
f 21/21/106 22/22/107 23/23/108
f 17/17/109 18/18/110 22/22/111
f 18/18/112 10/8/113 22/22/114
f 22/22/115 7/6/116 6/5/117
f 16/16/118 2/2/119 13/13/120
f 13/13/121 2/2/122 11/11/123
f 5/9/124 24/24/125 4/4/126
f 19/19/127 14/14/128 3/1/129
f 14/14/130 24/24/131 3/1/132
