# This file uses meters as units for non-parametric coordinates.

v 0.000000 -10.000000 199.999985
v 0.000000 0.000000 191.632065
v -200.000000 0.000000 0.000000
v -4.930685 0.000000 0.000000
v -200.000000 -10.000000 0.000000
v 0.000000 -10.000000 0.000000
v 0.000000 0.000000 200.000000
v 0.000000 -2.643132 199.999985
v 0.000000 0.000000 9.933517
v 0.000000 -3.090549 0.000000
v -26.694145 0.000000 0.000000
v -69.419502 0.000000 0.000000
v -43.712486 0.000000 3.587307
v -55.291019 -3.010455 0.000000
v 0.000000 0.000000 30.882370
v 0.000000 0.000000 70.399544
v 0.000000 -2.601132 35.200905
v -6.073006 0.000000 37.159363
v -177.243744 0.000000 0.000000
v -200.000000 -3.349202 0.000000
v -9.788651 0.000000 138.196594
v -80.719170 -0.000000 36.046772
v -82.442924 -10.000000 38.196579
v -35.418865 0.000000 80.830261
v -38.196556 -10.000000 82.442924
v -138.196594 -0.000000 9.788666
v -138.196594 -10.000000 9.788666
v -9.788651 -10.000000 138.196594
v -125.519852 0.000000 0.000000
v -122.280457 -4.048151 0.000000
v -108.988739 0.000000 0.000000
v -118.715324 -0.000000 7.401088
v -99.412544 -0.000000 29.550125
v -82.442924 -3.457057 38.196579
v -77.201332 -0.000000 43.438175
v -40.712387 -0.000000 79.927094
v -38.196556 -3.382865 82.442924
v -31.452639 0.000000 95.678619
vt 0.247760 0.303287
vt 0.247760 0.303287
vt 0.247760 0.303287
vt 0.247760 0.303287
vt 0.247760 0.303287
vt 0.247760 0.303287
vt 0.247760 0.303287
vt 0.247760 0.303287
vt 0.247760 0.303287
vt 0.247760 0.303287
vt 0.247760 0.303287
vt 0.247760 0.303287
vt 0.247760 0.303287
vt 0.247760 0.303287
vt 0.247760 0.303287
vt 0.247760 0.303287
vt 0.247760 0.303287
vt 0.247760 0.303287
vt 0.247760 0.303287
vt 0.247760 0.303287
vt 0.247760 0.303287
vt 0.247760 0.303287
vt 0.247760 0.303287
vt 0.247760 0.303287
vt 0.247760 0.303287
vt 0.247760 0.303287
vt 0.247760 0.303287
vt 0.247760 0.303287
vt 0.247760 0.303287
vt 0.247760 0.303287
vt 0.247760 0.303287
vt 0.247760 0.303287
vt 0.247760 0.303287
vt 0.247760 0.303287
vt 0.247760 0.303287
vt 0.247760 0.303287
vt 0.247760 0.303287
vt 0.247760 0.303287
vn 1.000000 0.000000 0.000000
vn 1.000000 0.000000 0.000000
vn 1.000000 0.000000 0.000000
vn 0.000000 0.000000 0.000000
vn 0.000000 0.000000 0.000000
vn 0.000000 0.000000 0.000000
vn 0.000000 0.000000 -1.000000
vn 0.000000 0.000000 -1.000000
vn 0.000000 0.000000 -1.000000
vn 0.000000 -1.000000 0.000000
vn 0.000000 -1.000000 0.000000
vn 0.000000 -1.000000 0.000000
vn 0.513550 0.819321 -0.254910
vn 0.513550 0.819321 -0.254910
vn 0.513550 0.819321 -0.254910
vn 1.000000 0.000000 0.000000
vn 1.000000 0.000000 0.000000
vn 1.000000 0.000000 0.000000
vn 1.000000 0.000000 0.000000
vn 1.000000 0.000000 0.000000
vn 1.000000 0.000000 0.000000
vn 1.000000 0.000000 0.000000
vn 1.000000 0.000000 0.000000
vn 1.000000 0.000000 0.000000
vn 0.000000 0.000000 -1.000000
vn 0.000000 0.000000 -1.000000
vn 0.000000 0.000000 -1.000000
vn 0.000000 0.000000 -1.000000
vn 0.000000 0.000000 -1.000000
vn 0.000000 0.000000 -1.000000
vn 0.000000 0.000000 -1.000000
vn 0.000000 0.000000 -1.000000
vn 0.000000 0.000000 -1.000000
vn -0.093765 0.890695 -0.444827
vn -0.093765 0.890695 -0.444827
vn -0.093765 0.890695 -0.444827
vn 0.000000 0.000000 -1.000000
vn 0.000000 0.000000 -1.000000
vn 0.000000 0.000000 -1.000000
vn 0.000000 0.000000 -1.000000
vn 0.000000 0.000000 -1.000000
vn 0.000000 0.000000 -1.000000
vn 0.115951 0.544176 -0.830920
vn 0.115951 0.544176 -0.830920
vn 0.115951 0.544176 -0.830920
vn 1.000000 0.000000 0.000000
vn 1.000000 0.000000 0.000000
vn 1.000000 0.000000 0.000000
vn 1.000000 0.000000 0.000000
vn 1.000000 0.000000 0.000000
vn 1.000000 0.000000 0.000000
vn 1.000000 0.000000 0.000000
vn 1.000000 0.000000 0.000000
vn 1.000000 0.000000 0.000000
vn 0.374091 0.924870 -0.068347
vn 0.374091 0.924870 -0.068347
vn 0.374091 0.924870 -0.068347
vn 0.470555 0.755852 0.455264
vn 0.470555 0.755852 0.455264
vn 0.470555 0.755852 0.455264
vn 0.000000 0.000000 -1.000000
vn 0.000000 0.000000 -1.000000
vn 0.000000 0.000000 -1.000000
vn 0.000000 0.000000 -1.000000
vn 0.000000 0.000000 -1.000000
vn 0.000000 0.000000 -1.000000
vn 0.000000 0.000000 -1.000000
vn 0.000000 0.000000 -1.000000
vn 0.000000 0.000000 -1.000000
vn 1.000000 0.000000 0.000000
vn 1.000000 0.000000 0.000000
vn 1.000000 0.000000 0.000000
vn -0.000000 1.000000 0.000000
vn -0.000000 1.000000 0.000000
vn -0.000000 1.000000 0.000000
vn -0.000000 1.000000 0.000000
vn -0.000000 1.000000 0.000000
vn 0.000000 1.000000 0.000000
vn 0.000000 1.000000 0.000000
vn 0.000000 1.000000 0.000000
vn 0.000000 1.000000 0.000000
vn 0.000000 1.000000 0.000000
vn 0.000000 1.000000 0.000000
vn 0.000000 1.000000 0.000000
vn 0.000000 1.000000 0.000000
vn 0.000000 1.000000 0.000000
vn 0.000000 1.000000 0.000000
vn 0.000000 1.000000 0.000000
vn 0.000000 1.000000 0.000000
vn 0.000000 1.000000 0.000000
vn 0.000000 0.000000 -1.000000
vn 0.000000 0.000000 -1.000000
vn 0.000000 0.000000 -1.000000
vn -0.987689 0.000000 0.156434
vn -0.987688 0.000000 0.156434
vn -0.987689 0.000000 0.156434
vn -0.987689 0.000000 0.156434
vn -0.987688 0.000000 0.156434
vn -0.987689 0.000000 0.156434
vn -0.987688 -0.000001 0.156434
vn -0.987688 -0.000001 0.156434
vn -0.987688 -0.000001 0.156434
vn 0.000000 1.000000 0.000000
vn 0.000000 1.000000 0.000000
vn 0.000000 1.000000 0.000000
vn 0.000000 1.000000 -0.000000
vn 0.000000 1.000000 -0.000000
vn 0.000000 1.000000 -0.000000
vn 0.000000 1.000000 0.000000
vn 0.000000 1.000000 0.000000
vn 0.000000 1.000000 0.000000
vn -0.156434 0.000000 0.987688
vn -0.156434 0.000000 0.987688
vn -0.156434 0.000000 0.987688
vn -0.156434 0.000000 0.987688
vn -0.156434 0.000000 0.987688
vn -0.156434 0.000000 0.987688
vn -0.712309 0.675584 0.190269
vn -0.712309 0.675584 0.190269
vn -0.712309 0.675584 0.190269
vn -0.156434 0.000000 0.987688
vn -0.156434 0.000000 0.987688
vn -0.156434 0.000000 0.987688
vn -0.000000 1.000000 0.000000
vn -0.000000 1.000000 0.000000
vn -0.000000 1.000000 0.000000
vn -0.000000 1.000000 0.000000
vn -0.000000 1.000000 0.000000
vn -0.000000 1.000000 0.000000
vn -0.000000 1.000000 0.000000
vn -0.000000 1.000000 0.000000
vn -0.000000 1.000000 0.000000
vn 0.000000 -1.000000 0.000000
vn 0.000000 -1.000000 0.000000
vn 0.000000 -1.000000 0.000000
vn 0.000000 -1.000000 0.000000
vn 0.000000 -1.000000 0.000000
vn 0.000000 -1.000000 0.000000
vn 0.000000 -1.000000 0.000000
vn 0.000000 -1.000000 0.000000
vn 0.000000 -1.000000 0.000000
vn 0.000000 -1.000000 0.000000
vn 0.000000 -1.000000 0.000000
vn 0.000000 -1.000000 0.000000
vn -0.262485 0.600554 0.755272
vn -0.262485 0.600554 0.755272
vn -0.262485 0.600554 0.755273
vn -0.733654 0.582949 0.349173
vn -0.733654 0.582949 0.349173
vn -0.733654 0.582949 0.349173
vn -0.272086 0.893368 -0.357578
vn -0.272086 0.893368 -0.357578
vn -0.272086 0.893368 -0.357578
vn 0.000000 0.000000 -1.000000
vn 0.000000 0.000000 -1.000000
vn 0.000000 0.000000 -1.000000
vn 0.000000 1.000000 0.000000
vn -0.000000 1.000000 0.000000
vn 0.000000 1.000000 0.000000
vn -0.000000 1.000000 0.000000
vn -0.000000 1.000000 0.000000
vn -0.000000 1.000000 0.000000
vn -0.000000 1.000000 0.000000
vn -0.000000 1.000000 0.000000
vn 0.000000 1.000000 0.000000
vn 0.634281 0.507560 -0.583155
vn 0.634281 0.507560 -0.583155
vn 0.634281 0.507560 -0.583155
vn -0.000000 1.000000 0.000000
vn -0.000000 1.000000 0.000000
vn -0.000000 1.000000 0.000000
vn -0.000000 1.000000 0.000000
vn -0.000000 1.000000 0.000000
vn -0.000000 1.000000 -0.000000
vn -0.453991 0.000000 0.891007
vn -0.453991 0.000000 0.891007
vn -0.453990 0.000000 0.891007
vn -0.453991 0.000000 0.891007
vn -0.453991 0.000001 0.891007
vn -0.453990 0.000000 0.891007
vn -0.453991 0.000001 0.891007
vn -0.453990 0.000000 0.891007
vn -0.453990 0.000000 0.891007
vn -0.143708 0.519528 0.842282
vn -0.143708 0.519528 0.842282
vn -0.143708 0.519528 0.842282
vn -0.707107 0.000000 0.707107
vn -0.707107 0.000000 0.707107
vn -0.707107 0.000000 0.707107
vn -0.707107 0.000000 0.707107
vn -0.707107 0.000000 0.707107
vn -0.707107 0.000000 0.707107
vn -0.707107 0.000000 0.707107
vn -0.707107 0.000000 0.707107
vn -0.707107 0.000000 0.707107
vn -0.707107 0.000000 0.707107
vn -0.707107 0.000000 0.707107
vn -0.707107 0.000000 0.707107
vn -0.891007 0.000000 0.453990
vn -0.891007 -0.000000 0.453990
vn -0.891007 0.000000 0.453990
vn -0.891007 0.000000 0.453990
vn -0.891007 -0.000000 0.453990
vn -0.891007 -0.000000 0.453990
vn -0.891007 -0.000000 0.453990
vn -0.891007 -0.000002 0.453991
vn -0.891007 -0.000000 0.453990
vn -0.000000 1.000000 0.000000
vn -0.000000 1.000000 0.000000
vn -0.000000 1.000000 0.000000
vn -0.000000 1.000000 -0.000000
vn -0.000000 1.000000 -0.000000
vn -0.000000 1.000000 -0.000000
vn -0.000000 1.000000 -0.000000
vn -0.000000 1.000000 -0.000000
vn -0.000000 1.000000 -0.000000
s off
f 7/1/1 8/2/2 2/3/3
f 16/4/4 7/1/5 2/3/6
f 3/5/7 19/6/8 20/7/9
f 25/8/10 6/9/11 28/10/12
f 9/11/13 10/12/14 4/13/15
f 17/15/16 6/9/17 15/14/18
f 10/12/19 9/11/20 6/9/21
f 15/14/22 6/9/23 9/11/24
f 5/16/25 14/17/26 6/9/27
f 5/16/28 30/18/29 14/17/30
f 14/17/31 30/18/32 12/19/33
f 11/20/34 14/17/35 13/21/36
f 14/17/37 11/20/38 6/9/39
f 6/9/40 11/20/41 4/13/42
f 13/21/43 14/17/44 12/19/45
f 17/15/46 16/4/47 1/22/48
f 1/22/49 16/4/50 2/3/51
f 1/22/52 6/9/53 17/15/54
f 17/15/55 18/23/56 16/4/57
f 15/14/58 18/23/59 17/15/60
f 30/18/61 5/16/62 29/24/63
f 5/16/64 20/7/65 29/24/66
f 20/7/67 19/6/68 29/24/69
f 1/22/70 2/3/71 8/2/72
f 13/21/73 12/19/74 32/26/75
f 32/26/76 12/19/77 31/25/78
f 13/21/79 18/23/80 11/20/81
f 11/20/82 18/23/83 15/14/84
f 11/20/85 15/14/86 9/11/87
f 11/20/88 9/11/89 4/13/90
f 6/9/91 4/13/92 10/12/93
f 1/22/94 8/2/95 28/10/96
f 28/10/97 8/2/98 21/27/99
f 21/27/100 8/2/101 7/1/102
f 16/4/103 21/27/104 7/1/105
f 13/21/106 21/27/107 16/4/108
f 13/21/109 16/4/110 18/23/111
f 26/29/112 20/7/113 27/28/114
f 27/28/115 20/7/116 5/16/117
f 37/30/118 38/31/119 24/32/120
f 20/7/121 26/29/122 3/5/123
f 24/32/124 13/21/125 22/33/126
f 21/27/127 13/21/128 38/31/129
f 13/21/130 24/32/131 38/31/132
f 28/10/133 6/9/134 1/22/135
f 23/34/136 6/9/137 25/8/138
f 27/28/139 6/9/140 23/34/141
f 5/16/142 6/9/143 27/28/144
f 33/35/145 34/36/146 22/33/147
f 34/36/148 35/37/149 22/33/150
f 31/25/151 30/18/152 32/26/153
f 30/18/154 31/25/155 12/19/156
f 3/5/157 26/29/158 19/6/159
f 32/26/160 29/24/161 26/29/162
f 26/29/163 29/24/164 19/6/165
f 32/26/166 30/18/167 29/24/168
f 32/26/169 33/35/170 13/21/171
f 13/21/172 33/35/173 22/33/174
f 23/34/175 34/36/176 27/28/177
f 34/36/178 33/35/179 27/28/180
f 33/35/181 26/29/182 27/28/183
f 36/38/184 37/30/185 24/32/186
f 25/8/187 37/30/188 23/34/189
f 37/30/190 36/38/191 23/34/192
f 23/34/193 36/38/194 34/36/195
f 36/38/196 35/37/197 34/36/198
f 28/10/199 21/27/200 25/8/201
f 25/8/202 21/27/203 37/30/204
f 21/27/205 38/31/206 37/30/207
f 33/35/208 32/26/209 26/29/210
f 22/33/211 35/37/212 24/32/213
f 24/32/214 35/37/215 36/38/216
