# This file uses meters as units for non-parametric coordinates.

v -100.000000 0.000000 100.000000
v 0.000000 0.000000 89.815834
v -100.000000 36.375244 0.000000
v 0.000000 34.202564 0.000000
v -100.000000 0.000000 0.000000
v 0.000000 0.000000 0.000000
v -5.713141 0.000000 100.000000
v 0.000000 3.032712 91.662704
v -45.818459 36.375244 0.000000
v -30.698189 36.375244 0.000000
v -35.509430 31.343369 0.000000
v -34.260277 35.366512 2.813112
v -76.347191 0.000000 100.000000
v -66.457787 0.000000 100.000000
v -71.453972 1.190600 96.726898
v -71.659088 0.000000 96.726898
v -4.125585 36.375244 0.000000
v 0.000000 35.848354 1.448484
v -100.000000 24.229002 33.391506
v -100.000000 19.340065 46.831795
v -97.606781 21.890326 39.820812
v -100.000000 19.439085 38.358494
vt 0.247760 0.303287
vt 0.247760 0.303287
vt 0.247760 0.303287
vt 0.247760 0.303287
vt 0.247760 0.303287
vt 0.247760 0.303287
vt 0.247760 0.303287
vt 0.247760 0.303287
vt 0.247760 0.303287
vt 0.247760 0.303287
vt 0.247760 0.303287
vt 0.247760 0.303287
vt 0.247760 0.303287
vt 0.247760 0.303287
vt 0.247760 0.303287
vt 0.247760 0.303287
vt 0.247760 0.303287
vt 0.247760 0.303287
vt 0.247760 0.303287
vt 0.247760 0.303287
vt 0.247760 0.303287
vt 0.247760 0.303287
vn 0.328612 0.623984 -0.708984
vn 0.328612 0.623984 -0.708984
vn 0.328612 0.623984 -0.708984
vn 0.000000 0.000000 -1.000000
vn 0.000000 0.000000 -1.000000
vn 0.000000 0.000000 -1.000000
vn 0.000000 -1.000000 0.000000
vn 0.000000 -1.000000 0.000000
vn 0.000000 -1.000000 0.000000
vn 0.000000 -1.000000 0.000000
vn 0.000000 -1.000000 0.000000
vn 0.000000 -1.000000 0.000000
vn 0.000000 -1.000000 0.000000
vn 0.000000 -1.000000 0.000000
vn 0.000000 -1.000000 0.000000
vn 0.000000 -1.000000 0.000000
vn 0.000000 -1.000000 0.000000
vn 0.000000 -1.000000 0.000000
vn 0.000000 -1.000000 0.000000
vn 0.000000 -1.000000 0.000000
vn 0.000000 -1.000000 0.000000
vn 0.000000 -1.000000 0.000000
vn 0.000000 -1.000000 0.000000
vn 0.000000 -1.000000 0.000000
vn -0.717923 0.696075 0.008134
vn -0.717923 0.696075 0.008134
vn -0.717923 0.696075 0.008134
vn 0.835829 -0.285544 0.468886
vn 0.835829 -0.285544 0.468886
vn 0.835829 -0.285544 0.468886
vn 0.000000 0.000000 -1.000000
vn 0.000000 0.000000 -1.000000
vn 0.000000 0.000000 -1.000000
vn -0.001045 0.939939 0.341340
vn -0.001045 0.939939 0.341340
vn -0.001045 0.939939 0.341340
vn 0.000000 0.000000 -1.000000
vn 0.000000 0.000000 -1.000000
vn 0.000000 0.000000 -1.000000
vn 0.000000 0.000000 -1.000000
vn 0.000000 0.000000 -1.000000
vn 0.000000 0.000000 -1.000000
vn 0.000143 0.939727 0.341926
vn 0.000143 0.939727 0.341926
vn 0.000143 0.939727 0.341926
vn 0.000000 0.939713 0.341963
vn 0.000000 0.939713 0.341963
vn 0.000000 0.939713 0.341963
vn -0.000076 0.939721 0.341942
vn -0.000076 0.939721 0.341942
vn -0.000076 0.939721 0.341942
vn 0.569691 -0.098149 0.815977
vn 0.569691 -0.098149 0.815977
vn 0.569691 -0.098149 0.815977
vn -0.530375 0.091376 0.842824
vn -0.530375 0.091376 0.842824
vn -0.530375 0.091376 0.842824
vn 0.000132 0.939695 0.342015
vn 0.000132 0.939695 0.342015
vn 0.000132 0.939695 0.342015
vn 0.000000 0.939713 0.341964
vn 0.000000 0.939713 0.341964
vn 0.000000 0.939713 0.341964
vn -0.601181 0.574821 -0.555123
vn -0.601181 0.574821 -0.555123
vn -0.601181 0.574821 -0.555123
vn 0.245577 0.503125 -0.828587
vn 0.245577 0.503125 -0.828587
vn 0.245577 0.503125 -0.828587
vn 0.000000 0.939759 0.341839
vn 0.000000 0.939758 0.341839
vn 0.000000 0.939758 0.341839
vn 0.000000 0.939758 0.341839
vn 0.000000 0.939758 0.341839
vn 0.000000 0.939758 0.341839
vn 0.003035 0.940080 0.340940
vn 0.003035 0.940080 0.340940
vn 0.003035 0.940080 0.340940
vn 0.000000 0.939758 0.341839
vn 0.000000 0.939758 0.341839
vn 0.000000 0.939758 0.341839
vn 0.000000 0.939758 0.341839
vn 0.000000 0.939758 0.341839
vn 0.000000 0.939758 0.341839
vn 1.000000 0.000000 0.000000
vn 1.000000 0.000000 0.000000
vn 1.000000 0.000000 0.000000
vn 1.000000 0.000000 0.000000
vn 1.000000 0.000000 0.000000
vn 1.000000 0.000000 0.000000
vn 0.000000 0.000000 -1.000000
vn 0.000000 0.000000 -1.000000
vn 0.000000 0.000000 -1.000000
vn 0.000000 0.000000 -1.000000
vn 0.000000 0.000000 -1.000000
vn 0.000000 0.000000 -1.000000
vn 1.000000 0.000000 0.000000
vn 1.000000 0.000000 0.000000
vn 1.000000 0.000000 0.000000
vn -0.757806 0.469669 0.452926
vn -0.757806 0.469669 0.452926
vn -0.757806 0.469669 0.452926
vn -1.000000 0.000000 0.000000
vn -1.000000 0.000000 0.000000
vn -1.000000 0.000000 0.000000
vn -1.000000 0.000000 0.000000
vn -1.000000 0.000000 0.000000
vn -1.000000 0.000000 0.000000
vn -1.000000 0.000003 0.000000
vn -1.000000 0.000003 0.000000
vn -1.000000 0.000003 0.000000
vn -1.000000 0.000000 0.000000
vn -1.000000 0.000000 0.000000
vn -1.000000 0.000000 0.000000
vn 0.000000 0.939758 0.341839
vn 0.000000 0.939758 0.341839
vn 0.000000 0.939758 0.341839
vn 0.000000 0.939758 0.341839
vn 0.000000 0.939758 0.341839
vn 0.000000 0.939758 0.341839
s off
f 17/1/1 18/2/2 4/3/3
f 3/4/4 9/5/5 5/6/6
f 5/6/7 6/7/8 1/8/9
f 1/8/10 6/7/11 13/9/12
f 13/9/13 6/7/14 16/10/15
f 16/10/16 6/7/17 14/11/18
f 7/12/19 14/11/20 2/13/21
f 6/7/22 2/13/23 14/11/24
f 22/14/25 20/15/26 21/16/27
f 8/17/28 7/12/29 2/13/30
f 5/6/31 9/5/32 11/18/33
f 1/8/34 12/19/35 9/5/36
f 6/7/37 11/18/38 10/20/39
f 5/6/40 11/18/41 6/7/42
f 12/19/43 7/12/44 8/17/45
f 1/8/46 13/9/47 12/19/48
f 12/19/49 15/21/50 14/11/51
f 15/21/52 13/9/53 16/10/54
f 15/21/55 16/10/56 14/11/57
f 12/19/58 13/9/59 15/21/60
f 12/19/61 14/11/62 7/12/63
f 12/19/64 10/20/65 11/18/66
f 12/19/67 11/18/68 9/5/69
f 21/16/70 9/5/71 19/22/72
f 9/5/73 3/4/74 19/22/75
f 12/19/76 8/17/77 10/20/78
f 18/2/79 17/1/80 8/17/81
f 10/20/82 8/17/83 17/1/84
f 8/17/85 2/13/86 18/2/87
f 18/2/88 2/13/89 4/3/90
f 4/3/91 6/7/92 17/1/93
f 6/7/94 10/20/95 17/1/96
f 4/3/97 2/13/98 6/7/99
f 19/22/100 22/14/101 21/16/102
f 5/6/103 22/14/104 19/22/105
f 5/6/106 1/8/107 20/15/108
f 5/6/109 20/15/110 22/14/111
f 5/6/112 19/22/113 3/4/114
f 1/8/115 9/5/116 21/16/117
f 1/8/118 21/16/119 20/15/120
