# This file uses meters as units for non-parametric coordinates.

v -100.000000 0.000000 99.999992
v 0.000000 0.000008 100.000000
v -100.000000 11.569502 99.999969
v 0.000000 11.569507 99.999969
v -100.000000 11.569502 -0.000027
v 0.000000 11.569502 -0.000027
v -100.000000 0.000000 -0.000000
v 0.000000 0.000000 -0.000000
v -49.999996 40.430115 49.999969
vt 0.247760 0.303287
vt 0.247760 0.303287
vt 0.247760 0.303287
vt 0.247760 0.303287
vt 0.247760 0.303287
vt 0.247760 0.303287
vt 0.247760 0.303287
vt 0.247760 0.303287
vt 0.247760 0.303287
vn 0.000000 0.000002 1.000000
vn -0.000000 0.000003 1.000000
vn -0.000000 0.000002 1.000000
vn -0.000000 0.000002 1.000000
vn -0.000000 0.000003 1.000000
vn -0.000000 0.000003 1.000000
vn 0.499910 0.866077 -0.000000
vn 0.499910 0.866077 -0.000000
vn 0.499910 0.866077 -0.000000
vn 0.000000 -0.000002 -1.000000
vn 0.000000 -0.000002 -1.000000
vn 0.000000 -0.000002 -1.000000
vn 0.000000 -0.000002 -1.000000
vn 0.000000 -0.000002 -1.000000
vn 0.000000 -0.000002 -1.000000
vn 0.000000 -1.000000 0.000000
vn 0.000000 -1.000000 0.000000
vn 0.000000 -1.000000 0.000000
vn 1.000000 0.000000 0.000000
vn 1.000000 0.000000 0.000000
vn 1.000000 0.000000 0.000000
vn 1.000000 0.000000 0.000000
vn 1.000000 0.000000 0.000000
vn 1.000000 0.000000 0.000000
vn -1.000000 -0.000000 0.000000
vn -1.000000 -0.000000 0.000000
vn -1.000000 -0.000000 0.000000
vn -1.000000 -0.000000 0.000000
vn -1.000000 -0.000000 0.000000
vn -1.000000 0.000000 0.000000
vn 0.000000 0.866077 -0.499910
vn 0.000000 0.866077 -0.499910
vn 0.000000 0.866077 -0.499910
vn 0.000000 -1.000000 0.000000
vn 0.000000 -1.000000 0.000000
vn 0.000000 -1.000000 0.000000
vn -0.499910 0.866077 0.000000
vn -0.499910 0.866077 0.000000
vn -0.499910 0.866077 0.000000
vn 0.000000 0.866077 0.499910
vn 0.000000 0.866077 0.499910
vn 0.000000 0.866077 0.499910
s off
f 1/1/1 2/2/2 3/4/3
f 3/4/4 2/2/5 4/3/6
f 9/9/7 4/3/8 6/5/9
f 5/6/10 6/5/11 7/8/12
f 7/8/13 6/5/14 8/7/15
f 1/1/16 8/7/17 2/2/18
f 2/2/19 8/7/20 4/3/21
f 4/3/22 8/7/23 6/5/24
f 7/8/25 1/1/26 5/6/27
f 5/6/28 1/1/29 3/4/30
f 5/6/31 9/9/32 6/5/33
f 7/8/34 8/7/35 1/1/36
f 3/4/37 9/9/38 5/6/39
f 3/4/40 4/3/41 9/9/42
