# This file uses meters as units for non-parametric coordinates.

v -100.000000 0.000000 100.000000
v 0.000000 0.000000 100.000000
v -100.000000 100.000000 0.000000
v 0.000000 0.000000 0.000000
v -100.000000 0.000000 0.000000
vt 0.247760 0.303287
vt 0.247760 0.303287
vt 0.247760 0.303287
vt 0.247760 0.303287
vt 0.247760 0.303287
vn 0.000000 0.707107 0.707107
vn 0.000000 0.707107 0.707107
vn 0.000000 0.707107 0.707107
vn 0.000000 0.000000 -1.000000
vn 0.000000 0.000000 -1.000000
vn 0.000000 0.000000 -1.000000
vn 0.000000 -1.000000 0.000000
vn 0.000000 -1.000000 0.000000
vn 0.000000 -1.000000 0.000000
vn 0.000000 -1.000000 0.000000
vn 0.000000 -1.000000 0.000000
vn 0.000000 -1.000000 0.000000
vn -1.000000 0.000000 0.000000
vn -1.000000 0.000000 0.000000
vn -1.000000 0.000000 0.000000
vn 0.707107 0.707107 0.000000
vn 0.707107 0.707107 0.000000
vn 0.707107 0.707107 0.000000
s off
f 1/1/1 2/2/2 3/4/3
f 3/4/4 4/3/5 5/5/6
f 5/5/7 4/3/8 1/1/9
f 1/1/10 4/3/11 2/2/12
f 5/5/13 1/1/14 3/4/15
f 3/4/16 2/2/17 4/3/18
