# This file uses meters as units for non-parametric coordinates.

v -200.000000 49.948872 0.000000
v 0.000000 49.948872 0.000000
v -200.000000 31.581764 0.000000
v 0.000000 31.581764 0.000000
v -200.000000 0.000000 100.000000
v 0.000000 0.000000 100.000000
v -200.000000 13.400299 75.000000
v 0.000000 13.400299 75.000000
v -200.000000 25.583155 50.000000
v 0.000000 25.583155 50.000000
v -200.000000 37.766010 25.000000
v 0.000000 37.766010 25.000000
v 0.000000 49.948872 25.000000
v -200.000000 49.948872 25.000000
v 0.000000 37.766010 50.000000
v -200.000000 37.766010 50.000000
v 0.000000 25.583155 75.000000
v -200.000000 25.583155 75.000000
v 0.000000 13.400299 100.000000
v -200.000000 13.400299 100.000000
v -200.000000 7.216045 50.000000
v 0.000000 7.216046 50.000000
v 0.000000 0.000000 75.000000
v -200.000000 0.000000 75.000000
v -200.000000 19.398907 25.000000
v 0.000000 19.398907 25.000000
v 0.000000 7.216048 75.000000
v 0.000000 19.398903 50.000000
v 0.000000 31.581764 25.000000
v -200.000000 7.216048 75.000000
v -200.000000 19.398907 50.000000
v -200.000000 31.581764 25.000000
vt 0.247760 0.303287
vt 0.247760 0.303287
vt 0.247760 0.303287
vt 0.247760 0.303287
vt 0.247760 0.303287
vt 0.247760 0.303287
vt 0.247760 0.303287
vt 0.247760 0.303287
vt 0.247760 0.303287
vt 0.247760 0.303287
vt 0.247760 0.303287
vt 0.247760 0.303287
vt 0.247760 0.303287
vt 0.247760 0.303287
vt 0.247760 0.303287
vt 0.247760 0.303287
vt 0.247760 0.303287
vt 0.247760 0.303287
vt 0.247760 0.303287
vt 0.247760 0.303287
vt 0.247760 0.303287
vt 0.247760 0.303287
vt 0.247760 0.303287
vt 0.247760 0.303287
vt 0.247760 0.303287
vt 0.247760 0.303287
vt 0.247760 0.303287
vt 0.247760 0.303287
vt 0.247760 0.303287
vt 0.247760 0.303287
vt 0.247760 0.303287
vt 0.247760 0.303287
vt 0.247760 0.303287
vt 0.247760 0.303287
vt 0.247760 0.303287
vt 0.247760 0.303287
vt 0.247760 0.303287
vt 0.247760 0.303287
vt 0.247760 0.303287
vt 0.247760 0.303287
vt 0.247760 0.303287
vt 0.247760 0.303287
vt 0.247760 0.303287
vt 0.247760 0.303287
vn 0.000000 0.000000 -1.000000
vn 0.000000 0.000000 -1.000000
vn 0.000000 0.000000 -1.000000
vn 0.000000 0.000000 -1.000000
vn 0.000000 1.000000 0.000000
vn 0.000000 1.000000 0.000000
vn 0.000000 1.000000 0.000000
vn 0.000000 1.000000 0.000000
vn 0.000000 1.000000 0.000000
vn 0.000000 1.000000 0.000000
vn 0.000000 0.000000 -1.000000
vn 0.000000 0.000000 -1.000000
vn 0.000000 0.000000 -1.000000
vn 0.000000 0.000000 -1.000000
vn -1.000000 0.000000 0.000000
vn -1.000000 0.000000 0.000000
vn -1.000000 0.000000 0.000000
vn 0.000000 0.000000 1.000000
vn 0.000000 0.000000 1.000000
vn 0.000000 0.000000 1.000000
vn 0.000000 0.000000 1.000000
vn 0.000000 0.000000 1.000000
vn 0.000000 0.000000 1.000000
vn 0.000000 0.000000 1.000000
vn 0.000000 0.000000 1.000000
vn 0.000000 0.000000 1.000000
vn 0.000000 0.000000 1.000000
vn 0.000000 0.000000 1.000000
vn 0.000000 0.000000 1.000000
vn 0.000000 0.000000 1.000000
vn 0.000000 0.000000 1.000000
vn 0.000000 0.000000 1.000000
vn 0.000000 0.000000 1.000000
vn 0.000000 0.000000 1.000000
vn 0.000000 0.000000 1.000000
vn 0.000000 0.000000 1.000000
vn 0.000000 0.000000 1.000000
vn 0.000000 0.000000 1.000000
vn 0.000000 0.000000 1.000000
vn 0.000000 0.000000 1.000000
vn 0.000000 0.000000 1.000000
vn 0.000000 1.000000 0.000000
vn 0.000000 1.000000 0.000000
vn 0.000000 1.000000 0.000000
vn 0.000000 1.000000 0.000000
vn 0.000000 1.000000 0.000000
vn 0.000000 1.000000 0.000000
vn 0.000000 1.000000 0.000000
vn 0.000000 1.000000 0.000000
vn 0.000000 1.000000 0.000000
vn 0.000000 1.000000 0.000000
vn 0.000000 1.000000 0.000000
vn 0.000000 1.000000 0.000000
vn 0.000000 1.000000 0.000000
vn 0.000000 1.000000 0.000000
vn 0.000000 1.000000 0.000000
vn 0.000000 1.000000 0.000000
vn 0.000000 1.000000 0.000000
vn 0.000000 1.000000 0.000000
vn 1.000000 0.000000 0.000000
vn 1.000000 0.000000 0.000000
vn 1.000000 0.000000 0.000000
vn 1.000000 0.000000 0.000000
vn 1.000000 0.000000 0.000000
vn 1.000000 0.000000 0.000000
vn 1.000000 0.000000 0.000000
vn 1.000000 0.000000 0.000000
vn 1.000000 0.000000 0.000000
vn 1.000000 0.000000 0.000000
vn 1.000000 0.000000 0.000000
vn 1.000000 0.000000 0.000000
vn -1.000000 0.000000 0.000000
vn -1.000000 0.000000 0.000000
vn -1.000000 0.000000 0.000000
vn -1.000000 0.000000 0.000000
vn -1.000000 0.000000 0.000000
vn -1.000000 0.000000 0.000000
vn -1.000000 0.000000 0.000000
vn -1.000000 0.000000 0.000000
vn -1.000000 0.000000 0.000000
vn 1.000000 0.000000 0.000000
vn 1.000000 0.000000 0.000000
vn 1.000000 0.000000 0.000000
vn 1.000000 0.000000 0.000000
vn -0.000000 -1.000000 -0.000000
vn -0.000000 -1.000000 -0.000000
vn -0.000000 -1.000000 -0.000000
vn -0.000000 -1.000000 -0.000000
vn 1.000000 0.000000 0.000000
vn 1.000000 0.000000 0.000000
vn 1.000000 0.000000 0.000000
vn 1.000000 0.000000 0.000000
vn 1.000000 0.000000 0.000000
vn 1.000000 0.000000 0.000000
vn 1.000000 0.000000 0.000000
vn 1.000000 0.000000 0.000000
vn 0.000000 -1.000000 0.000000
vn 0.000000 -1.000000 0.000000
vn 0.000000 -1.000000 0.000000
vn 0.000000 -1.000000 0.000000
vn -1.000000 0.000000 0.000000
vn -1.000000 0.000000 0.000000
vn -1.000000 0.000000 0.000000
vn -1.000000 0.000000 0.000000
vn 0.000000 -1.000000 0.000000
vn 0.000000 -1.000000 0.000000
vn 0.000000 -1.000000 0.000000
vn 0.000000 -1.000000 0.000000
vn 1.000000 0.000000 0.000000
vn 1.000000 0.000000 0.000000
vn 1.000000 0.000000 0.000000
vn 1.000000 0.000000 0.000000
vn -1.000000 0.000000 0.000000
vn -1.000000 0.000000 0.000000
vn -1.000000 0.000000 0.000000
vn -1.000000 0.000000 0.000000
vn -1.000000 0.000000 0.000000
vn -1.000000 0.000000 0.000000
vn -1.000000 0.000000 0.000000
vn -1.000000 0.000000 0.000000
vn -1.000000 0.000000 0.000000
vn -1.000000 0.000000 0.000000
vn 0.000000 -1.000000 0.000000
vn 0.000000 -1.000000 0.000000
vn 0.000000 -1.000000 0.000000
vn 0.000000 -1.000000 0.000000
vn 0.000000 0.000000 -1.000000
vn 0.000000 0.000000 -1.000000
vn 0.000000 0.000000 -1.000000
vn 0.000000 0.000000 -1.000000
vn 0.000000 0.000000 -1.000000
vn 0.000000 0.000000 -1.000000
vn 0.000000 0.000000 -1.000000
vn 0.000000 0.000000 -1.000000
vn 1.000000 0.000000 0.000000
vn 1.000000 0.000000 0.000000
vn 1.000000 0.000000 0.000000
vn 1.000000 0.000000 0.000000
vn 1.000000 0.000000 0.000000
vn 1.000000 0.000000 0.000000
vn -1.000000 0.000000 0.000000
vn -1.000000 0.000000 0.000000
vn -1.000000 0.000000 0.000000
vn -1.000000 0.000000 0.000000
vn -1.000000 0.000000 0.000000
vn -1.000000 0.000000 0.000000
vn -1.000000 0.000000 0.000000
vn -1.000000 0.000000 0.000000
s off
f 3/5/1 1/3/2 2/2/3 4/4/4
f 2/22/5 1/23/6 13/7/7
f 13/7/8 1/23/9 14/6/10
f 23/30/11 24/32/12 30/39/13 27/42/14
f 7/11/15 5/9/16 20/12/17
f 5/9/18 6/8/19 20/12/20
f 20/12/21 6/8/22 19/13/23
f 17/14/24 18/15/25 8/10/26
f 8/10/27 18/15/28 7/11/29
f 15/16/30 16/17/31 10/19/32
f 10/19/33 16/17/34 9/18/35
f 13/7/36 14/6/37 12/21/38
f 12/21/39 14/6/40 11/20/41
f 16/17/42 15/16/43 11/20/44
f 11/20/45 15/16/46 12/21/47
f 18/15/48 17/14/49 9/18/50
f 9/18/51 17/14/52 10/19/53
f 20/12/54 19/13/55 7/11/56
f 7/11/57 19/13/58 8/10/59
f 12/21/60 2/22/61 13/7/62
f 10/19/63 12/21/64 15/16/65
f 8/10/66 10/19/67 17/14/68
f 6/8/69 8/10/70 19/13/71
f 1/23/72 11/20/73 14/6/74
f 9/18/75 7/11/76 18/15/77
f 11/20/78 9/18/79 16/17/80
f 27/36/81 22/29/82 28/37/83 8/10/84
f 28/44/85 31/40/86 25/33/87 26/34/88
f 28/37/89 26/35/90 29/38/91 10/19/92
f 23/31/93 27/36/94 8/10/95 6/8/96
f 5/9/97 24/32/98 23/30/99 6/8/100
f 7/11/101 30/39/102 24/32/103 5/9/104
f 29/43/105 32/41/106 3/26/107 4/24/108
f 29/38/109 4/25/110 2/22/111 12/21/112
f 9/18/113 31/40/114 7/11/115
f 32/41/116 9/18/117 11/20/118
f 11/20/119 1/1/120 3/26/121 32/41/122
f 27/42/123 30/39/124 21/27/125 22/28/126
f 26/34/127 25/33/128 32/41/129 29/43/130
f 22/28/131 21/27/132 31/40/133 28/44/134
f 8/10/135 28/37/136 10/19/137
f 10/19/138 29/38/139 12/21/140
f 25/33/141 31/40/142 9/18/143 32/41/144
f 7/11/145 31/40/146 21/27/147 30/39/148
