# This file uses meters as units for non-parametric coordinates.

v -100.000000 57.721230 99.999992
v 0.000000 0.000000 100.000008
v -100.000000 69.290726 99.999969
v 0.000000 7.074539 99.999977
v -100.000000 11.569515 -0.000027
v -6.237131 65.690582 -0.000034
v -100.000000 -0.000001 -0.000005
v 0.000000 57.721226 0.000002
v 0.000000 65.348228 6.830214
v 0.000000 61.893269 -0.000015
v -7.124225 69.290726 7.124191
v -5.508142 14.748890 99.999969
v 0.000000 15.150368 93.796257
v -100.000000 30.658888 33.071648
v -100.000000 19.071384 33.040508
v -100.000000 44.093559 56.346748
v -100.000000 34.284565 59.396809
v -100.000000 36.582596 52.251160
v -91.989807 40.906811 42.815620
v -68.593117 39.592793 99.999992
v -56.710209 44.303341 99.999969
v -50.081505 28.907658 100.000000
v -45.287132 37.709793 99.999962
v -51.489670 41.289978 99.999969
v -57.235073 36.066856 99.999985
v -60.737099 41.669044 88.546921
vt 0.247760 0.303287
vt 0.247760 0.303287
vt 0.247760 0.303287
vt 0.247760 0.303287
vt 0.247760 0.303287
vt 0.247760 0.303287
vt 0.247760 0.303287
vt 0.247760 0.303287
vt 0.247760 0.303287
vt 0.247760 0.303287
vt 0.247760 0.303287
vt 0.247760 0.303287
vt 0.247760 0.303287
vt 0.247760 0.303287
vt 0.247760 0.303287
vt 0.247760 0.303287
vt 0.247760 0.303287
vt 0.247760 0.303287
vt 0.247760 0.303287
vt 0.247760 0.303287
vt 0.247760 0.303287
vt 0.247760 0.303287
vt 0.247760 0.303287
vt 0.247760 0.303287
vt 0.247760 0.303287
vt 0.247760 0.303287
vn 0.440158 0.822278 -0.360720
vn 0.440158 0.822278 -0.360720
vn 0.440158 0.822278 -0.360720
vn 0.477376 0.784094 -0.396622
vn 0.477376 0.784094 -0.396622
vn 0.477376 0.784094 -0.396622
vn -1.000000 0.000001 0.000000
vn -1.000000 -0.000002 0.000000
vn -1.000000 0.000000 0.000000
vn -1.000000 0.000000 0.000000
vn -1.000000 -0.000002 0.000000
vn -1.000000 -0.000002 0.000000
vn 0.447149 -0.774671 0.447150
vn 0.447150 -0.774671 0.447150
vn 0.447149 -0.774671 0.447150
vn 0.447150 -0.774671 0.447150
vn 0.447149 -0.774671 0.447149
vn 0.447149 -0.774671 0.447150
vn 0.447149 -0.774671 0.447149
vn 0.447149 -0.774671 0.447150
vn 0.447149 -0.774671 0.447149
vn 0.000002 -0.000003 -1.000000
vn 0.000002 -0.000003 -1.000000
vn 0.000001 -0.000002 -1.000000
vn 0.000001 -0.000002 -1.000000
vn 0.000002 -0.000003 -1.000000
vn 0.000001 -0.000002 -1.000000
vn -0.447150 0.774670 -0.447150
vn -0.447150 0.774670 -0.447150
vn -0.447150 0.774670 -0.447150
vn 0.447149 0.774671 0.447150
vn 0.447149 0.774671 0.447149
vn 0.447149 0.774671 0.447149
vn 0.447149 0.774671 0.447149
vn 0.447150 0.774670 0.447150
vn 0.447149 0.774671 0.447149
vn 0.447150 0.774670 0.447150
vn 0.447150 0.774671 0.447149
vn 0.447149 0.774671 0.447149
vn 0.447149 0.774671 0.447150
vn 0.447149 0.774671 0.447149
vn 0.447149 0.774671 0.447149
vn 0.447149 0.774671 0.447149
vn 0.447150 0.774671 0.447149
vn 0.447149 0.774671 0.447149
vn 0.447150 0.774671 0.447149
vn 0.447151 0.774671 0.447147
vn 0.447149 0.774671 0.447149
vn 0.000000 0.000002 1.000000
vn 0.000002 0.000002 1.000000
vn 0.000001 0.000002 1.000000
vn 0.000001 0.000002 1.000000
vn 0.000002 0.000002 1.000000
vn 0.000002 0.000002 1.000000
vn 1.000000 0.000000 0.000000
vn 1.000000 0.000000 0.000000
vn 1.000000 0.000000 0.000000
vn 0.647101 0.464448 0.604606
vn 0.647101 0.464448 0.604606
vn 0.647101 0.464448 0.604606
vn -1.000000 -0.000000 0.000000
vn -1.000000 -0.000000 0.000000
vn -1.000000 -0.000000 0.000000
vn -1.000000 -0.000000 0.000000
vn -1.000000 -0.000000 0.000000
vn -1.000000 0.000000 0.000000
vn -1.000000 -0.000002 0.000000
vn -1.000000 -0.000002 0.000000
vn -1.000000 -0.000002 0.000000
vn -0.790944 0.292932 -0.537214
vn -0.790944 0.292932 -0.537214
vn -0.790944 0.292932 -0.537214
vn -1.000000 0.000001 0.000000
vn -1.000000 0.000001 0.000000
vn -1.000000 0.000001 0.000000
vn -1.000000 0.000001 0.000000
vn -1.000000 0.000001 0.000000
vn -1.000000 0.000001 0.000000
vn -0.447150 0.774671 -0.447149
vn -0.447150 0.774671 -0.447149
vn -0.447150 0.774671 -0.447149
vn -0.653522 0.723200 -0.223365
vn -0.653522 0.723200 -0.223365
vn -0.653522 0.723200 -0.223365
vn -0.447150 0.774671 -0.447148
vn -0.447149 0.774671 -0.447149
vn -0.447149 0.774671 -0.447149
vn -0.447149 0.774671 -0.447149
vn -0.447149 0.774671 -0.447149
vn -0.447149 0.774671 -0.447149
vn -0.447149 0.774671 -0.447149
vn -0.447149 0.774671 -0.447150
vn -0.447149 0.774671 -0.447149
vn 0.000001 -0.000004 -1.000000
vn 0.000001 -0.000004 -1.000000
vn 0.000001 -0.000004 -1.000000
vn 1.000000 0.000000 0.000000
vn 1.000000 0.000000 0.000000
vn 1.000000 0.000000 0.000000
vn 1.000000 0.000000 0.000000
vn 1.000000 0.000000 0.000000
vn 1.000000 0.000000 0.000000
vn 1.000000 0.000000 0.000000
vn 1.000000 0.000000 0.000000
vn 1.000000 0.000000 0.000000
vn 0.000002 0.000002 1.000000
vn 0.000002 0.000002 1.000000
vn 0.000001 0.000002 1.000000
vn 0.000001 0.000002 1.000000
vn 0.000002 0.000002 1.000000
vn 0.000000 0.000002 1.000000
vn 0.000003 0.000004 1.000000
vn 0.000002 0.000004 1.000000
vn 0.000002 0.000003 1.000000
vn 0.000002 0.000004 1.000000
vn 0.000000 0.000002 1.000000
vn 0.000002 0.000003 1.000000
vn 0.000002 0.000003 1.000000
vn 0.000002 0.000003 1.000000
vn 0.000000 0.000002 1.000000
vn 0.000002 0.000001 1.000000
vn 0.000001 0.000003 1.000000
vn 0.000001 0.000003 1.000000
vn 0.000001 0.000003 1.000000
vn 0.000001 0.000003 1.000000
vn 0.000000 0.000004 1.000000
vn -0.277464 -0.893791 -0.352351
vn -0.277463 -0.893791 -0.352351
vn -0.277464 -0.893791 -0.352351
vn -0.447150 -0.774670 -0.447150
vn -0.447150 -0.774670 -0.447150
vn -0.447150 -0.774670 -0.447150
vn -0.447149 -0.774671 -0.447149
vn -0.447149 -0.774671 -0.447149
vn -0.447149 -0.774671 -0.447149
vn -0.701532 -0.700980 -0.128371
vn -0.701532 -0.700980 -0.128371
vn -0.701532 -0.700980 -0.128371
vn -0.447150 -0.774671 -0.447149
vn -0.447150 -0.774671 -0.447149
vn -0.447150 -0.774671 -0.447149
vn -0.447149 -0.774671 -0.447149
vn -0.447149 -0.774671 -0.447149
vn -0.447149 -0.774671 -0.447149
s off
f 11/1/1 9/2/2 6/3/3
f 9/2/4 10/4/5 6/3/6
f 17/6/7 1/7/8 16/5/9
f 16/5/10 1/7/11 3/8/12
f 1/7/13 17/6/14 8/10/15
f 17/6/16 15/11/17 8/10/18
f 7/9/19 8/10/20 15/11/21
f 6/3/22 8/10/23 5/12/24
f 5/12/25 8/10/26 7/9/27
f 14/13/28 19/14/29 5/12/30
f 3/8/31 21/15/32 11/1/33
f 21/15/34 24/16/35 11/1/36
f 24/16/37 23/17/38 11/1/39
f 9/2/40 11/1/41 13/19/42
f 11/1/43 23/17/44 13/19/45
f 23/17/46 12/18/47 13/19/48
f 1/7/49 20/20/50 3/8/51
f 3/8/52 20/20/53 21/15/54
f 9/2/55 8/10/56 10/4/57
f 13/19/58 12/18/59 4/21/60
f 7/9/61 15/11/62 5/12/63
f 5/12/64 15/11/65 14/13/66
f 17/6/67 16/5/68 18/22/69
f 19/14/70 18/22/71 16/5/72
f 14/13/73 15/11/74 18/22/75
f 18/22/76 15/11/77 17/6/78
f 3/8/79 19/14/80 16/5/81
f 14/13/82 18/22/83 19/14/84
f 6/3/85 19/14/86 11/1/87
f 3/8/88 11/1/89 19/14/90
f 19/14/91 6/3/92 5/12/93
f 8/10/94 6/3/95 10/4/96
f 2/23/97 8/10/98 4/21/99
f 4/21/100 8/10/101 13/19/102
f 8/10/103 9/2/104 13/19/105
f 20/20/106 25/24/107 21/15/108
f 21/15/109 25/24/110 24/16/111
f 2/23/112 4/21/113 22/25/114
f 4/21/115 12/18/116 22/25/117
f 23/17/118 22/25/119 12/18/120
f 24/16/121 25/24/122 23/17/123
f 23/17/124 25/24/125 22/25/126
f 25/24/127 20/20/128 26/26/129
f 1/7/130 8/10/131 26/26/132
f 22/25/133 26/26/134 2/23/135
f 25/24/136 26/26/137 22/25/138
f 1/7/139 26/26/140 20/20/141
f 2/23/142 26/26/143 8/10/144
