# This file uses meters as units for non-parametric coordinates.

v -40.000000 300.000000 37.736385
v 0.000000 300.000000 35.463524
v -40.000000 300.000000 2.809541
v 0.000000 300.000000 0.000000
v -40.000000 0.000000 40.000000
v 0.000000 0.000000 37.292305
v -40.000000 0.000000 0.000000
v 0.000000 0.000000 0.000000
v -32.173599 300.000000 0.000000
v -40.000000 288.730103 0.000000
v -10.158287 299.872894 39.999996
v 0.000000 291.569702 40.000000
v -3.839867 0.000000 40.000000
v 0.000000 4.336625 40.000000
v 0.000000 243.388992 0.000000
v 0.000000 212.084335 0.000000
v 0.000000 230.578140 5.985423
v -4.713867 221.116776 0.000000
v 0.000000 37.822819 40.000000
v 0.000000 66.767548 40.000000
v -7.048935 55.001545 40.000000
v -0.000004 53.724098 32.185753
v -40.000000 87.351181 0.000000
v -40.000000 115.747986 0.000000
v -40.000000 164.433426 40.000000
v -40.000000 130.253281 40.000000
v -32.070847 145.073242 40.000000
v -40.000000 151.698090 29.536633
v -35.488518 102.693115 0.000000
v -40.000000 115.767715 4.741831
v -40.000000 283.787720 40.000000
v -36.055126 299.983185 40.000000
vt 0.247760 0.303287
vt 0.247760 0.303287
vt 0.247760 0.303287
vt 0.247760 0.303287
vt 0.247760 0.303287
vt 0.247760 0.303287
vt 0.247760 0.303287
vt 0.247760 0.303287
vt 0.247760 0.303287
vt 0.247760 0.303287
vt 0.247760 0.303287
vt 0.247760 0.303287
vt 0.247760 0.303287
vt 0.247760 0.303287
vt 0.247760 0.303287
vt 0.247760 0.303287
vt 0.247760 0.303287
vt 0.247760 0.303287
vt 0.247760 0.303287
vt 0.247760 0.303287
vt 0.247760 0.303287
vt 0.247760 0.303287
vt 0.247760 0.303287
vt 0.247760 0.303287
vt 0.247760 0.303287
vt 0.247760 0.303287
vt 0.247760 0.303287
vt 0.247760 0.303287
vt 0.247760 0.303287
vt 0.247760 0.303287
vt 0.247760 0.303287
vt 0.247760 0.303287
vn 0.361182 0.441877 0.821154
vn 0.016038 0.019621 0.999679
vn 0.010070 0.012320 0.999873
vn 0.000000 1.000000 0.000000
vn 0.000836 0.999999 0.000748
vn -0.003831 0.999987 0.003476
vn -0.003831 0.999987 0.003476
vn 0.000836 0.999999 0.000748
vn -0.001413 0.999991 0.003955
vn -0.001413 0.999991 0.003955
vn 0.000836 0.999999 0.000748
vn 0.004209 0.999991 0.000829
vn 0.004209 0.999991 0.000829
vn 0.000836 0.999999 0.000748
vn 0.003234 0.999995 0.000671
vn 0.003234 0.999995 0.000671
vn 0.000836 0.999999 0.000748
vn 0.000000 1.000000 0.000000
vn -1.000000 0.000000 0.000000
vn -1.000000 -0.000000 0.000000
vn -1.000000 -0.000000 0.000000
vn -1.000000 -0.000000 0.000000
vn -1.000000 -0.000000 0.000000
vn -1.000000 -0.000000 0.000000
vn 0.000000 0.000000 -1.000000
vn 0.000000 0.000000 -1.000000
vn 0.000000 0.000000 -1.000000
vn 0.000000 -1.000000 0.000000
vn 0.000000 -1.000000 0.000000
vn 0.000000 -1.000000 0.000000
vn 0.000000 -1.000000 0.000000
vn 0.000000 -1.000000 0.000000
vn 0.000000 -1.000000 0.000000
vn 0.000000 -1.000000 0.000000
vn 0.000000 -1.000000 0.000000
vn 0.000000 -1.000000 0.000000
vn -0.031962 0.022196 -0.999243
vn -0.011509 0.007993 -0.999902
vn -0.328939 0.228432 -0.916307
vn 0.000000 0.000000 1.000000
vn 0.000000 0.000000 1.000000
vn 0.000000 0.000000 1.000000
vn 0.000000 0.000000 1.000000
vn 0.004918 -0.004354 0.999978
vn 0.000000 0.000000 1.000000
vn 0.000000 0.000000 1.000000
vn 0.004918 -0.004354 0.999978
vn 0.031818 -0.028173 0.999097
vn 1.000000 0.000000 0.000000
vn 1.000000 0.000000 0.000000
vn 1.000000 0.000000 0.000000
vn 1.000000 0.000000 0.000000
vn 1.000000 0.000000 0.000000
vn 1.000000 0.000000 0.000000
vn 0.031818 -0.028173 0.999097
vn 0.004918 -0.004354 0.999978
vn 0.513319 -0.454519 0.727954
vn -0.031962 0.022196 -0.999243
vn 0.000000 0.000000 -1.000000
vn -0.011509 0.007993 -0.999902
vn -0.011509 0.007993 -0.999902
vn 0.000000 0.000000 -1.000000
vn 0.000000 0.000000 -1.000000
vn 0.000000 0.000000 -1.000000
vn 0.000000 0.000000 -1.000000
vn 0.000000 0.000000 -1.000000
vn 1.000000 0.000000 0.000000
vn 1.000000 0.000000 0.000000
vn 1.000000 0.000000 0.000000
vn 1.000000 0.000000 0.000000
vn 1.000000 0.000000 0.000000
vn 1.000000 0.000000 0.000000
vn 1.000000 0.000000 0.000000
vn 1.000000 0.000000 0.000000
vn 1.000000 0.000000 0.000000
vn 0.894426 -0.189303 -0.405174
vn 0.894426 -0.189303 -0.405174
vn 0.894426 -0.189303 -0.405174
vn 0.508161 0.265200 -0.819416
vn 0.508161 0.265200 -0.819416
vn 0.508161 0.265200 -0.819416
vn 1.000000 0.000000 0.000000
vn 1.000000 -0.000000 -0.000000
vn 1.000000 0.000000 0.000000
vn 1.000000 0.000000 0.000000
vn 1.000000 -0.000000 -0.000000
vn 1.000000 -0.000000 0.000000
vn 1.000000 0.000000 0.000000
vn 1.000000 -0.000000 0.000000
vn 1.000000 -0.000000 0.000000
vn 1.000000 -0.000000 -0.000000
vn 1.000000 -0.000000 0.000000
vn 1.000000 -0.000000 0.000000
vn 0.651095 -0.390067 0.651094
vn 0.651095 -0.390067 0.651094
vn 0.651095 -0.390067 0.651094
vn 1.000000 0.000000 -0.000000
vn 1.000000 0.000000 -0.000000
vn 1.000000 0.000000 -0.000000
vn 0.732141 0.300419 0.611325
vn 0.732141 0.300419 0.611325
vn 0.732141 0.300419 0.611325
vn 0.000000 0.000000 -1.000000
vn 0.000000 0.000000 -1.000000
vn 0.000000 0.000000 -1.000000
vn 0.000000 0.000000 -1.000000
vn 0.000000 0.000000 -1.000000
vn 0.000000 0.000000 -1.000000
vn 0.000000 0.000000 -1.000000
vn 0.000000 0.000000 -1.000000
vn 0.000000 0.000000 -1.000000
vn 0.000000 0.000000 -1.000000
vn 0.000000 0.000000 -1.000000
vn 0.000000 0.000000 -1.000000
vn 0.000000 0.000000 -1.000000
vn 0.000000 0.000000 -1.000000
vn 0.000000 0.000000 -1.000000
vn -0.840297 -0.344152 0.418879
vn -0.840297 -0.344152 0.418879
vn -0.840297 -0.344152 0.418879
vn -1.000000 0.000000 0.000000
vn -1.000000 0.000000 0.000000
vn -1.000000 0.000000 0.000000
vn -1.000000 0.000000 0.000000
vn -1.000000 0.000000 0.000000
vn -1.000000 0.000000 0.000000
vn 0.000000 0.000000 1.000000
vn 0.000000 0.000000 1.000000
vn 0.000000 0.000000 1.000000
vn -0.493697 0.120255 0.861280
vn -0.493697 0.120254 0.861280
vn -0.493697 0.120255 0.861280
vn -0.000000 0.000000 1.000000
vn -0.000000 0.000000 1.000000
vn 0.000001 0.000000 1.000000
vn 0.000001 0.000000 1.000000
vn -0.000000 0.000000 1.000000
vn 0.000001 0.000000 1.000000
vn -0.945153 -0.326625 0.001359
vn -0.945153 -0.326625 0.001359
vn -0.945153 -0.326625 0.001359
vn -1.000000 0.000000 0.000000
vn -1.000000 -0.000000 0.000000
vn -1.000000 0.000000 0.000000
vn -1.000000 0.000000 0.000000
vn -1.000000 -0.000000 0.000000
vn -1.000000 -0.000000 0.000000
vn -0.488418 0.143625 -0.860709
vn -0.488418 0.143625 -0.860709
vn -0.488418 0.143625 -0.860709
vn -0.633891 0.339152 0.695096
vn -0.633891 0.339152 0.695096
vn -0.633891 0.339152 0.695096
vn -1.000000 0.000000 0.000000
vn -1.000000 0.000000 0.000000
vn -1.000000 0.000000 0.000000
vn -1.000000 -0.000000 0.000000
vn -1.000000 -0.000000 0.000000
vn -1.000000 -0.000000 0.000000
vn -1.000000 -0.000000 0.000000
vn -1.000000 0.000000 0.000000
vn -1.000000 -0.000000 0.000000
vn -1.000000 0.000000 0.000000
vn -1.000000 0.000000 0.000000
vn -1.000000 -0.000000 0.000000
vn 0.010070 0.012320 0.999873
vn 0.016038 0.019621 0.999679
vn 0.000000 0.000000 1.000000
vn 0.000000 0.000000 1.000000
vn 0.000000 0.000000 1.000000
vn 0.000000 0.000000 1.000000
vn -0.000000 0.000000 1.000000
vn 0.000000 -0.000000 1.000000
vn -0.000000 0.000000 1.000000
vn 0.000000 -0.000000 1.000000
vn 0.000000 -0.000000 1.000000
vn 0.000000 -0.000000 1.000000
vn 0.000000 -0.000000 1.000000
vn 0.000000 -0.000000 1.000000
vn -0.000000 0.000000 1.000000
s off
f 2/1/1 11/2/2 12/3/3
f 4/6/4 9/7/5 2/1/6
f 2/1/7 9/7/8 11/2/9
f 11/2/10 9/7/11 32/5/12
f 32/5/13 9/7/14 1/4/15
f 1/4/16 9/7/17 3/8/18
f 24/11/19 30/12/20 10/10/21
f 28/9/22 10/10/23 30/12/24
f 4/6/25 15/13/26 9/7/27
f 7/14/28 8/15/29 5/18/30
f 8/15/31 6/16/32 5/18/33
f 6/16/34 13/17/35 5/18/36
f 9/7/37 10/10/38 3/8/39
f 21/20/40 5/18/41 19/19/42
f 5/18/43 13/17/44 19/19/45
f 19/19/46 13/17/47 14/21/48
f 8/15/49 19/19/50 6/16/51
f 19/19/52 14/21/53 6/16/54
f 14/21/55 13/17/56 6/16/57
f 9/7/58 15/13/59 10/10/60
f 10/10/61 15/13/62 18/22/63
f 23/23/64 29/24/65 8/15/66
f 17/25/67 15/13/68 12/3/69
f 4/6/70 2/1/71 15/13/72
f 2/1/73 12/3/74 15/13/75
f 18/22/76 15/13/77 17/25/78
f 18/22/79 17/25/80 16/26/81
f 12/3/82 20/27/83 17/25/84
f 17/25/85 20/27/86 16/26/87
f 8/15/88 16/26/89 22/28/90
f 20/27/91 22/28/92 16/26/93
f 20/27/94 21/20/95 22/28/96
f 8/15/97 22/28/98 19/19/99
f 22/28/100 21/20/101 19/19/102
f 23/23/103 8/15/104 7/14/105
f 8/15/106 29/24/107 16/26/108
f 10/10/109 18/22/110 24/11/111
f 29/24/112 24/11/113 16/26/114
f 18/22/115 16/26/116 24/11/117
f 25/29/118 28/9/119 27/30/120
f 26/31/121 23/23/122 5/18/123
f 5/18/124 23/23/125 7/14/126
f 21/20/127 26/31/128 5/18/129
f 31/32/130 32/5/131 1/4/132
f 27/30/133 26/31/134 20/27/135
f 20/27/136 26/31/137 21/20/138
f 29/24/139 30/12/140 24/11/141
f 28/9/142 30/12/143 26/31/144
f 26/31/145 30/12/146 23/23/147
f 23/23/148 30/12/149 29/24/150
f 27/30/151 28/9/152 26/31/153
f 28/9/154 25/29/155 10/10/156
f 1/4/157 3/8/158 31/32/159
f 3/8/160 10/10/161 31/32/162
f 10/10/163 25/29/164 31/32/165
f 12/3/166 11/2/167 27/30/168
f 12/3/169 27/30/170 20/27/171
f 27/30/172 11/2/173 25/29/174
f 32/5/175 31/32/176 11/2/177
f 11/2/178 31/32/179 25/29/180
