# This file uses meters as units for non-parametric coordinates.

v -98.787117 0.000000 0.000001
v -100.000000 0.000000 9.068028
v -96.553467 300.000000 0.000000
v -96.372177 300.000000 8.246239
v 0.000000 300.000000 2.256458
v 0.000000 300.000000 7.165419
v 0.000000 0.000000 0.000000
v 0.000000 0.000000 7.074141
v 0.000000 139.099564 10.000000
v -99.999992 29.974234 10.000000
v -100.000000 61.887657 10.000000
v 0.000000 185.084259 10.000000
v -7.244402 300.000000 10.000000
v 0.000000 288.750763 10.000000
v -100.000000 289.419617 0.000000
v -100.000000 300.000000 5.500460
v -4.367623 0.000000 9.999999
v 0.000000 7.978776 10.000000
v -99.406654 46.604698 0.000000
v -100.000000 46.275887 5.824149
v -93.070656 53.760971 10.000000
v -6.126434 154.328461 10.000000
v -1.393149 182.807220 0.000000
v 0.000000 173.591095 4.701465
v -100.000000 295.871155 10.000000
v -96.866135 3.549074 10.000000
v -89.905823 0.000000 0.000000
v -99.868813 10.304280 0.000000
v -0.692068 78.588890 0.000000
v -0.824308 108.164658 0.000000
v -5.640455 97.088493 0.000000
v -0.354721 96.425751 5.696745
v -0.045181 296.199341 0.000000
v -100.000000 187.021027 10.000000
v -100.000000 217.887848 8.378704
v -100.000000 233.370163 10.000000
v -93.324364 215.012390 10.000000
vt 0.247760 0.303287
vt 0.247760 0.303287
vt 0.247760 0.303287
vt 0.247760 0.303287
vt 0.247760 0.303287
vt 0.247760 0.303287
vt 0.247760 0.303287
vt 0.247760 0.303287
vt 0.247760 0.303287
vt 0.247760 0.303287
vt 0.247760 0.303287
vt 0.247760 0.303287
vt 0.247760 0.303287
vt 0.247760 0.303287
vt 0.247760 0.303287
vt 0.247760 0.303287
vt 0.247760 0.303287
vt 0.247760 0.303287
vt 0.247760 0.303287
vt 0.247760 0.303287
vt 0.247760 0.303287
vt 0.247760 0.303287
vt 0.247760 0.303287
vt 0.247760 0.303287
vt 0.247760 0.303287
vt 0.247760 0.303287
vt 0.247760 0.303287
vt 0.247760 0.303287
vt 0.247760 0.303287
vt 0.247760 0.303287
vt 0.247760 0.303287
vt 0.247760 0.303287
vt 0.247760 0.303287
vt 0.247760 0.303287
vt 0.247760 0.303287
vt 0.247760 0.303287
vt 0.247760 0.303287
vn -0.816843 0.266085 -0.511826
vn -0.816843 0.266085 -0.511827
vn -0.816843 0.266085 -0.511827
vn 0.000000 1.000000 0.000000
vn 0.000000 1.000000 -0.000000
vn 0.000000 1.000000 -0.000003
vn 0.000000 1.000000 -0.000003
vn 0.000000 1.000000 -0.000000
vn 0.000000 1.000000 -0.000014
vn 0.000000 1.000000 0.000000
vn 0.000000 1.000000 0.000000
vn 0.000000 1.000000 -0.000000
vn 0.000000 1.000000 -0.000000
vn 0.000000 1.000000 0.000000
vn 0.000000 1.000000 -0.000014
vn 0.985627 0.070728 -0.153418
vn 0.990516 -0.002744 -0.137369
vn 0.990591 -0.005550 -0.136740
vn 0.990676 -0.009160 -0.135930
vn 0.990591 -0.005550 -0.136740
vn 0.990516 -0.002744 -0.137369
vn 0.000000 -1.000000 0.000000
vn 0.000000 -1.000000 0.000000
vn 0.000000 -1.000000 0.000000
vn -0.000000 0.000000 1.000000
vn -0.000000 0.000000 1.000000
vn -0.000000 0.000000 1.000000
vn -0.000000 0.000000 1.000000
vn -0.000000 0.000000 1.000000
vn 0.000000 0.000000 1.000000
vn 0.000000 0.000000 -1.000000
vn 0.000000 0.000000 -1.000000
vn 0.000000 0.000000 -1.000000
vn 0.000000 0.000000 -1.000000
vn 0.000000 0.000000 -1.000000
vn 0.000000 0.000000 -1.000000
vn 0.354742 0.228451 0.906625
vn 0.354742 0.228451 0.906625
vn 0.354742 0.228451 0.906625
vn -0.017994 0.404240 0.914476
vn -0.017994 0.404240 0.914476
vn -0.017994 0.404240 0.914476
vn -0.999902 0.000435 -0.013972
vn -0.999952 -0.001774 -0.009627
vn -0.999911 0.000110 -0.013333
vn -0.999911 0.000110 -0.013333
vn -0.999952 -0.001774 -0.009627
vn -0.999959 -0.002235 -0.008722
vn 0.532397 -0.291437 0.794744
vn 0.532397 -0.291437 0.794744
vn 0.532397 -0.291437 0.794744
vn -0.290021 -0.247291 0.924519
vn -0.290021 -0.247291 0.924519
vn -0.290021 -0.247291 0.924519
vn -0.994834 -0.002431 -0.101488
vn -0.994834 -0.002431 -0.101488
vn -0.994834 -0.002431 -0.101488
vn -0.994843 0.012666 -0.100636
vn -0.994843 0.012666 -0.100636
vn -0.994843 0.012666 -0.100636
vn -1.000000 0.000000 0.000000
vn -0.985629 0.124466 0.114212
vn -0.973431 0.168715 0.154815
vn -0.973431 0.168715 0.154815
vn -0.985629 0.124466 0.114212
vn -0.455540 0.655917 0.601878
vn -0.648459 0.188903 0.737439
vn -0.648459 0.188903 0.737439
vn -0.648459 0.188903 0.737439
vn 0.996620 0.000000 -0.082152
vn 0.996620 0.000000 -0.082152
vn 0.996620 0.000000 -0.082152
vn 0.903002 -0.179874 0.390170
vn 0.903002 -0.179874 0.390170
vn 0.903002 -0.179874 0.390170
vn 0.353118 0.142056 0.924731
vn 0.353118 0.142056 0.924731
vn 0.353118 0.142056 0.924731
vn 0.000000 0.000000 1.000000
vn 0.000000 0.000000 1.000000
vn 0.000000 0.000000 1.000000
vn 0.000000 0.000000 1.000000
vn 0.000000 0.000000 1.000000
vn 0.000000 0.000000 1.000000
vn -1.000000 0.000000 0.000000
vn -1.000000 0.000000 0.000000
vn -1.000000 0.000000 0.000000
vn -1.000000 0.000000 0.000000
vn -1.000000 0.000000 0.000000
vn -1.000000 0.000000 0.000000
vn -0.253490 -0.030062 0.966871
vn -0.253490 -0.030062 0.966871
vn -0.253490 -0.030062 0.966871
vn -0.009445 -0.246163 0.969182
vn -0.009445 -0.246163 0.969182
vn -0.009445 -0.246163 0.969182
vn 0.020094 0.510230 -0.859803
vn 0.020094 0.510230 -0.859803
vn 0.020094 0.510230 -0.859803
vn -0.000000 -0.000000 -1.000000
vn -0.000000 -0.000000 -1.000000
vn -0.000000 -0.000000 -1.000000
vn -0.985851 -0.103491 -0.131861
vn -0.985851 -0.103491 -0.131861
vn -0.985851 -0.103491 -0.131861
vn 0.000000 0.000000 -1.000000
vn 0.000000 0.000000 -1.000000
vn 0.000000 0.000000 -1.000000
vn 0.682565 -0.296794 -0.667846
vn 0.682565 -0.296794 -0.667846
vn 0.682565 -0.296794 -0.667846
vn 0.730164 0.195309 -0.654763
vn 0.730164 0.195309 -0.654763
vn 0.730164 0.195309 -0.654763
vn 0.962592 0.007336 -0.270857
vn 0.968716 0.005624 -0.248108
vn 0.996429 -0.001006 -0.084425
vn 0.968716 0.005624 -0.248108
vn 0.998344 -0.008194 -0.056948
vn 0.996429 -0.001006 -0.084425
vn 0.998344 -0.008194 -0.056948
vn 0.996620 0.000000 -0.082152
vn 0.996429 -0.001006 -0.084425
vn 0.998065 0.000978 -0.062166
vn 0.999733 0.006667 -0.022111
vn 0.998205 0.001272 -0.059882
vn 0.999961 0.008806 0.000000
vn 0.998205 0.001272 -0.059882
vn 0.999960 0.008575 -0.002566
vn 0.998205 0.001272 -0.059882
vn 0.999733 0.006667 -0.022111
vn 0.999960 0.008575 -0.002566
vn 0.000000 0.000000 -1.000000
vn 0.000000 0.000000 -1.000000
vn 0.000000 0.000000 -1.000000
vn 0.000000 0.000000 -1.000000
vn 0.000000 0.000000 -1.000000
vn 0.000000 0.000000 -1.000000
vn 0.000000 0.000000 -1.000000
vn 0.000000 0.000000 -1.000000
vn 0.000000 0.000000 -1.000000
vn 0.000000 0.000000 -1.000000
vn 0.000000 0.000000 -1.000000
vn 0.000000 0.000000 -1.000000
vn 0.000000 0.000000 -1.000000
vn 0.000000 0.000000 -1.000000
vn 0.000000 0.000000 -1.000000
vn 1.000000 0.000000 0.000000
vn 1.000000 0.000000 0.000000
vn 1.000000 0.000000 0.000000
vn 1.000000 0.000000 0.000000
vn 1.000000 0.000000 0.000000
vn 1.000000 0.000000 0.000000
vn 0.999929 -0.011887 -0.000000
vn 0.999929 -0.011887 -0.000000
vn 0.999929 -0.011887 -0.000000
vn 0.000000 0.000000 -1.000000
vn 0.000000 0.000000 -1.000000
vn 0.000000 0.000000 -1.000000
vn 0.000000 -1.000000 0.000000
vn 0.000000 -1.000000 0.000000
vn 0.000000 -1.000000 0.000000
vn 0.000000 -1.000000 0.000000
vn 0.000000 -1.000000 0.000000
vn 0.000000 -1.000000 0.000000
vn 0.000000 -1.000000 0.000000
vn 0.000000 -1.000000 0.000000
vn 0.000000 -1.000000 0.000000
vn 0.000000 0.000000 1.000000
vn 0.000000 0.000000 1.000000
vn 0.000000 0.000000 1.000000
vn 0.000000 0.000000 1.000000
vn 0.000000 0.000000 1.000000
vn 0.000000 0.000000 1.000000
vn 0.000000 -0.000000 1.000000
vn 0.000000 -0.000000 1.000000
vn 0.000000 -0.000000 1.000000
vn 0.000000 0.000000 1.000000
vn 0.000000 -0.000000 1.000000
vn 0.000000 -0.000000 1.000000
vn 0.000000 0.000000 1.000000
vn 0.000000 0.000000 1.000000
vn 0.000000 0.000000 1.000000
vn -0.214805 0.051229 0.975312
vn -0.214805 0.051229 0.975312
vn -0.214805 0.051229 0.975312
vn -0.275337 -0.100124 0.956120
vn -0.275337 -0.100124 0.956120
vn -0.275337 -0.100124 0.956120
vn -1.000000 0.000000 0.000000
vn -1.000000 0.000000 0.000000
vn -1.000000 0.000000 0.000000
vn -1.000000 0.000000 0.000000
vn -1.000000 0.000000 0.000000
vn -1.000000 0.000000 0.000000
vn -1.000000 0.000000 0.000000
vn -1.000000 0.000000 0.000000
vn -1.000000 0.000000 0.000000
vn -0.000000 0.000000 1.000000
vn -0.000000 0.000000 1.000000
vn -0.000000 0.000000 1.000000
vn -0.000000 0.000000 1.000000
vn -0.000000 0.000000 1.000000
vn 0.000000 0.000000 1.000000
vn -0.000000 0.000000 1.000000
vn 0.000000 0.000000 1.000000
vn 0.000000 0.000000 1.000000
vn 0.000000 0.000000 1.000000
vn 0.000000 0.000000 1.000000
vn 0.000000 0.000000 1.000000
s off
f 15/1/1 16/2/2 3/3/3
f 5/7/4 3/3/5 6/6/6
f 6/6/7 3/3/8 13/5/9
f 16/2/10 4/4/11 3/3/12
f 3/3/13 4/4/14 13/5/15
f 24/9/16 23/10/17 12/8/18
f 5/7/19 12/8/20 23/10/21
f 27/11/22 2/12/23 1/13/24
f 26/15/25 22/16/26 10/14/27
f 10/14/28 22/16/29 21/17/30
f 7/18/31 27/11/32 19/20/33
f 27/11/34 28/19/35 19/20/36
f 13/5/37 14/21/38 6/6/39
f 25/22/40 13/5/41 4/4/42
f 2/12/43 10/14/44 28/19/45
f 28/19/46 10/14/47 20/23/48
f 18/24/49 17/25/50 8/26/51
f 11/27/52 20/23/53 21/17/54
f 19/20/55 20/23/56 15/1/57
f 28/19/58 20/23/59 19/20/60
f 15/1/61 25/22/62 16/2/63
f 16/2/64 25/22/65 4/4/66
f 21/17/67 20/23/68 10/14/69
f 9/28/70 18/24/71 32/29/72
f 22/16/73 24/9/74 12/8/75
f 9/28/76 24/9/77 22/16/78
f 12/8/79 25/22/80 37/31/81
f 25/22/82 36/30/83 37/31/84
f 35/32/85 20/23/86 34/33/87
f 34/33/88 20/23/89 11/27/90
f 2/12/91 26/15/92 10/14/93
f 2/12/94 17/25/95 26/15/96
f 33/34/97 3/3/98 5/7/99
f 28/19/100 27/11/101 1/13/102
f 1/13/103 2/12/104 28/19/105
f 29/35/106 19/20/107 31/36/108
f 32/29/109 31/36/110 30/37/111
f 29/35/112 31/36/113 32/29/114
f 23/10/115 24/9/116 30/37/117
f 24/9/118 9/28/119 30/37/120
f 9/28/121 32/29/122 30/37/123
f 32/29/124 18/24/125 29/35/126
f 7/18/127 29/35/128 8/26/129
f 29/35/130 18/24/131 8/26/132
f 7/18/133 19/20/134 29/35/135
f 15/1/136 30/37/137 19/20/138
f 30/37/139 31/36/140 19/20/141
f 3/3/142 33/34/143 15/1/144
f 23/10/145 15/1/146 33/34/147
f 5/7/148 6/6/149 12/8/150
f 6/6/151 14/21/152 12/8/153
f 5/7/154 23/10/155 33/34/156
f 30/37/157 15/1/158 23/10/159
f 7/18/160 8/26/161 27/11/162
f 8/26/163 17/25/164 27/11/165
f 27/11/166 17/25/167 2/12/168
f 12/8/169 14/21/170 25/22/171
f 25/22/172 14/21/173 13/5/174
f 17/25/175 18/24/176 26/15/177
f 9/28/178 26/15/179 18/24/180
f 22/16/181 26/15/182 9/28/183
f 34/33/184 37/31/185 35/32/186
f 35/32/187 37/31/188 36/30/189
f 35/32/190 36/30/191 15/1/192
f 15/1/193 36/30/194 25/22/195
f 15/1/196 20/23/197 35/32/198
f 21/17/199 22/16/200 11/27/201
f 11/27/202 22/16/203 34/33/204
f 22/16/205 12/8/206 34/33/207
f 12/8/208 37/31/209 34/33/210
