# This file uses meters as units for non-parametric coordinates.

v -34.644409 225.355606 13.644657
v -50.000000 209.999985 13.644657
v -165.355591 225.355606 13.644657
v -150.000000 209.999985 13.644657
v -165.355591 225.355606 -3.644657
v -150.000000 209.999985 -3.644657
v -34.644409 225.355606 -3.644657
v -50.000000 209.999985 -3.644657
v -165.355591 84.644409 13.644657
v -150.000000 100.000000 13.644657
v -165.355591 84.644409 -3.644657
v -150.000000 100.000000 -3.644657
v -34.644409 84.644409 13.644657
v -50.000000 100.000000 13.644657
v -34.644409 84.644409 -3.644657
v -50.000000 100.000000 -3.644657
v -200.000000 0.000000 0.000000
v -200.000000 0.000000 10.000000
v -200.000000 300.000000 0.000000
v -200.000000 300.000000 10.000000
v 0.000000 300.000000 0.000000
v 0.000000 300.000000 10.000000
v 0.000000 0.000000 0.000000
v 0.000000 0.000000 10.000000
v -44.095215 216.904739 10.000000
v -155.904785 216.904739 10.000000
v -155.904785 216.904739 0.000000
v -44.095215 216.904739 0.000000
v -155.904785 97.487144 0.000000
v -155.904785 97.487144 10.000000
v -44.095215 97.487144 0.000000
v -44.095215 97.487144 10.000000
v -100.000000 300.000000 10.000000
v -100.000000 300.000000 0.000000
v -100.000000 216.904739 0.000000
v -100.000000 216.904739 10.000000
vt 0.247760 0.303287
vt 0.247760 0.303287
vt 0.247760 0.303287
vt 0.247760 0.303287
vt 0.247760 0.303287
vt 0.247760 0.303287
vt 0.247760 0.303287
vt 0.247760 0.303287
vt 0.247760 0.303287
vt 0.247760 0.303287
vt 0.247760 0.303287
vt 0.247760 0.303287
vt 0.247760 0.303287
vt 0.247760 0.303287
vt 0.247760 0.303287
vt 0.247760 0.303287
vt 0.247760 0.303287
vt 0.247760 0.303287
vt 0.247760 0.303287
vt 0.247760 0.303287
vt 0.247760 0.303287
vt 0.247760 0.303287
vt 0.247760 0.303287
vt 0.247760 0.303287
vt 0.247760 0.303287
vt 0.247760 0.303287
vt 0.247760 0.303287
vt 0.247760 0.303287
vt 0.247760 0.303287
vt 0.247760 0.303287
vt 0.247760 0.303287
vt 0.247760 0.303287
vt 0.247760 0.303287
vt 0.247760 0.303287
vt 0.247760 0.303287
vt 0.247760 0.303287
vn 0.000000 0.000000 1.000000
vn 0.000000 0.000000 1.000000
vn 0.000000 0.000000 1.000000
vn 0.000000 0.000000 1.000000
vn 0.000000 0.000000 1.000000
vn 0.000000 0.000000 1.000000
vn 0.000000 0.000000 -1.000000
vn 0.000000 0.000000 -1.000000
vn 0.000000 0.000000 -1.000000
vn 0.000000 0.000000 -1.000000
vn 0.000000 0.000000 -1.000000
vn 0.000000 0.000000 -1.000000
vn 0.000000 -1.000000 0.000000
vn 0.000000 -1.000000 0.000000
vn 0.000000 -1.000000 0.000000
vn 0.000000 -1.000000 0.000000
vn 0.000000 -1.000000 0.000000
vn 0.000000 -1.000000 0.000000
vn 0.000000 1.000000 0.000000
vn 0.000000 1.000000 0.000000
vn 0.000000 1.000000 0.000000
vn 0.000000 1.000000 0.000000
vn 0.000000 1.000000 0.000000
vn 0.000000 1.000000 0.000000
vn 0.000000 0.000000 1.000000
vn 0.000000 0.000000 1.000000
vn -0.000000 0.000000 1.000000
vn -0.000000 0.000000 1.000000
vn 0.000000 0.000000 1.000000
vn -0.000000 0.000000 1.000000
vn 0.000000 0.000000 -1.000000
vn -0.000000 0.000000 -1.000000
vn -0.000000 0.000000 -1.000000
vn -0.000000 0.000000 -1.000000
vn -0.000000 0.000000 -1.000000
vn -0.000000 0.000000 -1.000000
vn 0.707107 -0.707107 0.000000
vn 0.707107 -0.707107 0.000000
vn 0.707107 -0.707107 0.000000
vn 0.707107 -0.707107 0.000000
vn 0.707107 -0.707107 0.000000
vn 0.707107 -0.707106 0.000000
vn 1.000000 0.000000 0.000000
vn 1.000000 0.000000 0.000000
vn 1.000000 0.000000 0.000000
vn 1.000000 0.000000 0.000000
vn 1.000000 0.000000 0.000000
vn 1.000000 0.000000 0.000000
vn -1.000000 0.000000 0.000000
vn -1.000000 0.000000 0.000000
vn -1.000000 0.000000 0.000000
vn -1.000000 0.000000 0.000000
vn -1.000000 0.000000 0.000000
vn -1.000000 0.000000 0.000000
vn -0.000000 0.000000 1.000000
vn 0.000000 0.000000 1.000000
vn -0.000000 0.000000 1.000000
vn -0.000000 0.000000 1.000000
vn 0.000000 0.000000 1.000000
vn 0.000000 0.000000 1.000000
vn 0.000000 0.000000 -1.000000
vn 0.000000 -0.000000 -1.000000
vn 0.000000 -0.000000 -1.000000
vn 0.000000 -0.000000 -1.000000
vn 0.000000 -0.000000 -1.000000
vn 0.000000 -0.000000 -1.000000
vn -0.707107 -0.707107 0.000000
vn -0.707107 -0.707107 0.000000
vn -0.707107 -0.707107 0.000000
vn -0.707107 -0.707107 0.000000
vn -0.707107 -0.707107 0.000000
vn -0.707107 -0.707107 0.000000
vn -1.000000 0.000000 0.000000
vn -1.000000 0.000000 0.000000
vn -1.000000 0.000000 0.000000
vn -1.000000 0.000000 0.000000
vn -1.000000 0.000000 0.000000
vn -1.000000 0.000000 0.000000
vn 1.000000 0.000000 0.000000
vn 1.000000 0.000000 0.000000
vn 1.000000 0.000000 0.000000
vn 1.000000 0.000000 0.000000
vn 1.000000 0.000000 0.000000
vn 1.000000 0.000000 0.000000
vn -1.000000 0.000000 0.000000
vn -1.000000 0.000000 0.000000
vn -1.000000 0.000000 0.000000
vn -1.000000 0.000000 0.000000
vn -1.000000 0.000000 0.000000
vn -1.000000 0.000000 0.000000
vn 0.000000 1.000000 0.000000
vn 0.000000 1.000000 0.000000
vn 0.000000 1.000000 0.000000
vn 0.000000 1.000000 0.000000
vn 0.000000 1.000000 0.000000
vn 0.000000 1.000000 0.000000
vn 1.000000 0.000000 0.000000
vn 1.000000 0.000000 0.000000
vn 1.000000 0.000000 0.000000
vn 1.000000 0.000000 0.000000
vn 1.000000 0.000000 0.000000
vn 1.000000 0.000000 0.000000
vn 0.000000 -1.000000 0.000000
vn 0.000000 -1.000000 0.000000
vn 0.000000 -1.000000 0.000000
vn 0.000000 -1.000000 0.000000
vn 0.000000 -1.000000 0.000000
vn 0.000000 -1.000000 0.000000
vn 0.000000 0.000000 1.000000
vn -0.000000 0.000000 1.000000
vn -0.000000 0.000000 1.000000
vn -0.000000 0.000000 1.000000
vn -0.000000 0.000000 1.000000
vn -0.000000 0.000000 1.000000
vn 0.000000 0.000000 -1.000000
vn 0.000000 0.000000 -1.000000
vn 0.000000 0.000000 -1.000000
vn 0.000000 0.000000 -1.000000
vn 0.000000 0.000000 -1.000000
vn 0.000000 0.000000 -1.000000
vn 0.000000 0.000000 -1.000000
vn 0.000000 0.000000 -1.000000
vn 0.000000 0.000000 -1.000000
vn 0.000000 0.000000 -1.000000
vn 0.000000 0.000000 -1.000000
vn 0.000000 0.000000 -1.000000
vn -1.000000 0.000000 0.000000
vn -1.000000 0.000000 0.000000
vn -1.000000 0.000000 0.000000
vn -1.000000 0.000000 0.000000
vn -1.000000 0.000000 0.000000
vn -1.000000 0.000000 0.000000
vn 0.000000 0.000000 1.000000
vn 0.000000 0.000000 1.000000
vn 0.000000 0.000000 1.000000
vn 0.000000 0.000000 1.000000
vn 0.000000 0.000000 1.000000
vn 0.000000 0.000000 1.000000
vn 0.000000 -0.000000 -1.000000
vn -0.000000 -0.000000 -1.000000
vn -0.000000 -0.000000 -1.000000
vn -0.000000 -0.000000 -1.000000
vn -0.000000 -0.000000 -1.000000
vn -0.000000 -0.000000 -1.000000
vn 0.000000 -1.000000 0.000000
vn 0.000000 -1.000000 0.000000
vn 0.000000 -1.000000 0.000000
vn 0.000000 -1.000000 0.000000
vn 0.000000 -1.000000 0.000000
vn 0.000000 -1.000000 0.000000
vn 1.000000 0.000000 0.000000
vn 1.000000 0.000000 0.000000
vn 1.000000 0.000000 0.000000
vn 1.000000 0.000000 0.000000
vn 1.000000 0.000000 0.000000
vn 1.000000 0.000000 0.000000
vn 0.000000 0.000000 1.000000
vn 0.000000 0.000000 1.000000
vn 0.000000 0.000000 1.000000
vn 0.000000 0.000000 1.000000
vn 0.000000 0.000000 1.000000
vn 0.000000 0.000000 1.000000
vn 0.911129 -0.412120 0.000000
vn 0.911129 -0.412120 0.000000
vn 0.911129 -0.412120 0.000000
vn 0.911129 -0.412120 0.000000
vn 0.911129 -0.412120 0.000000
vn 0.911129 -0.412120 0.000000
vn 0.000000 1.000000 0.000000
vn 0.000000 1.000000 0.000000
vn 0.000000 1.000000 0.000000
vn 0.000000 1.000000 0.000000
vn 0.000000 1.000000 0.000000
vn 0.000000 1.000000 0.000000
vn 0.000000 0.000000 1.000000
vn 0.000000 0.000000 1.000000
vn 0.000000 0.000000 1.000000
vn 0.000000 0.000000 1.000000
vn 0.000000 0.000000 1.000000
vn 0.000000 0.000000 1.000000
vn 0.000000 0.000000 -1.000000
vn -0.000000 0.000000 -1.000000
vn -0.000000 0.000000 -1.000000
vn -0.000000 0.000000 -1.000000
vn -0.000000 0.000000 -1.000000
vn -0.000000 0.000000 -1.000000
vn 0.000000 0.000000 1.000000
vn 0.000000 0.000000 1.000000
vn 0.000000 0.000000 1.000000
vn 0.000000 0.000000 1.000000
vn 0.000000 0.000000 1.000000
vn 0.000000 0.000000 1.000000
vn 0.000000 0.000000 -1.000000
vn 0.000000 0.000000 -1.000000
vn 0.000000 0.000000 -1.000000
vn 0.000000 0.000000 -1.000000
vn 0.000000 0.000000 -1.000000
vn 0.000000 0.000000 -1.000000
vn 0.000000 1.000000 0.000000
vn 0.000000 1.000000 0.000000
vn 0.000000 1.000000 0.000000
vn 0.000000 1.000000 0.000000
vn 0.000000 1.000000 0.000000
vn 0.000000 1.000000 0.000000
vn 0.000000 -1.000000 0.000000
vn 0.000000 -1.000000 0.000000
vn 0.000000 -1.000000 0.000000
vn 0.000000 -1.000000 0.000000
vn 0.000000 -1.000000 0.000000
vn 0.000000 -1.000000 0.000000
vn -0.707107 0.707107 0.000000
vn -0.707107 0.707107 0.000000
vn -0.707107 0.707107 0.000000
vn -0.707107 0.707107 0.000000
vn -0.707107 0.707107 0.000000
vn -0.707107 0.707106 0.000000
vn 0.707107 0.707107 0.000000
vn 0.707107 0.707107 0.000000
vn 0.707107 0.707107 0.000000
vn 0.707107 0.707107 0.000000
vn 0.707107 0.707107 0.000000
vn 0.707107 0.707107 0.000000
vn -0.911129 0.412120 0.000000
vn -0.911129 0.412120 0.000000
vn -0.911129 0.412120 0.000000
vn -0.911129 0.412120 0.000000
vn -0.911129 0.412120 0.000000
vn -0.911129 0.412120 0.000000
vn 0.000000 1.000000 0.000000
vn 0.000000 1.000000 0.000000
vn 0.000000 1.000000 0.000000
vn 0.000000 1.000000 0.000000
vn 0.000000 1.000000 0.000000
vn 0.000000 1.000000 0.000000
vn -0.000000 -0.000000 -1.000000
vn -0.000000 -0.000000 -1.000000
vn -0.000000 -0.000000 -1.000000
vn -0.000000 -0.000000 -1.000000
vn -0.000000 -0.000000 -1.000000
vn 0.000000 0.000000 -1.000000
vn 0.000000 -1.000000 0.000000
vn 0.000000 -1.000000 0.000000
vn 0.000000 -1.000000 0.000000
vn 0.000000 -1.000000 0.000000
vn 0.000000 -1.000000 0.000000
vn 0.000000 -1.000000 0.000000
vn 0.000000 0.000000 1.000000
vn 0.000000 0.000000 1.000000
vn 0.000000 0.000000 1.000000
vn 0.000000 0.000000 1.000000
vn 0.000000 0.000000 1.000000
vn 0.000000 0.000000 1.000000
s off
f 1/1/1 3/2/2 2/4/3
f 2/4/4 3/2/5 4/3/6
f 5/5/7 7/6/8 6/8/9
f 6/8/10 7/6/11 8/7/12
f 2/4/13 4/3/14 8/7/15
f 8/7/16 4/3/17 6/8/18
f 7/6/19 5/5/20 1/1/21
f 1/1/22 5/5/23 3/2/24
f 9/9/25 10/10/26 3/2/27
f 3/2/28 10/10/29 4/3/30
f 5/5/31 6/8/32 11/12/33
f 11/12/34 6/8/35 12/11/36
f 11/12/37 12/11/38 9/9/39
f 9/9/40 12/11/41 10/10/42
f 10/10/43 12/11/44 4/3/45
f 4/3/46 12/11/47 6/8/48
f 11/12/49 9/9/50 5/5/51
f 5/5/52 9/9/53 3/2/54
f 13/13/55 1/1/56 14/14/57
f 14/14/58 1/1/59 2/4/60
f 7/6/61 15/15/62 8/7/63
f 8/7/64 15/15/65 16/16/66
f 15/15/67 13/13/68 16/16/69
f 16/16/70 13/13/71 14/14/72
f 14/14/73 2/4/74 16/16/75
f 16/16/76 2/4/77 8/7/78
f 15/15/79 7/6/80 13/13/81
f 13/13/82 7/6/83 1/1/84
f 19/17/85 17/18/86 20/20/87
f 20/20/88 17/18/89 18/19/90
f 33/21/91 34/22/92 20/20/93
f 20/20/94 34/22/95 19/17/96
f 23/23/97 21/24/98 24/26/99
f 24/26/100 21/24/101 22/25/102
f 36/27/103 26/28/104 35/30/105
f 35/30/106 26/28/107 27/29/108
f 18/19/109 30/31/110 20/20/111
f 20/20/112 30/31/113 26/28/114
f 27/29/115 29/32/116 19/17/117
f 19/17/118 29/32/119 17/18/120
f 23/23/121 31/33/122 21/24/123
f 21/24/124 31/33/125 28/34/126
f 28/34/127 31/33/128 25/36/129
f 25/36/130 31/33/131 32/35/132
f 25/36/133 32/35/134 22/25/135
f 22/25/136 32/35/137 24/26/138
f 19/17/139 34/22/140 27/29/141
f 27/29/142 34/22/143 35/30/144
f 17/18/145 23/23/146 18/19/147
f 18/19/148 23/23/149 24/26/150
f 30/31/151 29/32/152 26/28/153
f 26/28/154 29/32/155 27/29/156
f 36/27/157 33/21/158 26/28/159
f 26/28/160 33/21/161 20/20/162
f 17/18/163 29/32/164 18/19/165
f 18/19/166 29/32/167 30/31/168
f 31/33/169 29/32/170 32/35/171
f 32/35/172 29/32/173 30/31/174
f 24/26/175 32/35/176 18/19/177
f 18/19/178 32/35/179 30/31/180
f 23/23/181 17/18/182 31/33/183
f 31/33/184 17/18/185 29/32/186
f 13/13/187 14/14/188 9/9/189
f 9/9/190 14/14/191 10/10/192
f 11/12/193 12/11/194 15/15/195
f 15/15/196 12/11/197 16/16/198
f 14/14/199 16/16/200 10/10/201
f 10/10/202 16/16/203 12/11/204
f 15/15/205 13/13/206 11/12/207
f 11/12/208 13/13/209 9/9/210
f 11/12/211 9/9/212 12/11/213
f 12/11/214 9/9/215 10/10/216
f 15/15/217 16/16/218 13/13/219
f 13/13/220 16/16/221 14/14/222
f 30/31/223 29/32/224 18/19/225
f 18/19/226 29/32/227 17/18/228
f 22/25/229 21/24/230 33/21/231
f 33/21/232 21/24/233 34/22/234
f 35/30/235 34/22/236 28/34/237
f 28/34/238 34/22/239 21/24/240
f 25/36/241 36/27/242 28/34/243
f 28/34/244 36/27/245 35/30/246
f 22/25/247 33/21/248 25/36/249
f 25/36/250 33/21/251 36/27/252
