# This file uses meters as units for non-parametric coordinates.

v -117.557076 0.000000 161.803421
v -111.679222 0.000000 153.713257
v -115.288567 300.000000 158.380783
v -111.679222 300.000000 153.713257
v -190.211349 300.000000 61.803413
v -180.700790 300.000000 58.713238
v -190.211349 0.000000 61.803413
v -180.700790 0.000000 58.713238
v -153.713257 300.000000 111.679222
v -161.803436 300.000000 117.557076
v -161.803436 0.000000 117.557076
v -153.713272 0.000000 111.679222
v 0.000000 0.000000 200.000000
v 0.000000 0.000000 190.000000
v -0.000000 300.000000 194.616364
v 0.000000 300.000000 190.000000
v -196.173859 300.000000 0.000000
v -190.000000 300.000000 0.000000
v -200.000000 0.000000 0.000000
v -190.000000 0.000000 0.000000
v -58.713238 294.573853 180.700775
v -61.803413 300.000000 190.211334
v -61.803413 0.000000 190.211334
v -58.713245 0.000000 180.700775
v 0.000000 283.899384 200.000000
v -7.089238 299.999969 198.877167
v -198.623795 300.000000 8.688991
v -200.000000 277.197876 0.000000
v -135.324554 300.000000 144.035934
v -117.557076 289.643341 161.803406
v -99.962082 300.000000 170.768509
v -66.277527 300.000000 176.846573
v -59.429077 300.000000 182.903900
v -51.234783 300.000000 181.885254
v -190.000000 129.668945 0.000000
v -200.000000 50.154613 0.000000
v -190.000000 158.913544 0.000000
v -200.000000 74.012253 0.000000
v -188.369415 146.879379 10.295231
v -193.821091 149.945435 0.000000
v -197.588364 69.330597 0.000000
v -198.770447 64.715515 7.763174
v -161.803436 59.626041 117.557076
v -166.136322 50.531654 109.053329
v -161.803436 34.268723 117.557076
v -157.974457 38.162788 121.386047
v 0.000000 42.699612 200.000000
v 0.000000 71.222458 200.000000
v 0.000000 52.037846 195.395508
v -8.941039 60.918777 198.583893
vt 0.247760 0.303287
vt 0.247760 0.303287
vt 0.247760 0.303287
vt 0.247760 0.303287
vt 0.247760 0.303287
vt 0.247760 0.303287
vt 0.247760 0.303287
vt 0.247760 0.303287
vt 0.247760 0.303287
vt 0.247760 0.303287
vt 0.247760 0.303287
vt 0.247760 0.303287
vt 0.247760 0.303287
vt 0.247760 0.303287
vt 0.247760 0.303287
vt 0.247760 0.303287
vt 0.247760 0.303287
vt 0.247760 0.303287
vt 0.247760 0.303287
vt 0.247760 0.303287
vt 0.247760 0.303287
vt 0.247760 0.303287
vt 0.247760 0.303287
vt 0.247760 0.303287
vt 0.247760 0.303287
vt 0.247760 0.303287
vt 0.247760 0.303287
vt 0.247760 0.303287
vt 0.247760 0.303287
vt 0.247760 0.303287
vt 0.247760 0.303287
vt 0.247760 0.303287
vt 0.247760 0.303287
vt 0.247760 0.303287
vt 0.247760 0.303287
vt 0.247760 0.303287
vt 0.247760 0.303287
vt 0.247760 0.303287
vt 0.247760 0.303287
vt 0.247760 0.303287
vt 0.247760 0.303287
vt 0.247760 0.303287
vt 0.247760 0.303287
vt 0.247760 0.303287
vt 0.247760 0.303287
vt 0.247760 0.303287
vt 0.247760 0.303287
vt 0.247760 0.303287
vt 0.247760 0.303287
vt 0.247760 0.303287
vn 0.000000 1.000000 0.000000
vn 0.000000 1.000000 -0.000002
vn 0.000000 1.000000 -0.000000
vn 0.000000 1.000000 0.000000
vn 0.000000 1.000000 -0.000001
vn 0.000000 1.000000 -0.000002
vn 0.000000 1.000000 -0.000001
vn 0.000000 1.000000 -0.000000
vn 0.000000 1.000000 -0.000002
vn 0.000000 -1.000000 0.000000
vn 0.000000 -1.000000 0.000000
vn 0.000000 -1.000000 0.000000
vn 0.000000 -1.000000 0.000000
vn 0.000000 -1.000000 0.000000
vn 0.000000 -1.000000 0.000000
vn 0.707107 0.000000 -0.707107
vn 0.707107 0.000000 -0.707107
vn 0.707107 0.000000 -0.707107
vn 0.707107 0.000000 -0.707107
vn 0.707107 0.000000 -0.707107
vn 0.707107 0.000000 -0.707107
vn -0.541203 0.368356 0.755919
vn -0.541203 0.368356 0.755919
vn -0.541203 0.368356 0.755919
vn 0.000000 1.000000 0.000000
vn 0.000000 1.000000 0.000000
vn 0.000000 1.000000 0.000001
vn 0.000000 1.000000 0.000001
vn 0.000000 1.000000 0.000000
vn 0.000000 1.000000 0.000001
vn 0.000000 -1.000000 0.000000
vn 0.000000 -1.000000 0.000000
vn 0.000000 -1.000000 0.000000
vn 0.000000 -1.000000 0.000000
vn 0.000000 -1.000000 0.000000
vn 0.000000 -1.000000 0.000000
vn 0.891006 0.000000 -0.453991
vn 0.891007 0.000000 -0.453991
vn 0.891006 0.000000 -0.453991
vn 0.891006 0.000000 -0.453991
vn 0.891007 0.000000 -0.453991
vn 0.891007 0.000000 -0.453990
vn 1.000000 0.000000 -0.000000
vn 1.000000 0.000000 -0.000000
vn 1.000000 0.000000 -0.000000
vn 1.000000 0.000000 -0.000000
vn 1.000000 0.000000 -0.000000
vn 1.000000 0.000000 -0.000000
vn -0.791072 0.000000 -0.611723
vn -0.808980 -0.000006 -0.587837
vn -0.797715 -0.000215 -0.603035
vn -0.797715 -0.000215 -0.603035
vn -0.808980 -0.000006 -0.587837
vn -0.831020 -0.001328 -0.556242
vn -0.808980 -0.000006 -0.587837
vn -0.809016 0.000000 -0.587786
vn -0.831020 -0.001328 -0.556242
vn 0.000000 -1.000000 0.000000
vn 0.000000 -1.000000 0.000000
vn 0.000000 -1.000000 0.000000
vn 0.000000 -1.000000 0.000000
vn 0.000000 -1.000000 0.000000
vn 0.000000 -1.000000 0.000000
vn 0.156434 0.000000 -0.987689
vn 0.156434 -0.000000 -0.987688
vn 0.156434 -0.000000 -0.987688
vn 0.156434 -0.000000 -0.987688
vn 0.156434 0.000000 -0.987688
vn 0.156434 -0.000000 -0.987688
vn 0.156434 0.000000 -0.987688
vn 0.156433 0.000003 -0.987689
vn 0.156434 -0.000000 -0.987688
vn 0.114190 -0.231855 0.966025
vn 0.114190 -0.231855 0.966025
vn 0.114190 -0.231855 0.966025
vn 0.000000 1.000000 0.000001
vn 0.000000 1.000000 0.000001
vn 0.000000 1.000000 0.000000
vn 0.000000 1.000000 0.000001
vn 0.000000 1.000000 0.000001
vn 0.000000 1.000000 0.000001
vn 0.000000 1.000000 0.000001
vn 0.000000 1.000000 0.000001
vn 0.000000 1.000000 0.000000
vn 0.000000 -1.000000 0.000000
vn 0.000000 -1.000000 0.000000
vn 0.000000 -1.000000 0.000000
vn 0.000000 -1.000000 0.000000
vn 0.000000 -1.000000 0.000000
vn 0.000000 -1.000000 0.000000
vn -0.987689 0.000001 0.156433
vn -0.987689 0.000000 0.156434
vn -0.987689 0.000000 0.156433
vn -0.987689 0.000002 0.156433
vn -0.987688 0.000000 0.156434
vn -0.987689 0.000000 0.156434
vn -0.987689 0.000000 0.156433
vn -0.987689 0.000000 0.156434
vn -0.987688 0.000000 0.156434
vn 0.616912 0.364580 -0.697496
vn 0.616912 0.364580 -0.697496
vn 0.616912 0.364580 -0.697496
vn -0.584702 0.367145 0.723414
vn -0.584702 0.367145 0.723414
vn -0.584702 0.367145 0.723414
vn 0.000000 -1.000000 0.000000
vn 0.000000 -1.000000 0.000000
vn 0.000000 -1.000000 0.000000
vn 0.000000 -1.000000 0.000000
vn 0.000000 -1.000000 0.000000
vn 0.000000 -1.000000 0.000000
vn 0.453990 0.000000 -0.891007
vn 0.453990 -0.000000 -0.891007
vn 0.453992 -0.000000 -0.891006
vn 0.453990 0.000000 -0.891007
vn 0.453991 -0.000000 -0.891006
vn 0.453990 -0.000000 -0.891007
vn 0.453992 -0.000000 -0.891006
vn 0.453990 -0.000000 -0.891007
vn 0.453991 -0.000000 -0.891006
vn -0.115060 0.360629 -0.925585
vn -0.115060 0.360629 -0.925585
vn -0.115060 0.360629 -0.925585
vn 0.495204 0.275503 0.823936
vn 0.495204 0.275503 0.823936
vn 0.495204 0.275503 0.823936
vn 0.000000 0.000000 -1.000000
vn 0.000000 0.000000 -1.000000
vn 0.000000 0.000000 -1.000000
vn 0.000000 0.000000 -1.000000
vn 0.000000 0.000000 -1.000000
vn 0.000000 0.000000 -1.000000
vn 0.000000 0.000000 -1.000000
vn 0.000000 0.000000 -1.000000
vn 0.000000 0.000000 -1.000000
vn 0.000000 0.000000 -1.000000
vn 0.000000 0.000000 -1.000000
vn 0.000000 0.000000 -1.000000
vn -0.950162 0.159433 -0.267906
vn -0.950162 0.159433 -0.267906
vn -0.950162 0.159433 -0.267906
vn -0.707107 0.000000 0.707107
vn -0.707107 -0.000000 0.707107
vn -0.707107 0.000000 0.707107
vn -0.707106 0.000000 0.707107
vn -0.707107 0.000000 0.707107
vn -0.707107 -0.000000 0.707107
vn -0.707107 0.000000 0.707107
vn -0.707107 -0.000000 0.707107
vn -0.707107 -0.000000 0.707107
vn -0.453991 0.000000 0.891006
vn -0.453991 0.000000 0.891006
vn -0.453991 -0.000000 0.891006
vn -0.453990 0.000000 0.891007
vn -0.453990 -0.000000 0.891007
vn -0.453991 0.000000 0.891006
vn -0.453991 0.000000 0.891006
vn -0.453990 -0.000000 0.891007
vn -0.453991 -0.000000 0.891006
vn 0.000000 1.000000 0.000000
vn 0.000000 1.000000 0.000000
vn 0.000000 1.000000 0.000004
vn 0.000000 1.000000 0.000000
vn 0.000000 1.000000 0.000001
vn 0.000000 1.000000 0.000004
vn 0.000000 1.000000 0.000002
vn 0.000000 1.000000 0.000004
vn 0.000000 1.000000 0.000003
vn 0.000000 1.000000 0.000001
vn 0.000000 1.000000 0.000003
vn 0.000000 1.000000 0.000004
vn 0.000001 1.000000 0.000005
vn -0.000001 1.000000 -0.000005
vn 0.000000 1.000000 0.000005
vn 0.000000 1.000000 0.000005
vn -0.000001 1.000000 -0.000005
vn 0.000000 1.000000 -0.000000
vn 0.000000 1.000000 -0.000000
vn 0.000000 1.000000 -0.000000
vn -0.000001 1.000000 -0.000003
vn -0.000001 1.000000 -0.000005
vn -0.000001 1.000000 -0.000003
vn 0.000000 1.000000 -0.000000
vn 0.000000 0.000000 -1.000000
vn 0.000000 0.000000 -1.000000
vn 0.000000 0.000000 -1.000000
vn 0.787516 -0.335540 -0.516945
vn 0.787516 -0.335540 -0.516945
vn 0.787516 -0.335540 -0.516945
vn 0.987689 -0.000001 -0.156433
vn 0.987689 -0.000001 -0.156433
vn 0.987689 -0.000001 -0.156433
vn 0.000000 0.000000 -1.000000
vn 0.000000 0.000000 -1.000000
vn 0.000000 0.000000 -1.000000
vn 0.000000 0.000000 -1.000000
vn 0.000000 0.000000 -1.000000
vn 0.000000 0.000000 -1.000000
vn 0.891001 0.167908 -0.421810
vn 0.891001 0.167908 -0.421810
vn 0.891001 0.167908 -0.421810
vn 0.987688 0.000000 -0.156434
vn 0.987688 0.000000 -0.156434
vn 0.987688 0.000000 -0.156434
vn 0.987688 0.000000 -0.156434
vn 0.987688 0.000000 -0.156434
vn 0.987689 0.000000 -0.156434
vn 0.987688 0.000000 -0.156434
vn 0.987688 0.000000 -0.156434
vn 0.987689 0.000000 -0.156434
vn 0.987689 0.000001 -0.156433
vn 0.987689 0.000001 -0.156433
vn 0.987689 0.000001 -0.156433
vn -0.823228 -0.424059 -0.377451
vn -0.823228 -0.424059 -0.377451
vn -0.823228 -0.424059 -0.377451
vn -0.987689 -0.000001 0.156433
vn -0.987688 -0.000001 0.156433
vn -0.987689 -0.000001 0.156433
vn -0.989264 0.124411 -0.076672
vn -0.989264 0.124411 -0.076672
vn -0.989264 0.124411 -0.076672
vn 0.000000 0.000000 -1.000000
vn 0.000000 0.000000 -1.000000
vn 0.000000 0.000000 -1.000000
vn 0.000000 0.000000 -1.000000
vn 0.000000 0.000000 -1.000000
vn 0.000000 0.000000 -1.000000
vn -0.987688 0.000000 0.156434
vn -0.987689 0.000000 0.156434
vn -0.987689 0.000000 0.156434
vn -0.987688 0.000000 0.156434
vn -0.987688 0.000000 0.156434
vn -0.987688 0.000000 0.156434
vn -0.891007 0.000000 0.453990
vn -0.891007 0.000000 0.453990
vn -0.891007 0.000000 0.453990
vn -0.891006 0.000000 0.453991
vn -0.891006 0.000000 0.453991
vn -0.891006 0.000000 0.453991
vn -0.891006 0.000000 0.453991
vn -0.891007 0.000000 0.453991
vn -0.891006 0.000000 0.453991
vn -0.860257 -0.063212 0.505927
vn -0.860257 -0.063212 0.505927
vn -0.860257 -0.063212 0.505926
vn -0.763274 0.127795 0.633310
vn -0.763274 0.127795 0.633310
vn -0.763274 0.127795 0.633310
vn -0.707106 0.000000 0.707108
vn -0.707106 0.000000 0.707107
vn -0.707107 0.000000 0.707107
vn -0.707107 0.000000 0.707107
vn -0.707107 0.000000 0.707107
vn -0.707106 0.000000 0.707107
vn -0.707106 0.000000 0.707107
vn -0.707107 0.000000 0.707107
vn -0.707106 0.000000 0.707107
vn -0.891006 0.000000 0.453992
vn -0.891006 0.000000 0.453991
vn -0.891007 0.000000 0.453991
vn -0.891007 0.000000 0.453991
vn -0.891006 0.000000 0.453991
vn -0.891007 0.000000 0.453990
vn -0.156433 0.000000 0.987689
vn -0.156433 0.000000 0.987688
vn -0.156433 0.000000 0.987688
vn -0.156435 0.000000 0.987688
vn -0.156434 0.000000 0.987688
vn -0.156434 0.000000 0.987688
vn -0.156434 -0.000000 0.987689
vn -0.156434 -0.000000 0.987689
vn -0.156434 -0.000000 0.987688
vn 0.604631 0.352248 0.714383
vn 0.604631 0.352248 0.714383
vn 0.604631 0.352248 0.714383
vn 1.000000 0.000000 0.000000
vn 1.000000 0.000000 0.000000
vn 1.000000 0.000000 0.000000
vn 1.000000 0.000000 0.000000
vn 1.000000 0.000000 0.000000
vn 1.000000 0.000000 0.000000
vn 1.000000 0.000000 0.000000
vn 1.000000 0.000000 0.000000
vn 1.000000 0.000000 0.000000
vn 1.000000 0.000000 0.000000
vn 1.000000 0.000000 0.000000
vn 1.000000 0.000000 0.000000
vn -0.156434 0.000000 0.987688
vn -0.156434 0.000000 0.987688
vn -0.156434 0.000000 0.987688
vn -0.156434 0.000001 0.987688
vn -0.156434 0.000000 0.987688
vn -0.156434 0.000000 0.987688
vn -0.156434 0.000000 0.987688
vn -0.156434 0.000000 0.987688
vn -0.156434 0.000000 0.987688
s off
f 10/4/1 29/5/2 9/3/3
f 3/1/4 4/2/5 29/5/6
f 4/2/7 9/3/8 29/5/9
f 11/6/10 12/7/11 1/9/12
f 1/9/13 12/7/14 2/8/15
f 2/8/16 12/7/17 4/2/18
f 4/2/19 12/7/20 9/3/21
f 29/5/22 30/10/23 3/1/24
f 10/4/25 9/3/26 5/12/27
f 5/12/28 9/3/29 6/11/30
f 7/13/31 8/14/32 11/6/33
f 11/6/34 8/14/35 12/7/36
f 9/3/37 12/7/38 6/11/39
f 6/11/40 12/7/41 8/14/42
f 49/16/43 15/17/44 48/15/45
f 48/15/46 15/17/47 25/18/48
f 4/2/49 2/8/50 3/1/51
f 3/1/52 2/8/53 30/10/54
f 2/8/55 1/9/56 30/10/57
f 23/19/58 24/20/59 13/22/60
f 13/22/61 24/20/62 14/21/63
f 14/21/64 24/20/65 16/25/66
f 24/20/67 21/23/68 16/25/69
f 21/23/70 34/24/71 16/25/72
f 48/15/73 50/26/74 49/16/75
f 5/12/76 6/11/77 27/29/78
f 18/27/79 17/28/80 6/11/81
f 6/11/82 17/28/83 27/29/84
f 19/30/85 20/31/86 7/13/87
f 7/13/88 20/31/89 8/14/90
f 42/33/91 5/12/92 38/32/93
f 27/29/94 28/34/95 5/12/96
f 38/32/97 5/12/98 28/34/99
f 32/35/100 33/36/101 21/23/102
f 30/10/103 31/37/104 3/1/105
f 1/9/106 2/8/107 23/19/108
f 23/19/109 2/8/110 24/20/111
f 24/20/112 2/8/113 21/23/114
f 4/2/115 32/35/116 2/8/117
f 21/23/118 2/8/119 32/35/120
f 33/36/121 34/24/122 21/23/123
f 26/38/124 25/18/125 15/17/126
f 38/32/127 28/34/128 40/40/129
f 40/40/130 28/34/131 37/39/132
f 18/27/133 37/39/134 17/28/135
f 28/34/136 17/28/137 37/39/138
f 28/34/139 27/29/140 17/28/141
f 46/42/142 30/10/143 43/41/144
f 10/4/145 43/41/146 29/5/147
f 43/41/148 30/10/149 29/5/150
f 1/9/151 23/19/152 30/10/153
f 22/43/154 31/37/155 23/19/156
f 23/19/157 31/37/158 30/10/159
f 22/43/160 33/36/161 31/37/162
f 33/36/163 32/35/164 31/37/165
f 3/1/166 31/37/167 4/2/168
f 32/35/169 4/2/170 31/37/171
f 22/43/172 26/38/173 33/36/174
f 33/36/175 26/38/176 34/24/177
f 16/25/178 34/24/179 15/17/180
f 26/38/181 15/17/182 34/24/183
f 20/31/184 41/44/185 35/45/186
f 39/46/187 40/40/188 37/39/189
f 39/46/190 8/14/191 35/45/192
f 40/40/193 35/45/194 38/32/195
f 38/32/196 35/45/197 41/44/198
f 35/45/199 40/40/200 39/46/201
f 8/14/202 20/31/203 35/45/204
f 6/11/205 37/39/206 18/27/207
f 39/46/208 6/11/209 8/14/210
f 39/46/211 37/39/212 6/11/213
f 41/44/214 42/33/215 38/32/216
f 36/47/217 7/13/218 42/33/219
f 36/47/220 42/33/221 41/44/222
f 36/47/223 20/31/224 19/30/225
f 36/47/226 41/44/227 20/31/228
f 19/30/229 7/13/230 36/47/231
f 5/12/232 42/33/233 7/13/234
f 7/13/235 44/48/236 5/12/237
f 44/48/238 7/13/239 45/49/240
f 7/13/241 11/6/242 45/49/243
f 44/48/244 46/42/245 43/41/246
f 45/49/247 46/42/248 44/48/249
f 46/42/250 45/49/251 1/9/252
f 11/6/253 1/9/254 45/49/255
f 1/9/256 30/10/257 46/42/258
f 44/48/259 43/41/260 5/12/261
f 5/12/262 43/41/263 10/4/264
f 23/19/265 13/22/266 47/50/267
f 23/19/268 50/26/269 22/43/270
f 23/19/271 47/50/272 50/26/273
f 49/16/274 50/26/275 47/50/276
f 13/22/277 14/21/278 47/50/279
f 47/50/280 14/21/281 49/16/282
f 14/21/283 16/25/284 49/16/285
f 49/16/286 16/25/287 15/17/288
f 50/26/289 48/15/290 22/43/291
f 26/38/292 22/43/293 25/18/294
f 22/43/295 48/15/296 25/18/297
