# This file uses meters as units for non-parametric coordinates.

v 0.000000 0.000000 0.000000
v -25.859428 0.000000 0.000000
v -25.859428 197.193710 0.000000
v -35.792389 234.264023 0.000000
v -62.929714 261.401337 0.000000
v -100.000000 271.334320 0.000000
v -137.070282 261.401337 0.000000
v -164.207611 234.264023 0.000000
v -174.140564 197.193710 0.000000
v -174.140564 0.000000 0.000000
v -200.000000 0.000000 0.000000
v -200.000000 300.000000 0.000000
v 0.000000 300.000000 0.000000
v 0.000000 0.000000 8.000000
v 0.000000 300.000000 8.000000
v -25.859428 0.000000 8.000000
v -174.140564 0.000000 8.000000
v -200.000000 0.000000 8.000000
v -200.000000 300.000000 8.000000
v -174.140564 197.193710 8.000000
v -164.207611 234.264023 8.000000
v -137.070282 261.401337 8.000000
v -100.000000 271.334320 8.000000
v -62.929714 261.401337 8.000000
v -35.792389 234.264023 8.000000
v -25.859428 197.193710 8.000000
v -100.000000 300.000000 8.000000
v -100.000000 300.000000 0.000000
vt 0.247358 0.304954
vt 0.247358 0.304954
vt 0.247358 0.304954
vt 0.247358 0.304954
vt 0.247358 0.304954
vt 0.247358 0.304954
vt 0.247358 0.304954
vt 0.247358 0.304954
vt 0.247358 0.304954
vt 0.247358 0.304954
vt 0.247358 0.304954
vt 0.247358 0.304954
vt 0.247358 0.304954
vt 0.247358 0.304954
vt 0.247358 0.304954
vt 0.247358 0.304954
vt 0.247358 0.304954
vt 0.247358 0.304954
vt 0.247358 0.304954
vt 0.247358 0.304954
vt 0.247358 0.304954
vt 0.247358 0.304954
vt 0.247358 0.304954
vt 0.247358 0.304954
vt 0.247358 0.304954
vt 0.247358 0.304954
vt 0.247358 0.304954
vt 0.247358 0.304954
vt 0.247358 0.304954
vt 0.247358 0.304954
vt 0.247358 0.304954
vt 0.247358 0.304954
vt 0.247358 0.304954
vt 0.247358 0.304954
vt 0.247358 0.304954
vt 0.247358 0.304954
vn 0.000000 0.000000 -1.000000
vn 0.000000 0.000000 -1.000000
vn 0.000000 0.000000 -1.000000
vn 0.000000 0.000000 -1.000000
vn 1.000000 0.000000 0.000000
vn 1.000000 0.000000 0.000000
vn 1.000000 0.000000 0.000000
vn 1.000000 0.000000 0.000000
vn 0.000000 -1.000000 0.000000
vn 0.000000 -1.000000 0.000000
vn 0.000000 -1.000000 0.000000
vn 0.000000 -1.000000 0.000000
vn 0.000000 -1.000000 0.000000
vn 0.000000 -1.000000 0.000000
vn 0.000000 -1.000000 0.000000
vn 0.000000 -1.000000 0.000000
vn -1.000000 0.000000 0.000000
vn -1.000000 0.000000 0.000000
vn -1.000000 0.000000 0.000000
vn -1.000000 0.000000 0.000000
vn 0.000000 1.000000 0.000000
vn 0.000000 1.000000 0.000000
vn 0.000000 1.000000 0.000000
vn 0.000000 1.000000 0.000000
vn 0.000000 0.000000 1.000000
vn 0.000000 0.000000 1.000000
vn 0.000000 0.000000 1.000000
vn 0.000000 0.000000 1.000000
vn 0.000000 1.000000 0.000000
vn 0.000000 1.000000 0.000000
vn 0.000000 1.000000 0.000000
vn 0.000000 1.000000 0.000000
vn 0.000000 0.000000 -1.000000
vn 0.000000 0.000000 -1.000000
vn 0.000000 0.000000 -1.000000
vn 0.000000 0.000000 1.000000
vn 0.000000 0.000000 1.000000
vn 0.000000 0.000000 1.000000
vn 0.000000 0.000000 1.000000
vn 0.000000 0.000000 1.000000
vn 0.000000 0.000000 1.000000
vn 0.000000 0.000000 1.000000
vn 0.000000 0.000000 1.000000
vn 0.000000 0.000000 1.000000
vn 0.000000 0.000000 1.000000
vn 0.000000 0.000000 1.000000
vn 0.000000 0.000000 1.000000
vn 0.000000 0.000000 1.000000
vn 0.000000 0.000000 1.000000
vn 0.000000 0.000000 1.000000
vn 0.000000 0.000000 1.000000
vn 0.000000 0.000000 1.000000
vn 0.000000 0.000000 1.000000
vn 0.000000 0.000000 1.000000
vn 0.000000 0.000000 1.000000
vn 0.000000 0.000000 1.000000
vn 0.000000 0.000000 1.000000
vn 0.000000 0.000000 1.000000
vn 0.000000 0.000000 1.000000
vn 0.000000 0.000000 -1.000000
vn 0.000000 0.000000 -1.000000
vn 0.000000 0.000000 -1.000000
vn 0.000000 0.000000 -1.000000
vn 0.000000 0.000000 -1.000000
vn 0.000000 0.000000 -1.000000
vn 0.000000 0.000000 -1.000000
vn 0.000000 0.000000 -1.000000
vn 0.000000 0.000000 -1.000000
vn 0.000000 0.000000 -1.000000
vn 0.000000 0.000000 -1.000000
vn 0.000000 0.000000 -1.000000
vn 0.000000 0.000000 -1.000000
vn 0.000000 0.000000 -1.000000
vn 0.000000 0.000000 -1.000000
vn 0.000000 0.000000 -1.000000
vn 0.000000 0.000000 -1.000000
vn 0.000000 0.000000 -1.000000
vn 0.000000 0.000000 -1.000000
vn 0.000000 0.000000 -1.000000
vn 0.000000 0.000000 -1.000000
vn -0.999102 -0.042363 0.000000
vn -0.999102 -0.042363 0.000000
vn -0.866025 -0.500000 0.000000
vn -0.866025 -0.500000 0.000000
vn -0.999102 -0.042363 0.000000
vn -1.000000 0.000000 0.000000
vn -1.000000 0.000000 0.000000
vn -0.999102 -0.042363 0.000000
vn -0.866025 -0.500000 0.000000
vn -0.866025 -0.500000 0.000000
vn -0.500000 -0.866025 0.000000
vn -0.500000 -0.866025 0.000000
vn -0.500000 -0.866025 0.000000
vn -0.500000 -0.866025 0.000000
vn 0.000000 -1.000000 0.000000
vn 0.000000 -1.000000 0.000000
vn 0.000000 -1.000000 0.000000
vn 0.000000 -1.000000 0.000000
vn 0.500000 -0.866025 0.000000
vn 0.500000 -0.866025 0.000000
vn 0.500000 -0.866025 0.000000
vn 0.500000 -0.866025 0.000000
vn 0.866026 -0.500000 0.000000
vn 0.866026 -0.500000 0.000000
vn 0.866026 -0.500000 0.000000
vn 0.866026 -0.500000 0.000000
vn 0.999102 -0.042363 0.000000
vn 0.999102 -0.042363 0.000000
vn 0.999102 -0.042363 0.000000
vn 0.999102 -0.042363 0.000000
vn 1.000000 0.000000 0.000000
vn 1.000000 0.000000 0.000000
s off
f 28/36/1 6/6/2 7/7/3 12/12/4
f 14/14/5 1/1/6 13/13/7 15/15/8
f 14/16/9 16/17/10 2/18/11 1/19/12
f 17/20/13 18/21/14 11/22/15 10/23/16
f 11/11/17 18/24/18 19/25/19 12/12/20
f 27/35/21 28/36/22 12/12/23 19/26/24
f 15/27/25 27/35/26 23/31/27 24/32/28
f 13/13/29 28/36/30 27/35/31 15/27/32
f 13/13/33 4/4/34 5/5/35
f 22/30/36 19/26/37 21/29/38
f 23/31/39 27/35/40 19/26/41 22/30/42
f 20/28/43 19/26/44 18/21/45 17/20/46
f 21/29/47 19/26/48 20/28/49
f 15/27/50 25/33/51 26/34/52
f 15/27/53 24/32/54 25/33/55
f 15/27/56 26/34/57 16/17/58 14/16/59
f 12/12/60 8/8/61 9/9/62
f 12/12/63 7/7/64 8/8/65
f 12/12/66 9/9/67 10/10/68 11/11/69
f 13/13/70 5/5/71 6/6/72 28/36/73
f 1/1/74 2/2/75 3/3/76 13/13/77
f 13/13/78 3/3/79 4/4/80
f 3/3/81 26/34/82 25/33/83 4/4/84
f 3/3/85 2/18/86 16/17/87 26/34/88
f 4/4/89 25/33/90 24/32/91 5/5/92
f 5/5/93 24/32/94 23/31/95 6/6/96
f 6/6/97 23/31/98 22/30/99 7/7/100
f 7/7/101 22/30/102 21/29/103 8/8/104
f 8/8/105 21/29/106 20/28/107 9/9/108
f 9/9/109 20/28/110 17/20/111 10/10/112
