# This file uses meters as units for non-parametric coordinates.

v -100.000000 0.000000 95.640839
v -9.927434 0.000000 100.000000
v -99.999992 168.562546 0.000000
v 0.000000 166.782547 0.000000
v -100.000000 0.000000 0.000000
v 0.000000 0.000000 0.000000
v 0.000000 5.284932 95.027679
v 0.000000 0.000000 95.031403
v 0.000000 37.648537 78.238052
v -82.005966 0.000000 100.000000
v -99.999992 3.713222 97.853645
v -82.427490 173.001709 0.000000
v -100.000000 167.285614 3.304071
v 0.000000 169.149353 2.226774
v -7.771505 173.001709 0.000000
v -100.000000 86.773094 49.842636
v -100.000000 64.987419 62.435390
v 0.000000 158.821136 8.196778
v 0.000000 144.901306 16.242846
v -93.108368 81.248337 53.036098
v -3.992124 148.800629 13.988930
v 0.000000 145.081345 7.850721
v -100.000015 67.458000 49.252823
vt 0.247760 0.303287
vt 0.247760 0.303287
vt 0.247760 0.303287
vt 0.247760 0.303287
vt 0.247760 0.303287
vt 0.247760 0.303287
vt 0.247760 0.303287
vt 0.247760 0.303287
vt 0.247760 0.303287
vt 0.247760 0.303287
vt 0.247760 0.303287
vt 0.247760 0.303287
vt 0.247760 0.303287
vt 0.247760 0.303287
vt 0.247760 0.303287
vt 0.247760 0.303287
vt 0.247760 0.303287
vt 0.247760 0.303287
vt 0.247760 0.303287
vt 0.247760 0.303287
vt 0.247760 0.303287
vt 0.247760 0.303287
vt 0.247760 0.303287
vn -0.203741 -0.501182 0.841015
vn -0.203741 -0.501182 0.841015
vn -0.203741 -0.501182 0.841015
vn 0.000000 -1.000000 0.000000
vn 0.000000 -1.000000 0.000000
vn 0.000000 -1.000000 0.000000
vn 0.000000 -1.000000 0.000000
vn 0.000000 -1.000000 0.000000
vn 0.000000 -1.000000 0.000000
vn 0.000000 -1.000000 0.000000
vn 0.000000 -1.000000 0.000000
vn 0.000000 -1.000000 0.000000
vn 0.000000 -1.000000 0.000000
vn 0.000000 -1.000000 0.000000
vn 0.000000 -1.000000 0.000000
vn 0.447566 0.000630 0.894251
vn 0.995102 0.000070 0.098849
vn 0.999911 0.000009 0.013359
vn 1.000000 0.000000 0.000000
vn 1.000000 0.000000 0.000000
vn 1.000000 0.000000 0.000000
vn 1.000000 0.000000 0.000000
vn 1.000000 0.000000 0.000000
vn 1.000000 0.000000 0.000000
vn 1.000000 0.000000 0.000000
vn 1.000000 0.000000 0.000000
vn 1.000000 0.000000 0.000000
vn 0.195595 0.451606 0.870514
vn 0.195595 0.451606 0.870514
vn 0.195595 0.451606 0.870514
vn 0.000001 0.500440 0.865771
vn -0.000000 0.500441 0.865771
vn 0.000000 0.500441 0.865771
vn 0.000000 0.500441 0.865771
vn -0.000000 0.500441 0.865771
vn -0.001492 0.503873 0.863776
vn -0.001492 0.503873 0.863776
vn -0.000000 0.500441 0.865771
vn -0.000998 0.502739 0.864438
vn -0.000000 0.500441 0.865771
vn 0.000000 0.500440 0.865771
vn -0.000998 0.502739 0.864438
vn 0.000000 0.500440 0.865771
vn 0.013638 0.520874 0.853524
vn -0.000998 0.502739 0.864438
vn 0.013638 0.520874 0.853524
vn 0.005246 0.508348 0.861136
vn -0.000998 0.502739 0.864438
vn -1.000000 -0.000001 0.000001
vn -1.000000 -0.000000 0.000000
vn -1.000000 -0.000000 0.000000
vn -1.000000 0.000001 0.000002
vn -1.000000 -0.000000 0.000000
vn -1.000000 0.000000 0.000000
vn -1.000000 -0.000000 0.000000
vn -1.000000 0.000000 0.000000
vn -1.000000 -0.000000 0.000000
vn 0.000000 0.000000 -1.000000
vn 0.000000 0.000000 -1.000000
vn 0.000000 0.000000 -1.000000
vn 0.000000 0.000000 -1.000000
vn 0.000000 0.000000 -1.000000
vn 0.000000 0.000000 -1.000000
vn 0.000000 0.000000 -1.000000
vn 0.000000 0.000000 -1.000000
vn 0.000000 0.000000 -1.000000
vn 0.000000 0.000000 -1.000000
vn 0.000000 0.000000 -1.000000
vn 0.000000 0.000000 -1.000000
vn -0.001492 0.503873 0.863776
vn -0.000998 0.502739 0.864438
vn -0.229353 0.907899 0.350880
vn 0.005246 0.508348 0.861136
vn 0.013638 0.520874 0.853524
vn 0.480812 0.600826 -0.638614
vn -1.000000 0.000000 -0.000002
vn -1.000000 0.000000 -0.000000
vn -1.000000 0.000000 -0.000000
vn -1.000000 0.000000 -0.000000
vn -1.000000 0.000000 -0.000000
vn -1.000000 0.000000 -0.000000
vn -1.000000 0.000000 -0.000000
vn -1.000000 0.000001 -0.000001
vn -1.000000 0.000000 -0.000000
vn -0.438301 -0.027434 0.898409
vn -0.438301 -0.027434 0.898409
vn -0.438301 -0.027434 0.898409
vn 0.834355 -0.013879 0.551053
vn 0.834355 -0.013879 0.551053
vn 0.834355 -0.013879 0.551053
vn -0.000000 0.500440 0.865771
vn 0.000000 0.500441 0.865771
vn -0.000000 0.500441 0.865771
vn -0.000000 0.500441 0.865771
vn 0.000000 0.500441 0.865771
vn -0.000000 0.500441 0.865771
vn 0.000000 0.500441 0.865771
vn 0.000000 0.500441 0.865771
vn -0.000000 0.500441 0.865771
vn 0.000000 0.500441 0.865771
vn -0.000000 0.500441 0.865771
vn -0.000000 0.500441 0.865771
vn -0.000000 0.500441 0.865771
vn 0.000000 0.500441 0.865771
vn -0.000000 0.500441 0.865771
vn 0.000000 0.500441 0.865771
vn 0.000000 0.500441 0.865771
vn -0.000000 0.500441 0.865771
vn 0.995102 0.000070 0.098849
vn 1.000000 0.000000 0.000000
vn 0.999911 0.000009 0.013359
vn 0.999911 0.000009 0.013359
vn 1.000000 0.000000 0.000000
vn 1.000000 0.000000 0.000000
vn 1.000000 0.000000 0.000000
vn 1.000000 0.000000 0.000000
vn 1.000000 0.000000 0.000000
vn 1.000000 0.000000 0.000000
vn 1.000000 0.000000 0.000000
vn 1.000000 0.000000 0.000000
vn -0.900261 0.427900 0.080195
vn -0.900261 0.427900 0.080195
vn -0.900261 0.427900 0.080195
vn 0.694186 0.719631 0.015436
vn 0.694186 0.719631 0.015436
vn 0.694185 0.719631 0.015436
s off
f 1/1/1 10/2/2 11/3/3
f 5/4/4 6/5/5 1/1/6
f 1/1/7 6/5/8 10/2/9
f 8/6/10 2/7/11 6/5/12
f 6/5/13 2/7/14 10/2/15
f 2/7/16 8/6/17 7/8/18
f 14/9/19 18/10/20 4/11/21
f 6/5/22 4/11/23 22/12/24
f 18/10/25 22/12/26 4/11/27
f 9/13/28 2/7/29 7/8/30
f 20/14/31 21/15/32 16/16/33
f 16/16/34 21/15/35 13/17/36
f 13/17/37 21/15/38 12/18/39
f 21/15/40 18/10/41 12/18/42
f 18/10/43 14/9/44 12/18/45
f 14/9/46 15/19/47 12/18/48
f 23/20/49 5/4/50 17/21/51
f 11/3/52 17/21/53 1/1/54
f 5/4/55 1/1/56 17/21/57
f 6/5/58 5/4/59 4/11/60
f 4/11/61 5/4/62 15/19/63
f 3/22/64 12/18/65 5/4/66
f 12/18/67 15/19/68 5/4/69
f 13/17/70 12/18/71 3/22/72
f 15/19/73 14/9/74 4/11/75
f 3/22/76 5/4/77 13/17/78
f 13/17/79 5/4/80 16/16/81
f 5/4/82 23/20/83 16/16/84
f 16/16/85 23/20/86 20/14/87
f 18/10/88 21/15/89 22/12/90
f 21/15/91 20/14/92 19/23/93
f 19/23/94 20/14/95 9/13/96
f 20/14/97 17/21/98 9/13/99
f 17/21/100 11/3/101 9/13/102
f 11/3/103 10/2/104 9/13/105
f 10/2/106 2/7/107 9/13/108
f 8/6/109 6/5/110 7/8/111
f 7/8/112 6/5/113 9/13/114
f 22/12/115 19/23/116 6/5/117
f 6/5/118 19/23/119 9/13/120
f 20/14/121 23/20/122 17/21/123
f 22/12/124 21/15/125 19/23/126
