# This file uses meters as units for non-parametric coordinates.

v -149.991348 0.000000 149.991364
v 50.008648 0.000000 149.991394
v -149.991348 9.833582 149.991318
v 50.008648 3.475564 149.991333
v -149.991348 9.833588 -50.008675
v 37.534386 9.950594 -50.008690
v -149.991348 -0.000001 -50.008629
v 50.008648 0.138538 -50.008621
v 50.008648 9.774733 -36.348190
v 50.008648 7.999981 -50.008652
v 38.992363 9.618047 149.991318
v 50.008648 9.824279 137.583893
v -149.991348 9.932507 16.134674
v -149.991348 0.174580 16.072395
v -149.991348 9.824756 62.684875
v -149.991348 0.174099 68.784996
v -149.991348 4.041359 54.493698
v -133.970963 14.575048 35.622620
v -87.177582 3.191826 149.991364
v -63.411770 9.369980 149.991318
v -50.154362 0.000008 149.991379
v -40.565617 9.642869 149.991302
v -52.970692 8.703289 149.991318
v -64.461502 2.397516 149.991348
v -87.556198 50.466492 12.448078
v -50.008648 75.006210 50.008621
v -53.128460 10.464445 146.748093
vt 0.247760 0.303287
vt 0.247760 0.303287
vt 0.247760 0.303287
vt 0.247760 0.303287
vt 0.247760 0.303287
vt 0.247760 0.303287
vt 0.247760 0.303287
vt 0.247760 0.303287
vt 0.247760 0.303287
vt 0.247760 0.303287
vt 0.247760 0.303287
vt 0.247760 0.303287
vt 0.247760 0.303287
vt 0.247760 0.303287
vt 0.247760 0.303287
vt 0.247760 0.303287
vt 0.247760 0.303287
vt 0.247760 0.303287
vt 0.247760 0.303287
vt 0.247760 0.303287
vt 0.247760 0.303287
vt 0.247760 0.303287
vt 0.247760 0.303287
vt 0.247760 0.303287
vt 0.247760 0.303287
vt 0.247760 0.303287
vt 0.247760 0.303287
vn 0.153237 0.979954 -0.127314
vn 0.153237 0.979954 -0.127314
vn 0.153237 0.979954 -0.127314
vn -1.000000 0.000000 0.000000
vn -1.000000 -0.000000 0.000000
vn -1.000000 -0.000000 0.000000
vn -1.000000 -0.000000 0.000000
vn -1.000000 -0.000000 0.000000
vn -1.000000 -0.000000 0.000000
vn -0.001451 -0.999997 -0.002144
vn -0.001145 -0.999998 -0.001628
vn -0.000320 -1.000000 0.000231
vn -0.001145 -0.999998 -0.001628
vn 0.000214 -0.999999 0.001193
vn -0.000320 -1.000000 0.000231
vn 0.000693 -0.999996 0.002642
vn -0.000320 -1.000000 0.000231
vn 0.000214 -0.999999 0.001193
vn -0.000000 -0.000005 -1.000000
vn 0.000000 -0.000007 -1.000000
vn -0.000000 -0.000005 -1.000000
vn -0.000000 -0.000005 -1.000000
vn 0.000000 -0.000007 -1.000000
vn 0.000000 -0.000007 -1.000000
vn -0.276725 0.960948 -0.001437
vn -0.276725 0.960948 -0.001437
vn -0.276725 0.960948 -0.001437
vn 0.546140 0.837694 -0.000239
vn 0.546140 0.837694 -0.000239
vn 0.546140 0.837694 -0.000239
vn -0.000000 0.000005 1.000000
vn 0.000000 0.000007 1.000000
vn -0.000000 0.000005 1.000000
vn -0.000000 0.000005 1.000000
vn 0.000000 0.000007 1.000000
vn 0.000000 0.000007 1.000000
vn 1.000000 0.000000 0.000000
vn 1.000000 0.000000 0.000000
vn 1.000000 0.000000 0.000000
vn 0.444613 0.797397 0.408017
vn 0.444613 0.797397 0.408017
vn 0.444613 0.797397 0.408017
vn -1.000000 0.000000 0.000000
vn -1.000000 0.000000 0.000000
vn -1.000000 0.000000 0.000000
vn -1.000000 0.000000 0.000000
vn -1.000000 0.000000 0.000000
vn -1.000000 0.000000 0.000000
vn -1.000000 0.000000 0.000000
vn -1.000000 0.000000 0.000000
vn -1.000000 0.000000 0.000000
vn -0.772507 0.518739 -0.366256
vn -0.772507 0.518739 -0.366256
vn -0.772507 0.518739 -0.366256
vn -1.000000 -0.000003 0.000000
vn -1.000000 -0.000003 0.000000
vn -1.000000 -0.000003 0.000000
vn -1.000000 0.000002 0.000000
vn -1.000000 0.000002 0.000000
vn -1.000000 0.000002 0.000000
vn -0.284432 0.958696 -0.000097
vn -0.284432 0.958696 -0.000097
vn -0.284432 0.958696 -0.000097
vn -0.426167 0.894161 0.137324
vn -0.426167 0.894161 0.137325
vn -0.426167 0.894161 0.137325
vn -0.000523 0.838462 -0.544960
vn -0.000777 0.838229 -0.545317
vn -0.000762 0.838243 -0.545297
vn 0.000002 -0.000004 -1.000000
vn 0.000002 -0.000004 -1.000000
vn 0.000002 -0.000004 -1.000000
vn 1.000000 0.000000 0.000000
vn 1.000000 -0.000000 0.000000
vn 1.000000 -0.000000 0.000000
vn 1.000000 -0.000000 0.000000
vn 1.000000 -0.000000 0.000000
vn 1.000000 -0.000000 0.000000
vn 1.000000 -0.000000 0.000000
vn 1.000000 0.000000 0.000000
vn 1.000000 -0.000000 0.000000
vn 0.000001 0.000004 1.000000
vn 0.000000 0.000004 1.000000
vn 0.000000 0.000004 1.000000
vn 0.000000 0.000004 1.000000
vn 0.000000 0.000004 1.000000
vn -0.000001 0.000004 1.000000
vn -0.000001 0.000008 1.000000
vn 0.000001 0.000016 1.000000
vn -0.000000 0.000008 1.000000
vn 0.000001 0.000016 1.000000
vn 0.000001 0.000013 1.000000
vn -0.000000 0.000008 1.000000
vn -0.000000 0.000008 1.000000
vn 0.000001 0.000013 1.000000
vn -0.000000 0.000002 1.000000
vn 0.000000 0.000007 1.000000
vn 0.000001 0.000007 1.000000
vn 0.000001 0.000007 1.000000
vn 0.000001 0.000007 1.000000
vn 0.000001 0.000007 1.000000
vn 0.000002 0.000007 1.000000
vn -0.164697 -0.982832 -0.083164
vn -0.164697 -0.982832 -0.083164
vn -0.164697 -0.982832 -0.083164
vn -0.000000 -1.000000 -0.000693
vn -0.000000 -1.000000 -0.000693
vn -0.000000 -1.000000 -0.000693
vn -0.589648 0.804980 0.065742
vn -0.589648 0.804981 0.065742
vn -0.589648 0.804980 0.065742
vn -0.578173 0.814547 -0.047219
vn -0.580483 0.813711 -0.030225
vn -0.579422 0.814133 -0.038190
vn -0.579422 0.814133 -0.038190
vn -0.580483 0.813711 -0.030225
vn -0.590187 0.804707 0.064238
vn 0.321829 0.897789 0.300668
vn 0.321829 0.897789 0.300668
vn 0.321829 0.897789 0.300668
vn -0.000777 0.838229 -0.545317
vn -0.001293 0.837755 -0.546044
vn -0.000762 0.838243 -0.545297
vn 0.332573 0.896685 -0.292150
vn 0.332573 0.896685 -0.292150
vn 0.332573 0.896685 -0.292150
vn 0.056097 0.878549 0.474347
vn 0.056097 0.878549 0.474347
vn 0.056097 0.878549 0.474347
vn -0.066311 0.875501 0.478646
vn -0.066310 0.875500 0.478646
vn -0.066311 0.875501 0.478646
vn -0.087938 0.829941 0.550876
vn -0.087938 0.829941 0.550876
vn -0.087938 0.829941 0.550876
vn 0.004475 0.835678 0.549202
vn 0.004475 0.835678 0.549202
vn 0.004475 0.835678 0.549202
vn 0.000261 0.837019 0.547174
vn 0.000261 0.837019 0.547174
vn 0.000261 0.837019 0.547174
vn 0.086924 0.827412 0.554828
vn 0.086924 0.827412 0.554828
vn 0.086924 0.827412 0.554828
vn -0.034944 -0.999351 -0.008713
vn -0.034944 -0.999351 -0.008713
vn -0.034944 -0.999351 -0.008713
vn 0.050685 -0.997463 0.049994
vn 0.050685 -0.997463 0.049994
vn 0.050685 -0.997463 0.049994
s off
f 9/2/1 10/3/2 6/1/3
f 15/4/4 16/5/5 3/7/6
f 3/7/7 16/5/8 1/6/9
f 1/6/10 16/5/11 8/9/12
f 16/5/13 14/10/14 8/9/15
f 7/8/16 8/9/17 14/10/18
f 5/11/19 6/1/20 7/8/21
f 7/8/22 6/1/23 8/9/24
f 13/12/25 18/13/26 5/11/27
f 26/26/28 12/18/29 9/2/30
f 1/6/31 19/19/32 3/7/33
f 3/7/34 19/19/35 20/14/36
f 9/2/37 8/9/38 10/3/39
f 12/18/40 11/17/41 4/20/42
f 7/8/43 14/10/44 5/11/45
f 5/11/46 14/10/47 13/12/48
f 16/5/49 15/4/50 17/21/51
f 18/13/52 17/21/53 15/4/54
f 13/12/55 14/10/56 17/21/57
f 17/21/58 14/10/59 16/5/60
f 3/7/61 18/13/62 15/4/63
f 13/12/64 17/21/65 18/13/66
f 5/11/67 25/25/68 6/1/69
f 8/9/70 6/1/71 10/3/72
f 8/9/73 9/2/74 2/22/75
f 2/22/76 9/2/77 4/20/78
f 9/2/79 12/18/80 4/20/81
f 19/19/82 24/23/83 20/14/84
f 20/14/85 24/23/86 23/15/87
f 21/24/88 2/22/89 22/16/90
f 2/22/91 4/20/92 22/16/93
f 22/16/94 4/20/95 11/17/96
f 24/23/97 21/24/98 23/15/99
f 23/15/100 21/24/101 22/16/102
f 24/23/103 8/9/104 21/24/105
f 2/22/106 21/24/107 8/9/108
f 18/13/109 25/25/110 5/11/111
f 3/7/112 26/26/113 18/13/114
f 18/13/115 26/26/116 25/25/117
f 26/26/118 11/17/119 12/18/120
f 25/25/121 26/26/122 6/1/123
f 26/26/124 9/2/125 6/1/126
f 23/15/127 27/27/128 20/14/129
f 22/16/130 27/27/131 23/15/132
f 26/26/133 27/27/134 22/16/135
f 3/7/136 20/14/137 26/26/138
f 26/26/139 22/16/140 11/17/141
f 26/26/142 20/14/143 27/27/144
f 19/19/145 8/9/146 24/23/147
f 1/6/148 8/9/149 19/19/150
