# This file uses meters as units for non-parametric coordinates.

v -498.278748 0.000000 0.191391
v -500.000000 0.000000 9.068028
v -486.106293 300.000000 0.000000
v -498.549316 300.000000 9.055952
v 0.000000 300.000000 2.256458
v 0.000000 300.000000 7.165419
v 0.000000 0.000000 0.000000
v 0.000000 0.000000 7.074141
v 0.000000 139.099564 10.000000
v -499.999939 90.149109 10.000000
v -500.000000 122.062531 10.000000
v 0.000000 185.084259 10.000000
v -7.747133 300.000000 10.000000
v 0.000000 288.750763 10.000000
v -500.000000 293.119171 0.000000
v -500.000000 300.000000 1.685767
v -6.610740 0.000000 9.999999
v 0.000000 7.978776 10.000000
v -497.033264 106.779572 0.000000
v -500.000000 106.450760 5.824149
v -497.047852 113.935837 10.000000
v -7.620597 157.416504 10.000000
v -1.947901 182.807220 0.000000
v 0.000000 169.207733 5.213526
v -500.000000 295.871155 10.000000
v -484.330688 3.549074 10.000000
v -449.529114 0.000000 0.000000
v -499.344055 8.013618 0.000000
v -3.460340 78.588890 0.000000
v -3.017821 108.164658 0.000000
v -7.715153 97.088493 0.000000
v -1.773604 96.425751 1.789785
v -1.296919 296.199341 0.000000
v -500.000000 228.892181 10.000000
v -500.000000 259.759003 8.378704
v -500.000000 269.288574 10.000000
v -497.151367 256.883545 10.000000
v -380.816132 300.000000 9.296357
v -186.705765 300.000000 9.662468
v -168.130630 288.440887 10.000000
v -150.894730 300.000000 9.717485
v -175.090744 300.000000 5.538504
vt 0.247760 0.303287
vt 0.247760 0.303287
vt 0.247760 0.303287
vt 0.247760 0.303287
vt 0.247760 0.303287
vt 0.247760 0.303287
vt 0.247760 0.303287
vt 0.247760 0.303287
vt 0.247760 0.303287
vt 0.247760 0.303287
vt 0.247760 0.303287
vt 0.247760 0.303287
vt 0.247760 0.303287
vt 0.247760 0.303287
vt 0.247760 0.303287
vt 0.247760 0.303287
vt 0.247760 0.303287
vt 0.247760 0.303287
vt 0.247760 0.303287
vt 0.247760 0.303287
vt 0.247760 0.303287
vt 0.247760 0.303287
vt 0.247760 0.303287
vt 0.247760 0.303287
vt 0.247760 0.303287
vt 0.247760 0.303287
vt 0.247760 0.303287
vt 0.247760 0.303287
vt 0.247760 0.303287
vt 0.247760 0.303287
vt 0.247760 0.303287
vt 0.247760 0.303287
vt 0.247760 0.303287
vt 0.247760 0.303287
vt 0.247760 0.303287
vt 0.247760 0.303287
vt 0.247760 0.303287
vt 0.247760 0.303287
vt 0.247760 0.303287
vt 0.247760 0.303287
vt 0.247760 0.303287
vt 0.247760 0.303287
vn -0.117038 0.236321 -0.964601
vn -0.117038 0.236321 -0.964601
vn -0.117038 0.236321 -0.964601
vn 0.000000 1.000000 -0.000009
vn 0.000000 1.000000 -0.000008
vn 0.000000 1.000000 -0.000009
vn 0.000000 1.000000 -0.000009
vn 0.000000 1.000000 -0.000008
vn 0.000000 1.000000 0.000005
vn 0.000000 1.000000 -0.000008
vn 0.000000 1.000000 -0.000009
vn 0.000000 1.000000 0.000005
vn 0.976962 0.061601 -0.204329
vn 0.981709 -0.003864 -0.190347
vn 0.981836 -0.007283 -0.189594
vn 0.982011 -0.012695 -0.188395
vn 0.981836 -0.007283 -0.189594
vn 0.981709 -0.003864 -0.190347
vn 0.000000 -1.000000 0.000000
vn 0.000000 -1.000000 0.000000
vn 0.000000 -1.000000 0.000000
vn 0.000000 0.000000 1.000000
vn 0.000000 0.000000 1.000000
vn 0.000000 0.000000 1.000000
vn 0.000000 0.000000 1.000000
vn 0.000000 0.000000 1.000000
vn 0.000000 0.000000 1.000000
vn 0.000000 0.000000 -1.000000
vn 0.000000 0.000000 -1.000000
vn 0.000000 0.000000 -1.000000
vn 0.000000 0.000000 -1.000000
vn 0.000000 0.000000 -1.000000
vn 0.000000 0.000000 -1.000000
vn 0.334375 0.230278 0.913874
vn 0.334375 0.230278 0.913874
vn 0.334375 0.230278 0.913874
vn -0.997441 0.000740 -0.071497
vn -0.999694 -0.005035 -0.024217
vn -0.997502 0.000635 -0.070633
vn -0.997502 0.000635 -0.070633
vn -0.999694 -0.005035 -0.024217
vn -0.999762 -0.005413 -0.021115
vn 0.383724 -0.317931 0.866992
vn 0.383724 -0.317931 0.866992
vn 0.383724 -0.317931 0.866992
vn -0.579634 -0.210568 0.787201
vn -0.579634 -0.210568 0.787201
vn -0.579635 -0.210568 0.787201
vn -0.890643 -0.014180 -0.454481
vn -0.890643 -0.014180 -0.454481
vn -0.890643 -0.014180 -0.454481
vn -0.891339 0.020854 -0.452858
vn -0.891339 0.020854 -0.452858
vn -0.891339 0.020854 -0.452858
vn -1.000000 -0.000002 0.000000
vn -0.986409 0.147162 0.073080
vn -0.997841 0.058829 0.029215
vn -0.997841 0.058829 0.029215
vn -0.986409 0.147162 0.073080
vn -0.914455 0.362458 0.179993
vn -0.894376 0.110999 0.433325
vn -0.894376 0.110999 0.433325
vn -0.894376 0.110999 0.433325
vn 0.977453 0.000000 -0.211153
vn 0.977453 0.000000 -0.211153
vn 0.977453 0.000000 -0.211153
vn 0.723476 -0.199269 0.660965
vn 0.723476 -0.199269 0.660965
vn 0.723476 -0.199269 0.660965
vn 0.353072 0.146893 0.923993
vn 0.353072 0.146893 0.923993
vn 0.353072 0.146893 0.923993
vn 0.000000 0.000000 1.000000
vn 0.000000 0.000000 1.000000
vn 0.000000 0.000000 1.000000
vn 0.000000 0.000000 1.000000
vn 0.000000 0.000000 1.000000
vn 0.000000 0.000000 1.000000
vn 0.000000 0.000000 1.000000
vn 0.000000 0.000000 1.000000
vn 0.000000 0.000000 1.000000
vn -1.000000 0.000001 0.000000
vn -1.000000 0.000000 0.000000
vn -1.000000 0.000001 0.000000
vn -1.000000 0.000001 0.000000
vn -1.000000 0.000000 0.000000
vn -1.000000 0.000000 0.000000
vn -0.057040 -0.010321 0.998319
vn -0.057040 -0.010321 0.998319
vn -0.057040 -0.010321 0.998319
vn -0.001831 -0.246415 0.969163
vn -0.001831 -0.246415 0.969163
vn -0.001831 -0.246416 0.969163
vn 0.003994 0.509495 -0.860464
vn 0.003994 0.509495 -0.860464
vn 0.003994 0.509495 -0.860464
vn -0.003925 -0.024398 -0.999695
vn -0.003925 -0.024398 -0.999695
vn -0.003925 -0.024398 -0.999695
vn -0.972881 -0.133843 -0.188650
vn -0.972881 -0.133843 -0.188650
vn -0.972881 -0.133843 -0.188650
vn 0.000000 0.000000 -1.000000
vn 0.000000 0.000000 -1.000000
vn 0.000000 0.000000 -1.000000
vn 0.274540 -0.116431 -0.954501
vn 0.274540 -0.116431 -0.954501
vn 0.274540 -0.116431 -0.954501
vn 0.294690 0.067777 -0.953186
vn 0.294690 0.067777 -0.953186
vn 0.294690 0.067777 -0.953186
vn 0.924841 -0.013257 -0.380123
vn 0.931320 -0.014963 -0.363895
vn 0.932180 0.023059 -0.361259
vn 0.931320 -0.014963 -0.363895
vn 0.978885 -0.030138 -0.202179
vn 0.932180 0.023059 -0.361259
vn 0.978885 -0.030138 -0.202179
vn 0.918736 0.037444 -0.393092
vn 0.932180 0.023059 -0.361259
vn 0.859614 -0.030109 -0.510056
vn 0.993728 0.033594 -0.106659
vn 0.862724 -0.029217 -0.504830
vn 0.862724 -0.029217 -0.504830
vn 0.993728 0.033594 -0.106659
vn 0.994769 0.035168 -0.095903
vn 0.000000 0.000000 -1.000000
vn 0.000000 0.000000 -1.000000
vn 0.000000 0.000000 -1.000000
vn 0.000000 0.000000 -1.000000
vn 0.000000 0.000000 -1.000000
vn 0.000000 0.000000 -1.000000
vn 0.000000 0.000000 -1.000000
vn 0.000000 0.000000 -1.000000
vn 0.000000 0.000000 -1.000000
vn 0.000000 0.000000 -1.000000
vn 0.000000 0.000000 -1.000000
vn 0.000000 0.000000 -1.000000
vn 0.000000 0.000000 -1.000000
vn 0.000000 0.000000 -1.000000
vn 0.000000 0.000000 -1.000000
vn 1.000000 0.000000 0.000000
vn 1.000000 0.000000 0.000000
vn 1.000000 0.000000 0.000000
vn 1.000000 0.000000 0.000000
vn 1.000000 0.000000 0.000000
vn 1.000000 0.000000 0.000000
vn 0.870600 -0.004998 -0.491966
vn 0.870600 -0.004998 -0.491966
vn 0.870600 -0.004998 -0.491966
vn 0.000000 0.000000 -1.000000
vn 0.000000 0.000000 -1.000000
vn 0.000000 0.000000 -1.000000
vn 0.000000 -1.000000 0.000000
vn 0.000000 -1.000000 0.000000
vn 0.000000 -1.000000 0.000000
vn 0.000000 -1.000000 0.000000
vn 0.000000 -1.000000 0.000000
vn 0.000000 -1.000000 0.000000
vn 0.000000 -1.000000 0.000000
vn 0.000000 -1.000000 0.000000
vn 0.000000 -1.000000 0.000000
vn 0.000000 -0.000000 1.000000
vn 0.000000 -0.000000 1.000000
vn 0.000000 -0.000000 1.000000
vn 0.000000 -0.000000 1.000000
vn 0.000000 -0.000000 1.000000
vn 0.000000 0.000000 1.000000
vn 0.000000 0.000000 1.000000
vn 0.000000 0.000000 1.000000
vn 0.000000 0.000000 1.000000
vn -0.458143 0.046624 0.887655
vn -0.458143 0.046624 0.887655
vn -0.458143 0.046624 0.887655
vn -0.589817 -0.135441 0.796098
vn -0.589817 -0.135441 0.796098
vn -0.589817 -0.135441 0.796098
vn -1.000000 0.000000 0.000000
vn -1.000000 0.000000 0.000000
vn -1.000000 0.000000 0.000000
vn -1.000000 0.000000 0.000000
vn -1.000000 0.000000 0.000000
vn -1.000000 0.000000 0.000000
vn -1.000000 0.000000 0.000000
vn -1.000000 0.000000 0.000000
vn -1.000000 0.000000 0.000000
vn 0.000000 0.000000 1.000000
vn 0.000000 0.000000 1.000000
vn 0.000000 0.000000 1.000000
vn 0.000000 0.000000 1.000000
vn 0.000000 0.000000 1.000000
vn 0.000000 0.000000 1.000000
vn 0.000000 0.000000 1.000000
vn 0.000000 0.000000 1.000000
vn 0.000000 0.000000 1.000000
vn 0.000000 0.000000 1.000000
vn 0.000000 0.000000 1.000000
vn 0.000000 0.000000 1.000000
vn -0.001990 0.223556 0.974689
vn -0.001990 0.223556 0.974689
vn -0.001990 0.223556 0.974689
vn 0.999032 0.043988 0.000000
vn 0.999032 0.043988 0.000000
vn 0.999032 0.043988 0.000000
vn 0.002305 0.102968 0.994682
vn -0.001632 0.030820 0.999524
vn 0.002233 0.101643 0.994818
vn 0.002233 0.101643 0.994818
vn -0.001632 0.030820 0.999524
vn -0.001885 0.026161 0.999656
vn 0.007838 0.012750 0.999888
vn -0.001714 0.000199 0.999999
vn 0.001931 0.004994 0.999986
vn 0.001931 0.004994 0.999986
vn -0.001714 0.000199 0.999999
vn -0.001943 -0.000131 0.999998
vn -0.001714 0.000199 0.999999
vn 0.000000 0.000000 1.000000
vn -0.001943 -0.000131 0.999998
vn -0.163982 0.267720 0.949440
vn -0.163982 0.267720 0.949440
vn -0.163982 0.267720 0.949440
vn 0.000000 1.000000 0.000000
vn 0.000000 1.000000 -0.000000
vn 0.000000 1.000000 0.000000
vn 0.000000 1.000000 0.000000
vn 0.000000 1.000000 -0.000000
vn 0.000000 1.000000 -0.000002
vn 0.000000 1.000000 -0.000000
vn 0.000000 1.000000 -0.000019
vn 0.000000 1.000000 -0.000002
vn 0.000000 1.000000 -0.000004
vn 0.000000 1.000000 0.000026
vn 0.000000 1.000000 -0.000004
vn 0.000000 1.000000 -0.000004
vn 0.000000 1.000000 0.000026
vn 0.000000 1.000000 0.000026
vn 0.291286 0.492043 0.820394
vn 0.291286 0.492043 0.820394
vn 0.291286 0.492043 0.820394
s off
f 15/1/1 16/2/2 3/3/3
f 42/4/4 16/2/5 39/7/6
f 39/7/7 16/2/8 38/6/9
f 16/2/10 4/5/11 38/6/12
f 24/10/13 23/11/14 12/9/15
f 5/8/16 12/9/17 23/11/18
f 27/12/19 2/13/20 1/14/21
f 21/18/22 10/15/23 22/17/24
f 10/15/25 26/16/26 22/17/27
f 28/20/28 19/21/29 27/12/30
f 7/19/31 27/12/32 19/21/33
f 13/22/34 14/23/35 6/24/36
f 2/13/37 10/15/38 28/20/39
f 28/20/40 10/15/41 20/25/42
f 18/26/43 17/27/44 8/28/45
f 11/29/46 20/25/47 21/18/48
f 19/21/49 20/25/50 15/1/51
f 28/20/52 20/25/53 19/21/54
f 15/1/55 25/30/56 16/2/57
f 16/2/58 25/30/59 4/5/60
f 21/18/61 20/25/62 10/15/63
f 9/31/64 18/26/65 32/32/66
f 22/17/67 24/10/68 12/9/69
f 9/31/70 24/10/71 22/17/72
f 25/30/73 36/34/74 40/33/75
f 36/34/76 37/35/77 40/33/78
f 12/9/79 40/33/80 37/35/81
f 35/36/82 20/25/83 34/37/84
f 34/37/85 20/25/86 11/29/87
f 2/13/88 26/16/89 10/15/90
f 2/13/91 17/27/92 26/16/93
f 33/38/94 3/3/95 5/8/96
f 28/20/97 27/12/98 1/14/99
f 1/14/100 2/13/101 28/20/102
f 29/39/103 19/21/104 31/40/105
f 32/32/106 31/40/107 30/41/108
f 29/39/109 31/40/110 32/32/111
f 23/11/112 24/10/113 30/41/114
f 24/10/115 9/31/116 30/41/117
f 9/31/118 32/32/119 30/41/120
f 32/32/121 18/26/122 29/39/123
f 29/39/124 18/26/125 8/28/126
f 7/19/127 19/21/128 29/39/129
f 30/41/130 31/40/131 15/1/132
f 31/40/133 19/21/134 15/1/135
f 15/1/136 3/3/137 23/11/138
f 23/11/139 3/3/140 33/38/141
f 5/8/142 6/24/143 12/9/144
f 6/24/145 14/23/146 12/9/147
f 5/8/148 23/11/149 33/38/150
f 30/41/151 15/1/152 23/11/153
f 7/19/154 8/28/155 27/12/156
f 8/28/157 17/27/158 27/12/159
f 27/12/160 17/27/161 2/13/162
f 26/16/163 17/27/164 9/31/165
f 9/31/166 17/27/167 18/26/168
f 22/17/169 26/16/170 9/31/171
f 34/37/172 37/35/173 35/36/174
f 35/36/175 37/35/176 36/34/177
f 35/36/178 36/34/179 15/1/180
f 15/1/181 36/34/182 25/30/183
f 15/1/184 20/25/185 35/36/186
f 12/9/187 37/35/188 22/17/189
f 37/35/190 34/37/191 22/17/192
f 21/18/193 22/17/194 11/29/195
f 11/29/196 22/17/197 34/37/198
f 25/30/199 38/6/200 4/5/201
f 29/39/202 8/28/203 7/19/204
f 25/30/205 40/33/206 38/6/207
f 38/6/208 40/33/209 39/7/210
f 40/33/211 12/9/212 41/42/213
f 41/42/214 12/9/215 13/22/216
f 12/9/217 14/23/218 13/22/219
f 41/42/220 42/4/221 40/33/222
f 42/4/223 41/42/224 5/8/225
f 5/8/226 41/42/227 6/24/228
f 41/42/229 13/22/230 6/24/231
f 5/8/232 3/3/233 42/4/234
f 42/4/235 3/3/236 16/2/237
f 40/33/238 42/4/239 39/7/240
