# This file uses meters as units for non-parametric coordinates.

v -100.000000 49.948872 0.000000
v 0.000000 49.948872 0.000000
v -100.000000 0.000000 100.000000
v 0.000000 0.000000 100.000000
v -100.000000 13.400299 75.000000
v 0.000000 13.400299 75.000000
v -100.000000 25.583155 50.000000
v 0.000000 25.583155 50.000000
v -100.000000 37.766010 25.000000
v 0.000000 37.766010 25.000000
v 0.000000 49.948872 17.769060
v -100.000000 49.948872 25.000000
v 0.000000 37.766010 50.000000
v -100.000000 37.766010 31.163763
v 0.000000 25.583155 75.000000
v -94.426430 25.583155 75.000000
v 0.000000 7.104749 100.000000
v -100.000000 13.400299 100.000000
v -6.150900 13.400299 100.000000
v 0.000000 13.400299 95.734161
v -100.000000 25.583155 68.416672
v -100.000000 20.164507 75.000000
v -14.313089 49.948872 25.000000
v 0.000000 44.806065 25.000000
v 0.000000 0.000000 0.000000
v -100.000000 0.000000 0.000000
v -63.754009 37.766010 50.000000
v -36.843369 32.623611 50.000000
v -21.607595 37.766010 50.000000
v -41.458328 37.766014 41.257149
v -100.000000 31.899963 50.000000
v -94.645119 37.766010 50.000000
vt 0.247760 0.303287
vt 0.247760 0.303287
vt 0.247760 0.303287
vt 0.247760 0.303287
vt 0.247760 0.303287
vt 0.247760 0.303287
vt 0.247760 0.303287
vt 0.247760 0.303287
vt 0.247760 0.303287
vt 0.247760 0.303287
vt 0.247760 0.303287
vt 0.247760 0.303287
vt 0.247760 0.303287
vt 0.247760 0.303287
vt 0.247760 0.303287
vt 0.247760 0.303287
vt 0.247760 0.303287
vt 0.247760 0.303287
vt 0.247760 0.303287
vt 0.247760 0.303287
vt 0.247760 0.303287
vt 0.247760 0.303287
vt 0.247760 0.303287
vt 0.247760 0.303287
vt 0.247760 0.303287
vt 0.247760 0.303287
vt 0.247760 0.303287
vt 0.247760 0.303287
vt 0.247760 0.303287
vt 0.247760 0.303287
vt 0.247760 0.303287
vt 0.247760 0.303287
vt 0.247760 0.303287
vt 0.247760 0.303287
vt 0.247760 0.303287
vt 0.247760 0.303287
vn 0.000000 1.000000 0.000000
vn 0.000000 1.000000 0.000000
vn 0.000000 1.000000 0.000000
vn 0.000000 1.000000 0.000000
vn 0.000000 1.000000 0.000000
vn 0.000000 1.000000 0.000000
vn 0.000000 1.000000 0.000000
vn 0.000000 1.000000 0.000000
vn 0.000000 1.000000 0.000000
vn -1.000000 0.000000 0.000000
vn -1.000000 0.000000 0.000000
vn -1.000000 0.000000 0.000000
vn 0.000000 0.000000 1.000000
vn 0.000000 0.000000 1.000000
vn 0.000000 0.000000 1.000000
vn 0.000000 0.000000 1.000000
vn 0.000000 0.000000 1.000000
vn 0.000000 0.000000 1.000000
vn 0.000000 0.000000 1.000000
vn 0.000000 0.000000 1.000000
vn 0.000000 0.000000 1.000000
vn 0.169300 0.885965 0.431744
vn 0.169300 0.885965 0.431744
vn 0.169300 0.885965 0.431744
vn 0.281006 0.782076 0.556230
vn 0.281006 0.782076 0.556230
vn 0.281006 0.782076 0.556230
vn -0.000000 1.000000 0.000000
vn -0.000000 1.000000 0.000000
vn -0.000000 1.000000 0.000000
vn -0.000000 1.000000 0.000000
vn 0.000000 1.000000 0.000000
vn -0.000000 1.000000 0.000000
vn 0.000000 1.000000 0.000000
vn 0.000000 1.000000 0.000000
vn -0.000000 1.000000 0.000000
vn 0.000000 1.000000 0.000000
vn 0.000000 1.000000 -0.000000
vn 0.000000 1.000000 -0.000000
vn 0.000000 1.000000 0.000000
vn 0.000000 1.000000 -0.000000
vn 0.000000 1.000000 -0.000000
vn 0.000000 1.000000 -0.000000
vn 0.000000 1.000000 -0.000000
vn 0.000000 1.000000 -0.000000
vn 0.000000 1.000000 0.000000
vn 0.000000 1.000000 0.000000
vn 0.000000 1.000000 0.000000
vn 0.000000 1.000000 0.000000
vn 0.000000 1.000000 0.000000
vn 0.000000 1.000000 0.000000
vn 0.000000 1.000000 0.000000
vn 0.000000 1.000000 0.000000
vn 0.000000 1.000000 0.000000
vn 1.000000 0.000000 0.000000
vn 1.000000 0.000000 0.000000
vn 1.000000 0.000000 0.000000
vn 1.000000 0.000000 0.000000
vn 1.000000 0.000000 0.000000
vn 1.000000 0.000000 0.000000
vn 1.000000 0.000000 0.000000
vn 1.000000 0.000000 0.000000
vn 1.000000 0.000000 0.000000
vn 1.000000 0.000000 0.000000
vn 1.000000 0.000000 0.000000
vn 1.000000 0.000000 0.000000
vn -1.000000 0.000000 0.000000
vn -1.000000 0.000000 0.000000
vn -1.000000 0.000000 0.000000
vn -0.600325 0.617491 0.508247
vn -0.600325 0.617491 0.508247
vn -0.600325 0.617491 0.508247
vn -1.000000 0.000002 0.000000
vn -1.000000 0.000000 0.000000
vn -1.000000 0.000001 0.000000
vn -1.000000 0.000001 0.000000
vn -1.000000 0.000000 0.000000
vn -1.000000 0.000000 0.000000
vn -1.000000 0.000000 0.000000
vn -1.000000 0.000000 0.000000
vn -1.000000 0.000000 0.000000
vn -1.000000 0.000000 0.000000
vn -1.000000 0.000000 0.000000
vn -1.000000 0.000000 0.000000
vn -1.000000 0.000000 0.000000
vn -1.000000 0.000000 0.000000
vn -1.000000 0.000000 0.000000
vn -1.000000 0.000000 0.000000
vn -1.000000 0.000000 0.000000
vn -1.000000 0.000000 0.000000
vn 0.000000 0.000000 1.000000
vn 0.000000 0.000000 1.000000
vn 0.000000 0.000000 1.000000
vn 0.000000 0.000000 1.000000
vn 0.000000 0.000000 1.000000
vn 0.000000 0.000000 1.000000
vn 0.000000 0.000000 1.000000
vn 0.000000 0.000000 1.000000
vn 0.000000 0.000000 1.000000
vn 1.000000 0.000000 0.000000
vn 1.000000 0.000000 0.000000
vn 1.000000 0.000000 0.000000
vn 1.000000 0.000000 0.000000
vn 1.000000 0.000000 0.000000
vn 1.000000 0.000000 0.000000
vn 0.497911 0.486470 0.717936
vn 0.497911 0.486470 0.717936
vn 0.497911 0.486470 0.717936
vn -1.000000 0.000000 0.000000
vn -1.000000 0.000000 0.000000
vn -1.000000 0.000000 0.000000
vn -1.000000 0.000000 0.000000
vn -1.000000 0.000000 0.000000
vn -1.000000 0.000000 0.000000
vn 0.000000 0.000000 1.000000
vn 0.000000 0.000000 1.000000
vn 0.000000 0.000000 1.000000
vn 0.000000 0.000000 1.000000
vn 0.000000 0.000000 1.000000
vn 0.000000 0.000000 1.000000
vn 0.000000 0.000000 1.000000
vn 0.000000 0.000000 1.000000
vn 0.000000 0.000000 1.000000
vn 1.000000 0.000000 0.000000
vn 1.000000 0.000000 0.000000
vn 1.000000 0.000000 0.000000
vn 1.000000 0.000000 0.000000
vn 1.000000 0.000000 0.000000
vn 1.000000 0.000000 0.000000
vn 1.000000 0.000000 0.000000
vn 1.000000 0.000000 0.000000
vn 1.000000 0.000000 0.000000
vn 1.000000 0.000000 0.000000
vn 1.000000 0.000000 0.000000
vn 1.000000 0.000000 0.000000
vn 0.000000 -1.000000 0.000000
vn 0.000000 -1.000000 0.000000
vn 0.000000 -1.000000 0.000000
vn 0.000000 -1.000000 0.000000
vn 0.000000 -1.000000 0.000000
vn 0.000000 -1.000000 0.000000
vn 0.000000 0.000000 -1.000000
vn 0.000000 0.000000 -1.000000
vn 0.000000 0.000000 -1.000000
vn 0.000000 0.000000 -1.000000
vn 0.000000 0.000000 -1.000000
vn 0.000000 0.000000 -1.000000
vn 0.000000 0.000000 1.000000
vn 0.000000 0.000000 1.000000
vn 0.000000 0.000000 1.000000
vn 0.000000 0.000000 1.000000
vn 0.000000 0.000000 1.000000
vn 0.000000 0.000000 1.000000
vn 0.000000 0.000000 1.000000
vn 0.000000 0.000000 1.000000
vn 0.000000 0.000000 1.000000
vn 0.000000 1.000000 0.000000
vn 0.000000 1.000000 0.000000
vn 0.000000 1.000000 0.000000
vn 0.000000 1.000000 0.000000
vn 0.000000 1.000000 0.000000
vn 0.000000 1.000000 0.000000
vn -0.258775 0.766692 0.587553
vn -0.258775 0.766692 0.587553
vn -0.258775 0.766692 0.587553
vn 0.000000 1.000000 -0.000000
vn 0.000000 1.000000 -0.000000
vn 0.000000 1.000000 -0.000000
vn -0.722793 0.659810 0.205480
vn -0.722793 0.659810 0.205480
vn -0.722793 0.659810 0.205480
vn 0.000000 0.000000 1.000000
vn 0.000000 0.000000 1.000000
vn 0.000000 0.000000 1.000000
vn 0.000000 0.000000 1.000000
vn 0.000000 0.000000 1.000000
vn 0.000000 0.000000 1.000000
vn 0.000000 0.000000 1.000000
vn 0.000000 0.000000 1.000000
vn 0.000000 0.000000 1.000000
s off
f 2/17/1 1/18/2 11/2/3
f 11/2/4 1/18/5 23/23/6
f 1/18/7 12/1/8 23/23/9
f 5/6/10 3/4/11 18/7/12
f 15/9/13 16/10/14 6/5/15
f 5/6/16 6/5/17 22/22/18
f 16/10/19 22/22/20 6/5/21
f 27/31/22 28/32/23 30/34/24
f 11/2/25 23/23/26 24/24/27
f 30/34/28 9/15/29 27/31/30
f 9/15/31 14/12/32 27/31/33
f 14/12/34 32/36/35 27/31/36
f 15/9/37 8/14/38 16/10/39
f 7/13/40 21/21/41 8/14/42
f 16/10/43 8/14/44 21/21/45
f 18/7/46 19/19/47 5/6/48
f 6/5/49 5/6/50 20/20/51
f 19/19/52 20/20/53 5/6/54
f 2/17/55 11/2/56 10/16/57
f 10/16/58 11/2/59 24/24/60
f 8/14/61 10/16/62 13/11/63
f 6/5/64 8/14/65 15/9/66
f 1/18/67 9/15/68 12/1/69
f 21/21/70 22/22/71 16/10/72
f 9/15/73 7/13/74 14/12/75
f 14/12/76 7/13/77 31/35/78
f 26/26/79 7/13/80 9/15/81
f 26/26/82 3/4/83 5/6/84
f 26/26/85 5/6/86 7/13/87
f 1/18/88 26/26/89 9/15/90
f 3/4/91 4/3/92 18/7/93
f 4/3/94 17/8/95 18/7/96
f 17/8/97 19/19/98 18/7/99
f 4/3/100 6/5/101 17/8/102
f 6/5/103 20/20/104 17/8/105
f 20/20/106 19/19/107 17/8/108
f 7/13/109 5/6/110 21/21/111
f 21/21/112 5/6/113 22/22/114
f 12/1/115 9/15/116 23/23/117
f 10/16/118 24/24/119 9/15/120
f 24/24/121 23/23/122 9/15/123
f 10/16/124 25/25/125 2/17/126
f 25/25/127 10/16/128 8/14/129
f 25/25/130 8/14/131 6/5/132
f 25/25/133 6/5/134 4/3/135
f 26/28/136 25/27/137 3/30/138
f 3/30/139 25/27/140 4/29/141
f 2/17/142 25/27/143 1/18/144
f 1/18/145 25/27/146 26/28/147
f 8/14/148 28/32/149 7/13/150
f 13/11/151 29/33/152 8/14/153
f 8/14/154 29/33/155 28/32/156
f 30/34/157 29/33/158 10/16/159
f 10/16/160 29/33/161 13/11/162
f 28/32/163 29/33/164 30/34/165
f 9/15/166 30/34/167 10/16/168
f 31/35/169 32/36/170 14/12/171
f 28/32/172 27/31/173 7/13/174
f 7/13/175 27/31/176 31/35/177
f 27/31/178 32/36/179 31/35/180
