# This file uses meters as units for non-parametric coordinates.

v -100.000000 0.000000 92.170670
v 0.000000 0.000000 95.417473
v -100.000000 51.073860 0.000000
v 0.000000 55.005161 0.000000
v -100.000000 0.000000 0.000000
v 0.000000 0.000000 0.000000
v -92.896561 57.703732 0.000000
v -100.000000 54.031193 6.364482
v 0.000000 55.139118 4.444456
v -4.254848 57.703732 0.000000
v -96.660980 0.000000 100.000000
v -100.000000 2.070071 96.412590
v -42.747185 57.703732 0.000000
v -68.286507 57.703732 0.000000
v -55.405704 55.078930 4.548760
v -54.284142 52.031445 0.000000
v 0.000000 3.121653 94.590210
v -11.151469 0.000000 100.000000
v 0.000000 12.277599 78.723045
v 0.000000 19.787025 65.709282
v 0.000000 10.659786 68.349747
v -5.090752 16.210243 71.907806
vt 0.247760 0.303287
vt 0.247760 0.303287
vt 0.247760 0.303287
vt 0.247760 0.303287
vt 0.247760 0.303287
vt 0.247760 0.303287
vt 0.247760 0.303287
vt 0.247760 0.303287
vt 0.247760 0.303287
vt 0.247760 0.303287
vt 0.247760 0.303287
vt 0.247760 0.303287
vt 0.247760 0.303287
vt 0.247760 0.303287
vt 0.247760 0.303287
vt 0.247760 0.303287
vt 0.247760 0.303287
vt 0.247760 0.303287
vt 0.247760 0.303287
vt 0.247760 0.303287
vt 0.247760 0.303287
vt 0.247760 0.303287
vn -0.716921 -0.626531 0.305749
vn -0.716921 -0.626531 0.305749
vn -0.716921 -0.626531 0.305749
vn 0.000000 -1.000000 0.000000
vn 0.000000 -1.000000 0.000000
vn 0.000000 -1.000000 0.000000
vn 0.000000 -1.000000 0.000000
vn 0.000000 -1.000000 0.000000
vn 0.000000 -1.000000 0.000000
vn 0.000000 -1.000000 0.000000
vn 0.000000 -1.000000 0.000000
vn 0.000000 -1.000000 0.000000
vn 0.000000 -1.000000 0.000000
vn 0.000000 -1.000000 0.000000
vn 0.000000 -1.000000 0.000000
vn -1.000000 -0.000002 0.000000
vn -1.000000 -0.000000 0.000000
vn -1.000000 -0.000000 0.000000
vn -1.000000 0.000000 0.000000
vn -1.000000 0.000000 0.000000
vn -1.000000 -0.000000 0.000000
vn -1.000000 0.000000 0.000000
vn -1.000000 -0.000000 0.000000
vn -1.000000 -0.000000 0.000000
vn -0.646060 0.692208 -0.321643
vn -0.646060 0.692208 -0.321643
vn -0.646060 0.692208 -0.321643
vn 0.000000 0.000000 -1.000000
vn 0.000000 0.000000 -1.000000
vn 0.000000 0.000000 -1.000000
vn 0.000000 0.000000 -1.000000
vn 0.000000 0.000000 -1.000000
vn 0.000000 0.000000 -1.000000
vn 0.000000 0.000000 -1.000000
vn 0.000000 0.000000 -1.000000
vn 0.000000 0.000000 -1.000000
vn 0.535422 0.844202 -0.025445
vn 0.535422 0.844202 -0.025445
vn 0.535422 0.844202 -0.025445
vn 0.000000 0.866143 0.499796
vn 0.000000 0.866143 0.499796
vn 0.000000 0.866143 0.499796
vn -0.000000 0.866143 0.499797
vn -0.000000 0.866143 0.499797
vn -0.000000 0.866143 0.499797
vn 0.000000 0.866143 0.499796
vn 0.000000 0.866143 0.499797
vn -0.000000 0.866143 0.499797
vn 0.000000 0.866143 0.499797
vn -0.000000 0.866143 0.499797
vn -0.000000 0.866143 0.499797
vn 0.000000 0.866143 0.499797
vn 0.000000 0.866143 0.499797
vn 0.000000 0.866143 0.499797
vn 0.000000 0.866143 0.499797
vn 0.000000 0.866143 0.499797
vn 0.000000 0.866143 0.499796
vn 0.000000 0.866143 0.499797
vn 0.000000 0.866143 0.499796
vn 0.000000 0.866143 0.499796
vn 0.000000 0.000000 -1.000000
vn 0.000000 0.000000 -1.000000
vn 0.000000 0.000000 -1.000000
vn 0.000000 0.000000 -1.000000
vn 0.000000 0.000000 -1.000000
vn 0.000000 0.000000 -1.000000
vn 0.000000 0.000000 -1.000000
vn 0.000000 0.000000 -1.000000
vn 0.000000 0.000000 -1.000000
vn -0.359760 0.731721 -0.578927
vn -0.359760 0.731721 -0.578927
vn -0.359760 0.731721 -0.578927
vn 0.000000 0.000000 -1.000000
vn 0.000000 0.000000 -1.000000
vn 0.000000 0.000000 -1.000000
vn 0.331968 0.819482 -0.467168
vn 0.331968 0.819482 -0.467168
vn 0.331968 0.819482 -0.467168
vn 1.000000 0.000000 0.000000
vn 1.000000 0.000000 0.000000
vn 1.000000 0.000000 0.000000
vn 0.369165 0.238071 0.898354
vn 0.369165 0.238071 0.898354
vn 0.369165 0.238071 0.898354
vn 1.000000 0.000000 0.000000
vn 1.000000 0.000000 0.000000
vn 1.000000 0.000000 0.000000
vn 1.000000 0.000000 0.000000
vn 1.000000 0.000000 0.000000
vn 1.000000 0.000000 0.000000
vn 0.697878 0.199037 0.688005
vn 0.697878 0.199037 0.688005
vn 0.697878 0.199037 0.688005
vn 0.000000 0.866143 0.499797
vn -0.000000 0.866143 0.499797
vn 0.000000 0.866143 0.499796
vn 0.000000 0.866143 0.499796
vn -0.000000 0.866143 0.499797
vn 0.000000 0.866143 0.499797
vn -0.000000 0.866143 0.499797
vn -0.000000 0.866143 0.499797
vn 0.000000 0.866143 0.499797
vn 0.000000 0.866143 0.499797
vn -0.000000 0.866143 0.499797
vn 0.000000 0.866143 0.499795
vn 0.696101 0.709368 -0.110633
vn 0.696101 0.709368 -0.110633
vn 0.696101 0.709368 -0.110633
vn 1.000000 0.000000 0.000000
vn 1.000000 0.000000 0.000000
vn 1.000000 0.000000 0.000000
vn 1.000000 0.000000 0.000000
vn 1.000000 0.000000 0.000000
vn 1.000000 0.000000 0.000000
vn 1.000000 0.000000 0.000000
vn 1.000000 0.000000 0.000000
vn 1.000000 0.000000 0.000000
vn -0.000001 0.866143 0.499797
vn -0.000001 0.866143 0.499797
vn -0.000001 0.866143 0.499797
s off
f 1/1/1 11/2/2 12/3/3
f 5/4/4 6/5/5 1/1/6
f 1/1/7 6/5/8 11/2/9
f 2/6/10 18/7/11 6/5/12
f 6/5/13 18/7/14 11/2/15
f 12/3/16 8/8/17 1/1/18
f 3/9/19 5/4/20 8/8/21
f 5/4/22 1/1/23 8/8/24
f 8/8/25 7/10/26 3/9/27
f 16/11/28 5/4/29 14/12/30
f 5/4/31 3/9/32 14/12/33
f 3/9/34 7/10/35 14/12/36
f 10/13/37 9/14/38 4/15/39
f 17/16/40 22/17/41 15/18/42
f 17/16/43 15/18/44 18/7/45
f 12/3/46 11/2/47 15/18/48
f 11/2/49 18/7/50 15/18/51
f 15/18/52 14/12/53 12/3/54
f 12/3/55 14/12/56 8/8/57
f 14/12/58 7/10/59 8/8/60
f 16/11/61 13/19/62 6/5/63
f 6/5/64 13/19/65 4/15/66
f 13/19/67 10/13/68 4/15/69
f 13/19/70 16/11/71 15/18/72
f 5/4/73 16/11/74 6/5/75
f 15/18/76 16/11/77 14/12/78
f 20/20/79 4/15/80 9/14/81
f 17/16/82 18/7/83 2/6/84
f 21/21/85 2/6/86 6/5/87
f 20/20/88 21/21/89 6/5/90
f 20/20/91 22/17/92 21/21/93
f 22/17/94 20/20/95 15/18/96
f 15/18/97 20/20/98 13/19/99
f 20/20/100 9/14/101 13/19/102
f 13/19/103 9/14/104 10/13/105
f 21/21/106 22/17/107 19/22/108
f 17/16/109 2/6/110 19/22/111
f 19/22/112 2/6/113 21/21/114
f 20/20/115 6/5/116 4/15/117
f 19/22/118 22/17/119 17/16/120
