# This file uses meters as units for non-parametric coordinates.

v 0.000000 -10.000000 499.998413
v 0.000000 0.000000 479.078735
v -496.183014 -0.000000 2.182046
v -6.058066 0.000000 0.000000
v -500.000000 -10.000000 0.000000
v 0.000000 -10.000000 0.000000
v 0.000000 0.000000 499.998413
v 0.000000 0.000000 6.278714
v 0.000000 -3.090549 0.000000
v -276.631439 0.000000 0.000000
v -306.858093 0.000000 0.000000
v -286.811951 0.000000 6.409088
v -291.896881 -2.930482 0.000000
v 0.000000 0.000000 258.739410
v 0.000000 0.000000 301.055511
v 0.000000 -5.148641 277.366669
v -9.501826 0.000000 282.262817
v -443.109375 0.000000 0.000000
v -500.000000 -3.349202 0.000000
v 0.000000 0.000000 112.730553
v 0.000000 0.000000 71.111916
v 0.000000 -2.737894 78.219681
v -8.403904 0.000000 84.555283
v -345.491455 -0.000000 24.470123
v -345.491455 -10.000000 24.470123
v -18.047743 -0.000000 342.222412
v -24.471619 -10.000000 345.489929
v -95.491394 -0.000000 206.105728
v -95.491394 -10.000000 206.105728
v -205.448059 -0.000000 91.444252
v -206.107300 -10.000000 95.489883
v -243.063904 -0.000000 76.659546
v -206.107300 -5.373002 95.489883
v -201.264099 -0.000000 100.333092
v -302.999451 -0.000000 39.950073
v -306.690765 -10.000000 44.240051
v -328.730286 -0.000000 33.010368
v -305.790985 -5.368999 44.698517
v -297.148163 -0.000000 49.102257
v -42.352810 -0.000000 310.396118
v -24.471619 -5.518970 345.489929
v -22.900467 -0.000000 355.409851
vt 0.247760 0.303287
vt 0.247760 0.303287
vt 0.247760 0.303287
vt 0.247760 0.303287
vt 0.247760 0.303287
vt 0.247760 0.303287
vt 0.247760 0.303287
vt 0.247760 0.303287
vt 0.247760 0.303287
vt 0.247760 0.303287
vt 0.247760 0.303287
vt 0.247760 0.303287
vt 0.247760 0.303287
vt 0.247760 0.303287
vt 0.247760 0.303287
vt 0.247760 0.303287
vt 0.247760 0.303287
vt 0.247760 0.303287
vt 0.247760 0.303287
vt 0.247760 0.303287
vt 0.247760 0.303287
vt 0.247760 0.303287
vt 0.247760 0.303287
vt 0.247760 0.303287
vt 0.247760 0.303287
vt 0.247760 0.303287
vt 0.247760 0.303287
vt 0.247760 0.303287
vt 0.247760 0.303287
vt 0.247760 0.303287
vt 0.247760 0.303287
vt 0.247760 0.303287
vt 0.247760 0.303287
vt 0.247760 0.303287
vt 0.247760 0.303287
vt 0.247760 0.303287
vt 0.247760 0.303287
vt 0.247760 0.303287
vt 0.247760 0.303287
vt 0.247760 0.303287
vt 0.247760 0.303287
vt 0.247760 0.303287
vn 1.000000 0.000000 0.000000
vn 1.000000 0.000000 0.000000
vn 1.000000 0.000000 0.000000
vn 0.000000 0.000000 0.000000
vn 0.000000 0.000000 0.000000
vn 0.000000 0.000000 0.000000
vn -0.033688 0.572239 -0.819395
vn -0.033688 0.572239 -0.819395
vn -0.033688 0.572239 -0.819395
vn 0.000000 -1.000000 0.000000
vn 0.000000 -1.000000 0.000000
vn 0.000000 -1.000000 -0.000000
vn 0.000000 -1.000000 0.000000
vn 0.000000 -1.000000 0.000000
vn 0.000000 -1.000000 0.000000
vn 0.000000 -1.000000 0.000000
vn 0.000000 -1.000000 0.000000
vn 0.000000 -1.000000 0.000000
vn 0.000000 -1.000000 -0.000000
vn 0.000000 -1.000000 0.000000
vn 0.000000 -1.000000 -0.000000
vn 0.000000 -1.000000 -0.000000
vn 0.000000 -1.000000 0.000000
vn 0.000000 -1.000000 0.000000
vn 0.000000 -1.000000 0.000000
vn 0.000000 -1.000000 0.000000
vn 0.000000 -1.000000 0.000000
vn 0.416186 0.815805 -0.401561
vn 0.416186 0.815805 -0.401561
vn 0.416186 0.815805 -0.401561
vn 1.000000 0.000000 0.000000
vn 1.000000 0.000000 0.000000
vn 1.000000 0.000000 0.000000
vn 0.000000 0.000000 -1.000000
vn 0.000000 0.000000 -1.000000
vn 0.000000 0.000000 -1.000000
vn 0.000000 0.000000 -1.000000
vn 0.000000 0.000000 -1.000000
vn 0.000000 0.000000 -1.000000
vn -0.180601 0.940790 -0.286876
vn -0.180601 0.940790 -0.286876
vn -0.180601 0.940790 -0.286876
vn 0.000000 0.000000 -1.000000
vn 0.000000 0.000000 -1.000000
vn 0.000000 0.000000 -1.000000
vn 0.000000 0.000000 -1.000000
vn 0.000000 0.000000 -1.000000
vn 0.000000 0.000000 -1.000000
vn 0.164738 0.841050 -0.515264
vn 0.164738 0.841050 -0.515264
vn 0.164738 0.841050 -0.515264
vn 1.000000 0.000000 0.000000
vn 1.000000 0.000000 0.000000
vn 1.000000 0.000000 0.000000
vn 1.000000 0.000000 0.000000
vn 1.000000 0.000000 0.000000
vn 1.000000 0.000000 0.000000
vn 1.000000 0.000000 0.000000
vn 1.000000 0.000000 0.000000
vn 1.000000 0.000000 0.000000
vn 0.387276 0.900930 -0.195812
vn 0.387276 0.900930 -0.195812
vn 0.387276 0.900930 -0.195812
vn 0.550583 0.804610 0.222397
vn 0.550583 0.804610 0.222397
vn 0.550583 0.804610 0.222397
vn 0.000000 0.000000 -1.000000
vn 0.000000 0.000000 -1.000000
vn 0.000000 0.000000 -1.000000
vn 0.000000 0.000000 -1.000000
vn 0.000000 0.000000 -1.000000
vn 0.000000 0.000000 -1.000000
vn 0.000000 1.000000 0.000000
vn 0.000000 1.000000 0.000000
vn 0.000000 1.000000 0.000000
vn 0.000000 1.000000 0.000000
vn 0.000000 1.000000 0.000000
vn 0.000000 1.000000 0.000000
vn 0.000000 1.000000 0.000000
vn 0.000000 1.000000 0.000000
vn 0.000000 1.000000 0.000000
vn 0.000000 1.000000 0.000000
vn 0.000000 1.000000 0.000000
vn 0.000000 1.000000 0.000000
vn 0.000000 1.000000 0.000000
vn 0.000000 1.000000 0.000000
vn 0.000000 1.000000 0.000000
vn -0.132020 -0.431084 0.892602
vn -0.132020 -0.431084 0.892601
vn -0.132020 -0.431084 0.892601
vn 0.000000 1.000000 0.000000
vn 0.000000 1.000000 0.000000
vn 0.000000 1.000000 0.000000
vn 0.000000 1.000000 0.000000
vn 0.000000 1.000000 0.000000
vn 0.000000 1.000000 0.000000
vn 1.000000 0.000000 0.000000
vn 1.000000 0.000000 0.000000
vn 1.000000 0.000000 0.000000
vn 1.000000 0.000000 0.000000
vn 1.000000 0.000000 0.000000
vn 1.000000 0.000000 0.000000
vn 1.000000 0.000000 0.000000
vn 1.000000 0.000000 0.000000
vn 1.000000 0.000000 0.000000
vn 0.256290 0.963572 -0.076444
vn 0.256290 0.963572 -0.076444
vn 0.256290 0.963572 -0.076444
vn 0.498471 0.808965 0.311611
vn 0.498471 0.808965 0.311611
vn 0.498471 0.808965 0.311611
vn 1.000000 0.000000 0.000000
vn 1.000000 0.000000 0.000000
vn 1.000000 0.000000 0.000000
vn 1.000000 0.000000 0.000000
vn 1.000000 0.000000 0.000000
vn 1.000000 0.000000 0.000000
vn 0.000000 0.000000 -1.000000
vn 0.000000 0.000000 -1.000000
vn 0.000000 0.000000 -1.000000
vn 0.000000 1.000000 0.000000
vn -0.000000 1.000000 0.000000
vn 0.000000 1.000000 0.000000
vn -0.000000 1.000000 0.000000
vn -0.000000 1.000000 0.000000
vn -0.000000 1.000000 0.000000
vn -0.000000 1.000000 0.000000
vn -0.000000 1.000000 0.000000
vn 0.000000 1.000000 0.000000
vn 0.000000 1.000000 0.000000
vn -0.000000 1.000000 0.000000
vn -0.000000 1.000000 0.000000
vn -0.000000 1.000000 0.000000
vn -0.000000 1.000000 0.000000
vn -0.000000 1.000000 0.000000
vn -0.000000 1.000000 0.000000
vn -0.000000 1.000000 0.000000
vn -0.000000 1.000000 0.000000
vn -0.156424 0.000000 0.987690
vn -0.156424 0.000000 0.987690
vn -0.156424 0.000000 0.987690
vn -0.156424 0.000000 0.987690
vn -0.156424 0.000000 0.987690
vn -0.156424 0.000000 0.987690
vn -0.830687 0.396329 0.391003
vn -0.830687 0.396329 0.391003
vn -0.830687 0.396329 0.391003
vn -0.000000 1.000000 0.000000
vn -0.000000 1.000000 0.000000
vn 0.000000 1.000000 -0.000000
vn 0.000000 1.000000 -0.000000
vn -0.000000 1.000000 0.000000
vn 0.000000 1.000000 -0.000000
vn -0.000000 1.000000 0.000000
vn -0.000000 1.000000 -0.000000
vn 0.000000 1.000000 -0.000000
vn -0.488241 0.789048 0.372859
vn -0.488241 0.789048 0.372859
vn -0.488242 0.789048 0.372859
vn -0.701773 0.663948 -0.258239
vn -0.701773 0.663948 -0.258239
vn -0.701773 0.663948 -0.258239
vn -0.000000 1.000000 0.000000
vn -0.000000 1.000000 -0.000000
vn -0.000000 1.000000 0.000000
vn -0.000000 1.000000 0.000000
vn -0.000000 1.000000 0.000000
vn -0.000000 1.000000 -0.000000
vn -0.000000 1.000000 -0.000000
vn -0.000000 1.000000 -0.000000
vn -0.000000 1.000000 0.000000
vn -0.000000 1.000000 0.000000
vn -0.000000 1.000000 0.000000
vn -0.000000 1.000000 0.000000
vn -0.000000 1.000000 0.000000
vn -0.000000 1.000000 0.000000
vn -0.000000 1.000000 0.000000
vn -0.293254 0.597765 0.746109
vn -0.293254 0.597765 0.746109
vn -0.293254 0.597765 0.746109
vn -0.621754 0.674840 0.397508
vn -0.621754 0.674840 0.397508
vn -0.621754 0.674840 0.397508
vn -0.707107 0.000000 0.707107
vn -0.707107 -0.000000 0.707107
vn -0.707107 0.000000 0.707107
vn -0.707107 0.000000 0.707107
vn -0.707107 -0.000000 0.707107
vn -0.707107 -0.000001 0.707107
vn -0.707107 -0.000000 0.707107
vn -0.707107 -0.000005 0.707107
vn -0.707107 -0.000001 0.707107
vn -0.185118 0.703291 0.686377
vn -0.185118 0.703291 0.686377
vn -0.185118 0.703291 0.686377
vn -0.000000 1.000000 0.000000
vn -0.000000 1.000000 0.000000
vn -0.000000 1.000000 0.000000
vn -0.000000 1.000000 0.000000
vn -0.000000 1.000000 0.000000
vn 0.000000 1.000000 0.000000
vn -0.453990 -0.000005 0.891007
vn -0.453990 -0.000005 0.891007
vn -0.453990 -0.000005 0.891007
vn -0.453991 0.000002 0.891007
vn -0.453990 0.000000 0.891007
vn -0.453991 0.000001 0.891007
vn -0.453991 0.000001 0.891007
vn -0.453990 0.000000 0.891007
vn -0.453990 0.000000 0.891007
vn -0.453990 0.000000 0.891007
vn -0.453990 0.000000 0.891007
vn -0.453990 0.000000 0.891007
vn -0.453990 0.000000 0.891007
vn -0.453990 0.000006 0.891007
vn -0.453990 0.000000 0.891007
vn -0.453990 0.000003 0.891007
vn -0.453990 0.000002 0.891007
vn -0.453991 0.000001 0.891006
vn -0.453991 0.000001 0.891006
vn -0.453990 0.000002 0.891007
vn -0.453991 0.000000 0.891006
vn -0.891007 0.000000 0.453990
vn -0.891007 0.000000 0.453990
vn -0.891007 0.000000 0.453990
vn -0.891007 0.000000 0.453990
vn -0.891006 0.000000 0.453991
vn -0.891007 0.000000 0.453990
vn -0.891006 0.000000 0.453991
vn -0.891007 0.000000 0.453990
vn -0.891007 0.000000 0.453990
vn -0.987688 0.000000 0.156434
vn -0.987688 -0.000000 0.156434
vn -0.987688 0.000000 0.156434
vn -0.987688 0.000000 0.156434
vn -0.987688 -0.000000 0.156434
vn -0.987689 -0.000000 0.156434
vn -0.987688 -0.000000 0.156434
vn -0.987689 -0.000000 0.156434
vn -0.987689 -0.000000 0.156434
s off
f 7/1/1 1/2/2 2/3/3
f 15/4/4 7/1/5 2/3/6
f 3/5/7 18/6/8 19/7/9
f 5/8/10 6/9/11 25/14/12
f 1/2/13 27/10/14 6/9/15
f 27/10/16 29/11/17 6/9/18
f 25/14/19 6/9/20 36/13/21
f 36/13/22 6/9/23 31/12/24
f 6/9/25 29/11/26 31/12/27
f 8/15/28 9/16/29 4/17/30
f 9/16/31 22/18/32 6/9/33
f 5/8/34 13/19/35 6/9/36
f 5/8/37 11/20/38 13/19/39
f 10/21/40 13/19/41 12/22/42
f 13/19/43 10/21/44 9/16/45
f 9/16/46 10/21/47 4/17/48
f 12/22/49 13/19/50 11/20/51
f 16/23/52 15/4/53 1/2/54
f 1/2/55 15/4/56 2/3/57
f 1/2/58 6/9/59 16/23/60
f 16/23/61 17/24/62 15/4/63
f 14/25/64 17/24/65 16/23/66
f 19/7/67 18/6/68 5/8/69
f 5/8/70 18/6/71 11/20/72
f 10/21/73 12/22/74 14/25/75
f 14/25/76 12/22/77 17/24/78
f 10/21/79 14/25/80 23/27/81
f 14/25/82 20/26/83 23/27/84
f 10/21/85 8/15/86 4/17/87
f 19/7/88 24/28/89 3/5/90
f 10/21/91 23/27/92 21/29/93
f 10/21/94 21/29/95 8/15/96
f 6/9/97 22/18/98 16/23/99
f 22/18/100 20/26/101 16/23/102
f 14/25/103 16/23/104 20/26/105
f 22/18/106 23/27/107 20/26/108
f 21/29/109 23/27/110 22/18/111
f 22/18/112 9/16/113 21/29/114
f 21/29/115 9/16/116 8/15/117
f 6/9/118 13/19/119 9/16/120
f 3/5/121 24/28/122 18/6/123
f 12/22/124 11/20/125 24/28/126
f 24/28/127 11/20/128 18/6/129
f 30/33/130 12/22/131 32/32/132
f 32/32/133 12/22/134 39/31/135
f 12/22/136 35/30/137 39/31/138
f 24/28/139 19/7/140 25/14/141
f 25/14/142 19/7/143 5/8/144
f 33/34/145 34/35/146 30/33/147
f 12/22/148 30/33/149 17/24/150
f 17/24/151 30/33/152 28/36/153
f 30/33/154 34/35/155 28/36/156
f 40/37/157 41/38/158 26/39/159
f 41/38/160 42/40/161 26/39/162
f 17/24/163 26/39/164 15/4/165
f 7/1/166 15/4/167 42/40/168
f 26/39/169 42/40/170 15/4/171
f 28/36/172 40/37/173 17/24/174
f 17/24/175 40/37/176 26/39/177
f 32/32/178 33/34/179 30/33/180
f 38/41/181 39/31/182 35/30/183
f 29/11/184 28/36/185 31/12/186
f 31/12/187 28/36/188 33/34/189
f 28/36/190 34/35/191 33/34/192
f 37/42/193 38/41/194 35/30/195
f 24/28/196 37/42/197 12/22/198
f 12/22/199 37/42/200 35/30/201
f 36/13/202 38/41/203 25/14/204
f 36/13/205 31/12/206 38/41/207
f 38/41/208 31/12/209 39/31/210
f 31/12/211 33/34/212 39/31/213
f 33/34/214 32/32/215 39/31/216
f 38/41/217 37/42/218 25/14/219
f 25/14/220 37/42/221 24/28/222
f 27/10/223 41/38/224 29/11/225
f 41/38/226 40/37/227 29/11/228
f 40/37/229 28/36/230 29/11/231
f 1/2/232 7/1/233 27/10/234
f 27/10/235 7/1/236 41/38/237
f 7/1/238 42/40/239 41/38/240
