# This file uses meters as units for non-parametric coordinates.

v -100.000000 57.721230 99.999977
v 0.000000 57.721226 100.000000
v -100.000000 69.290726 99.999969
v -5.406231 69.290726 99.999969
v -100.000000 69.290726 6.703499
v 0.000000 11.569515 -0.000031
v -100.000000 57.721230 -0.000002
v 0.000000 1.443173 2.500243
v -95.638504 66.773224 -0.000031
v -100.000000 65.133133 -0.000019
v -2.008712 1.159453 -0.000001
v 0.000000 3.166426 -0.000009
v -1.397622 0.806726 1.397620
v -49.432987 39.400314 47.046783
v 0.000000 64.219017 99.999985
v 0.000000 67.164787 96.316841
v -3.511362 67.167526 96.238579
v 0.000000 31.824867 35.091663
v 0.000000 42.364063 53.350449
v -5.875328 32.725239 36.512573
v 0.000000 29.377037 40.328007
v -100.000000 69.290726 82.693970
v -96.843925 67.425156 96.694969
v -100.000000 65.067177 96.818748
vt 0.247760 0.303287
vt 0.247760 0.303287
vt 0.247760 0.303287
vt 0.247760 0.303287
vt 0.247760 0.303287
vt 0.247760 0.303287
vt 0.247760 0.303287
vt 0.247760 0.303287
vt 0.247760 0.303287
vt 0.247760 0.303287
vt 0.247760 0.303287
vt 0.247760 0.303287
vt 0.247760 0.303287
vt 0.247760 0.303287
vt 0.247760 0.303287
vt 0.247760 0.303287
vt 0.247760 0.303287
vt 0.247760 0.303287
vt 0.247760 0.303287
vt 0.247760 0.303287
vt 0.247760 0.303287
vt 0.247760 0.303287
vt 0.247760 0.303287
vt 0.247760 0.303287
vn 0.011535 0.873262 -0.487115
vn 0.011535 0.873262 -0.487115
vn 0.011535 0.873262 -0.487115
vn -0.304402 0.809492 -0.502058
vn -0.007621 0.020261 -0.999766
vn -0.155919 0.414630 -0.896533
vn 0.000000 -0.866076 0.499912
vn -0.000000 -0.866077 0.499910
vn -0.000000 -0.866077 0.499910
vn -0.000000 -0.866077 0.499910
vn -0.000000 -0.866077 0.499910
vn -0.000000 -0.866077 0.499910
vn 0.590991 0.629973 0.503850
vn 0.590991 0.629973 0.503849
vn 0.590991 0.629973 0.503850
vn -1.000000 0.000000 0.000000
vn -1.000000 0.000000 0.000000
vn -1.000000 0.000000 0.000000
vn 0.499869 0.866005 0.012932
vn 0.499869 0.866005 0.012932
vn 0.499869 0.866005 0.012932
vn -0.491185 -0.871040 -0.005066
vn -0.499910 -0.866077 0.000000
vn -0.499837 -0.866119 -0.000043
vn -0.499910 -0.866077 0.000000
vn -0.499837 -0.866119 -0.000043
vn -0.499910 -0.866077 0.000000
vn 0.009141 -0.009153 -0.999916
vn -0.000001 -0.000002 -1.000000
vn 0.004459 -0.004467 -0.999980
vn 0.004459 -0.004467 -0.999980
vn -0.000001 -0.000002 -1.000000
vn -0.000001 -0.000003 -1.000000
vn -0.155919 0.414630 -0.896533
vn -0.007621 0.020261 -0.999766
vn -0.000001 -0.000002 -1.000000
vn -0.007621 0.020261 -0.999766
vn -0.000001 -0.000003 -1.000000
vn -0.000001 -0.000002 -1.000000
vn -0.491185 -0.871040 -0.005066
vn -0.499837 -0.866119 -0.000043
vn 0.635309 -0.635857 -0.438256
vn 0.009141 -0.009153 -0.999916
vn 0.004459 -0.004467 -0.999980
vn 0.635307 -0.635860 -0.438255
vn 0.505809 0.862630 0.005134
vn 0.505809 0.862630 0.005134
vn 0.505809 0.862630 0.005134
vn 0.000002 0.000002 1.000000
vn 0.000002 0.000002 1.000000
vn 0.000002 0.000002 1.000000
vn 1.000000 0.000000 0.000000
vn 1.000000 0.000000 0.000000
vn 1.000000 0.000000 0.000000
vn 1.000000 0.000000 0.000000
vn 1.000000 0.000000 0.000000
vn 1.000000 0.000000 0.000000
vn 1.000000 0.000000 0.000000
vn 1.000000 0.000000 0.000000
vn 1.000000 0.000000 0.000000
vn 0.011814 0.866019 -0.499871
vn 0.011814 0.866019 -0.499871
vn 0.011814 0.866019 -0.499871
vn -0.000000 0.870842 -0.491563
vn -0.000000 0.870842 -0.491563
vn -0.000000 0.870842 -0.491563
vn 1.000000 0.000000 0.000000
vn 1.000000 0.000000 0.000000
vn 1.000000 0.000000 0.000000
vn -0.000000 0.000003 1.000000
vn -0.000000 0.000002 1.000000
vn -0.000000 0.000001 1.000000
vn -0.000000 0.000001 1.000000
vn -0.000000 0.000002 1.000000
vn 0.000000 0.000001 1.000000
vn 0.011822 0.866017 -0.499875
vn 0.011822 0.866017 -0.499875
vn 0.011822 0.866017 -0.499875
vn 0.011822 0.866017 -0.499875
vn 0.011822 0.866017 -0.499875
vn 0.011822 0.866017 -0.499875
vn 0.652944 0.536296 -0.534837
vn 0.652944 0.536296 -0.534837
vn 0.652944 0.536296 -0.534837
vn 0.234515 0.880641 0.411673
vn 0.234515 0.880641 0.411673
vn 0.234515 0.880641 0.411673
vn 1.000000 0.000000 0.000000
vn 1.000000 0.000000 0.000000
vn 1.000000 0.000000 0.000000
vn 1.000000 0.000000 0.000000
vn 1.000000 0.000000 0.000000
vn 1.000000 0.000000 0.000000
vn 1.000000 0.000000 0.000000
vn 1.000000 0.000000 0.000000
vn 1.000000 0.000000 0.000000
vn 0.011822 0.866017 -0.499875
vn 0.011822 0.866017 -0.499876
vn 0.011822 0.866017 -0.499876
vn 0.508855 0.860852 -0.000000
vn 0.508854 0.860853 -0.000000
vn 0.508854 0.860853 -0.000000
vn 0.508854 0.860853 -0.000000
vn 0.508854 0.860853 -0.000000
vn 0.508854 0.860853 0.000000
vn 0.000002 0.870842 -0.491563
vn 0.000002 0.870842 -0.491563
vn 0.000002 0.870842 -0.491563
vn 0.011822 0.866017 -0.499876
vn 0.011822 0.866017 -0.499875
vn 0.011822 0.866017 -0.499876
vn -0.575968 0.783208 0.234192
vn -0.575968 0.783208 0.234192
vn -0.575968 0.783208 0.234192
vn -1.000000 0.000004 0.000000
vn -1.000000 0.000004 0.000000
vn -1.000000 -0.000001 0.000000
vn -1.000000 -0.000001 0.000000
vn -1.000000 0.000004 0.000000
vn -1.000000 -0.000001 0.000000
vn -1.000000 0.000000 0.000000
vn -1.000000 0.000000 0.000000
vn -1.000000 0.000000 0.000000
vn -1.000000 -0.000002 0.000000
vn -1.000000 -0.000002 0.000000
vn -1.000000 -0.000002 0.000000
vn -0.433338 0.542215 -0.719875
vn -0.433338 0.542215 -0.719875
vn -0.433338 0.542215 -0.719875
vn 0.000000 0.870843 -0.491562
vn 0.000000 0.870843 -0.491562
vn 0.000000 0.870843 -0.491562
s off
f 16/1/1 17/2/2 4/3/3
f 5/4/4 9/5/5 10/6/6
f 13/8/7 8/9/8 1/7/9
f 1/7/10 8/9/11 2/10/12
f 15/11/13 16/1/14 4/3/15
f 3/12/16 24/13/17 1/7/18
f 9/5/19 14/14/20 6/15/21
f 13/8/22 1/7/23 11/17/24
f 7/16/25 11/17/26 1/7/27
f 11/17/28 7/16/29 12/18/30
f 12/18/31 7/16/32 6/15/33
f 10/6/34 9/5/35 7/16/36
f 9/5/37 6/15/38 7/16/39
f 13/8/40 11/17/41 8/9/42
f 11/17/43 12/18/44 8/9/45
f 5/4/46 14/14/47 9/5/48
f 4/3/49 2/10/50 15/11/51
f 21/20/52 8/9/53 18/19/54
f 8/9/55 12/18/56 18/19/57
f 18/19/58 12/18/59 6/15/60
f 14/14/61 17/2/62 16/1/63
f 23/21/64 4/3/65 14/14/66
f 2/10/67 16/1/68 15/11/69
f 2/10/70 4/3/71 1/7/72
f 1/7/73 4/3/74 3/12/75
f 14/14/76 20/22/77 6/15/78
f 14/14/79 19/23/80 20/22/81
f 21/20/82 20/22/83 19/23/84
f 18/19/85 20/22/86 21/20/87
f 2/10/88 8/9/89 21/20/90
f 21/20/91 19/23/92 2/10/93
f 2/10/94 19/23/95 16/1/96
f 6/15/97 20/22/98 18/19/99
f 23/21/100 14/14/101 22/24/102
f 22/24/103 14/14/104 5/4/105
f 14/14/106 4/3/107 17/2/108
f 14/14/109 16/1/110 19/23/111
f 22/24/112 24/13/113 23/21/114
f 24/13/115 22/24/116 7/16/117
f 7/16/118 22/24/119 10/6/120
f 7/16/121 1/7/122 24/13/123
f 10/6/124 22/24/125 5/4/126
f 23/21/127 24/13/128 3/12/129
f 3/12/130 4/3/131 23/21/132
