# This file uses meters as units for non-parametric coordinates.

v -200.000000 -10.000000 199.999985
v 0.000000 -10.000000 199.999985
v -200.000000 -2.372857 199.999985
v 0.000000 0.000000 191.632065
v -197.513565 0.000000 3.166471
v -4.930685 0.000000 0.000000
v -200.000000 -10.000000 0.000000
v 0.000000 -10.000000 0.000000
v -7.353127 0.000000 199.259232
v 0.000000 -2.643132 199.999985
v 0.000000 0.000000 9.933517
v 0.000000 -3.090549 0.000000
v -26.694145 0.000000 0.000000
v -69.419502 0.000000 0.000000
v -52.055416 0.000000 198.123154
v -43.712486 0.000000 3.587307
v -55.291019 -3.010455 0.000000
v -200.000000 0.000000 162.941284
v -176.231766 0.000000 200.000000
v -198.003632 0.000000 197.747513
v 0.000000 0.000000 30.882370
v 0.000000 0.000000 70.399544
v 0.000000 -2.601132 35.200905
v -6.073006 0.000000 37.159363
v -53.778339 -10.000000 199.999985
v -53.093456 -6.024886 199.999985
v -177.243744 0.000000 0.000000
v -200.000000 -3.349202 0.000000
v -198.531311 0.000000 17.069574
v -199.017181 0.000000 65.328117
v -200.000000 -3.407452 74.151283
v -199.198547 0.000000 99.486580
v -194.579971 0.000000 74.395905
v -140.000000 0.000000 140.000000
v -56.955860 0.000000 142.078415
v -140.000000 0.000000 60.000004
v -60.000004 -3.366038 60.000004
v -140.000000 -10.000000 60.000004
v -60.000004 -10.000000 60.000004
v -140.000000 -10.000000 140.000000
v -60.000004 -10.000000 140.000000
v -60.000004 0.000000 124.425232
v -60.000004 -4.601835 140.000000
v -65.643326 0.000000 140.000000
v -80.342033 0.000000 60.000004
v -58.569717 0.000000 58.375542
v -60.000004 0.000000 63.307541
v -140.000000 0.000000 100.859741
v -140.000000 -10.000000 98.586884
v -143.545898 0.000000 87.190781
v -142.095596 -10.000000 85.462738
vt 0.247760 0.303287
vt 0.247760 0.303287
vt 0.247760 0.303287
vt 0.247760 0.303287
vt 0.247760 0.303287
vt 0.247760 0.303287
vt 0.247760 0.303287
vt 0.247760 0.303287
vt 0.247760 0.303287
vt 0.247760 0.303287
vt 0.247760 0.303287
vt 0.247760 0.303287
vt 0.247760 0.303287
vt 0.247760 0.303287
vt 0.247760 0.303287
vt 0.247760 0.303287
vt 0.247760 0.303287
vt 0.247760 0.303287
vt 0.247760 0.303287
vt 0.247760 0.303287
vt 0.247760 0.303287
vt 0.247760 0.303287
vt 0.247760 0.303287
vt 0.247760 0.303287
vt 0.247760 0.303287
vt 0.247760 0.303287
vt 0.247760 0.303287
vt 0.247760 0.303287
vt 0.247760 0.303287
vt 0.247760 0.303287
vt 0.247760 0.303287
vt 0.247760 0.303287
vt 0.247760 0.303287
vt 0.247760 0.303287
vt 0.247760 0.303287
vt 0.247760 0.303287
vt 0.247760 0.303287
vt 0.247760 0.303287
vt 0.247760 0.303287
vt 0.247760 0.303287
vt 0.247760 0.303287
vt 0.247760 0.303287
vt 0.247760 0.303287
vt 0.247760 0.303287
vt 0.247760 0.303287
vt 0.247760 0.303287
vt 0.247760 0.303287
vt 0.247760 0.303287
vt 0.247760 0.303287
vt 0.247760 0.303287
vt 0.247760 0.303287
vn 0.298206 0.910176 0.287493
vn 0.298206 0.910176 0.287493
vn 0.298206 0.910176 0.287493
vn 0.000000 1.000000 0.000000
vn 0.000000 1.000000 0.000000
vn 0.000000 1.000000 0.000000
vn -0.106514 0.723710 -0.681835
vn -0.106514 0.723710 -0.681835
vn -0.106514 0.723710 -0.681835
vn 0.513550 0.819321 -0.254910
vn 0.513550 0.819321 -0.254910
vn 0.513550 0.819321 -0.254910
vn -0.775201 0.629160 -0.056747
vn -0.775201 0.629160 -0.056747
vn -0.775201 0.629160 -0.056747
vn 0.000000 0.000000 1.000000
vn 0.000000 0.000000 1.000000
vn 0.000000 0.000000 1.000000
vn 0.000000 0.000000 1.000000
vn 0.000000 0.000000 1.000000
vn 0.000000 0.000000 1.000000
vn 1.000000 0.000000 0.000000
vn 1.000000 0.000000 0.000000
vn 1.000000 0.000000 0.000000
vn 1.000000 0.000000 0.000000
vn 1.000000 0.000000 0.000000
vn 1.000000 0.000000 0.000000
vn 1.000000 0.000000 0.000000
vn 1.000000 0.000000 0.000000
vn 1.000000 0.000000 0.000000
vn 0.000000 0.000000 -1.000000
vn 0.000000 0.000000 -1.000000
vn 0.000000 0.000000 -1.000000
vn 0.000000 0.000000 -1.000000
vn 0.000000 0.000000 -1.000000
vn 0.000000 0.000000 -1.000000
vn 0.000000 1.000000 0.000000
vn 0.000000 1.000000 0.000000
vn 0.000000 1.000000 0.000000
vn -0.093765 0.890695 -0.444827
vn -0.093765 0.890695 -0.444827
vn -0.093765 0.890695 -0.444827
vn 0.000000 0.000000 -1.000000
vn 0.000000 0.000000 -1.000000
vn 0.000000 0.000000 -1.000000
vn 0.000000 0.000000 -1.000000
vn 0.000000 0.000000 -1.000000
vn 0.000000 0.000000 -1.000000
vn 0.115951 0.544176 -0.830920
vn 0.115951 0.544176 -0.830920
vn 0.115951 0.544176 -0.830920
vn -0.071656 0.717751 0.692603
vn -0.071656 0.717751 0.692603
vn -0.071656 0.717751 0.692603
vn -0.744177 0.666617 0.042684
vn -0.744177 0.666617 0.042684
vn -0.744177 0.666617 0.042684
vn 1.000000 0.000000 0.000000
vn 1.000000 0.000000 0.000000
vn 1.000000 0.000000 0.000000
vn 1.000000 0.000000 0.000000
vn 1.000000 0.000000 0.000000
vn 1.000000 0.000000 0.000000
vn 1.000000 0.000000 0.000000
vn 1.000000 0.000000 0.000000
vn 1.000000 0.000000 0.000000
vn 0.000000 1.000000 0.000000
vn 0.000000 1.000000 0.000000
vn 0.000000 1.000000 0.000000
vn 0.374091 0.924870 -0.068347
vn 0.374091 0.924870 -0.068347
vn 0.374091 0.924870 -0.068347
vn 0.470555 0.755852 0.455264
vn 0.470555 0.755852 0.455264
vn 0.470555 0.755852 0.455264
vn -0.024227 0.301132 0.953275
vn -0.023930 0.298962 0.953965
vn -0.015505 0.237134 0.971353
vn -0.015505 0.237134 0.971353
vn -0.023930 0.298962 0.953965
vn -0.014750 0.231573 0.972706
vn 0.000000 0.000000 1.000000
vn 0.000000 0.000000 1.000000
vn 0.000000 0.000000 1.000000
vn 0.000000 0.000000 1.000000
vn 0.000000 0.000000 1.000000
vn 0.000000 0.000000 1.000000
vn 0.000000 -0.000005 1.000000
vn 0.014331 0.292900 0.956036
vn 0.000431 0.008810 0.999961
vn 0.000431 0.008810 0.999961
vn 0.014331 0.292900 0.956036
vn 0.014440 0.295117 0.955352
vn 0.000000 0.000000 -1.000000
vn 0.000000 0.000000 -1.000000
vn 0.000000 0.000000 -1.000000
vn 0.000000 0.000000 -1.000000
vn 0.000000 0.000000 -1.000000
vn 0.000000 0.000000 -1.000000
vn -1.000000 0.000000 0.000000
vn -1.000000 0.000000 0.000000
vn -1.000000 0.000000 0.000000
vn 0.000000 1.000000 0.000000
vn 0.000000 1.000000 0.000000
vn 0.000000 1.000000 0.000000
vn 0.000000 1.000000 0.000000
vn 0.000000 1.000000 0.000000
vn 0.000000 1.000000 0.000000
vn 0.000000 1.000000 0.000000
vn 0.000000 1.000000 0.000000
vn 0.000000 1.000000 0.000000
vn 0.000000 1.000000 0.000000
vn 0.000000 1.000000 0.000000
vn 0.000000 1.000000 0.000000
vn 0.000000 1.000000 0.000000
vn 0.000000 1.000000 0.000000
vn 0.000000 1.000000 0.000000
vn -0.522776 0.813181 0.255814
vn -0.522776 0.813181 0.255814
vn -0.522776 0.813181 0.255814
vn -1.000000 0.000000 0.000000
vn -1.000000 0.000000 0.000000
vn -1.000000 0.000000 0.000000
vn -1.000000 0.000000 0.000000
vn -1.000000 0.000000 0.000000
vn -1.000000 0.000000 0.000000
vn -1.000000 -0.000002 0.000000
vn -1.000000 -0.000002 0.000000
vn -1.000000 -0.000002 0.000000
vn 1.000000 0.000000 0.000000
vn 1.000000 0.000000 0.000000
vn 1.000000 0.000000 0.000000
vn 0.000000 1.000000 0.000000
vn 0.000000 1.000000 0.000000
vn 0.000000 1.000000 0.000000
vn 0.000000 1.000000 0.000000
vn 0.000000 1.000000 0.000000
vn 0.000000 1.000000 0.000000
vn 0.000000 1.000000 0.000000
vn 0.000000 1.000000 0.000000
vn 0.000000 1.000000 0.000000
vn 0.000000 1.000000 0.000000
vn 0.000000 1.000000 0.000000
vn 0.000000 1.000000 0.000000
vn 0.000000 1.000000 0.000000
vn 0.000000 1.000000 0.000000
vn 0.000000 1.000000 0.000000
vn 0.000000 1.000000 0.000000
vn 0.000000 1.000000 0.000000
vn 0.000000 1.000000 0.000000
vn 0.000000 0.000000 -1.000000
vn 0.000000 0.000000 -1.000000
vn 0.000000 0.000000 -1.000000
vn -0.916404 0.400255 0.000314
vn -0.956941 0.290189 -0.007299
vn -0.917222 0.398375 0.000181
vn -0.917222 0.398375 0.000181
vn -0.956941 0.290189 -0.007299
vn -0.967218 0.253762 -0.009738
vn -0.949808 0.312602 -0.011996
vn -0.949809 0.312602 -0.011996
vn -0.949809 0.312602 -0.011996
vn 0.000000 1.000000 0.000000
vn 0.000000 1.000000 0.000000
vn 0.000000 1.000000 0.000000
vn -0.526590 0.844575 -0.096932
vn -0.526590 0.844575 -0.096932
vn -0.526590 0.844575 -0.096932
vn 0.000000 1.000000 0.000000
vn 0.000000 1.000000 0.000000
vn 0.000000 1.000000 0.000000
vn 0.000000 1.000000 0.000000
vn 0.000000 1.000000 0.000000
vn 0.000000 1.000000 0.000000
vn 0.000000 1.000000 0.000000
vn 0.000000 1.000000 0.000000
vn 0.000000 1.000000 0.000000
vn 0.000000 1.000000 0.000000
vn 0.000000 1.000000 0.000000
vn 0.000000 1.000000 0.000000
vn 0.000000 1.000000 0.000000
vn 0.000000 1.000000 0.000000
vn 0.000000 1.000000 0.000000
vn 0.000000 0.000000 1.000000
vn 0.000000 0.000000 1.000000
vn 0.000000 0.000000 1.000000
vn 0.000000 0.000000 1.000000
vn 0.000000 0.000000 1.000000
vn 0.000000 0.000000 1.000000
vn 0.000000 0.000000 1.000000
vn 0.000000 0.000000 1.000000
vn 0.000000 0.000000 1.000000
vn 0.984369 0.120581 0.128370
vn 0.988151 0.096610 0.119267
vn 0.995110 0.030602 0.093916
vn 0.995110 0.030602 0.093916
vn 0.988151 0.096610 0.119267
vn 0.996630 0.000000 0.082023
vn 0.223748 0.274385 -0.935227
vn 0.223748 0.274385 -0.935227
vn 0.223748 0.274385 -0.935227
vn -0.854248 0.498558 0.147308
vn -0.854248 0.498558 0.147308
vn -0.854248 0.498558 0.147308
vn 0.000000 -1.000000 0.000000
vn 0.000000 -1.000000 -0.000000
vn 0.000000 -1.000000 -0.000000
vn 0.000000 -1.000000 -0.000000
vn 0.000000 -1.000000 -0.000000
vn 0.000000 -1.000000 -0.000000
vn 0.000000 -1.000000 0.000000
vn 0.000000 -1.000000 0.000000
vn 0.000000 -1.000000 0.000000
vn 0.000000 -1.000000 0.000000
vn 0.000000 -1.000000 0.000000
vn 0.000000 -1.000000 0.000000
vn 0.000000 -1.000000 0.000000
vn 0.000000 -1.000000 0.000000
vn 0.000000 -1.000000 0.000000
vn 0.000000 -1.000000 0.000000
vn 0.000000 -1.000000 -0.000000
vn 0.000000 -1.000000 -0.000000
vn 0.000000 -1.000000 -0.000000
vn 0.000000 -1.000000 -0.000000
vn 0.000000 -1.000000 -0.000000
vn 0.000000 -1.000000 0.000000
vn 0.000000 -1.000000 0.000000
vn 0.000000 -1.000000 0.000000
vn 0.000000 -1.000000 0.000000
vn 0.000000 -1.000000 0.000000
vn 0.000000 -1.000000 0.000000
vn 0.000000 -1.000000 0.000000
vn 0.000000 -1.000000 0.000000
vn 0.000000 -1.000000 0.000000
vn 0.000000 -1.000000 0.000000
vn 0.000000 -1.000000 0.000000
vn 0.000000 -1.000000 0.000000
vn 0.000000 1.000000 0.000000
vn 0.000000 1.000000 0.000000
vn 0.000000 1.000000 0.000000
vn -1.000000 0.000000 0.000000
vn -1.000000 0.000000 0.000000
vn -1.000000 0.000001 0.000000
vn -1.000000 0.000001 0.000000
vn -1.000000 0.000000 0.000000
vn -1.000000 0.000003 0.000000
vn -1.000000 0.000000 0.000000
vn -1.000000 0.000000 0.000000
vn -1.000000 0.000003 0.000000
vn -1.000000 0.000000 0.000000
vn -1.000000 0.000000 0.000000
vn -1.000000 0.000003 0.000000
vn 0.000000 0.000000 -1.000000
vn 0.000000 0.000000 -1.000000
vn 0.000000 0.000000 -1.000000
vn 0.000000 0.000000 -1.000000
vn 0.000000 0.000000 -1.000000
vn 0.000000 0.000000 -1.000000
vn 0.000000 0.000000 -1.000000
vn 0.000000 0.000000 -1.000000
vn 0.000000 0.000000 -1.000000
vn 0.067860 0.410099 0.909513
vn 0.067860 0.410099 0.909513
vn 0.067860 0.410099 0.909513
vn -0.926362 0.263977 -0.268646
vn -0.926362 0.263977 -0.268646
vn -0.926362 0.263977 -0.268646
vn 0.000000 1.000000 0.000000
vn 0.000000 1.000000 0.000000
vn 0.000000 1.000000 0.000000
vn 0.000000 1.000000 0.000000
vn 0.000000 1.000000 0.000000
vn 0.000000 1.000000 0.000000
vn 0.000000 1.000000 0.000000
vn 0.000000 1.000000 0.000000
vn 0.000000 1.000000 0.000000
vn 0.000000 1.000000 0.000000
vn 0.000000 1.000000 0.000000
vn 0.000000 1.000000 0.000000
vn 0.000000 1.000000 0.000000
vn 0.000000 1.000000 0.000000
vn 0.000000 1.000000 0.000000
vn 0.000000 1.000000 0.000000
vn 0.000000 1.000000 0.000000
vn 0.000000 1.000000 0.000000
vn 1.000000 0.000000 0.000000
vn 1.000000 0.000000 0.000000
vn 1.000000 0.000000 0.000000
vn 1.000000 0.000000 0.000000
vn 1.000000 0.000000 0.000000
vn 1.000000 0.000000 0.000000
vn 0.973449 0.168040 -0.155435
vn 0.973021 0.121539 -0.196106
vn 0.971562 0.099800 -0.214727
vn 0.971562 0.099800 -0.214727
vn 0.973021 0.121539 -0.196106
vn 0.966388 0.056979 -0.250693
vn 0.000000 1.000000 0.000000
vn 0.000000 1.000000 0.000000
vn 0.000000 1.000000 0.000000
vn 0.000000 1.000000 0.000000
vn 0.000000 1.000000 0.000000
vn 0.000000 1.000000 0.000000
vn 0.000000 1.000000 0.000000
vn 0.000000 1.000000 0.000000
vn 0.000000 1.000000 0.000000
s off
f 9/1/1 10/2/2 4/3/3
f 22/4/4 9/1/5 4/3/6
f 5/5/7 27/6/8 28/7/9
f 11/8/10 12/9/11 6/10/12
f 28/7/13 29/11/14 5/5/15
f 1/12/16 25/13/17 3/15/18
f 3/15/19 25/13/20 26/14/21
f 23/17/22 8/18/23 21/16/24
f 12/9/25 11/8/26 8/18/27
f 21/16/28 8/18/29 11/8/30
f 7/19/31 17/20/32 8/18/33
f 7/19/34 14/21/35 17/20/36
f 27/6/37 36/22/38 45/23/39
f 13/24/40 17/20/41 16/25/42
f 17/20/43 13/24/44 8/18/45
f 8/18/46 13/24/47 6/10/48
f 16/25/49 17/20/50 14/21/51
f 3/15/52 19/26/53 20/27/54
f 3/15/55 20/27/56 18/28/57
f 23/17/58 22/4/59 2/29/60
f 2/29/61 22/4/62 4/3/63
f 2/29/64 8/18/65 23/17/66
f 24/30/67 16/25/68 46/31/69
f 23/17/70 24/30/71 22/4/72
f 21/16/73 24/30/74 23/17/75
f 15/32/76 26/14/77 9/1/78
f 9/1/79 26/14/80 10/2/81
f 10/2/82 26/14/83 2/29/84
f 2/29/85 26/14/86 25/13/87
f 3/15/88 26/14/89 19/26/90
f 19/26/91 26/14/92 15/32/93
f 7/19/94 28/7/95 14/21/96
f 28/7/97 27/6/98 14/21/99
f 18/28/100 1/12/101 3/15/102
f 30/33/103 33/34/104 29/11/105
f 36/22/106 27/6/107 29/11/108
f 29/11/109 27/6/110 5/5/111
f 18/28/112 20/27/113 19/26/114
f 18/28/115 19/26/116 15/32/117
f 30/33/118 31/35/119 33/34/120
f 18/28/121 31/35/122 7/19/123
f 7/19/124 31/35/125 28/7/126
f 7/19/127 1/12/128 18/28/129
f 2/29/130 4/3/131 10/2/132
f 22/4/133 15/32/134 9/1/135
f 22/4/136 24/30/137 15/32/138
f 16/25/139 24/30/140 13/24/141
f 13/24/142 24/30/143 21/16/144
f 13/24/145 21/16/146 11/8/147
f 13/24/148 11/8/149 6/10/150
f 8/18/151 6/10/152 12/9/153
f 28/7/154 31/35/155 29/11/156
f 29/11/157 31/35/158 30/33/159
f 32/36/160 31/35/161 18/28/162
f 32/36/163 34/37/164 48/38/165
f 33/34/166 31/35/167 32/36/168
f 29/11/169 33/34/170 36/22/171
f 18/28/172 15/32/173 34/37/174
f 35/39/175 44/40/176 15/32/177
f 42/42/178 24/30/179 47/41/180
f 24/30/181 46/31/182 47/41/183
f 36/22/184 38/44/185 45/23/186
f 39/45/187 37/43/188 38/44/189
f 37/43/190 45/23/191 38/44/192
f 50/46/193 51/47/194 36/22/195
f 36/22/196 51/47/197 38/44/198
f 43/48/199 44/40/200 35/39/201
f 35/39/202 42/42/203 43/48/204
f 7/19/205 8/18/206 38/44/207
f 38/44/208 8/18/209 39/45/210
f 8/18/211 2/29/212 39/45/213
f 39/45/214 2/29/215 41/49/216
f 2/29/217 25/13/218 41/49/219
f 1/12/220 40/50/221 25/13/222
f 25/13/223 40/50/224 41/49/225
f 1/12/226 7/19/227 40/50/228
f 40/50/229 7/19/230 49/51/231
f 49/51/232 7/19/233 51/47/234
f 7/19/235 38/44/236 51/47/237
f 18/28/238 34/37/239 32/36/240
f 39/45/241 41/49/242 37/43/243
f 37/43/244 41/49/245 47/41/246
f 41/49/247 43/48/248 47/41/249
f 43/48/250 42/42/251 47/41/252
f 34/37/253 44/40/254 40/50/255
f 41/49/256 40/50/257 43/48/258
f 44/40/259 43/48/260 40/50/261
f 46/31/262 45/23/263 37/43/264
f 47/41/265 46/31/266 37/43/267
f 27/6/268 45/23/269 14/21/270
f 45/23/271 46/31/272 14/21/273
f 46/31/274 16/25/275 14/21/276
f 24/30/277 35/39/278 15/32/279
f 24/30/280 42/42/281 35/39/282
f 15/32/283 44/40/284 34/37/285
f 49/51/286 48/38/287 40/50/288
f 40/50/289 48/38/290 34/37/291
f 51/47/292 50/46/293 49/51/294
f 49/51/295 50/46/296 48/38/297
f 32/36/298 50/46/299 33/34/300
f 33/34/301 50/46/302 36/22/303
f 32/36/304 48/38/305 50/46/306
