# This file uses meters as units for non-parametric coordinates.

v 0.000000 -10.000000 199.999985
v 0.000000 0.000000 191.632065
v -196.121536 0.000000 2.019355
v -4.930685 0.000000 0.000000
v -200.000000 -10.000000 0.000000
v 0.000000 -10.000000 0.000000
v -0.686057 0.000000 198.448013
v 0.000000 -2.643132 199.999985
v 0.000000 0.000000 9.933517
v 0.000000 -3.090549 0.000000
v -26.694145 0.000000 0.000000
v -69.419502 0.000000 0.000000
v -43.712486 0.000000 3.587307
v -55.291019 -3.010455 0.000000
v 0.000000 0.000000 30.882370
v 0.000000 0.000000 70.399544
v 0.000000 -2.601132 35.200905
v -6.073006 0.000000 37.159363
v -177.243744 0.000000 0.000000
v -200.000000 -3.349202 0.000000
v -12.395657 0.000000 186.678909
v -20.022907 -2.713820 179.977081
v -26.681740 0.000000 172.320221
v -21.875011 0.000000 167.644562
v -143.786423 0.000000 49.754772
vt 0.247760 0.303287
vt 0.247760 0.303287
vt 0.247760 0.303287
vt 0.247760 0.303287
vt 0.247760 0.303287
vt 0.247760 0.303287
vt 0.247760 0.303287
vt 0.247760 0.303287
vt 0.247760 0.303287
vt 0.247760 0.303287
vt 0.247760 0.303287
vt 0.247760 0.303287
vt 0.247760 0.303287
vt 0.247760 0.303287
vt 0.247760 0.303287
vt 0.247760 0.303287
vt 0.247760 0.303287
vt 0.247760 0.303287
vt 0.247760 0.303287
vt 0.247760 0.303287
vt 0.247760 0.303287
vt 0.247760 0.303287
vt 0.247760 0.303287
vt 0.247760 0.303287
vt 0.247760 0.303287
vn 0.948441 0.302235 0.095465
vn 0.948441 0.302235 0.095465
vn 0.948441 0.302235 0.095465
vn 0.000000 1.000000 0.000000
vn 0.000000 1.000000 0.000000
vn 0.000000 1.000000 0.000000
vn -0.086207 0.585738 -0.805903
vn -0.086207 0.585738 -0.805903
vn -0.086207 0.585738 -0.805903
vn 0.000000 -1.000000 0.000000
vn 0.000000 -1.000000 0.000000
vn 0.000000 -1.000000 0.000000
vn 0.513550 0.819321 -0.254910
vn 0.513550 0.819321 -0.254910
vn 0.513550 0.819321 -0.254910
vn 1.000000 0.000000 0.000000
vn 1.000000 0.000000 0.000000
vn 1.000000 0.000000 0.000000
vn 1.000000 0.000000 0.000000
vn 1.000000 0.000000 0.000000
vn 1.000000 0.000000 0.000000
vn 1.000000 0.000000 0.000000
vn 1.000000 0.000000 0.000000
vn 1.000000 0.000000 0.000000
vn 0.000000 0.000000 -1.000000
vn 0.000000 0.000000 -1.000000
vn 0.000000 0.000000 -1.000000
vn 0.000000 0.000000 -1.000000
vn 0.000000 0.000000 -1.000000
vn 0.000000 0.000000 -1.000000
vn -0.093765 0.890695 -0.444827
vn -0.093765 0.890695 -0.444827
vn -0.093765 0.890695 -0.444827
vn 0.000000 0.000000 -1.000000
vn 0.000000 0.000000 -1.000000
vn 0.000000 0.000000 -1.000000
vn 0.000000 0.000000 -1.000000
vn 0.000000 0.000000 -1.000000
vn 0.000000 0.000000 -1.000000
vn 0.115951 0.544176 -0.830920
vn 0.115951 0.544176 -0.830920
vn 0.115951 0.544176 -0.830920
vn 1.000000 0.000000 0.000000
vn 1.000000 0.000000 0.000000
vn 1.000000 0.000000 0.000000
vn 1.000000 0.000000 0.000000
vn 1.000000 0.000000 0.000000
vn 1.000000 0.000000 0.000000
vn 1.000000 0.000000 0.000000
vn 1.000000 0.000000 0.000000
vn 1.000000 0.000000 0.000000
vn 0.374091 0.924870 -0.068347
vn 0.374091 0.924870 -0.068347
vn 0.374091 0.924870 -0.068347
vn 0.470555 0.755852 0.455264
vn 0.470555 0.755852 0.455264
vn 0.470555 0.755852 0.455264
vn 0.000000 0.000000 -1.000000
vn 0.000000 0.000000 -1.000000
vn 0.000000 0.000000 -1.000000
vn 0.000000 0.000000 -1.000000
vn 0.000000 0.000000 -1.000000
vn 0.000000 0.000000 -1.000000
vn 1.000000 0.000000 0.000000
vn 1.000000 0.000000 0.000000
vn 1.000000 0.000000 0.000000
vn 0.000000 1.000000 0.000000
vn 0.000000 1.000000 0.000000
vn 0.000000 1.000000 0.000000
vn 0.000000 1.000000 0.000000
vn 0.000000 1.000000 0.000000
vn 0.000000 1.000000 0.000000
vn 0.000000 1.000000 0.000000
vn 0.000000 1.000000 0.000000
vn 0.000000 1.000000 0.000000
vn 0.000000 1.000000 0.000000
vn 0.000000 1.000000 0.000000
vn 0.000000 1.000000 0.000000
vn 0.000000 1.000000 0.000000
vn 0.000000 1.000000 0.000000
vn 0.000000 1.000000 0.000000
vn 0.000000 0.000000 -1.000000
vn 0.000000 0.000000 -1.000000
vn 0.000000 0.000000 -1.000000
vn -0.707107 0.000000 0.707107
vn -0.707107 0.000000 0.707107
vn -0.707107 0.000000 0.707107
vn -0.707107 0.000000 0.707107
vn -0.707107 0.000000 0.707107
vn -0.707107 0.000000 0.707107
vn -0.707107 0.000000 0.707107
vn -0.707107 0.000000 0.707107
vn -0.707107 0.000000 0.707107
vn -0.687466 0.236490 0.686632
vn -0.690081 0.227053 0.687193
vn -0.687569 0.236121 0.686655
vn -0.687569 0.236121 0.686655
vn -0.690081 0.227053 0.687193
vn -0.690838 0.224274 0.687346
vn -0.685185 0.249496 0.684305
vn -0.683658 0.257772 0.682764
vn -0.659598 0.366336 0.656299
vn -0.659598 0.366336 0.656299
vn -0.683658 0.257772 0.682764
vn -0.654496 0.384175 0.651187
vn -0.683658 0.257772 0.682764
vn 0.000000 1.000000 0.000000
vn -0.654496 0.384175 0.651187
vn 0.180409 0.965948 0.185467
vn 0.180409 0.965948 0.185467
vn 0.180409 0.965948 0.185467
vn 0.000000 1.000000 0.000000
vn 0.000000 1.000000 0.000000
vn 0.000000 1.000000 0.000000
vn 0.000000 1.000000 0.000000
vn 0.000000 1.000000 0.000000
vn 0.000000 1.000000 0.000000
vn -0.516637 0.816632 0.257292
vn -0.516637 0.816632 0.257292
vn -0.516637 0.816632 0.257292
vn 0.000000 1.000000 0.000000
vn 0.000000 1.000000 0.000000
vn 0.000000 1.000000 0.000000
vn 0.000000 1.000000 0.000000
vn 0.000000 1.000000 0.000000
vn 0.000000 1.000000 0.000000
vn 0.000000 1.000000 0.000000
vn 0.000000 1.000000 0.000000
vn 0.000000 1.000000 0.000000
vn 0.000000 1.000000 0.000000
vn 0.000000 1.000000 0.000000
vn 0.000000 1.000000 0.000000
vn 0.000000 1.000000 0.000000
vn 0.000000 1.000000 0.000000
vn 0.000000 1.000000 0.000000
vn 0.000000 1.000000 0.000000
vn 0.000000 1.000000 0.000000
vn 0.000000 1.000000 0.000000
s off
f 7/1/1 8/2/2 2/3/3
f 16/4/4 7/1/5 2/3/6
f 3/5/7 19/6/8 20/7/9
f 5/8/10 6/9/11 1/10/12
f 9/11/13 10/12/14 4/13/15
f 17/15/16 6/9/17 15/14/18
f 10/12/19 9/11/20 6/9/21
f 15/14/22 6/9/23 9/11/24
f 5/8/25 14/16/26 6/9/27
f 5/8/28 12/17/29 14/16/30
f 11/18/31 14/16/32 13/19/33
f 14/16/34 11/18/35 6/9/36
f 6/9/37 11/18/38 4/13/39
f 13/19/40 14/16/41 12/17/42
f 17/15/43 16/4/44 1/10/45
f 1/10/46 16/4/47 2/3/48
f 1/10/49 6/9/50 17/15/51
f 17/15/52 18/20/53 16/4/54
f 15/14/55 18/20/56 17/15/57
f 5/8/58 20/7/59 12/17/60
f 20/7/61 19/6/62 12/17/63
f 1/10/64 2/3/65 8/2/66
f 12/17/67 25/21/68 13/19/69
f 13/19/70 18/20/71 11/18/72
f 11/18/73 18/20/74 15/14/75
f 11/18/76 15/14/77 9/11/78
f 11/18/79 9/11/80 4/13/81
f 6/9/82 4/13/83 10/12/84
f 1/10/85 8/2/86 5/8/87
f 8/2/88 22/22/89 5/8/90
f 22/22/91 20/7/92 5/8/93
f 22/22/94 8/2/95 21/23/96
f 21/23/97 8/2/98 7/1/99
f 22/22/100 23/24/101 20/7/102
f 20/7/103 23/24/104 3/5/105
f 23/24/106 25/21/107 3/5/108
f 22/22/109 24/25/110 23/24/111
f 7/1/112 16/4/113 21/23/114
f 16/4/115 24/25/116 21/23/117
f 21/23/118 24/25/119 22/22/120
f 13/19/121 24/25/122 16/4/123
f 3/5/124 25/21/125 19/6/126
f 19/6/127 25/21/128 12/17/129
f 13/19/130 16/4/131 18/20/132
f 13/19/133 25/21/134 23/24/135
f 13/19/136 23/24/137 24/25/138
