# This file uses meters as units for non-parametric coordinates.

v -100.000000 0.000000 82.992661
v -3.825682 0.000000 100.000000
v -99.999992 268.815918 0.000000
v 0.000000 270.631439 0.000000
v -100.000000 0.000000 0.000000
v 0.000000 0.000000 0.000000
v -3.744906 274.669830 0.000000
v 0.000000 271.510315 1.150292
v -94.303688 274.669830 0.000000
v -100.000000 269.209351 1.988018
v 0.000000 40.959484 85.087738
v 0.000000 0.000000 89.690536
v -61.220024 0.000000 100.000000
v -32.081726 0.000000 100.000000
v -41.679306 5.722614 97.916550
v -43.247025 0.000000 97.916550
v -100.000015 34.438011 87.462036
v -90.562164 0.000000 100.000000
v -100.000000 10.244867 96.270119
v -100.000015 48.017315 82.518173
v 0.000000 88.073997 67.934593
v -90.550079 42.876686 84.389732
v -10.533343 62.604610 77.207321
v 0.000000 49.156063 61.373638
v -100.000015 37.164635 80.422424
v -100.000000 179.801865 34.538910
v -100.000000 150.262680 45.293343
v -92.481026 177.586609 35.345425
v -100.000000 161.712219 31.063995
vt 0.247760 0.303287
vt 0.247760 0.303287
vt 0.247760 0.303287
vt 0.247760 0.303287
vt 0.247760 0.303287
vt 0.247760 0.303287
vt 0.247760 0.303287
vt 0.247760 0.303287
vt 0.247760 0.303287
vt 0.247760 0.303287
vt 0.247760 0.303287
vt 0.247760 0.303287
vt 0.247760 0.303287
vt 0.247760 0.303287
vt 0.247760 0.303287
vt 0.247760 0.303287
vt 0.247760 0.303287
vt 0.247760 0.303287
vt 0.247760 0.303287
vt 0.247760 0.303287
vt 0.247760 0.303287
vt 0.247760 0.303287
vt 0.247760 0.303287
vt 0.247760 0.303287
vt 0.247760 0.303287
vt 0.247760 0.303287
vt 0.247760 0.303287
vt 0.247760 0.303287
vt 0.247760 0.303287
vn -0.740196 -0.532344 0.410755
vn -0.740196 -0.532344 0.410755
vn -0.740196 -0.532344 0.410755
vn 0.000000 -1.000000 0.000000
vn 0.000000 -1.000000 0.000000
vn 0.000000 -1.000000 0.000000
vn 0.000000 -1.000000 0.000000
vn 0.000000 -1.000000 0.000000
vn 0.000000 -1.000000 0.000000
vn 1.000000 0.000000 0.000000
vn 1.000000 0.000000 0.000000
vn 1.000000 0.000000 0.000000
vn 1.000000 0.000000 0.000000
vn 1.000000 0.000000 0.000000
vn 1.000000 0.000000 0.000000
vn 0.000133 0.342245 0.939611
vn 0.007740 0.350181 0.936650
vn 0.650670 0.603383 -0.461040
vn -0.011897 0.353016 0.935542
vn -0.000193 0.342284 0.939597
vn -0.709958 0.690847 -0.136713
vn 0.000000 0.000000 -1.000000
vn 0.000000 0.000000 -1.000000
vn 0.000000 0.000000 -1.000000
vn 0.000000 0.000000 -1.000000
vn 0.000000 0.000000 -1.000000
vn 0.000000 0.000000 -1.000000
vn 0.000000 0.000000 -1.000000
vn 0.000000 0.000000 -1.000000
vn 0.000000 0.000000 -1.000000
vn 0.000000 0.000000 -1.000000
vn 0.000000 0.000000 -1.000000
vn 0.000000 0.000000 -1.000000
vn 0.936815 0.039066 0.347638
vn 0.936815 0.039066 0.347638
vn 0.936815 0.039066 0.347638
vn 0.000000 0.342106 0.939662
vn 0.000000 0.342106 0.939661
vn 0.000000 0.342106 0.939662
vn 0.000000 0.342106 0.939662
vn 0.000000 0.342106 0.939661
vn 0.000000 0.342106 0.939662
vn 0.115093 -0.031530 0.992854
vn 0.115093 -0.031530 0.992854
vn 0.115093 -0.031530 0.992854
vn -0.183204 0.050189 0.981793
vn -0.183204 0.050189 0.981793
vn -0.183204 0.050189 0.981793
vn 0.000000 0.342106 0.939661
vn 0.000000 0.342106 0.939661
vn -0.011897 0.353016 0.935542
vn 0.007740 0.350181 0.936650
vn 0.000133 0.342245 0.939611
vn 0.000000 0.342106 0.939661
vn 0.000133 0.342245 0.939611
vn -0.000193 0.342284 0.939597
vn 0.000000 0.342106 0.939661
vn 0.000000 0.342106 0.939661
vn -0.000193 0.342284 0.939597
vn -0.011897 0.353016 0.935542
vn -0.285237 -0.181729 0.941071
vn -0.285237 -0.181729 0.941071
vn -0.285237 -0.181729 0.941071
vn 0.000000 0.342106 0.939662
vn -0.000000 0.342106 0.939661
vn 0.000000 0.342106 0.939662
vn 0.000000 0.342106 0.939662
vn -0.000000 0.342106 0.939661
vn -0.000000 0.342106 0.939662
vn -0.000002 0.342106 0.939662
vn -0.000000 0.342106 0.939662
vn -0.000000 0.342106 0.939661
vn -1.000000 -0.000001 0.000000
vn -1.000000 -0.000001 0.000000
vn -1.000000 -0.000001 0.000000
vn -1.000000 -0.000001 0.000000
vn -1.000000 -0.000001 0.000000
vn -1.000000 -0.000001 0.000000
vn 0.000001 0.342106 0.939661
vn 0.000000 0.342106 0.939661
vn 0.000000 0.342106 0.939661
vn 0.000000 0.342106 0.939661
vn -0.000000 0.342106 0.939662
vn 0.000000 0.342106 0.939661
vn -0.000000 0.342106 0.939662
vn -0.000000 0.342106 0.939661
vn 0.000000 0.342106 0.939661
vn 0.785682 -0.102840 0.610023
vn 0.785682 -0.102840 0.610023
vn 0.785682 -0.102840 0.610023
vn -1.000000 0.000000 -0.000000
vn -1.000000 0.000000 -0.000000
vn -1.000000 0.000000 -0.000000
vn -0.581776 0.758445 0.293765
vn -0.581776 0.758445 0.293765
vn -0.581776 0.758445 0.293765
vn 0.861643 0.479670 0.165794
vn 0.861643 0.479670 0.165794
vn 0.861643 0.479670 0.165794
vn 1.000000 0.000000 0.000000
vn 1.000000 0.000000 0.000000
vn 1.000000 0.000000 0.000000
vn 1.000000 0.000000 0.000000
vn 1.000000 0.000000 0.000000
vn 1.000000 0.000000 0.000000
vn 1.000000 0.000000 0.000000
vn 1.000000 0.000000 0.000000
vn 1.000000 0.000000 0.000000
vn -1.000000 -0.000002 -0.000000
vn -1.000000 -0.000002 -0.000000
vn -1.000000 -0.000002 -0.000000
vn -1.000000 0.000000 -0.000000
vn -1.000000 0.000000 -0.000000
vn -1.000000 0.000000 -0.000000
vn -1.000000 0.000003 -0.000004
vn -1.000000 0.000000 -0.000000
vn -1.000000 -0.000001 -0.000000
vn -1.000000 0.000000 -0.000000
vn -1.000000 -0.000000 -0.000000
vn -1.000000 0.000000 -0.000000
vn -1.000000 -0.000000 -0.000000
vn -1.000000 -0.000001 -0.000000
vn -1.000000 0.000000 -0.000000
vn -0.158874 -0.186249 0.969572
vn -0.158874 -0.186249 0.969572
vn -0.158874 -0.186249 0.969572
vn -0.000000 0.342106 0.939662
vn 0.000000 0.342106 0.939661
vn 0.000000 0.342106 0.939661
vn 0.000000 0.342106 0.939661
vn 0.000000 0.342106 0.939661
vn 0.000000 0.342106 0.939661
vn 0.000000 0.342106 0.939661
vn 0.000000 0.342105 0.939662
vn 0.000000 0.342106 0.939661
vn -1.000000 0.000000 0.000000
vn -1.000000 0.000000 0.000000
vn -1.000000 0.000000 0.000000
vn -0.894592 0.348169 0.280151
vn -0.894592 0.348169 0.280151
vn -0.894592 0.348169 0.280151
vn 0.000000 0.342106 0.939662
vn -0.000000 0.342106 0.939661
vn -0.000000 0.342106 0.939661
vn -0.000000 0.342106 0.939661
vn -0.000000 0.342106 0.939661
vn -0.000000 0.342106 0.939662
vn 0.000000 -1.000000 0.000000
vn 0.000000 -1.000000 0.000000
vn 0.000000 -1.000000 0.000000
vn 0.000000 -1.000000 0.000000
vn 0.000000 -1.000000 0.000000
vn 0.000000 -1.000000 0.000000
vn 0.000000 -1.000000 0.000000
vn 0.000000 -1.000000 0.000000
vn 0.000000 -1.000000 0.000000
vn 0.000000 -1.000000 0.000000
vn 0.000000 -1.000000 0.000000
vn 0.000000 -1.000000 0.000000
vn 0.000000 -1.000000 0.000000
vn 0.000000 -1.000000 0.000000
vn 0.000000 -1.000000 0.000000
s off
f 1/1/1 18/2/2 19/3/3
f 2/7/4 14/4/5 12/6/6
f 14/4/7 6/5/8 12/6/9
f 8/9/10 21/10/11 4/8/12
f 6/5/13 4/8/14 21/10/15
f 7/11/16 8/9/17 4/8/18
f 10/12/19 9/13/20 3/14/21
f 6/5/22 5/15/23 4/8/24
f 4/8/25 5/15/26 7/11/27
f 5/15/28 3/14/29 7/11/30
f 3/14/31 9/13/32 7/11/33
f 2/7/34 12/6/35 11/16/36
f 15/17/37 14/4/38 11/16/39
f 11/16/40 14/4/41 2/7/42
f 16/18/43 15/17/44 13/19/45
f 14/4/46 15/17/47 16/18/48
f 26/20/49 28/21/50 10/12/51
f 8/9/52 7/11/53 28/21/54
f 7/11/55 9/13/56 28/21/57
f 28/21/58 9/13/59 10/12/60
f 20/22/61 25/23/62 22/24/63
f 15/17/64 17/25/65 13/19/66
f 13/19/67 17/25/68 18/2/69
f 19/3/70 18/2/71 17/25/72
f 5/15/73 1/1/74 17/25/75
f 17/25/76 1/1/77 19/3/78
f 17/25/79 15/17/80 22/24/81
f 15/17/82 11/16/83 22/24/84
f 11/16/85 23/26/86 22/24/87
f 21/10/88 23/26/89 24/27/90
f 5/15/91 25/23/92 20/22/93
f 22/24/94 25/23/95 17/25/96
f 24/27/97 23/26/98 11/16/99
f 11/16/100 6/5/101 24/27/102
f 6/5/103 21/10/104 24/27/105
f 11/16/106 12/6/107 6/5/108
f 5/15/109 17/25/110 25/23/111
f 5/15/112 20/22/113 27/28/114
f 10/12/115 3/14/116 26/20/117
f 5/15/118 29/29/119 3/14/120
f 29/29/121 26/20/122 3/14/123
f 26/20/124 29/29/125 28/21/126
f 21/10/127 27/28/128 23/26/129
f 27/28/130 20/22/131 23/26/132
f 20/22/133 22/24/134 23/26/135
f 5/15/136 27/28/137 29/29/138
f 29/29/139 27/28/140 28/21/141
f 27/28/142 21/10/143 28/21/144
f 28/21/145 21/10/146 8/9/147
f 5/15/148 13/19/149 1/1/150
f 1/1/151 13/19/152 18/2/153
f 16/18/154 6/5/155 14/4/156
f 5/15/157 16/18/158 13/19/159
f 5/15/160 6/5/161 16/18/162
