# This file uses meters as units for non-parametric coordinates.

v -100.000000 57.721230 99.999992
v 0.000000 0.000000 100.000008
v -100.000000 69.290726 99.999969
v 0.000000 11.569519 99.999962
v -100.000000 11.569515 -0.000027
v 0.000000 69.290733 -0.000034
v -100.000000 -0.000001 -0.000005
v 0.000000 57.721226 0.000002
vt 0.247760 0.303287
vt 0.247760 0.303287
vt 0.247760 0.303287
vt 0.247760 0.303287
vt 0.247760 0.303287
vt 0.247760 0.303287
vt 0.247760 0.303287
vt 0.247760 0.303287
vn 0.000003 0.000004 1.000000
vn 0.000002 0.000004 1.000000
vn 0.000001 0.000002 1.000000
vn 0.000001 0.000002 1.000000
vn 0.000002 0.000004 1.000000
vn 0.000000 0.000002 1.000000
vn 0.447149 0.774671 0.447149
vn 0.447149 0.774671 0.447149
vn 0.447149 0.774671 0.447149
vn 0.000002 -0.000003 -1.000000
vn 0.000002 -0.000003 -1.000000
vn 0.000001 -0.000002 -1.000000
vn 0.000001 -0.000002 -1.000000
vn 0.000002 -0.000003 -1.000000
vn 0.000001 -0.000002 -1.000000
vn -0.447149 -0.774671 -0.447149
vn -0.447149 -0.774671 -0.447149
vn -0.447149 -0.774671 -0.447149
vn 1.000000 0.000000 0.000000
vn 1.000000 0.000000 0.000000
vn 1.000000 0.000000 0.000000
vn 1.000000 0.000000 0.000000
vn 1.000000 0.000000 0.000000
vn 1.000000 0.000000 0.000000
vn -1.000000 0.000000 0.000000
vn -1.000000 0.000000 0.000000
vn -1.000000 0.000000 0.000000
vn -1.000000 0.000000 0.000000
vn -1.000000 0.000000 0.000000
vn -1.000000 0.000000 0.000000
vn -0.447149 0.774671 -0.447149
vn -0.447149 0.774671 -0.447149
vn -0.447149 0.774671 -0.447149
vn 0.447149 -0.774671 0.447149
vn 0.447149 -0.774671 0.447149
vn 0.447149 -0.774671 0.447149
s off
f 2/2/1 4/3/2 1/1/3
f 1/1/4 4/3/5 3/4/6
f 3/4/7 4/3/8 6/5/9
f 6/5/10 8/7/11 5/6/12
f 5/6/13 8/7/14 7/8/15
f 1/1/16 8/7/17 2/2/18
f 2/2/19 8/7/20 4/3/21
f 4/3/22 8/7/23 6/5/24
f 7/8/25 1/1/26 5/6/27
f 5/6/28 1/1/29 3/4/30
f 3/4/31 6/5/32 5/6/33
f 7/8/34 8/7/35 1/1/36
