# This file uses meters as units for non-parametric coordinates.

v -100.000000 -10.000000 100.000000
v 0.000000 -10.000000 100.000000
v -100.000000 -2.372857 100.000000
v 0.000000 0.000000 95.816040
v -98.756783 0.000000 1.583236
v -2.465342 0.000000 0.000000
v -100.000000 -10.000000 0.000000
v 0.000000 -10.000000 0.000000
v -3.676564 0.000000 100.000000
v 0.000000 -2.643132 100.000000
v 0.000000 0.000000 4.966759
v 0.000000 -3.090549 0.000000
v -52.504051 0.000000 0.000000
v -73.866730 0.000000 0.000000
v -26.027708 0.000000 99.061584
v -65.653099 0.000000 1.793653
v -66.802490 -3.010455 0.000000
v -100.000000 0.000000 71.782990
v -82.132393 0.000000 100.000015
v -97.711479 0.000000 97.590790
v 0.000000 0.000000 50.805832
v 0.000000 0.000000 70.564423
v 0.000000 -2.601132 52.965099
v -3.036503 0.000000 53.944324
v -26.889170 -10.000000 100.000000
v -26.546728 -6.024886 100.000000
v -88.621872 0.000000 0.000000
v -100.000000 -3.349202 0.000000
v -99.265656 0.000000 8.534788
v -8.381406 0.000000 7.881928
v -90.000000 0.000000 10.000000
v -90.000000 -4.044119 90.000000
v -10.000000 0.000000 90.000000
v -10.000000 -10.000000 90.000000
v -10.000000 -10.000000 10.000000
v -90.000000 -10.000000 10.000000
v -90.000000 -10.000000 90.000000
v -80.856659 0.000000 90.000000
v -90.906906 0.000000 90.682137
v -92.812988 0.000000 84.875565
v -90.000000 0.000000 81.413971
v -90.000000 0.000000 41.008446
v -92.309319 0.000000 23.634775
v -90.000000 -2.421546 20.718540
v -27.238188 0.000000 10.000000
v -10.000000 -3.566771 10.000000
v -10.000000 0.000000 15.822677
v -10.000000 0.000000 49.406570
v -10.000000 -10.000000 48.808880
v -8.839729 0.000000 52.372253
v -8.839729 -10.000000 51.146919
v -55.255512 -4.497258 10.000000
v -47.047451 0.000000 10.000000
v -66.166229 0.000000 10.000000
v -54.541012 0.000000 7.403194
vt 0.247760 0.303287
vt 0.247760 0.303287
vt 0.247760 0.303287
vt 0.247760 0.303287
vt 0.247760 0.303287
vt 0.247760 0.303287
vt 0.247760 0.303287
vt 0.247760 0.303287
vt 0.247760 0.303287
vt 0.247760 0.303287
vt 0.247760 0.303287
vt 0.247760 0.303287
vt 0.247760 0.303287
vt 0.247760 0.303287
vt 0.247760 0.303287
vt 0.247760 0.303287
vt 0.247760 0.303287
vt 0.247760 0.303287
vt 0.247760 0.303287
vt 0.247760 0.303287
vt 0.247760 0.303287
vt 0.247760 0.303287
vt 0.247760 0.303287
vt 0.247760 0.303287
vt 0.247760 0.303287
vt 0.247760 0.303287
vt 0.247760 0.303287
vt 0.247760 0.303287
vt 0.247760 0.303287
vt 0.247760 0.303287
vt 0.247760 0.303287
vt 0.247760 0.303287
vt 0.247760 0.303287
vt 0.247760 0.303287
vt 0.247760 0.303287
vt 0.247760 0.303287
vt 0.247760 0.303287
vt 0.247760 0.303287
vt 0.247760 0.303287
vt 0.247760 0.303287
vt 0.247760 0.303287
vt 0.247760 0.303287
vt 0.247760 0.303287
vt 0.247760 0.303287
vt 0.247760 0.303287
vt 0.247760 0.303287
vt 0.247760 0.303287
vt 0.247760 0.303287
vt 0.247760 0.303287
vt 0.247760 0.303287
vt 0.247760 0.303287
vt 0.247760 0.303287
vt 0.247760 0.303287
vt 0.247760 0.303287
vt 0.247760 0.303287
vn 0.519384 0.722456 0.456397
vn 0.519384 0.722456 0.456397
vn 0.519384 0.722456 0.456397
vn 0.000000 1.000000 0.000000
vn 0.000000 1.000000 0.000000
vn 0.000000 1.000000 0.000000
vn -0.136693 0.464381 -0.875023
vn -0.136693 0.464381 -0.875023
vn -0.136693 0.464381 -0.875023
vn 0.728799 0.581366 -0.361753
vn 0.728799 0.581366 -0.361753
vn 0.728799 0.581366 -0.361753
vn -0.924486 0.375160 -0.067675
vn -0.924486 0.375160 -0.067675
vn -0.924486 0.375160 -0.067675
vn 0.000000 0.000000 1.000000
vn 0.000000 0.000000 1.000000
vn 0.000000 0.000000 1.000000
vn 0.000000 0.000000 1.000000
vn 0.000000 0.000000 1.000000
vn 0.000000 0.000000 1.000000
vn 1.000000 0.000000 0.000000
vn 1.000000 0.000000 0.000000
vn 1.000000 0.000000 0.000000
vn 1.000000 0.000000 0.000000
vn 1.000000 0.000000 0.000000
vn 1.000000 0.000000 0.000000
vn 1.000000 0.000000 0.000000
vn 1.000000 0.000000 0.000000
vn 1.000000 0.000000 0.000000
vn 0.000000 0.000000 -1.000000
vn 0.000000 0.000000 -1.000000
vn 0.000000 0.000000 -1.000000
vn 0.000000 0.000000 -1.000000
vn 0.000000 0.000000 -1.000000
vn 0.000000 0.000000 -1.000000
vn -0.113739 0.540214 -0.833806
vn -0.113739 0.540214 -0.833806
vn -0.113739 0.540214 -0.833806
vn 0.000000 0.000000 -1.000000
vn 0.000000 0.000000 -1.000000
vn 0.000000 0.000000 -1.000000
vn 0.000000 0.000000 -1.000000
vn 0.000000 0.000000 -1.000000
vn 0.000000 0.000000 -1.000000
vn 0.190775 0.447668 -0.873612
vn 0.190775 0.447668 -0.873612
vn 0.190775 0.447668 -0.873612
vn -0.100243 0.754829 0.648217
vn -0.100243 0.754829 0.648217
vn -0.100243 0.754829 0.648217
vn -0.686833 0.724259 0.060905
vn -0.686833 0.724259 0.060905
vn -0.686833 0.724259 0.060905
vn 1.000000 0.000000 0.000000
vn 1.000000 0.000000 0.000000
vn 1.000000 0.000000 0.000000
vn 1.000000 0.000000 0.000000
vn 1.000000 0.000000 0.000000
vn 1.000000 0.000000 0.000000
vn 1.000000 0.000000 0.000000
vn 1.000000 0.000000 0.000000
vn 1.000000 0.000000 0.000000
vn 0.624821 0.772377 -0.114155
vn 0.624821 0.772377 -0.114155
vn 0.624821 0.772377 -0.114155
vn 0.622439 0.499912 0.602212
vn 0.622439 0.499911 0.602212
vn 0.622439 0.499911 0.602212
vn -0.041426 0.157252 0.986689
vn -0.038952 0.147861 0.988241
vn -0.006647 0.025229 0.999660
vn -0.006647 0.025229 0.999660
vn -0.038952 0.147861 0.988241
vn -0.000001 0.000000 1.000000
vn 0.000000 0.000000 1.000000
vn 0.000000 0.000000 1.000000
vn 0.000000 0.000000 1.000000
vn 0.000000 0.000000 1.000000
vn 0.000000 0.000000 1.000000
vn 0.000000 0.000000 1.000000
vn -0.000000 -0.000005 1.000000
vn 0.016109 0.148618 0.988763
vn 0.000844 0.007781 0.999969
vn 0.000844 0.007781 0.999969
vn 0.016109 0.148618 0.988763
vn 0.016528 0.152490 0.988167
vn 0.000000 0.000000 -1.000000
vn 0.000000 0.000000 -1.000000
vn 0.000000 0.000000 -1.000000
vn 0.000000 0.000000 -1.000000
vn 0.000000 0.000000 -1.000000
vn 0.000000 0.000000 -1.000000
vn -1.000000 0.000000 0.000000
vn -1.000000 0.000000 0.000000
vn -1.000000 0.000000 0.000000
vn 0.000000 1.000000 0.000000
vn 0.000000 1.000000 0.000000
vn 0.000000 1.000000 0.000000
vn -0.970344 0.241465 -0.011266
vn -0.970344 0.241465 -0.011266
vn -0.970344 0.241465 -0.011266
vn -1.000000 0.000000 0.000000
vn -1.000000 0.000000 0.000000
vn -1.000000 0.000000 0.000000
vn -1.000000 0.000000 0.000000
vn -1.000000 0.000000 0.000000
vn -1.000000 0.000000 0.000000
vn 1.000000 0.000000 0.000000
vn 1.000000 0.000000 0.000000
vn 1.000000 0.000000 0.000000
vn 0.000000 1.000000 0.000000
vn 0.000000 1.000000 0.000000
vn 0.000000 1.000000 0.000000
vn 0.000000 1.000000 0.000000
vn 0.000000 1.000000 0.000000
vn 0.000000 1.000000 0.000000
vn 0.000000 1.000000 0.000000
vn 0.000000 1.000000 0.000000
vn 0.000000 1.000000 0.000000
vn 0.000000 1.000000 0.000000
vn 0.000000 1.000000 0.000000
vn 0.000000 1.000000 0.000000
vn 0.000000 0.000000 -1.000000
vn 0.000000 0.000000 -1.000000
vn 0.000000 0.000000 -1.000000
vn 0.000000 1.000000 0.000000
vn 0.000000 1.000000 0.000000
vn 0.000000 1.000000 0.000000
vn 0.000000 1.000000 0.000000
vn 0.000000 1.000000 0.000000
vn 0.000000 1.000000 0.000000
vn 0.000000 1.000000 0.000000
vn 0.000000 1.000000 0.000000
vn 0.000000 1.000000 0.000000
vn 0.000000 1.000000 0.000000
vn 0.000000 1.000000 0.000000
vn 0.000000 1.000000 0.000000
vn 0.000000 1.000000 0.000000
vn 0.000000 1.000000 0.000000
vn 0.000000 1.000000 0.000000
vn 0.000000 1.000000 0.000000
vn 0.000000 1.000000 0.000000
vn 0.000000 1.000000 0.000000
vn 0.000000 1.000000 0.000000
vn 0.000000 1.000000 0.000000
vn 0.000000 1.000000 0.000000
vn 0.000000 1.000000 0.000000
vn 0.000000 1.000000 0.000000
vn 0.000000 1.000000 0.000000
vn 0.000000 1.000000 0.000000
vn 0.000000 1.000000 0.000000
vn 0.000000 1.000000 0.000000
vn 0.000000 1.000000 0.000000
vn 0.000000 1.000000 0.000000
vn 0.000000 1.000000 0.000000
vn 0.000000 1.000000 0.000000
vn 0.000000 1.000000 0.000000
vn 0.000000 1.000000 0.000000
vn 0.000000 1.000000 0.000000
vn 0.000000 1.000000 0.000000
vn 0.000000 1.000000 0.000000
vn 0.000000 1.000000 0.000000
vn 0.000000 1.000000 0.000000
vn 0.000000 1.000000 0.000000
vn 0.000000 1.000000 0.000000
vn 0.000000 1.000000 0.000000
vn 0.000000 1.000000 0.000000
vn 0.000000 1.000000 0.000000
vn 0.000000 1.000000 0.000000
vn 0.000000 1.000000 0.000000
vn 0.000000 1.000000 0.000000
vn 0.000000 1.000000 0.000000
vn 0.000000 1.000000 0.000000
vn -0.931584 0.309989 -0.189888
vn -0.931584 0.309989 -0.189888
vn -0.931584 0.309989 -0.189888
vn 0.098239 0.474788 0.874600
vn 0.098239 0.474788 0.874600
vn 0.098239 0.474788 0.874600
vn 0.792875 0.594404 0.134289
vn 0.792875 0.594404 0.134289
vn 0.792875 0.594404 0.134289
vn 0.000000 0.000000 -1.000000
vn 0.000000 0.000000 -1.000000
vn 0.000000 0.000000 -1.000000
vn 0.000000 0.000000 -1.000000
vn 0.000000 0.000000 -1.000000
vn 0.000000 0.000000 -1.000000
vn 0.000000 0.000000 -1.000000
vn 0.000000 0.000000 -1.000000
vn 0.000000 0.000000 -1.000000
vn 0.000000 -1.000000 0.000000
vn 0.000000 -1.000000 0.000000
vn 0.000000 -1.000000 0.000000
vn 0.000000 -1.000000 0.000000
vn 0.000000 -1.000000 0.000000
vn 0.000000 -1.000000 0.000000
vn 0.000000 -1.000000 0.000000
vn 0.000000 -1.000000 -0.000000
vn 0.000000 -1.000000 -0.000000
vn 0.000000 -1.000000 -0.000000
vn 0.000000 -1.000000 -0.000000
vn 0.000000 -1.000000 -0.000000
vn 0.000000 -1.000000 0.000000
vn 0.000000 -1.000000 0.000000
vn 0.000000 -1.000000 0.000000
vn 0.000000 -1.000000 0.000000
vn 0.000000 -1.000000 0.000000
vn 0.000000 -1.000000 0.000000
vn 0.000000 -1.000000 0.000000
vn 0.000000 -1.000000 0.000000
vn 0.000000 -1.000000 0.000000
vn 0.000000 -1.000000 0.000000
vn 0.000000 -1.000000 0.000000
vn 0.000000 -1.000000 0.000000
vn 0.000000 -1.000000 0.000000
vn 0.000000 -1.000000 0.000000
vn 0.000000 -1.000000 0.000000
vn 0.000000 -1.000000 0.000000
vn 0.000000 -1.000000 0.000000
vn 0.000000 -1.000000 0.000000
vn 0.000000 -1.000000 0.000000
vn 0.000000 -1.000000 0.000000
vn 0.000000 -1.000000 0.000000
vn -0.066936 0.151337 -0.986213
vn -0.066936 0.151337 -0.986213
vn -0.066936 0.151337 -0.986213
vn 0.000000 1.000000 0.000000
vn 0.000000 1.000000 0.000000
vn 0.000000 1.000000 0.000000
vn 0.000000 1.000000 0.000000
vn 0.000000 1.000000 0.000000
vn 0.000000 1.000000 0.000000
vn 0.918263 0.256770 -0.301432
vn 0.918263 0.256770 -0.301432
vn 0.918263 0.256770 -0.301432
vn 0.464389 0.801205 0.377376
vn 0.464389 0.801205 0.377376
vn 0.464389 0.801205 0.377376
vn 0.000000 1.000000 0.000000
vn 0.000000 1.000000 0.000000
vn 0.000000 1.000000 0.000000
vn 0.665477 0.741159 -0.088456
vn 0.665477 0.741159 -0.088456
vn 0.665477 0.741159 -0.088456
vn 1.000000 0.000000 0.000000
vn 1.000000 -0.000000 0.000000
vn 1.000000 -0.000000 0.000000
vn 1.000000 -0.000000 0.000000
vn 1.000000 -0.000003 0.000000
vn 1.000000 -0.000000 0.000000
vn 1.000000 -0.000000 0.000000
vn 1.000000 -0.000003 0.000000
vn 1.000000 0.000000 0.000000
vn 1.000000 -0.000003 0.000000
vn 1.000000 0.000000 0.000000
vn 1.000000 0.000000 0.000000
vn 1.000000 0.000000 0.000000
vn 1.000000 0.000000 0.000000
vn 1.000000 0.000000 0.000000
vn 0.000000 1.000000 0.000000
vn 0.000000 1.000000 0.000000
vn 0.000000 1.000000 0.000000
vn 0.000000 0.000000 1.000000
vn 0.000000 0.000000 1.000000
vn 0.000000 0.000000 1.000000
vn 0.000000 0.000000 1.000000
vn 0.000000 0.000000 1.000000
vn 0.000000 0.000000 1.000000
vn -0.999525 0.000000 -0.030821
vn -0.999545 0.003112 -0.029995
vn -0.999530 0.000621 -0.030656
vn -0.999530 0.000621 -0.030656
vn -0.999545 0.003112 -0.029995
vn -0.999548 0.003657 -0.029850
vn 0.000000 1.000000 0.000000
vn 0.000000 1.000000 0.000000
vn 0.000000 1.000000 0.000000
vn 0.000000 1.000000 0.000000
vn 0.000000 1.000000 0.000000
vn 0.000000 1.000000 0.000000
vn 0.000000 1.000000 0.000000
vn 0.000000 1.000000 0.000000
vn 0.000000 1.000000 0.000000
vn 0.000000 1.000000 0.000000
vn 0.000000 1.000000 0.000000
vn 0.000000 1.000000 0.000000
vn -1.000000 0.000000 0.000000
vn -1.000000 0.000000 0.000000
vn -1.000000 0.000000 0.000000
vn -1.000000 0.000000 0.000000
vn -1.000000 0.000000 0.000000
vn -1.000000 0.000000 0.000000
vn -1.000000 0.000000 0.000000
vn -1.000000 0.000000 0.000000
vn -1.000000 0.000000 0.000000
vn 0.000000 1.000000 0.000000
vn 0.000000 1.000000 0.000000
vn 0.000000 1.000000 0.000000
vn -0.930339 -0.044600 0.363978
vn -0.926104 -0.042208 0.374899
vn -0.903730 -0.030542 0.427013
vn -0.903730 -0.030542 0.427013
vn -0.926104 -0.042208 0.374899
vn -0.895448 -0.026560 0.444374
vn 0.000000 1.000000 0.000000
vn 0.000000 1.000000 0.000000
vn 0.000000 1.000000 0.000000
vn 0.000000 1.000000 0.000000
vn 0.000000 1.000000 0.000000
vn 0.000000 1.000000 0.000000
vn 0.192711 0.467532 0.862715
vn 0.192711 0.467532 0.862715
vn 0.192711 0.467532 0.862715
vn -0.281069 0.512987 0.811076
vn -0.281069 0.512987 0.811076
vn -0.281069 0.512987 0.811076
vn 0.000000 0.000000 1.000000
vn 0.000000 0.000000 1.000000
vn 0.000000 0.000000 1.000000
vn 0.000000 0.000000 1.000000
vn 0.000000 0.000000 1.000000
vn 0.000000 0.000000 1.000000
vn 0.000000 0.000000 1.000000
vn 0.000000 0.000000 1.000000
vn 0.000000 0.000000 1.000000
vn 0.000000 0.000000 1.000000
vn 0.000000 0.000000 1.000000
vn 0.000000 0.000000 1.000000
s off
f 9/1/1 10/2/2 4/3/3
f 22/4/4 9/1/5 4/3/6
f 5/5/7 27/6/8 28/7/9
f 11/8/10 12/9/11 6/10/12
f 28/7/13 29/11/14 5/5/15
f 1/12/16 25/13/17 3/15/18
f 3/15/19 25/13/20 26/14/21
f 23/17/22 8/18/23 21/16/24
f 8/18/25 12/9/26 21/16/27
f 21/16/28 12/9/29 11/8/30
f 7/19/31 17/20/32 8/18/33
f 7/19/34 14/21/35 17/20/36
f 13/22/37 17/20/38 16/23/39
f 17/20/40 13/22/41 8/18/42
f 8/18/43 13/22/44 6/10/45
f 16/23/46 17/20/47 14/21/48
f 3/15/49 19/24/50 20/25/51
f 3/15/52 20/25/53 18/26/54
f 23/17/55 22/4/56 2/27/57
f 2/27/58 22/4/59 4/3/60
f 2/27/61 8/18/62 23/17/63
f 23/17/64 24/28/65 22/4/66
f 21/16/67 24/28/68 23/17/69
f 15/29/70 26/14/71 9/1/72
f 9/1/73 26/14/74 10/2/75
f 10/2/76 26/14/77 2/27/78
f 2/27/79 26/14/80 25/13/81
f 3/15/82 26/14/83 19/24/84
f 19/24/85 26/14/86 15/29/87
f 28/7/88 27/6/89 7/19/90
f 7/19/91 27/6/92 14/21/93
f 18/26/94 1/12/95 3/15/96
f 39/30/97 20/25/98 19/24/99
f 28/7/100 18/26/101 29/11/102
f 7/19/103 18/26/104 28/7/105
f 7/19/106 1/12/107 18/26/108
f 2/27/109 4/3/110 10/2/111
f 22/4/112 33/31/113 9/1/114
f 9/1/115 33/31/116 15/29/117
f 11/8/118 6/10/119 30/32/120
f 13/22/121 30/32/122 6/10/123
f 8/18/124 6/10/125 12/9/126
f 30/32/127 24/28/128 21/16/129
f 30/32/130 21/16/131 11/8/132
f 13/22/133 45/33/134 30/32/135
f 13/22/136 16/23/137 31/34/138
f 27/6/139 31/34/140 14/21/141
f 14/21/142 31/34/143 16/23/144
f 29/11/145 31/34/146 5/5/147
f 5/5/148 31/34/149 27/6/150
f 29/11/151 18/26/152 42/37/153
f 40/35/154 41/36/155 18/26/156
f 18/26/157 41/36/158 42/37/159
f 33/31/160 38/38/161 15/29/162
f 39/30/163 19/24/164 38/38/165
f 38/38/166 19/24/167 15/29/168
f 22/4/169 24/28/170 33/31/171
f 24/28/172 48/39/173 50/40/174
f 46/41/175 47/42/176 30/32/177
f 30/32/178 45/33/179 46/41/180
f 31/34/181 43/43/182 44/44/183
f 33/31/184 34/46/185 38/38/186
f 37/47/187 32/45/188 34/46/189
f 32/45/190 38/38/191 34/46/192
f 7/19/193 8/18/194 36/49/195
f 36/49/196 8/18/197 35/48/198
f 1/12/199 37/47/200 25/13/201
f 25/13/202 37/47/203 34/46/204
f 8/18/205 2/27/206 35/48/207
f 34/46/208 51/50/209 2/27/210
f 49/51/211 35/48/212 51/50/213
f 35/48/214 2/27/215 51/50/216
f 1/12/217 7/19/218 37/47/219
f 37/47/220 7/19/221 36/49/222
f 34/46/223 2/27/224 25/13/225
f 39/30/226 38/38/227 32/45/228
f 18/26/229 20/25/230 40/35/231
f 40/35/232 20/25/233 39/30/234
f 40/35/235 39/30/236 32/45/237
f 41/36/238 40/35/239 32/45/240
f 29/11/241 42/37/242 43/43/243
f 42/37/244 44/44/245 43/43/246
f 36/49/247 44/44/248 37/47/249
f 44/44/250 42/37/251 37/47/252
f 37/47/253 42/37/254 32/45/255
f 42/37/256 41/36/257 32/45/258
f 31/34/259 44/44/260 36/49/261
f 29/11/262 43/43/263 31/34/264
f 46/41/265 45/33/266 35/48/267
f 35/48/268 45/33/269 52/52/270
f 33/31/271 50/40/272 34/46/273
f 34/46/274 50/40/275 51/50/276
f 31/34/277 54/53/278 13/22/279
f 13/22/280 54/53/281 55/54/282
f 30/32/283 47/42/284 24/28/285
f 24/28/286 47/42/287 48/39/288
f 48/39/289 47/42/290 49/51/291
f 35/48/292 49/51/293 46/41/294
f 49/51/295 47/42/296 46/41/297
f 24/28/298 50/40/299 33/31/300
f 50/40/301 48/39/302 51/50/303
f 51/50/304 48/39/305 49/51/306
f 13/22/307 55/54/308 53/55/309
f 13/22/310 53/55/311 45/33/312
f 55/54/313 54/53/314 52/52/315
f 53/55/316 55/54/317 52/52/318
f 35/48/319 52/52/320 36/49/321
f 52/52/322 54/53/323 36/49/324
f 36/49/325 54/53/326 31/34/327
f 52/52/328 45/33/329 53/55/330
