# This file uses meters as units for non-parametric coordinates.

v -190.211349 300.000000 61.803413
v -180.700790 294.613861 58.713238
v -190.211349 0.000000 61.803413
v -180.700790 0.000000 58.713238
v 0.000000 0.000000 200.000000
v 0.000000 0.000000 190.000000
v 0.000000 300.000000 200.000000
v 0.000000 300.000000 190.000000
v -200.000000 300.000000 0.000000
v -190.000000 300.000000 0.000000
v -195.165222 0.000000 0.000000
v -190.000000 0.000000 0.000000
v -58.713238 300.000000 180.700775
v -60.314064 300.000000 185.906525
v -61.803413 0.000000 190.211334
v -58.713245 0.000000 180.700775
v -88.424194 300.000000 163.590561
v -61.803413 289.550354 190.211334
v -52.713959 300.000000 191.650955
v -200.000000 5.101740 0.000000
v -198.930710 0.000000 6.751257
v -190.000000 165.888763 0.000000
v -190.000000 199.745712 0.000000
v -188.797287 173.911591 7.593678
v -200.000000 189.047272 0.000000
v -194.797974 177.000153 0.000000
v -182.816528 300.000000 45.354912
v -184.764145 300.000000 60.033504
v -178.633881 300.000000 60.780155
vt 0.247760 0.303287
vt 0.247760 0.303287
vt 0.247760 0.303287
vt 0.247760 0.303287
vt 0.247760 0.303287
vt 0.247760 0.303287
vt 0.247760 0.303287
vt 0.247760 0.303287
vt 0.247760 0.303287
vt 0.247760 0.303287
vt 0.247760 0.303287
vt 0.247760 0.303287
vt 0.247760 0.303287
vt 0.247760 0.303287
vt 0.247760 0.303287
vt 0.247760 0.303287
vt 0.247760 0.303287
vt 0.247760 0.303287
vt 0.247760 0.303287
vt 0.247760 0.303287
vt 0.247760 0.303287
vt 0.247760 0.303287
vt 0.247760 0.303287
vt 0.247760 0.303287
vt 0.247760 0.303287
vt 0.247760 0.303287
vt 0.247760 0.303287
vt 0.247760 0.303287
vt 0.247760 0.303287
vn 0.114659 0.317254 -0.941383
vn 0.114659 0.317254 -0.941383
vn 0.114659 0.317255 -0.941384
vn -0.575036 0.380355 0.724337
vn -0.575036 0.380355 0.724337
vn -0.575036 0.380355 0.724337
vn 1.000000 0.000000 0.000000
vn 1.000000 0.000000 0.000000
vn 1.000000 0.000000 0.000000
vn 1.000000 0.000000 0.000000
vn 1.000000 0.000000 0.000000
vn 1.000000 0.000000 0.000000
vn 0.000000 1.000000 0.000000
vn 0.000000 1.000000 0.000000
vn 0.000000 1.000000 0.000000
vn 0.000000 -1.000000 0.000000
vn 0.000000 -1.000000 0.000000
vn 0.000000 -1.000000 0.000000
vn 0.000000 -1.000000 0.000000
vn 0.000000 -1.000000 0.000000
vn 0.000000 -1.000000 0.000000
vn 0.156434 0.000000 -0.987689
vn 0.156434 -0.000000 -0.987688
vn 0.156434 -0.000000 -0.987689
vn 0.156434 -0.000000 -0.987689
vn 0.156434 -0.000000 -0.987688
vn 0.156434 -0.000000 -0.987688
vn -0.557006 0.382976 0.736936
vn -0.557006 0.382976 0.736936
vn -0.557006 0.382976 0.736936
vn 0.806156 0.581955 0.106964
vn 0.806156 0.581955 0.106964
vn 0.806156 0.581955 0.106964
vn 0.000000 0.000000 -1.000000
vn 0.000000 0.000000 -1.000000
vn 0.000000 0.000000 -1.000000
vn 0.000000 0.000000 -1.000000
vn 0.000000 0.000000 -1.000000
vn 0.000000 0.000000 -1.000000
vn 0.000000 0.000000 -1.000000
vn 0.000000 0.000000 -1.000000
vn 0.000000 0.000000 -1.000000
vn 0.000000 -1.000000 0.000000
vn 0.000000 -1.000000 0.000000
vn 0.000000 -1.000000 0.000000
vn 0.000000 -1.000000 0.000000
vn 0.000000 -1.000000 0.000000
vn 0.000000 -1.000000 0.000000
vn 0.000000 -1.000000 0.000000
vn 0.000000 -1.000000 0.000000
vn 0.000000 -1.000000 0.000000
vn 0.987688 0.000000 -0.156433
vn 0.987688 0.000000 -0.156433
vn 0.987689 0.000000 -0.156434
vn -0.987689 0.000000 0.156434
vn -0.987688 -0.000000 0.156434
vn -0.987688 -0.000000 0.156434
vn -0.987688 -0.000000 0.156434
vn -0.987688 -0.000000 0.156434
vn -0.987689 -0.000000 0.156434
vn -0.987689 -0.000000 0.156434
vn -0.987688 -0.000000 0.156434
vn -0.987688 0.000000 0.156434
vn -0.987688 -0.000000 0.156434
vn -0.987688 0.000000 0.156434
vn -0.987688 0.000000 0.156434
vn 0.000000 -1.000000 0.000000
vn 0.000000 -1.000000 0.000000
vn 0.000000 -1.000000 0.000000
vn 0.000000 -1.000000 0.000000
vn 0.000000 -1.000000 0.000000
vn 0.000000 -1.000000 0.000000
vn 0.707107 0.000000 -0.707107
vn 0.707107 0.000000 -0.707107
vn 0.707107 0.000000 -0.707107
vn 0.707107 0.000000 -0.707107
vn 0.707107 0.000000 -0.707107
vn 0.707107 0.000000 -0.707107
vn 0.707107 0.000000 -0.707107
vn 0.707107 0.000000 -0.707107
vn 0.707107 0.000000 -0.707107
vn -0.707107 0.000000 0.707107
vn -0.707107 0.000000 0.707107
vn -0.707107 0.000000 0.707107
vn -0.707107 0.000000 0.707107
vn -0.707107 0.000000 0.707107
vn -0.707107 0.000000 0.707107
vn -0.707107 0.000000 0.707107
vn -0.707107 0.000000 0.707107
vn -0.707107 0.000000 0.707107
vn -0.156434 0.000000 0.987688
vn -0.156434 0.000000 0.987688
vn -0.156433 0.000000 0.987689
vn -0.156434 0.000000 0.987688
vn -0.156434 0.000000 0.987688
vn -0.156434 0.000000 0.987688
vn -0.156434 0.000000 0.987688
vn -0.156434 0.000000 0.987688
vn -0.156433 0.000000 0.987689
vn -0.672800 -0.637595 -0.375252
vn -0.672800 -0.637595 -0.375252
vn -0.672800 -0.637595 -0.375251
vn 0.987689 0.000000 -0.156434
vn 0.987689 0.000000 -0.156434
vn 0.987689 0.000000 -0.156434
vn 0.987689 0.000000 -0.156434
vn 0.987688 0.000000 -0.156434
vn 0.987688 -0.000000 -0.156434
vn 0.987688 0.000000 -0.156434
vn 0.987688 -0.000000 -0.156434
vn 0.987688 -0.000000 -0.156434
vn 0.987688 -0.000000 -0.156434
vn 0.987688 -0.000000 -0.156434
vn 0.987688 -0.000000 -0.156434
vn 0.987688 -0.000000 -0.156434
vn 0.987689 0.000000 -0.156434
vn 0.987688 -0.000000 -0.156434
vn 0.000000 0.000000 -1.000000
vn 0.000000 0.000000 -1.000000
vn 0.000000 0.000000 -1.000000
vn 0.000000 0.000000 -1.000000
vn 0.000000 0.000000 -1.000000
vn 0.000000 0.000000 -1.000000
vn 0.000000 0.000000 -1.000000
vn 0.000000 0.000000 -1.000000
vn 0.000000 0.000000 -1.000000
vn 0.000000 0.000000 -1.000000
vn 0.000000 0.000000 -1.000000
vn 0.000000 0.000000 -1.000000
vn 0.742904 -0.156709 -0.650796
vn 0.742904 -0.156709 -0.650796
vn 0.742904 -0.156709 -0.650796
vn 0.799570 0.345260 -0.491410
vn 0.799570 0.345260 -0.491410
vn 0.799570 0.345260 -0.491410
vn 0.000000 1.000000 -0.000001
vn 0.000000 1.000000 -0.000001
vn 0.000000 1.000000 -0.000000
vn 0.000000 1.000000 -0.000001
vn 0.000000 1.000000 0.000000
vn 0.000000 1.000000 -0.000000
vn 0.000000 1.000000 0.000000
vn 0.000000 1.000000 0.000000
vn 0.000000 1.000000 -0.000000
vn 0.000000 1.000000 -0.000003
vn 0.000000 1.000000 0.000006
vn 0.000000 1.000000 -0.000003
vn 0.000000 1.000000 -0.000002
vn 0.000000 1.000000 -0.000003
vn 0.000000 1.000000 -0.000000
vn 0.000000 1.000000 0.000006
vn 0.000000 1.000000 -0.000000
vn 0.000000 1.000000 -0.000003
vn 0.000000 1.000000 0.000000
vn 0.000000 1.000000 0.000000
vn 0.000000 1.000000 0.000000
vn 0.000000 1.000000 0.000002
vn 0.000000 1.000000 0.000002
vn 0.000000 1.000000 0.000002
vn 0.000000 1.000000 -0.000002
vn 0.000000 1.000000 -0.000002
vn 0.000000 1.000000 -0.000002
s off
f 2/1/1 28/2/2 29/3/3
f 17/4/4 18/5/5 14/6/6
f 5/7/7 6/8/8 7/10/9
f 7/10/10 6/8/11 8/9/12
f 19/11/13 13/12/14 14/6/15
f 15/13/16 16/14/17 5/7/18
f 5/7/19 16/14/20 6/8/21
f 6/8/22 16/14/23 8/9/24
f 8/9/25 16/14/26 13/12/27
f 18/5/28 19/11/29 14/6/30
f 27/15/31 28/2/32 2/1/33
f 26/19/34 25/20/35 23/18/36
f 25/20/37 9/16/38 23/18/39
f 9/16/40 10/17/41 23/18/42
f 3/24/43 21/25/44 4/23/45
f 12/22/46 4/23/47 11/21/48
f 11/21/49 4/23/50 21/25/51
f 4/23/52 22/26/53 24/27/54
f 3/24/55 1/29/56 21/25/57
f 21/25/58 1/29/59 20/28/60
f 20/28/61 1/29/62 25/20/63
f 1/29/64 9/16/65 25/20/66
f 4/23/67 16/14/68 3/24/69
f 3/24/70 16/14/71 15/13/72
f 13/12/73 16/14/74 29/3/75
f 29/3/76 16/14/77 2/1/78
f 2/1/79 16/14/80 4/23/81
f 1/29/82 3/24/83 17/4/84
f 15/13/85 18/5/86 3/24/87
f 3/24/88 18/5/89 17/4/90
f 15/13/91 5/7/92 18/5/93
f 7/10/94 19/11/95 5/7/96
f 5/7/97 19/11/98 18/5/99
f 11/21/100 21/25/101 20/28/102
f 4/23/103 12/22/104 22/26/105
f 4/23/106 24/27/107 2/1/108
f 24/27/109 23/18/110 2/1/111
f 2/1/112 23/18/113 27/15/114
f 23/18/115 10/17/116 27/15/117
f 25/20/118 26/19/119 20/28/120
f 26/19/121 22/26/122 20/28/123
f 12/22/124 11/21/125 22/26/126
f 22/26/127 11/21/128 20/28/129
f 24/27/130 26/19/131 23/18/132
f 22/26/133 26/19/134 24/27/135
f 1/29/136 28/2/137 9/16/138
f 28/2/139 27/15/140 9/16/141
f 27/15/142 10/17/143 9/16/144
f 13/12/145 29/3/146 17/4/147
f 1/29/148 17/4/149 28/2/150
f 29/3/151 28/2/152 17/4/153
f 7/10/154 8/9/155 19/11/156
f 13/12/157 17/4/158 14/6/159
f 19/11/160 8/9/161 13/12/162
