# This file uses meters as units for non-parametric coordinates.

v -190.211349 300.000000 61.803413
v -180.700790 300.000000 58.713238
v -190.211349 0.000000 61.803413
v -180.700790 0.000000 58.713238
v 0.000000 0.000000 200.000000
v 0.000000 0.000000 190.000000
v 0.000000 300.000000 200.000000
v 0.000000 300.000000 190.000000
v -200.000000 300.000000 0.000000
v -190.000000 300.000000 0.000000
v -200.000000 0.000000 0.000000
v -190.000000 0.000000 0.000000
v -58.713238 300.000000 180.700775
v -61.803413 300.000000 190.211334
v -61.803413 0.000000 190.211334
v -58.713245 0.000000 180.700775
vt 0.247760 0.303287
vt 0.247760 0.303287
vt 0.247760 0.303287
vt 0.247760 0.303287
vt 0.247760 0.303287
vt 0.247760 0.303287
vt 0.247760 0.303287
vt 0.247760 0.303287
vt 0.247760 0.303287
vt 0.247760 0.303287
vt 0.247760 0.303287
vt 0.247760 0.303287
vt 0.247760 0.303287
vt 0.247760 0.303287
vt 0.247760 0.303287
vt 0.247760 0.303287
vn 0.000000 1.000000 0.000000
vn 0.000000 1.000000 0.000000
vn 0.000000 1.000000 0.000002
vn 0.000000 1.000000 0.000002
vn 0.000000 1.000000 0.000000
vn 0.000000 1.000000 0.000002
vn -0.707107 0.000000 0.707107
vn -0.707107 0.000000 0.707107
vn -0.707107 0.000000 0.707107
vn -0.707107 0.000000 0.707107
vn -0.707107 0.000000 0.707107
vn -0.707107 0.000000 0.707107
vn 1.000000 0.000000 0.000000
vn 1.000000 0.000000 0.000000
vn 1.000000 0.000000 0.000000
vn 1.000000 0.000000 0.000000
vn 1.000000 0.000000 0.000000
vn 1.000000 0.000000 0.000000
vn 0.000000 1.000000 0.000000
vn 0.000000 1.000000 -0.000000
vn 0.000000 1.000000 -0.000000
vn 0.000000 1.000000 -0.000000
vn 0.000000 1.000000 -0.000000
vn 0.000000 1.000000 -0.000000
vn 0.000000 -1.000000 0.000000
vn 0.000000 -1.000000 0.000000
vn 0.000000 -1.000000 0.000000
vn 0.000000 -1.000000 0.000000
vn 0.000000 -1.000000 0.000000
vn 0.000000 -1.000000 0.000000
vn 0.156434 0.000000 -0.987689
vn 0.156434 -0.000000 -0.987688
vn 0.156434 -0.000000 -0.987689
vn 0.156434 -0.000000 -0.987689
vn 0.156434 -0.000000 -0.987688
vn 0.156434 -0.000000 -0.987688
vn -0.156434 0.000000 0.987688
vn -0.156434 0.000000 0.987688
vn -0.156434 0.000000 0.987688
vn -0.156434 0.000000 0.987688
vn -0.156434 0.000000 0.987688
vn -0.156434 0.000000 0.987688
vn 0.000000 1.000000 -0.000001
vn 0.000000 1.000000 -0.000001
vn 0.000000 1.000000 0.000001
vn 0.000000 1.000000 0.000001
vn 0.000000 1.000000 -0.000001
vn 0.000000 1.000000 0.000001
vn 0.000000 0.000000 -1.000000
vn 0.000000 0.000000 -1.000000
vn 0.000000 0.000000 -1.000000
vn 0.000000 0.000000 -1.000000
vn 0.000000 0.000000 -1.000000
vn 0.000000 0.000000 -1.000000
vn 0.000000 -1.000000 0.000000
vn 0.000000 -1.000000 0.000000
vn 0.000000 -1.000000 0.000000
vn 0.000000 -1.000000 0.000000
vn 0.000000 -1.000000 0.000000
vn 0.000000 -1.000000 0.000000
vn 0.987688 0.000000 -0.156434
vn 0.987689 0.000000 -0.156434
vn 0.987689 0.000000 -0.156434
vn 0.987689 0.000000 -0.156434
vn 0.987689 0.000000 -0.156434
vn 0.987688 0.000000 -0.156434
vn -0.987689 0.000000 0.156434
vn -0.987689 0.000000 0.156434
vn -0.987689 0.000000 0.156434
vn -0.987689 0.000000 0.156434
vn -0.987689 0.000000 0.156434
vn -0.987689 0.000000 0.156434
vn 0.000000 -1.000000 0.000000
vn 0.000000 -1.000000 0.000000
vn 0.000000 -1.000000 0.000000
vn 0.000000 -1.000000 0.000000
vn 0.000000 -1.000000 0.000000
vn 0.000000 -1.000000 0.000000
vn 0.707107 0.000000 -0.707107
vn 0.707107 0.000000 -0.707107
vn 0.707107 0.000000 -0.707107
vn 0.707107 0.000000 -0.707107
vn 0.707107 0.000000 -0.707107
vn 0.707107 0.000000 -0.707107
s off
f 2/1/1 1/2/2 13/4/3
f 13/4/4 1/2/5 14/3/6
f 1/2/7 3/5/8 14/3/9
f 14/3/10 3/5/11 15/6/12
f 5/7/13 6/8/14 7/10/15
f 7/10/16 6/8/17 8/9/18
f 7/10/19 8/9/20 14/3/21
f 14/3/22 8/9/23 13/4/24
f 15/6/25 16/11/26 5/7/27
f 5/7/28 16/11/29 6/8/30
f 6/8/31 16/11/32 8/9/33
f 8/9/34 16/11/35 13/4/36
f 15/6/37 5/7/38 14/3/39
f 14/3/40 5/7/41 7/10/42
f 1/2/43 2/1/44 9/13/45
f 9/13/46 2/1/47 10/12/48
f 9/13/49 10/12/50 11/15/51
f 11/15/52 10/12/53 12/14/54
f 11/15/55 12/14/56 3/5/57
f 3/5/58 12/14/59 4/16/60
f 4/16/61 12/14/62 2/1/63
f 2/1/64 12/14/65 10/12/66
f 11/15/67 3/5/68 9/13/69
f 9/13/70 3/5/71 1/2/72
f 4/16/73 16/11/74 3/5/75
f 3/5/76 16/11/77 15/6/78
f 2/1/79 13/4/80 4/16/81
f 4/16/82 13/4/83 16/11/84
