# This file uses meters as units for non-parametric coordinates.

v -500.000000 288.588654 499.999817
v 0.000000 0.000000 499.999817
v -500.000000 300.158142 499.999756
v 0.000000 11.569519 499.999786
v -500.000000 11.569498 -0.000020
v 0.000000 300.158142 -0.000061
v -500.000000 0.000016 0.000001
v 0.000000 288.588623 0.000000
vt 0.247760 0.303287
vt 0.247760 0.303287
vt 0.247760 0.303287
vt 0.247760 0.303287
vt 0.247760 0.303287
vt 0.247760 0.303287
vt 0.247760 0.303287
vt 0.247760 0.303287
vn 0.000005 0.000003 1.000000
vn 0.000005 0.000003 1.000000
vn 0.000008 0.000005 1.000000
vn 0.000008 0.000005 1.000000
vn 0.000005 0.000003 1.000000
vn 0.000008 0.000005 1.000000
vn 0.447133 0.774689 0.447133
vn 0.447133 0.774690 0.447133
vn 0.447133 0.774689 0.447133
vn 0.000003 -0.000005 -1.000000
vn 0.000003 -0.000005 -1.000000
vn 0.000001 -0.000002 -1.000000
vn 0.000001 -0.000002 -1.000000
vn 0.000003 -0.000005 -1.000000
vn 0.000001 -0.000002 -1.000000
vn -0.447133 -0.774689 -0.447133
vn -0.447133 -0.774689 -0.447133
vn -0.447133 -0.774689 -0.447133
vn 1.000000 0.000000 0.000000
vn 1.000000 0.000000 0.000000
vn 1.000000 0.000000 0.000000
vn 1.000000 0.000000 0.000000
vn 1.000000 0.000000 0.000000
vn 1.000000 0.000000 0.000000
vn -1.000000 -0.000002 0.000000
vn -1.000000 -0.000000 0.000000
vn -1.000000 -0.000002 0.000000
vn -1.000000 -0.000002 0.000000
vn -1.000000 -0.000000 0.000000
vn -1.000000 0.000000 0.000000
vn -0.447133 0.774689 -0.447133
vn -0.447133 0.774689 -0.447133
vn -0.447133 0.774689 -0.447133
vn 0.447133 -0.774690 0.447133
vn 0.447133 -0.774689 0.447133
vn 0.447133 -0.774689 0.447133
s off
f 2/2/1 4/3/2 1/1/3
f 1/1/4 4/3/5 3/4/6
f 3/4/7 4/3/8 6/5/9
f 6/5/10 8/7/11 5/6/12
f 5/6/13 8/7/14 7/8/15
f 1/1/16 8/7/17 2/2/18
f 2/2/19 8/7/20 4/3/21
f 4/3/22 8/7/23 6/5/24
f 7/8/25 1/1/26 5/6/27
f 5/6/28 1/1/29 3/4/30
f 3/4/31 6/5/32 5/6/33
f 7/8/34 8/7/35 1/1/36
