# This file uses meters as units for non-parametric coordinates.

v -34.644409 225.355606 13.644657
v -50.000000 209.999985 13.644657
v -34.644409 225.355606 -3.644657
v -50.000000 209.999985 -3.644657
v -34.644409 0.000000 13.644657
v -50.000000 0.000000 13.644657
v -34.644409 0.000000 -3.644657
v -50.000000 0.000000 -3.644657
v 0.000000 300.000000 0.000000
v 0.000000 300.000000 10.000000
v 0.000000 0.000000 0.000000
v 0.000000 0.000000 10.000000
v -44.095215 0.000000 0.000000
v -44.095215 0.000000 10.000000
v -44.095215 216.904739 10.000000
v -44.095215 216.904739 0.000000
v -265.355591 225.355606 13.644657
v -250.000000 209.999985 13.644657
v -265.355591 225.355606 -3.644657
v -250.000000 209.999985 -3.644657
v -265.355591 0.000000 13.644657
v -250.000000 0.000000 13.644657
v -265.355591 0.000000 -3.644657
v -250.000000 0.000000 -3.644657
v -300.000000 0.000000 0.000000
v -300.000000 0.000000 10.000000
v -300.000000 300.000000 0.000000
v -300.000000 300.000000 10.000000
v -255.904785 0.000000 0.000000
v -255.904785 0.000000 10.000000
v -255.904785 216.904739 10.000000
v -255.904785 216.904739 0.000000
vt 0.247760 0.303287
vt 0.247760 0.303287
vt 0.247760 0.303287
vt 0.247760 0.303287
vt 0.247760 0.303287
vt 0.247760 0.303287
vt 0.247760 0.303287
vt 0.247760 0.303287
vt 0.247760 0.303287
vt 0.247760 0.303287
vt 0.247760 0.303287
vt 0.247760 0.303287
vt 0.247760 0.303287
vt 0.247760 0.303287
vt 0.247760 0.303287
vt 0.247760 0.303287
vt 0.247760 0.303287
vt 0.247760 0.303287
vt 0.247760 0.303287
vt 0.247760 0.303287
vt 0.247760 0.303287
vt 0.247760 0.303287
vt 0.247760 0.303287
vt 0.247760 0.303287
vt 0.247760 0.303287
vt 0.247760 0.303287
vt 0.247760 0.303287
vt 0.247760 0.303287
vt 0.247760 0.303287
vt 0.247760 0.303287
vt 0.247760 0.303287
vt 0.247760 0.303287
vn 0.000000 0.000000 1.000000
vn 0.000000 0.000000 1.000000
vn 0.000000 0.000000 1.000000
vn 0.000000 0.000000 1.000000
vn 0.000000 0.000000 -1.000000
vn 0.000000 0.000000 -1.000000
vn 0.000000 0.000000 -1.000000
vn 0.000000 0.000000 -1.000000
vn 0.000000 -1.000000 0.000000
vn 0.000000 -1.000000 0.000000
vn 0.000000 -1.000000 0.000000
vn 0.000000 -1.000000 0.000000
vn 0.000000 1.000000 0.000000
vn 0.000000 1.000000 0.000000
vn 0.000000 1.000000 0.000000
vn 0.000000 1.000000 0.000000
vn 0.000000 0.000000 1.000000
vn 0.000000 0.000000 1.000000
vn 0.000000 0.000000 1.000000
vn 0.000000 0.000000 1.000000
vn -0.000000 0.000000 -1.000000
vn -0.000000 0.000000 -1.000000
vn -0.000000 0.000000 -1.000000
vn -0.000000 0.000000 -1.000000
vn 0.000000 -1.000000 0.000000
vn 0.000000 -1.000000 0.000000
vn 0.000000 -1.000000 0.000000
vn 0.000000 -1.000000 0.000000
vn -1.000000 0.000000 0.000000
vn -1.000000 0.000000 0.000000
vn -1.000000 0.000000 0.000000
vn -1.000000 0.000000 0.000000
vn 1.000000 0.000000 0.000000
vn 1.000000 0.000000 0.000000
vn 1.000000 0.000000 0.000000
vn 1.000000 0.000000 0.000000
vn 1.000000 0.000000 0.000000
vn 1.000000 0.000000 0.000000
vn 1.000000 0.000000 0.000000
vn 1.000000 0.000000 0.000000
vn 0.000000 -1.000000 0.000000
vn 0.000000 -1.000000 0.000000
vn 0.000000 -1.000000 0.000000
vn 0.000000 -1.000000 0.000000
vn 0.000000 0.000000 -1.000000
vn 0.000000 0.000000 -1.000000
vn 0.000000 0.000000 -1.000000
vn 0.000000 0.000000 -1.000000
vn -1.000000 0.000000 0.000000
vn -1.000000 0.000000 0.000000
vn -1.000000 0.000000 0.000000
vn -1.000000 0.000000 0.000000
vn 0.000000 0.000000 1.000000
vn 0.000000 0.000000 1.000000
vn 0.000000 0.000000 1.000000
vn 0.000000 0.000000 1.000000
vn 0.000000 -1.000000 0.000000
vn 0.000000 -1.000000 0.000000
vn 0.000000 -1.000000 0.000000
vn 0.000000 -1.000000 0.000000
vn 0.000000 0.000000 1.000000
vn 0.000000 0.000000 1.000000
vn 0.000000 0.000000 1.000000
vn 0.000000 0.000000 1.000000
vn 0.000000 0.000000 -1.000000
vn 0.000000 0.000000 -1.000000
vn 0.000000 0.000000 -1.000000
vn 0.000000 0.000000 -1.000000
vn 0.000000 -1.000000 0.000000
vn 0.000000 -1.000000 0.000000
vn 0.000000 -1.000000 0.000000
vn 0.000000 -1.000000 0.000000
vn 1.000000 0.000000 0.000000
vn 1.000000 0.000000 0.000000
vn 1.000000 0.000000 0.000000
vn 1.000000 0.000000 0.000000
vn -1.000000 0.000000 0.000000
vn -1.000000 0.000000 0.000000
vn -1.000000 0.000000 0.000000
vn -1.000000 0.000000 0.000000
vn -1.000000 0.000000 0.000000
vn -1.000000 0.000000 0.000000
vn -1.000000 0.000000 0.000000
vn -1.000000 0.000000 0.000000
vn 0.000000 1.000000 0.000000
vn 0.000000 1.000000 0.000000
vn 0.000000 1.000000 0.000000
vn 0.000000 1.000000 0.000000
vn 0.000000 0.000000 1.000000
vn 0.000000 0.000000 1.000000
vn 0.000000 0.000000 1.000000
vn 0.000000 0.000000 1.000000
vn 0.000000 0.000000 -1.000000
vn 0.000000 0.000000 -1.000000
vn 0.000000 0.000000 -1.000000
vn 0.000000 0.000000 -1.000000
vn -0.000000 -0.000000 -1.000000
vn -0.000000 -0.000000 -1.000000
vn -0.000000 -0.000000 -1.000000
vn -0.000000 -0.000000 -1.000000
vn 0.000000 -1.000000 0.000000
vn 0.000000 -1.000000 0.000000
vn 0.000000 -1.000000 0.000000
vn 0.000000 -1.000000 0.000000
vn 1.000000 0.000000 0.000000
vn 1.000000 0.000000 0.000000
vn 1.000000 0.000000 0.000000
vn 1.000000 0.000000 0.000000
vn 0.000000 0.000000 1.000000
vn 0.000000 0.000000 1.000000
vn 0.000000 0.000000 1.000000
vn 0.000000 0.000000 1.000000
s off
f 2/2/1 1/1/2 17/17/3 18/18/4
f 3/3/5 4/4/6 20/20/7 19/19/8
f 4/4/9 2/2/10 18/18/11 20/20/12
f 1/1/13 3/3/14 19/19/15 17/17/16
f 5/5/17 1/1/18 2/2/19 6/6/20
f 3/3/21 7/7/22 8/8/23 4/4/24
f 7/7/25 5/5/26 6/6/27 8/8/28
f 6/6/29 2/2/30 4/4/31 8/8/32
f 7/7/33 3/3/34 1/1/35 5/5/36
f 11/11/37 9/10/38 10/9/39 12/12/40
f 16/14/41 15/13/42 31/29/43 32/30/44
f 11/11/45 13/15/46 16/14/47 9/10/48
f 16/14/49 13/15/50 14/16/51 15/13/52
f 15/13/53 14/16/54 12/12/55 10/9/56
f 13/15/57 11/11/58 12/12/59 14/16/60
f 21/21/61 22/22/62 18/18/63 17/17/64
f 19/19/65 20/20/66 24/23/67 23/24/68
f 23/24/69 24/23/70 22/22/71 21/21/72
f 22/22/73 24/23/74 20/20/75 18/18/76
f 23/24/77 21/21/78 17/17/79 19/19/80
f 27/25/81 25/26/82 26/27/83 28/28/84
f 9/10/85 27/25/86 28/28/87 10/9/88
f 26/27/89 30/31/90 31/29/91 28/28/92
f 32/30/93 29/32/94 25/26/95 27/25/96
f 16/14/97 32/30/98 27/25/99 9/10/100
f 25/26/101 29/32/102 30/31/103 26/27/104
f 29/32/105 32/30/106 31/29/107 30/31/108
f 10/9/109 28/28/110 31/29/111 15/13/112
