# This file uses meters as units for non-parametric coordinates.

v -100.000000 0.000000 94.278877
v 0.000000 0.000000 95.450989
v -100.000000 81.548203 1.009224
v 0.000000 78.155350 0.000000
v -100.000000 0.000000 0.000000
v 0.000000 0.000000 0.000000
v -6.205278 0.000000 100.000000
v 0.000000 3.814567 95.450989
v 0.000000 0.000000 90.078285
v -55.336044 0.000000 100.000000
v -85.398903 0.000000 100.000000
v -75.150024 0.000000 95.908264
v -77.155243 4.798607 94.277481
v -90.760246 0.000000 100.000000
v -100.000000 4.334770 94.830620
v -8.814174 83.854782 0.000000
v 0.000000 80.823318 3.615132
v -96.178726 83.854782 0.000000
v -62.871243 83.854782 0.000000
v -36.494991 83.854782 0.000000
v -55.542828 76.283424 9.029134
v -54.610325 82.297890 0.000000
v -0.413359 41.627811 50.357250
vt 0.247760 0.303287
vt 0.247760 0.303287
vt 0.247760 0.303287
vt 0.247760 0.303287
vt 0.247760 0.303287
vt 0.247760 0.303287
vt 0.247760 0.303287
vt 0.247760 0.303287
vt 0.247760 0.303287
vt 0.247760 0.303287
vt 0.247760 0.303287
vt 0.247760 0.303287
vt 0.247760 0.303287
vt 0.247760 0.303287
vt 0.247760 0.303287
vt 0.247760 0.303287
vt 0.247760 0.303287
vt 0.247760 0.303287
vt 0.247760 0.303287
vt 0.247760 0.303287
vt 0.247760 0.303287
vt 0.247760 0.303287
vt 0.247760 0.303287
vn -0.523384 -0.107591 0.845277
vn -0.523384 -0.107591 0.845277
vn -0.523384 -0.107591 0.845277
vn -0.262065 0.011942 -0.964976
vn -0.262065 0.011942 -0.964976
vn -0.262065 0.011942 -0.964976
vn 0.000000 -1.000000 0.000000
vn 0.000000 -1.000000 0.000000
vn 0.000000 -1.000000 0.000000
vn 0.000000 -1.000000 0.000000
vn 0.000000 -1.000000 0.000000
vn 0.000000 -1.000000 0.000000
vn 0.000000 -1.000000 0.000000
vn 0.000000 -1.000000 0.000000
vn 0.000000 -1.000000 0.000000
vn 0.000000 -1.000000 0.000000
vn 0.000000 -1.000000 0.000000
vn 0.000000 -1.000000 0.000000
vn 0.000000 -1.000000 0.000000
vn 0.000000 -1.000000 0.000000
vn 0.000000 -1.000000 0.000000
vn 0.000000 -1.000000 0.000000
vn 0.000000 -1.000000 0.000000
vn 0.000000 -1.000000 0.000000
vn 0.000000 -1.000000 0.000000
vn 0.000000 -1.000000 0.000000
vn 0.000000 -1.000000 0.000000
vn 1.000000 0.000000 0.000000
vn 0.999975 0.005805 -0.004122
vn 0.999976 0.005694 -0.004043
vn -1.000000 0.000000 0.000000
vn -1.000000 -0.000000 0.000000
vn -1.000000 -0.000000 0.000000
vn -1.000000 -0.000000 0.000000
vn -1.000000 -0.000000 0.000000
vn -1.000000 -0.000000 0.000000
vn 0.591235 0.000000 0.806499
vn 0.591235 0.000000 0.806499
vn 0.591235 0.000000 0.806499
vn 0.000000 -1.000000 0.000000
vn 0.000000 -1.000000 0.000000
vn 0.000000 -1.000000 0.000000
vn 0.999976 -0.005609 0.004140
vn 0.999966 -0.000020 0.008194
vn 0.999969 -0.000466 0.007870
vn 0.999966 -0.000020 0.008194
vn 0.999966 0.000000 0.008208
vn 0.999969 -0.000466 0.007870
vn -0.196279 0.240993 0.950472
vn -0.196279 0.240993 0.950472
vn -0.196279 0.240993 0.950472
vn 0.335492 0.425777 0.840333
vn 0.335492 0.425777 0.840333
vn 0.335492 0.425777 0.840333
vn 0.461547 0.713783 -0.526771
vn 0.461547 0.713783 -0.526771
vn 0.461547 0.713783 -0.526771
vn 0.000000 0.000000 -1.000000
vn 0.000000 0.000000 -1.000000
vn 0.000000 0.000000 -1.000000
vn 0.000000 0.000000 -1.000000
vn 0.000000 0.000000 -1.000000
vn 0.000000 0.000000 -1.000000
vn -0.285806 0.739930 0.608949
vn -0.285806 0.739930 0.608949
vn -0.285806 0.739930 0.608949
vn 0.000000 0.766253 0.642540
vn -0.000000 0.766253 0.642539
vn -0.000000 0.766253 0.642540
vn -0.000000 0.766253 0.642540
vn -0.000000 0.766253 0.642539
vn -0.000000 0.766253 0.642539
vn -0.000000 0.766253 0.642539
vn -0.000000 0.766253 0.642539
vn -0.000000 0.766253 0.642539
vn -0.000000 0.766253 0.642539
vn 0.000000 0.766252 0.642540
vn -0.000000 0.766253 0.642539
vn 0.000000 0.766252 0.642540
vn 0.000001 0.766253 0.642539
vn -0.000000 0.766253 0.642539
vn 0.000000 0.766253 0.642539
vn 0.000000 0.766253 0.642540
vn 0.000000 0.766253 0.642539
vn 0.000000 0.766253 0.642540
vn 0.000000 0.766252 0.642540
vn 0.000000 0.766253 0.642539
vn 0.000000 0.766252 0.642540
vn 0.000000 0.766253 0.642539
vn 0.000000 0.766253 0.642539
vn 0.000000 0.766253 0.642539
vn 0.000000 0.766253 0.642539
vn 0.000000 0.766253 0.642539
vn 0.000000 0.766253 0.642540
vn 0.000000 0.766253 0.642540
vn 0.000000 0.766253 0.642539
vn 0.000000 0.766253 0.642539
vn 0.000000 0.766253 0.642539
vn 0.000000 0.766253 0.642540
vn -0.000000 0.766253 0.642540
vn -0.000000 0.766253 0.642540
vn -0.000000 0.766253 0.642540
vn 0.000000 0.000000 -1.000000
vn 0.000000 0.000000 -1.000000
vn 0.000000 0.000000 -1.000000
vn -0.071636 0.833521 0.547824
vn -0.071636 0.833521 0.547824
vn -0.071636 0.833521 0.547824
vn 0.153597 0.814993 0.558743
vn 0.153597 0.814993 0.558743
vn 0.153597 0.814993 0.558743
vn 0.000000 0.000000 -1.000000
vn 0.000000 0.000000 -1.000000
vn 0.000000 0.000000 -1.000000
vn 0.000000 0.000000 -1.000000
vn 0.000000 0.000000 -1.000000
vn 0.000000 0.000000 -1.000000
vn 0.000000 0.000000 -1.000000
vn 0.000000 0.000000 -1.000000
vn 0.000000 0.000000 -1.000000
vn 0.999976 0.005694 -0.004043
vn 0.999975 0.005805 -0.004122
vn 0.999974 0.005919 -0.004203
vn 0.999951 0.009929 0.000000
vn 0.999951 0.009929 0.000000
vn 0.999951 0.009929 0.000000
s off
f 1/1/1 14/2/2 15/3/3
f 3/4/4 18/5/5 5/6/6
f 5/6/7 6/7/8 1/1/9
f 1/1/10 6/7/11 14/2/12
f 14/2/13 6/7/14 11/8/15
f 11/8/16 6/7/17 12/9/18
f 12/9/19 6/7/20 10/10/21
f 6/7/22 9/11/23 10/10/24
f 9/11/25 7/12/26 10/10/27
f 2/13/28 9/11/29 8/14/30
f 1/1/31 15/3/32 5/6/33
f 5/6/34 15/3/35 3/4/36
f 8/14/37 7/12/38 2/13/39
f 7/12/40 9/11/41 2/13/42
f 17/17/43 23/15/44 4/16/45
f 23/15/46 6/7/47 4/16/48
f 13/18/49 12/9/50 10/10/51
f 13/18/52 11/8/53 12/9/54
f 16/19/55 17/17/56 4/16/57
f 22/21/58 5/6/59 19/20/60
f 5/6/61 18/5/62 19/20/63
f 3/4/64 15/3/65 18/5/66
f 18/5/67 15/3/68 19/20/69
f 19/20/70 15/3/71 21/22/72
f 15/3/73 14/2/74 21/22/75
f 14/2/76 11/8/77 21/22/78
f 11/8/79 13/18/80 21/22/81
f 10/10/82 7/12/83 21/22/84
f 7/12/85 8/14/86 21/22/87
f 8/14/88 23/15/89 21/22/90
f 21/22/91 23/15/92 20/23/93
f 17/17/94 16/19/95 23/15/96
f 20/23/97 23/15/98 16/19/99
f 21/22/100 13/18/101 10/10/102
f 5/6/103 22/21/104 6/7/105
f 20/23/106 22/21/107 21/22/108
f 21/22/109 22/21/110 19/20/111
f 22/21/112 20/23/113 6/7/114
f 6/7/115 20/23/116 4/16/117
f 20/23/118 16/19/119 4/16/120
f 8/14/121 9/11/122 23/15/123
f 23/15/124 9/11/125 6/7/126
