# This file uses meters as units for non-parametric coordinates.

v -100.000000 5.379103 100.000000
v 0.000000 0.000000 96.944130
v -100.000015 100.000015 95.427383
v 0.000000 97.524010 98.144150
v -95.570755 100.000000 0.000000
v 0.000000 96.322823 0.000000
v -96.755280 0.000000 2.641716
v 0.000000 4.755910 0.000000
v -18.826309 100.000000 0.000000
v 0.000000 100.000000 7.267495
v -91.275909 0.000000 100.000000
v -100.000000 0.000000 97.266678
v -95.542488 100.000000 100.000000
v -100.000000 96.138374 100.000000
v -2.758751 0.000000 0.000000
v 0.000000 0.000000 7.693489
v -3.548161 100.000000 100.000000
v -100.000000 2.972096 0.000000
v -65.305016 0.000000 0.694195
v -100.000000 45.322155 0.000000
v -100.000000 69.645653 0.000000
v -0.000004 72.921875 0.000004
v 0.000000 50.188805 0.000000
v -94.826622 53.861691 0.000000
v -6.677964 60.918777 0.000000
v -100.000000 11.639410 100.000000
v -100.000000 23.776613 100.000000
v -100.000000 51.218723 6.025826
v -100.000000 19.195276 95.837692
v -92.214508 21.998714 100.000000
v -0.000004 57.449947 5.408844
v -0.000004 9.681897 99.815750
v -4.952202 0.000000 100.000000
v -0.201954 23.684109 99.726265
v -0.000004 16.552040 91.641335
v -8.901264 18.158455 99.752411
v -47.150558 100.000000 100.000000
v -28.465757 100.000000 100.000000
v -64.801956 100.000000 0.000000
v -44.960274 100.000000 0.000000
v -39.706726 100.000000 94.293388
v -35.833508 95.863159 99.965729
v -53.974106 100.000000 6.173759
v -59.745426 86.320198 0.000000
v -100.000000 98.017647 47.350906
v -100.000000 93.476601 0.000004
v -100.000000 100.000000 4.342842
v -89.396637 100.000000 55.606358
vt 0.247760 0.303287
vt 0.247760 0.303287
vt 0.247760 0.303287
vt 0.247760 0.303287
vt 0.247760 0.303287
vt 0.247760 0.303287
vt 0.247760 0.303287
vt 0.247760 0.303287
vt 0.247760 0.303287
vt 0.247760 0.303287
vt 0.247760 0.303287
vt 0.247760 0.303287
vt 0.247760 0.303287
vt 0.247760 0.303287
vt 0.247760 0.303287
vt 0.247760 0.303287
vt 0.247760 0.303287
vt 0.247760 0.303287
vt 0.247760 0.303287
vt 0.247760 0.303287
vt 0.247760 0.303287
vt 0.247760 0.303287
vt 0.247760 0.303287
vt 0.247760 0.303287
vt 0.247760 0.303287
vt 0.247760 0.303287
vt 0.247760 0.303287
vt 0.247760 0.303287
vt 0.247760 0.303287
vt 0.247760 0.303287
vt 0.247760 0.303287
vt 0.247760 0.303287
vt 0.247760 0.303287
vt 0.247760 0.303287
vt 0.247760 0.303287
vt 0.247760 0.303287
vt 0.247760 0.303287
vt 0.247760 0.303287
vt 0.247760 0.303287
vt 0.247760 0.303287
vt 0.247760 0.303287
vt 0.247760 0.303287
vt 0.247760 0.303287
vt 0.247760 0.303287
vt 0.247760 0.303287
vt 0.247760 0.303287
vt 0.247760 0.303287
vt 0.247760 0.303287
vn -0.044706 -0.690502 -0.721948
vn -0.044706 -0.690502 -0.721948
vn -0.044706 -0.690502 -0.721948
vn 0.053881 -0.998360 -0.019321
vn 0.002275 -0.999997 -0.000816
vn 0.000000 -1.000000 0.000000
vn 0.002275 -0.999997 -0.000816
vn 0.000000 -1.000000 0.000000
vn 0.000000 -1.000000 0.000000
vn 0.000000 -1.000000 0.000000
vn 0.000000 -1.000000 0.000000
vn 0.000000 -1.000000 0.000000
vn 0.000000 -1.000000 0.000000
vn 0.000000 -1.000000 0.000000
vn 0.000000 -1.000000 0.000000
vn -0.013428 -0.998991 0.042858
vn 0.000000 -1.000000 0.000000
vn -0.000623 -0.999998 0.001988
vn 0.000000 -1.000000 0.000000
vn 0.000000 -1.000000 0.000000
vn -0.000623 -0.999998 0.001988
vn 1.000000 0.000000 0.000000
vn 1.000000 0.000000 0.000000
vn 1.000000 0.000000 0.000000
vn 1.000000 0.000000 0.000000
vn 1.000000 0.000000 0.000000
vn 1.000000 0.000000 0.000000
vn 1.000000 0.000000 0.000000
vn 1.000000 0.000000 0.000000
vn 1.000000 0.000000 0.000000
vn 1.000000 0.000000 0.000000
vn 1.000000 0.000000 0.000000
vn 1.000000 0.000000 0.000000
vn 1.000000 0.000000 0.000000
vn 1.000000 0.000000 0.000000
vn 1.000000 0.000000 0.000000
vn -0.688100 -0.225532 -0.689677
vn -0.688100 -0.225532 -0.689677
vn -0.688100 -0.225532 -0.689677
vn 0.005764 0.999872 -0.014932
vn 0.009391 0.999660 -0.024327
vn 0.171694 0.879034 -0.444771
vn 0.473001 0.017580 0.880887
vn 0.473001 0.017580 0.880887
vn 0.473001 0.017580 0.880887
vn -0.013428 -0.998991 0.042858
vn -0.000623 -0.999998 0.001988
vn -0.269020 -0.436308 0.858641
vn 0.000000 1.000000 0.000000
vn 0.000000 1.000000 0.000000
vn 0.000000 1.000000 0.000000
vn -0.023156 0.026735 0.999374
vn -0.052266 0.060337 0.996809
vn -0.551928 0.637095 0.538039
vn 0.002275 -0.999997 -0.000816
vn 0.053881 -0.998360 -0.019321
vn 0.826176 -0.479238 -0.296252
vn 0.579902 0.814384 0.022188
vn 0.579902 0.814384 0.022188
vn 0.579902 0.814384 0.022188
vn 0.509169 -0.244733 0.825138
vn 0.509169 -0.244733 0.825138
vn 0.509169 -0.244733 0.825138
vn 0.000000 0.000000 1.000000
vn 0.000000 0.000000 1.000000
vn -0.023156 0.026735 0.999374
vn -0.023156 0.026735 0.999374
vn 0.000000 0.000000 1.000000
vn -0.052266 0.060337 0.996809
vn -0.665113 -0.746395 -0.022807
vn -0.665113 -0.746395 -0.022807
vn -0.665113 -0.746395 -0.022807
vn 0.020005 0.000000 -0.999800
vn 0.020005 0.000000 -0.999800
vn 0.020005 0.000000 -0.999800
vn 0.000000 0.000000 -1.000000
vn -0.000000 0.000000 -1.000000
vn -0.000000 0.000000 -1.000000
vn -0.000000 0.000000 -1.000000
vn -0.000000 0.000000 -1.000000
vn -0.000001 0.000000 -1.000000
vn 0.011168 -0.006766 -0.999915
vn 0.001893 -0.011850 -0.999928
vn -0.001963 -0.009044 -0.999957
vn 0.001893 -0.011850 -0.999928
vn -0.001270 -0.010172 -0.999947
vn -0.001963 -0.009044 -0.999957
vn -0.001270 -0.010172 -0.999947
vn -0.009558 -0.001372 -0.999953
vn -0.001963 -0.009044 -0.999957
vn -0.001963 -0.009044 -0.999957
vn -0.009558 -0.001372 -0.999953
vn -0.010971 0.000603 -0.999940
vn -0.009558 -0.001372 -0.999953
vn 0.000000 0.000000 -1.000000
vn -0.010971 0.000603 -0.999940
vn 0.510163 -0.283831 -0.811895
vn 0.510164 -0.283831 -0.811895
vn 0.510164 -0.283831 -0.811895
vn -1.000000 0.000000 0.000000
vn -1.000000 0.000000 0.000000
vn -1.000000 0.000000 0.000000
vn -1.000000 0.000000 0.000000
vn -1.000000 0.000000 0.000000
vn -1.000000 0.000001 0.000000
vn -1.000000 0.000000 0.000000
vn -1.000000 0.000000 0.000000
vn -1.000000 0.000001 0.000000
vn -1.000000 0.000000 0.000000
vn -1.000000 0.000000 0.000000
vn -1.000000 0.000001 0.000000
vn -1.000000 0.000000 0.000000
vn -1.000000 0.000000 0.000000
vn -1.000000 0.000001 0.000000
vn -1.000000 0.000000 0.000000
vn -1.000000 -0.000000 0.000000
vn -1.000000 -0.000000 -0.000000
vn -1.000000 -0.000000 0.000000
vn -1.000000 0.000000 0.000000
vn -1.000000 -0.000000 -0.000000
vn -1.000000 0.000000 0.000000
vn -1.000000 0.000001 0.000000
vn -1.000000 -0.000000 -0.000000
vn -1.000000 0.000001 0.000000
vn -1.000000 -0.000000 -0.000000
vn -1.000000 -0.000000 -0.000000
vn -1.000000 -0.000000 -0.000000
vn -1.000000 -0.000005 -0.000000
vn -1.000000 -0.000000 -0.000000
vn -0.151781 -0.664657 0.731569
vn -0.151781 -0.664657 0.731569
vn -0.151781 -0.664657 0.731569
vn 0.000000 0.000000 1.000000
vn 0.000001 0.000000 1.000000
vn 0.000001 0.000000 1.000000
vn 0.000001 0.000000 1.000000
vn 0.000001 0.000000 1.000000
vn 0.000001 0.000000 1.000000
vn -0.540257 0.406028 0.737064
vn -0.540257 0.406028 0.737064
vn -0.540257 0.406028 0.737064
vn -0.762838 0.462136 -0.452226
vn -0.762838 0.462136 -0.452226
vn -0.762838 0.462136 -0.452226
vn 1.000000 -0.000000 -0.000000
vn 1.000000 -0.000000 -0.000000
vn 1.000000 -0.000000 -0.000000
vn 1.000000 -0.000000 0.000000
vn 1.000000 -0.000000 -0.000000
vn 1.000000 -0.000000 -0.000000
vn 1.000000 -0.000000 -0.000000
vn 1.000000 -0.000000 -0.000000
vn 1.000000 -0.000000 -0.000000
vn 0.692478 0.430974 -0.578564
vn 0.692478 0.430974 -0.578564
vn 0.692478 0.430974 -0.578564
vn 0.999792 0.018411 0.008732
vn 0.999996 -0.002336 0.001305
vn 0.999998 -0.000428 0.001988
vn 0.999998 -0.000428 0.001988
vn 0.999996 -0.002336 0.001305
vn 0.999996 -0.002710 0.001171
vn 0.002978 0.000127 0.999996
vn 0.003017 -0.001603 0.999994
vn 0.002352 -0.000949 0.999997
vn 0.000000 0.000000 1.000000
vn 0.002352 -0.000949 0.999997
vn 0.000802 -0.000463 1.000000
vn 0.003894 -0.001396 0.999991
vn 0.002836 -0.001686 0.999995
vn 0.003017 -0.001603 0.999994
vn 0.000802 -0.000463 1.000000
vn 0.002352 -0.000949 0.999997
vn 0.002836 -0.001686 0.999995
vn 0.002352 -0.000949 0.999997
vn 0.003017 -0.001603 0.999994
vn 0.002836 -0.001686 0.999995
vn 0.428753 -0.672150 0.603643
vn 0.428753 -0.672150 0.603643
vn 0.428753 -0.672150 0.603643
vn 0.007400 0.015242 0.999857
vn 0.000223 0.013682 0.999906
vn 0.000294 0.013698 0.999906
vn 0.000223 0.013682 0.999906
vn 0.000000 0.013634 0.999907
vn 0.000294 0.013698 0.999906
vn 0.586666 0.619954 0.521037
vn 0.586666 0.619954 0.521037
vn 0.586666 0.619954 0.521037
vn -0.002183 -0.004395 0.999988
vn -0.000233 -0.003673 0.999993
vn -0.000640 -0.003824 0.999992
vn -0.000640 -0.003824 0.999992
vn -0.000233 -0.003673 0.999993
vn 0.000000 -0.003587 0.999994
vn 0.005764 0.999872 -0.014932
vn 0.000000 1.000000 0.000000
vn 0.009391 0.999660 -0.024327
vn 0.314247 0.856283 0.409912
vn 0.314247 0.856283 0.409912
vn 0.314247 0.856283 0.409912
vn -0.353678 0.624134 0.696684
vn -0.353678 0.624134 0.696684
vn -0.353678 0.624134 0.696684
vn 0.000000 0.000000 -1.000000
vn 0.000000 0.000000 -1.000000
vn 0.000000 0.000000 -1.000000
vn 0.000000 0.000000 -1.000000
vn 0.000000 0.000000 -1.000000
vn 0.000000 0.000000 -1.000000
vn 0.487218 0.180093 -0.854509
vn 0.487218 0.180093 -0.854509
vn 0.487218 0.180093 -0.854509
vn -0.482254 0.521221 -0.704102
vn -0.482254 0.521221 -0.704102
vn -0.482254 0.521221 -0.704102
vn -0.632304 0.429320 -0.644884
vn -0.632304 0.429320 -0.644884
vn -0.632304 0.429320 -0.644884
vn -1.000000 0.000000 0.000000
vn -1.000000 0.000000 0.000000
vn -1.000000 0.000000 0.000000
vn -1.000000 0.000000 0.000000
vn -1.000000 0.000000 0.000000
vn -1.000000 0.000000 0.000000
vn 0.000000 1.000000 0.000000
vn 0.000000 1.000000 0.000000
vn 0.000000 1.000000 0.000000
vn 0.000000 1.000000 0.000000
vn 0.000000 1.000000 0.000000
vn 0.000000 1.000000 0.000000
vn 0.000003 1.000000 0.000000
vn 0.000000 1.000000 0.000000
vn 0.000000 1.000000 0.000000
vn -0.217286 0.975073 0.044944
vn -0.217286 0.975073 0.044944
vn -0.217286 0.975073 0.044944
vn -0.152901 0.987402 -0.040714
vn -0.152901 0.987402 -0.040714
vn -0.152901 0.987402 -0.040714
vn 0.000000 0.000000 -1.000000
vn 0.000000 0.000000 -1.000000
vn 0.000000 0.000000 -1.000000
vn 0.000000 0.000000 -1.000000
vn 0.000000 0.000000 -1.000000
vn 0.000000 0.000000 -1.000000
vn 0.000000 0.000000 -1.000000
vn 0.000000 0.000000 -1.000000
vn 0.000000 0.000000 -1.000000
vn 0.000000 1.000000 0.000000
vn 0.000000 1.000000 0.000000
vn 0.000000 1.000000 0.000000
vn 0.000000 1.000000 0.000000
vn 0.000000 1.000000 0.000000
vn 0.000000 1.000000 0.000000
vn 0.000000 1.000000 0.000000
vn 0.000000 1.000000 0.000000
vn 0.000000 1.000000 -0.000001
vn 0.000000 1.000000 -0.000000
vn 0.000000 1.000000 -0.000000
vn 0.000000 1.000000 -0.000000
vn 0.000000 0.000000 -1.000000
vn 0.000000 -0.000000 -1.000000
vn 0.000000 0.000000 -1.000000
vn 0.000000 0.000000 -1.000000
vn 0.000000 -0.000000 -1.000000
vn -0.000000 -0.000000 -1.000000
vn 0.000000 1.000000 0.000000
vn 0.000000 1.000000 0.000000
vn 0.000000 1.000000 0.000000
vn 0.000000 1.000000 0.000000
vn 0.000000 1.000000 0.000000
vn 0.000000 1.000000 0.000000
vn 0.000000 1.000000 0.000000
vn 0.000000 1.000000 0.000000
vn 0.000000 1.000000 0.000000
s off
f 18/1/1 19/2/2 7/3/3
f 15/4/4 16/5/5 19/2/6
f 16/5/7 2/6/8 19/2/9
f 2/6/10 33/7/11 19/2/12
f 19/2/13 33/7/14 7/3/15
f 12/8/16 7/3/17 11/9/18
f 7/3/19 33/7/20 11/9/21
f 31/10/22 35/11/23 23/12/24
f 23/12/25 35/11/26 8/13/27
f 8/13/28 35/11/29 16/5/30
f 2/6/31 16/5/32 32/14/33
f 16/5/34 35/11/35 32/14/36
f 24/15/37 28/16/38 21/17/39
f 9/18/40 10/19/41 6/20/42
f 17/21/43 34/22/44 4/23/45
f 12/8/46 11/9/47 1/24/48
f 39/25/49 41/26/50 43/27/51
f 14/28/52 13/29/53 3/30/54
f 16/5/55 15/4/56 8/13/57
f 10/19/58 17/21/59 4/23/60
f 32/14/61 33/7/62 2/6/63
f 27/31/64 30/32/65 14/28/66
f 14/28/67 30/32/68 13/29/69
f 7/3/70 12/8/71 18/1/72
f 20/33/73 19/2/74 18/1/75
f 39/25/76 21/17/77 5/34/78
f 5/34/79 21/17/80 46/35/81
f 20/33/82 24/15/83 19/2/84
f 24/15/85 25/36/86 19/2/87
f 25/36/88 23/12/89 19/2/90
f 19/2/91 23/12/92 15/4/93
f 23/12/94 8/13/95 15/4/96
f 31/10/97 25/36/98 22/37/99
f 18/1/100 12/8/101 20/33/102
f 20/33/103 12/8/104 28/16/105
f 12/8/106 1/24/107 28/16/108
f 1/24/109 26/38/110 28/16/111
f 26/38/112 29/39/113 28/16/114
f 21/17/115 28/16/116 45/40/117
f 28/16/118 29/39/119 45/40/120
f 29/39/121 27/31/122 45/40/123
f 27/31/124 14/28/125 45/40/126
f 14/28/127 3/30/128 45/40/129
f 27/31/130 29/39/131 30/32/132
f 1/24/133 11/9/134 26/38/135
f 26/38/136 11/9/137 30/32/138
f 30/32/139 29/39/140 26/38/141
f 20/33/142 28/16/143 24/15/144
f 31/10/145 22/37/146 4/23/147
f 6/20/148 10/19/149 22/37/150
f 4/23/151 22/37/152 10/19/153
f 23/12/154 25/36/155 31/10/156
f 35/11/157 31/10/158 34/22/159
f 34/22/160 31/10/161 4/23/162
f 11/9/163 36/41/164 30/32/165
f 13/29/166 30/32/167 37/42/168
f 34/22/169 42/43/170 36/41/171
f 37/42/172 30/32/173 42/43/174
f 30/32/175 36/41/176 42/43/177
f 36/41/178 35/11/179 34/22/180
f 32/14/181 36/41/182 33/7/183
f 36/41/184 11/9/185 33/7/186
f 32/14/187 35/11/188 36/41/189
f 42/43/190 34/22/191 38/44/192
f 38/44/193 34/22/194 17/21/195
f 9/18/196 17/21/197 10/19/198
f 42/43/199 41/26/200 37/42/201
f 38/44/202 41/26/203 42/43/204
f 25/36/205 44/45/206 9/18/207
f 9/18/208 44/45/209 40/46/210
f 43/27/211 44/45/212 39/25/213
f 40/46/214 44/45/215 43/27/216
f 46/35/217 47/47/218 5/34/219
f 45/40/220 47/47/221 21/17/222
f 21/17/223 47/47/224 46/35/225
f 41/26/226 48/48/227 37/42/228
f 37/42/229 48/48/230 13/29/231
f 3/30/232 13/29/233 48/48/234
f 45/40/235 48/48/236 47/47/237
f 3/30/238 48/48/239 45/40/240
f 24/15/241 44/45/242 25/36/243
f 39/25/244 44/45/245 21/17/246
f 21/17/247 44/45/248 24/15/249
f 41/26/250 39/25/251 48/48/252
f 48/48/253 39/25/254 47/47/255
f 47/47/256 39/25/257 5/34/258
f 40/46/259 43/27/260 41/26/261
f 25/36/262 9/18/263 22/37/264
f 22/37/265 9/18/266 6/20/267
f 17/21/268 9/18/269 38/44/270
f 38/44/271 9/18/272 41/26/273
f 40/46/274 41/26/275 9/18/276
