# This file uses meters as units for non-parametric coordinates.

v -10.000000 37.766010 50.000000
v 0.000000 37.766010 50.000000
v -10.000000 49.948868 25.000000
v 0.000000 49.948868 25.000000
v 0.000000 37.766010 25.000000
v -10.000000 37.766010 25.000000
v -10.000000 25.583155 75.000000
v 0.000000 25.583155 75.000000
v 0.000000 25.583155 50.000000
v -10.000000 25.583155 50.000000
v -10.000000 13.400299 100.000000
v 0.000000 13.400299 100.000000
v -9.999999 119.015091 97.619286
v 0.000000 117.500000 100.000000
v 0.000000 13.400299 75.000000
v -10.000000 13.400299 75.000000
v -10.000000 49.948875 0.000000
v 0.000000 49.948868 0.000000
v -10.000000 181.140366 0.000000
v 0.000000 181.140366 0.000000
v -10.000000 114.118759 100.000000
v -6.278468 117.500000 100.000000
v 0.000000 137.774063 68.142769
v 0.000000 147.427933 52.973358
v -10.000000 159.081085 34.662411
v -10.000000 166.634048 22.794209
v -2.229052 142.523499 60.679825
v 0.000000 142.294495 56.589867
v -10.000000 161.715363 23.005276
v -7.908962 162.617981 29.104780
v -10.000000 82.499771 0.000000
v -10.000000 99.035912 0.000000
v -7.119937 87.615005 0.000000
v -10.000000 83.909821 3.506604
v 0.000000 37.305016 100.000000
v 0.000000 54.971714 100.000000
v -2.935682 43.700603 100.000015
v 0.000000 45.270679 95.853340
vt 0.247760 0.303287
vt 0.247760 0.303287
vt 0.247760 0.303287
vt 0.247760 0.303287
vt 0.247760 0.303287
vt 0.247760 0.303287
vt 0.247760 0.303287
vt 0.247760 0.303287
vt 0.247760 0.303287
vt 0.247760 0.303287
vt 0.247760 0.303287
vt 0.247760 0.303287
vt 0.247760 0.303287
vt 0.247760 0.303287
vt 0.247760 0.303287
vt 0.247760 0.303287
vt 0.247760 0.303287
vt 0.247760 0.303287
vt 0.247760 0.303287
vt 0.247760 0.303287
vt 0.247760 0.303287
vt 0.247760 0.303287
vt 0.247760 0.303287
vt 0.247760 0.303287
vt 0.247760 0.303287
vt 0.247760 0.303287
vt 0.247760 0.303287
vt 0.247760 0.303287
vt 0.247760 0.303287
vt 0.247760 0.303287
vt 0.247760 0.303287
vt 0.247760 0.303287
vt 0.247760 0.303287
vt 0.247760 0.303287
vt 0.247760 0.303287
vt 0.247760 0.303287
vt 0.247760 0.303287
vt 0.247760 0.303287
vn -1.000000 0.000000 0.000000
vn -1.000000 0.000000 0.000000
vn -1.000000 0.000000 0.000000
vn 1.000000 0.000000 0.000000
vn 1.000000 0.000000 0.000000
vn 1.000000 0.000000 0.000000
vn -1.000000 0.000000 0.000000
vn -1.000000 0.000000 0.000000
vn -1.000000 0.000000 0.000000
vn 1.000000 0.000000 0.000000
vn 1.000000 0.000000 0.000000
vn 1.000000 0.000000 0.000000
vn -0.369219 0.406378 0.835784
vn -0.369219 0.406378 0.835784
vn -0.369219 0.406378 0.835784
vn 1.000000 0.000000 0.000000
vn 1.000000 0.000000 0.000000
vn 1.000000 0.000000 0.000000
vn 1.000000 0.000000 0.000000
vn 1.000000 0.000000 0.000000
vn 1.000000 0.000000 0.000000
vn -1.000000 0.000000 0.000000
vn -1.000000 0.000000 0.000000
vn -1.000000 0.000000 0.000000
vn 1.000000 0.000000 0.000000
vn 1.000000 0.000000 0.000000
vn 1.000000 0.000000 0.000000
vn 1.000000 0.000000 0.000000
vn 1.000000 0.000000 0.000000
vn 1.000000 0.000000 0.000000
vn -1.000000 0.000000 0.000000
vn -1.000000 0.000000 0.000000
vn -1.000000 0.000000 0.000000
vn 1.000000 0.000000 0.000000
vn 1.000000 0.000000 0.000000
vn 1.000000 0.000000 0.000000
vn 1.000000 0.000000 0.000000
vn 1.000000 0.000000 0.000000
vn 1.000000 0.000000 0.000000
vn 1.000000 0.000000 0.000000
vn 1.000000 0.000000 0.000000
vn 1.000000 0.000000 0.000000
vn 1.000000 0.000000 0.000000
vn 1.000000 0.000000 0.000000
vn 1.000000 0.000000 0.000000
vn -1.000000 0.000000 -0.000000
vn -1.000000 0.000000 -0.000000
vn -1.000000 0.000000 -0.000000
vn -1.000000 0.000000 -0.000000
vn -1.000000 0.000000 0.000000
vn -1.000000 0.000000 -0.000000
vn -1.000000 -0.000000 0.000000
vn -1.000000 -0.000000 0.000000
vn -1.000000 -0.000000 0.000000
vn -1.000000 0.000000 0.000000
vn -1.000000 0.000000 0.000000
vn -1.000000 0.000000 0.000000
vn -1.000000 0.000000 0.000000
vn -1.000000 0.000000 0.000000
vn -1.000000 0.000000 0.000000
vn 0.000000 0.000000 -1.000000
vn 0.000000 0.000000 -1.000000
vn 0.000000 0.000000 -1.000000
vn 0.000000 0.000000 -1.000000
vn 0.000000 0.000000 -1.000000
vn 0.000000 0.000000 -1.000000
vn 0.000000 -1.000000 0.000000
vn -0.000000 -1.000000 -0.000000
vn -0.000001 -1.000000 -0.000000
vn -0.000001 -1.000000 -0.000000
vn -0.000000 -1.000000 -0.000000
vn -0.000001 -1.000000 -0.000000
vn 0.000000 -1.000000 0.000000
vn 0.000000 -1.000000 0.000000
vn 0.000000 -1.000000 0.000000
vn 0.000000 -1.000000 0.000000
vn 0.000000 -1.000000 0.000000
vn 0.000000 -1.000000 0.000000
vn 0.000000 0.000000 -1.000000
vn 0.000000 0.000000 -1.000000
vn 0.000000 0.000000 -1.000000
vn 0.000000 0.000000 -1.000000
vn 0.000000 0.000000 -1.000000
vn 0.000000 0.000000 -1.000000
vn 0.000000 -1.000000 0.000000
vn 0.000000 -1.000000 0.000000
vn 0.000000 -1.000000 0.000000
vn 0.000000 -1.000000 0.000000
vn 0.000000 -1.000000 0.000000
vn 0.000000 -1.000000 0.000000
vn 0.000000 0.000000 -1.000000
vn 0.000000 0.000000 -1.000000
vn 0.000000 0.000000 -1.000000
vn 0.000000 0.000000 -1.000000
vn 0.000000 0.000000 -1.000000
vn 0.000000 0.000000 -1.000000
vn 0.000000 -1.000000 0.000000
vn 0.000000 -1.000000 0.000000
vn 0.000000 -1.000000 0.000000
vn 0.000000 -1.000000 0.000000
vn 0.000000 -1.000000 0.000000
vn 0.000000 -1.000000 0.000000
vn 0.000000 0.000000 -1.000000
vn 0.000000 0.000000 -1.000000
vn 0.000000 0.000000 -1.000000
vn 0.000000 0.000000 -1.000000
vn 0.000000 0.000000 -1.000000
vn 0.000000 0.000000 -1.000000
vn 0.000000 0.000000 1.000000
vn 0.000000 0.000000 1.000000
vn 0.000000 0.000000 1.000000
vn 0.000000 0.843646 0.536900
vn -0.000003 0.843646 0.536899
vn -0.000000 0.843646 0.536900
vn -0.000000 0.843646 0.536900
vn -0.000003 0.843646 0.536899
vn -0.000003 0.843646 0.536899
vn 1.000000 0.000000 0.000000
vn 1.000000 0.000000 0.000000
vn 1.000000 0.000000 0.000000
vn 1.000000 0.000000 0.000000
vn 1.000000 0.000000 0.000000
vn 1.000000 0.000000 0.000000
vn -0.000000 0.843647 0.536899
vn -0.000000 0.843646 0.536900
vn -0.000000 0.843647 0.536899
vn -0.000000 0.843647 0.536899
vn -0.000000 0.843646 0.536900
vn 0.000000 0.843646 0.536900
vn 0.841746 0.310929 0.441347
vn 0.841746 0.310929 0.441347
vn 0.841746 0.310929 0.441347
vn 0.607224 0.739906 0.289512
vn 0.607224 0.739906 0.289512
vn 0.607224 0.739906 0.289512
vn 0.000001 0.843646 0.536900
vn 0.000001 0.843646 0.536900
vn 0.000001 0.843646 0.536900
vn -0.000001 0.843647 0.536899
vn -0.000001 0.843647 0.536899
vn -0.000001 0.843647 0.536899
vn -1.000000 0.000000 0.000000
vn -1.000000 0.000000 0.000000
vn -1.000000 0.000000 0.000000
vn -1.000000 0.000000 0.000000
vn -1.000000 0.000000 0.000000
vn -1.000000 0.000000 0.000000
vn -0.946492 0.013836 0.322430
vn -0.946492 0.013836 0.322430
vn -0.946492 0.013836 0.322430
vn -0.000001 0.843645 0.536901
vn -0.000001 0.843645 0.536901
vn 0.000000 0.843647 0.536898
vn 0.000000 0.843647 0.536898
vn -0.000001 0.843645 0.536901
vn 0.000001 0.843647 0.536898
vn -0.728685 0.668005 0.150955
vn -0.728685 0.668005 0.150955
vn -0.728685 0.668005 0.150955
vn 0.000000 0.843646 0.536900
vn 0.000000 0.843646 0.536900
vn 0.000000 0.843646 0.536900
vn -1.000000 0.000000 0.000000
vn -1.000000 0.000000 0.000000
vn -1.000000 0.000000 0.000000
vn -1.000000 0.000000 0.000000
vn -1.000000 0.000000 0.000000
vn -1.000000 0.000000 0.000000
vn -1.000000 0.000000 0.000000
vn -1.000000 0.000000 0.000000
vn -1.000000 0.000000 0.000000
vn -0.667133 -0.168234 -0.725694
vn -0.667133 -0.168234 -0.725694
vn -0.667133 -0.168234 -0.725694
vn 0.000000 0.000000 -1.000000
vn 0.000000 0.000000 -1.000000
vn 0.000000 0.000000 -1.000000
vn 0.000000 0.000000 -1.000000
vn 0.000000 0.000000 -1.000000
vn 0.000000 0.000000 -1.000000
vn 0.000000 0.000000 -1.000000
vn 0.000000 0.000000 -1.000000
vn 0.000000 0.000000 -1.000000
vn -1.000000 0.000000 0.000000
vn -1.000000 0.000000 0.000000
vn -1.000000 0.000000 0.000000
vn -0.854898 0.481338 -0.193553
vn -0.854898 0.481338 -0.193553
vn -0.854898 0.481338 -0.193553
vn 1.000000 0.000000 0.000000
vn 1.000000 0.000000 0.000000
vn 1.000000 0.000000 0.000000
vn 1.000000 0.000000 0.000000
vn 1.000000 0.000000 0.000000
vn 1.000000 0.000000 0.000000
vn 0.833583 -0.217115 0.507937
vn 0.833583 -0.217115 0.507937
vn 0.833583 -0.217115 0.507937
vn 0.000003 0.000001 1.000000
vn 0.000003 0.000001 1.000000
vn 0.000003 0.000001 1.000000
vn 0.000004 -0.000001 1.000000
vn 0.000004 -0.000001 1.000000
vn 0.000004 -0.000001 1.000000
vn 0.709204 0.325534 0.625346
vn 0.709204 0.325534 0.625346
vn 0.709204 0.325534 0.625346
vn -0.000003 0.000000 1.000000
vn -0.000003 0.000000 1.000000
vn -0.000003 0.000000 1.000000
vn 0.000000 0.000000 1.000000
vn 0.000000 0.000000 1.000000
vn 0.000000 0.000000 1.000000
vn 0.000000 0.000000 1.000000
vn 0.000000 0.000000 1.000000
vn 0.000000 0.000000 1.000000
s off
f 3/1/1 6/2/2 1/3/3
f 2/4/4 5/5/5 4/6/6
f 1/3/7 10/7/8 7/8/9
f 8/9/10 9/10/11 2/4/12
f 21/11/13 22/12/14 13/13/15
f 14/16/16 36/14/17 8/9/18
f 36/14/19 38/15/20 8/9/21
f 7/8/22 16/17/23 11/18/24
f 12/19/25 15/20/26 8/9/27
f 14/16/28 8/9/29 2/4/30
f 3/1/31 19/21/32 32/22/33
f 14/16/34 2/4/35 4/6/36
f 20/23/37 4/6/38 18/24/39
f 4/6/40 20/23/41 28/26/42
f 24/25/43 28/26/44 20/23/45
f 13/13/46 7/8/47 21/11/48
f 7/8/49 11/18/50 21/11/51
f 13/13/52 1/3/53 7/8/54
f 3/1/55 25/27/56 29/28/57
f 13/13/58 3/1/59 1/3/60
f 17/29/61 31/30/62 18/24/63
f 18/24/64 31/30/65 33/31/66
f 4/6/67 3/1/68 18/24/69
f 18/24/70 3/1/71 17/29/72
f 11/18/73 16/17/74 12/19/75
f 12/19/76 16/17/77 15/20/78
f 15/20/79 16/17/80 8/9/81
f 8/9/82 16/17/83 7/8/84
f 8/9/85 7/8/86 9/10/87
f 9/10/88 7/8/89 10/7/90
f 9/10/91 10/7/92 2/4/93
f 2/4/94 10/7/95 1/3/96
f 2/4/97 1/3/98 5/5/99
f 5/5/100 1/3/101 6/2/102
f 5/5/103 6/2/104 4/6/105
f 4/6/106 6/2/107 3/1/108
f 11/18/109 12/19/110 35/32/111
f 14/16/112 23/33/113 22/12/114
f 22/12/115 23/33/116 27/34/117
f 14/16/118 4/6/119 23/33/120
f 23/33/121 4/6/122 28/26/123
f 30/36/124 20/23/125 26/35/126
f 26/35/127 20/23/128 19/21/129
f 24/25/130 27/34/131 28/26/132
f 28/26/133 27/34/134 23/33/135
f 13/13/136 27/34/137 25/27/138
f 22/12/139 27/34/140 13/13/141
f 13/13/142 25/27/143 3/1/144
f 3/1/145 29/28/146 19/21/147
f 26/35/148 29/28/149 30/36/150
f 27/34/151 24/25/152 25/27/153
f 25/27/154 24/25/155 30/36/156
f 30/36/157 29/28/158 25/27/159
f 20/23/160 30/36/161 24/25/162
f 19/21/163 29/28/164 26/35/165
f 31/30/166 17/29/167 34/37/168
f 3/1/169 34/37/170 17/29/171
f 32/22/172 33/31/173 34/37/174
f 18/24/175 33/31/176 20/23/177
f 33/31/178 32/22/179 20/23/180
f 32/22/181 19/21/182 20/23/183
f 3/1/184 32/22/185 34/37/186
f 34/37/187 33/31/188 31/30/189
f 12/19/190 8/9/191 35/32/192
f 35/32/193 8/9/194 38/15/195
f 36/14/196 37/38/197 38/15/198
f 21/11/199 37/38/200 36/14/201
f 11/18/202 35/32/203 37/38/204
f 38/15/205 37/38/206 35/32/207
f 11/18/208 37/38/209 21/11/210
f 14/16/211 22/12/212 36/14/213
f 21/11/214 36/14/215 22/12/216
