# This file uses meters as units for non-parametric coordinates.

v -100.000000 0.000000 99.999992
v 0.000000 0.000000 100.000008
v -100.000000 10.136396 99.999969
v 0.000000 3.475564 99.999977
v -100.000000 10.136402 -0.000027
v -6.237131 10.250292 -0.000034
v -100.000000 -0.000001 -0.000005
v 0.000000 0.138538 0.000002
v 0.000000 10.079115 6.830214
v 0.000000 7.999981 -0.000015
v -5.508142 9.926601 99.999969
v 0.000000 10.127340 93.796257
v -100.000000 10.232686 33.071648
v -100.000000 0.174580 33.040508
v -100.000000 10.127806 56.346748
v -100.000000 0.174099 59.396809
v -100.000000 4.041359 52.251160
v -91.989807 14.751570 42.815620
v -68.593117 3.191826 99.999992
v -56.710209 9.685143 99.999969
v -50.081505 0.000008 100.000000
v -45.287132 9.950764 99.999962
v -51.489670 8.703289 99.999969
v -57.235073 1.295116 99.999985
v -60.737099 11.265583 88.546921
v -68.782425 28.158686 31.228350
v -50.008648 38.997009 50.008621
vt 0.247760 0.303287
vt 0.247760 0.303287
vt 0.247760 0.303287
vt 0.247760 0.303287
vt 0.247760 0.303287
vt 0.247760 0.303287
vt 0.247760 0.303287
vt 0.247760 0.303287
vt 0.247760 0.303287
vt 0.247760 0.303287
vt 0.247760 0.303287
vt 0.247760 0.303287
vt 0.247760 0.303287
vt 0.247760 0.303287
vt 0.247760 0.303287
vt 0.247760 0.303287
vt 0.247760 0.303287
vt 0.247760 0.303287
vt 0.247760 0.303287
vt 0.247760 0.303287
vt 0.247760 0.303287
vt 0.247760 0.303287
vt 0.247760 0.303287
vt 0.247760 0.303287
vt 0.247760 0.303287
vt 0.247760 0.303287
vt 0.247760 0.303287
vn 0.326269 0.904308 -0.275273
vn 0.326269 0.904308 -0.275273
vn 0.326269 0.904308 -0.275273
vn -1.000000 0.000000 0.000000
vn -1.000000 -0.000000 0.000000
vn -1.000000 -0.000000 0.000000
vn -1.000000 -0.000000 0.000000
vn -1.000000 -0.000000 0.000000
vn -1.000000 -0.000000 0.000000
vn -0.002902 -0.999987 -0.004288
vn -0.002289 -0.999992 -0.003256
vn -0.000640 -1.000000 0.000462
vn -0.002289 -0.999992 -0.003256
vn 0.000428 -0.999997 0.002387
vn -0.000640 -1.000000 0.000462
vn 0.001385 -0.999985 0.005284
vn -0.000640 -1.000000 0.000462
vn 0.000428 -0.999997 0.002387
vn -0.000000 -0.000002 -1.000000
vn 0.000000 -0.000003 -1.000000
vn -0.000000 -0.000002 -1.000000
vn -0.000000 -0.000002 -1.000000
vn 0.000000 -0.000003 -1.000000
vn 0.000000 -0.000004 -1.000000
vn -0.489001 0.872280 -0.002540
vn -0.489001 0.872280 -0.002540
vn -0.489001 0.872280 -0.002540
vn 0.500278 0.865865 -0.000480
vn 0.500278 0.865865 -0.000480
vn 0.500278 0.865865 -0.000480
vn -0.000000 0.000002 1.000000
vn 0.000000 0.000003 1.000000
vn -0.000000 0.000002 1.000000
vn -0.000000 0.000002 1.000000
vn 0.000000 0.000003 1.000000
vn 0.000000 0.000003 1.000000
vn 1.000000 0.000000 0.000000
vn 1.000000 0.000000 0.000000
vn 1.000000 0.000000 0.000000
vn 0.624123 0.532902 0.571390
vn 0.624123 0.532902 0.571390
vn 0.624123 0.532902 0.571390
vn -1.000000 -0.000000 0.000000
vn -1.000000 -0.000000 0.000000
vn -1.000000 -0.000000 0.000000
vn -1.000000 -0.000000 0.000000
vn -1.000000 -0.000000 0.000000
vn -1.000000 0.000000 0.000000
vn -1.000000 -0.000002 0.000000
vn -1.000000 -0.000002 0.000000
vn -1.000000 -0.000002 0.000000
vn -0.864981 0.280145 -0.416324
vn -0.864981 0.280145 -0.416324
vn -0.864981 0.280145 -0.416324
vn -1.000000 0.000001 0.000000
vn -1.000000 0.000001 0.000000
vn -1.000000 0.000001 0.000000
vn -1.000000 0.000001 0.000000
vn -1.000000 0.000001 0.000000
vn -1.000000 0.000001 0.000000
vn -0.500141 0.865944 -0.000170
vn -0.500141 0.865944 -0.000170
vn -0.500141 0.865944 -0.000170
vn -0.673265 0.703647 0.227144
vn -0.673265 0.703647 0.227144
vn -0.673265 0.703647 0.227144
vn -0.001053 0.866569 -0.499056
vn -0.001053 0.866569 -0.499056
vn -0.001053 0.866569 -0.499056
vn 0.000002 -0.000002 -1.000000
vn 0.000002 -0.000002 -1.000000
vn 0.000002 -0.000002 -1.000000
vn 1.000000 0.000000 0.000000
vn 1.000000 0.000000 0.000000
vn 1.000000 0.000000 0.000000
vn 1.000000 0.000000 0.000000
vn 1.000000 0.000000 0.000000
vn 1.000000 0.000000 0.000000
vn 1.000000 0.000000 0.000000
vn 1.000000 0.000000 0.000000
vn 1.000000 0.000000 0.000000
vn 0.000000 0.000002 1.000000
vn 0.000000 0.000002 1.000000
vn 0.000001 0.000002 1.000000
vn 0.000001 0.000002 1.000000
vn 0.000000 0.000002 1.000000
vn 0.000002 0.000002 1.000000
vn 0.000000 0.000004 1.000000
vn 0.000001 0.000007 1.000000
vn 0.000000 0.000004 1.000000
vn 0.000001 0.000007 1.000000
vn 0.000001 0.000006 1.000000
vn 0.000000 0.000004 1.000000
vn 0.000000 0.000004 1.000000
vn 0.000001 0.000006 1.000000
vn 0.000000 0.000001 1.000000
vn -0.000002 0.000003 1.000000
vn -0.000001 0.000003 1.000000
vn -0.000001 0.000003 1.000000
vn -0.000001 0.000003 1.000000
vn -0.000001 0.000003 1.000000
vn -0.000000 0.000004 1.000000
vn -0.128098 -0.767090 -0.628621
vn -0.128098 -0.767090 -0.628621
vn -0.128098 -0.767090 -0.628621
vn 0.351274 -0.868365 0.350071
vn 0.351274 -0.868365 0.350071
vn 0.351274 -0.868365 0.350071
vn -0.000000 -0.712918 -0.701247
vn -0.000000 -0.712918 -0.701247
vn -0.000000 -0.712918 -0.701247
vn -0.138962 -0.767571 -0.625718
vn -0.138962 -0.767571 -0.625719
vn -0.138962 -0.767571 -0.625719
vn 0.085470 -0.841005 -0.534234
vn 0.085470 -0.841005 -0.534234
vn 0.085470 -0.841005 -0.534234
vn -0.182122 -0.983275 -0.001362
vn -0.182122 -0.983275 -0.001362
vn -0.182122 -0.983275 -0.001362
vn -0.500147 0.865940 0.000229
vn -0.500147 0.865940 0.000229
vn -0.500147 0.865940 0.000229
vn -0.500097 0.865970 -0.000162
vn -0.500104 0.865965 -0.000104
vn -0.500101 0.865967 -0.000129
vn -0.500101 0.865967 -0.000129
vn -0.500104 0.865965 -0.000104
vn -0.500147 0.865940 0.000229
vn 0.008987 0.862087 0.506680
vn 0.024290 0.860970 0.508076
vn 0.004118 0.863134 0.504959
vn 0.000525 0.864667 0.502344
vn 0.004118 0.863134 0.504959
vn -0.022196 0.863521 0.503824
vn 0.024290 0.860970 0.508076
vn -0.016717 0.855329 0.517816
vn 0.004118 0.863134 0.504959
vn -0.016717 0.855329 0.517816
vn -0.022196 0.863521 0.503824
vn 0.004118 0.863134 0.504959
vn 0.283198 0.916937 0.281115
vn 0.283198 0.916937 0.281115
vn 0.283198 0.916937 0.281115
vn -0.001053 0.866569 -0.499056
vn -0.001053 0.866569 -0.499056
vn -0.001053 0.866569 -0.499056
vn 0.307280 0.916079 -0.257639
vn 0.307280 0.916079 -0.257639
vn 0.307280 0.916079 -0.257639
s off
f 9/2/1 10/3/2 6/1/3
f 15/4/4 16/5/5 3/7/6
f 3/7/7 16/5/8 1/6/9
f 1/6/10 16/5/11 8/9/12
f 16/5/13 14/10/14 8/9/15
f 7/8/16 8/9/17 14/10/18
f 5/11/19 6/1/20 7/8/21
f 7/8/22 6/1/23 8/9/24
f 13/12/25 18/13/26 5/11/27
f 27/27/28 12/18/29 9/2/30
f 1/6/31 19/19/32 3/7/33
f 3/7/34 19/19/35 20/14/36
f 9/2/37 8/9/38 10/3/39
f 12/18/40 11/17/41 4/20/42
f 7/8/43 14/10/44 5/11/45
f 5/11/46 14/10/47 13/12/48
f 16/5/49 15/4/50 17/21/51
f 18/13/52 17/21/53 15/4/54
f 13/12/55 14/10/56 17/21/57
f 17/21/58 14/10/59 16/5/60
f 3/7/61 18/13/62 15/4/63
f 13/12/64 17/21/65 18/13/66
f 5/11/67 26/26/68 6/1/69
f 8/9/70 6/1/71 10/3/72
f 8/9/73 9/2/74 2/22/75
f 2/22/76 9/2/77 4/20/78
f 9/2/79 12/18/80 4/20/81
f 19/19/82 24/23/83 20/14/84
f 20/14/85 24/23/86 23/15/87
f 21/24/88 2/22/89 22/16/90
f 2/22/91 4/20/92 22/16/93
f 22/16/94 4/20/95 11/17/96
f 24/23/97 21/24/98 23/15/99
f 23/15/100 21/24/101 22/16/102
f 24/23/103 19/19/104 25/25/105
f 1/6/106 8/9/107 25/25/108
f 21/24/109 25/25/110 2/22/111
f 24/23/112 25/25/113 21/24/114
f 1/6/115 25/25/116 19/19/117
f 2/22/118 25/25/119 8/9/120
f 18/13/121 26/26/122 5/11/123
f 3/7/124 27/27/125 18/13/126
f 18/13/127 27/27/128 26/26/129
f 3/7/130 20/14/131 27/27/132
f 11/17/133 27/27/134 22/16/135
f 20/14/136 23/15/137 27/27/138
f 23/15/139 22/16/140 27/27/141
f 27/27/142 11/17/143 12/18/144
f 26/26/145 27/27/146 6/1/147
f 27/27/148 9/2/149 6/1/150
