# This file uses meters as units for non-parametric coordinates.

v 0.000000 -10.000000 100.000000
v 0.000000 -0.665679 100.000000
v 0.000000 -0.000000 95.922791
v -98.756783 0.000000 1.583236
v -2.465342 0.000000 0.000000
v -100.000000 -10.000000 0.000000
v 0.000000 -10.000000 0.000000
v 0.000000 0.000000 4.966759
v 0.000000 -3.090549 0.000000
v -52.504051 0.000000 0.000000
v -73.866730 0.000000 0.000000
v -61.013222 0.000000 1.793653
v -66.802490 -3.010455 0.000000
v 0.000000 0.000000 50.805832
v 0.000000 0.000000 70.564423
v 0.000000 -2.601132 52.965099
v -3.036503 0.000000 53.944324
v -88.621872 0.000000 0.000000
v -100.000000 -3.349202 0.000000
v -80.901718 -0.665679 58.778538
v -81.529099 -0.000000 50.440601
v -71.435905 -0.000000 63.766445
v -76.686333 -0.000000 56.786083
v -80.901718 -10.000000 58.778538
v -58.778538 -0.665679 80.901718
v -58.778538 -10.000000 80.901718
v -30.901707 -0.665679 95.105667
v -30.901707 -10.000000 95.105667
v -95.105675 -0.332840 30.901707
v -95.105675 -10.000001 30.901707
v -57.621437 -0.000000 80.014320
v -30.951750 -0.000000 94.317329
v -93.843155 -0.000000 30.160494
vt 0.247760 0.303287
vt 0.247760 0.303287
vt 0.247760 0.303287
vt 0.247760 0.303287
vt 0.247760 0.303287
vt 0.247760 0.303287
vt 0.247760 0.303287
vt 0.247760 0.303287
vt 0.247760 0.303287
vt 0.247760 0.303287
vt 0.247760 0.303287
vt 0.247760 0.303287
vt 0.247760 0.303287
vt 0.247760 0.303287
vt 0.247760 0.303287
vt 0.247760 0.303287
vt 0.247760 0.303287
vt 0.247760 0.303287
vt 0.247760 0.303287
vt 0.247760 0.303287
vt 0.247760 0.303287
vt 0.247760 0.303287
vt 0.247760 0.303287
vt 0.247760 0.303287
vt 0.247760 0.303287
vt 0.247760 0.303287
vt 0.247760 0.303287
vt 0.247760 0.303287
vt 0.247760 0.303287
vt 0.247760 0.303287
vt 0.247760 0.303287
vt 0.247760 0.303287
vt 0.247760 0.303287
vn 1.000000 0.000000 0.000000
vn 1.000000 0.000000 0.000000
vn 1.000000 0.000000 0.000000
vn -0.136693 0.464381 -0.875023
vn -0.136693 0.464381 -0.875023
vn -0.136693 0.464381 -0.875023
vn 0.000000 -1.000000 -0.000000
vn 0.000000 -1.000000 0.000000
vn 0.000000 -1.000000 -0.000000
vn 0.000000 -1.000000 0.000000
vn 0.000000 -1.000000 0.000000
vn 0.000000 -1.000000 0.000000
vn 0.000000 -1.000000 0.000000
vn 0.000000 -1.000000 0.000000
vn 0.000000 -1.000000 0.000000
vn 0.000000 -1.000000 0.000000
vn 0.000000 -1.000000 0.000000
vn 0.000000 -1.000000 0.000000
vn 0.000000 -1.000000 0.000000
vn 0.000000 -1.000000 0.000000
vn 0.000000 -1.000000 -0.000000
vn 0.728799 0.581366 -0.361753
vn 0.728799 0.581366 -0.361753
vn 0.728799 0.581366 -0.361753
vn -0.156434 0.000000 0.987688
vn -0.156434 0.000000 0.987688
vn -0.156434 0.000000 0.987688
vn -0.156434 0.000000 0.987688
vn -0.156434 0.000000 0.987688
vn -0.156434 0.000000 0.987688
vn 1.000000 0.000000 0.000000
vn 1.000000 0.000000 0.000000
vn 1.000000 0.000000 0.000000
vn 1.000000 0.000000 0.000000
vn 1.000000 0.000000 0.000000
vn 1.000000 0.000000 0.000000
vn 1.000000 0.000000 0.000000
vn 1.000000 0.000000 0.000000
vn 1.000000 0.000000 0.000000
vn 0.000000 0.000000 -1.000000
vn 0.000000 0.000000 -1.000000
vn 0.000000 0.000000 -1.000000
vn 0.000000 0.000000 -1.000000
vn 0.000000 0.000000 -1.000000
vn 0.000000 0.000000 -1.000000
vn -0.147339 0.699798 -0.698981
vn -0.147339 0.699798 -0.698981
vn -0.147339 0.699798 -0.698981
vn 0.000000 0.000000 -1.000000
vn 0.000000 0.000000 -1.000000
vn 0.000000 0.000000 -1.000000
vn 0.000000 0.000000 -1.000000
vn 0.000000 0.000000 -1.000000
vn 0.000000 0.000000 -1.000000
vn 0.131466 0.308493 -0.942098
vn 0.131466 0.308494 -0.942098
vn 0.131466 0.308494 -0.942098
vn 1.000000 0.000000 0.000000
vn 1.000000 0.000000 0.000000
vn 1.000000 0.000000 0.000000
vn 1.000000 0.000000 0.000000
vn 1.000000 0.000000 0.000000
vn 1.000000 0.000000 0.000000
vn 1.000000 0.000000 0.000000
vn 1.000000 0.000000 0.000000
vn 1.000000 0.000000 0.000000
vn 0.624821 0.772377 -0.114155
vn 0.624821 0.772377 -0.114155
vn 0.624821 0.772377 -0.114155
vn 0.622439 0.499912 0.602212
vn 0.622439 0.499911 0.602212
vn 0.622439 0.499911 0.602212
vn 0.000000 0.000000 -1.000000
vn 0.000000 0.000000 -1.000000
vn 0.000000 0.000000 -1.000000
vn 0.000000 0.000000 -1.000000
vn 0.000000 0.000000 -1.000000
vn 0.000000 0.000000 -1.000000
vn 0.000000 1.000000 0.000000
vn 0.000000 1.000000 0.000000
vn 0.000000 1.000000 0.000000
vn 0.000000 1.000000 0.000000
vn 0.000000 1.000000 0.000000
vn 0.000000 1.000000 0.000000
vn 0.000000 1.000000 0.000000
vn 0.000000 1.000000 0.000000
vn 0.000000 1.000000 0.000000
vn 0.000000 1.000000 0.000000
vn 0.000000 1.000000 0.000000
vn 0.000000 1.000000 0.000000
vn 0.000000 0.000000 -1.000000
vn 0.000000 0.000000 -1.000000
vn 0.000000 0.000000 -1.000000
vn -0.000000 1.000000 0.000000
vn -0.000000 1.000000 0.000000
vn -0.000000 1.000000 0.000000
vn -0.232693 0.971727 0.040010
vn -0.232693 0.971727 0.040010
vn -0.232693 0.971727 0.040010
vn -0.114836 0.989511 0.087641
vn -0.114836 0.989511 0.087641
vn -0.114836 0.989511 0.087641
vn -0.145479 0.978607 0.145479
vn -0.279116 0.929192 0.242274
vn -0.147116 0.978184 0.146672
vn -0.147116 0.978184 0.146672
vn -0.279116 0.929192 0.242274
vn -0.316715 0.909494 0.269282
vn -0.000000 1.000000 0.000000
vn -0.000000 1.000000 0.000000
vn -0.000000 1.000000 0.000000
vn -0.115280 0.989541 0.086710
vn -0.115280 0.989541 0.086710
vn -0.115280 0.989541 0.086710
vn -0.000000 1.000000 0.000000
vn -0.000000 1.000000 0.000000
vn -0.000000 1.000000 0.000000
vn -0.891007 0.000000 0.453990
vn -0.891007 0.000000 0.453991
vn -0.891006 0.000000 0.453991
vn -0.891006 0.000000 0.453991
vn -0.891007 0.000000 0.453991
vn -0.891006 0.000000 0.453991
vn -0.707107 0.000000 0.707107
vn -0.707107 0.000000 0.707107
vn -0.707107 0.000000 0.707107
vn -0.707107 0.000000 0.707107
vn -0.707107 0.000000 0.707107
vn -0.707107 0.000000 0.707107
vn -0.453990 0.000000 0.891007
vn -0.453990 0.000000 0.891007
vn -0.453990 0.000000 0.891007
vn -0.453990 0.000000 0.891007
vn -0.453990 0.000000 0.891007
vn -0.453990 0.000000 0.891007
vn -0.987689 0.000000 0.156434
vn -0.991464 0.008998 0.130066
vn -0.980304 0.091582 0.174974
vn -0.980304 0.091582 0.174974
vn -0.991464 0.008998 0.130066
vn -0.967077 0.178551 0.181332
vn -0.991464 0.008998 0.130066
vn -0.992335 0.000000 0.123578
vn -0.967077 0.178551 0.181332
vn -0.204921 0.892333 0.402180
vn -0.325550 0.723848 0.608327
vn -0.206275 0.890964 0.404517
vn -0.206275 0.890964 0.404517
vn -0.325550 0.723848 0.608327
vn -0.332842 0.709959 0.620624
vn -0.033510 0.762565 0.646044
vn -0.032413 0.840204 0.541302
vn -0.025573 0.986175 0.163720
vn -0.025573 0.986175 0.163720
vn -0.032413 0.840204 0.541302
vn -0.025513 0.986611 0.161082
vn -0.189513 0.975112 0.115072
vn -0.182034 0.977138 0.109841
vn -0.154139 0.983910 0.090343
vn -0.154139 0.983910 0.090343
vn -0.182034 0.977138 0.109841
vn -0.153840 0.983976 0.090134
vn -0.000000 1.000000 0.000000
vn -0.000000 1.000000 0.000000
vn -0.000000 1.000000 0.000000
vn -0.000000 1.000000 0.000000
vn -0.000000 1.000000 0.000000
vn -0.000000 1.000000 0.000000
vn -0.000000 1.000000 0.000000
vn -0.000000 1.000000 0.000000
vn -0.000000 1.000000 0.000000
vn 0.000000 1.000000 0.000000
vn 0.000000 1.000000 0.000000
vn 0.000000 1.000000 0.000000
vn 0.000000 1.000000 0.000000
vn 0.000000 1.000000 0.000000
vn 0.000000 1.000000 0.000000
vn 0.000000 1.000000 0.000000
vn 0.000000 1.000000 0.000000
vn 0.000000 1.000000 0.000000
vn -0.000000 1.000000 0.000000
vn -0.000000 1.000000 0.000000
vn -0.000000 1.000000 0.000000
vn -0.000000 1.000000 0.000000
vn -0.000000 1.000000 0.000000
vn 0.000000 1.000000 0.000000
s off
f 3/1/1 2/2/2 1/3/3
f 4/4/4 18/5/5 19/6/6
f 6/7/7 7/8/8 30/12/9
f 1/3/10 28/9/11 7/8/12
f 28/9/13 26/10/14 7/8/15
f 26/10/16 24/11/17 7/8/18
f 7/8/19 24/11/20 30/12/21
f 8/13/22 9/14/23 5/15/24
f 2/2/25 27/16/26 1/3/27
f 1/3/28 27/16/29 28/9/30
f 16/18/31 7/8/32 14/17/33
f 7/8/34 9/14/35 14/17/36
f 14/17/37 9/14/38 8/13/39
f 6/7/40 13/19/41 7/8/42
f 6/7/43 11/20/44 13/19/45
f 10/21/46 13/19/47 12/22/48
f 13/19/49 10/21/50 7/8/51
f 7/8/52 10/21/53 5/15/54
f 12/22/55 13/19/56 11/20/57
f 16/18/58 15/23/59 1/3/60
f 1/3/61 15/23/62 3/1/63
f 1/3/64 7/8/65 16/18/66
f 16/18/67 17/24/68 15/23/69
f 14/17/70 17/24/71 16/18/72
f 19/6/73 18/5/74 6/7/75
f 6/7/76 18/5/77 11/20/78
f 12/22/79 17/24/80 10/21/81
f 10/21/82 17/24/83 14/17/84
f 10/21/85 14/17/86 8/13/87
f 10/21/88 8/13/89 5/15/90
f 7/8/91 5/15/92 9/14/93
f 11/20/94 33/25/95 12/22/96
f 4/4/97 29/26/98 33/25/99
f 20/27/100 23/28/101 21/29/102
f 20/27/103 25/31/104 22/30/105
f 22/30/106 25/31/107 31/32/108
f 17/24/109 23/28/110 22/30/111
f 22/30/112 23/28/113 20/27/114
f 12/22/115 23/28/116 17/24/117
f 24/11/118 20/27/119 30/12/120
f 30/12/121 20/27/122 29/26/123
f 26/10/124 25/31/125 24/11/126
f 24/11/127 25/31/128 20/27/129
f 28/9/130 27/16/131 26/10/132
f 26/10/133 27/16/134 25/31/135
f 6/7/136 30/12/137 19/6/138
f 19/6/139 30/12/140 4/4/141
f 30/12/142 29/26/143 4/4/144
f 25/31/145 27/16/146 31/32/147
f 31/32/148 27/16/149 32/33/150
f 32/33/151 27/16/152 3/1/153
f 3/1/154 27/16/155 2/2/156
f 33/25/157 29/26/158 21/29/159
f 21/29/160 29/26/161 20/27/162
f 17/24/163 31/32/164 32/33/165
f 17/24/166 22/30/167 31/32/168
f 12/22/169 21/29/170 23/28/171
f 12/22/172 33/25/173 21/29/174
f 4/4/175 33/25/176 18/5/177
f 18/5/178 33/25/179 11/20/180
f 17/24/181 32/33/182 15/23/183
f 15/23/184 32/33/185 3/1/186
