# This file uses meters as units for non-parametric coordinates.

v 0.000000 140.711197 17.289314
v -15.355591 125.355576 17.289314
v -130.711182 140.711197 17.289314
v -115.355583 125.355576 17.289314
v -130.711182 140.711197 0.000000
v -115.355583 125.355576 0.000000
v 0.000000 140.711197 0.000000
v -15.355591 125.355576 0.000000
v -130.711182 0.000000 17.289314
v -115.355583 15.355591 17.289314
v -130.711182 0.000000 0.000000
v -115.355583 15.355591 0.000000
v 0.000000 0.000000 17.289314
v -15.355591 15.355591 17.289314
v 0.000000 0.000000 0.000000
v -15.355591 15.355591 0.000000
vt 0.247760 0.303287
vt 0.247760 0.303287
vt 0.247760 0.303287
vt 0.247760 0.303287
vt 0.247760 0.303287
vt 0.247760 0.303287
vt 0.247760 0.303287
vt 0.247760 0.303287
vt 0.247760 0.303287
vt 0.247760 0.303287
vt 0.247760 0.303287
vt 0.247760 0.303287
vt 0.247760 0.303287
vt 0.247760 0.303287
vt 0.247760 0.303287
vt 0.247760 0.303287
vn 0.000000 0.000000 1.000000
vn 0.000000 0.000000 1.000000
vn 0.000000 0.000000 1.000000
vn 0.000000 0.000000 1.000000
vn 0.000000 0.000000 1.000000
vn 0.000000 0.000000 1.000000
vn 0.000000 0.000000 -1.000000
vn 0.000000 0.000000 -1.000000
vn 0.000000 0.000000 -1.000000
vn 0.000000 0.000000 -1.000000
vn 0.000000 0.000000 -1.000000
vn 0.000000 0.000000 -1.000000
vn 0.000000 -1.000000 0.000000
vn 0.000000 -1.000000 0.000000
vn 0.000000 -1.000000 0.000000
vn 0.000000 -1.000000 0.000000
vn 0.000000 -1.000000 0.000000
vn 0.000000 -1.000000 0.000000
vn 0.000000 1.000000 0.000000
vn 0.000000 1.000000 0.000000
vn 0.000000 1.000000 0.000000
vn 0.000000 1.000000 0.000000
vn 0.000000 1.000000 0.000000
vn 0.000000 1.000000 0.000000
vn 0.000000 0.000000 1.000000
vn 0.000000 0.000000 1.000000
vn 0.000000 0.000000 1.000000
vn 0.000000 0.000000 1.000000
vn 0.000000 0.000000 1.000000
vn 0.000000 0.000000 1.000000
vn 0.000000 0.000000 -1.000000
vn 0.000000 0.000000 -1.000000
vn 0.000000 0.000000 -1.000000
vn 0.000000 0.000000 -1.000000
vn 0.000000 0.000000 -1.000000
vn 0.000000 0.000000 -1.000000
vn 0.707107 -0.707107 0.000000
vn 0.707107 -0.707107 0.000000
vn 0.707107 -0.707107 0.000000
vn 0.707107 -0.707107 0.000000
vn 0.707107 -0.707107 0.000000
vn 0.707107 -0.707107 0.000000
vn 1.000000 0.000000 0.000000
vn 1.000000 0.000000 0.000000
vn 1.000000 0.000000 0.000000
vn 1.000000 0.000000 0.000000
vn 1.000000 0.000000 0.000000
vn 1.000000 0.000000 0.000000
vn -1.000000 0.000000 0.000000
vn -1.000000 0.000000 0.000000
vn -1.000000 0.000000 0.000000
vn -1.000000 0.000000 0.000000
vn -1.000000 0.000000 0.000000
vn -1.000000 0.000000 0.000000
vn 0.000000 0.000000 1.000000
vn 0.000000 0.000000 1.000000
vn 0.000000 0.000000 1.000000
vn 0.000000 0.000000 1.000000
vn 0.000000 0.000000 1.000000
vn 0.000000 0.000000 1.000000
vn 0.000000 0.000000 -1.000000
vn -0.000000 -0.000000 -1.000000
vn -0.000000 -0.000000 -1.000000
vn -0.000000 -0.000000 -1.000000
vn -0.000000 -0.000000 -1.000000
vn -0.000000 -0.000000 -1.000000
vn -0.707107 -0.707107 0.000000
vn -0.707107 -0.707107 0.000000
vn -0.707107 -0.707107 0.000000
vn -0.707107 -0.707107 0.000000
vn -0.707107 -0.707107 0.000000
vn -0.707107 -0.707107 0.000000
vn -1.000000 0.000000 0.000000
vn -1.000000 0.000000 0.000000
vn -1.000000 0.000000 0.000000
vn -1.000000 0.000000 0.000000
vn -1.000000 0.000000 0.000000
vn -1.000000 0.000000 0.000000
vn 1.000000 0.000000 0.000000
vn 1.000000 0.000000 0.000000
vn 1.000000 0.000000 0.000000
vn 1.000000 0.000000 0.000000
vn 1.000000 0.000000 0.000000
vn 1.000000 0.000000 0.000000
vn 0.000000 0.000000 1.000000
vn 0.000000 0.000000 1.000000
vn 0.000000 0.000000 1.000000
vn 0.000000 0.000000 1.000000
vn 0.000000 0.000000 1.000000
vn 0.000000 0.000000 1.000000
vn 0.000000 0.000000 -1.000000
vn 0.000000 0.000000 -1.000000
vn 0.000000 0.000000 -1.000000
vn 0.000000 0.000000 -1.000000
vn 0.000000 0.000000 -1.000000
vn 0.000000 0.000000 -1.000000
vn 0.000000 1.000000 0.000000
vn 0.000000 1.000000 0.000000
vn 0.000000 1.000000 0.000000
vn 0.000000 1.000000 0.000000
vn 0.000000 1.000000 0.000000
vn 0.000000 1.000000 0.000000
vn 0.000000 -1.000000 0.000000
vn 0.000000 -1.000000 0.000000
vn 0.000000 -1.000000 0.000000
vn 0.000000 -1.000000 0.000000
vn 0.000000 -1.000000 0.000000
vn 0.000000 -1.000000 0.000000
vn -0.707107 0.707107 0.000000
vn -0.707107 0.707107 0.000000
vn -0.707107 0.707107 0.000000
vn -0.707107 0.707107 0.000000
vn -0.707107 0.707107 0.000000
vn -0.707107 0.707107 0.000000
vn 0.707107 0.707107 0.000000
vn 0.707107 0.707107 0.000000
vn 0.707107 0.707107 0.000000
vn 0.707107 0.707107 0.000000
vn 0.707107 0.707107 0.000000
vn 0.707107 0.707107 0.000000
s off
f 1/1/1 3/2/2 2/4/3
f 2/4/4 3/2/5 4/3/6
f 5/5/7 7/6/8 6/8/9
f 6/8/10 7/6/11 8/7/12
f 2/4/13 4/3/14 8/7/15
f 8/7/16 4/3/17 6/8/18
f 7/6/19 5/5/20 1/1/21
f 1/1/22 5/5/23 3/2/24
f 9/9/25 10/10/26 3/2/27
f 3/2/28 10/10/29 4/3/30
f 5/5/31 6/8/32 11/12/33
f 11/12/34 6/8/35 12/11/36
f 11/12/37 12/11/38 9/9/39
f 9/9/40 12/11/41 10/10/42
f 10/10/43 12/11/44 4/3/45
f 4/3/46 12/11/47 6/8/48
f 11/12/49 9/9/50 5/5/51
f 5/5/52 9/9/53 3/2/54
f 13/13/55 1/1/56 14/14/57
f 14/14/58 1/1/59 2/4/60
f 7/6/61 15/15/62 8/7/63
f 8/7/64 15/15/65 16/16/66
f 15/15/67 13/13/68 16/16/69
f 16/16/70 13/13/71 14/14/72
f 14/14/73 2/4/74 16/16/75
f 16/16/76 2/4/77 8/7/78
f 15/15/79 7/6/80 13/13/81
f 13/13/82 7/6/83 1/1/84
f 13/13/85 14/14/86 9/9/87
f 9/9/88 14/14/89 10/10/90
f 11/12/91 12/11/92 15/15/93
f 15/15/94 12/11/95 16/16/96
f 14/14/97 16/16/98 10/10/99
f 10/10/100 16/16/101 12/11/102
f 15/15/103 13/13/104 11/12/105
f 11/12/106 13/13/107 9/9/108
f 11/12/109 9/9/110 12/11/111
f 12/11/112 9/9/113 10/10/114
f 15/15/115 16/16/116 13/13/117
f 13/13/118 16/16/119 14/14/120
