# This file uses meters as units for non-parametric coordinates.

v -100.000000 0.000000 94.105873
v 0.000000 0.000000 96.269440
v 0.000000 41.124161 0.000000
v -100.000000 0.000000 0.000000
v 0.000000 0.000000 0.000000
v -100.000000 10.086401 78.367210
v -100.000000 39.904446 14.415008
v -100.000000 33.561295 28.019472
v -100.000000 18.576199 60.158737
v -93.414841 34.305653 26.423016
v -88.872528 12.902717 72.326920
v -100.000000 32.104797 18.249107
v -100.000000 12.150791 65.860870
v -17.300112 46.625519 0.000000
v 0.000000 44.488758 4.582816
v -92.912689 46.625519 0.000000
v -100.000000 37.504486 0.000000
v -100.000000 44.650738 4.235405
v -4.727459 0.000000 100.000000
v 0.000000 1.776871 96.189064
v -100.000000 3.116614 93.315643
v -88.949844 0.000000 100.000015
v 0.000000 33.872185 27.352692
v 0.000000 42.079353 9.750383
v -2.592698 37.657066 19.235079
v 0.000000 35.270439 17.200562
vt 0.247760 0.303287
vt 0.247760 0.303287
vt 0.247760 0.303287
vt 0.247760 0.303287
vt 0.247760 0.303287
vt 0.247760 0.303287
vt 0.247760 0.303287
vt 0.247760 0.303287
vt 0.247760 0.303287
vt 0.247760 0.303287
vt 0.247760 0.303287
vt 0.247760 0.303287
vt 0.247760 0.303287
vt 0.247760 0.303287
vt 0.247760 0.303287
vt 0.247760 0.303287
vt 0.247760 0.303287
vt 0.247760 0.303287
vt 0.247760 0.303287
vt 0.247760 0.303287
vt 0.247760 0.303287
vt 0.247760 0.303287
vt 0.247760 0.303287
vt 0.247760 0.303287
vt 0.247760 0.303287
vt 0.247760 0.303287
vn 0.248302 0.780836 -0.573272
vn 0.248302 0.780836 -0.573272
vn 0.248302 0.780836 -0.573272
vn 0.000000 -1.000000 0.000000
vn 0.000000 -1.000000 0.000000
vn 0.000000 -1.000000 0.000000
vn 0.000000 -1.000000 0.000000
vn 0.000000 -1.000000 0.000000
vn 0.000000 -1.000000 0.000000
vn 0.000000 -1.000000 0.000000
vn 0.000000 -1.000000 0.000000
vn 0.000000 -1.000000 0.000000
vn 0.000000 -1.000000 0.000000
vn 0.000000 -1.000000 0.000000
vn 0.000000 -1.000000 0.000000
vn -1.000000 -0.000007 0.000000
vn -1.000000 -0.000004 0.000000
vn -1.000000 -0.000001 0.000000
vn -1.000000 -0.000001 0.000000
vn -1.000000 -0.000004 0.000000
vn -1.000000 0.000000 0.000000
vn -0.432348 0.598513 0.674431
vn -0.432348 0.598513 0.674431
vn -0.432348 0.598513 0.674431
vn -1.000000 0.000000 0.000000
vn -1.000000 0.000000 0.000000
vn -1.000000 0.000000 0.000000
vn -0.783621 0.274063 0.557519
vn -0.783621 0.274063 0.557519
vn -0.783621 0.274063 0.557519
vn -1.000000 0.000000 0.000000
vn -1.000000 0.000000 0.000000
vn -1.000000 0.000000 0.000000
vn 0.000000 0.906326 0.422579
vn 0.000000 0.906326 0.422579
vn 0.000000 0.906326 0.422579
vn 0.000000 0.906326 0.422579
vn 0.000000 0.906326 0.422579
vn -0.000000 0.906326 0.422579
vn -0.000000 0.906326 0.422579
vn 0.000000 0.906326 0.422579
vn 0.000000 0.906326 0.422580
vn -0.000001 0.906326 0.422578
vn 0.000000 0.906326 0.422579
vn -0.000000 0.906326 0.422579
vn -0.000000 0.906326 0.422579
vn -0.000000 0.906326 0.422579
vn -0.000000 0.906326 0.422579
vn 0.000000 0.906326 0.422579
vn -0.000000 0.906326 0.422579
vn -0.000000 0.906326 0.422579
vn -0.145965 0.978477 -0.145865
vn -0.145965 0.978477 -0.145865
vn -0.145965 0.978477 -0.145865
vn -0.159251 0.974057 0.160785
vn -0.159251 0.974057 0.160785
vn -0.159251 0.974057 0.160785
vn -1.000000 -0.000001 0.000000
vn -1.000000 -0.000001 0.000000
vn -1.000000 -0.000001 0.000000
vn -1.000000 0.000000 0.000000
vn -1.000000 0.000000 0.000000
vn -1.000000 0.000000 0.000000
vn -0.548603 0.426281 -0.719249
vn -0.548603 0.426281 -0.719249
vn -0.548603 0.426281 -0.719249
vn -1.000000 0.000000 0.000000
vn -1.000000 0.000000 0.000000
vn -1.000000 0.000000 0.000000
vn 0.000001 0.906326 0.422580
vn 0.000000 0.906326 0.422579
vn 0.000000 0.906326 0.422579
vn 0.000000 0.906326 0.422579
vn 0.000000 0.906326 0.422579
vn 0.000000 0.906326 0.422579
vn 0.000000 0.906326 0.422579
vn 0.000000 0.906326 0.422579
vn 0.000000 0.906326 0.422579
vn 1.000000 0.000000 0.000000
vn 1.000000 0.000000 0.000000
vn 1.000000 0.000000 0.000000
vn 1.000000 0.000000 0.000000
vn 1.000000 0.000000 0.000000
vn 1.000000 0.000000 0.000000
vn 1.000000 0.000000 0.000000
vn 1.000000 0.000000 0.000000
vn 1.000000 0.000000 0.000000
vn 0.000000 0.000000 -1.000000
vn 0.000000 0.000000 -1.000000
vn 0.000000 0.000000 -1.000000
vn 0.000000 0.000000 -1.000000
vn 0.000000 0.000000 -1.000000
vn 0.000000 0.000000 -1.000000
vn 0.000000 0.000000 -1.000000
vn 0.000000 0.000000 -1.000000
vn 0.000000 0.000000 -1.000000
vn 0.000000 0.000000 -1.000000
vn 0.000000 0.000000 -1.000000
vn 0.000000 0.000000 -1.000000
vn -1.000000 0.000000 0.000000
vn -1.000000 0.000000 0.000000
vn -1.000000 0.000000 0.000000
vn -1.000000 0.000000 0.000000
vn -1.000000 0.000000 0.000000
vn -1.000000 0.000001 0.000000
vn 0.619088 0.035487 0.784520
vn 0.619087 0.035487 0.784520
vn 0.619087 0.035487 0.784520
vn -0.459280 0.218323 0.861044
vn -0.459280 0.218323 0.861044
vn -0.459280 0.218323 0.861044
vn 1.000000 0.000000 0.000000
vn 1.000000 0.000000 0.000000
vn 1.000000 0.000000 0.000000
vn 1.000000 0.000000 0.000000
vn 1.000000 0.000000 0.000000
vn 1.000000 0.000000 0.000000
vn 1.000000 0.000000 0.000000
vn 1.000000 0.000000 0.000000
vn 1.000000 0.000000 0.000000
vn -0.000000 0.906326 0.422579
vn -0.000000 0.906326 0.422579
vn -0.000000 0.906326 0.422579
vn 0.713722 0.693879 0.095568
vn 0.713722 0.693879 0.095568
vn 0.713722 0.693879 0.095568
vn -0.000000 0.906326 0.422578
vn -0.000000 0.906326 0.422578
vn -0.000000 0.906326 0.422578
vn -0.000000 0.906326 0.422579
vn -0.000000 0.906327 0.422578
vn -0.000000 0.906326 0.422579
vn -0.000000 0.906326 0.422579
vn -0.000000 0.906327 0.422578
vn -0.000000 0.906325 0.422580
vn -0.000000 0.906327 0.422578
vn -0.000000 0.906327 0.422578
vn -0.000000 0.906325 0.422580
vn -0.000000 0.906327 0.422578
vn 0.000000 0.906326 0.422580
vn -0.000000 0.906325 0.422580
vn 0.770535 0.470502 0.430004
vn 0.770535 0.470502 0.430004
vn 0.770535 0.470502 0.430004
s off
f 14/1/1 15/2/2 3/3/3
f 4/4/4 5/5/5 1/6/6
f 1/6/7 5/5/8 22/7/9
f 5/5/10 2/8/11 22/7/12
f 2/8/13 19/9/14 22/7/15
f 1/6/16 21/10/17 4/4/18
f 4/4/19 21/10/20 6/11/21
f 9/12/22 13/13/23 11/14/24
f 4/4/25 12/15/26 7/16/27
f 7/16/28 12/15/29 10/17/30
f 4/4/31 13/13/32 9/12/33
f 19/9/34 11/14/35 22/7/36
f 22/7/37 11/14/38 21/10/39
f 21/10/40 11/14/41 6/11/42
f 8/18/43 9/12/44 10/17/45
f 19/9/46 10/17/47 11/14/48
f 9/12/49 11/14/50 10/17/51
f 10/17/52 12/15/53 8/18/54
f 11/14/55 13/13/56 6/11/57
f 4/4/58 9/12/59 8/18/60
f 4/4/61 8/18/62 12/15/63
f 16/19/64 17/20/65 18/21/66
f 4/4/67 6/11/68 13/13/69
f 19/9/70 20/22/71 10/17/72
f 25/23/73 10/17/74 23/24/75
f 23/24/76 10/17/77 20/22/78
f 26/25/79 5/5/80 24/26/81
f 24/26/82 5/5/83 15/2/84
f 5/5/85 3/3/86 15/2/87
f 5/5/88 4/4/89 3/3/90
f 3/3/91 4/4/92 14/1/93
f 14/1/94 4/4/95 16/19/96
f 17/20/97 16/19/98 4/4/99
f 4/4/100 7/16/101 17/20/102
f 17/20/103 7/16/104 18/21/105
f 20/22/106 19/9/107 2/8/108
f 1/6/109 22/7/110 21/10/111
f 2/8/112 5/5/113 20/22/114
f 26/25/115 23/24/116 5/5/117
f 20/22/118 5/5/119 23/24/120
f 7/16/121 25/23/122 24/26/123
f 26/25/124 25/23/125 23/24/126
f 7/16/127 10/17/128 25/23/129
f 7/16/130 24/26/131 18/21/132
f 18/21/133 24/26/134 16/19/135
f 24/26/136 15/2/137 16/19/138
f 15/2/139 14/1/140 16/19/141
f 24/26/142 25/23/143 26/25/144
