# This file uses meters as units for non-parametric coordinates.

v 0.000000 -10.000000 499.998413
v 0.000000 0.000000 479.078735
v -496.183014 -0.000000 2.182046
v -6.058066 0.000000 0.000000
v -500.000000 -10.000000 0.000000
v 0.000000 -10.000000 0.000000
v 0.000000 0.000000 499.998413
v 0.000000 0.000000 6.278714
v 0.000000 -3.090549 0.000000
v -276.631439 0.000000 0.000000
v -306.858093 0.000000 0.000000
v -286.811951 0.000000 6.409088
v -291.896912 -2.930482 0.000000
v 0.000000 0.000000 258.739410
v 0.000000 0.000000 301.055511
v 0.000000 -5.148641 277.366669
v -9.501826 0.000000 282.262817
v -443.109375 0.000000 0.000000
v -500.000000 -3.349202 0.000000
v 0.000000 0.000000 112.730553
v 0.000000 0.000000 71.111916
v 0.000000 -2.737894 78.219681
v -8.403904 0.000000 84.555283
v -331.396057 -0.000000 167.511459
v -317.160522 -5.906613 182.317032
v -296.510193 -0.000000 202.512177
v -313.463684 -0.000000 178.463409
vt 0.247760 0.303287
vt 0.247760 0.303287
vt 0.247760 0.303287
vt 0.247760 0.303287
vt 0.247760 0.303287
vt 0.247760 0.303287
vt 0.247760 0.303287
vt 0.247760 0.303287
vt 0.247760 0.303287
vt 0.247760 0.303287
vt 0.247760 0.303287
vt 0.247760 0.303287
vt 0.247760 0.303287
vt 0.247760 0.303287
vt 0.247760 0.303287
vt 0.247760 0.303287
vt 0.247760 0.303287
vt 0.247760 0.303287
vt 0.247760 0.303287
vt 0.247760 0.303287
vt 0.247760 0.303287
vt 0.247760 0.303287
vt 0.247760 0.303287
vt 0.247760 0.303287
vt 0.247760 0.303287
vt 0.247760 0.303287
vt 0.247760 0.303287
vn 1.000000 0.000000 0.000000
vn 1.000000 0.000000 0.000000
vn 1.000000 0.000000 0.000000
vn 0.000000 0.000000 0.000000
vn 0.000000 0.000000 0.000000
vn 0.000000 0.000000 0.000000
vn -0.033688 0.572239 -0.819395
vn -0.033688 0.572239 -0.819395
vn -0.033688 0.572239 -0.819395
vn 0.000000 -1.000000 0.000000
vn 0.000000 -1.000000 0.000000
vn 0.000000 -1.000000 0.000000
vn 0.416186 0.815805 -0.401561
vn 0.416186 0.815805 -0.401561
vn 0.416186 0.815805 -0.401561
vn 1.000000 0.000000 0.000000
vn 1.000000 0.000000 0.000000
vn 1.000000 0.000000 0.000000
vn 0.000000 0.000000 -1.000000
vn 0.000000 0.000000 -1.000000
vn 0.000000 0.000000 -1.000000
vn 0.000000 0.000000 -1.000000
vn 0.000000 0.000000 -1.000000
vn 0.000000 0.000000 -1.000000
vn -0.180601 0.940790 -0.286876
vn -0.180601 0.940790 -0.286876
vn -0.180601 0.940790 -0.286876
vn 0.000000 0.000000 -1.000000
vn 0.000000 0.000000 -1.000000
vn 0.000000 0.000000 -1.000000
vn 0.000000 0.000000 -1.000000
vn 0.000000 0.000000 -1.000000
vn 0.000000 0.000000 -1.000000
vn 0.164738 0.841050 -0.515264
vn 0.164738 0.841050 -0.515264
vn 0.164738 0.841050 -0.515264
vn 1.000000 0.000000 0.000000
vn 1.000000 0.000000 0.000000
vn 1.000000 0.000000 0.000000
vn 1.000000 0.000000 0.000000
vn 1.000000 0.000000 0.000000
vn 1.000000 0.000000 0.000000
vn 1.000000 0.000000 0.000000
vn 1.000000 0.000000 0.000000
vn 1.000000 0.000000 0.000000
vn 0.387276 0.900930 -0.195812
vn 0.387276 0.900930 -0.195812
vn 0.387276 0.900930 -0.195812
vn 0.550583 0.804610 0.222397
vn 0.550583 0.804610 0.222397
vn 0.550583 0.804610 0.222397
vn 0.000000 0.000000 -1.000000
vn 0.000000 0.000000 -1.000000
vn 0.000000 0.000000 -1.000000
vn 0.000000 0.000000 -1.000000
vn 0.000000 0.000000 -1.000000
vn 0.000000 0.000000 -1.000000
vn -0.704250 0.089781 0.704252
vn -0.704273 0.089347 0.704285
vn -0.706111 0.001529 0.708100
vn -0.706111 0.001529 0.708100
vn -0.704273 0.089347 0.704285
vn -0.706094 0.000000 0.708118
vn -0.390699 0.661903 0.639718
vn -0.390699 0.661903 0.639718
vn -0.390699 0.661903 0.639718
vn 0.000000 1.000000 0.000000
vn 0.000000 1.000000 0.000000
vn 0.000000 1.000000 0.000000
vn 0.000000 1.000000 0.000000
vn 0.000000 1.000000 0.000000
vn 0.000000 1.000000 0.000000
vn 0.000000 1.000000 0.000000
vn 0.000000 1.000000 0.000000
vn 0.000000 1.000000 0.000000
vn 0.000000 1.000000 0.000000
vn 0.000000 1.000000 0.000000
vn 0.000000 1.000000 0.000000
vn 0.000000 1.000000 0.000000
vn 0.000000 1.000000 0.000000
vn 0.000000 1.000000 0.000000
vn -0.666432 0.321164 0.672846
vn -0.666432 0.321164 0.672846
vn -0.666432 0.321164 0.672846
vn 0.000000 1.000000 0.000000
vn 0.000000 1.000000 0.000000
vn 0.000000 1.000000 0.000000
vn 0.000000 1.000000 0.000000
vn 0.000000 1.000000 0.000000
vn 0.000000 1.000000 0.000000
vn 1.000000 0.000000 0.000000
vn 1.000000 0.000000 0.000000
vn 1.000000 0.000000 0.000000
vn 1.000000 0.000000 0.000000
vn 1.000000 0.000000 0.000000
vn 1.000000 0.000000 0.000000
vn 1.000000 0.000000 0.000000
vn 1.000000 0.000000 0.000000
vn 1.000000 0.000000 0.000000
vn 0.256290 0.963572 -0.076444
vn 0.256290 0.963572 -0.076444
vn 0.256290 0.963572 -0.076444
vn 0.498471 0.808965 0.311611
vn 0.498471 0.808965 0.311611
vn 0.498471 0.808965 0.311611
vn 1.000000 0.000000 0.000000
vn 1.000000 0.000000 0.000000
vn 1.000000 0.000000 0.000000
vn 1.000000 0.000000 0.000000
vn 1.000000 0.000000 0.000000
vn 1.000000 0.000000 0.000000
vn 0.000000 0.000000 -1.000000
vn 0.000000 0.000000 -1.000000
vn 0.000000 0.000000 -1.000000
vn -0.000000 1.000000 0.000000
vn -0.000000 1.000000 0.000000
vn -0.000000 1.000000 0.000000
vn -0.000000 1.000000 0.000000
vn -0.000000 1.000000 0.000000
vn -0.000000 1.000000 0.000000
vn -0.000000 1.000000 0.000000
vn -0.000000 1.000000 0.000000
vn -0.000000 1.000000 0.000000
vn -0.000000 1.000000 0.000000
vn -0.000000 1.000000 0.000000
vn -0.000000 1.000000 0.000000
vn -0.706888 0.062400 0.704568
vn -0.706887 0.062400 0.704568
vn -0.706888 0.062400 0.704568
vn -0.708268 0.000000 0.705944
vn -0.706257 0.055238 0.705797
vn -0.708262 0.000349 0.705950
vn -0.708262 0.000349 0.705950
vn -0.706257 0.055238 0.705797
vn -0.706219 0.055920 0.705782
vn -0.000000 1.000000 0.000000
vn -0.000000 1.000000 0.000000
vn -0.000000 1.000000 0.000000
vn -0.000000 1.000000 0.000000
vn -0.000000 1.000000 0.000000
vn -0.000000 1.000000 0.000000
vn -0.000000 1.000000 0.000000
vn -0.000000 1.000000 0.000000
vn -0.000000 1.000000 0.000000
vn -0.000000 1.000000 0.000000
vn -0.000000 1.000000 0.000000
vn -0.000000 1.000000 0.000000
vn -0.611308 0.663766 0.430949
vn -0.611308 0.663766 0.430949
vn -0.611308 0.663766 0.430949
s off
f 7/1/1 1/2/2 2/3/3
f 15/4/4 7/1/5 2/3/6
f 3/5/7 18/6/8 19/7/9
f 5/8/10 6/9/11 1/2/12
f 8/10/13 9/11/14 4/12/15
f 9/11/16 22/13/17 6/9/18
f 5/8/19 13/14/20 6/9/21
f 5/8/22 11/15/23 13/14/24
f 10/16/25 13/14/26 12/17/27
f 13/14/28 10/16/29 9/11/30
f 9/11/31 10/16/32 4/12/33
f 12/17/34 13/14/35 11/15/36
f 16/18/37 15/4/38 1/2/39
f 1/2/40 15/4/41 2/3/42
f 1/2/43 6/9/44 16/18/45
f 16/18/46 17/19/47 15/4/48
f 14/20/49 17/19/50 16/18/51
f 19/7/52 18/6/53 5/8/54
f 5/8/55 18/6/56 11/15/57
f 1/2/58 25/21/59 5/8/60
f 5/8/61 25/21/62 19/7/63
f 24/22/64 25/21/65 27/23/66
f 10/16/67 12/17/68 14/20/69
f 14/20/70 12/17/71 17/19/72
f 10/16/73 14/20/74 23/25/75
f 14/20/76 20/24/77 23/25/78
f 10/16/79 8/10/80 4/12/81
f 19/7/82 25/21/83 3/5/84
f 10/16/85 23/25/86 21/26/87
f 10/16/88 21/26/89 8/10/90
f 6/9/91 22/13/92 16/18/93
f 22/13/94 20/24/95 16/18/96
f 14/20/97 16/18/98 20/24/99
f 22/13/100 23/25/101 20/24/102
f 21/26/103 23/25/104 22/13/105
f 22/13/106 9/11/107 21/26/108
f 21/26/109 9/11/110 8/10/111
f 6/9/112 13/14/113 9/11/114
f 3/5/115 24/22/116 18/6/117
f 27/23/118 12/17/119 24/22/120
f 12/17/121 11/15/122 24/22/123
f 24/22/124 11/15/125 18/6/126
f 25/21/127 24/22/128 3/5/129
f 7/1/130 26/27/131 1/2/132
f 1/2/133 26/27/134 25/21/135
f 7/1/136 15/4/137 26/27/138
f 15/4/139 17/19/140 26/27/141
f 12/17/142 27/23/143 17/19/144
f 27/23/145 26/27/146 17/19/147
f 27/23/148 25/21/149 26/27/150
