# This file uses meters as units for non-parametric coordinates.

v -200.000000 115.442459 200.000031
v 0.000000 115.442459 200.000031
v -200.000000 127.011955 199.999969
v 0.000000 127.011955 199.999969
v -200.000000 127.011948 4.732735
v 0.000000 11.569514 -0.000031
v -200.000000 115.442451 -0.000011
v 0.000000 -0.000001 -0.000002
v -189.848999 121.152672 -0.000027
v -200.000000 122.358185 -0.000019
v -50.619160 39.880219 47.539928
v -26.592731 27.325748 27.972574
v 0.000000 75.806206 111.287796
v 0.000000 54.754284 74.816071
v 0.000000 57.015022 87.712997
v -7.881619 70.212364 101.361969
v -200.000000 127.011955 109.642258
v -192.939178 122.893478 112.797806
v -200.000000 127.011963 128.166046
v -200.000000 120.621704 118.232979
vt 0.247760 0.303287
vt 0.247760 0.303287
vt 0.247760 0.303287
vt 0.247760 0.303287
vt 0.247760 0.303287
vt 0.247760 0.303287
vt 0.247760 0.303287
vt 0.247760 0.303287
vt 0.247760 0.303287
vt 0.247760 0.303287
vt 0.247760 0.303287
vt 0.247760 0.303287
vt 0.247760 0.303287
vt 0.247760 0.303287
vt 0.247760 0.303287
vt 0.247760 0.303287
vt 0.247760 0.303287
vt 0.247760 0.303287
vt 0.247760 0.303287
vt 0.247760 0.303287
vn 0.000000 0.000005 1.000000
vn 0.000000 0.000005 1.000000
vn 0.000000 0.000005 1.000000
vn 0.000000 0.000005 1.000000
vn 0.000000 0.000005 1.000000
vn 0.000000 0.000005 1.000000
vn 0.224123 0.762086 -0.607449
vn 0.224123 0.762086 -0.607449
vn 0.224123 0.762086 -0.607449
vn 0.084376 0.710491 -0.698630
vn 0.084376 0.710491 -0.698630
vn 0.084376 0.710491 -0.698630
vn 0.000000 -0.866077 0.499910
vn 0.000000 -0.866077 0.499910
vn 0.000000 -0.866077 0.499910
vn 1.000000 0.000000 0.000000
vn 1.000000 0.000000 0.000000
vn 1.000000 0.000000 0.000000
vn 1.000000 0.000000 0.000000
vn 1.000000 0.000000 0.000000
vn 1.000000 0.000000 0.000000
vn 0.499871 0.866009 -0.012588
vn 0.499871 0.866009 -0.012588
vn 0.499871 0.866009 -0.012588
vn -0.499910 -0.866077 0.000000
vn -0.499910 -0.866077 0.000000
vn -0.499910 -0.866077 0.000000
vn -0.000001 -0.000003 -1.000000
vn -0.000001 -0.000001 -1.000000
vn -0.000001 -0.000002 -1.000000
vn -0.000001 -0.000001 -1.000000
vn -0.000001 -0.000001 -1.000000
vn -0.000001 -0.000001 -1.000000
vn -0.000001 -0.000001 -1.000000
vn -0.000001 -0.000002 -1.000000
vn -0.000001 -0.000001 -1.000000
vn -0.566281 0.693160 -0.445931
vn -0.566281 0.693160 -0.445931
vn -0.566281 0.693160 -0.445931
vn -1.000000 -0.000004 0.000000
vn -1.000000 -0.000004 0.000000
vn -1.000000 -0.000004 0.000000
vn 0.503840 0.863797 0.000000
vn 0.503840 0.863797 0.000000
vn 0.503840 0.863797 0.000000
vn 0.502336 0.864645 0.006978
vn 0.491884 0.869455 0.045809
vn 0.500712 0.865513 0.013218
vn 0.500712 0.865513 0.013218
vn 0.491884 0.869455 0.045809
vn 0.491820 0.869479 0.046037
vn 0.003895 0.869847 -0.493307
vn 0.000075 0.866150 -0.499784
vn 0.000642 0.866703 -0.498824
vn 0.000075 0.866150 -0.499784
vn 0.000000 0.866077 -0.499910
vn 0.000642 0.866703 -0.498824
vn -0.012697 0.866007 -0.499870
vn -0.012697 0.866007 -0.499870
vn -0.012697 0.866007 -0.499870
vn 0.014885 0.865981 -0.499855
vn 0.017776 0.863574 -0.503908
vn 0.024032 0.858275 -0.512628
vn 0.024032 0.858275 -0.512628
vn 0.017776 0.863574 -0.503908
vn 0.026727 0.855952 -0.516364
vn 0.803619 0.586206 -0.102758
vn 0.803619 0.586206 -0.102758
vn 0.803619 0.586206 -0.102758
vn 0.003894 0.869847 -0.493307
vn 0.003894 0.869847 -0.493306
vn 0.003894 0.869847 -0.493306
vn 1.000000 0.000000 0.000000
vn 1.000000 0.000000 0.000000
vn 1.000000 0.000000 0.000000
vn 1.000000 0.000000 0.000000
vn 1.000000 0.000000 0.000000
vn 1.000000 0.000000 0.000000
vn 1.000000 0.000000 0.000000
vn 1.000000 0.000000 0.000000
vn 1.000000 0.000000 0.000000
vn 0.503841 0.863796 0.000000
vn 0.503840 0.863797 -0.000000
vn 0.503840 0.863797 -0.000000
vn 0.503840 0.863797 -0.000000
vn 0.503840 0.863797 -0.000000
vn 0.503840 0.863797 -0.000000
vn -1.000000 -0.000001 0.000000
vn -1.000000 -0.000000 0.000000
vn -1.000000 -0.000001 0.000000
vn -1.000000 -0.000001 0.000000
vn -1.000000 -0.000000 0.000000
vn -1.000000 0.000000 0.000000
vn 0.197316 0.786587 0.585104
vn 0.197316 0.786587 0.585104
vn 0.197316 0.786587 0.585104
vn -1.000000 -0.000005 0.000000
vn -1.000000 -0.000004 0.000000
vn -1.000000 0.000002 0.000000
vn -1.000000 0.000002 0.000000
vn -1.000000 -0.000004 0.000000
vn -1.000000 0.000003 0.000000
vn 0.503842 0.863796 0.000000
vn 0.503842 0.863796 0.000000
vn 0.503842 0.863796 0.000000
vn -1.000000 0.000000 0.000000
vn -1.000000 0.000000 0.000000
vn -1.000000 0.000000 0.000000
s off
f 1/1/1 2/2/2 3/4/3
f 3/4/4 2/2/5 4/3/6
f 15/5/7 16/6/8 13/7/9
f 5/8/10 9/9/11 10/10/12
f 1/1/13 8/11/14 2/2/15
f 15/5/16 8/11/17 14/12/18
f 14/12/19 8/11/20 6/13/21
f 9/9/22 12/14/23 6/13/24
f 7/15/25 8/11/26 1/1/27
f 8/11/28 7/15/29 6/13/30
f 10/10/31 9/9/32 7/15/33
f 9/9/34 6/13/35 7/15/36
f 18/16/37 20/17/38 19/18/39
f 7/15/40 5/8/41 10/10/42
f 18/16/43 3/4/44 11/19/45
f 5/8/46 11/19/47 9/9/48
f 9/9/49 11/19/50 12/14/51
f 16/6/52 3/4/53 13/7/54
f 3/4/55 4/3/56 13/7/57
f 12/14/58 14/12/59 6/13/60
f 16/6/61 14/12/62 11/19/63
f 11/19/64 14/12/65 12/14/66
f 14/12/67 16/6/68 15/5/69
f 3/4/70 16/6/71 11/19/72
f 2/2/73 8/11/74 15/5/75
f 15/5/76 13/7/77 2/2/78
f 2/2/79 13/7/80 4/3/81
f 17/20/82 18/16/83 5/8/84
f 18/16/85 11/19/86 5/8/87
f 20/17/88 1/1/89 19/18/90
f 19/18/91 1/1/92 3/4/93
f 17/20/94 20/17/95 18/16/96
f 20/17/97 17/20/98 7/15/99
f 7/15/100 17/20/101 5/8/102
f 3/4/103 18/16/104 19/18/105
f 7/15/106 1/1/107 20/17/108
