# This file uses meters as units for non-parametric coordinates.

v -10.000000 37.766010 50.000000
v 0.000000 37.766010 50.000000
v -10.000000 49.948868 25.000000
v 0.000000 49.948868 25.000000
v 0.000000 37.766010 25.000000
v -10.000000 37.766010 25.000000
v -10.000000 25.583155 75.000000
v 0.000000 25.583155 75.000000
v 0.000000 25.583155 50.000000
v -10.000000 25.583155 50.000000
v -10.000000 13.400299 100.000000
v 0.000000 13.400299 100.000000
v -10.000000 117.500000 100.000000
v 0.000000 117.500000 100.000000
v 0.000000 13.400299 75.000000
v -10.000000 13.400299 75.000000
v -10.000000 49.948875 0.000000
v 0.000000 49.948868 0.000000
v -10.000000 181.140366 0.000000
v 0.000000 181.140366 0.000000
vt 0.247760 0.303287
vt 0.247760 0.303287
vt 0.247760 0.303287
vt 0.247760 0.303287
vt 0.247760 0.303287
vt 0.247760 0.303287
vt 0.247760 0.303287
vt 0.247760 0.303287
vt 0.247760 0.303287
vt 0.247760 0.303287
vt 0.247760 0.303287
vt 0.247760 0.303287
vt 0.247760 0.303287
vt 0.247760 0.303287
vt 0.247760 0.303287
vt 0.247760 0.303287
vt 0.247760 0.303287
vt 0.247760 0.303287
vt 0.247760 0.303287
vt 0.247760 0.303287
vn -1.000000 0.000000 0.000000
vn -1.000000 0.000000 0.000000
vn -1.000000 0.000000 0.000000
vn 1.000000 0.000000 0.000000
vn 1.000000 0.000000 0.000000
vn 1.000000 0.000000 0.000000
vn -1.000000 0.000000 0.000000
vn -1.000000 0.000000 0.000000
vn -1.000000 0.000000 0.000000
vn 1.000000 0.000000 0.000000
vn 1.000000 0.000000 0.000000
vn 1.000000 0.000000 0.000000
vn 0.000000 0.000000 1.000000
vn 0.000000 0.000000 1.000000
vn 0.000000 0.000000 1.000000
vn 0.000000 0.000000 1.000000
vn 0.000000 0.000000 1.000000
vn 0.000000 0.000000 1.000000
vn 1.000000 0.000000 0.000000
vn 1.000000 0.000000 0.000000
vn 1.000000 0.000000 0.000000
vn -1.000000 0.000000 0.000000
vn -1.000000 0.000000 0.000000
vn -1.000000 0.000000 0.000000
vn 1.000000 0.000000 0.000000
vn 1.000000 0.000000 0.000000
vn 1.000000 0.000000 0.000000
vn 1.000000 0.000000 0.000000
vn 1.000000 0.000000 0.000000
vn 1.000000 0.000000 0.000000
vn -1.000000 0.000000 0.000000
vn -1.000000 0.000000 0.000000
vn -1.000000 0.000000 0.000000
vn 0.000000 0.843646 0.536900
vn 0.000000 0.843646 0.536900
vn 0.000000 0.843646 0.536900
vn 0.000000 0.843646 0.536900
vn 0.000000 0.843646 0.536900
vn 0.000000 0.843646 0.536900
vn 1.000000 0.000000 0.000000
vn 1.000000 0.000000 0.000000
vn 1.000000 0.000000 0.000000
vn 1.000000 0.000000 0.000000
vn 1.000000 0.000000 0.000000
vn 1.000000 0.000000 0.000000
vn 1.000000 0.000000 0.000000
vn 1.000000 0.000000 0.000000
vn 1.000000 0.000000 0.000000
vn -1.000000 0.000000 0.000000
vn -1.000000 0.000000 0.000000
vn -1.000000 0.000000 0.000000
vn -1.000000 0.000000 0.000000
vn -1.000000 0.000000 0.000000
vn -1.000000 0.000000 0.000000
vn -1.000000 0.000000 0.000000
vn -1.000000 0.000000 0.000000
vn -1.000000 0.000000 0.000000
vn -1.000000 0.000000 0.000000
vn -1.000000 0.000000 0.000000
vn -1.000000 0.000000 0.000000
vn 0.000000 0.000000 -1.000000
vn 0.000000 0.000000 -1.000000
vn 0.000000 0.000000 -1.000000
vn 0.000000 0.000000 -1.000000
vn 0.000000 0.000000 -1.000000
vn 0.000000 0.000000 -1.000000
vn 0.000000 -1.000000 0.000000
vn -0.000000 -1.000000 -0.000000
vn -0.000001 -1.000000 -0.000000
vn -0.000001 -1.000000 -0.000000
vn -0.000000 -1.000000 -0.000000
vn -0.000001 -1.000000 -0.000000
vn 0.000000 -1.000000 0.000000
vn 0.000000 -1.000000 0.000000
vn 0.000000 -1.000000 0.000000
vn 0.000000 -1.000000 0.000000
vn 0.000000 -1.000000 0.000000
vn 0.000000 -1.000000 0.000000
vn 0.000000 0.000000 -1.000000
vn 0.000000 0.000000 -1.000000
vn 0.000000 0.000000 -1.000000
vn 0.000000 0.000000 -1.000000
vn 0.000000 0.000000 -1.000000
vn 0.000000 0.000000 -1.000000
vn 0.000000 -1.000000 0.000000
vn 0.000000 -1.000000 0.000000
vn 0.000000 -1.000000 0.000000
vn 0.000000 -1.000000 0.000000
vn 0.000000 -1.000000 0.000000
vn 0.000000 -1.000000 0.000000
vn 0.000000 0.000000 -1.000000
vn 0.000000 0.000000 -1.000000
vn 0.000000 0.000000 -1.000000
vn 0.000000 0.000000 -1.000000
vn 0.000000 0.000000 -1.000000
vn 0.000000 0.000000 -1.000000
vn 0.000000 -1.000000 0.000000
vn 0.000000 -1.000000 0.000000
vn 0.000000 -1.000000 0.000000
vn 0.000000 -1.000000 0.000000
vn 0.000000 -1.000000 0.000000
vn 0.000000 -1.000000 0.000000
vn 0.000000 0.000000 -1.000000
vn 0.000000 0.000000 -1.000000
vn 0.000000 0.000000 -1.000000
vn 0.000000 0.000000 -1.000000
vn 0.000000 0.000000 -1.000000
vn 0.000000 0.000000 -1.000000
s off
f 3/1/1 6/2/2 1/3/3
f 2/4/4 5/5/5 4/6/6
f 1/3/7 10/7/8 7/8/9
f 8/9/10 9/10/11 2/4/12
f 11/11/13 12/12/14 13/14/15
f 13/14/16 12/12/17 14/13/18
f 12/12/19 8/9/20 14/13/21
f 7/8/22 16/15/23 11/11/24
f 12/12/25 15/16/26 8/9/27
f 14/13/28 8/9/29 2/4/30
f 3/1/31 19/17/32 17/18/33
f 14/13/34 20/19/35 13/14/36
f 13/14/37 20/19/38 19/17/39
f 14/13/40 2/4/41 4/6/42
f 20/19/43 4/6/44 18/20/45
f 14/13/46 4/6/47 20/19/48
f 13/14/49 7/8/50 11/11/51
f 13/14/52 1/3/53 7/8/54
f 13/14/55 19/17/56 3/1/57
f 13/14/58 3/1/59 1/3/60
f 17/18/61 19/17/62 18/20/63
f 18/20/64 19/17/65 20/19/66
f 4/6/67 3/1/68 18/20/69
f 18/20/70 3/1/71 17/18/72
f 11/11/73 16/15/74 12/12/75
f 12/12/76 16/15/77 15/16/78
f 15/16/79 16/15/80 8/9/81
f 8/9/82 16/15/83 7/8/84
f 8/9/85 7/8/86 9/10/87
f 9/10/88 7/8/89 10/7/90
f 9/10/91 10/7/92 2/4/93
f 2/4/94 10/7/95 1/3/96
f 2/4/97 1/3/98 5/5/99
f 5/5/100 1/3/101 6/2/102
f 5/5/103 6/2/104 4/6/105
f 4/6/106 6/2/107 3/1/108
