# This file uses meters as units for non-parametric coordinates.

v -100.000000 0.000000 92.455956
v 0.000000 0.000000 96.474747
v -100.000015 133.689697 0.000000
v 0.000000 136.958344 0.000000
v -100.000000 0.000000 0.000000
v 0.000000 0.000000 0.000000
v -90.876366 142.720474 0.000000
v -100.000000 136.403580 4.426056
v 0.000000 139.086472 2.546233
v -6.786595 142.720474 0.000000
v -100.000000 48.575935 65.964279
v -100.000000 74.016403 48.138897
v 0.000000 25.200834 82.342529
v 0.000000 8.924406 93.746941
v -95.103714 56.446014 60.449947
v -2.973419 21.034210 85.261963
v -100.000000 50.538818 48.439117
v 0.000000 13.927025 82.827820
v -92.541016 0.000000 100.000000
v -100.000000 5.643654 96.045662
v -4.902051 0.000000 100.000000
v 0.000000 77.433060 45.744957
v 0.000000 104.425446 26.832195
v -2.581756 85.755035 39.913998
v 0.000000 81.650040 35.718235
vt 0.247760 0.303287
vt 0.247760 0.303287
vt 0.247760 0.303287
vt 0.247760 0.303287
vt 0.247760 0.303287
vt 0.247760 0.303287
vt 0.247760 0.303287
vt 0.247760 0.303287
vt 0.247760 0.303287
vt 0.247760 0.303287
vt 0.247760 0.303287
vt 0.247760 0.303287
vt 0.247760 0.303287
vt 0.247760 0.303287
vt 0.247760 0.303287
vt 0.247760 0.303287
vt 0.247760 0.303287
vt 0.247760 0.303287
vt 0.247760 0.303287
vt 0.247760 0.303287
vt 0.247760 0.303287
vt 0.247760 0.303287
vt 0.247760 0.303287
vt 0.247760 0.303287
vt 0.247760 0.303287
vn 0.000001 0.573831 0.818974
vn 0.000000 0.573831 0.818974
vn -0.000000 0.573831 0.818974
vn 0.000000 0.573831 0.818974
vn -0.000000 0.573831 0.818974
vn -0.000000 0.573831 0.818974
vn -0.000000 0.573831 0.818974
vn -0.000000 0.573831 0.818974
vn -0.000000 0.573831 0.818974
vn -0.000000 0.573831 0.818974
vn -0.000000 0.573831 0.818974
vn -0.000000 0.573831 0.818974
vn -0.007127 0.580699 0.814087
vn -0.006703 0.580293 0.814380
vn -0.000000 0.573831 0.818974
vn -0.000000 0.573831 0.818974
vn -0.000000 0.573831 0.818974
vn -0.006703 0.580293 0.814380
vn 0.000000 -1.000000 0.000000
vn 0.000000 -1.000000 0.000000
vn 0.000000 -1.000000 0.000000
vn 0.000000 -1.000000 0.000000
vn 0.000000 -1.000000 0.000000
vn 0.000000 -1.000000 0.000000
vn 0.000000 -1.000000 0.000000
vn 0.000000 -1.000000 0.000000
vn 0.000000 -1.000000 0.000000
vn 0.000000 -1.000000 0.000000
vn 0.000000 -1.000000 0.000000
vn 0.000000 -1.000000 0.000000
vn 1.000000 0.000000 0.000000
vn 1.000000 0.000000 0.000000
vn 1.000000 0.000000 0.000000
vn 1.000000 0.000000 0.000000
vn 1.000000 0.000000 0.000000
vn 1.000000 0.000000 0.000000
vn -1.000000 0.000002 0.000002
vn -1.000000 0.000000 0.000000
vn -1.000000 -0.000000 0.000000
vn -1.000000 0.000000 0.000000
vn -1.000000 -0.000000 0.000000
vn -1.000000 -0.000000 0.000000
vn -1.000000 -0.000000 0.000000
vn -1.000000 0.000000 0.000000
vn -1.000000 -0.000000 0.000000
vn -0.006703 0.580293 0.814380
vn -0.007127 0.580699 0.814087
vn -0.644905 0.651536 -0.399496
vn 0.000000 0.000000 -1.000000
vn 0.000000 0.000000 -1.000000
vn 0.000000 0.000000 -1.000000
vn 0.000000 0.000000 -1.000000
vn 0.000000 0.000000 -1.000000
vn 0.000000 0.000000 -1.000000
vn 0.000000 0.000000 -1.000000
vn 0.000000 0.000000 -1.000000
vn 0.000000 0.000000 -1.000000
vn 0.000000 0.000000 -1.000000
vn 0.000000 0.000000 -1.000000
vn 0.000000 0.000000 -1.000000
vn 0.000801 0.574834 0.818270
vn 0.038525 0.620662 0.783131
vn 0.545851 0.642900 -0.537332
vn -0.926825 0.004801 0.375464
vn -0.926825 0.004801 0.375464
vn -0.926824 0.004801 0.375464
vn 0.677325 0.031639 0.735003
vn 0.677325 0.031639 0.735003
vn 0.677325 0.031639 0.735003
vn -0.649148 -0.408243 0.641829
vn -0.649148 -0.408243 0.641829
vn -0.649148 -0.408243 0.641829
vn 1.000000 0.000000 0.000000
vn 1.000000 0.000000 0.000000
vn 1.000000 0.000000 0.000000
vn 0.929189 0.336017 0.153947
vn 0.929189 0.336017 0.153947
vn 0.929189 0.336017 0.153947
vn -0.827179 0.558446 0.062548
vn -0.827179 0.558446 0.062548
vn -0.827179 0.558446 0.062548
vn 1.000000 0.000000 0.000000
vn 1.000000 0.000000 0.000000
vn 1.000000 0.000000 0.000000
vn 1.000000 0.000000 0.000000
vn 1.000000 0.000000 0.000000
vn 1.000000 0.000000 0.000000
vn 0.000000 0.573831 0.818974
vn -0.000000 0.573831 0.818974
vn -0.000000 0.573831 0.818974
vn -0.000000 0.573831 0.818974
vn -0.000000 0.573831 0.818974
vn -0.000000 0.573831 0.818974
vn -0.000000 0.573831 0.818974
vn -0.000000 0.573830 0.818974
vn -0.000000 0.573831 0.818974
vn -0.000000 0.573831 0.818974
vn -0.000000 0.573830 0.818974
vn -0.000000 0.573831 0.818974
vn -0.000000 0.573830 0.818974
vn 0.000000 0.573830 0.818974
vn -0.000000 0.573831 0.818974
vn -1.000000 0.000001 0.000000
vn -1.000000 0.000000 0.000000
vn -1.000000 0.000000 0.000000
vn -1.000000 0.000000 0.000000
vn -1.000000 0.000000 0.000000
vn -1.000000 0.000000 0.000000
vn -1.000000 0.000000 0.000000
vn -1.000000 0.000000 0.000000
vn -1.000000 0.000000 0.000000
vn 0.566659 0.240847 0.787966
vn 0.566659 0.240847 0.787966
vn 0.566659 0.240847 0.787966
vn 1.000000 0.000000 0.000000
vn 1.000000 0.000000 0.000000
vn 1.000000 0.000000 0.000000
vn 1.000000 0.000000 0.000000
vn 1.000000 0.000000 0.000000
vn 1.000000 0.000000 0.000000
vn 1.000000 0.000000 0.000000
vn 1.000000 0.000000 0.000000
vn 1.000000 0.000000 0.000000
vn 0.000000 0.573831 0.818974
vn 0.000000 0.573831 0.818974
vn 0.000000 0.573831 0.818974
vn 0.000000 0.573831 0.818974
vn 0.000000 0.573831 0.818974
vn 0.000801 0.574834 0.818270
vn 0.000000 0.573831 0.818974
vn 0.038525 0.620662 0.783131
vn 0.000801 0.574834 0.818270
vn 0.902216 0.156761 0.401786
vn 0.902216 0.156761 0.401786
vn 0.902216 0.156761 0.401786
vn 0.902518 0.396973 0.166957
vn 0.902518 0.396973 0.166957
vn 0.902518 0.396973 0.166956
s off
f 16/1/1 13/2/2 15/3/3
f 13/2/4 22/4/5 15/3/6
f 15/3/7 22/4/8 12/5/9
f 22/4/10 24/6/11 12/5/12
f 7/7/13 8/8/14 24/6/15
f 12/5/16 24/6/17 8/8/18
f 5/9/19 6/10/20 1/11/21
f 1/11/22 6/10/23 19/12/24
f 6/10/25 2/13/26 19/12/27
f 2/13/28 21/14/29 19/12/30
f 25/15/31 22/4/32 6/10/33
f 13/2/34 6/10/35 22/4/36
f 8/8/37 3/16/38 12/5/39
f 3/16/40 5/9/41 12/5/42
f 5/9/43 17/17/44 12/5/45
f 8/8/46 7/7/47 3/16/48
f 6/10/49 5/9/50 4/18/51
f 4/18/52 5/9/53 10/19/54
f 5/9/55 3/16/56 10/19/57
f 3/16/58 7/7/59 10/19/60
f 10/19/61 9/20/62 4/18/63
f 12/5/64 17/17/65 15/3/66
f 13/2/67 16/1/68 18/21/69
f 1/11/70 19/12/71 20/22/72
f 14/23/73 6/10/74 18/21/75
f 18/21/76 16/1/77 14/23/78
f 15/3/79 17/17/80 11/24/81
f 2/13/82 6/10/83 14/23/84
f 13/2/85 18/21/86 6/10/87
f 15/3/88 11/24/89 16/1/90
f 11/24/91 20/22/92 16/1/93
f 20/22/94 19/12/95 16/1/96
f 16/1/97 19/12/98 14/23/99
f 19/12/100 21/14/101 14/23/102
f 20/22/103 11/24/104 1/11/105
f 5/9/106 1/11/107 17/17/108
f 1/11/109 11/24/110 17/17/111
f 14/23/112 21/14/113 2/13/114
f 9/20/115 23/25/116 4/18/117
f 4/18/118 23/25/119 6/10/120
f 23/25/121 25/15/122 6/10/123
f 24/6/124 23/25/125 7/7/126
f 7/7/127 23/25/128 10/19/129
f 23/25/130 9/20/131 10/19/132
f 23/25/133 24/6/134 25/15/135
f 25/15/136 24/6/137 22/4/138
