# This file uses meters as units for non-parametric coordinates.

v 0.000000 225.355606 17.289314
v -15.355591 209.999985 17.289314
v -130.711182 225.355606 17.289314
v -115.355583 209.999985 17.289314
v -130.711182 225.355606 0.000000
v -115.355583 209.999985 0.000000
v 0.000000 225.355606 0.000000
v -15.355591 209.999985 0.000000
v -130.711182 0.000000 17.289314
v -115.355583 0.000000 17.289314
v -130.711182 0.000000 0.000000
v -115.355583 0.000000 0.000000
v 0.000000 0.000000 17.289314
v -15.355591 0.000000 17.289314
v 0.000000 0.000000 0.000000
v -15.355591 0.000000 0.000000
v -121.260384 0.000000 3.644657
v -121.260384 0.000000 13.644657
v -9.450806 216.904739 13.644657
v -121.260384 216.904739 13.644657
v -121.260384 216.904739 3.644658
v -9.450806 216.904739 3.644657
vt 0.247760 0.303287
vt 0.247760 0.303287
vt 0.247760 0.303287
vt 0.247760 0.303287
vt 0.247760 0.303287
vt 0.247760 0.303287
vt 0.247760 0.303287
vt 0.247760 0.303287
vt 0.247760 0.303287
vt 0.247760 0.303287
vt 0.247760 0.303287
vt 0.247760 0.303287
vt 0.247760 0.303287
vt 0.247760 0.303287
vt 0.247760 0.303287
vt 0.247760 0.303287
vt 0.247760 0.303287
vt 0.247760 0.303287
vt 0.247760 0.303287
vt 0.247760 0.303287
vt 0.247760 0.303287
vt 0.247760 0.303287
vn 0.000000 0.000000 1.000000
vn 0.000000 0.000000 1.000000
vn 0.000000 0.000000 1.000000
vn 0.000000 0.000000 1.000000
vn 0.000000 0.000000 1.000000
vn 0.000000 0.000000 1.000000
vn 0.000000 0.000000 -1.000000
vn 0.000000 0.000000 -1.000000
vn 0.000000 0.000000 -1.000000
vn 0.000000 0.000000 -1.000000
vn 0.000000 0.000000 -1.000000
vn 0.000000 0.000000 -1.000000
vn 0.000000 -1.000000 0.000000
vn 0.000000 -1.000000 0.000000
vn 0.000000 -1.000000 0.000000
vn 0.000000 -1.000000 0.000000
vn 0.000000 -1.000000 0.000000
vn 0.000000 -1.000000 0.000000
vn 0.000000 1.000000 0.000000
vn 0.000000 1.000000 0.000000
vn 0.000000 1.000000 0.000000
vn 0.000000 1.000000 0.000000
vn 0.000000 1.000000 0.000000
vn 0.000000 1.000000 0.000000
vn 0.000000 0.000000 1.000000
vn 0.000000 0.000000 1.000000
vn 0.000000 0.000000 1.000000
vn 0.000000 0.000000 1.000000
vn 0.000000 0.000000 1.000000
vn 0.000000 0.000000 1.000000
vn 0.000000 0.000000 -1.000000
vn 0.000000 0.000000 -1.000000
vn 0.000000 0.000000 -1.000000
vn 0.000000 0.000000 -1.000000
vn 0.000000 0.000000 -1.000000
vn 0.000000 0.000000 -1.000000
vn 0.000000 -1.000000 0.000000
vn 0.000000 -1.000000 0.000000
vn 0.000000 -1.000000 0.000000
vn 0.000000 -1.000000 0.000000
vn 0.000000 -1.000000 0.000000
vn 0.000000 -1.000000 0.000000
vn 1.000000 0.000000 0.000000
vn 1.000000 0.000000 0.000000
vn 1.000000 0.000000 0.000000
vn 1.000000 0.000000 0.000000
vn 1.000000 0.000000 0.000000
vn 1.000000 0.000000 0.000000
vn -1.000000 0.000000 0.000000
vn -1.000000 0.000000 0.000000
vn -1.000000 0.000000 0.000000
vn -1.000000 0.000000 0.000000
vn -1.000000 0.000000 0.000000
vn -1.000000 0.000000 0.000000
vn -0.000000 0.000000 1.000000
vn -0.000000 0.000000 1.000000
vn -0.000000 0.000000 1.000000
vn -0.000000 0.000000 1.000000
vn -0.000000 0.000000 1.000000
vn 0.000000 0.000000 1.000000
vn 0.000000 0.000000 -1.000000
vn 0.000000 0.000000 -1.000000
vn 0.000000 0.000000 -1.000000
vn 0.000000 0.000000 -1.000000
vn 0.000000 0.000000 -1.000000
vn 0.000000 0.000000 -1.000000
vn 0.000000 -1.000000 0.000000
vn 0.000000 -1.000000 0.000000
vn 0.000000 -1.000000 0.000000
vn 0.000000 -1.000000 0.000000
vn 0.000000 -1.000000 0.000000
vn 0.000000 -1.000000 0.000000
vn -1.000000 0.000000 0.000000
vn -1.000000 0.000000 0.000000
vn -1.000000 0.000000 0.000000
vn -1.000000 0.000000 0.000000
vn -1.000000 0.000000 0.000000
vn -1.000000 0.000000 0.000000
vn 1.000000 0.000000 0.000000
vn 1.000000 0.000000 0.000000
vn 1.000000 0.000000 0.000000
vn 1.000000 0.000000 0.000000
vn 1.000000 0.000000 0.000000
vn 1.000000 0.000000 0.000000
vn 0.000000 -1.000000 0.000000
vn 0.000000 -1.000000 0.000000
vn 0.000000 -1.000000 0.000000
vn 0.000000 -1.000000 0.000000
vn 0.000000 -1.000000 0.000000
vn 0.000000 -1.000000 0.000000
vn 1.000000 0.000000 0.000000
vn 1.000000 0.000000 0.000000
vn 1.000000 0.000000 0.000000
vn 1.000000 0.000000 0.000000
vn 1.000000 0.000000 0.000000
vn 1.000000 0.000000 0.000000
s off
f 1/1/1 3/2/2 2/4/3
f 2/4/4 3/2/5 4/3/6
f 5/5/7 7/6/8 6/8/9
f 6/8/10 7/6/11 8/7/12
f 2/4/13 4/3/14 8/7/15
f 8/7/16 4/3/17 6/8/18
f 7/6/19 5/5/20 1/1/21
f 1/1/22 5/5/23 3/2/24
f 10/10/25 4/3/26 9/9/27
f 9/9/28 4/3/29 3/2/30
f 5/5/31 6/8/32 11/12/33
f 11/12/34 6/8/35 12/11/36
f 11/12/37 12/11/38 9/9/39
f 9/9/40 12/11/41 10/10/42
f 10/10/43 12/11/44 4/3/45
f 4/3/46 12/11/47 6/8/48
f 11/12/49 9/9/50 5/5/51
f 5/5/52 9/9/53 3/2/54
f 1/1/55 2/4/56 13/13/57
f 13/13/58 2/4/59 14/14/60
f 7/6/61 15/15/62 8/7/63
f 8/7/64 15/15/65 16/16/66
f 15/15/67 13/13/68 16/16/69
f 16/16/70 13/13/71 14/14/72
f 14/14/73 2/4/74 16/16/75
f 16/16/76 2/4/77 8/7/78
f 15/15/79 7/6/80 13/13/81
f 13/13/82 7/6/83 1/1/84
f 19/17/85 20/18/86 22/20/87
f 22/20/88 20/18/89 21/19/90
f 17/21/91 21/19/92 18/22/93
f 18/22/94 21/19/95 20/18/96
