# This file uses meters as units for non-parametric coordinates.

v 0.000000 225.355606 15.020742
v -15.355591 209.999985 17.289314
v -130.711182 225.355606 15.977032
v -115.355591 209.999985 17.289314
v -130.711182 225.355606 0.000000
v -118.046692 212.691086 0.000000
v 0.000000 225.355606 0.000000
v -15.355591 209.999985 0.000000
v -130.711182 0.000000 17.289314
v -115.355591 0.000000 17.289314
v -130.711182 0.000000 0.000000
v -115.355591 0.000000 0.000000
v -3.646347 0.000000 17.289314
v -15.355591 0.000000 17.289314
v 0.000000 0.000000 0.000000
v -15.355591 0.000000 0.000000
v -6.248428 225.355576 17.289314
v -4.335800 221.019821 17.289314
v 0.000000 219.882965 17.289314
v -130.711182 220.966095 17.289314
v -94.161072 225.355606 17.289314
v -130.711182 136.328201 17.289314
v -130.711182 168.635529 17.289314
v -130.711182 104.291809 0.000000
v -130.711182 57.427849 0.000000
v -125.114441 144.589645 17.289314
v -130.711182 147.245667 11.541809
v -115.355591 66.983757 0.000000
v -125.220367 90.951271 0.000000
v -130.711182 92.324677 3.022768
v -115.355591 32.916561 2.818948
v -118.511292 47.614418 0.000000
v -115.355591 11.143848 0.000000
v -98.912903 209.999985 0.000000
v -115.355591 195.024551 0.000000
v -115.355591 209.999985 7.636914
v -15.355591 82.445183 0.000000
v -15.355591 48.932121 0.000000
v -15.355591 72.299721 17.289314
v 0.000000 76.182320 0.000000
v -10.763229 65.323708 0.000000
v -15.355591 69.278595 4.814429
v -15.355591 96.160522 14.366701
v -15.355591 121.236351 17.289314
v 0.000000 72.699631 17.289314
v -10.183685 94.507561 17.289314
v 0.000000 9.137556 17.289314
v 0.000000 0.000000 9.470796
v -1.247253 171.552261 17.289314
v -0.544510 170.318481 0.000000
v -57.906662 225.355606 4.311581
v -58.554932 209.999985 0.000000
v -58.124359 220.199036 0.000000
v -80.729858 225.355606 0.000000
v -37.372086 225.355606 0.000000
vt 0.247760 0.303287
vt 0.247760 0.303287
vt 0.247760 0.303287
vt 0.247760 0.303287
vt 0.247760 0.303287
vt 0.247760 0.303287
vt 0.247760 0.303287
vt 0.247760 0.303287
vt 0.247760 0.303287
vt 0.247760 0.303287
vt 0.247760 0.303287
vt 0.247760 0.303287
vt 0.247760 0.303287
vt 0.247760 0.303287
vt 0.247760 0.303287
vt 0.247760 0.303287
vt 0.247760 0.303287
vt 0.247760 0.303287
vt 0.247760 0.303287
vt 0.247760 0.303287
vt 0.247760 0.303287
vt 0.247760 0.303287
vt 0.247760 0.303287
vt 0.247760 0.303287
vt 0.247760 0.303287
vt 0.247760 0.303287
vt 0.247760 0.303287
vt 0.247760 0.303287
vt 0.247760 0.303287
vt 0.247760 0.303287
vt 0.247760 0.303287
vt 0.247760 0.303287
vt 0.247760 0.303287
vt 0.247760 0.303287
vt 0.247760 0.303287
vt 0.247760 0.303287
vt 0.247760 0.303287
vt 0.247760 0.303287
vt 0.247760 0.303287
vt 0.247760 0.303287
vt 0.247760 0.303287
vt 0.247760 0.303287
vt 0.247760 0.303287
vt 0.247760 0.303287
vt 0.247760 0.303287
vt 0.247760 0.303287
vt 0.247760 0.303287
vt 0.247760 0.303287
vt 0.247760 0.303287
vt 0.247760 0.303287
vt 0.247760 0.303287
vt 0.247760 0.303287
vt 0.247760 0.303287
vt 0.247760 0.303287
vt 0.247760 0.303287
vn 0.337464 0.148865 0.929493
vn 0.337464 0.148865 0.929493
vn 0.337464 0.148865 0.929493
vn 0.143979 0.631180 -0.762156
vn 0.143979 0.631180 -0.762156
vn 0.143979 0.631180 -0.762156
vn -0.133407 -0.948525 -0.287232
vn -0.133407 -0.948525 -0.287232
vn -0.133407 -0.948525 -0.287232
vn 0.000000 0.000000 -1.000000
vn 0.000000 0.000000 -1.000000
vn 0.000000 0.000000 -1.000000
vn 0.000000 -1.000000 0.000000
vn 0.000000 -1.000000 0.000000
vn 0.000000 -1.000000 0.000000
vn 0.000000 -1.000000 0.000000
vn 0.000000 -1.000000 0.000000
vn 0.000000 -1.000000 0.000000
vn 0.948122 0.144425 -0.283207
vn 0.948122 0.144425 -0.283207
vn 0.948122 0.144425 -0.283207
vn -0.744428 -0.173267 0.644830
vn -0.744428 -0.173267 0.644830
vn -0.744428 -0.173267 0.644830
vn 0.099903 0.381015 0.919155
vn 0.099903 0.381015 0.919155
vn 0.099903 0.381015 0.919155
vn 0.000000 0.000000 -1.000000
vn 0.000000 0.000000 -1.000000
vn 0.000000 0.000000 -1.000000
vn 0.000000 0.000000 -1.000000
vn 0.000000 0.000000 -1.000000
vn 0.000000 0.000000 -1.000000
vn 0.000000 0.000000 -1.000000
vn 0.000000 0.000000 -1.000000
vn 0.000000 0.000000 -1.000000
vn 0.000000 -1.000000 0.000000
vn 0.000000 -1.000000 0.000000
vn 0.000000 -1.000000 0.000000
vn 0.000000 -1.000000 0.000000
vn 0.000000 -1.000000 0.000000
vn 0.000000 -1.000000 0.000000
vn 0.000000 -1.000000 0.000000
vn 0.000000 -1.000000 0.000000
vn 0.000000 -1.000000 0.000000
vn -1.000000 0.000000 0.000000
vn -1.000000 -0.000000 0.000000
vn -1.000000 0.000000 0.000000
vn -1.000000 0.000000 0.000000
vn -1.000000 -0.000000 0.000000
vn -1.000000 -0.000000 0.000000
vn -1.000000 -0.000000 0.000000
vn -1.000000 -0.000000 0.000000
vn -1.000000 -0.000000 0.000000
vn -1.000000 -0.000000 0.000000
vn -1.000000 0.000000 0.000000
vn -1.000000 -0.000000 0.000000
vn -0.034379 0.286262 0.957534
vn -0.034379 0.286262 0.957534
vn -0.034379 0.286262 0.957534
vn 0.999097 -0.009885 0.041315
vn 0.999766 -0.021006 0.005127
vn 0.999379 -0.012595 0.032901
vn 1.000000 0.000000 0.000000
vn 0.999665 -0.024672 -0.007809
vn 0.999766 -0.021006 0.005127
vn 0.999379 -0.012595 0.032901
vn 0.999766 -0.021006 0.005127
vn 0.999665 -0.024672 -0.007809
vn 0.000000 1.000000 0.000000
vn 0.000000 1.000000 0.000000
vn 0.000000 1.000000 0.000000
vn 0.000000 0.000000 1.000000
vn -0.000000 0.000000 1.000000
vn -0.000000 0.000000 1.000000
vn -0.000000 0.000000 1.000000
vn -0.000000 0.000000 1.000000
vn -0.000000 0.000000 1.000000
vn 0.000000 0.000000 1.000000
vn 0.000000 0.000000 1.000000
vn 0.000000 0.000000 1.000000
vn 0.000000 0.000000 1.000000
vn 0.000000 0.000000 1.000000
vn 0.000000 0.000000 1.000000
vn 0.000000 0.000000 1.000000
vn 0.000000 0.000000 1.000000
vn 0.000000 0.000000 1.000000
vn 0.000000 0.000000 1.000000
vn 0.000000 0.000000 1.000000
vn 0.000000 0.000000 1.000000
vn 0.000000 0.000000 1.000000
vn -0.000000 0.000000 1.000000
vn -0.000000 0.000000 1.000000
vn -0.000000 0.000000 1.000000
vn -0.000000 0.000000 1.000000
vn -0.000000 0.000000 1.000000
vn 0.000000 0.000000 1.000000
vn 0.000000 0.000000 1.000000
vn 0.000000 0.000000 1.000000
vn -1.000000 -0.000000 0.000000
vn -1.000000 -0.000000 0.000000
vn -1.000000 -0.000000 0.000000
vn -1.000000 -0.000000 0.000000
vn -1.000000 -0.000000 0.000000
vn -1.000000 0.000000 0.000000
vn -1.000000 -0.000000 0.000000
vn -1.000000 0.000000 0.000000
vn -1.000000 0.000000 0.000000
vn -1.000000 0.000001 0.000000
vn -1.000000 0.000000 0.000000
vn -1.000000 0.000000 0.000000
vn -1.000000 0.000000 0.000000
vn -1.000000 0.000000 0.000000
vn -1.000000 0.000000 0.000000
vn -1.000000 0.000000 0.000000
vn -1.000000 0.000000 0.000000
vn -1.000000 0.000000 0.000000
vn -1.000000 0.000000 0.000000
vn -1.000000 0.000000 0.000000
vn -1.000000 0.000000 0.000000
vn -1.000000 0.000000 0.000000
vn -1.000000 0.000000 0.000000
vn -1.000000 0.000000 0.000000
vn -1.000000 0.000000 0.000000
vn -1.000000 0.000000 0.000000
vn -1.000000 0.000000 0.000000
vn -0.566604 0.383847 0.729124
vn -0.566604 0.383847 0.729124
vn -0.566604 0.383847 0.729124
vn 0.000000 0.000000 -1.000000
vn 0.000000 0.000000 -1.000000
vn 0.000000 0.000000 -1.000000
vn 0.000000 0.000000 -1.000000
vn 0.000000 0.000000 -1.000000
vn 0.000000 0.000000 -1.000000
vn 0.000000 0.000000 -1.000000
vn 0.000000 0.000000 -1.000000
vn 0.000000 0.000000 -1.000000
vn 0.000000 0.000000 -1.000000
vn 0.000000 0.000000 -1.000000
vn 0.000000 0.000000 -1.000000
vn 0.000000 0.000000 -1.000000
vn 0.000000 0.000000 -1.000000
vn 0.000000 0.000000 -1.000000
vn 0.000000 0.000000 -1.000000
vn 0.000000 0.000000 -1.000000
vn 0.000000 0.000000 -1.000000
vn -0.511336 -0.210460 -0.833212
vn -0.511336 -0.210460 -0.833212
vn -0.511336 -0.210460 -0.833212
vn -0.466134 0.076348 -0.881414
vn -0.466134 0.076348 -0.881414
vn -0.466134 0.076348 -0.881414
vn 1.000000 0.000000 0.000000
vn 1.000000 0.000000 0.000000
vn 1.000000 0.000000 0.000000
vn 1.000000 0.000000 0.000000
vn 1.000000 0.000000 0.000000
vn 1.000000 0.000000 0.000000
vn 0.451605 -0.073577 -0.889179
vn 0.451605 -0.073577 -0.889179
vn 0.451605 -0.073577 -0.889179
vn 0.829276 0.071755 -0.554214
vn 0.829276 0.071755 -0.554214
vn 0.829276 0.071755 -0.554214
vn 0.000000 0.000000 -1.000000
vn 0.000000 0.000000 -1.000000
vn 0.000000 0.000000 -1.000000
vn 0.000000 0.000000 -1.000000
vn 0.000000 0.000000 -1.000000
vn 0.000000 0.000000 -1.000000
vn 0.000000 -1.000000 0.000003
vn 0.000000 -1.000000 0.000002
vn 0.000000 -1.000000 0.000003
vn 0.000000 -1.000000 0.000003
vn 0.000000 -1.000000 0.000002
vn 0.000000 -1.000000 0.000000
vn 1.000000 0.000000 0.000000
vn 1.000000 0.000000 0.000000
vn 1.000000 0.000000 0.000000
vn 1.000000 0.000000 0.000000
vn 1.000000 0.000000 0.000000
vn 1.000000 0.000000 0.000000
vn 1.000000 0.000000 0.000000
vn 1.000000 0.000000 0.000000
vn 1.000000 0.000000 0.000000
vn 1.000000 0.000000 0.000000
vn 1.000000 0.000000 0.000000
vn 1.000000 0.000000 0.000000
vn -0.788105 -0.211387 -0.578106
vn -0.788105 -0.211387 -0.578106
vn -0.788105 -0.211387 -0.578106
vn -1.000000 0.000000 0.000000
vn -1.000000 0.000000 0.000000
vn -1.000000 0.000000 0.000000
vn 0.000000 0.000000 -1.000000
vn 0.000000 0.000000 -1.000000
vn 0.000000 0.000000 -1.000000
vn -0.462779 0.107775 0.879898
vn -0.462779 0.107775 0.879898
vn -0.462779 0.107775 0.879898
vn -0.634950 0.177891 -0.751794
vn -0.634950 0.177891 -0.751794
vn -0.634950 0.177891 -0.751794
vn -1.000000 -0.000000 0.000000
vn -1.000000 0.000000 0.000000
vn -1.000000 -0.000000 0.000000
vn -1.000000 -0.000000 0.000000
vn -1.000000 0.000000 0.000000
vn -1.000000 0.000000 0.000000
vn -0.513419 -0.099344 0.852368
vn -0.513419 -0.099344 0.852368
vn -0.513419 -0.099344 0.852368
vn -0.000000 0.000000 1.000000
vn -0.000000 0.000000 1.000000
vn -0.000000 0.000000 1.000000
vn -0.000000 0.000000 1.000000
vn -0.000000 0.000000 1.000000
vn 0.000000 0.000000 1.000000
vn 0.000000 0.000000 1.000000
vn 0.000000 0.000000 1.000000
vn -0.000000 0.000000 1.000000
vn 0.000000 0.000000 1.000000
vn 0.000000 0.000000 1.000000
vn -0.000000 0.000000 1.000000
vn -0.000000 0.000000 1.000000
vn -0.000000 0.000000 1.000000
vn -0.000000 0.000000 1.000000
vn -0.000000 0.000000 1.000000
vn -0.000000 0.000000 1.000000
vn -0.000000 0.000000 1.000000
vn -0.000000 0.000000 1.000000
vn -0.000000 0.000000 1.000000
vn -0.000000 0.000000 1.000000
vn -1.000000 0.000000 0.000000
vn -1.000000 0.000000 0.000000
vn -1.000000 0.000000 0.000000
vn 0.852262 -0.340096 0.397472
vn 0.852262 -0.340096 0.397472
vn 0.852262 -0.340096 0.397472
vn 0.000000 0.000000 1.000000
vn 0.000000 0.000000 1.000000
vn 0.000000 0.000000 1.000000
vn 0.000000 0.000000 1.000000
vn 0.000000 0.000000 1.000000
vn 0.000000 0.000000 1.000000
vn 0.999132 0.012606 0.039711
vn 0.999989 0.003412 0.003216
vn 0.999289 0.011911 0.035779
vn 0.999289 0.011911 0.035779
vn 0.999989 0.003412 0.003216
vn 0.999993 0.003554 0.000716
vn 0.999993 0.003554 0.000716
vn 0.999989 0.003412 0.003216
vn 1.000000 0.000000 0.000000
vn 1.000000 0.000000 0.000000
vn 0.999989 0.003412 0.003216
vn 1.000000 0.000000 0.000000
vn 0.999989 0.003412 0.003216
vn 1.000000 0.000000 0.000000
vn 1.000000 0.000000 0.000000
vn 0.000000 0.000000 -1.000000
vn 0.000000 0.000000 -1.000000
vn 0.000000 0.000000 -1.000000
vn 0.000000 0.000000 -1.000000
vn 0.000000 0.000000 -1.000000
vn 0.000000 0.000000 -1.000000
vn 0.000000 0.000000 -1.000000
vn 0.000000 0.000000 -1.000000
vn 0.000000 0.000000 -1.000000
vn -0.158353 0.637281 -0.754186
vn -0.158353 0.637281 -0.754186
vn -0.158353 0.637281 -0.754186
vn 0.000000 -1.000000 0.000000
vn 0.000000 -1.000000 0.000000
vn 0.000000 -1.000000 0.000000
vn 0.000000 -1.000000 -0.000001
vn 0.000000 -1.000000 -0.000001
vn 0.000000 -1.000000 -0.000001
vn 0.000000 0.000000 -1.000000
vn 0.000000 0.000000 -1.000000
vn 0.000000 0.000000 -1.000000
vn 0.000000 0.000000 -1.000000
vn 0.000000 0.000000 -1.000000
vn 0.000000 0.000000 -1.000000
vn 0.000000 0.000000 -1.000000
vn 0.000000 0.000000 -1.000000
vn 0.000000 0.000000 -1.000000
vn 0.000000 0.000000 -1.000000
vn 0.000000 0.000000 -1.000000
vn 0.000000 0.000000 -1.000000
vn 0.000000 0.000000 -1.000000
vn 0.000000 0.000000 -1.000000
vn 0.000000 0.000000 -1.000000
vn 0.000000 0.000000 -1.000000
vn 0.000000 0.000000 -1.000000
vn 0.000000 0.000000 -1.000000
vn 0.000000 0.000000 -1.000000
vn 0.000000 0.000000 -1.000000
vn 0.000000 0.000000 -1.000000
vn 0.000000 1.000000 0.000000
vn 0.000000 1.000000 -0.000000
vn 0.000000 1.000000 -0.000003
vn 0.000000 1.000000 -0.000003
vn 0.000000 1.000000 -0.000000
vn 0.000000 1.000000 -0.000004
vn -0.000003 1.000000 0.000004
vn 0.000000 1.000000 0.000004
vn -0.000002 1.000000 0.000004
vn -0.000002 1.000000 0.000004
vn 0.000000 1.000000 0.000004
vn 0.000000 1.000000 0.000004
vn 0.000000 1.000000 0.000000
vn 0.000000 1.000000 0.000000
vn 0.000000 1.000000 0.000000
vn 0.000000 1.000000 0.000000
vn 0.000000 1.000000 0.000000
vn 0.000000 1.000000 0.000000
s off
f 1/1/1 17/2/2 18/3/3
f 53/4/4 54/5/5 51/6/6
f 34/7/7 36/8/8 6/9/9
f 25/10/10 32/11/11 11/12/12
f 11/12/13 12/13/14 9/15/15
f 9/15/16 12/13/17 10/14/18
f 36/8/19 35/16/20 6/9/21
f 23/17/22 27/18/23 26/19/24
f 18/3/25 19/20/26 1/1/27
f 40/23/28 15/24/29 41/22/30
f 41/22/31 15/24/32 38/21/33
f 38/21/34 15/24/35 16/25/36
f 15/24/37 48/26/38 16/25/39
f 16/25/40 48/26/41 14/28/42
f 48/26/43 13/27/44 14/28/45
f 42/30/46 43/31/47 37/29/48
f 37/29/49 43/31/50 8/34/51
f 43/31/52 44/32/53 8/34/54
f 44/32/55 2/33/56 8/34/57
f 20/35/58 21/36/59 3/37/60
f 50/39/61 7/40/62 49/38/63
f 1/1/64 19/20/65 7/40/66
f 49/38/67 7/40/68 19/20/69
f 7/40/70 55/41/71 1/1/72
f 26/19/73 4/42/74 23/17/75
f 23/17/76 4/42/77 20/35/78
f 20/35/79 4/42/80 21/36/81
f 4/42/82 2/33/83 21/36/84
f 18/3/85 17/2/86 2/33/87
f 17/2/88 21/36/89 2/33/90
f 9/15/91 10/14/92 22/43/93
f 22/43/94 10/14/95 26/19/96
f 26/19/97 10/14/98 4/42/99
f 30/45/100 27/18/101 24/44/102
f 24/44/103 27/18/104 5/46/105
f 27/18/106 23/17/107 5/46/108
f 3/37/109 5/46/110 20/35/111
f 23/17/112 20/35/113 5/46/114
f 11/12/115 9/15/116 25/10/117
f 25/10/118 9/15/119 22/43/120
f 25/10/121 22/43/122 30/45/123
f 30/45/124 22/43/125 27/18/126
f 26/19/127 27/18/128 22/43/129
f 28/47/130 29/48/131 35/16/132
f 29/48/133 24/44/134 35/16/135
f 5/46/136 6/9/137 24/44/138
f 6/9/139 35/16/140 24/44/141
f 29/48/142 28/47/143 25/10/144
f 25/10/145 28/47/146 32/11/147
f 29/48/148 30/45/149 24/44/150
f 25/10/151 30/45/152 29/48/153
f 12/13/154 33/49/155 10/14/156
f 10/14/157 33/49/158 31/50/159
f 31/50/160 32/11/161 28/47/162
f 33/49/163 32/11/164 31/50/165
f 32/11/166 33/49/167 11/12/168
f 11/12/169 33/49/170 12/13/171
f 52/51/172 4/42/173 34/7/174
f 34/7/175 4/42/176 36/8/177
f 10/14/178 31/50/179 4/42/180
f 31/50/181 28/47/182 4/42/183
f 4/42/184 28/47/185 36/8/186
f 28/47/187 35/16/188 36/8/189
f 41/22/190 42/30/191 37/29/192
f 14/28/193 39/52/194 38/21/195
f 7/40/196 50/39/197 8/34/198
f 43/31/199 39/52/200 46/53/201
f 38/21/202 42/30/203 41/22/204
f 38/21/205 39/52/206 42/30/207
f 42/30/208 39/52/209 43/31/210
f 44/32/211 43/31/212 46/53/213
f 46/53/214 39/52/215 45/55/216
f 45/55/217 39/52/218 47/54/219
f 14/28/220 13/27/221 39/52/222
f 13/27/223 47/54/224 39/52/225
f 2/33/226 44/32/227 49/38/228
f 45/55/229 49/38/230 46/53/231
f 44/32/232 46/53/233 49/38/234
f 14/28/235 38/21/236 16/25/237
f 48/26/238 47/54/239 13/27/240
f 19/20/241 18/3/242 49/38/243
f 2/33/244 49/38/245 18/3/246
f 49/38/247 45/55/248 50/39/249
f 50/39/250 45/55/251 40/23/252
f 40/23/253 45/55/254 15/24/255
f 15/24/256 45/55/257 48/26/258
f 45/55/259 47/54/260 48/26/261
f 8/34/262 50/39/263 37/29/264
f 41/22/265 37/29/266 40/23/267
f 50/39/268 40/23/269 37/29/270
f 55/41/271 53/4/272 51/6/273
f 2/33/274 52/51/275 8/34/276
f 2/33/277 4/42/278 52/51/279
f 5/46/280 54/5/281 6/9/282
f 6/9/283 54/5/284 34/7/285
f 34/7/286 54/5/287 52/51/288
f 54/5/289 53/4/290 52/51/291
f 7/40/292 8/34/293 55/41/294
f 52/51/295 53/4/296 8/34/297
f 53/4/298 55/41/299 8/34/300
f 17/2/301 51/6/302 21/36/303
f 21/36/304 51/6/305 3/37/306
f 1/1/307 55/41/308 17/2/309
f 17/2/310 55/41/311 51/6/312
f 51/6/313 54/5/314 3/37/315
f 3/37/316 54/5/317 5/46/318
