# This file uses meters as units for non-parametric coordinates.

v -10.000000 0.000000 10.000000
v -2.871152 0.000000 10.000001
v -10.000000 57.500000 10.000000
v 0.000000 57.500000 10.000000
v -10.000000 63.408627 0.000000
v 0.000000 67.500000 0.000000
v -10.000000 0.000000 0.000000
v 0.000000 0.000000 0.000000
v -10.000000 0.000000 100.000000
v 0.000000 0.000000 100.000000
v -10.000000 67.500000 100.000000
v 0.000000 62.938766 100.000000
v -10.000000 57.500000 90.000000
v 0.000000 57.500000 90.000000
v -10.000000 0.000000 90.000000
v 0.000000 0.000000 90.000000
v -7.837212 67.500000 0.000000
v -10.000000 65.615845 1.884153
v -10.000000 67.500000 3.492534
v 0.000000 3.264560 10.000000
v 0.000000 0.000000 7.380614
v -10.000000 67.500000 70.663719
v 0.000000 67.500000 61.540604
v -10.000000 57.500000 62.640018
v 0.000000 57.500000 79.558777
v -4.475956 67.500000 100.000000
v 0.000000 65.650330 98.150322
v 0.000000 67.500000 96.888580
v 0.000000 67.500000 37.449898
v 0.000000 57.500000 69.010674
v -10.000000 67.500000 53.361626
v -2.370276 67.500000 45.815674
v 0.000000 64.471077 43.319180
v 0.000000 41.592983 0.000000
v 0.000000 28.577705 0.000000
v 0.000000 38.655884 1.605485
v -3.095002 39.143860 0.000000
v -2.413872 57.500000 71.328819
v 0.000000 59.356277 73.702347
vt 0.247760 0.303287
vt 0.247760 0.303287
vt 0.247760 0.303287
vt 0.247760 0.303287
vt 0.247760 0.303287
vt 0.247760 0.303287
vt 0.247760 0.303287
vt 0.247760 0.303287
vt 0.247760 0.303287
vt 0.247760 0.303287
vt 0.247760 0.303287
vt 0.247760 0.303287
vt 0.247760 0.303287
vt 0.247760 0.303287
vt 0.247760 0.303287
vt 0.247760 0.303287
vt 0.247760 0.303287
vt 0.247760 0.303287
vt 0.247760 0.303287
vt 0.247760 0.303287
vt 0.247760 0.303287
vt 0.247760 0.303287
vt 0.247760 0.303287
vt 0.247760 0.303287
vt 0.247760 0.303287
vt 0.247760 0.303287
vt 0.247760 0.303287
vt 0.247760 0.303287
vt 0.247760 0.303287
vt 0.247760 0.303287
vt 0.247760 0.303287
vt 0.247760 0.303287
vt 0.247760 0.303287
vt 0.247760 0.303287
vt 0.247760 0.303287
vt 0.247760 0.303287
vt 0.247760 0.303287
vt 0.247760 0.303287
vt 0.247760 0.303287
vn 0.000000 0.000000 1.000000
vn 0.000000 0.000000 1.000000
vn 0.000000 0.000000 1.000000
vn 0.000000 0.000000 1.000000
vn 0.000001 0.000000 1.000000
vn 0.000000 0.000000 1.000000
vn 0.000001 0.000000 1.000000
vn 0.000000 0.000000 1.000000
vn 0.000000 0.000000 1.000000
vn 0.579773 -0.509906 0.635499
vn 0.579773 -0.509906 0.635499
vn 0.579773 -0.509906 0.635499
vn -1.000000 0.000000 0.000000
vn -1.000000 0.000000 0.000000
vn -1.000000 0.000000 0.000000
vn -1.000000 0.000000 0.000000
vn -1.000000 0.000000 0.000000
vn -1.000000 0.000000 0.000000
vn -1.000000 0.000000 0.000000
vn -1.000000 0.000000 0.000000
vn -1.000000 0.000000 0.000000
vn 0.000000 0.000000 1.000000
vn 0.000000 0.000000 1.000000
vn 0.000000 0.000000 1.000000
vn 0.000000 0.000000 1.000000
vn 0.000000 0.000000 1.000000
vn 0.000000 0.000000 1.000000
vn 0.000000 0.000000 1.000000
vn 0.000000 0.000000 1.000000
vn 0.000000 0.000000 1.000000
vn 0.000000 0.000000 -1.000000
vn 0.000000 0.000000 -1.000000
vn 0.000000 0.000000 -1.000000
vn 0.000000 0.000000 -1.000000
vn 0.000000 0.000000 -1.000000
vn 0.000000 0.000000 -1.000000
vn -1.000000 0.000000 0.000000
vn -1.000000 0.000000 0.000000
vn -1.000000 0.000000 0.000000
vn -1.000000 0.000000 0.000000
vn -1.000000 0.000000 0.000000
vn -1.000000 0.000000 0.000000
vn 0.000000 1.000000 0.000000
vn 0.000000 1.000000 0.000000
vn 0.000000 1.000000 0.000000
vn 0.000000 1.000000 0.000000
vn 0.000000 1.000000 0.000000
vn 0.000000 1.000000 0.000000
vn 0.000000 1.000000 0.000000
vn 0.000000 1.000000 0.000000
vn 0.000000 1.000000 0.000000
vn 0.000000 -1.000000 0.000000
vn 0.000000 -1.000000 0.000000
vn 0.000000 -1.000000 0.000000
vn 0.000000 -1.000000 0.000000
vn 0.000000 -1.000000 0.000000
vn 0.000000 -1.000000 0.000000
vn 0.000000 -1.000000 0.000000
vn 0.000000 -1.000000 0.000000
vn 0.000000 -1.000000 0.000000
vn 0.000000 0.000000 0.000000
vn 0.000000 0.000000 0.000000
vn 0.000000 0.000000 0.000000
vn -1.000000 0.000000 0.000000
vn -1.000000 0.000000 0.000000
vn -1.000000 0.000000 0.000000
vn -1.000000 0.000000 0.000000
vn -1.000000 0.000000 0.000000
vn -1.000000 0.000000 0.000000
vn 0.000000 -1.000000 0.000000
vn 0.000000 -1.000000 0.000000
vn 0.000000 -1.000000 0.000000
vn 0.000000 -1.000000 0.000000
vn 0.000000 -1.000000 0.000000
vn 0.000000 -1.000000 0.000000
vn 0.000000 0.000000 -1.000000
vn 0.000000 0.000000 -1.000000
vn 0.000000 0.000000 -1.000000
vn 0.000000 0.000000 -1.000000
vn 0.000000 0.000000 -1.000000
vn 0.000000 0.000000 -1.000000
vn 0.000000 0.000000 -1.000000
vn 0.000000 0.000000 -1.000000
vn 0.000000 0.000000 -1.000000
vn -0.775468 0.409929 -0.480217
vn -0.775467 0.409929 -0.480217
vn -0.775468 0.409929 -0.480217
vn 1.000000 0.000000 0.000000
vn 0.000000 0.000000 0.000000
vn 0.000000 0.000000 0.000000
vn 1.000000 0.000000 0.000000
vn 1.000000 0.000000 0.000000
vn 1.000000 0.000000 0.000000
vn 0.000000 1.000000 0.000000
vn 0.000000 1.000000 0.000000
vn 0.000000 1.000000 0.000000
vn 0.000000 1.000000 0.000000
vn 0.000000 1.000000 0.000000
vn 0.000000 1.000000 0.000000
vn 0.000000 -1.000000 0.000000
vn 0.000000 -1.000000 0.000000
vn 0.000000 -1.000000 0.000000
vn 0.000000 -1.000000 0.000000
vn 0.000000 -1.000000 0.000000
vn 0.000000 -1.000000 0.000000
vn 1.000000 0.000000 0.000000
vn 1.000000 0.000000 0.000000
vn 1.000000 0.000000 0.000000
vn 1.000000 0.000000 0.000000
vn 1.000000 0.000000 0.000000
vn 1.000000 0.000000 0.000000
vn 1.000000 0.000000 0.000000
vn 1.000000 0.000000 0.000000
vn 1.000000 0.000000 0.000000
vn -1.000000 0.000000 0.000000
vn -1.000000 0.000000 0.000000
vn -1.000000 0.000000 0.000000
vn -1.000000 0.000000 0.000000
vn -1.000000 0.000000 0.000000
vn -1.000000 -0.000000 0.000000
vn -1.000000 -0.000001 0.000000
vn -1.000000 -0.000000 0.000000
vn -1.000000 -0.000000 0.000000
vn -1.000000 0.000000 0.000000
vn -1.000000 -0.000000 0.000000
vn -1.000000 -0.000000 0.000000
vn 0.000000 -1.000000 0.000000
vn 0.000000 -1.000000 0.000000
vn 0.000000 -1.000000 0.000000
vn 0.000000 -1.000000 0.000000
vn 0.000000 -1.000000 0.000000
vn 0.000000 -1.000000 0.000000
vn 0.000000 -1.000000 0.000000
vn 0.000000 -1.000000 0.000000
vn 0.000000 -1.000000 0.000000
vn 0.497987 0.488677 0.716382
vn 0.497987 0.488677 0.716382
vn 0.497987 0.488677 0.716382
vn 1.000000 0.000000 0.000000
vn 1.000000 0.000000 0.000000
vn 1.000000 0.000000 0.000000
vn 1.000000 0.000000 0.000000
vn 1.000000 0.000000 0.000000
vn 1.000000 0.000000 0.000000
vn 1.000000 0.000000 0.000000
vn 1.000000 0.000000 0.000000
vn 1.000000 0.000000 0.000000
vn 0.000000 1.000000 0.000000
vn 0.000000 1.000000 0.000000
vn 0.000000 1.000000 0.000000
vn 0.000000 1.000000 0.000000
vn 0.000000 1.000000 0.000000
vn 0.000000 1.000000 0.000000
vn 0.000000 1.000000 0.000000
vn 0.000000 1.000000 0.000000
vn 0.000000 1.000000 0.000000
vn 0.000000 1.000000 0.000000
vn 0.000000 1.000000 0.000000
vn 0.000000 1.000000 0.000000
vn 0.850733 0.467070 0.241038
vn 0.850733 0.467070 0.241038
vn 0.850733 0.467070 0.241038
vn 0.736214 0.667588 -0.110972
vn 0.736214 0.667588 -0.110972
vn 0.736214 0.667588 -0.110972
vn 1.000000 0.000000 0.000000
vn 1.000000 0.000000 0.000000
vn 1.000000 0.000000 0.000000
vn 1.000000 0.000000 0.000000
vn 1.000000 0.000000 0.000000
vn 1.000000 0.000000 0.000000
vn 1.000000 0.000000 0.000000
vn 1.000000 0.000000 0.000000
vn 1.000000 0.000000 0.000000
vn 1.000000 0.000000 0.000000
vn 1.000000 0.000000 0.000000
vn 1.000000 0.000000 0.000000
vn 1.000000 0.000000 0.000000
vn 1.000000 0.000000 0.000000
vn 1.000000 0.000000 0.000000
vn 1.000000 0.000000 0.000000
vn 1.000000 0.000000 0.000000
vn 1.000000 0.000000 0.000000
vn 1.000000 0.000000 0.000000
vn 1.000000 0.000000 0.000000
vn 1.000000 0.000000 0.000000
vn 1.000000 0.000000 0.000000
vn 1.000000 0.000000 0.000000
vn 1.000000 0.000000 0.000000
vn 0.354848 -0.448428 -0.820363
vn 0.354848 -0.448428 -0.820363
vn 0.354848 -0.448428 -0.820363
vn 0.473155 0.138595 -0.870009
vn 0.473156 0.138595 -0.870009
vn 0.473155 0.138595 -0.870009
vn 0.000000 0.000000 -1.000000
vn 0.000000 0.000000 -1.000000
vn 0.000000 0.000000 -1.000000
vn 0.000000 0.000000 -1.000000
vn 0.000000 0.000000 -1.000000
vn 0.000000 0.000000 -1.000000
vn 0.000000 0.000000 -1.000000
vn 0.000000 0.000000 -1.000000
vn 0.000000 0.000000 -1.000000
vn 1.000000 0.000000 0.000000
vn 1.000000 0.000000 0.000000
vn 1.000000 0.000000 0.000000
vn 0.333133 -0.876749 0.346891
vn 0.333133 -0.876749 0.346891
vn 0.333133 -0.876749 0.346891
vn 0.000000 -1.000000 0.000000
vn 0.000000 -1.000000 0.000000
vn 0.000000 -1.000000 0.000000
vn 1.000000 0.000000 0.000000
vn 1.000000 0.000000 0.000000
vn 1.000000 0.000000 0.000000
vn 1.000000 0.000000 0.000000
vn 1.000000 0.000000 0.000000
vn 1.000000 0.000000 0.000000
vn 0.717533 -0.663969 -0.210455
vn 0.717533 -0.663969 -0.210455
vn 0.717533 -0.663969 -0.210455
s off
f 1/1/1 2/2/2 3/5/3
f 2/2/4 20/3/5 3/5/6
f 20/3/7 4/4/8 3/5/9
f 2/2/10 21/6/11 20/3/12
f 18/8/13 5/9/14 3/5/15
f 5/9/16 7/7/17 3/5/18
f 7/7/19 1/1/20 3/5/21
f 9/10/22 10/11/23 11/14/24
f 11/14/25 10/11/26 26/13/27
f 10/11/28 12/12/29 26/13/30
f 13/15/31 14/16/32 15/18/33
f 15/18/34 14/16/35 16/17/36
f 15/18/37 9/10/38 13/15/39
f 13/15/40 9/10/41 11/14/42
f 23/20/43 22/21/44 28/19/45
f 11/14/46 26/13/47 22/21/48
f 26/13/49 28/19/50 22/21/51
f 38/23/52 24/24/53 30/22/54
f 30/22/55 24/24/56 4/4/57
f 3/5/58 4/4/59 24/24/60
f 12/12/61 27/25/62 28/19/63
f 11/14/64 22/21/65 13/15/66
f 13/15/67 22/21/68 24/24/69
f 10/11/70 9/10/71 16/17/72
f 16/17/73 9/10/74 15/18/75
f 37/29/76 5/9/77 34/28/78
f 6/27/79 34/28/80 17/26/81
f 5/9/82 17/26/83 34/28/84
f 19/30/85 17/26/86 5/9/87
f 18/8/88 19/30/89 5/9/90
f 20/3/91 35/31/92 36/32/93
f 22/21/94 23/20/95 31/34/96
f 31/34/97 23/20/98 32/33/99
f 24/24/100 25/35/101 13/15/102
f 13/15/103 25/35/104 14/16/105
f 30/22/106 4/4/107 33/37/108
f 33/37/109 4/4/110 29/36/111
f 29/36/112 4/4/113 6/27/114
f 22/21/115 31/34/116 24/24/117
f 24/24/118 31/34/119 3/5/120
f 18/8/121 3/5/122 19/30/123
f 31/34/124 19/30/125 3/5/126
f 1/1/127 7/7/128 2/2/129
f 2/2/130 7/7/131 21/6/132
f 21/6/133 7/7/134 8/38/135
f 28/19/136 26/13/137 12/12/138
f 23/20/139 28/19/140 39/39/141
f 39/39/142 28/19/143 25/35/144
f 28/19/145 14/16/146 25/35/147
f 31/34/148 32/33/149 19/30/150
f 32/33/151 29/36/152 19/30/153
f 6/27/154 17/26/155 29/36/156
f 29/36/157 17/26/158 19/30/159
f 29/36/160 32/33/161 33/37/162
f 33/37/163 32/33/164 23/20/165
f 16/17/166 14/16/167 10/11/168
f 10/11/169 14/16/170 12/12/171
f 28/19/172 27/25/173 14/16/174
f 14/16/175 27/25/176 12/12/177
f 36/32/178 34/28/179 4/4/180
f 4/4/181 34/28/182 6/27/183
f 8/38/184 35/31/185 21/6/186
f 20/3/187 21/6/188 35/31/189
f 36/32/190 37/29/191 34/28/192
f 35/31/193 37/29/194 36/32/195
f 7/7/196 5/9/197 37/29/198
f 37/29/199 35/31/200 7/7/201
f 7/7/202 35/31/203 8/38/204
f 20/3/205 36/32/206 4/4/207
f 39/39/208 38/23/209 30/22/210
f 24/24/211 38/23/212 25/35/213
f 39/39/214 30/22/215 23/20/216
f 23/20/217 30/22/218 33/37/219
f 25/35/220 38/23/221 39/39/222
