# This file uses meters as units for non-parametric coordinates.

v -200.000000 0.000000 100.000000
v 0.000000 0.000000 100.000000
v -200.000000 44.743652 0.000000
v 0.000000 50.000000 0.000000
v -200.000000 0.000000 0.000000
v 0.000000 0.000000 3.497601
v -200.000000 13.400299 75.000000
v 0.000000 13.400299 75.000000
v -200.000000 25.649290 50.000000
v 0.000000 25.649290 50.000000
v -200.000000 37.788628 25.000000
v 0.000000 37.788628 25.000000
v -200.000000 48.745102 23.055229
v 0.000000 37.788628 50.000000
v 0.000000 22.868727 75.000000
v -200.000000 21.307262 73.621292
v 0.000000 7.740016 100.000000
v -200.000000 11.578341 100.000000
v -3.485406 13.400299 100.000000
v 0.000000 13.400299 95.175697
v -200.000031 24.674915 68.339371
v -192.000641 25.649290 75.000000
v -185.696960 37.788628 50.000000
v -135.960907 37.788628 50.000000
v -170.855698 36.475620 50.000000
v -167.178940 37.788628 43.939720
v -200.000000 13.400300 96.919746
v -42.316986 13.400299 100.000000
v -196.571289 50.000000 0.000000
v -200.000000 50.000000 3.075151
v -132.892975 50.000000 25.000000
v -56.863003 25.649290 75.000000
v -2.371090 25.649290 75.000000
v -46.102242 25.649290 69.713600
v -47.159538 24.224480 75.000000
v 0.000000 25.649290 67.591331
v -7.477391 0.000000 0.000000
v 0.000000 2.204781 0.000000
v -5.866635 50.000000 25.000000
v 0.000000 45.206364 25.000000
v 0.000000 50.000000 17.213030
v -200.000000 37.788628 42.562851
v -200.000000 32.430424 50.000000
v -195.614685 37.788628 50.000000
v -197.875443 50.000000 25.000000
v -171.739746 11.904875 100.000000
v -152.838058 12.123278 100.000000
v -161.497925 13.400300 97.671867
v -166.218826 10.817995 100.000000
v -127.996765 25.649290 75.000000
v -144.443832 25.649290 75.000000
v -140.708160 25.649290 70.586517
v -136.909683 23.873190 75.000000
vt 0.247760 0.303287
vt 0.247760 0.303287
vt 0.247760 0.303287
vt 0.247760 0.303287
vt 0.247760 0.303287
vt 0.247760 0.303287
vt 0.247760 0.303287
vt 0.247760 0.303287
vt 0.247760 0.303287
vt 0.247760 0.303287
vt 0.247760 0.303287
vt 0.247760 0.303287
vt 0.247760 0.303287
vt 0.247760 0.303287
vt 0.247760 0.303287
vt 0.247760 0.303287
vt 0.247760 0.303287
vt 0.247760 0.303287
vt 0.247760 0.303287
vt 0.247760 0.303287
vt 0.247760 0.303287
vt 0.247760 0.303287
vt 0.247760 0.303287
vt 0.247760 0.303287
vt 0.247760 0.303287
vt 0.247760 0.303287
vt 0.247760 0.303287
vt 0.247760 0.303287
vt 0.247760 0.303287
vt 0.247760 0.303287
vt 0.247760 0.303287
vt 0.247760 0.303287
vt 0.247760 0.303287
vt 0.247760 0.303287
vt 0.247760 0.303287
vt 0.247760 0.303287
vt 0.247760 0.303287
vt 0.247760 0.303287
vt 0.247760 0.303287
vt 0.247760 0.303287
vt 0.247760 0.303287
vt 0.247760 0.303287
vt 0.247760 0.303287
vt 0.247760 0.303287
vt 0.247760 0.303287
vt 0.247760 0.303287
vt 0.247760 0.303287
vt 0.247760 0.303287
vt 0.247760 0.303287
vt 0.247760 0.303287
vt 0.247760 0.303287
vt 0.247760 0.303287
vt 0.247760 0.303287
vn 0.000000 1.000000 0.000000
vn 0.000000 1.000000 0.000000
vn 0.000000 1.000000 0.000000
vn 0.000000 1.000000 0.000000
vn 0.000000 1.000000 0.000000
vn 0.000000 1.000000 0.000000
vn 0.000000 -1.000000 0.000000
vn 0.000000 -1.000000 0.000000
vn 0.000000 -1.000000 0.000000
vn 0.000000 -1.000000 0.000000
vn 0.000000 -1.000000 0.000000
vn 0.000000 -1.000000 0.000000
vn 0.000000 -1.000000 0.000000
vn 0.000000 -1.000000 0.000000
vn 0.000000 -1.000000 0.000000
vn -1.000000 0.000000 0.000000
vn -1.000000 0.000000 0.000000
vn -1.000000 0.000000 0.000000
vn -1.000000 0.000000 0.000000
vn -1.000000 0.000000 0.000000
vn -1.000000 0.000000 0.000000
vn -0.482148 0.738714 0.470993
vn -0.482148 0.738714 0.470993
vn -0.482148 0.738714 0.470993
vn 0.000000 1.000000 0.000000
vn 0.000000 1.000000 0.000000
vn 0.000000 1.000000 0.000000
vn 0.000000 1.000000 0.000000
vn 0.000000 1.000000 0.000000
vn 0.000000 1.000000 0.000000
vn 0.000000 1.000000 0.000000
vn 0.000000 1.000000 0.000000
vn 0.000000 1.000000 -0.000000
vn 0.052842 0.998603 -0.000000
vn 0.052842 0.998603 -0.000000
vn 0.052842 0.998603 -0.000000
vn 1.000000 0.000000 0.000000
vn 1.000000 0.000000 0.000000
vn 1.000000 0.000000 0.000000
vn -0.704031 0.576200 0.415131
vn -0.704031 0.576200 0.415131
vn -0.704031 0.576200 0.415131
vn -1.000000 0.000000 0.000000
vn -1.000000 0.000000 0.000000
vn -1.000000 0.000000 0.000000
vn -1.000000 0.000000 0.000000
vn -1.000000 0.000000 0.000000
vn -1.000000 0.000000 0.000000
vn -1.000000 0.000000 0.000000
vn -1.000000 0.000000 0.000000
vn -1.000000 0.000000 0.000000
vn -1.000000 0.000000 0.000000
vn -1.000000 0.000000 0.000000
vn -1.000000 0.000000 0.000000
vn -1.000000 0.000000 0.000000
vn -1.000000 0.000000 0.000000
vn -1.000000 0.000000 0.000000
vn 0.000000 0.000000 1.000000
vn 0.000000 0.000000 1.000000
vn 0.000000 0.000000 1.000000
vn 0.000000 0.000000 1.000000
vn 0.000000 0.000000 1.000000
vn 0.000000 0.000000 1.000000
vn 1.000000 0.000000 0.000000
vn 1.000000 0.000000 0.000000
vn 1.000000 0.000000 0.000000
vn 1.000000 0.000000 0.000000
vn 1.000000 0.000000 0.000000
vn 1.000000 0.000000 0.000000
vn 0.725262 0.446590 0.523977
vn 0.725262 0.446590 0.523977
vn 0.725262 0.446590 0.523977
vn -1.000000 -0.000005 -0.000002
vn -1.000000 -0.000004 -0.000001
vn -1.000000 -0.000005 -0.000002
vn -1.000000 -0.000005 -0.000002
vn -1.000000 -0.000004 -0.000001
vn -1.000000 0.000000 0.000007
vn -0.006036 0.999980 0.001931
vn -0.163576 0.985141 0.052340
vn -0.005664 0.999982 0.001812
vn 0.000000 0.000000 1.000000
vn 0.000000 0.000000 1.000000
vn 0.000000 0.000000 1.000000
vn 0.000000 0.000000 1.000000
vn 0.000000 0.000000 1.000000
vn 0.000000 0.000000 1.000000
vn 0.000000 1.000000 0.000000
vn 0.000000 1.000000 0.000000
vn 0.000000 1.000000 0.000000
vn 0.000000 1.000000 0.000001
vn 0.000000 1.000000 0.000001
vn 0.000000 1.000000 0.000000
vn 0.000000 1.000000 0.000000
vn 0.000000 1.000000 0.000001
vn 0.000000 1.000000 0.000000
vn 0.085095 0.961847 0.260017
vn 0.085095 0.961847 0.260017
vn 0.085095 0.961847 0.260017
vn 0.000000 0.000000 1.000000
vn 0.000000 0.000000 1.000000
vn 0.000000 0.000000 1.000000
vn -0.036915 0.981059 0.190158
vn -0.036915 0.981059 0.190158
vn -0.036915 0.981059 0.190158
vn -0.009945 0.860662 0.509079
vn -0.009945 0.860662 0.509079
vn -0.009945 0.860662 0.509079
vn 0.000000 0.000000 1.000000
vn 0.000000 0.000000 1.000000
vn 0.000000 0.000000 1.000000
vn 0.000000 0.000000 1.000000
vn 0.000000 0.000000 1.000000
vn 0.000000 0.000000 1.000000
vn -0.612145 0.399298 -0.682525
vn -0.612145 0.399298 -0.682525
vn -0.612145 0.399298 -0.682525
vn 0.000000 0.000000 -1.000000
vn 0.000000 0.000000 -1.000000
vn 0.000000 0.000000 -1.000000
vn 0.000000 0.000000 -1.000000
vn 0.000000 0.000000 -1.000000
vn 0.000000 0.000000 -1.000000
vn 0.000000 0.000000 -1.000000
vn 0.000000 0.000000 -1.000000
vn 0.000000 0.000000 -1.000000
vn 0.000000 0.000000 -1.000000
vn 0.000000 0.000000 -1.000000
vn 0.000000 0.000000 -1.000000
vn -1.000000 0.000000 0.000000
vn -1.000000 0.000000 0.000000
vn -1.000000 0.000000 0.000000
vn 0.000000 1.000000 0.000000
vn 0.000000 1.000000 0.000000
vn 0.000000 1.000000 0.000000
vn 0.000000 1.000000 0.000000
vn 0.000000 1.000000 0.000001
vn 0.000000 1.000000 0.000000
vn 0.000000 1.000000 -0.000000
vn 0.000000 1.000000 -0.000000
vn 0.000000 1.000000 -0.000000
vn 0.000000 0.000000 1.000000
vn 0.000000 0.000000 1.000000
vn 0.000000 0.000000 1.000000
vn 0.000000 0.000000 1.000000
vn 0.000000 0.000000 1.000000
vn 0.000000 0.000000 1.000000
vn 0.000000 1.000000 -0.000000
vn 0.000000 1.000000 -0.000000
vn 0.000000 1.000000 -0.000000
vn 0.000000 1.000000 0.000000
vn 0.000000 1.000000 0.000000
vn 0.000000 1.000000 0.000000
vn 0.139314 0.948775 0.283580
vn 0.139314 0.948775 0.283580
vn 0.139314 0.948775 0.283580
vn -0.030750 0.966616 0.254376
vn -0.030750 0.966616 0.254376
vn -0.030750 0.966616 0.254376
vn 0.000000 0.000000 1.000000
vn 0.000000 0.000000 1.000000
vn 0.000000 0.000000 1.000000
vn -0.254377 0.166125 0.952730
vn -0.020304 0.013260 0.999706
vn -0.006776 0.004425 0.999967
vn 0.000000 0.000000 1.000000
vn 0.000000 0.000000 1.000000
vn 0.000000 0.000000 1.000000
vn 1.000000 0.000000 0.000000
vn 1.000000 0.000000 0.000000
vn 1.000000 0.000000 0.000000
vn 1.000000 0.000000 0.000000
vn 1.000000 0.000000 0.000000
vn 1.000000 0.000000 0.000000
vn 0.739304 0.630433 0.236609
vn 0.739304 0.630433 0.236609
vn 0.739304 0.630433 0.236609
vn 0.000000 0.000000 1.000000
vn 0.000000 0.000000 1.000000
vn 0.000000 0.000000 1.000000
vn 0.000000 1.000000 0.000000
vn 0.000000 1.000000 0.000000
vn 0.000000 1.000000 0.000000
vn 0.000000 0.000000 1.000000
vn 0.000000 0.000000 1.000000
vn 0.000000 0.000000 1.000000
vn 0.000000 0.000000 1.000000
vn 0.000000 0.000000 1.000000
vn 0.000000 0.000000 1.000000
vn 0.000000 0.000000 1.000000
vn 0.000000 0.000000 1.000000
vn 0.000000 0.000000 1.000000
vn 0.000000 1.000000 0.000000
vn 0.000000 1.000000 0.000000
vn 0.000000 1.000000 0.000000
vn -0.006036 0.999980 0.001931
vn -0.005664 0.999982 0.001812
vn 0.000000 1.000000 0.000000
vn 0.000000 1.000000 0.000000
vn -0.005664 0.999982 0.001812
vn 0.000000 1.000000 0.000000
vn 1.000000 0.000000 0.000000
vn 1.000000 0.000000 0.000000
vn 1.000000 0.000000 0.000000
vn 1.000000 0.000000 0.000000
vn 1.000000 0.000000 0.000000
vn 1.000000 0.000000 0.000000
vn 1.000000 0.000000 0.000000
vn 1.000000 0.000000 0.000000
vn 1.000000 0.000000 0.000000
vn 1.000000 0.000000 0.000000
vn 1.000000 0.000000 0.000000
vn 1.000000 0.000000 0.000000
vn 1.000000 0.000000 0.000000
vn 1.000000 0.000000 0.000000
vn 1.000000 0.000000 0.000000
vn 0.242021 -0.820801 -0.517408
vn 0.242021 -0.820801 -0.517408
vn 0.242021 -0.820801 -0.517408
vn 0.000000 0.000000 1.000000
vn 0.000000 0.000000 1.000000
vn 0.000000 0.000000 1.000000
vn 0.000000 0.000000 1.000000
vn 0.000000 0.000000 1.000000
vn 0.000000 0.000000 1.000000
vn 1.000000 0.000000 0.000000
vn 1.000000 0.000000 0.000000
vn 1.000000 0.000000 0.000000
vn 1.000000 0.000000 0.000000
vn 1.000000 0.000000 0.000000
vn 1.000000 0.000000 0.000000
vn 0.571161 0.699008 0.430307
vn 0.571161 0.699008 0.430307
vn 0.571160 0.699008 0.430307
vn -1.000000 0.000000 0.000000
vn -1.000000 0.000000 0.000000
vn -1.000000 0.000000 0.000000
vn -1.000000 0.000000 0.000000
vn -1.000000 0.000000 0.000000
vn -1.000000 0.000000 0.000000
vn -0.000001 0.000000 1.000000
vn -0.000001 0.000000 1.000000
vn -0.000000 0.000000 1.000000
vn -0.000000 0.000000 1.000000
vn -0.000001 0.000000 1.000000
vn 0.000000 0.000000 1.000000
vn -0.000001 0.000000 1.000000
vn 0.000000 0.000000 1.000000
vn 0.000000 0.000000 1.000000
vn 0.000000 1.000000 0.000000
vn 0.000000 1.000000 0.000000
vn 0.000000 1.000000 0.000000
vn 0.000000 1.000000 0.000000
vn 0.000000 1.000000 0.000000
vn 0.000000 1.000000 0.000000
vn 0.000000 1.000000 0.000000
vn 0.000000 1.000000 0.000002
vn 0.000000 1.000000 0.000000
vn -0.543141 0.837990 0.052631
vn -0.543141 0.837990 0.052631
vn -0.543141 0.837990 0.052631
vn -0.708698 0.123303 0.694653
vn -0.708698 0.123303 0.694653
vn -0.708698 0.123303 0.694653
vn 0.000000 0.000000 1.000000
vn 0.000000 0.000000 1.000000
vn 0.000000 0.000000 1.000000
vn -0.071912 0.737187 0.671851
vn -0.071912 0.737187 0.671851
vn -0.071912 0.737187 0.671851
vn 0.000000 0.000000 1.000000
vn 0.000000 0.000000 1.000000
vn 0.000000 0.000000 1.000000
vn 0.108143 0.549323 0.828583
vn 0.108143 0.549323 0.828583
vn 0.108143 0.549323 0.828583
vn -0.000003 0.000000 1.000000
vn -0.000003 0.000000 1.000000
vn -0.000003 0.000000 1.000000
vn 0.000000 1.000000 0.000000
vn 0.000000 1.000000 0.000000
vn 0.000000 1.000000 -0.000000
vn -0.103145 0.979121 0.175164
vn -0.103145 0.979121 0.175164
vn -0.103145 0.979121 0.175164
vn -0.009944 0.860663 0.509079
vn -0.009944 0.860663 0.509079
vn -0.009944 0.860663 0.509079
vn 0.000000 1.000000 0.000000
vn 0.000000 1.000000 0.000000
vn 0.000000 1.000000 0.000000
vn 0.225243 0.955467 0.190651
vn 0.225243 0.955467 0.190651
vn 0.225243 0.955467 0.190651
vn 0.000000 0.000000 1.000000
vn 0.000000 0.000000 1.000000
vn -0.020304 0.013260 0.999706
vn -0.020304 0.013260 0.999706
vn 0.000000 0.000000 1.000000
vn -0.006776 0.004425 0.999967
vn -0.170306 0.854637 0.490502
vn -0.170306 0.854637 0.490502
vn -0.170306 0.854637 0.490502
vn 0.000000 1.000000 -0.000001
vn 0.000000 1.000000 -0.000001
vn 0.000000 1.000000 -0.000001
s off
f 29/2/1 30/3/2 31/1/3
f 31/1/4 30/3/5 45/4/6
f 5/5/7 37/6/8 1/7/9
f 2/8/10 1/7/11 6/9/12
f 37/6/13 6/9/14 1/7/15
f 7/10/16 1/7/17 27/12/18
f 1/7/19 18/11/20 27/12/21
f 21/13/22 16/14/23 22/15/24
f 8/16/25 7/10/26 20/17/27
f 20/17/28 7/10/29 19/18/30
f 19/18/31 7/10/32 28/19/33
f 27/12/34 46/20/35 7/10/36
f 10/21/37 12/22/38 14/23/39
f 42/24/40 43/25/41 44/26/42
f 5/5/43 9/27/44 11/28/45
f 30/3/46 3/29/47 11/28/48
f 5/5/49 11/28/50 3/29/51
f 5/5/52 1/7/53 7/10/54
f 5/5/55 7/10/56 9/27/57
f 2/8/58 17/30/59 28/19/60
f 28/19/61 17/30/62 19/18/63
f 2/8/64 8/16/65 17/30/66
f 8/16/67 20/17/68 17/30/69
f 20/17/70 19/18/71 17/30/72
f 9/27/73 7/10/74 21/13/75
f 21/13/76 7/10/77 16/14/78
f 9/27/79 21/13/80 22/15/81
f 14/23/82 24/31/83 10/21/84
f 10/21/85 24/31/86 25/32/87
f 11/28/88 26/33/89 12/22/90
f 26/33/91 24/31/92 12/22/93
f 12/22/94 24/31/95 14/23/96
f 23/34/97 25/32/98 26/33/99
f 10/21/100 25/32/101 9/27/102
f 26/33/103 25/32/104 24/31/105
f 18/11/106 46/20/107 27/12/108
f 1/7/109 46/20/110 18/11/111
f 1/7/112 2/8/113 28/19/114
f 30/3/115 29/2/116 3/29/117
f 4/35/118 38/36/119 29/2/120
f 38/36/121 37/6/122 29/2/123
f 5/5/124 3/29/125 37/6/126
f 3/29/127 29/2/128 37/6/129
f 30/3/130 11/28/131 13/37/132
f 4/35/133 31/1/134 41/39/135
f 31/1/136 39/38/137 41/39/138
f 4/35/139 29/2/140 31/1/141
f 12/22/142 31/1/143 11/28/144
f 11/28/145 31/1/146 45/4/147
f 9/27/148 34/40/149 10/21/150
f 10/21/151 34/40/152 33/41/153
f 34/40/154 32/42/155 35/43/156
f 34/40/157 35/43/158 33/41/159
f 8/16/160 35/43/161 7/10/162
f 16/14/163 7/10/164 22/15/165
f 15/44/166 33/41/167 8/16/168
f 10/21/169 36/45/170 8/16/171
f 8/16/172 36/45/173 15/44/174
f 36/45/175 33/41/176 15/44/177
f 8/16/178 33/41/179 35/43/180
f 10/21/181 33/41/182 36/45/183
f 35/43/184 32/42/185 7/10/186
f 7/10/187 32/42/188 53/47/189
f 32/42/190 50/46/191 53/47/192
f 34/40/193 9/27/194 32/42/195
f 9/27/196 22/15/197 52/49/198
f 52/49/199 22/15/200 51/48/201
f 6/9/202 8/16/203 2/8/204
f 6/9/205 10/21/206 8/16/207
f 6/9/208 12/22/209 10/21/210
f 6/9/211 38/36/212 12/22/213
f 12/22/214 38/36/215 4/35/216
f 37/6/217 38/36/218 6/9/219
f 12/22/220 40/50/221 31/1/222
f 40/50/223 39/38/224 31/1/225
f 4/35/226 41/39/227 12/22/228
f 12/22/229 41/39/230 40/50/231
f 41/39/232 39/38/233 40/50/234
f 11/28/235 9/27/236 42/24/237
f 42/24/238 9/27/239 43/25/240
f 25/32/241 23/34/242 9/27/243
f 9/27/244 23/34/245 43/25/246
f 23/34/247 44/26/248 43/25/249
f 26/33/250 11/28/251 23/34/252
f 11/28/253 42/24/254 23/34/255
f 42/24/256 44/26/257 23/34/258
f 45/4/259 30/3/260 13/37/261
f 11/28/262 45/4/263 13/37/264
f 1/7/265 28/19/266 47/51/267
f 48/52/268 49/53/269 47/51/270
f 1/7/271 47/51/272 49/53/273
f 46/20/274 49/53/275 48/52/276
f 1/7/277 49/53/278 46/20/279
f 7/10/280 48/52/281 28/19/282
f 7/10/283 46/20/284 48/52/285
f 28/19/286 48/52/287 47/51/288
f 9/27/289 52/49/290 32/42/291
f 52/49/292 51/48/293 53/47/294
f 53/47/295 51/48/296 7/10/297
f 7/10/298 51/48/299 22/15/300
f 52/49/301 53/47/302 50/46/303
f 32/42/304 52/49/305 50/46/306
