# This file uses meters as units for non-parametric coordinates.

v -197.574249 0.000000 10.000000
v -200.000000 0.000000 0.931971
v -193.106934 300.000000 10.000000
v -192.744354 300.000000 1.753761
v 0.000000 300.000000 7.743542
v 0.000000 300.000000 2.834581
v 0.000000 0.000000 8.395778
v 0.000000 0.000000 2.925859
v 0.000000 209.670929 0.000000
v -199.999969 101.232674 0.000000
v -200.000000 133.146103 0.000000
v 0.000000 255.655594 0.000000
v -3.709039 300.000000 0.000000
v 0.000000 288.750763 0.000000
v -200.000000 289.419617 10.000000
v -200.000000 300.000000 4.499540
v -2.548633 0.000000 0.000001
v 0.000000 7.978776 0.000000
v -198.813309 117.863129 10.000000
v -200.000000 117.534325 4.175851
v -196.988739 125.019409 0.000000
v -4.581107 239.017487 0.000000
v -0.889515 241.540405 10.000000
v 0.000000 244.162445 1.469018
v -200.000000 295.871155 0.000000
v -193.732269 3.549074 0.000000
v -179.811646 0.000000 10.000000
v -199.737625 10.304280 10.000000
v -1.384136 78.588890 10.000000
v -1.648616 125.348351 10.000000
v -5.291327 97.088493 10.000000
v -0.709442 96.425751 4.303255
v -1.430086 296.199341 10.000000
v -200.000000 231.041977 0.000000
v -200.000000 261.908813 1.621296
v -200.000000 277.391113 0.000000
v -197.170792 259.033325 0.000000
v -5.793369 0.000000 10.000000
v -4.423163 6.000510 10.000000
v -0.202423 11.493209 10.000000
vt 0.247760 0.303287
vt 0.247760 0.303287
vt 0.247760 0.303287
vt 0.247760 0.303287
vt 0.247760 0.303287
vt 0.247760 0.303287
vt 0.247760 0.303287
vt 0.247760 0.303287
vt 0.247760 0.303287
vt 0.247760 0.303287
vt 0.247760 0.303287
vt 0.247760 0.303287
vt 0.247760 0.303287
vt 0.247760 0.303287
vt 0.247760 0.303287
vt 0.247760 0.303287
vt 0.247760 0.303287
vt 0.247760 0.303287
vt 0.247760 0.303287
vt 0.247760 0.303287
vt 0.247760 0.303287
vt 0.247760 0.303287
vt 0.247760 0.303287
vt 0.247760 0.303287
vt 0.247760 0.303287
vt 0.247760 0.303287
vt 0.247760 0.303287
vt 0.247760 0.303287
vt 0.247760 0.303287
vt 0.247760 0.303287
vt 0.247760 0.303287
vt 0.247760 0.303287
vt 0.247760 0.303287
vt 0.247760 0.303287
vt 0.247760 0.303287
vt 0.247760 0.303287
vt 0.247760 0.303287
vt 0.247760 0.303287
vt 0.247760 0.303287
vt 0.247760 0.303287
vn -0.577841 0.376460 0.724139
vn -0.577841 0.376460 0.724139
vn -0.577841 0.376460 0.724139
vn 0.000000 1.000000 0.000000
vn 0.000000 1.000000 0.000000
vn 0.000000 1.000000 0.000000
vn 0.000000 1.000000 0.000000
vn 0.000000 1.000000 0.000000
vn 0.000000 1.000000 0.000000
vn 0.000000 1.000000 0.000000
vn 0.000000 1.000000 0.000000
vn 0.000000 1.000000 0.000000
vn 0.000000 1.000000 0.000000
vn 0.000000 1.000000 0.000000
vn 0.000000 1.000000 0.000000
vn 0.997386 -0.012429 0.071175
vn 0.996986 -0.008173 0.077148
vn 0.997306 -0.011524 0.072446
vn 0.997306 -0.011524 0.072446
vn 0.996986 -0.008173 0.077148
vn 0.994067 0.013790 0.107889
vn 0.000000 -1.000000 0.000000
vn 0.000000 -1.000000 0.000000
vn 0.000000 -1.000000 0.000000
vn 0.000000 0.000000 -1.000000
vn 0.000000 0.000000 -1.000000
vn 0.000000 0.000000 -1.000000
vn 0.000000 0.000000 -1.000000
vn 0.000000 0.000000 -1.000000
vn 0.000000 0.000000 -1.000000
vn 0.000000 0.000000 1.000000
vn 0.000000 0.000000 1.000000
vn 0.000000 0.000000 1.000000
vn 0.000000 0.000000 1.000000
vn 0.000000 0.000000 1.000000
vn 0.000000 0.000000 1.000000
vn 0.000000 0.000000 1.000000
vn 0.000000 0.000000 1.000000
vn 0.000000 0.000000 1.000000
vn 0.595397 0.196311 -0.779079
vn 0.595397 0.196311 -0.779079
vn 0.595397 0.196311 -0.779079
vn -0.008488 0.403537 -0.914924
vn -0.008488 0.403537 -0.914924
vn -0.008488 0.403537 -0.914924
vn -0.999967 -0.002019 0.007875
vn -0.999957 -0.001886 0.009081
vn -0.999598 0.000232 0.028336
vn -0.999598 0.000232 0.028336
vn -0.999957 -0.001886 0.009081
vn -0.999590 0.000264 0.028622
vn 0.733078 -0.234165 -0.638564
vn 0.733078 -0.234165 -0.638564
vn 0.733078 -0.234165 -0.638564
vn -0.572004 -0.211950 -0.792394
vn -0.572004 -0.211950 -0.792394
vn -0.572004 -0.211950 -0.792394
vn -0.979770 -0.006777 0.200014
vn -0.979770 -0.006777 0.200014
vn -0.979770 -0.006777 0.200014
vn -0.979925 0.008421 0.199188
vn -0.979925 0.008421 0.199188
vn -0.979925 0.008421 0.199188
vn -1.000000 0.000000 0.000000
vn -0.879037 0.351276 -0.322335
vn -0.910645 0.304442 -0.279360
vn -0.910645 0.304442 -0.279360
vn -0.879037 0.351276 -0.322335
vn -0.247875 0.713812 -0.655004
vn -0.890779 0.112766 -0.440223
vn -0.890779 0.112766 -0.440223
vn -0.890779 0.112766 -0.440223
vn 0.986681 0.000000 0.162666
vn 0.986681 0.000000 0.162666
vn 0.986681 0.000000 0.162666
vn 0.418259 -0.115163 -0.900998
vn 0.418259 -0.115163 -0.900998
vn 0.418259 -0.115163 -0.900998
vn 0.262993 0.041054 -0.963924
vn 0.262993 0.041054 -0.963924
vn 0.262993 0.041054 -0.963924
vn 0.000000 0.000000 -1.000000
vn 0.000000 0.000000 -1.000000
vn 0.000000 0.000000 -1.000000
vn 0.000000 0.000000 -1.000000
vn 0.000000 0.000000 -1.000000
vn 0.000000 0.000000 -1.000000
vn -1.000000 0.000000 0.000000
vn -1.000000 0.000000 0.000000
vn -1.000000 0.000000 0.000000
vn -1.000000 0.000000 0.000000
vn -1.000000 0.000000 0.000000
vn -1.000000 0.000000 0.000000
vn -0.142020 -0.009113 -0.989822
vn -0.142020 -0.009113 -0.989822
vn -0.142020 -0.009113 -0.989822
vn -0.004574 -0.246417 -0.969153
vn -0.004574 -0.246417 -0.969153
vn -0.004574 -0.246417 -0.969153
vn 0.010067 0.507681 0.861486
vn 0.010067 0.507681 0.861486
vn 0.010067 0.507681 0.861486
vn 0.000000 0.000000 1.000000
vn 0.000000 0.000000 1.000000
vn 0.000000 0.000000 1.000000
vn -0.946757 -0.198770 0.253263
vn -0.946757 -0.198770 0.253263
vn -0.946757 -0.198770 0.253263
vn 0.000000 0.000000 1.000000
vn 0.000000 0.000000 1.000000
vn 0.000000 0.000000 1.000000
vn 0.769718 -0.099217 0.630626
vn 0.769718 -0.099217 0.630626
vn 0.769718 -0.099217 0.630626
vn 0.777890 0.164294 0.606543
vn 0.777890 0.164294 0.606543
vn 0.777890 0.164294 0.606543
vn 0.986681 0.000000 0.162666
vn 0.993914 -0.006320 0.109979
vn 0.987197 -0.000385 0.159506
vn 0.994736 -0.004360 0.102380
vn 0.994427 -0.005284 0.105296
vn 0.993914 -0.006320 0.109979
vn 0.994427 -0.005284 0.105296
vn 0.987197 -0.000385 0.159506
vn 0.993914 -0.006320 0.109979
vn 0.992328 0.001945 0.123617
vn 0.993075 0.002833 0.117452
vn 0.999665 0.015027 0.021056
vn 0.999818 0.006574 0.017928
vn 0.999665 0.015027 0.021056
vn 0.999753 0.017104 0.014226
vn 0.993075 0.002833 0.117452
vn 0.999753 0.017104 0.014226
vn 0.999665 0.015027 0.021056
vn 0.000000 0.000000 1.000000
vn 0.000000 0.000000 1.000000
vn 0.000000 0.000000 1.000000
vn 0.000000 0.000000 1.000000
vn 0.000000 0.000000 1.000000
vn 0.000000 0.000000 1.000000
vn 0.000000 0.000000 1.000000
vn 0.000000 0.000000 1.000000
vn 0.000000 0.000000 1.000000
vn 0.000000 0.000000 1.000000
vn 0.000000 0.000000 1.000000
vn 0.000000 0.000000 1.000000
vn 0.000000 0.000000 1.000000
vn 0.000000 0.000000 1.000000
vn 0.000000 0.000000 1.000000
vn 0.000000 0.000000 1.000000
vn 0.000000 0.000000 1.000000
vn 0.000000 0.000000 1.000000
vn 1.000000 0.000000 0.000000
vn 1.000000 0.000000 0.000000
vn 1.000000 0.000000 0.000000
vn 1.000000 0.000000 0.000000
vn 1.000000 0.000000 0.000000
vn 1.000000 0.000000 0.000000
vn 0.838249 0.008290 0.545225
vn 0.838249 0.008290 0.545225
vn 0.838249 0.008290 0.545225
vn 0.000000 0.000000 1.000000
vn 0.000000 0.000000 1.000000
vn 0.000000 0.000000 1.000000
vn 0.000000 -1.000000 0.000000
vn 0.000000 -1.000000 0.000000
vn 0.000000 -1.000000 0.000000
vn 0.000000 -1.000000 0.000000
vn 0.000000 -1.000000 0.000000
vn 0.000000 -1.000000 0.000000
vn 0.000000 -1.000000 0.000000
vn 0.000000 -1.000000 0.000000
vn 0.000000 -1.000000 0.000000
vn 0.000000 0.000000 -1.000000
vn 0.000000 0.000000 -1.000000
vn 0.000000 0.000000 -1.000000
vn 0.000000 0.000000 -1.000000
vn 0.000000 0.000000 -1.000000
vn 0.000000 0.000000 -1.000000
vn 0.000000 -0.000000 -1.000000
vn 0.000000 -0.000000 -1.000000
vn 0.000000 -0.000000 -1.000000
vn 0.000000 0.000000 -1.000000
vn 0.000000 -0.000000 -1.000000
vn 0.000000 -0.000000 -1.000000
vn 0.000000 0.000000 -1.000000
vn 0.000000 0.000000 -1.000000
vn 0.000000 0.000000 -1.000000
vn -0.460623 0.046558 -0.886374
vn -0.460623 0.046558 -0.886374
vn -0.460623 0.046558 -0.886374
vn -0.559925 -0.086294 -0.824037
vn -0.559925 -0.086294 -0.824037
vn -0.559925 -0.086294 -0.824037
vn -1.000000 0.000000 0.000000
vn -1.000000 0.000000 0.000000
vn -1.000000 0.000000 0.000000
vn -1.000000 0.000000 0.000000
vn -1.000000 0.000000 0.000000
vn -1.000000 0.000000 0.000000
vn -1.000000 0.000000 0.000000
vn -1.000000 0.000000 0.000000
vn -1.000000 0.000000 0.000000
vn 0.000000 0.000000 -1.000000
vn 0.000000 0.000000 -1.000000
vn 0.000000 0.000000 -1.000000
vn 0.000000 0.000000 -1.000000
vn 0.000000 0.000000 -1.000000
vn 0.000000 0.000000 -1.000000
vn 0.000000 0.000000 -1.000000
vn 0.000000 0.000000 -1.000000
vn 0.000000 0.000000 -1.000000
vn 0.000000 0.000000 -1.000000
vn 0.000000 0.000000 -1.000000
vn 0.000000 0.000000 -1.000000
vn 0.266370 -0.060825 0.961950
vn 0.266370 -0.060825 0.961950
vn 0.266370 -0.060825 0.961950
vn 0.173282 -0.133154 0.975830
vn 0.173282 -0.133154 0.975830
vn 0.173282 -0.133154 0.975830
vn 0.000000 -1.000000 0.000000
vn 0.000000 -1.000000 0.000000
vn 0.000000 -1.000000 0.000000
vn 0.999845 0.017610 0.000000
vn 0.999845 0.017610 0.000000
vn 0.999845 0.017610 0.000000
s off
f 15/1/1 3/2/2 16/3/3
f 16/3/4 3/2/5 4/7/6
f 3/2/7 5/4/8 4/7/9
f 5/4/10 6/5/11 4/7/12
f 6/5/13 13/6/14 4/7/15
f 5/4/16 23/8/17 12/10/18
f 12/10/19 23/8/20 24/9/21
f 27/11/22 1/12/23 2/13/24
f 22/16/25 26/17/26 21/15/27
f 10/14/28 21/15/29 26/17/30
f 38/18/31 39/19/32 27/11/33
f 28/21/34 27/11/35 19/20/36
f 39/19/37 19/20/38 27/11/39
f 13/6/40 6/5/41 14/22/42
f 25/23/43 4/7/44 13/6/45
f 20/24/46 10/14/47 28/21/48
f 28/21/49 10/14/50 2/13/51
f 18/25/52 8/26/53 17/27/54
f 11/28/55 21/15/56 20/24/57
f 19/20/58 15/1/59 20/24/60
f 28/21/61 19/20/62 20/24/63
f 15/1/64 16/3/65 25/23/66
f 25/23/67 16/3/68 4/7/69
f 21/15/70 10/14/71 20/24/72
f 9/29/73 32/30/74 18/25/75
f 22/16/76 12/10/77 24/9/78
f 9/29/79 22/16/80 24/9/81
f 25/23/82 12/10/83 36/32/84
f 12/10/85 37/31/86 36/32/87
f 35/33/88 34/34/89 20/24/90
f 20/24/91 34/34/92 11/28/93
f 2/13/94 10/14/95 26/17/96
f 2/13/97 26/17/98 17/27/99
f 33/35/100 5/4/101 3/2/102
f 28/21/103 1/12/104 27/11/105
f 1/12/106 28/21/107 2/13/108
f 29/36/109 31/37/110 19/20/111
f 32/30/112 30/38/113 31/37/114
f 29/36/115 32/30/116 31/37/117
f 32/30/118 9/29/119 30/38/120
f 24/9/121 23/8/122 9/29/123
f 23/8/124 30/38/125 9/29/126
f 32/30/127 29/36/128 18/25/129
f 8/26/130 18/25/131 40/39/132
f 29/36/133 40/39/134 18/25/135
f 39/19/136 40/39/137 19/20/138
f 40/39/139 29/36/140 19/20/141
f 15/1/142 19/20/143 30/38/144
f 30/38/145 19/20/146 31/37/147
f 23/8/148 33/35/149 15/1/150
f 15/1/151 33/35/152 3/2/153
f 12/10/154 14/22/155 5/4/156
f 5/4/157 14/22/158 6/5/159
f 5/4/160 33/35/161 23/8/162
f 30/38/163 23/8/164 15/1/165
f 7/40/166 38/18/167 8/26/168
f 2/13/169 17/27/170 27/11/171
f 27/11/172 17/27/173 8/26/174
f 12/10/175 25/23/176 14/22/177
f 25/23/178 13/6/179 14/22/180
f 17/27/181 26/17/182 18/25/183
f 9/29/184 18/25/185 26/17/186
f 22/16/187 9/29/188 26/17/189
f 34/34/190 35/33/191 37/31/192
f 35/33/193 36/32/194 37/31/195
f 25/23/196 36/32/197 15/1/198
f 15/1/199 36/32/200 35/33/201
f 15/1/202 35/33/203 20/24/204
f 12/10/205 22/16/206 37/31/207
f 21/15/208 11/28/209 22/16/210
f 37/31/211 22/16/212 34/34/213
f 11/28/214 34/34/215 22/16/216
f 7/40/217 39/19/218 38/18/219
f 7/40/220 40/39/221 39/19/222
f 8/26/223 38/18/224 27/11/225
f 8/26/226 40/39/227 7/40/228
