# This file uses meters as units for non-parametric coordinates.

v -100.000000 0.000000 100.000000
v 0.000000 0.000000 100.000000
v -100.000000 57.703732 0.000000
v 0.000000 57.703732 0.000000
v -100.000000 0.000000 0.000000
v 0.000000 0.000000 0.000000
vt 0.247760 0.303287
vt 0.247760 0.303287
vt 0.247760 0.303287
vt 0.247760 0.303287
vt 0.247760 0.303287
vt 0.247760 0.303287
vn 0.000000 0.866143 0.499797
vn 0.000000 0.866143 0.499797
vn 0.000000 0.866143 0.499797
vn 0.000000 0.866143 0.499797
vn 0.000000 0.866143 0.499797
vn 0.000000 0.866143 0.499797
vn 0.000000 0.000000 -1.000000
vn 0.000000 0.000000 -1.000000
vn 0.000000 0.000000 -1.000000
vn 0.000000 0.000000 -1.000000
vn 0.000000 0.000000 -1.000000
vn 0.000000 0.000000 -1.000000
vn 0.000000 -1.000000 0.000000
vn 0.000000 -1.000000 0.000000
vn 0.000000 -1.000000 0.000000
vn 0.000000 -1.000000 0.000000
vn 0.000000 -1.000000 0.000000
vn 0.000000 -1.000000 0.000000
vn 1.000000 0.000000 0.000000
vn 1.000000 0.000000 0.000000
vn 1.000000 0.000000 0.000000
vn -1.000000 0.000000 0.000000
vn -1.000000 0.000000 0.000000
vn -1.000000 0.000000 0.000000
s off
f 1/1/1 2/2/2 3/4/3
f 3/4/4 2/2/5 4/3/6
f 3/4/7 4/3/8 5/6/9
f 5/6/10 4/3/11 6/5/12
f 5/6/13 6/5/14 1/1/15
f 1/1/16 6/5/17 2/2/18
f 2/2/19 6/5/20 4/3/21
f 5/6/22 1/1/23 3/4/24
