# This file uses meters as units for non-parametric coordinates.

v -20.000000 300.000000 20.000000
v -2.418026 300.000000 20.000000
v -17.010441 300.000000 0.000000
v 0.000000 300.000000 2.941947
v -20.000000 0.000000 20.000000
v 0.000000 0.000000 20.000000
v -20.000000 0.000000 0.000000
v -2.867174 0.000000 0.000000
v 0.000000 296.914917 0.000000
v 0.000000 162.943222 0.000000
v -20.000000 236.084610 0.000000
v 0.000000 139.611725 0.000000
v -20.000000 198.251236 0.000000
v 0.000000 144.611618 2.250061
v -3.652313 150.320221 0.000000
v -16.767246 211.086197 0.000000
v -20.000000 211.082199 20.000000
v -20.000000 223.189590 3.863757
v -20.000000 296.621918 0.000000
v -20.000000 300.000000 2.997446
v 0.000000 300.000000 17.744545
v 0.000000 296.482483 20.000000
v 0.000000 154.754562 20.000000
v 0.000000 127.428123 20.000000
v -9.086598 133.178986 20.000000
v 0.000000 133.322205 13.911631
v -20.000000 51.198830 20.000000
v -20.000000 82.123199 20.000000
v -20.000000 70.927773 17.273504
v -14.228590 70.429962 20.000000
v 0.000000 0.000000 2.746597
v 0.000000 5.168130 0.000000
vt 0.247760 0.303287
vt 0.247760 0.303287
vt 0.247760 0.303287
vt 0.247760 0.303287
vt 0.247760 0.303287
vt 0.247760 0.303287
vt 0.247760 0.303287
vt 0.247760 0.303287
vt 0.247760 0.303287
vt 0.247760 0.303287
vt 0.247760 0.303287
vt 0.247760 0.303287
vt 0.247760 0.303287
vt 0.247760 0.303287
vt 0.247760 0.303287
vt 0.247760 0.303287
vt 0.247760 0.303287
vt 0.247760 0.303287
vt 0.247760 0.303287
vt 0.247760 0.303287
vt 0.247760 0.303287
vt 0.247760 0.303287
vt 0.247760 0.303287
vt 0.247760 0.303287
vt 0.247760 0.303287
vt 0.247760 0.303287
vt 0.247760 0.303287
vt 0.247760 0.303287
vt 0.247760 0.303287
vt 0.247760 0.303287
vt 0.247760 0.303287
vt 0.247760 0.303287
vn -0.000001 0.000000 1.000000
vn -0.000000 0.000000 1.000000
vn -0.000000 0.000000 1.000000
vn 0.000000 0.000000 1.000000
vn -0.000000 0.000000 1.000000
vn 0.000000 0.000000 1.000000
vn -0.000000 0.000000 1.000000
vn 0.000000 0.000000 1.000000
vn -0.000000 0.000000 1.000000
vn 0.000000 1.000000 0.000000
vn 0.000000 1.000000 0.000000
vn 0.000000 1.000000 0.000000
vn 0.000000 1.000000 0.000000
vn 0.000000 1.000000 0.000000
vn 0.000000 1.000000 0.000001
vn 0.000000 1.000000 0.000000
vn 0.000000 1.000000 0.000000
vn 0.000000 1.000000 0.000001
vn 0.000000 1.000000 0.000000
vn 0.000000 1.000000 0.000000
vn 0.000000 1.000000 0.000001
vn -0.599984 0.530978 -0.598399
vn -0.599984 0.530978 -0.598399
vn -0.599984 0.530978 -0.598399
vn 0.124194 0.684777 -0.718092
vn 0.124194 0.684777 -0.718092
vn 0.124194 0.684777 -0.718092
vn 0.000000 -1.000000 0.000000
vn 0.000000 -1.000000 0.000000
vn 0.000000 -1.000000 0.000000
vn 0.000000 -1.000000 0.000000
vn 0.000000 -1.000000 0.000000
vn 0.000000 -1.000000 0.000000
vn 0.000000 -1.000000 0.000000
vn 0.000000 -1.000000 0.000000
vn 0.000000 -1.000000 0.000000
vn 0.000000 0.000000 -1.000000
vn 0.000000 0.000000 -1.000000
vn 0.000000 0.000000 -1.000000
vn 0.000000 0.000000 -1.000000
vn 0.000000 0.000000 -1.000000
vn 0.000000 0.000000 -1.000000
vn 0.000000 0.000000 -1.000000
vn 0.000000 0.000000 -1.000000
vn 0.000000 0.000000 -1.000000
vn 0.000000 0.000000 -1.000000
vn 0.000000 0.000000 -1.000000
vn 0.000000 0.000000 -1.000000
vn 0.000000 0.000000 -1.000000
vn 0.000000 0.000000 -1.000000
vn 0.000000 0.000000 -1.000000
vn 0.000000 0.000000 -1.000000
vn 0.000000 0.000000 -1.000000
vn 0.000000 0.000000 -1.000000
vn 1.000000 0.000000 0.000000
vn 1.000000 0.000000 0.000000
vn 1.000000 0.000000 0.000000
vn 1.000000 0.000000 0.000000
vn 1.000000 0.000000 0.000000
vn 1.000000 0.000000 0.000000
vn 1.000000 0.000000 0.000000
vn 1.000000 0.000000 0.000000
vn 1.000000 0.000000 0.000000
vn 1.000000 0.000000 0.000000
vn 1.000000 0.000000 0.000000
vn 1.000000 0.000000 0.000000
vn 0.769067 0.262303 -0.582866
vn 0.769067 0.262303 -0.582866
vn 0.769067 0.262303 -0.582866
vn 0.388061 -0.112281 -0.914769
vn 0.388061 -0.112281 -0.914769
vn 0.388061 -0.112281 -0.914769
vn 0.000000 0.000000 -1.000000
vn 0.000000 0.000000 -1.000000
vn 0.000000 0.000000 -1.000000
vn 0.000000 0.000000 -1.000000
vn 0.000000 0.000000 -1.000000
vn 0.000000 0.000000 -1.000000
vn -0.911734 -0.117904 -0.393496
vn -0.911734 -0.117904 -0.393496
vn -0.911734 -0.117904 -0.393496
vn -0.432297 -0.213368 0.876124
vn -0.432297 -0.213368 0.876124
vn -0.432297 -0.213368 0.876124
vn -0.519434 0.130830 -0.844436
vn -0.519434 0.130830 -0.844436
vn -0.519434 0.130830 -0.844436
vn -1.000000 0.000000 0.000000
vn -1.000000 0.000000 0.000000
vn -1.000000 0.000000 0.000000
vn -1.000000 0.000000 0.000000
vn -1.000000 0.000000 0.000000
vn -1.000000 0.000000 0.000000
vn 0.617580 0.424539 0.662088
vn 0.617580 0.424539 0.662088
vn 0.617580 0.424539 0.662088
vn -1.000000 0.000000 0.000000
vn -1.000000 0.000000 0.000000
vn -1.000000 0.000000 0.000000
vn -1.000000 0.000000 0.000000
vn -1.000000 0.000000 0.000000
vn -1.000000 0.000000 0.000000
vn 0.000000 0.000000 -1.000000
vn 0.000000 0.000000 -1.000000
vn 0.000000 0.000000 -1.000000
vn 0.000000 0.000000 -1.000000
vn 0.000000 0.000000 -1.000000
vn 0.000000 0.000000 -1.000000
vn 1.000000 0.000000 0.000000
vn 1.000000 0.000000 0.000000
vn 1.000000 0.000000 0.000000
vn 1.000000 0.000000 0.000000
vn 1.000000 0.000000 0.000000
vn 1.000000 0.000000 0.000000
vn 1.000000 0.000000 0.000000
vn 1.000000 0.000000 0.000000
vn 1.000000 0.000000 0.000000
vn 1.000000 0.000000 0.000000
vn 1.000000 0.000000 0.000000
vn 1.000000 0.000000 0.000000
vn 1.000000 0.000000 0.000000
vn 1.000000 0.000000 0.000000
vn 1.000000 0.000000 0.000000
vn 1.000000 0.000000 0.000000
vn 1.000000 0.000000 0.000000
vn 1.000000 0.000000 0.000000
vn 0.544307 -0.229236 0.806958
vn 0.544307 -0.229236 0.806958
vn 0.544307 -0.229236 0.806958
vn 0.413936 0.654035 0.633163
vn 0.413936 0.654035 0.633163
vn 0.413936 0.654035 0.633163
vn -0.000000 0.000000 1.000000
vn -0.000000 0.000000 1.000000
vn -0.000000 0.000000 1.000000
vn -0.000000 0.000000 1.000000
vn -0.000000 0.000000 1.000000
vn 0.000000 0.000000 1.000000
vn 0.000000 0.000000 1.000000
vn 0.000000 0.000000 1.000000
vn 0.000000 0.000000 1.000000
vn 0.000000 0.000000 1.000000
vn 0.000000 0.000000 1.000000
vn 0.000000 0.000000 1.000000
vn 0.000000 0.000000 1.000000
vn 0.000000 0.000000 1.000000
vn 0.000000 0.000000 1.000000
vn 1.000000 0.000000 0.000000
vn 1.000000 0.000000 0.000000
vn 1.000000 0.000000 0.000000
vn -1.000000 0.000000 0.000000
vn -1.000000 0.000000 0.000000
vn -1.000000 0.000000 0.000000
vn -1.000000 0.000000 0.000000
vn -1.000000 0.000000 0.000000
vn -1.000000 0.000000 0.000000
vn -1.000000 0.000000 0.000000
vn -1.000000 0.000000 0.000000
vn -1.000000 0.000000 0.000000
vn 0.000000 0.000000 1.000000
vn 0.000000 0.000000 1.000000
vn 0.000000 0.000000 1.000000
vn -0.415019 0.124550 0.901247
vn -0.415019 0.124550 0.901247
vn -0.415019 0.124550 0.901247
vn -1.000000 0.000000 0.000000
vn -1.000000 0.000000 0.000000
vn -1.000000 0.000000 0.000000
vn -1.000000 0.000000 0.000000
vn -1.000000 0.000000 0.000000
vn -1.000000 0.000000 0.000000
vn -1.000000 0.000000 0.000000
vn -1.000000 0.000000 0.000000
vn -1.000000 0.000000 0.000000
vn 0.000000 0.000000 1.000000
vn 0.000000 0.000000 1.000000
vn 0.000000 0.000000 1.000000
vn 0.645832 -0.358295 -0.674185
vn 0.645832 -0.358295 -0.674185
vn 0.645832 -0.358295 -0.674185
s off
f 1/5/1 17/1/2 25/4/3
f 30/3/4 25/4/5 28/2/6
f 17/1/7 28/2/8 25/4/9
f 1/5/10 2/6/11 20/10/12
f 20/10/13 2/6/14 3/9/15
f 2/6/16 21/7/17 3/9/18
f 21/7/19 4/8/20 3/9/21
f 19/11/22 20/10/23 3/9/24
f 4/8/25 9/12/26 3/9/27
f 7/13/28 8/14/29 5/17/30
f 8/14/31 31/15/32 5/17/33
f 31/15/34 6/16/35 5/17/36
f 16/18/37 11/19/38 3/9/39
f 3/9/40 11/19/41 19/11/42
f 13/20/43 15/21/44 7/13/45
f 15/21/46 12/22/47 7/13/48
f 8/14/49 7/13/50 32/23/51
f 12/22/52 32/23/53 7/13/54
f 10/24/55 22/25/56 23/26/57
f 31/15/58 32/23/59 6/16/60
f 12/22/61 6/16/62 32/23/63
f 12/22/64 14/27/65 6/16/66
f 12/22/67 15/21/68 14/27/69
f 14/27/70 15/21/71 10/24/72
f 16/18/73 10/24/74 13/20/75
f 13/20/76 10/24/77 15/21/78
f 16/18/79 18/28/80 11/19/81
f 28/2/82 29/29/83 30/3/84
f 13/20/85 18/28/86 16/18/87
f 1/5/88 18/28/89 17/1/90
f 1/5/91 20/10/92 18/28/93
f 2/6/94 22/25/95 21/7/96
f 18/28/97 20/10/98 11/19/99
f 11/19/100 20/10/101 19/11/102
f 3/9/103 9/12/104 16/18/105
f 16/18/106 9/12/107 10/24/108
f 10/24/109 9/12/110 22/25/111
f 9/12/112 4/8/113 22/25/114
f 21/7/115 22/25/116 4/8/117
f 14/27/118 26/30/119 6/16/120
f 10/24/121 23/26/122 14/27/123
f 14/27/124 23/26/125 26/30/126
f 23/26/127 25/4/128 26/30/129
f 26/30/130 25/4/131 24/31/132
f 25/4/133 30/3/134 24/31/135
f 24/31/136 30/3/137 6/16/138
f 25/4/139 23/26/140 1/5/141
f 23/26/142 22/25/143 1/5/144
f 2/6/145 1/5/146 22/25/147
f 6/16/148 26/30/149 24/31/150
f 27/32/151 7/13/152 5/17/153
f 29/29/154 13/20/155 7/13/156
f 27/32/157 29/29/158 7/13/159
f 30/3/160 27/32/161 5/17/162
f 30/3/163 29/29/164 27/32/165
f 29/29/166 28/2/167 13/20/168
f 18/28/169 13/20/170 17/1/171
f 17/1/172 13/20/173 28/2/174
f 6/16/175 30/3/176 5/17/177
f 32/23/178 31/15/179 8/14/180
