# This file uses meters as units for non-parametric coordinates.

v 10.848141 3.958435 -8.594866
v 0.000732 2.787781 -10.205050
v 10.847654 16.406555 6.037955
v 10.914554 10.592957 1.891078
v 11.365108 11.784363 -2.838414
v 11.427250 9.532471 -4.656820
v 10.870848 2.977753 -2.480657
v -10.846682 3.958435 -8.594866
v -9.466429 15.964051 9.262794
v -11.363649 11.784363 -2.838414
v -11.425781 9.532471 -4.656820
v -10.869388 2.977753 -2.480657
v -0.084351 13.286743 -15.050545
v 0.000732 4.699707 -12.614766
v -5.422730 19.355621 6.249628
v -5.507813 22.264709 5.201793
v -6.352296 23.428345 -5.134377
v -14.351444 21.257019 -4.791846
v -8.104982 24.123232 -5.376043
v -13.322505 10.973358 -11.861773
v -11.043215 5.235596 -9.722795
v -12.662601 20.612488 5.714746
v -7.260499 22.959595 5.908823
v -13.817386 13.191834 -2.662251
v -13.425903 12.913208 1.367229
v -13.841429 9.873352 -5.343251
v -13.492069 4.588165 -4.388494
v 13.194457 23.164063 -4.791832
v 13.239011 11.936493 -11.861773
v 2.944579 26.471407 -9.118624
v 11.044674 5.235748 -9.722795
v 11.528321 22.433319 6.524559
v 2.684448 25.987244 7.246728
v 13.427372 12.913208 1.367229
v 13.818845 13.191834 -2.662251
v 13.842897 9.873352 -5.343251
v 13.493529 4.588013 -4.388494
v -2.642944 26.630251 5.813746
v -3.487427 25.505981 -8.537588
v 0.000732 16.405487 12.154951
v 8.865843 14.669494 10.991945
v 10.020266 18.489990 14.039135
v 2.583008 21.555328 14.151964
v 15.756588 17.936859 6.237464
v 16.038084 20.566711 6.990609
v 16.078005 19.177246 10.093994
v 15.980586 17.078400 9.286018
v -11.204834 18.160095 8.997341
v -10.111447 12.523040 7.410011
v -11.585331 13.611297 6.767344
v 10.142460 5.840149 7.971783
v 10.725584 6.546783 2.421595
v -10.140991 5.840149 7.971783
v -10.724125 6.546783 2.421595
v -13.195315 9.633789 2.695566
v -11.815920 10.157013 6.742688
v 12.789555 9.339905 2.686961
v 12.052365 9.971771 6.429286
v -10.032225 9.359436 7.737465
v 10.324831 9.939728 7.110009
v 12.084226 13.439941 6.448588
v 10.678463 13.451843 6.578698
v -13.301153 11.425171 2.085810
v -13.248292 10.709534 2.390696
v -10.913086 10.592957 1.891078
v -9.073343 7.243195 2.198925
v -9.233217 10.666504 1.750066
v -8.487940 9.623108 6.696572
v -8.579969 6.645508 6.894823
v -8.554974 12.299652 6.419520
v -9.614429 11.674805 -2.251458
v -9.233217 10.666504 1.750066
v -8.009233 15.210876 7.987122
v -8.554974 12.299652 6.419520
v -9.177036 5.053406 -7.121869
v -9.196243 4.223785 -1.948769
v -9.667006 9.769592 -3.789973
v 9.197712 4.223785 -1.948769
v 9.178505 5.053406 -7.121869
v 9.668465 9.769592 -3.789973
v 0.000732 4.063110 -8.484211
v 9.234686 10.666504 1.750066
v 9.074802 7.243195 2.198925
v 8.581438 6.645508 6.894823
v 8.735733 10.113983 6.165695
v 9.034939 13.085632 5.716162
v 9.615898 11.674805 -2.251458
v 9.178085 15.585327 5.258651
v 7.501316 14.115906 9.450111
v 0.000732 15.584564 10.434113
v -4.587946 18.080597 5.437741
vt 0.264439 0.280811
vt 0.264439 0.280811
vt 0.264439 0.280811
vt 0.264439 0.280811
vt 0.264439 0.280811
vt 0.264439 0.280811
vt 0.264439 0.280811
vt 0.264439 0.280811
vt 0.264439 0.280811
vt 0.264439 0.280811
vt 0.264439 0.280811
vt 0.264439 0.280811
vt 0.264439 0.280811
vt 0.264439 0.280811
vt 0.264439 0.280811
vt 0.264439 0.280811
vt 0.264439 0.280811
vt 0.264439 0.280811
vt 0.264439 0.280811
vt 0.264439 0.280811
vt 0.264439 0.280811
vt 0.264439 0.280811
vt 0.264439 0.280811
vt 0.264439 0.280811
vt 0.264439 0.280811
vt 0.264439 0.280811
vt 0.264439 0.280811
vt 0.264439 0.280811
vt 0.264439 0.280811
vt 0.264439 0.280811
vt 0.264439 0.280811
vt 0.264439 0.280811
vt 0.264439 0.280811
vt 0.264439 0.280811
vt 0.264439 0.280811
vt 0.264439 0.280811
vt 0.264439 0.280811
vt 0.264439 0.280811
vt 0.264439 0.280811
vt 0.264439 0.280811
vt 0.264439 0.280811
vt 0.264439 0.280811
vt 0.264439 0.280811
vt 0.264439 0.280811
vt 0.264439 0.280811
vt 0.264439 0.280811
vt 0.264439 0.280811
vt 0.264439 0.280811
vt 0.264439 0.280811
vt 0.264439 0.280811
vt 0.264439 0.280811
vt 0.264439 0.280811
vt 0.264439 0.280811
vt 0.264439 0.280811
vt 0.264439 0.280811
vt 0.264439 0.280811
vt 0.264439 0.280811
vt 0.264439 0.280811
vt 0.264439 0.280811
vt 0.264439 0.280811
vt 0.264439 0.280811
vt 0.264439 0.280811
vt 0.264439 0.280811
vt 0.264439 0.280811
vt 0.264439 0.280811
vt 0.264439 0.280811
vt 0.264439 0.280811
vt 0.264439 0.280811
vt 0.264439 0.280811
vt 0.264439 0.280811
vt 0.264439 0.280811
vt 0.264439 0.280811
vt 0.264439 0.280811
vt 0.264439 0.280811
vt 0.264439 0.280811
vt 0.264439 0.280811
vt 0.264439 0.280811
vt 0.264439 0.280811
vt 0.264439 0.280811
vt 0.264439 0.280811
vt 0.264439 0.280811
vt 0.264439 0.280811
vt 0.264439 0.280811
vt 0.264439 0.280811
vt 0.264439 0.280811
vt 0.264439 0.280811
vt 0.264439 0.280811
vt 0.264439 0.280811
vt 0.264439 0.280811
vt 0.264439 0.280811
vt 0.264439 0.280811
vt 0.264439 0.280811
vt 0.264439 0.280811
vt 0.264439 0.280811
vt 0.264439 0.280811
vt 0.264439 0.280811
vt 0.264439 0.280811
vt 0.264439 0.280811
vt 0.264439 0.280811
vt 0.264439 0.280811
vt 0.264439 0.280811
vt 0.264439 0.280811
vt 0.264439 0.280811
vt 0.264439 0.280811
vt 0.264439 0.280811
vt 0.264439 0.280811
vt 0.264439 0.280811
vt 0.264439 0.280811
vt 0.264439 0.280811
vt 0.264439 0.280811
vt 0.264439 0.280811
vt 0.264439 0.280811
vt 0.264439 0.280811
vt 0.264439 0.280811
vt 0.264439 0.280811
vt 0.264439 0.280811
vt 0.264439 0.280811
vt 0.264439 0.280811
vt 0.264439 0.280811
vt 0.264439 0.280811
vt 0.264439 0.280811
vt 0.264439 0.280811
vt 0.264439 0.280811
vt 0.264439 0.280811
vt 0.264439 0.280811
vt 0.264439 0.280811
vt 0.264439 0.280811
vt 0.264439 0.280811
vt 0.264439 0.280811
vt 0.264439 0.280811
vt 0.264439 0.280811
vt 0.264439 0.280811
vt 0.264439 0.280811
vt 0.264439 0.280811
vt 0.264439 0.280811
vt 0.264439 0.280811
vt 0.264439 0.280811
vt 0.264439 0.280811
vt 0.264439 0.280811
vt 0.264439 0.280811
vt 0.264439 0.280811
vt 0.264439 0.280811
vt 0.264439 0.280811
vt 0.264439 0.280811
vt 0.264439 0.280811
vt 0.264439 0.280811
vt 0.264439 0.280811
vt 0.264439 0.280811
vt 0.264439 0.280811
vt 0.264439 0.280811
vt 0.264439 0.280811
vt 0.264439 0.280811
vt 0.264439 0.280811
vt 0.264439 0.280811
vt 0.264439 0.280811
vt 0.264439 0.280811
vt 0.264439 0.280811
vt 0.264439 0.280811
vt 0.264439 0.280811
vt 0.264439 0.280811
vt 0.264439 0.280811
vt 0.264439 0.280811
vt 0.264439 0.280811
vt 0.264439 0.280811
vt 0.264439 0.280811
vt 0.264439 0.280811
vt 0.264439 0.280811
vt 0.264439 0.280811
vt 0.264439 0.280811
vt 0.264439 0.280811
vt 0.264439 0.280811
vt 0.264439 0.280811
vt 0.264439 0.280811
vt 0.264439 0.280811
vt 0.264439 0.280811
vt 0.264439 0.280811
vn 0.349471 0.406805 -0.844026
vn 0.349471 0.406805 -0.844026
vn 0.349471 0.406805 -0.844026
vn 0.349471 0.406805 -0.844026
vn 0.220712 -0.307432 -0.925620
vn 0.220712 -0.307432 -0.925620
vn 0.220712 -0.307432 -0.925620
vn 0.220712 -0.307432 -0.925620
vn 0.326757 0.942931 0.064119
vn 0.326757 0.942931 0.064119
vn 0.326757 0.942931 0.064119
vn 0.326757 0.942931 0.064119
vn 0.984618 0.105880 0.138985
vn 0.984618 0.105880 0.138985
vn 0.984618 0.105880 0.138985
vn 0.984618 0.105880 0.138985
vn 0.996229 0.051503 -0.069819
vn 0.996229 0.051503 -0.069819
vn 0.996229 0.051503 -0.069819
vn 0.996229 0.051503 -0.069819
vn 0.915340 -0.271103 -0.297750
vn 0.915341 -0.271103 -0.297750
vn 0.915341 -0.271103 -0.297750
vn 0.915340 -0.271103 -0.297750
vn -0.292748 0.513874 -0.806369
vn -0.292748 0.513874 -0.806369
vn -0.292748 0.513874 -0.806369
vn -0.292748 0.513874 -0.806369
vn -0.206751 -0.328448 -0.921616
vn -0.206751 -0.328448 -0.921616
vn -0.206751 -0.328448 -0.921616
vn -0.206751 -0.328448 -0.921616
vn -0.402052 0.907449 0.122032
vn -0.402052 0.907448 0.122032
vn -0.402052 0.907448 0.122032
vn -0.402052 0.907449 0.122032
vn -0.989948 -0.005488 0.141328
vn -0.989948 -0.005488 0.141328
vn -0.989948 -0.005488 0.141328
vn -0.989948 -0.005488 0.141328
vn -0.998148 -0.042617 -0.043416
vn -0.998148 -0.042617 -0.043416
vn -0.998148 -0.042617 -0.043416
vn -0.998148 -0.042617 -0.043416
vn -0.915754 -0.294935 -0.272777
vn -0.915754 -0.294935 -0.272777
vn -0.915754 -0.294935 -0.272777
vn -0.915754 -0.294935 -0.272777
vn 0.191197 -0.734331 -0.651308
vn 0.191197 -0.734331 -0.651308
vn 0.191197 -0.734331 -0.651308
vn 0.191197 -0.734331 -0.651308
vn -0.068583 -0.467124 0.881528
vn -0.068583 -0.467124 0.881528
vn -0.068583 -0.467124 0.881528
vn -0.068583 -0.467124 0.881528
vn 0.870463 -0.477423 0.119842
vn 0.870463 -0.477423 0.119842
vn 0.870463 -0.477423 0.119842
vn 0.870463 -0.477423 0.119842
vn 0.595073 -0.799969 -0.077064
vn 0.595073 -0.799969 -0.077064
vn 0.595073 -0.799969 -0.077064
vn 0.595073 -0.799969 -0.077064
vn 0.292921 -0.598059 0.746004
vn 0.292921 -0.598059 0.746004
vn 0.292921 -0.598059 0.746004
vn 0.292921 -0.598059 0.746004
vn 0.382602 0.208729 0.900027
vn 0.382602 0.208729 0.900027
vn 0.382602 0.208729 0.900027
vn 0.382602 0.208729 0.900027
vn 0.561111 -0.793961 -0.234052
vn 0.561111 -0.793961 -0.234052
vn 0.561111 -0.793961 -0.234052
vn 0.561111 -0.793961 -0.234052
vn -0.191196 -0.734332 -0.651307
vn -0.191196 -0.734332 -0.651307
vn -0.191196 -0.734332 -0.651307
vn -0.191196 -0.734332 -0.651307
vn -0.595073 -0.799969 -0.077064
vn -0.595073 -0.799969 -0.077064
vn -0.595073 -0.799969 -0.077064
vn -0.595073 -0.799969 -0.077064
vn -0.548707 -0.323502 0.770887
vn -0.548707 -0.323502 0.770887
vn -0.548707 -0.323502 0.770887
vn -0.548707 -0.323502 0.770887
vn -0.292921 -0.598060 0.746004
vn -0.292921 -0.598060 0.746004
vn -0.292921 -0.598060 0.746004
vn -0.292921 -0.598060 0.746004
vn -0.561113 -0.793960 -0.234051
vn -0.561113 -0.793960 -0.234051
vn -0.561113 -0.793960 -0.234051
vn -0.561113 -0.793960 -0.234051
vn -0.382601 0.208729 0.900027
vn -0.382601 0.208729 0.900027
vn -0.382601 0.208729 0.900027
vn -0.382601 0.208729 0.900027
vn -0.025960 0.999456 -0.020337
vn -0.025960 0.999456 -0.020337
vn -0.025960 0.999456 -0.020337
vn -0.025960 0.999456 -0.020337
vn -0.145421 0.433527 -0.889330
vn -0.145421 0.433527 -0.889330
vn -0.145421 0.433527 -0.889330
vn 0.373877 0.756181 -0.537035
vn 0.373877 0.756181 -0.537035
vn 0.373877 0.756181 -0.537035
vn 0.375710 0.924081 0.070115
vn 0.375710 0.924081 0.070115
vn 0.375710 0.924081 0.070115
vn 0.375710 0.924081 0.070115
vn 0.459400 0.312862 0.831306
vn 0.459400 0.312862 0.831306
vn 0.459400 0.312862 0.831306
vn -0.568671 0.263980 0.779056
vn -0.568671 0.263980 0.779056
vn -0.568671 0.263980 0.779056
vn -0.735126 0.675982 0.051369
vn -0.735126 0.675982 0.051369
vn -0.735126 0.675982 0.051369
vn -0.735126 0.675982 0.051369
vn -0.790742 0.101538 -0.603670
vn -0.790742 0.101538 -0.603670
vn -0.790742 0.101538 -0.603670
vn 0.996215 -0.058644 -0.064168
vn 0.996215 -0.058644 -0.064168
vn 0.996215 -0.058644 -0.064168
vn 0.996215 -0.058644 -0.064168
vn 0.348132 0.793238 0.499577
vn 0.348132 0.793238 0.499577
vn 0.348132 0.793238 0.499577
vn 0.348132 0.793238 0.499577
vn -0.715086 0.225468 0.661677
vn -0.715086 0.225469 0.661677
vn -0.715086 0.225469 0.661677
vn -0.715086 0.225469 0.661677
vn -0.043545 0.841063 0.539182
vn -0.043545 0.841063 0.539182
vn -0.043545 0.841063 0.539182
vn 0.074589 0.133249 -0.988272
vn 0.074589 0.133249 -0.988272
vn 0.074589 0.133249 -0.988272
vn 0.074589 0.133249 -0.988272
vn 0.247157 0.851770 0.461953
vn 0.247157 0.851770 0.461953
vn 0.247157 0.851770 0.461953
vn 0.247157 0.851770 0.461953
vn 0.434764 -0.554219 0.709804
vn 0.434764 -0.554219 0.709804
vn 0.434764 -0.554219 0.709804
vn 0.434764 -0.554219 0.709804
vn 0.274661 -0.930705 -0.241555
vn 0.274661 -0.930705 -0.241555
vn 0.274661 -0.930705 -0.241555
vn 0.274661 -0.930705 -0.241555
vn 0.354753 0.310883 0.881761
vn 0.354753 0.310883 0.881761
vn 0.354753 0.310883 0.881761
vn 0.354753 0.310883 0.881761
vn -0.321052 0.684824 0.654173
vn -0.321052 0.684824 0.654172
vn -0.321052 0.684824 0.654172
vn -0.936852 -0.093488 0.337000
vn -0.936852 -0.093488 0.337000
vn -0.936852 -0.093488 0.337000
vn -0.936852 -0.093488 0.336999
vn -0.869103 -0.464924 0.168835
vn -0.869103 -0.464924 0.168835
vn -0.869103 -0.464924 0.168835
vn -0.869103 -0.464924 0.168835
vn -0.277340 -0.137628 -0.950863
vn -0.277340 -0.137628 -0.950863
vn -0.277340 -0.137628 -0.950863
vn -0.459885 0.046779 0.886745
vn -0.396134 0.046175 0.917031
vn -0.396134 0.046175 0.917031
vn -0.459885 0.046779 0.886745
vn -0.946602 0.068116 0.315128
vn -0.946602 0.068116 0.315128
vn -0.946265 0.065060 0.316779
vn -0.947023 0.047174 0.317684
vn -0.947023 0.047174 0.317684
vn -0.947023 0.047174 0.317684
vn 0.967377 -0.052106 0.247924
vn 0.967377 -0.052106 0.247924
vn 0.977103 -0.041396 0.208700
vn 0.977103 -0.041396 0.208700
vn 0.357991 0.176798 0.916834
vn 0.357991 0.176798 0.916834
vn 0.357991 0.176798 0.916834
vn -0.460634 0.073132 0.884572
vn -0.460634 0.073132 0.884572
vn -0.460634 0.073132 0.884572
vn -0.223932 -0.438953 -0.870158
vn -0.223932 -0.438953 -0.870158
vn -0.223932 -0.438953 -0.870158
vn 0.188101 0.075933 0.979210
vn 0.188101 0.075933 0.979210
vn 0.345850 0.031185 0.937771
vn 0.345850 0.031185 0.937772
vn 0.966648 0.057644 0.249537
vn 0.966648 0.057644 0.249537
vn 0.966648 0.057644 0.249537
vn -0.250480 0.029535 0.967671
vn -0.250480 0.029535 0.967671
vn -0.250480 0.029535 0.967671
vn -0.250480 0.029535 0.967671
vn 0.307547 -0.137812 -0.941500
vn 0.307547 -0.137812 -0.941500
vn 0.307547 -0.137812 -0.941500
vn -0.214246 -0.276090 -0.936949
vn -0.214246 -0.276090 -0.936949
vn -0.214246 -0.276090 -0.936949
vn 0.216509 -0.432108 -0.875446
vn 0.216376 -0.271827 -0.937705
vn 0.216509 -0.432108 -0.875446
vn 0.991795 -0.002409 -0.127815
vn 0.991795 -0.002409 -0.127815
vn 0.991795 -0.002409 -0.127815
vn 0.991795 -0.002409 -0.127815
vn 0.989089 0.009555 -0.147008
vn 0.989089 0.009555 -0.147008
vn 0.989089 0.009555 -0.147008
vn 0.987377 -0.111378 -0.112616
vn 0.987377 -0.111378 -0.112616
vn 0.987377 -0.111378 -0.112616
vn 0.987377 -0.111378 -0.112616
vn 0.995723 0.090573 0.018222
vn 0.995723 0.090573 0.018222
vn 0.995723 0.090573 0.018222
vn -0.995723 0.090571 0.018222
vn -0.995723 0.090571 0.018222
vn -0.995723 0.090571 0.018222
vn -0.059751 -0.571830 0.818193
vn -0.059751 -0.571830 0.818193
vn -0.059751 -0.571830 0.818193
vn 0.059751 -0.571830 0.818193
vn 0.059751 -0.571830 0.818193
vn 0.059751 -0.571830 0.818193
vn 0.000000 -0.635286 0.772277
vn 0.000000 -0.635286 0.772277
vn 0.000000 -0.635286 0.772277
vn -0.994115 0.027405 -0.104807
vn -0.994115 0.027405 -0.104807
vn -0.994115 0.027405 -0.104807
vn -0.994115 0.027405 -0.104807
vn -0.993516 0.067707 -0.091335
vn -0.993516 0.067707 -0.091335
vn -0.993516 0.067707 -0.091335
vn -0.993516 0.067707 -0.091335
vn -0.995885 0.042366 -0.080117
vn -0.995885 0.042366 -0.080117
vn -0.995885 0.042366 -0.080117
vn -0.226443 -0.887347 -0.401669
vn -0.226443 -0.887348 -0.401669
vn -0.226443 -0.887348 -0.401669
vn 0.694014 -0.707113 0.135407
vn 0.694014 -0.707114 0.135407
vn 0.694014 -0.707114 0.135407
vn -0.173568 -0.935448 -0.307916
vn -0.173568 -0.935448 -0.307916
vn -0.173568 -0.935448 -0.307916
vn -0.058725 -0.817657 0.572702
vn -0.058725 -0.817657 0.572702
vn -0.058725 -0.817657 0.572702
vn -0.058725 -0.817657 0.572702
vn 0.000000 -0.628260 0.778003
vn 0.000000 -0.628260 0.778003
vn 0.000000 -0.628260 0.778003
vn 0.000000 -0.628260 0.778003
vn -0.077110 -0.133157 -0.988091
vn -0.077110 -0.133157 -0.988091
vn -0.077110 -0.133157 -0.988091
vn -0.077110 -0.133157 -0.988091
vn 0.554013 0.038248 0.831629
vn 0.554013 0.038248 0.831629
vn 0.554013 0.038248 0.831629
vn 0.554013 0.038248 0.831629
vn 0.366175 -0.917501 -0.155270
vn 0.366175 -0.917501 -0.155270
vn 0.366175 -0.917501 -0.155270
vn 0.366175 -0.917501 -0.155270
vn 0.544352 0.099844 0.832894
vn 0.544352 0.099844 0.832894
vn 0.544352 0.099844 0.832894
vn 0.544352 0.099844 0.832894
vn -0.068312 0.944782 -0.320501
vn -0.068312 0.944782 -0.320501
vn -0.068312 0.944782 -0.320501
vn -0.068312 0.944782 -0.320501
vn 0.021843 -0.968972 -0.246206
vn 0.021843 -0.968971 -0.246206
vn 0.021843 -0.968972 -0.246206
vn 0.021843 -0.968972 -0.246206
vn 0.416731 -0.490291 0.765474
vn 0.416731 -0.490291 0.765474
vn 0.416731 -0.490291 0.765474
vn 0.416731 -0.490291 0.765474
vn 0.068312 -0.944782 0.320501
vn 0.068312 -0.944782 0.320501
vn 0.068312 -0.944782 0.320501
vn 0.068312 -0.944782 0.320501
vn 0.617507 -0.776995 -0.122325
vn 0.617507 -0.776995 -0.122325
vn 0.617507 -0.776995 -0.122325
vn 0.617507 -0.776995 -0.122325
vn -0.454987 0.245560 0.855971
vn -0.454987 0.245560 0.855971
vn -0.454987 0.245560 0.855971
vn -0.454987 0.245560 0.855971
vn -0.617509 -0.776994 -0.122324
vn -0.617509 -0.776994 -0.122324
vn -0.617509 -0.776994 -0.122324
vn -0.617509 -0.776994 -0.122324
vn 0.454987 0.245560 0.855971
vn 0.454987 0.245560 0.855971
vn 0.454987 0.245560 0.855971
vn 0.454987 0.245560 0.855971
vn -0.001679 -0.803435 0.595390
vn -0.001679 -0.803435 0.595390
vn -0.001679 -0.803435 0.595390
vn -0.001679 -0.803435 0.595390
vn 0.001679 -0.803435 0.595390
vn 0.001679 -0.803435 0.595390
vn 0.001679 -0.803435 0.595390
vn 0.001679 -0.803435 0.595390
vn 0.077110 -0.133157 -0.988091
vn 0.077110 -0.133157 -0.988091
vn 0.077110 -0.133157 -0.988091
vn 0.077110 -0.133157 -0.988091
vn -0.366175 -0.917501 -0.155269
vn -0.366175 -0.917501 -0.155269
vn -0.366175 -0.917501 -0.155269
vn -0.366175 -0.917501 -0.155269
vn -0.484121 0.200575 0.851702
vn -0.484121 0.200575 0.851702
vn -0.484121 0.200575 0.851702
vn -0.484121 0.200575 0.851702
vn -0.488124 0.178391 0.854348
vn -0.488124 0.178391 0.854348
vn -0.488124 0.178391 0.854348
vn -0.488124 0.178391 0.854348
vn -0.021843 -0.968971 -0.246206
vn -0.021843 -0.968972 -0.246206
vn -0.021843 -0.968971 -0.246206
vn -0.021843 -0.968971 -0.246206
vn -0.488617 0.184069 0.852861
vn -0.488617 0.184069 0.852861
vn -0.488617 0.184069 0.852861
vn -0.488617 0.184069 0.852861
vn 0.480389 -0.869775 -0.112774
vn 0.480389 -0.869775 -0.112774
vn 0.480389 -0.869775 -0.112774
vn 0.480389 -0.869775 -0.112774
vn -0.119396 -0.896118 0.427455
vn -0.119396 -0.896118 0.427455
vn -0.119396 -0.896118 0.427455
vn -0.119396 -0.896118 0.427455
vn 0.634992 -0.073905 0.768976
vn 0.634992 -0.073905 0.768976
vn 0.634992 -0.073905 0.768976
vn 0.634992 -0.073905 0.768976
vn -0.692447 -0.651167 0.310641
vn -0.692447 -0.651167 0.310641
vn -0.692447 -0.651167 0.310641
vn -0.692447 -0.651167 0.310641
vn 0.288615 -0.596685 0.748778
vn 0.288615 -0.596685 0.748778
vn 0.288615 -0.596685 0.748778
vn 0.288615 -0.596685 0.748778
vn -0.288615 -0.596685 0.748778
vn -0.288615 -0.596685 0.748778
vn -0.288615 -0.596685 0.748778
vn -0.288615 -0.596685 0.748778
s off
f 28/1/1 29/2/2 13/3/3 30/4/4
f 29/2/5 31/5/6 14/6/7 13/3/8
f 32/7/9 28/1/10 30/4/11 33/8/12
f 32/7/13 34/9/14 35/10/15 28/1/16
f 28/1/17 35/10/18 36/11/19 29/2/20
f 29/2/21 36/11/22 37/12/23 31/5/24
f 18/13/25 19/14/26 13/3/27 20/15/28
f 20/15/29 13/3/30 14/6/31 21/16/32
f 22/17/33 23/18/34 19/14/35 18/13/36
f 22/17/37 18/13/38 24/19/39 25/20/40
f 18/13/41 20/15/42 26/21/43 24/19/44
f 20/15/45 21/16/46 27/22/47 26/21/48
f 1/23/49 2/24/50 14/6/51 31/5/52
f 40/25/53 41/26/54 42/27/55 43/28/56
f 51/29/57 52/30/58 57/31/59 58/32/60
f 4/33/61 5/34/62 35/10/63 34/9/64
f 5/34/65 6/35/66 36/11/67 35/10/68
f 6/35/69 7/36/70 37/12/71 36/11/72
f 7/36/73 1/23/74 31/5/75 37/12/76
f 2/24/77 8/37/78 21/16/79 14/6/80
f 10/38/81 65/39/82 25/20/83 24/19/84
f 49/40/85 9/41/86 48/42/87 50/43/88
f 11/44/89 10/38/90 24/19/91 26/21/92
f 8/37/93 12/45/94 27/22/95 21/16/96
f 12/45/97 11/44/98 26/21/99 27/22/100
f 39/46/101 38/47/102 33/8/103 30/4/104
f 13/3/105 39/46/106 30/4/107
f 17/48/108 13/3/109 19/14/110
f 16/49/111 17/48/112 19/14/113 23/18/114
f 15/50/115 16/49/116 23/18/117
f 16/49/118 15/50/119 38/47/120
f 17/48/121 16/49/122 38/47/123 39/46/124
f 13/3/125 17/48/126 39/46/127
f 44/51/128 45/52/129 46/53/130 47/54/131
f 32/7/132 33/8/133 43/28/134 42/27/135
f 38/47/136 15/50/137 40/25/138 43/28/139
f 33/8/140 38/47/141 43/28/142
f 3/55/143 32/7/144 45/52/145 44/51/146
f 32/7/147 42/27/148 46/53/149 45/52/150
f 42/27/151 41/26/152 47/54/153 46/53/154
f 41/26/155 3/55/156 44/51/157 47/54/158
f 15/50/159 23/18/160 48/42/161 9/41/162
f 23/18/163 22/17/164 48/42/165
f 22/17/166 25/20/167 50/43/168 48/42/169
f 55/56/170 54/57/171 53/58/172 56/59/173
f 55/56/174 65/39/175 54/57/176
f 59/77/177 49/60/178 50/61/179 56/76/180
f 50/61/181 25/62/182 63/73/183 64/74/184 55/75/185 56/76/186
f 34/65/187 61/66/188 58/79/189 57/80/190
f 58/32/191 60/67/192 51/29/193
f 59/68/194 56/59/195 53/58/196
f 25/62/197 65/69/198 63/63/199
f 61/66/200 62/70/201 60/78/202 58/79/203
f 34/9/204 32/7/205 61/71/206
f 32/7/207 3/55/208 62/72/209 61/71/210
f 4/33/211 57/31/212 52/30/213
f 64/74/214 65/69/215 55/75/216
f 34/65/217 57/80/218 4/64/219
f 66/135/220 67/136/221 68/137/222 69/138/223
f 70/139/224 68/140/225 67/141/226
f 72/142/227 71/143/228 73/144/229 74/145/230
f 76/146/231 75/147/232 77/148/233
f 79/149/234 78/150/235 80/151/236
f 81/152/237 79/153/238 80/100/239
f 75/154/240 81/155/241 77/103/242
f 77/104/243 81/105/244 80/106/245
f 82/156/246 83/157/247 84/158/248 85/159/249
f 85/160/250 86/161/251 87/162/252 82/163/253
f 86/164/254 88/165/255 87/117/256
f 88/166/257 89/167/258 90/168/259
f 73/170/260 71/122/261 91/169/262
f 90/171/263 91/172/264 88/126/265
f 91/127/266 71/128/267 87/129/268 88/130/269
f 77/176/270 80/173/271 87/174/272 71/175/273
f 54/81/274 65/82/275 67/136/276 66/135/277
f 59/83/278 53/84/279 69/138/280 68/137/281
f 53/84/282 54/81/283 66/135/284 69/138/285
f 49/85/286 59/86/287 68/140/288 70/139/289
f 65/87/290 49/85/291 70/139/292 67/141/293
f 65/88/294 10/89/295 71/143/296 72/142/297
f 9/90/298 49/91/299 74/145/300 73/144/301
f 49/91/302 65/88/303 72/142/304 74/145/305
f 12/92/306 8/93/307 75/147/308 76/146/309
f 11/94/310 12/92/311 76/146/312 77/148/313
f 1/95/314 7/96/315 78/150/316 79/149/317
f 7/96/318 6/97/319 80/151/320 78/150/321
f 2/98/322 1/99/323 79/153/324 81/152/325
f 8/101/326 2/102/327 81/155/328 75/154/329
f 4/107/330 52/108/331 83/157/332 82/156/333
f 52/108/334 51/109/335 84/158/336 83/157/337
f 51/109/338 60/110/339 85/159/340 84/158/341
f 60/111/342 62/112/343 86/161/344 85/160/345
f 5/113/346 4/114/347 82/163/348 87/162/349
f 62/115/350 3/116/351 88/165/352 86/164/353
f 3/118/354 41/119/355 89/167/356 88/166/357
f 41/119/358 40/120/359 90/168/360 89/167/361
f 15/123/362 9/121/363 73/170/364 91/169/365
f 40/124/366 15/125/367 91/172/368 90/171/369
f 6/132/370 5/133/371 87/174/372 80/173/373
f 10/134/374 11/131/375 77/176/376 71/175/377
