# This file uses meters as units for non-parametric coordinates.

v 0.000000 -4.221829 500.000000
v 62.500000 1.289619 500.000000
v 125.000000 -1.161877 500.000000
v 187.500000 -0.012347 500.000000
v 250.000000 -1.290776 500.000000
v 312.500000 3.227997 500.000000
v 375.000000 -3.840560 500.000000
v 437.500000 0.298219 500.000000
v 500.000000 -4.221829 500.000000
v 0.000000 9.034499 437.500000
v 62.500000 7.521563 437.500000
v 125.000000 -5.301286 437.500000
v 187.500000 -3.953160 437.500000
v 250.000000 3.061196 437.500000
v 312.500000 0.838354 437.500000
v 375.000000 -3.220320 437.500000
v 437.500000 5.934000 437.500000
v 500.000000 9.034499 437.500000
v 0.000000 -6.346995 375.000000
v 62.500000 -7.682716 375.000000
v 125.000000 -5.703440 375.000000
v 187.500000 -1.181308 375.000000
v 250.000000 6.040231 375.000000
v 312.500000 -3.880381 375.000000
v 375.000000 -6.993474 375.000000
v 437.500000 -4.366678 375.000000
v 500.000000 -6.346995 375.000000
v 0.000000 -1.853411 312.500000
v 62.500000 -5.445202 312.500000
v 125.000000 8.010098 312.500000
v 187.500000 -2.674517 312.500000
v 250.000000 -3.368116 312.500000
v 312.500000 4.897392 312.500000
v 375.000000 -2.066026 312.500000
v 437.500000 9.773030 312.500000
v 500.000000 -1.853411 312.500000
v 0.000000 -4.110873 250.000000
v 62.500000 -7.130605 250.000000
v 125.000000 -2.227551 250.000000
v 187.500000 8.425942 250.000000
v 250.000000 -5.187438 250.000000
v 312.500000 -3.506161 250.000000
v 375.000000 -6.859135 250.000000
v 437.500000 3.770970 250.000000
v 500.000000 -4.110873 250.000000
v 0.000000 6.883274 187.500000
v 62.500000 2.670415 187.500000
v 125.000000 -6.159490 187.500000
v 187.500000 6.436485 187.500000
v 250.000000 -7.256134 187.500000
v 312.500000 -2.208692 187.500000
v 375.000000 -4.289695 187.500000
v 437.500000 -5.506816 187.500000
v 500.000000 6.883274 187.500000
v 0.000000 3.915589 125.000000
v 62.500000 2.314218 125.000000
v 125.000000 -1.519681 125.000000
v 187.500000 6.973077 125.000000
v 250.000000 9.539966 125.000000
v 312.500000 -1.128673 125.000000
v 375.000000 2.937352 125.000000
v 437.500000 -6.779966 125.000000
v 500.000000 3.915589 125.000000
v 0.000000 4.220737 62.500000
v 62.500000 -7.027356 62.500000
v 125.000000 -4.471987 62.500000
v 187.500000 -7.577721 62.500000
v 250.000000 3.887321 62.500000
v 312.500000 4.839216 62.500000
v 375.000000 -1.154279 62.500000
v 437.500000 0.316098 62.500000
v 500.000000 4.220737 62.500000
v 0.000000 0.000000 0.000000
v 62.500000 1.289619 0.000000
v 125.000000 -1.161877 0.000000
v 187.500000 -0.012347 0.000000
v 250.000000 -1.290776 0.000000
v 312.500000 3.227997 0.000000
v 375.000000 -3.840560 0.000000
v 437.500000 0.298219 0.000000
v 500.000000 0.000000 0.000000
vt 0.000000 0.000000
vt 0.125000 0.000000
vt 0.250000 0.000000
vt 0.375000 0.000000
vt 0.500000 0.000000
vt 0.625000 0.000000
vt 0.750000 0.000000
vt 0.875000 0.000000
vt 1.000000 0.000000
vt 0.000000 0.125000
vt 0.125000 0.125000
vt 0.250000 0.125000
vt 0.375000 0.125000
vt 0.500000 0.125000
vt 0.625000 0.125000
vt 0.750000 0.125000
vt 0.875000 0.125000
vt 1.000000 0.125000
vt 0.000000 0.250000
vt 0.125000 0.250000
vt 0.250000 0.250000
vt 0.375000 0.250000
vt 0.500000 0.250000
vt 0.625000 0.250000
vt 0.750000 0.250000
vt 0.875000 0.250000
vt 1.000000 0.250000
vt 0.000000 0.375000
vt 0.125000 0.375000
vt 0.250000 0.375000
vt 0.375000 0.375000
vt 0.500000 0.375000
vt 0.625000 0.375000
vt 0.750000 0.375000
vt 0.875000 0.375000
vt 1.000000 0.375000
vt 0.000000 0.500000
vt 0.125000 0.500000
vt 0.250000 0.500000
vt 0.375000 0.500000
vt 0.500000 0.500000
vt 0.625000 0.500000
vt 0.750000 0.500000
vt 0.875000 0.500000
vt 1.000000 0.500000
vt 0.000000 0.625000
vt 0.125000 0.625000
vt 0.250000 0.625000
vt 0.375000 0.625000
vt 0.500000 0.625000
vt 0.625000 0.625000
vt 0.750000 0.625000
vt 0.875000 0.625000
vt 1.000000 0.625000
vt 0.000000 0.750000
vt 0.125000 0.750000
vt 0.250000 0.750000
vt 0.375000 0.750000
vt 0.500000 0.750000
vt 0.625000 0.750000
vt 0.750000 0.750000
vt 0.875000 0.750000
vt 1.000000 0.750000
vt 0.000000 0.875000
vt 0.125000 0.875000
vt 0.250000 0.875000
vt 0.375000 0.875000
vt 0.500000 0.875000
vt 0.625000 0.875000
vt 0.750000 0.875000
vt 0.875000 0.875000
vt 1.000000 0.875000
vt 0.000000 1.000000
vt 0.125000 1.000000
vt 0.250000 1.000000
vt 0.375000 1.000000
vt 0.500000 1.000000
vt 0.625000 1.000000
vt 0.750000 1.000000
vt 0.875000 1.000000
vt 1.000000 1.000000
vn -0.085945 0.974618 0.206718
vn -0.085945 0.974618 0.206718
vn -0.085945 0.974618 0.206718
vn 0.024081 0.994777 0.099190
vn 0.024081 0.994777 0.099190
vn 0.024081 0.994777 0.099190
vn 0.039108 0.997051 -0.066035
vn 0.039108 0.997051 -0.066035
vn 0.039108 0.997051 -0.066035
vn 0.200027 0.974956 0.097214
vn 0.200027 0.974956 0.097214
vn 0.200027 0.974956 0.097214
vn -0.018353 0.997850 -0.062917
vn -0.018353 0.997850 -0.062917
vn -0.018353 0.997850 -0.062917
vn -0.021518 0.997583 -0.066070
vn -0.021518 0.997583 -0.066070
vn -0.021518 0.997583 -0.066070
vn 0.020410 0.997810 -0.062915
vn 0.020410 0.997810 -0.062915
vn 0.020410 0.997810 -0.062915
vn -0.111263 0.991390 0.069032
vn -0.111263 0.991390 0.069032
vn -0.111264 0.991390 0.069032
vn -0.071939 0.995000 0.069283
vn -0.071939 0.995000 0.069283
vn -0.071939 0.995000 0.069283
vn 0.035517 0.998639 -0.038182
vn 0.035517 0.998639 -0.038182
vn 0.035517 0.998639 -0.038182
vn 0.112300 0.992949 -0.037965
vn 0.112300 0.992949 -0.037965
vn 0.112300 0.992949 -0.037965
vn 0.064799 0.997849 0.009902
vn 0.064799 0.997849 0.009902
vn 0.064799 0.997849 0.009902
vn -0.066073 0.997766 0.009902
vn -0.066073 0.997766 0.009902
vn -0.066073 0.997766 0.009902
vn -0.144349 0.985528 0.088868
vn -0.144349 0.985528 0.088868
vn -0.144349 0.985528 0.088868
vn 0.070571 0.975799 0.206968
vn 0.070571 0.975799 0.206968
vn 0.070571 0.975799 0.206968
vn -0.049347 0.994746 0.089699
vn -0.049347 0.994746 0.089699
vn -0.049347 0.994746 0.089699
vn 0.023499 0.970758 -0.238907
vn 0.023499 0.970758 -0.238907
vn 0.023499 0.970758 -0.238907
vn 0.020762 0.971453 -0.236324
vn 0.020762 0.971453 -0.236324
vn 0.020762 0.971453 -0.236324
vn 0.195505 0.952912 -0.231813
vn 0.195505 0.952912 -0.231813
vn 0.195505 0.952912 -0.231813
vn -0.031652 0.999478 -0.006431
vn -0.031652 0.999478 -0.006431
vn -0.031652 0.999478 -0.006431
vn -0.021565 0.999747 -0.006433
vn -0.021565 0.999747 -0.006433
vn -0.021565 0.999747 -0.006433
vn -0.072095 0.996418 0.044191
vn -0.072095 0.996418 0.044191
vn -0.072095 0.996418 0.044191
vn -0.111421 0.992797 0.044030
vn -0.111421 0.992797 0.044030
vn -0.111421 0.992797 0.044030
vn -0.114653 0.992279 0.047297
vn -0.114653 0.992279 0.047297
vn -0.114653 0.992279 0.047297
vn 0.035503 0.998236 0.047580
vn 0.035503 0.998236 0.047580
vn 0.035503 0.998236 0.047580
vn 0.156333 0.984901 -0.074360
vn 0.156333 0.984901 -0.074360
vn 0.156333 0.984901 -0.074360
vn 0.064619 0.995078 -0.075128
vn 0.064619 0.995078 -0.075128
vn 0.064619 0.995078 -0.075128
vn 0.049658 0.996951 -0.060186
vn 0.049658 0.996951 -0.060186
vn 0.049658 0.996951 -0.060186
vn -0.143033 0.976544 -0.160945
vn -0.143033 0.976544 -0.160945
vn -0.143033 0.976544 -0.160945
vn -0.041915 0.997305 -0.060208
vn -0.041915 0.997306 -0.060208
vn -0.041915 0.997305 -0.060208
vn -0.048115 0.969902 -0.238697
vn -0.048115 0.969902 -0.238697
vn -0.048115 0.969902 -0.238697
vn 0.031248 0.986207 -0.162538
vn 0.031248 0.986207 -0.162538
vn 0.031248 0.986207 -0.162538
vn 0.021353 0.999132 0.035769
vn 0.021353 0.999132 0.035769
vn 0.021353 0.999132 0.035769
vn 0.057227 0.995791 0.071595
vn 0.057227 0.995791 0.071595
vn 0.057227 0.995791 0.071595
vn -0.031632 0.998860 0.035759
vn -0.031632 0.998860 0.035759
vn -0.031632 0.998860 0.035759
vn -0.205782 0.955859 0.209731
vn -0.205782 0.955859 0.209731
vn -0.205782 0.955859 0.209731
vn -0.072145 0.997110 -0.023822
vn -0.072145 0.997110 -0.023822
vn -0.072145 0.997110 -0.023822
vn 0.164701 0.963425 0.211391
vn 0.164701 0.963425 0.211391
vn 0.164701 0.963425 0.211391
vn -0.113519 0.982467 -0.147894
vn -0.113519 0.982467 -0.147894
vn -0.113519 0.982467 -0.147894
vn 0.011094 0.999653 -0.023883
vn 0.011094 0.999653 -0.023883
vn 0.011094 0.999653 -0.023883
vn 0.155063 0.976898 -0.147056
vn 0.155063 0.976898 -0.147056
vn 0.155063 0.976898 -0.147056
vn -0.129854 0.981897 0.137902
vn -0.129854 0.981897 0.137902
vn -0.129854 0.981897 0.137902
vn 0.049594 0.995680 0.078499
vn 0.049594 0.995680 0.078499
vn 0.049594 0.995680 0.078499
vn 0.109666 0.984308 0.138241
vn 0.109666 0.984308 0.138241
vn 0.109666 0.984308 0.138241
vn -0.041862 0.996033 0.078526
vn -0.041862 0.996033 0.078526
vn -0.041862 0.996033 0.078526
vn -0.181681 0.959119 0.216987
vn -0.181681 0.959119 0.216987
vn -0.181681 0.959119 0.216987
vn 0.031588 0.996928 0.071676
vn 0.031588 0.996928 0.071676
vn 0.031588 0.996928 0.071676
vn 0.178523 0.959683 0.217114
vn 0.178523 0.959683 0.217114
vn 0.178523 0.959683 0.217114
vn 0.057337 0.997704 -0.036036
vn 0.057337 0.997704 -0.036036
vn 0.057337 0.997704 -0.036036
vn 0.048242 0.998473 -0.026925
vn 0.048242 0.998473 -0.026925
vn 0.048242 0.998473 -0.026925
vn -0.207815 0.965304 -0.158119
vn -0.207815 0.965304 -0.158119
vn -0.207815 0.965304 -0.158119
vn -0.078180 0.996577 -0.026874
vn -0.078180 0.996577 -0.026874
vn -0.078180 0.996577 -0.026874
vn 0.166355 0.973098 -0.159396
vn 0.166355 0.973098 -0.159396
vn 0.166355 0.973098 -0.159396
vn -0.165515 0.971011 0.172459
vn -0.165515 0.971011 0.172459
vn -0.165515 0.971011 0.172459
vn 0.011092 0.999515 -0.029095
vn 0.011092 0.999515 -0.029095
vn 0.011092 0.999515 -0.029095
vn 0.209690 0.962702 0.170983
vn 0.209690 0.962702 0.170983
vn 0.209690 0.962702 0.170983
vn -0.129957 0.982677 -0.132128
vn -0.129957 0.982677 -0.132128
vn -0.129957 0.982677 -0.132128
vn -0.026879 0.999215 -0.029086
vn -0.026879 0.999215 -0.029086
vn -0.026879 0.999215 -0.029086
vn 0.109754 0.985094 -0.132453
vn 0.109754 0.985094 -0.132453
vn 0.109754 0.985094 -0.132453
vn 0.053414 0.995649 -0.076356
vn 0.053414 0.995649 -0.076356
vn 0.053414 0.995649 -0.076356
vn -0.185292 0.978183 -0.093938
vn -0.185292 0.978183 -0.093938
vn -0.185292 0.978183 -0.093938
vn -0.167196 0.983037 -0.075389
vn -0.167196 0.983037 -0.075389
vn -0.167196 0.983037 -0.075389
vn 0.182076 0.978782 -0.093995
vn 0.182076 0.978782 -0.093995
vn 0.182076 0.978782 -0.093995
vn 0.125038 0.991505 -0.035813
vn 0.125038 0.991505 -0.035813
vn 0.125038 0.991505 -0.035813
vn 0.047678 0.986803 0.154747
vn 0.047678 0.986803 0.154747
vn 0.047678 0.986803 0.154747
vn 0.066241 0.982715 0.172866
vn 0.066241 0.982715 0.172866
vn 0.066241 0.982715 0.172866
vn -0.078055 0.994982 -0.062595
vn -0.078055 0.994982 -0.062595
vn -0.078055 0.994982 -0.062595
vn 0.138233 0.978442 0.153436
vn 0.138233 0.978442 0.153436
vn 0.138233 0.978442 0.153436
vn -0.167950 0.985297 -0.031363
vn -0.167950 0.985297 -0.031363
vn -0.167950 0.985297 -0.031363
vn -0.197189 0.978431 -0.061554
vn -0.197189 0.978431 -0.061554
vn -0.197189 0.978431 -0.061554
vn 0.212721 0.976618 -0.031087
vn 0.212721 0.976618 -0.031087
vn 0.212721 0.976618 -0.031087
vn 0.213894 0.976322 -0.032315
vn 0.213894 0.976322 -0.032315
vn 0.213894 0.976322 -0.032315
vn -0.026876 0.999092 -0.033069
vn -0.026876 0.999092 -0.033069
vn -0.026876 0.999092 -0.033069
vn -0.080480 0.996542 0.020688
vn -0.080480 0.996542 0.020688
vn -0.080480 0.996542 0.020688
vn 0.053525 0.997724 0.041017
vn 0.053525 0.997724 0.041017
vn 0.053525 0.997724 0.041017
vn 0.033270 0.999231 0.020744
vn 0.033270 0.999231 0.020744
vn 0.033270 0.999231 0.020744
vn -0.165907 0.975453 -0.144801
vn -0.165907 0.975453 -0.144801
vn -0.165907 0.975453 -0.144801
vn 0.019454 0.998967 0.041069
vn 0.019454 0.998967 0.041069
vn 0.019454 0.998967 0.041069
vn 0.123783 0.981554 -0.145706
vn 0.123783 0.981554 -0.145706
vn 0.123783 0.981554 -0.145706
vn -0.191626 0.966627 0.170036
vn -0.191626 0.966627 0.170036
vn -0.191626 0.966627 0.170036
vn 0.067178 0.996618 -0.047322
vn 0.067178 0.996618 -0.047322
vn 0.067178 0.996618 -0.047322
vn 0.025613 0.999656 -0.005697
vn 0.025613 0.999656 -0.005697
vn 0.025613 0.999656 -0.005697
vn 0.139513 0.987503 0.073309
vn 0.139513 0.987503 0.073309
vn 0.139513 0.987503 0.073309
vn 0.061226 0.998108 -0.005688
vn 0.061226 0.998108 -0.005688
vn 0.061226 0.998108 -0.005688
vn -0.197042 0.977705 0.072582
vn -0.197042 0.977705 0.072582
vn -0.197042 0.977705 0.072582
vn -0.134642 0.990858 0.008507
vn -0.134642 0.990858 0.008507
vn -0.134642 0.990858 0.008507
vn 0.206993 0.944820 0.253909
vn 0.206993 0.944820 0.253909
vn 0.206993 0.944820 0.253909
vn -0.041034 0.999121 0.008578
vn -0.041034 0.999121 0.008578
vn -0.041034 0.999121 0.008578
vn -0.080485 0.996607 0.017222
vn -0.080485 0.996607 0.017222
vn -0.080485 0.996607 0.017222
vn 0.162654 0.952875 0.256073
vn 0.162654 0.952875 0.256073
vn 0.162654 0.952875 0.256073
vn 0.033273 0.999297 0.017268
vn 0.033273 0.999297 0.017268
vn 0.033273 0.999297 0.017268
vn -0.064491 0.991313 0.114628
vn -0.064491 0.991313 0.114628
vn -0.064491 0.991313 0.114628
vn 0.019466 0.999603 -0.020362
vn 0.019466 0.999603 -0.020362
vn 0.019466 0.999603 -0.020362
vn 0.152638 0.981741 0.113521
vn 0.152638 0.981741 0.113521
vn 0.152638 0.981741 0.113521
vn -0.194247 0.979849 -0.046526
vn -0.194247 0.979849 -0.046526
vn -0.194247 0.979849 -0.046526
vn -0.168643 0.985473 -0.020074
vn -0.168643 0.985473 -0.020074
vn -0.168643 0.985473 -0.020074
vn 0.025613 0.999660 0.004881
vn 0.025613 0.999660 0.004881
vn 0.025613 0.999660 0.004881
vn 0.175238 0.973710 -0.145536
vn 0.175238 0.973710 -0.145536
vn 0.175238 0.973710 -0.145536
vn 0.060557 0.987199 -0.147552
vn 0.060557 0.987199 -0.147552
vn 0.060557 0.987199 -0.147552
vn -0.040806 0.998054 -0.047145
vn -0.040806 0.998054 -0.047145
vn -0.040806 0.998054 -0.047145
vn -0.131201 0.965534 -0.224789
vn -0.131201 0.965534 -0.224789
vn -0.131201 0.965534 -0.224789
vn 0.049575 0.997658 -0.047126
vn 0.049575 0.997658 -0.047126
vn 0.049575 0.997658 -0.047126
vn -0.040869 0.995103 -0.089999
vn -0.040869 0.995103 -0.089999
vn -0.040869 0.995103 -0.089999
vn -0.175878 0.958771 -0.223214
vn -0.175878 0.958771 -0.223214
vn -0.175878 0.958771 -0.223214
vn 0.167600 0.981848 -0.088801
vn 0.167600 0.981848 -0.088801
vn 0.167600 0.981848 -0.088801
vn -0.015160 0.995358 0.095043
vn -0.015160 0.995358 0.095043
vn -0.015160 0.995358 0.095043
vn -0.064626 0.993391 0.094855
vn -0.064626 0.993391 0.094855
vn -0.064626 0.993391 0.094855
vn 0.095256 0.993326 -0.065029
vn 0.095256 0.993327 -0.065029
vn 0.095256 0.993327 -0.065029
vn 0.152673 0.981968 0.111490
vn 0.152673 0.981968 0.111490
vn 0.152673 0.981968 0.111490
vn -0.023469 0.997589 -0.065308
vn -0.023469 0.997589 -0.065308
vn -0.023469 0.997589 -0.065308
vn -0.167630 0.979557 0.111216
vn -0.167630 0.979557 0.111216
vn -0.167630 0.979557 0.111216
vn -0.062352 0.998042 0.004873
vn -0.062352 0.998042 0.004873
vn -0.062352 0.998042 0.004873
vn 0.175624 0.975855 0.129859
vn 0.175624 0.975855 0.129859
vn 0.175624 0.975855 0.129859
vn -0.020583 0.997516 -0.067364
vn -0.020583 0.997516 -0.067364
vn -0.020583 0.997516 -0.067364
vn -0.040495 0.990449 0.131801
vn -0.040495 0.990449 0.131801
vn -0.040495 0.990449 0.131801
vn 0.039139 0.997835 0.052847
vn 0.039139 0.997835 0.052847
vn 0.039139 0.997835 0.052847
vn 0.049272 0.991548 0.120023
vn 0.049272 0.991548 0.120023
vn 0.049272 0.991548 0.120023
vn -0.018364 0.998432 0.052879
vn -0.018364 0.998432 0.052879
vn -0.018364 0.998432 0.052879
vn -0.179165 0.976690 0.118224
vn -0.179165 0.976690 0.118224
vn -0.179165 0.976690 0.118224
vn 0.020381 0.996379 -0.082550
vn 0.020381 0.996379 -0.082550
vn 0.020381 0.996379 -0.082550
vn -0.015223 0.999552 -0.025768
vn -0.015223 0.999552 -0.025768
vn -0.015223 0.999552 -0.025768
vn -0.071867 0.994009 -0.082353
vn -0.071867 0.994009 -0.082353
vn -0.071867 0.994009 -0.082353
vn 0.095427 0.995106 -0.025653
vn 0.095427 0.995106 -0.025653
vn 0.095427 0.995106 -0.025653
vn 0.112278 0.992760 -0.042669
vn 0.112278 0.992760 -0.042669
vn 0.112278 0.992760 -0.042669
vn -0.023520 0.999723 -0.000286
vn -0.023520 0.999723 -0.000286
vn -0.023520 0.999723 -0.000286
vn -0.066015 0.996898 -0.042847
vn -0.066015 0.996898 -0.042847
vn -0.066015 0.996898 -0.042847
vn -0.062212 0.995795 -0.067248
vn -0.062212 0.995795 -0.067248
vn -0.062212 0.995795 -0.067248
vn 0.004771 0.999989 -0.000286
vn 0.004771 0.999989 -0.000286
vn 0.004771 0.999989 -0.000286
s off
f 1/1/1 2/2/2 10/10/3
f 10/10/4 2/2/5 11/11/6
f 3/3/7 12/12/8 2/2/9
f 2/2/10 12/12/11 11/11/12
f 4/4/13 13/13/14 3/3/15
f 3/3/16 13/13/17 12/12/18
f 4/4/19 5/5/20 13/13/21
f 13/13/22 5/5/23 14/14/24
f 5/5/25 6/6/26 14/14/27
f 14/14/28 6/6/29 15/15/30
f 6/6/31 7/7/32 15/15/33
f 15/15/34 7/7/35 16/16/36
f 7/7/37 8/8/38 16/16/39
f 16/16/40 8/8/41 17/17/42
f 9/9/43 18/18/44 8/8/45
f 8/8/46 18/18/47 17/17/48
f 10/10/49 11/11/50 19/19/51
f 19/19/52 11/11/53 20/20/54
f 11/11/55 12/12/56 20/20/57
f 20/20/58 12/12/59 21/21/60
f 12/12/61 13/13/62 21/21/63
f 21/21/64 13/13/65 22/22/66
f 13/13/67 14/14/68 22/22/69
f 22/22/70 14/14/71 23/23/72
f 14/14/73 15/15/74 23/23/75
f 23/23/76 15/15/77 24/24/78
f 15/15/79 16/16/80 24/24/81
f 24/24/82 16/16/83 25/25/84
f 17/17/85 26/26/86 16/16/87
f 16/16/88 26/26/89 25/25/90
f 18/18/91 27/27/92 17/17/93
f 17/17/94 27/27/95 26/26/96
f 20/20/97 29/29/98 19/19/99
f 19/19/100 29/29/101 28/28/102
f 20/20/103 21/21/104 29/29/105
f 29/29/106 21/21/107 30/30/108
f 22/22/109 31/31/110 21/21/111
f 21/21/112 31/31/113 30/30/114
f 23/23/115 32/32/116 22/22/117
f 22/22/118 32/32/119 31/31/120
f 23/23/121 24/24/122 32/32/123
f 32/32/124 24/24/125 33/33/126
f 25/25/127 34/34/128 24/24/129
f 24/24/130 34/34/131 33/33/132
f 25/25/133 26/26/134 34/34/135
f 34/34/136 26/26/137 35/35/138
f 27/27/139 36/36/140 26/26/141
f 26/26/142 36/36/143 35/35/144
f 28/28/145 29/29/146 37/37/147
f 37/37/148 29/29/149 38/38/150
f 30/30/151 39/39/152 29/29/153
f 29/29/154 39/39/155 38/38/156
f 30/30/157 31/31/158 39/39/159
f 39/39/160 31/31/161 40/40/162
f 32/32/163 41/41/164 31/31/165
f 31/31/166 41/41/167 40/40/168
f 33/33/169 42/42/170 32/32/171
f 32/32/172 42/42/173 41/41/174
f 33/33/175 34/34/176 42/42/177
f 42/42/178 34/34/179 43/43/180
f 35/35/181 44/44/182 34/34/183
f 34/34/184 44/44/185 43/43/186
f 35/35/187 36/36/188 44/44/189
f 44/44/190 36/36/191 45/45/192
f 38/38/193 47/47/194 37/37/195
f 37/37/196 47/47/197 46/46/198
f 39/39/199 48/48/200 38/38/201
f 38/38/202 48/48/203 47/47/204
f 40/40/205 49/49/206 39/39/207
f 39/39/208 49/49/209 48/48/210
f 40/40/211 41/41/212 49/49/213
f 49/49/214 41/41/215 50/50/216
f 41/41/217 42/42/218 50/50/219
f 50/50/220 42/42/221 51/51/222
f 43/43/223 52/52/224 42/42/225
f 42/42/226 52/52/227 51/51/228
f 44/44/229 53/53/230 43/43/231
f 43/43/232 53/53/233 52/52/234
f 44/44/235 45/45/236 53/53/237
f 53/53/238 45/45/239 54/54/240
f 46/46/241 47/47/242 55/55/243
f 55/55/244 47/47/245 56/56/246
f 48/48/247 57/57/248 47/47/249
f 47/47/250 57/57/251 56/56/252
f 48/48/253 49/49/254 57/57/255
f 57/57/256 49/49/257 58/58/258
f 50/50/259 59/59/260 49/49/261
f 49/49/262 59/59/263 58/58/264
f 51/51/265 60/60/266 50/50/267
f 50/50/268 60/60/269 59/59/270
f 51/51/271 52/52/272 60/60/273
f 60/60/274 52/52/275 61/61/276
f 53/53/277 62/62/278 52/52/279
f 52/52/280 62/62/281 61/61/282
f 54/54/283 63/63/284 53/53/285
f 53/53/286 63/63/287 62/62/288
f 55/55/289 56/56/290 64/64/291
f 64/64/292 56/56/293 65/65/294
f 56/56/295 57/57/296 65/65/297
f 65/65/298 57/57/299 66/66/300
f 58/58/301 67/67/302 57/57/303
f 57/57/304 67/67/305 66/66/306
f 59/59/307 68/68/308 58/58/309
f 58/58/310 68/68/311 67/67/312
f 59/59/313 60/60/314 68/68/315
f 68/68/316 60/60/317 69/69/318
f 60/60/319 61/61/320 69/69/321
f 69/69/322 61/61/323 70/70/324
f 62/62/325 71/71/326 61/61/327
f 61/61/328 71/71/329 70/70/330
f 62/62/331 63/63/332 71/71/333
f 71/71/334 63/63/335 72/72/336
f 65/65/337 74/74/338 64/64/339
f 64/64/340 74/74/341 73/73/342
f 65/65/343 66/66/344 74/74/345
f 74/74/346 66/66/347 75/75/348
f 67/67/349 76/76/350 66/66/351
f 66/66/352 76/76/353 75/75/354
f 67/67/355 68/68/356 76/76/357
f 76/76/358 68/68/359 77/77/360
f 69/69/361 78/78/362 68/68/363
f 68/68/364 78/78/365 77/77/366
f 69/69/367 70/70/368 78/78/369
f 78/78/370 70/70/371 79/79/372
f 71/71/373 80/80/374 70/70/375
f 70/70/376 80/80/377 79/79/378
f 72/72/379 81/81/380 71/71/381
f 71/71/382 81/81/383 80/80/384
