# This file uses meters as units for non-parametric coordinates.

v -8.264519 -8.264551 3.570147
v -6.381836 -6.381880 5.452824
v 6.381898 -6.381880 5.452824
v 8.264582 -8.264551 3.570147
v -6.381836 6.381880 5.452824
v -8.264519 8.264551 3.570147
v 8.264582 8.264551 3.570147
v 6.381898 6.381880 5.452824
v -8.264519 8.264551 -3.570163
v -6.381836 6.381880 -5.452818
v 6.381898 6.381880 -5.452818
v 8.264582 8.264551 -3.570163
v -6.381836 -6.381880 -5.452818
v -8.264519 -8.264551 -3.570163
v 8.264582 -8.264551 -3.570163
v 6.381898 -6.381880 -5.452818
v -6.381836 26.246792 3.570147
v -8.264519 24.364120 3.570147
v -6.381836 24.364120 5.452824
v 8.264582 24.364120 3.570147
v 6.381898 26.246792 3.570147
v 6.381898 24.364120 5.452824
v 6.381898 24.364120 -5.452818
v 6.381898 26.246792 -3.570163
v 8.264582 24.364120 -3.570163
v -8.264519 24.364120 -3.570163
v -6.381836 26.246792 -3.570163
v -6.381836 24.364120 -5.452818
v -6.381836 -26.246792 -3.570163
v -8.264519 -24.364120 -3.570163
v -6.381836 -24.364120 -5.452818
v 8.264582 -24.364120 -3.570163
v 6.381898 -26.246792 -3.570163
v 6.381898 -24.364120 -5.452818
v 6.381898 -24.364120 5.452824
v 6.381898 -26.246792 3.570147
v 8.264582 -24.364120 3.570147
v -8.264519 -24.364120 3.570147
v -6.381836 -26.246792 3.570147
v -6.381836 -24.364120 5.452824
v 24.364130 -6.381880 -5.452818
v 26.246815 -6.381880 -3.570163
v 24.364130 -8.264551 -3.570163
v 26.246815 -6.381880 3.570147
v 24.364130 -6.381880 5.452824
v 24.364130 -8.264551 3.570147
v 24.364130 8.264551 -3.570163
v 26.246815 6.381880 -3.570163
v 24.364130 6.381880 -5.452818
v 24.364130 6.381880 5.452824
v 26.246815 6.381880 3.570147
v 24.364130 8.264551 3.570147
v -26.246754 -6.381880 -3.570163
v -24.364069 -6.381880 -5.452818
v -24.364069 -8.264551 -3.570163
v -24.364069 -6.381880 5.452824
v -26.246754 -6.381880 3.570147
v -24.364069 -8.264551 3.570147
v -24.364069 8.264551 3.570147
v -26.246754 6.381880 3.570147
v -24.364069 6.381880 5.452824
v -24.364069 6.381880 -5.452818
v -26.246754 6.381880 -3.570163
v -24.364069 8.264551 -3.570163
vt 0.241913 0.302265
vt 0.241913 0.302265
vt 0.241913 0.302265
vt 0.241913 0.302265
vt 0.241913 0.302265
vt 0.241913 0.302265
vt 0.241913 0.302265
vt 0.241913 0.302265
vt 0.241913 0.302265
vt 0.241913 0.302265
vt 0.241913 0.302265
vt 0.241913 0.302265
vt 0.241913 0.302265
vt 0.241913 0.302265
vt 0.241913 0.302265
vt 0.241913 0.302265
vt 0.241913 0.302265
vt 0.241913 0.302265
vt 0.241913 0.302265
vt 0.241913 0.302265
vt 0.241913 0.302265
vt 0.241913 0.302265
vt 0.241913 0.302265
vt 0.241913 0.302265
vt 0.241913 0.302265
vt 0.241913 0.302265
vt 0.241913 0.302265
vt 0.241913 0.302265
vt 0.241913 0.302265
vt 0.241913 0.302265
vt 0.241913 0.302265
vt 0.241913 0.302265
vt 0.241913 0.302265
vt 0.241913 0.302265
vt 0.241913 0.302265
vt 0.241913 0.302265
vt 0.241913 0.302265
vt 0.241913 0.302265
vt 0.241913 0.302265
vt 0.241913 0.302265
vt 0.241913 0.302265
vt 0.241913 0.302265
vt 0.241913 0.302265
vt 0.241913 0.302265
vt 0.241913 0.302265
vt 0.241913 0.302265
vt 0.241913 0.302265
vt 0.241913 0.302265
vt 0.241913 0.302265
vt 0.241913 0.302265
vt 0.241913 0.302265
vt 0.241913 0.302265
vt 0.241913 0.302265
vt 0.241913 0.302265
vt 0.241913 0.302265
vt 0.241913 0.302265
vt 0.241913 0.302265
vt 0.241913 0.302265
vt 0.241913 0.302265
vt 0.241913 0.302265
vt 0.241913 0.302265
vt 0.241913 0.302265
vt 0.241913 0.302265
vt 0.241913 0.302265
vn 0.000000 -1.000000 0.000000
vn 0.000000 -1.000000 0.000000
vn 0.000000 -1.000000 0.000000
vn 0.000000 -1.000000 0.000000
vn 0.000000 0.000000 1.000000
vn 0.000000 0.000000 1.000000
vn 0.000000 0.000000 1.000000
vn 0.000000 0.000000 1.000000
vn 0.000000 0.000000 1.000000
vn 0.000000 0.000000 1.000000
vn 0.000000 0.000000 1.000000
vn 0.000000 0.000000 1.000000
vn 0.000000 0.000000 1.000000
vn 0.000000 0.000000 1.000000
vn 0.000000 0.000000 1.000000
vn 0.000000 0.000000 1.000000
vn 0.000000 0.000000 1.000000
vn 0.000000 0.000000 1.000000
vn 0.000000 0.000000 1.000000
vn 0.000000 0.000000 1.000000
vn 1.000000 0.000000 0.000000
vn 1.000000 0.000000 0.000000
vn 1.000000 0.000000 0.000000
vn 1.000000 0.000000 0.000000
vn 0.000000 0.000000 1.000000
vn 0.000000 0.000000 1.000000
vn 0.000000 0.000000 1.000000
vn 0.000000 0.000000 1.000000
vn -1.000000 0.000000 0.000000
vn -1.000000 0.000000 0.000000
vn -1.000000 0.000000 0.000000
vn -1.000000 0.000000 0.000000
vn 0.000000 1.000000 0.000000
vn 0.000000 1.000000 0.000000
vn 0.000000 1.000000 0.000000
vn 0.000000 1.000000 0.000000
vn 0.000000 1.000000 0.000000
vn 0.000000 1.000000 0.000000
vn 0.000000 1.000000 0.000000
vn 0.000000 1.000000 0.000000
vn 0.000000 0.000000 -1.000000
vn 0.000000 0.000000 -1.000000
vn 0.000000 0.000000 -1.000000
vn 0.000000 0.000000 -1.000000
vn 0.000000 0.000000 -1.000000
vn 0.000000 0.000000 -1.000000
vn 0.000000 0.000000 -1.000000
vn 0.000000 0.000000 -1.000000
vn 0.000000 0.000000 -1.000000
vn 0.000000 0.000000 -1.000000
vn 0.000000 0.000000 -1.000000
vn 0.000000 0.000000 -1.000000
vn 0.000000 0.000000 -1.000000
vn 0.000000 0.000000 -1.000000
vn 0.000000 0.000000 -1.000000
vn 0.000000 0.000000 -1.000000
vn 1.000000 0.000000 0.000000
vn 1.000000 0.000000 0.000000
vn 1.000000 0.000000 0.000000
vn 1.000000 0.000000 0.000000
vn 0.000000 0.000000 -1.000000
vn 0.000000 0.000000 -1.000000
vn 0.000000 0.000000 -1.000000
vn 0.000000 0.000000 -1.000000
vn -1.000000 0.000000 0.000000
vn -1.000000 0.000000 0.000000
vn -1.000000 0.000000 0.000000
vn -1.000000 0.000000 0.000000
vn 0.000000 -1.000000 0.000000
vn 0.000000 -1.000000 0.000000
vn 0.000000 -1.000000 0.000000
vn 0.000000 -1.000000 0.000000
vn 0.000000 1.000000 0.000000
vn 0.000000 1.000000 0.000000
vn 0.000000 1.000000 0.000000
vn 0.000000 1.000000 0.000000
vn 0.000000 -1.000000 0.000000
vn 0.000000 -1.000000 0.000000
vn 0.000000 -1.000000 0.000000
vn 0.000000 -1.000000 0.000000
vn 1.000000 0.000000 0.000000
vn 1.000000 0.000000 0.000000
vn 1.000000 0.000000 0.000000
vn 1.000000 0.000000 0.000000
vn -1.000000 0.000000 0.000000
vn -1.000000 0.000000 0.000000
vn -1.000000 0.000000 0.000000
vn -1.000000 0.000000 0.000000
vn 0.000000 -0.707108 0.707106
vn 0.000000 -0.707108 0.707106
vn 0.000000 -0.707108 0.707106
vn 0.000000 -0.707108 0.707106
vn -0.707106 0.000000 0.707108
vn -0.707106 0.000000 0.707108
vn -0.707106 0.000000 0.707108
vn -0.707106 0.000000 0.707108
vn 0.000000 -0.707108 0.707106
vn 0.000000 -0.707108 0.707106
vn 0.000000 -0.707108 0.707106
vn 0.000000 -0.707108 0.707106
vn 0.707106 0.000000 0.707108
vn 0.707106 0.000000 0.707108
vn 0.707106 0.000000 0.707108
vn 0.707106 0.000000 0.707108
vn 0.000000 0.707108 0.707106
vn 0.000000 0.707108 0.707106
vn 0.000000 0.707108 0.707106
vn 0.000000 0.707108 0.707106
vn -0.707106 0.000000 0.707108
vn -0.707106 0.000000 0.707108
vn -0.707106 0.000000 0.707108
vn -0.707106 0.000000 0.707108
vn 0.000000 0.707108 0.707106
vn 0.000000 0.707108 0.707106
vn 0.000000 0.707108 0.707106
vn 0.000000 0.707108 0.707106
vn 0.707106 0.000000 0.707108
vn 0.707106 0.000000 0.707108
vn 0.707106 0.000000 0.707108
vn 0.707106 0.000000 0.707108
vn 0.000000 0.707104 -0.707110
vn 0.000000 0.707104 -0.707110
vn 0.000000 0.707104 -0.707110
vn 0.000000 0.707104 -0.707110
vn -0.707102 0.000000 -0.707112
vn -0.707102 0.000000 -0.707112
vn -0.707102 0.000000 -0.707112
vn -0.707102 0.000000 -0.707112
vn 0.000000 0.707104 -0.707110
vn 0.000000 0.707104 -0.707110
vn 0.000000 0.707104 -0.707110
vn 0.000000 0.707104 -0.707110
vn 0.707102 0.000000 -0.707112
vn 0.707102 0.000000 -0.707112
vn 0.707102 0.000000 -0.707112
vn 0.707102 0.000000 -0.707112
vn 0.000000 -0.707104 -0.707110
vn 0.000000 -0.707104 -0.707110
vn 0.000000 -0.707104 -0.707110
vn 0.000000 -0.707104 -0.707110
vn -0.707102 0.000000 -0.707112
vn -0.707102 0.000000 -0.707112
vn -0.707102 0.000000 -0.707112
vn -0.707102 0.000000 -0.707112
vn 0.000000 -0.707104 -0.707110
vn 0.000000 -0.707104 -0.707110
vn 0.000000 -0.707104 -0.707110
vn 0.000000 -0.707104 -0.707110
vn 0.707102 0.000000 -0.707112
vn 0.707102 0.000000 -0.707112
vn 0.707102 0.000000 -0.707112
vn 0.707102 0.000000 -0.707112
vn -0.707105 0.707109 0.000000
vn -0.707105 0.707109 0.000000
vn -0.707105 0.707109 0.000000
vn -0.707105 0.707109 0.000000
vn 0.000000 0.707108 0.707106
vn 0.000000 0.707108 0.707106
vn 0.000000 0.707108 0.707106
vn 0.000000 0.707108 0.707106
vn 0.707105 0.707109 0.000000
vn 0.707105 0.707109 0.000000
vn 0.707105 0.707109 0.000000
vn 0.707105 0.707109 0.000000
vn 0.000000 0.707104 -0.707110
vn 0.000000 0.707104 -0.707110
vn 0.000000 0.707104 -0.707110
vn 0.000000 0.707104 -0.707110
vn -0.707105 -0.707109 0.000000
vn -0.707105 -0.707109 0.000000
vn -0.707105 -0.707109 0.000000
vn -0.707105 -0.707109 0.000000
vn 0.000000 -0.707104 -0.707110
vn 0.000000 -0.707104 -0.707110
vn 0.000000 -0.707104 -0.707110
vn 0.000000 -0.707104 -0.707110
vn 0.707105 -0.707109 0.000000
vn 0.707105 -0.707109 0.000000
vn 0.707105 -0.707109 0.000000
vn 0.707105 -0.707109 0.000000
vn 0.000000 -0.707108 0.707106
vn 0.000000 -0.707108 0.707106
vn 0.000000 -0.707108 0.707106
vn 0.000000 -0.707108 0.707106
vn 0.707101 0.000000 -0.707112
vn 0.707101 0.000000 -0.707112
vn 0.707101 0.000000 -0.707112
vn 0.707101 0.000000 -0.707112
vn 0.707104 -0.707109 0.000000
vn 0.707104 -0.707109 0.000000
vn 0.707104 -0.707109 0.000000
vn 0.707104 -0.707109 0.000000
vn 0.707105 0.000000 0.707108
vn 0.707105 0.000000 0.707108
vn 0.707105 0.000000 0.707108
vn 0.707105 0.000000 0.707108
vn 0.707104 0.707109 0.000000
vn 0.707104 0.707109 0.000000
vn 0.707104 0.707109 0.000000
vn 0.707104 0.707109 0.000000
vn -0.707101 0.000000 -0.707112
vn -0.707101 0.000000 -0.707112
vn -0.707101 0.000000 -0.707112
vn -0.707101 0.000000 -0.707112
vn -0.707104 -0.707110 0.000000
vn -0.707104 -0.707110 0.000000
vn -0.707104 -0.707110 0.000000
vn -0.707104 -0.707110 0.000000
vn -0.707105 0.000000 0.707108
vn -0.707105 0.000000 0.707108
vn -0.707105 0.000000 0.707108
vn -0.707105 0.000000 0.707108
vn -0.707104 0.707110 0.000000
vn -0.707104 0.707110 0.000000
vn -0.707104 0.707110 0.000000
vn -0.707104 0.707110 0.000000
vn -0.577349 0.577352 0.577350
vn -0.577349 0.577352 0.577350
vn -0.577349 0.577352 0.577350
vn 0.577348 0.577352 0.577350
vn 0.577348 0.577352 0.577350
vn 0.577348 0.577352 0.577350
vn 0.577346 0.577350 -0.577354
vn 0.577346 0.577350 -0.577354
vn 0.577346 0.577350 -0.577354
vn -0.577347 0.577350 -0.577354
vn -0.577347 0.577350 -0.577355
vn -0.577347 0.577350 -0.577354
vn -0.577347 -0.577350 -0.577355
vn -0.577347 -0.577350 -0.577354
vn -0.577347 -0.577350 -0.577354
vn 0.577346 -0.577350 -0.577354
vn 0.577346 -0.577350 -0.577354
vn 0.577346 -0.577350 -0.577354
vn 0.577348 -0.577352 0.577350
vn 0.577348 -0.577352 0.577350
vn 0.577348 -0.577352 0.577350
vn -0.577349 -0.577352 0.577350
vn -0.577349 -0.577352 0.577350
vn -0.577349 -0.577352 0.577350
vn 0.577346 -0.577350 -0.577355
vn 0.577346 -0.577350 -0.577355
vn 0.577346 -0.577350 -0.577355
vn 0.577348 -0.577352 0.577350
vn 0.577348 -0.577352 0.577350
vn 0.577348 -0.577352 0.577350
vn 0.577346 0.577350 -0.577355
vn 0.577346 0.577350 -0.577355
vn 0.577346 0.577350 -0.577355
vn 0.577348 0.577352 0.577350
vn 0.577348 0.577352 0.577350
vn 0.577348 0.577352 0.577350
vn -0.577346 -0.577350 -0.577355
vn -0.577346 -0.577350 -0.577355
vn -0.577346 -0.577350 -0.577355
vn -0.577348 -0.577352 0.577350
vn -0.577348 -0.577352 0.577350
vn -0.577348 -0.577352 0.577350
vn -0.577348 0.577352 0.577350
vn -0.577348 0.577352 0.577350
vn -0.577348 0.577352 0.577350
vn -0.577346 0.577350 -0.577355
vn -0.577346 0.577350 -0.577355
vn -0.577346 0.577350 -0.577355
s off
f 1/35/1 58/30/2 55/60/3 14/8/4
f 40/22/5 35/50/6 3/1/7 2/36/8
f 3/1/9 8/3/10 5/37/11 2/36/12
f 61/32/13 56/61/14 2/36/15 5/37/16
f 45/25/17 50/58/18 8/3/19 3/1/20
f 4/2/21 37/20/22 32/49/23 15/42/24
f 22/11/25 19/43/26 5/37/27 8/3/28
f 6/4/29 18/9/30 26/46/31 9/39/32
f 7/38/33 52/27/34 47/57/35 12/6/36
f 9/39/37 64/34/38 59/62/39 6/4/40
f 28/15/41 23/45/42 11/5/43 10/40/44
f 11/5/45 16/7/46 13/41/47 10/40/48
f 54/28/49 62/63/50 10/40/51 13/41/52
f 49/23/53 41/53/54 16/7/55 11/5/56
f 12/6/57 25/13/58 20/44/59 7/38/60
f 34/18/61 31/48/62 13/41/63 16/7/64
f 14/8/65 30/16/66 38/51/67 1/35/68
f 15/42/69 43/24/70 46/56/71 4/2/72
f 21/12/73 24/14/74 27/47/75 17/10/76
f 33/19/77 36/21/78 39/52/79 29/17/80
f 48/26/81 51/59/82 44/55/83 42/54/84
f 57/31/85 60/33/86 63/64/87 53/29/88
f 56/61/89 58/30/90 1/35/91 2/36/92
f 1/35/93 38/51/94 40/22/95 2/36/96
f 4/2/97 46/56/98 45/25/99 3/1/100
f 3/1/101 35/50/102 37/20/103 4/2/104
f 6/4/105 59/62/106 61/32/107 5/37/108
f 5/37/109 19/43/110 18/9/111 6/4/112
f 8/3/113 50/58/114 52/27/115 7/38/116
f 7/38/117 20/44/118 22/11/119 8/3/120
f 62/63/121 64/34/122 9/39/123 10/40/124
f 9/39/125 26/46/126 28/15/127 10/40/128
f 12/6/129 47/57/130 49/23/131 11/5/132
f 11/5/133 23/45/134 25/13/135 12/6/136
f 14/8/137 55/60/138 54/28/139 13/41/140
f 13/41/141 31/48/142 30/16/143 14/8/144
f 16/7/145 41/53/146 43/24/147 15/42/148
f 15/42/149 32/49/150 34/18/151 16/7/152
f 18/9/153 17/10/154 27/47/155 26/46/156
f 17/10/157 19/43/158 22/11/159 21/12/160
f 21/12/161 20/44/162 25/13/163 24/14/164
f 24/14/165 23/45/166 28/15/167 27/47/168
f 30/16/169 29/17/170 39/52/171 38/51/172
f 29/17/173 31/48/174 34/18/175 33/19/176
f 33/19/177 32/49/178 37/20/179 36/21/180
f 36/21/181 35/50/182 40/22/183 39/52/184
f 42/54/185 41/53/186 49/23/187 48/26/188
f 43/24/189 42/54/190 44/55/191 46/56/192
f 45/25/193 44/55/194 51/59/195 50/58/196
f 48/26/197 47/57/198 52/27/199 51/59/200
f 54/28/201 53/29/202 63/64/203 62/63/204
f 53/29/205 55/60/206 58/30/207 57/31/208
f 57/31/209 56/61/210 61/32/211 60/33/212
f 60/33/213 59/62/214 64/34/215 63/64/216
f 17/10/217 18/9/218 19/43/219
f 20/44/220 21/12/221 22/11/222
f 23/45/223 24/14/224 25/13/225
f 26/46/226 27/47/227 28/15/228
f 29/17/229 30/16/230 31/48/231
f 32/49/232 33/19/233 34/18/234
f 35/50/235 36/21/236 37/20/237
f 38/51/238 39/52/239 40/22/240
f 41/53/241 42/54/242 43/24/243
f 44/55/244 45/25/245 46/56/246
f 47/57/247 48/26/248 49/23/249
f 50/58/250 51/59/251 52/27/252
f 53/29/253 54/28/254 55/60/255
f 56/61/256 57/31/257 58/30/258
f 59/62/259 60/33/260 61/32/261
f 62/63/262 63/64/263 64/34/264
