# This file uses meters as units for non-parametric coordinates.

v 0.000000 53.875580 -1.977595
v -12.880074 50.962029 -1.977595
v -13.365669 42.027054 -1.977595
v -15.308051 42.124176 -1.977595
v -16.279240 39.307724 -1.977595
v -15.502288 32.023792 -1.977595
v -12.297359 30.567017 -1.977595
v -11.131930 25.516815 -1.977595
v -10.160740 23.185959 -1.977595
v 0.000000 21.540623 -1.977595
v 0.000000 13.134136 -1.977595
v -10.549217 13.134136 -1.977595
v -19.192814 13.134136 -1.977595
v -26.165524 10.172005 -1.977595
v -26.281527 -6.126804 -1.977595
v -25.883232 -21.734467 -1.977595
v -18.735943 -79.517052 -1.977595
v 0.000000 -81.495491 -1.977595
v 0.000000 42.189941 -1.977595
v 0.000000 -23.200340 -1.977595
v 0.000000 30.416012 -1.977595
v 0.000000 53.875580 1.223420
v -12.880074 50.962029 1.223420
v -13.365669 42.027054 1.223420
v 0.000000 42.189941 1.223420
v 0.000000 21.540623 1.223420
v 0.000000 13.134136 1.223420
v -12.297359 30.567017 1.223420
v -15.308051 42.124176 1.223420
v -16.279240 39.307724 1.223420
v -15.502288 32.023792 1.223420
v 0.000000 30.416012 1.223420
v -10.549217 13.134136 1.223420
v -26.281527 -6.126804 1.223420
v -25.883232 -21.734467 1.223420
v 0.000000 -23.200340 1.223420
v -19.192814 13.134136 1.223420
v -26.165524 10.172005 1.223420
v -18.735943 -79.517052 1.223420
v 0.000000 -81.495491 1.223420
v -11.131930 25.516815 1.223420
v -10.160740 23.185959 1.223420
v 12.880074 50.962029 -1.977595
v 13.365669 42.027054 -1.977595
v 15.308051 42.124176 -1.977595
v 16.279240 39.307724 -1.977595
v 15.502288 32.023792 -1.977595
v 12.297359 30.567017 -1.977595
v 11.131930 25.516815 -1.977595
v 10.160740 23.185959 -1.977595
v 10.549217 13.134136 -1.977595
v 19.192814 13.134136 -1.977595
v 26.165524 9.995956 -1.977595
v 26.281527 -6.126804 -1.977595
v 25.883232 -21.734467 -1.977595
v 18.735943 -79.517052 -1.977595
v 12.880074 50.962029 1.223420
v 13.365669 42.027054 1.223420
v 12.297359 30.567017 1.223420
v 15.308051 42.124176 1.223420
v 16.279240 39.307724 1.223420
v 15.502288 32.023792 1.223420
v 10.549217 13.134136 1.223420
v 26.281527 -6.126804 1.223420
v 25.883232 -21.734467 1.223420
v 19.192814 13.134136 1.223420
v 26.165524 9.995956 1.223420
v 18.735943 -79.517052 1.223420
v 11.131930 25.516815 1.223420
v 10.160740 23.185959 1.223420
v 0.000000 -31.142921 1.223420
v -19.958075 -29.544336 1.223420
v -19.958075 -29.544336 -1.977595
v 0.000000 -31.142921 -1.977595
v 19.958075 -29.544336 -1.977595
v 19.958075 -29.544336 1.223420
vt 0.079811 0.231678
vt 0.079811 0.231678
vt 0.079811 0.231678
vt 0.079811 0.231678
vt 0.079811 0.231678
vt 0.079811 0.231678
vt 0.079811 0.231678
vt 0.079811 0.231678
vt 0.079811 0.231678
vt 0.079811 0.231678
vt 0.079811 0.231678
vt 0.079811 0.231678
vt 0.079811 0.231678
vt 0.079811 0.231678
vt 0.079811 0.231678
vt 0.079811 0.231678
vt 0.079811 0.231678
vt 0.079811 0.231678
vt 0.079811 0.231678
vt 0.079811 0.231678
vt 0.079811 0.231678
vt 0.079811 0.231678
vt 0.079811 0.231678
vt 0.079811 0.231678
vt 0.079811 0.231678
vt 0.079811 0.231678
vt 0.079811 0.231678
vt 0.079811 0.231678
vt 0.079811 0.231678
vt 0.079811 0.231678
vt 0.079811 0.231678
vt 0.079811 0.231678
vt 0.079811 0.231678
vt 0.079811 0.231678
vt 0.079811 0.231678
vt 0.079811 0.231678
vt 0.079811 0.231678
vt 0.079811 0.231678
vt 0.079811 0.231678
vt 0.079811 0.231678
vt 0.079811 0.231678
vt 0.079811 0.231678
vt 0.079811 0.231678
vt 0.079811 0.231678
vt 0.079811 0.231678
vt 0.079811 0.231678
vt 0.079811 0.231678
vt 0.079811 0.231678
vt 0.079811 0.231678
vt 0.079811 0.231678
vt 0.079811 0.231678
vt 0.079811 0.231678
vt 0.079811 0.231678
vt 0.079811 0.231678
vt 0.079811 0.231678
vt 0.079811 0.231678
vt 0.079811 0.231678
vt 0.079811 0.231678
vt 0.079811 0.231678
vt 0.079811 0.231678
vt 0.079811 0.231678
vt 0.079811 0.231678
vt 0.079811 0.231678
vt 0.079811 0.231678
vt 0.079811 0.231678
vt 0.079811 0.231678
vt 0.079811 0.231678
vt 0.079811 0.231678
vt 0.079811 0.231678
vt 0.079811 0.231678
vt 0.079811 0.231678
vt 0.079811 0.231678
vt 0.079811 0.231678
vt 0.079811 0.231678
vt 0.079811 0.231678
vt 0.079811 0.231678
vt 0.079811 0.231678
vt 0.079811 0.231678
vt 0.079811 0.231678
vt 0.079811 0.231678
vt 0.079811 0.231678
vt 0.079811 0.231678
vt 0.079811 0.231678
vt 0.079811 0.231678
vt 0.079811 0.231678
vt 0.079811 0.231678
vt 0.079811 0.231678
vt 0.079811 0.231678
vt 0.079811 0.231678
vt 0.079811 0.231678
vt 0.079811 0.231678
vt 0.079811 0.231678
vt 0.079811 0.231678
vt 0.079811 0.231678
vt 0.079811 0.231678
vt 0.079811 0.231678
vt 0.079811 0.231678
vt 0.079811 0.231678
vt 0.079811 0.231678
vt 0.079811 0.231678
vt 0.079811 0.231678
vt 0.079811 0.231678
vt 0.079811 0.231678
vt 0.079811 0.231678
vt 0.079811 0.231678
vt 0.079811 0.231678
vt 0.079811 0.231678
vt 0.079811 0.231678
vt 0.079811 0.231678
vt 0.079811 0.231678
vt 0.079811 0.231678
vt 0.079811 0.231678
vt 0.079811 0.231678
vt 0.079811 0.231678
vt 0.079811 0.231678
vt 0.079811 0.231678
vt 0.079811 0.231678
vt 0.079811 0.231678
vt 0.079811 0.231678
vt 0.079811 0.231678
vt 0.079811 0.231678
vt 0.079811 0.231678
vt 0.079811 0.231678
vt 0.079811 0.231678
vt 0.079811 0.231678
vt 0.079811 0.231678
vt 0.079811 0.231678
vt 0.079811 0.231678
vt 0.079811 0.231678
vt 0.079811 0.231678
vn 0.000000 0.000000 1.000000
vn 0.000000 0.000000 1.000000
vn -0.000000 0.000000 1.000000
vn 0.000000 0.000000 1.000000
vn -0.000000 0.000000 1.000000
vn -0.000000 0.000000 1.000000
vn -0.000000 0.000000 1.000000
vn -0.000000 0.000000 1.000000
vn -0.000000 0.000000 1.000000
vn 0.000000 0.000000 1.000000
vn -0.000000 0.000000 1.000000
vn -0.000000 0.000000 1.000000
vn -0.000000 0.000000 1.000000
vn 0.000000 0.000000 1.000000
vn 0.000000 0.000000 1.000000
vn 0.000000 0.000000 1.000000
vn 0.000000 0.000000 1.000000
vn 0.000000 0.000000 1.000000
vn 0.000000 0.000000 1.000000
vn 0.000000 0.000000 1.000000
vn -0.000000 0.000000 1.000000
vn -0.000000 0.000000 1.000000
vn 0.000000 -0.000000 1.000000
vn 0.000000 -0.000000 1.000000
vn 0.000000 -0.000000 1.000000
vn 0.000000 -0.000000 1.000000
vn -0.000000 0.000000 1.000000
vn -0.000000 0.000000 1.000000
vn -0.000000 0.000000 1.000000
vn -0.000000 0.000000 1.000000
vn -0.000000 0.000000 1.000000
vn -0.000000 0.000000 -1.000000
vn -0.000000 0.000000 -1.000000
vn -0.000000 0.000000 -1.000000
vn -0.000000 0.000000 -1.000000
vn -0.000000 0.000000 -1.000000
vn 0.000000 0.000000 -1.000000
vn 0.000000 0.000000 -1.000000
vn 0.000000 0.000000 -1.000000
vn -0.000000 0.000000 -1.000000
vn -0.000000 0.000000 -1.000000
vn -0.000000 0.000000 -1.000000
vn -0.000000 0.000000 -1.000000
vn -0.000000 0.000000 -1.000000
vn -0.000000 0.000000 -1.000000
vn -0.000000 0.000000 -1.000000
vn -0.000000 0.000000 -1.000000
vn -0.000000 0.000000 -1.000000
vn -0.000000 0.000000 -1.000000
vn -0.000000 0.000000 -1.000000
vn 0.000000 0.000000 -1.000000
vn 0.000000 0.000000 -1.000000
vn -0.000000 0.000000 -1.000000
vn -0.000000 0.000000 -1.000000
vn -0.000000 0.000000 -1.000000
vn -0.000000 0.000000 -1.000000
vn -0.000000 0.000000 -1.000000
vn -0.000000 0.000000 -1.000000
vn -0.000000 0.000000 -1.000000
vn -0.000000 0.000000 -1.000000
vn -0.000000 0.000000 -1.000000
vn -0.000000 0.000000 -1.000000
vn -0.220632 0.975357 0.000000
vn -0.220632 0.975357 0.000000
vn -0.220632 0.975357 0.000000
vn -0.220632 0.975357 0.000000
vn -0.998526 0.054268 0.000000
vn -0.998526 0.054268 0.000000
vn -0.998526 0.054268 0.000000
vn -0.998526 0.054268 0.000000
vn 0.049939 0.998752 0.000000
vn 0.049939 0.998752 0.000000
vn 0.049939 0.998752 0.000000
vn 0.049939 0.998752 0.000000
vn -0.945373 0.325990 0.000000
vn -0.999815 0.019227 0.000000
vn -0.999815 0.019227 0.000000
vn -0.945373 0.325990 0.000000
vn -0.999815 0.019227 0.000000
vn -0.994359 -0.106065 0.000000
vn -0.994359 -0.106065 0.000000
vn -0.999815 0.019227 0.000000
vn -0.413801 -0.910368 0.000000
vn -0.413801 -0.910368 0.000000
vn -0.413801 -0.910368 0.000000
vn -0.413801 -0.910368 0.000000
vn 0.000000 1.000000 0.000000
vn 0.000000 1.000000 0.000000
vn 0.000000 1.000000 0.000000
vn 0.000000 1.000000 0.000000
vn -0.999961 -0.008847 0.000000
vn -0.965422 -0.260693 0.000000
vn -0.965422 -0.260693 0.000000
vn -0.999961 -0.008847 0.000000
vn 0.000000 1.000000 0.000000
vn 0.000000 1.000000 0.000000
vn 0.000000 1.000000 0.000000
vn 0.000000 1.000000 0.000000
vn -0.390999 0.920391 0.000000
vn -0.390999 0.920391 0.000000
vn -0.390999 0.920391 0.000000
vn -0.390999 0.920391 0.000000
vn -0.999975 0.007117 0.000000
vn -0.999975 0.007117 0.000000
vn -0.999961 -0.008847 0.000000
vn -0.999961 -0.008847 0.000000
vn -0.992437 -0.122757 0.000000
vn -0.999701 -0.024449 0.000000
vn -0.999701 -0.024449 0.000000
vn -0.992437 -0.122757 0.000000
vn -0.105012 -0.994471 0.000000
vn -0.105012 -0.994471 0.000000
vn -0.105012 -0.994471 0.000000
vn -0.105012 -0.994471 0.000000
vn -0.974391 -0.224859 0.000000
vn -0.960564 -0.278058 0.000000
vn -0.960564 -0.278058 0.000000
vn -0.974391 -0.224859 0.000000
vn -0.960564 -0.278058 0.000000
vn -0.923077 -0.384615 0.000000
vn -0.923077 -0.384615 0.000000
vn -0.960564 -0.278058 0.000000
vn -0.159849 -0.987142 0.000000
vn -0.159849 -0.987142 0.000000
vn -0.159849 -0.987142 0.000000
vn -0.159849 -0.987142 0.000000
vn 0.000000 0.000000 1.000000
vn -0.000000 0.000000 1.000000
vn -0.000000 0.000000 1.000000
vn 0.000000 0.000000 1.000000
vn 0.000000 0.000000 1.000000
vn 0.000000 0.000000 1.000000
vn 0.000000 0.000000 1.000000
vn 0.000000 0.000000 1.000000
vn -0.000000 0.000000 1.000000
vn -0.000000 0.000000 1.000000
vn 0.000000 0.000000 1.000000
vn 0.000000 0.000000 1.000000
vn -0.000000 0.000000 1.000000
vn -0.000000 0.000000 1.000000
vn -0.000000 0.000000 1.000000
vn -0.000000 0.000000 1.000000
vn -0.000000 0.000000 1.000000
vn -0.000000 0.000000 1.000000
vn -0.000000 0.000000 1.000000
vn 0.000000 0.000000 1.000000
vn 0.000000 0.000000 1.000000
vn -0.000000 0.000000 1.000000
vn -0.000000 -0.000000 1.000000
vn -0.000000 -0.000000 1.000000
vn 0.000000 -0.000000 1.000000
vn 0.000000 -0.000000 1.000000
vn 0.000000 0.000000 1.000000
vn 0.000000 0.000000 1.000000
vn 0.000000 0.000000 1.000000
vn 0.000000 0.000000 1.000000
vn 0.000000 0.000000 1.000000
vn 0.000000 0.000000 -1.000000
vn 0.000000 0.000000 -1.000000
vn 0.000000 0.000000 -1.000000
vn 0.000000 0.000000 -1.000000
vn 0.000000 0.000000 -1.000000
vn 0.000000 0.000000 -1.000000
vn 0.000000 0.000000 -1.000000
vn 0.000000 0.000000 -1.000000
vn 0.000000 0.000000 -1.000000
vn 0.000000 0.000000 -1.000000
vn 0.000000 0.000000 -1.000000
vn 0.000000 0.000000 -1.000000
vn 0.000000 0.000000 -1.000000
vn 0.000000 0.000000 -1.000000
vn 0.000000 0.000000 -1.000000
vn 0.000000 0.000000 -1.000000
vn 0.000000 0.000000 -1.000000
vn 0.000000 0.000000 -1.000000
vn 0.000000 0.000000 -1.000000
vn 0.000000 0.000000 -1.000000
vn 0.000000 0.000000 -1.000000
vn 0.000000 0.000000 -1.000000
vn 0.000000 0.000000 -1.000000
vn 0.000000 0.000000 -1.000000
vn 0.000000 0.000000 -1.000000
vn 0.000000 0.000000 -1.000000
vn 0.000000 0.000000 -1.000000
vn 0.000000 0.000000 -1.000000
vn 0.000000 0.000000 -1.000000
vn 0.000000 0.000000 -1.000000
vn 0.000000 0.000000 -1.000000
vn 0.220632 0.975357 0.000000
vn 0.220632 0.975357 0.000000
vn 0.220632 0.975357 0.000000
vn 0.220632 0.975357 0.000000
vn 0.998526 0.054268 0.000000
vn 0.998526 0.054268 0.000000
vn 0.998526 0.054268 0.000000
vn 0.998526 0.054268 0.000000
vn -0.049939 0.998752 0.000000
vn -0.049939 0.998752 0.000000
vn -0.049939 0.998752 0.000000
vn -0.049939 0.998752 0.000000
vn 0.945373 0.325990 0.000000
vn 0.945373 0.325990 0.000000
vn 0.999815 0.019227 0.000000
vn 0.999815 0.019227 0.000000
vn 0.999815 0.019227 0.000000
vn 0.999815 0.019227 0.000000
vn 0.994359 -0.106065 0.000000
vn 0.994359 -0.106065 0.000000
vn 0.413801 -0.910368 0.000000
vn 0.413801 -0.910368 0.000000
vn 0.413801 -0.910368 0.000000
vn 0.413801 -0.910368 0.000000
vn 0.000000 1.000000 0.000000
vn 0.000000 1.000000 0.000000
vn 0.000000 1.000000 0.000000
vn 0.000000 1.000000 0.000000
vn 0.999960 -0.008896 0.000000
vn 0.999960 -0.008896 0.000000
vn 0.965422 -0.260693 0.000000
vn 0.965422 -0.260693 0.000000
vn 0.000000 1.000000 0.000000
vn 0.000000 1.000000 0.000000
vn 0.000000 1.000000 0.000000
vn 0.000000 1.000000 0.000000
vn 0.410415 0.911899 0.000000
vn 0.410415 0.911899 0.000000
vn 0.410415 0.911899 0.000000
vn 0.410415 0.911899 0.000000
vn 0.999974 0.007195 0.000000
vn 0.999960 -0.008896 0.000000
vn 0.999960 -0.008896 0.000000
vn 0.999974 0.007195 0.000000
vn 0.992437 -0.122757 0.000000
vn 0.992437 -0.122757 0.000000
vn 0.999701 -0.024449 0.000000
vn 0.999701 -0.024449 0.000000
vn 0.105012 -0.994471 0.000000
vn 0.105012 -0.994471 0.000000
vn 0.105012 -0.994471 0.000000
vn 0.105012 -0.994471 0.000000
vn 0.974391 -0.224859 0.000000
vn 0.974391 -0.224859 0.000000
vn 0.960564 -0.278058 0.000000
vn 0.960564 -0.278058 0.000000
vn 0.960564 -0.278058 0.000000
vn 0.960564 -0.278058 0.000000
vn 0.923077 -0.384615 0.000000
vn 0.923077 -0.384615 0.000000
vn 0.159849 -0.987142 0.000000
vn 0.159849 -0.987142 0.000000
vn 0.159849 -0.987142 0.000000
vn 0.159849 -0.987142 0.000000
vn 0.000000 0.000000 1.000000
vn 0.000000 0.000000 1.000000
vn 0.000000 -0.000000 1.000000
vn 0.000000 -0.000000 1.000000
vn -0.965422 -0.260693 0.000000
vn -0.992437 -0.122757 0.000000
vn -0.992437 -0.122757 0.000000
vn -0.965422 -0.260693 0.000000
vn -0.000000 0.000000 -1.000000
vn -0.000000 0.000000 -1.000000
vn -0.000000 0.000000 -1.000000
vn -0.000000 0.000000 -1.000000
vn 0.000000 0.000000 -1.000000
vn 0.000000 0.000000 -1.000000
vn 0.000000 0.000000 -1.000000
vn 0.000000 0.000000 -1.000000
vn 0.965422 -0.260693 0.000000
vn 0.965422 -0.260693 0.000000
vn 0.992437 -0.122757 0.000000
vn 0.992437 -0.122757 0.000000
vn -0.000000 0.000000 1.000000
vn -0.000000 -0.000000 1.000000
vn -0.000000 -0.000000 1.000000
vn -0.000000 0.000000 1.000000
s off
f 22/40/1 23/41/2 24/42/3 25/43/4
f 28/49/5 24/42/6 29/46/7 30/47/8 31/48/9
f 25/43/10 24/42/11 28/49/12 32/50/13
f 27/45/14 33/51/15 34/52/16 35/53/17 36/54/18
f 34/52/19 33/51/20 37/55/21 38/56/22
f 71/121/23 72/123/24 39/57/25 40/58/26
f 32/50/27 28/49/28 41/59/29 42/60/30 26/44/31
f 1/19/32 19/22/33 3/21/34 2/20/35
f 7/25/36 6/28/37 5/27/38 4/26/39 3/21/40
f 19/22/41 21/29/42 7/25/43 3/21/44
f 11/24/45 20/33/46 16/32/47 15/31/48 12/30/49
f 15/31/50 14/35/51 13/34/52 12/30/53
f 74/127/54 18/37/55 17/36/56 73/125/57
f 21/29/58 10/23/59 9/39/60 8/38/61 7/25/62
f 1/1/63 2/2/64 23/41/65 22/40/66
f 2/2/67 3/3/68 24/42/69 23/41/70
f 3/3/71 4/4/72 29/46/73 24/42/74
f 4/4/75 5/5/76 30/47/77 29/46/78
f 5/5/79 6/6/80 31/48/81 30/47/82
f 6/6/83 7/7/84 28/49/85 31/48/86
f 11/11/87 12/12/88 33/51/89 27/45/90
f 15/15/91 16/16/92 35/53/93 34/52/94
f 12/12/95 13/13/96 37/55/97 33/51/98
f 13/13/99 14/14/100 38/56/101 37/55/102
f 38/56/103 14/14/104 15/15/105 34/52/106
f 73/124/107 17/17/108 39/57/109 72/123/110
f 17/17/111 18/18/112 40/58/113 39/57/114
f 7/7/115 8/8/116 41/59/117 28/49/118
f 8/8/119 9/9/120 42/60/121 41/59/122
f 9/9/123 10/10/124 26/44/125 42/60/126
f 22/61/127 25/64/128 58/63/129 57/62/130
f 59/67/131 62/70/132 61/69/133 60/68/134 58/63/135
f 25/64/136 32/71/137 59/67/138 58/63/139
f 27/66/140 36/75/141 65/74/142 64/73/143 63/72/144
f 64/73/145 67/77/146 66/76/147 63/72/148
f 76/130/149 71/122/150 40/79/151 68/78/152
f 32/71/153 26/65/154 70/81/155 69/80/156 59/67/157
f 1/82/158 43/85/159 44/84/160 19/83/161
f 48/88/162 44/84/163 45/91/164 46/90/165 47/89/166
f 19/83/167 44/84/168 48/88/169 21/92/170
f 11/87/171 51/96/172 54/95/173 55/94/174 20/93/175
f 54/95/176 51/96/177 52/98/178 53/97/179
f 74/126/180 75/128/181 56/100/182 18/99/183
f 21/92/184 48/88/185 49/102/186 50/101/187 10/86/188
f 1/103/189 22/61/190 57/62/191 43/104/192
f 43/104/193 57/62/194 58/63/195 44/105/196
f 44/105/197 58/63/198 60/68/199 45/108/200
f 45/108/201 60/68/202 61/69/203 46/109/204
f 46/109/205 61/69/206 62/70/207 47/110/208
f 47/110/209 62/70/210 59/67/211 48/111/212
f 11/107/213 27/66/214 63/72/215 51/112/216
f 54/113/217 64/73/218 65/74/219 55/114/220
f 51/112/221 63/72/222 66/76/223 52/115/224
f 52/115/225 66/76/226 67/77/227 53/116/228
f 67/77/229 64/73/230 54/113/231 53/116/232
f 75/129/233 76/130/234 68/78/235 56/117/236
f 56/117/237 68/78/238 40/79/239 18/118/240
f 48/111/241 59/67/242 69/80/243 49/119/244
f 49/119/245 69/80/246 70/81/247 50/120/248
f 50/120/249 70/81/250 26/65/251 10/106/252
f 36/54/253 35/53/254 72/123/255 71/121/256
f 16/16/257 73/124/258 72/123/259 35/53/260
f 20/33/261 74/127/262 73/125/263 16/32/264
f 20/93/265 55/94/266 75/128/267 74/126/268
f 55/114/269 65/74/270 76/130/271 75/129/272
f 36/75/273 71/122/274 76/130/275 65/74/276
