# This file uses meters as units for non-parametric coordinates.

v 15.112472 -27.287443 4.443244
v 5.327154 27.178116 4.443244
v 2.658916 -4.822788 -4.878084
v 15.584059 25.736008 -4.890135
v -5.819196 27.398796 -4.505502
v -15.592801 -21.448648 -5.079345
v 15.137421 -19.716261 5.283700
v 5.938726 27.034454 -4.739265
v -5.230384 26.958866 4.487763
v -15.553060 26.066036 -4.878386
v 3.838235 6.046543 -0.008852
v 10.250355 -25.549183 5.695345
v 9.359184 -7.025528 -5.654143
v 16.460968 25.271549 0.058211
v -4.149861 -6.138115 5.185279
v -9.368952 -6.920509 5.644607
v -9.323105 -7.149734 -5.665054
v -16.467072 25.616779 0.054664
v -3.898539 -26.011868 0.057640
v 16.467072 -25.877211 0.032846
v -15.142138 -27.131365 4.487763
v 10.141374 25.357800 -5.695379
v -3.672083 6.101055 0.790939
v 4.149724 4.008446 5.011137
v -4.013906 -6.299648 -4.947968
v -10.162773 24.841385 5.674513
v -3.923516 25.221481 0.012282
v -15.118131 -20.008661 5.283700
v -4.123582 4.677925 -4.756316
v 10.192157 24.492931 5.682066
v 15.590302 -25.977343 -4.833032
v 5.021382 -27.134478 3.886719
v 4.862338 -26.269953 -4.883995
v -16.444370 -26.072922 0.028685
v -4.824986 -26.326447 -4.873313
v -5.230384 -27.361376 3.953514
v 15.418268 26.949978 3.886719
v 4.287458 -6.471806 4.814261
v -4.419583 3.735905 5.022048
v -15.142138 27.350273 3.953514
v -14.553323 -27.398796 -4.505502
v 4.239388 4.403191 -5.028875
vt 0.247243 0.306986
vt 0.247243 0.306986
vt 0.247243 0.306986
vt 0.247243 0.306986
vt 0.247243 0.306986
vt 0.247243 0.306986
vt 0.247243 0.306986
vt 0.247243 0.306986
vt 0.247243 0.306986
vt 0.247243 0.306986
vt 0.247243 0.306986
vt 0.247243 0.306986
vt 0.247243 0.306986
vt 0.247243 0.306986
vt 0.247243 0.306986
vt 0.247243 0.306986
vt 0.247243 0.306986
vt 0.247243 0.306986
vt 0.247243 0.306986
vt 0.247243 0.306986
vt 0.247243 0.306986
vt 0.247243 0.306986
vt 0.247243 0.306986
vt 0.247243 0.306986
vt 0.247243 0.306986
vt 0.247243 0.306986
vt 0.247243 0.306986
vt 0.247243 0.306986
vt 0.247243 0.306986
vt 0.247243 0.306986
vt 0.247243 0.306986
vt 0.247243 0.306986
vt 0.247243 0.306986
vt 0.247243 0.306986
vt 0.247243 0.306986
vt 0.247243 0.306986
vt 0.247243 0.306986
vt 0.247243 0.306986
vt 0.247243 0.306986
vt 0.247243 0.306986
vt 0.247243 0.306986
vt 0.247243 0.306986
vt 0.247243 0.306986
vt 0.247243 0.306986
vt 0.247243 0.306986
vt 0.247243 0.306986
vt 0.247243 0.306986
vt 0.247243 0.306986
vt 0.247243 0.306986
vt 0.247243 0.306986
vt 0.247243 0.306986
vt 0.247243 0.306986
vt 0.247243 0.306986
vt 0.247243 0.306986
vt 0.247243 0.306986
vt 0.247243 0.306986
vt 0.247243 0.306986
vt 0.247243 0.306986
vt 0.247243 0.306986
vt 0.247243 0.306986
vt 0.247243 0.306986
vt 0.247243 0.306986
vt 0.247243 0.306986
vt 0.247243 0.306986
vt 0.247243 0.306986
vt 0.247243 0.306986
vt 0.247243 0.306986
vt 0.247243 0.306986
vt 0.247243 0.306986
vt 0.247243 0.306986
vt 0.247243 0.306986
vt 0.247243 0.306986
vt 0.247243 0.306986
vt 0.247243 0.306986
vt 0.247243 0.306986
vt 0.247243 0.306986
vt 0.247243 0.306986
vt 0.247243 0.306986
vt 0.247243 0.306986
vt 0.247243 0.306986
vt 0.247243 0.306986
vt 0.247243 0.306986
vt 0.247243 0.306986
vt 0.247243 0.306986
vt 0.247243 0.306986
vt 0.247243 0.306986
vt 0.247243 0.306986
vt 0.247243 0.306986
vt 0.247243 0.306986
vt 0.247243 0.306986
vt 0.247243 0.306986
vt 0.247243 0.306986
vt 0.247243 0.306986
vt 0.247243 0.306986
vt 0.247243 0.306986
vn -0.026520 -0.100552 -0.994578
vn -0.026520 -0.100552 -0.994578
vn -0.026520 -0.100552 -0.994578
vn 0.058915 0.504225 0.861560
vn 0.058915 0.504225 0.861560
vn 0.058915 0.504225 0.861560
vn 0.027660 -0.989991 -0.138393
vn 0.027660 -0.989991 -0.138393
vn 0.027660 -0.989991 -0.138393
vn 0.962082 0.023717 0.271727
vn 0.962082 0.023717 0.271727
vn 0.962082 0.023717 0.271727
vn 0.036918 0.998240 0.046414
vn 0.036918 0.998240 0.046414
vn 0.036918 0.998240 0.046414
vn -0.028955 0.925532 0.377560
vn -0.028955 0.925533 0.377560
vn -0.028955 0.925533 0.377560
vn -0.046034 -0.986039 -0.160026
vn -0.046034 -0.986039 -0.160026
vn -0.046034 -0.986039 -0.160026
vn 0.126882 0.020416 -0.991708
vn 0.126882 0.020416 -0.991708
vn 0.126882 0.020416 -0.991708
vn -0.029507 0.089462 -0.995553
vn -0.029507 0.089462 -0.995553
vn -0.029507 0.089462 -0.995553
vn -0.314601 0.026491 0.948854
vn -0.314601 0.026491 0.948854
vn -0.314601 0.026491 0.948854
vn 0.221563 0.030160 0.974680
vn 0.221563 0.030160 0.974680
vn 0.221563 0.030160 0.974680
vn -0.000593 0.058596 0.998282
vn -0.000593 0.058596 0.998282
vn -0.000593 0.058596 0.998282
vn 0.188453 -0.109693 0.975937
vn 0.188453 -0.109693 0.975937
vn 0.188453 -0.109693 0.975937
vn -0.961275 -0.027404 0.274227
vn -0.961275 -0.027404 0.274227
vn -0.961275 -0.027404 0.274227
vn 0.211349 -0.108525 0.971367
vn 0.211349 -0.108525 0.971367
vn 0.211349 -0.108525 0.971367
vn -0.050879 -0.673501 0.737433
vn -0.050879 -0.673501 0.737433
vn -0.050879 -0.673501 0.737433
vn 0.146430 -0.001075 -0.989221
vn 0.146430 -0.001075 -0.989221
vn 0.146430 -0.001075 -0.989221
vn -0.079860 0.018750 -0.996630
vn -0.079860 0.018750 -0.996630
vn -0.079860 0.018750 -0.996630
vn 0.005874 -0.041357 -0.999127
vn 0.005874 -0.041357 -0.999127
vn 0.005874 -0.041357 -0.999127
vn 0.313605 0.026527 0.949183
vn 0.313605 0.026527 0.949183
vn 0.313605 0.026527 0.949183
vn -0.228194 0.035444 0.972970
vn -0.228194 0.035444 0.972970
vn -0.228194 0.035444 0.972970
vn -0.995151 0.052608 0.083108
vn -0.995151 0.052608 0.083108
vn -0.995151 0.052608 0.083108
vn 0.773949 0.632941 -0.019711
vn 0.773949 0.632941 -0.019711
vn 0.773949 0.632941 -0.019711
vn -0.983289 0.001592 -0.182042
vn -0.983289 0.001592 -0.182042
vn -0.983289 0.001592 -0.182042
vn -0.947929 0.008462 0.318370
vn -0.947929 0.008462 0.318370
vn -0.947929 0.008462 0.318370
vn 0.014641 -0.018848 -0.999715
vn 0.014641 -0.018848 -0.999715
vn 0.014641 -0.018848 -0.999715
vn 0.023641 0.967897 -0.250235
vn 0.023641 0.967897 -0.250235
vn 0.023641 0.967897 -0.250235
vn -0.024627 0.531798 0.846513
vn -0.024627 0.531798 0.846513
vn -0.024627 0.531798 0.846513
vn -0.986335 -0.000350 -0.164751
vn -0.986335 -0.000350 -0.164751
vn -0.986335 -0.000350 -0.164751
vn -0.969447 -0.000549 0.245299
vn -0.969447 -0.000549 0.245299
vn -0.969447 -0.000549 0.245299
vn 0.761832 0.643464 -0.074610
vn 0.761832 0.643464 -0.074610
vn 0.761832 0.643464 -0.074610
vn -0.994152 0.084275 -0.067531
vn -0.994152 0.084275 -0.067531
vn -0.994152 0.084275 -0.067531
vn -0.991679 0.075795 -0.104058
vn -0.991679 0.075795 -0.104058
vn -0.991679 0.075795 -0.104058
vn -0.311844 -0.053660 0.948617
vn -0.311844 -0.053660 0.948617
vn -0.311844 -0.053660 0.948617
vn -0.212003 -0.021140 0.977040
vn -0.212003 -0.021140 0.977040
vn -0.212003 -0.021140 0.977040
vn 0.083506 0.000362 0.996507
vn 0.083506 0.000362 0.996507
vn 0.083506 0.000362 0.996507
vn -0.110809 0.000135 0.993842
vn -0.110809 0.000135 0.993842
vn -0.110809 0.000135 0.993842
vn -0.118921 -0.011944 -0.992832
vn -0.118921 -0.011944 -0.992832
vn -0.118921 -0.011944 -0.992832
vn -0.113988 0.003289 -0.993477
vn -0.113988 0.003289 -0.993477
vn -0.113988 0.003289 -0.993477
vn -0.220285 0.004079 -0.975427
vn -0.220285 0.004079 -0.975427
vn -0.220285 0.004079 -0.975427
vn 0.118312 -0.004122 -0.992968
vn 0.118312 -0.004122 -0.992968
vn 0.118312 -0.004122 -0.992968
vn 0.984657 -0.000074 -0.174501
vn 0.984657 -0.000074 -0.174501
vn 0.984657 -0.000074 -0.174501
vn 0.965079 0.002034 0.261949
vn 0.965079 0.002034 0.261949
vn 0.965080 0.002034 0.261949
vn 0.984150 0.000205 -0.177336
vn 0.984150 0.000205 -0.177336
vn 0.984150 0.000205 -0.177336
vn 0.969401 -0.000006 0.245484
vn 0.969401 -0.000006 0.245484
vn 0.969401 -0.000006 0.245484
vn -0.924348 -0.193212 -0.329014
vn -0.924348 -0.193212 -0.329014
vn -0.924348 -0.193212 -0.329014
vn -0.598450 -0.801013 -0.015363
vn -0.598450 -0.801013 -0.015363
vn -0.598450 -0.801013 -0.015363
vn 0.950946 -0.065957 0.302244
vn 0.950946 -0.065957 0.302244
vn 0.950946 -0.065957 0.302244
vn 0.999084 -0.040410 0.014049
vn 0.999084 -0.040410 0.014049
vn 0.999084 -0.040410 0.014049
vn 0.980266 0.060918 -0.188063
vn 0.980266 0.060918 -0.188063
vn 0.980266 0.060918 -0.188063
vn 0.096804 -0.062580 0.993334
vn 0.096804 -0.062580 0.993334
vn 0.096804 -0.062580 0.993334
vn 0.052020 -0.071872 0.996056
vn 0.052020 -0.071872 0.996056
vn 0.052020 -0.071872 0.996056
vn 0.096731 -0.062074 0.993373
vn 0.096731 -0.062074 0.993373
vn 0.096731 -0.062074 0.993373
vn -0.057274 -0.002371 0.998356
vn -0.057274 -0.002371 0.998356
vn -0.057274 -0.002371 0.998356
vn 0.120404 0.002075 0.992723
vn 0.120404 0.002075 0.992723
vn 0.120404 0.002075 0.992723
vn 0.135286 -0.009172 -0.990764
vn 0.135286 -0.009172 -0.990764
vn 0.135286 -0.009172 -0.990764
vn 0.000482 -0.041139 -0.999153
vn 0.000482 -0.041139 -0.999153
vn 0.000482 -0.041139 -0.999153
vn 0.152422 -0.124949 -0.980385
vn 0.152422 -0.124949 -0.980385
vn 0.152422 -0.124949 -0.980385
vn 0.034152 0.030065 -0.998964
vn 0.034152 0.030065 -0.998964
vn 0.034152 0.030065 -0.998964
vn -0.102715 0.004293 -0.994702
vn -0.102715 0.004293 -0.994702
vn -0.102715 0.004293 -0.994702
vn 0.215874 -0.976247 0.018459
vn 0.215874 -0.976247 0.018459
vn 0.215874 -0.976247 0.018459
vn -0.026432 0.949414 -0.312912
vn -0.026432 0.949414 -0.312912
vn -0.026432 0.949414 -0.312912
vn 0.059006 0.866884 0.495005
vn 0.059006 0.866884 0.495005
vn 0.059006 0.866884 0.495005
vn -0.712451 0.698380 -0.068403
vn -0.712451 0.698380 -0.068403
vn -0.712451 0.698380 -0.068403
vn -0.129233 0.982133 -0.136798
vn -0.129233 0.982133 -0.136798
vn -0.129233 0.982133 -0.136798
vn 0.931760 0.073460 -0.355566
vn 0.931760 0.073460 -0.355566
vn 0.931760 0.073460 -0.355566
vn 0.996453 0.009699 -0.083591
vn 0.996453 0.009699 -0.083591
vn 0.996453 0.009699 -0.083591
vn 0.980083 0.038700 0.194782
vn 0.980083 0.038700 0.194782
vn 0.980083 0.038700 0.194782
vn 0.610963 -0.789032 -0.064452
vn 0.610963 -0.789032 -0.064452
vn 0.610963 -0.789032 -0.064452
vn 0.104738 -0.988279 -0.111063
vn 0.104738 -0.988279 -0.111063
vn 0.104738 -0.988279 -0.111063
vn -0.021666 -0.999365 0.028300
vn -0.021666 -0.999365 0.028300
vn -0.021666 -0.999365 0.028300
vn 0.021818 0.999661 -0.014187
vn 0.021818 0.999661 -0.014187
vn 0.021818 0.999661 -0.014187
vn 0.130172 0.982472 -0.133432
vn 0.130172 0.982472 -0.133432
vn 0.130172 0.982472 -0.133432
vn 0.958407 -0.034606 0.283298
vn 0.958407 -0.034606 0.283298
vn 0.958407 -0.034606 0.283298
vn 0.570441 -0.816826 -0.085977
vn 0.570441 -0.816826 -0.085977
vn 0.570441 -0.816826 -0.085977
vn -0.009685 -0.995148 -0.097915
vn -0.009685 -0.995148 -0.097915
vn -0.009685 -0.995148 -0.097915
vn -0.983790 -0.101113 0.148097
vn -0.983790 -0.101113 0.148097
vn -0.983790 -0.101113 0.148097
vn -0.999240 -0.036146 0.014557
vn -0.999241 -0.036146 0.014557
vn -0.999240 -0.036146 0.014557
vn 0.043205 -0.018197 0.998900
vn 0.043205 -0.018197 0.998900
vn 0.043205 -0.018197 0.998900
vn 0.071800 0.623790 -0.778287
vn 0.071800 0.623790 -0.778287
vn 0.071800 0.623790 -0.778287
s off
f 6/1/1 35/2/2 41/3/3
f 2/4/4 30/5/5 37/6/6
f 1/7/7 33/8/8 31/9/9
f 9/10/10 23/11/11 27/12/12
f 9/13/13 5/14/14 40/15/15
f 24/16/16 11/17/17 39/18/18
f 3/19/19 38/20/20 15/21/21
f 5/22/22 29/23/23 17/24/24
f 29/23/25 42/25/26 17/24/27
f 40/26/28 28/27/29 26/28/30
f 9/29/31 26/28/32 39/30/33
f 39/30/34 16/31/35 24/32/36
f 28/27/37 21/33/38 16/31/39
f 28/34/40 34/35/41 21/36/42
f 7/37/43 12/38/44 1/39/45
f 1/39/46 12/38/47 32/40/48
f 4/41/49 31/42/50 22/43/51
f 8/44/52 13/45/53 42/25/54
f 31/42/55 33/46/56 13/45/57
f 37/6/58 30/5/59 7/37/60
f 2/4/61 24/32/62 30/5/63
f 2/47/64 11/48/65 24/49/66
f 9/10/67 27/12/68 5/50/69
f 10/51/70 6/52/71 18/53/72
f 40/54/73 18/53/74 28/34/75
f 3/55/76 25/56/77 42/25/78
f 42/57/79 29/58/80 23/59/81
f 40/26/82 26/28/83 9/29/84
f 34/35/85 18/53/86 6/52/87
f 28/34/88 18/53/89 34/35/90
f 37/60/91 14/61/92 4/62/93
f 8/63/94 11/48/95 2/47/96
f 8/63/97 42/64/98 11/48/99
f 12/38/100 38/65/101 32/40/102
f 12/38/103 24/32/104 38/65/105
f 30/5/106 12/38/107 7/37/108
f 30/5/109 24/32/110 12/38/111
f 13/45/112 33/46/113 3/55/114
f 42/25/115 13/45/116 3/55/117
f 22/43/118 13/45/119 8/44/120
f 22/43/121 31/42/122 13/45/123
f 14/61/124 31/66/125 4/62/126
f 7/67/127 14/61/128 37/60/129
f 14/61/130 20/68/131 31/66/132
f 7/67/133 20/68/134 14/61/135
f 41/69/136 34/35/137 6/52/138
f 21/36/139 34/35/140 41/69/141
f 19/70/142 15/71/143 36/72/144
f 15/71/145 35/73/146 25/74/147
f 19/70/148 35/73/149 15/71/150
f 16/31/151 36/75/152 15/76/153
f 16/31/154 21/33/155 36/75/156
f 24/32/157 16/31/158 15/76/159
f 16/31/160 26/28/161 28/27/162
f 39/30/163 26/28/164 16/31/165
f 35/2/166 17/24/167 25/56/168
f 17/24/169 35/2/170 6/1/171
f 17/24/172 42/25/173 25/56/174
f 17/24/175 10/77/176 5/22/177
f 6/1/178 10/77/179 17/24/180
f 15/21/181 25/78/182 3/19/183
f 23/59/184 11/17/185 42/57/186
f 39/18/187 11/17/188 23/59/189
f 40/54/190 10/51/191 18/53/192
f 40/15/193 5/14/194 10/79/195
f 27/12/196 29/80/197 5/50/198
f 27/12/199 23/11/200 29/80/201
f 39/81/202 23/11/203 9/10/204
f 36/72/205 35/73/206 19/70/207
f 36/82/208 41/83/209 35/84/210
f 36/82/211 21/85/212 41/83/213
f 37/86/214 8/87/215 2/88/216
f 8/87/217 37/86/218 4/89/219
f 1/90/220 20/68/221 7/67/222
f 31/66/223 20/68/224 1/90/225
f 32/91/226 33/8/227 1/7/228
f 33/92/229 38/93/230 3/94/231
f 32/95/232 38/93/233 33/92/234
f 38/65/235 24/32/236 15/76/237
f 8/44/238 4/41/239 22/43/240
