# This file uses meters as units for non-parametric coordinates.

v 3.258322 7.219641 -5.643576
v -3.258319 7.219641 -5.643577
v -6.516640 7.219641 -0.000000
v -3.258321 7.219641 5.643577
v 3.258320 7.219641 5.643577
v 6.516640 7.219641 0.000001
v 2.632833 23.226849 -4.560198
v -2.632832 23.226849 -4.560199
v -5.265665 23.226849 -0.000000
v -2.632833 23.226849 4.560200
v 2.632833 23.226849 4.560201
v 5.265665 23.226849 0.000001
v 4.991365 24.786716 -8.645288
v -4.991359 24.786716 -8.645290
v -9.982720 24.786716 -0.000000
v -4.991365 24.786716 8.645291
v 4.991360 24.786716 8.645291
v 9.982720 24.786716 0.000001
v 4.677209 27.304237 -8.101156
v -4.677204 27.304237 -8.101157
v 0.000000 29.262318 0.000001
v -9.354409 27.304237 -0.000000
v -4.677209 27.304237 8.101158
v 4.677204 27.304237 8.101158
v 9.354409 27.304237 0.000001
v 5.636563 3.574144 -9.762806
v -5.636559 3.574144 -9.762811
v -11.273122 3.574144 -0.000001
v -5.636563 3.574144 9.762812
v 5.636561 3.574144 9.762812
v 11.273122 3.574144 0.000001
v 5.856843 -1.176044 -10.144341
v -5.856838 -1.176044 -10.144346
v -11.713679 -1.176044 -0.000001
v -5.856843 -1.176044 10.144346
v 5.856840 -1.176044 10.144346
v 11.713679 -1.176044 0.000001
v 1.155335 -1.176044 -2.001099
v -1.155334 -1.176044 -2.001099
v -2.310667 -1.176044 -0.000000
v -1.155334 -1.176044 2.001099
v 1.155334 -1.176044 2.001099
v 2.310667 -1.176044 0.000000
v 1.155335 -22.487465 -2.001099
v -1.155334 -22.487465 -2.001099
v 0.000000 -29.262320 0.000000
v -2.310667 -22.487465 -0.000000
v -1.155334 -22.487465 2.001099
v 1.155334 -22.487465 2.001099
v 2.310667 -22.487465 0.000000
vt 0.246623 0.304295
vt 0.246623 0.304295
vt 0.246623 0.304295
vt 0.246623 0.304295
vt 0.246623 0.304295
vt 0.246623 0.304295
vt 0.246623 0.304295
vt 0.246623 0.304295
vt 0.246623 0.304295
vt 0.246623 0.304295
vt 0.246623 0.304295
vt 0.246623 0.304295
vt 0.246623 0.304295
vt 0.246623 0.304295
vt 0.246623 0.304295
vt 0.246623 0.304295
vt 0.246623 0.304295
vt 0.246623 0.304295
vt 0.246623 0.304295
vt 0.246623 0.304295
vt 0.246623 0.304295
vt 0.246623 0.304295
vt 0.246623 0.304295
vt 0.246623 0.304295
vt 0.246623 0.304295
vt 0.246623 0.304295
vt 0.090268 0.350759
vt 0.246623 0.304295
vt 0.246623 0.304295
vt 0.246623 0.304295
vt 0.246623 0.304295
vt 0.246623 0.304295
vt 0.246623 0.304295
vt 0.246623 0.304295
vt 0.246623 0.304295
vt 0.246623 0.304295
vt 0.246623 0.304295
vt 0.246623 0.304295
vt 0.246623 0.304295
vt 0.246623 0.304295
vt 0.246623 0.304295
vt 0.246623 0.304295
vt 0.246623 0.304295
vt 0.246623 0.304295
vt 0.246623 0.304295
vt 0.246623 0.304295
vt 0.246623 0.304295
vt 0.246623 0.304295
vt 0.246623 0.304295
vt 0.246623 0.304295
vt 0.246623 0.304295
vt 0.246623 0.304295
vt 0.246623 0.304295
vt 0.246623 0.304295
vt 0.246623 0.304295
vt 0.246623 0.304295
vt 0.246623 0.304295
vt 0.246623 0.304295
vt 0.090268 0.350759
vt 0.090268 0.350759
vt 0.090268 0.350759
vt 0.090268 0.350759
vt 0.090268 0.350759
vt 0.090268 0.350759
vt 0.090268 0.350759
vt 0.090268 0.350759
vt 0.090268 0.350759
vt 0.090268 0.350759
vt 0.090268 0.350759
vt 0.090268 0.350759
vn 0.000000 0.067526 -0.997718
vn 0.000000 0.067526 -0.997718
vn 0.000000 0.067526 -0.997718
vn 0.000000 0.067526 -0.997718
vn -0.864049 0.067526 -0.498859
vn -0.864049 0.067526 -0.498859
vn -0.864049 0.067526 -0.498859
vn -0.864049 0.067526 -0.498859
vn -0.864049 0.067526 0.498859
vn -0.864049 0.067526 0.498859
vn -0.864049 0.067526 0.498859
vn -0.864049 0.067526 0.498859
vn -0.000000 0.067526 0.997718
vn -0.000000 0.067526 0.997718
vn -0.000000 0.067526 0.997718
vn -0.000000 0.067526 0.997718
vn 0.864049 0.067526 0.498859
vn 0.864049 0.067526 0.498859
vn 0.864049 0.067526 0.498859
vn 0.864049 0.067526 0.498859
vn 0.864049 0.067526 -0.498859
vn 0.864049 0.067526 -0.498859
vn 0.864049 0.067526 -0.498859
vn 0.864049 0.067526 -0.498859
vn 0.000000 -0.283273 -0.959039
vn 0.000000 -0.283273 -0.959039
vn 0.000000 -0.283273 -0.959039
vn -0.830553 -0.283273 -0.479519
vn -0.830553 -0.283273 -0.479519
vn -0.830553 -0.283273 -0.479519
vn -0.830553 -0.283273 0.479519
vn -0.830553 -0.283273 0.479519
vn -0.830553 -0.283273 0.479519
vn 0.000000 -0.283273 0.959039
vn 0.000000 -0.283273 0.959039
vn 0.000000 -0.283273 0.959039
vn 0.830553 -0.283273 0.479519
vn 0.830553 -0.283273 0.479519
vn 0.830553 -0.283273 0.479519
vn 0.830553 -0.283273 -0.479519
vn 0.830553 -0.283273 -0.479519
vn 0.830553 -0.283273 -0.479519
vn 0.000000 0.972010 -0.234938
vn 0.000000 0.972010 -0.234938
vn 0.000000 0.972010 -0.234938
vn -0.203463 0.972010 -0.117470
vn -0.203463 0.972010 -0.117470
vn -0.203463 0.972010 -0.117470
vn -0.203463 0.972010 0.117470
vn -0.203463 0.972010 0.117470
vn -0.203463 0.972010 0.117470
vn 0.000000 0.972010 0.234938
vn 0.000000 0.972010 0.234938
vn 0.000000 0.972010 0.234938
vn 0.203463 0.972010 0.117469
vn 0.203463 0.972010 0.117469
vn 0.203463 0.972010 0.117469
vn 0.203463 0.972010 -0.117470
vn 0.203463 0.972010 -0.117470
vn 0.203463 0.972010 -0.117470
vn 0.000000 -0.934210 -0.356723
vn 0.000000 -0.934210 -0.356723
vn 0.000000 -0.934210 -0.356723
vn 0.000000 -0.934210 -0.356723
vn -0.308931 -0.934210 -0.178361
vn -0.308931 -0.934210 -0.178361
vn -0.308931 -0.934210 -0.178361
vn -0.308931 -0.934210 -0.178361
vn -0.308931 -0.934210 0.178361
vn -0.308931 -0.934210 0.178361
vn -0.308931 -0.934210 0.178361
vn -0.308931 -0.934210 0.178361
vn 0.000000 -0.934210 0.356723
vn 0.000000 -0.934210 0.356723
vn 0.000000 -0.934210 0.356723
vn 0.000000 -0.934210 0.356723
vn 0.308931 -0.934210 0.178361
vn 0.308931 -0.934210 0.178361
vn 0.308931 -0.934210 0.178361
vn 0.308931 -0.934210 0.178361
vn 0.308931 -0.934210 -0.178361
vn 0.308931 -0.934210 -0.178361
vn 0.308931 -0.934210 -0.178361
vn 0.308931 -0.934210 -0.178361
vn 0.000000 0.211260 -0.977430
vn 0.000000 0.211260 -0.977430
vn 0.000000 0.211260 -0.977430
vn 0.000000 0.211260 -0.977430
vn -0.846479 0.211260 -0.488715
vn -0.846479 0.211260 -0.488715
vn -0.846479 0.211260 -0.488715
vn -0.846479 0.211260 -0.488715
vn -0.846479 0.211260 0.488715
vn -0.846479 0.211260 0.488714
vn -0.846479 0.211260 0.488715
vn -0.846479 0.211260 0.488714
vn 0.000000 0.211260 0.977430
vn 0.000000 0.211260 0.977430
vn 0.000000 0.211260 0.977430
vn 0.000000 0.211260 0.977430
vn 0.846479 0.211260 0.488715
vn 0.846479 0.211260 0.488715
vn 0.846479 0.211260 0.488715
vn 0.846479 0.211260 0.488715
vn 0.846479 0.211260 -0.488715
vn 0.846479 0.211260 -0.488715
vn 0.846479 0.211260 -0.488715
vn 0.846479 0.211260 -0.488715
vn 0.000000 0.748856 -0.662733
vn 0.000000 0.748856 -0.662733
vn 0.000000 0.748856 -0.662733
vn 0.000000 0.748856 -0.662733
vn -0.573943 0.748856 -0.331367
vn -0.573943 0.748856 -0.331367
vn -0.573944 0.748856 -0.331367
vn -0.573944 0.748856 -0.331367
vn -0.573944 0.748856 0.331366
vn -0.573944 0.748856 0.331366
vn -0.573944 0.748856 0.331366
vn -0.573944 0.748856 0.331366
vn 0.000000 0.748856 0.662733
vn 0.000000 0.748856 0.662733
vn 0.000000 0.748856 0.662733
vn 0.000000 0.748856 0.662733
vn 0.573944 0.748856 0.331366
vn 0.573944 0.748856 0.331366
vn 0.573943 0.748856 0.331366
vn 0.573943 0.748856 0.331366
vn 0.573944 0.748856 -0.331366
vn 0.573944 0.748856 -0.331366
vn 0.573944 0.748856 -0.331366
vn 0.573944 0.748856 -0.331366
vn 0.000000 0.080062 -0.996790
vn 0.000000 0.080062 -0.996790
vn 0.000000 0.080062 -0.996790
vn 0.000000 0.080062 -0.996790
vn -0.863245 0.080062 -0.498395
vn -0.863245 0.080062 -0.498395
vn -0.863245 0.080062 -0.498395
vn -0.863245 0.080062 -0.498395
vn -0.863246 0.080062 0.498395
vn -0.863246 0.080062 0.498395
vn -0.863246 0.080062 0.498395
vn -0.863246 0.080062 0.498395
vn 0.000000 0.080062 0.996790
vn 0.000000 0.080062 0.996790
vn 0.000000 0.080062 0.996790
vn 0.000000 0.080062 0.996790
vn 0.863245 0.080062 0.498395
vn 0.863245 0.080062 0.498395
vn 0.863245 0.080062 0.498395
vn 0.863245 0.080062 0.498395
vn 0.863245 0.080062 -0.498395
vn 0.863245 0.080062 -0.498395
vn 0.863245 0.080062 -0.498395
vn 0.863245 0.080062 -0.498395
vn 0.000000 -1.000000 0.000000
vn 0.000000 -1.000000 0.000000
vn 0.000000 -1.000000 0.000000
vn 0.000000 -1.000000 0.000000
vn 0.000000 -1.000000 0.000000
vn 0.000000 -1.000000 0.000000
vn 0.000000 -1.000000 0.000000
vn 0.000000 -1.000000 0.000000
vn 0.000000 -1.000000 -0.000000
vn 0.000000 -1.000000 -0.000000
vn 0.000000 -1.000000 -0.000000
vn 0.000000 -1.000000 -0.000000
vn 0.000000 -1.000000 -0.000000
vn 0.000000 -1.000000 -0.000000
vn 0.000000 -1.000000 -0.000000
vn 0.000000 -1.000000 -0.000000
vn 0.000000 -1.000000 0.000000
vn 0.000000 -1.000000 0.000000
vn 0.000000 -1.000000 0.000000
vn 0.000000 -1.000000 0.000000
vn 0.000000 -1.000000 0.000000
vn 0.000000 -1.000000 0.000000
vn 0.000000 -1.000000 0.000000
vn 0.000000 -1.000000 0.000000
vn 0.000000 0.000000 -1.000000
vn 0.000000 0.000000 -1.000000
vn 0.000000 0.000000 -1.000000
vn 0.000000 0.000000 -1.000000
vn -0.866026 0.000000 -0.500000
vn -0.866026 0.000000 -0.500000
vn -0.866026 0.000000 -0.500000
vn -0.866026 0.000000 -0.500000
vn -0.866026 0.000000 0.499999
vn -0.866026 0.000000 0.499999
vn -0.866026 0.000000 0.499999
vn -0.866026 0.000000 0.499999
vn 0.000000 0.000000 1.000000
vn 0.000000 0.000000 1.000000
vn 0.000000 0.000000 1.000000
vn 0.000000 0.000000 1.000000
vn 0.866026 0.000000 0.500000
vn 0.866026 0.000000 0.500000
vn 0.866026 0.000000 0.500000
vn 0.866026 0.000000 0.500000
vn 0.866026 0.000000 -0.499999
vn 0.866026 0.000000 -0.499999
vn 0.866026 0.000000 -0.499999
vn 0.866026 0.000000 -0.499999
s off
f 1/7/1 2/8/2 8/15/3 7/14/4
f 2/8/5 3/9/6 9/16/7 8/15/8
f 3/9/9 4/10/10 10/17/11 9/16/12
f 4/10/13 5/11/14 11/18/15 10/17/16
f 5/11/17 6/12/18 12/19/19 11/18/20
f 6/12/21 1/13/22 7/20/23 12/19/24
f 45/27/25 44/59/26 46/60/27
f 47/61/28 45/27/29 46/60/30
f 48/62/31 47/61/32 46/60/33
f 49/63/34 48/62/35 46/60/36
f 50/64/37 49/63/38 46/60/39
f 44/59/40 50/64/41 46/60/42
f 19/35/43 20/36/44 21/28/45
f 20/36/46 22/37/47 21/28/48
f 22/37/49 23/38/50 21/28/51
f 23/38/52 24/39/53 21/28/54
f 24/39/55 25/40/56 21/28/57
f 25/40/58 19/35/59 21/28/60
f 7/25/61 8/24/62 14/30/63 13/29/64
f 8/24/65 9/23/66 15/31/67 14/30/68
f 9/23/69 10/22/70 16/32/71 15/31/72
f 10/22/73 11/21/74 17/33/75 16/32/76
f 11/21/77 12/26/78 18/34/79 17/33/80
f 12/26/81 7/25/82 13/29/83 18/34/84
f 13/29/85 14/30/86 20/36/87 19/35/88
f 14/30/89 15/31/90 22/37/91 20/36/92
f 15/31/93 16/32/94 23/38/95 22/37/96
f 16/32/97 17/33/98 24/39/99 23/38/100
f 17/33/101 18/34/102 25/40/103 24/39/104
f 18/34/105 13/29/106 19/35/107 25/40/108
f 2/2/109 1/1/110 26/42/111 27/41/112
f 3/3/113 2/2/114 27/41/115 28/43/116
f 4/4/117 3/3/118 28/43/119 29/44/120
f 5/5/121 4/4/122 29/44/123 30/45/124
f 6/6/125 5/5/126 30/45/127 31/46/128
f 1/1/129 6/6/130 31/46/131 26/42/132
f 27/41/133 26/42/134 32/48/135 33/47/136
f 28/43/137 27/41/138 33/47/139 34/49/140
f 29/44/141 28/43/142 34/49/143 35/50/144
f 30/45/145 29/44/146 35/50/147 36/51/148
f 31/46/149 30/45/150 36/51/151 37/52/152
f 26/42/153 31/46/154 37/52/155 32/48/156
f 33/47/157 32/48/158 38/54/159 39/53/160
f 34/49/161 33/47/162 39/53/163 40/55/164
f 35/50/165 34/49/166 40/55/167 41/56/168
f 36/51/169 35/50/170 41/56/171 42/57/172
f 37/52/173 36/51/174 42/57/175 43/58/176
f 32/48/177 37/52/178 43/58/179 38/54/180
f 39/65/181 38/66/182 44/59/183 45/27/184
f 40/67/185 39/65/186 45/27/187 47/61/188
f 41/68/189 40/67/190 47/61/191 48/62/192
f 42/69/193 41/68/194 48/62/195 49/63/196
f 43/70/197 42/69/198 49/63/199 50/64/200
f 38/66/201 43/70/202 50/64/203 44/59/204
