# This file uses meters as units for non-parametric coordinates.

v -26.989868 -29.012344 -2.641073
v 26.989866 -29.012344 -2.641073
v -26.989868 29.012344 -2.641073
v 26.989866 22.825760 -2.641073
v 19.706682 29.012344 -2.641073
v -15.010017 29.012344 -2.641073
v -18.727234 -29.012344 -2.641073
v 13.730301 29.012344 -2.641073
v 17.447519 -29.012344 -2.641073
v -15.010017 8.363638 -2.641073
v 13.730301 8.363638 -2.641073
v 17.447519 0.663424 -2.641073
v -18.727234 0.663424 -2.641073
v 17.447519 0.663424 2.641073
v 26.989866 22.825760 2.641073
v 19.706682 29.012344 2.641073
v 13.730301 8.363638 2.641073
v 13.730301 29.012344 2.641073
v -15.010017 8.363638 2.641073
v -15.010017 29.012344 2.641073
v -26.989868 29.012344 2.641073
v -18.727234 0.663424 2.641073
v -26.989868 -29.012344 2.641073
v -18.727234 -29.012344 2.641073
v 17.447519 -29.012344 2.641073
v 26.989866 -29.012344 2.641073
v -15.010017 8.363638 4.238149
v 13.730301 8.363638 4.238149
v 13.730301 29.012344 4.238149
v -15.010017 29.012344 4.238149
v -15.010017 29.012344 -4.238149
v -15.010017 8.363638 -4.238149
v 13.730301 29.012344 -4.238149
v 13.730301 8.363638 -4.238149
v 4.001532 11.738644 4.238149
v 10.526363 11.738644 4.238149
v 10.526363 25.637341 4.238149
v 4.001532 25.637341 4.238149
v 4.001532 25.637341 -4.238149
v 4.001532 11.738644 -4.238149
v 10.526363 25.637341 -4.238149
v 10.526363 11.738644 -4.238149
v 4.001532 11.738644 2.534848
v 10.526363 11.738644 2.534848
v 10.526363 25.637341 2.534848
v 4.001532 25.637341 2.534848
v 4.001532 25.637341 -2.534848
v 4.001532 11.738644 -2.534848
v 10.526363 25.637341 -2.534848
v 10.526363 11.738644 -2.534848
v -18.727234 -6.069107 2.641073
v 17.447519 -6.069107 2.641073
v 26.989866 -3.862825 2.641073
v 26.989866 -3.862825 -2.641073
v 17.447519 -6.069107 -2.641073
v -18.727234 -6.069107 -2.641073
v -26.989868 -2.702841 -2.641073
v -26.989868 -2.702841 2.641073
v -13.768606 -25.811697 2.641073
v 12.488889 -25.811697 2.641073
v 12.488889 -9.472455 2.641073
v -13.768606 -9.472455 2.641073
v -13.768606 -8.208547 -2.641073
v -13.768606 -26.465118 -2.641073
v 12.488889 -8.208547 -2.641073
v 12.488889 -26.465118 -2.641073
v -13.768606 -22.813803 -2.641073
v -13.768606 -22.543848 2.641073
v 12.488889 -22.543848 2.641073
v 12.488889 -22.813803 -2.641073
v -13.768606 -19.162491 -2.641073
v -13.768606 -19.275999 2.641073
v 12.488889 -19.275999 2.641073
v 12.488889 -19.162491 -2.641073
v -13.768606 -15.511176 -2.641073
v -13.768606 -16.008150 2.641073
v 12.488889 -16.008150 2.641073
v 12.488889 -15.511176 -2.641073
v -13.768606 -11.859862 -2.641073
v -13.768606 -12.740304 2.641073
v 12.488889 -12.740304 2.641073
v 12.488889 -11.859862 -2.641073
vt 0.080370 0.300455
vt 0.080370 0.300455
vt 0.080370 0.300455
vt 0.080370 0.300455
vt 0.080370 0.300455
vt 0.080370 0.300455
vt 0.080370 0.300455
vt 0.080370 0.300455
vt 0.080370 0.300455
vt 0.080370 0.300455
vt 0.080370 0.300455
vt 0.080370 0.300455
vt 0.080370 0.300455
vt 0.080370 0.300455
vt 0.080370 0.300455
vt 0.080370 0.300455
vt 0.080370 0.300455
vt 0.080370 0.300455
vt 0.080370 0.300455
vt 0.080370 0.300455
vt 0.080370 0.300455
vt 0.080370 0.300455
vt 0.080370 0.300455
vt 0.080370 0.300455
vt 0.080370 0.300455
vt 0.080370 0.300455
vt 0.080370 0.300455
vt 0.080370 0.300455
vt 0.080370 0.300455
vt 0.080370 0.300455
vt 0.080370 0.300455
vt 0.080370 0.300455
vt 0.080370 0.300455
vt 0.080370 0.300455
vt 0.080370 0.300455
vt 0.091280 0.354169
vt 0.091280 0.354169
vt 0.091280 0.354169
vt 0.091280 0.354169
vt 0.091280 0.354169
vt 0.091280 0.354169
vt 0.091280 0.354169
vt 0.091280 0.354169
vt 0.091280 0.354169
vt 0.091280 0.354169
vt 0.091280 0.354169
vt 0.091280 0.354169
vt 0.091280 0.354169
vt 0.091280 0.354169
vt 0.091280 0.354169
vt 0.091280 0.354169
vt 0.080370 0.300455
vt 0.080370 0.300455
vt 0.080370 0.300455
vt 0.080370 0.300455
vt 0.080370 0.300455
vt 0.080370 0.300455
vt 0.080370 0.300455
vt 0.080370 0.300455
vt 0.091280 0.354169
vt 0.091280 0.354169
vt 0.091280 0.354169
vt 0.091280 0.354169
vt 0.091280 0.354169
vt 0.091280 0.354169
vt 0.091280 0.354169
vt 0.091280 0.354169
vt 0.091280 0.354169
vt 0.091280 0.354169
vt 0.091280 0.354169
vt 0.091280 0.354169
vt 0.091280 0.354169
vt 0.091280 0.354169
vt 0.091280 0.354169
vt 0.091280 0.354169
vt 0.102190 0.352490
vt 0.102190 0.352490
vt 0.243364 0.304255
vt 0.243364 0.304255
vt 0.102190 0.352490
vt 0.243364 0.304255
vt 0.243364 0.304255
vt 0.102190 0.352490
vt 0.102190 0.352490
vt 0.080370 0.300455
vt 0.080370 0.300455
vt 0.102190 0.352490
vt 0.080370 0.300455
vt 0.080370 0.300455
vt 0.080370 0.300455
vt 0.102190 0.352490
vt 0.080370 0.300455
vt 0.080370 0.300455
vt 0.102190 0.352490
vt 0.080370 0.300455
vt 0.080370 0.300455
vt 0.080370 0.300455
vt 0.243364 0.304255
vt 0.243364 0.304255
vt 0.243364 0.304255
vt 0.243364 0.304255
vt 0.102190 0.352490
vt 0.102190 0.352490
vt 0.102190 0.352490
vt 0.102190 0.352490
vt 0.102190 0.352490
vt 0.102190 0.352490
vt 0.102190 0.352490
vt 0.102190 0.352490
vt 0.102190 0.352490
vt 0.102190 0.352490
vt 0.102190 0.352490
vt 0.102190 0.352490
vt 0.102190 0.352490
vt 0.102190 0.352490
vt 0.102190 0.352490
vt 0.102190 0.352490
vt 0.102190 0.352490
vt 0.102190 0.352490
vt 0.102190 0.352490
vt 0.102190 0.352490
vt 0.102190 0.352490
vt 0.102190 0.352490
vt 0.102190 0.352490
vt 0.102190 0.352490
vt 0.078708 0.277571
vt 0.078708 0.277571
vt 0.078708 0.277571
vt 0.078708 0.277571
vt 0.080010 0.254142
vt 0.080010 0.254142
vt 0.080010 0.254142
vt 0.080010 0.254142
vt 0.078708 0.277571
vt 0.078708 0.277571
vt 0.078708 0.277571
vt 0.078708 0.277571
vt 0.080010 0.254142
vt 0.080010 0.254142
vt 0.080010 0.254142
vt 0.080010 0.254142
vt 0.078708 0.277571
vt 0.078708 0.277571
vt 0.078708 0.277571
vt 0.078708 0.277571
vt 0.080010 0.254142
vt 0.080010 0.254142
vt 0.080010 0.254142
vt 0.080010 0.254142
vn -0.000000 0.000000 1.000000
vn -0.000000 0.000000 1.000000
vn -0.000000 0.000000 1.000000
vn -0.000000 0.000000 1.000000
vn 0.000000 0.000000 1.000000
vn -0.000000 0.000000 1.000000
vn -0.000000 0.000000 1.000000
vn 0.000000 0.000000 1.000000
vn 0.000000 0.000000 1.000000
vn 0.000000 0.000000 1.000000
vn 0.000000 0.000000 1.000000
vn 0.000000 0.000000 1.000000
vn 0.000000 0.000000 1.000000
vn 0.000000 0.000000 1.000000
vn 0.000000 0.000000 1.000000
vn 0.000000 0.000000 1.000000
vn 0.000000 0.000000 1.000000
vn 0.000000 0.000000 1.000000
vn 0.000000 0.000000 1.000000
vn 0.000000 0.000000 1.000000
vn -0.000000 0.000000 1.000000
vn 0.000000 0.000000 1.000000
vn 0.000000 0.000000 1.000000
vn 0.000000 0.000000 1.000000
vn 0.000000 0.000000 1.000000
vn 0.000000 0.000000 1.000000
vn 0.000000 0.000000 1.000000
vn 0.000000 0.000000 1.000000
vn -0.000000 0.000000 1.000000
vn 0.000000 0.000000 1.000000
vn 0.000000 0.000000 1.000000
vn -0.000000 0.000000 1.000000
vn -0.000000 0.000000 1.000000
vn -0.000000 0.000000 -1.000000
vn 0.000000 0.000000 -1.000000
vn 0.000000 0.000000 -1.000000
vn -0.000000 0.000000 -1.000000
vn 0.000000 0.000000 -1.000000
vn 0.000000 0.000000 -1.000000
vn 0.000000 0.000000 -1.000000
vn -0.000000 0.000000 -1.000000
vn 0.000000 0.000000 -1.000000
vn -0.000000 0.000000 -1.000000
vn -0.000000 0.000000 -1.000000
vn -0.000000 0.000000 -1.000000
vn 0.000000 0.000000 -1.000000
vn 0.000000 0.000000 -1.000000
vn 0.000000 0.000000 -1.000000
vn 0.000000 0.000000 -1.000000
vn 0.000000 0.000000 -1.000000
vn -0.000000 0.000000 -1.000000
vn 0.000000 0.000000 -1.000000
vn 0.000000 0.000000 -1.000000
vn -0.000000 0.000000 -1.000000
vn 0.000000 0.000000 -1.000000
vn -0.000000 0.000000 -1.000000
vn 0.000000 0.000000 -1.000000
vn 0.000000 0.000000 -1.000000
vn 0.000000 0.000000 -1.000000
vn 0.000000 0.000000 -1.000000
vn 0.000000 0.000000 -1.000000
vn -0.000000 0.000000 -1.000000
vn -0.000000 0.000000 -1.000000
vn -0.000000 0.000000 -1.000000
vn -0.000000 0.000000 -1.000000
vn -0.000000 0.000000 -1.000000
vn 1.000000 0.000000 0.000000
vn 1.000000 0.000000 0.000000
vn 1.000000 0.000000 0.000000
vn 1.000000 0.000000 0.000000
vn 0.647398 0.762152 0.000000
vn 0.647398 0.762152 0.000000
vn 0.647398 0.762152 0.000000
vn 0.647398 0.762152 0.000000
vn 0.000000 1.000000 0.000000
vn 0.000000 1.000000 0.000000
vn 0.000000 1.000000 0.000000
vn 0.000000 1.000000 0.000000
vn 0.000000 1.000000 0.000000
vn 0.000000 1.000000 0.000000
vn 0.000000 1.000000 0.000000
vn 0.000000 1.000000 0.000000
vn -1.000000 0.000000 0.000000
vn -1.000000 0.000000 0.000000
vn -1.000000 0.000000 0.000000
vn -1.000000 0.000000 0.000000
vn 0.000000 1.000000 0.000000
vn 0.000000 1.000000 0.000000
vn 0.000000 1.000000 0.000000
vn 0.000000 1.000000 0.000000
vn 0.000000 -1.000000 0.000000
vn 0.000000 -1.000000 0.000000
vn 0.000000 -1.000000 0.000000
vn 0.000000 -1.000000 0.000000
vn 0.000000 -1.000000 0.000000
vn 0.000000 -1.000000 0.000000
vn 0.000000 -1.000000 0.000000
vn 0.000000 -1.000000 0.000000
vn 0.000000 -1.000000 0.000000
vn 0.000000 -1.000000 0.000000
vn 0.000000 -1.000000 0.000000
vn 0.000000 -1.000000 0.000000
vn 0.000000 -1.000000 0.000000
vn 0.000000 -1.000000 0.000000
vn 0.000000 -1.000000 0.000000
vn 0.000000 -1.000000 0.000000
vn 1.000000 0.000000 0.000000
vn 1.000000 0.000000 0.000000
vn 1.000000 0.000000 0.000000
vn 1.000000 0.000000 0.000000
vn 0.000000 1.000000 0.000000
vn 0.000000 1.000000 0.000000
vn 0.000000 1.000000 0.000000
vn 0.000000 1.000000 0.000000
vn -1.000000 0.000000 0.000000
vn -1.000000 0.000000 0.000000
vn -1.000000 0.000000 0.000000
vn -1.000000 0.000000 0.000000
vn -1.000000 0.000000 0.000000
vn -1.000000 0.000000 0.000000
vn -1.000000 0.000000 0.000000
vn -1.000000 0.000000 0.000000
vn 0.000000 1.000000 0.000000
vn 0.000000 1.000000 0.000000
vn 0.000000 1.000000 0.000000
vn 0.000000 1.000000 0.000000
vn 1.000000 0.000000 0.000000
vn 1.000000 0.000000 0.000000
vn 1.000000 0.000000 0.000000
vn 1.000000 0.000000 0.000000
vn 0.000000 -1.000000 0.000000
vn 0.000000 -1.000000 0.000000
vn 0.000000 -1.000000 0.000000
vn 0.000000 -1.000000 0.000000
vn 0.000000 0.000000 1.000000
vn 0.000000 0.000000 1.000000
vn 0.000000 0.000000 1.000000
vn 0.000000 0.000000 1.000000
vn -0.000000 0.000000 1.000000
vn -0.000000 0.000000 1.000000
vn -0.000000 0.000000 1.000000
vn -0.000000 0.000000 1.000000
vn 0.000000 0.000000 1.000000
vn 0.000000 0.000000 1.000000
vn 0.000000 0.000000 1.000000
vn 0.000000 0.000000 1.000000
vn 0.000000 0.000000 1.000000
vn 0.000000 0.000000 1.000000
vn 0.000000 0.000000 1.000000
vn 0.000000 0.000000 1.000000
vn 0.000000 0.000000 -1.000000
vn 0.000000 0.000000 -1.000000
vn 0.000000 0.000000 -1.000000
vn 0.000000 0.000000 -1.000000
vn 0.000000 0.000000 -1.000000
vn 0.000000 0.000000 -1.000000
vn 0.000000 0.000000 -1.000000
vn 0.000000 0.000000 -1.000000
vn 0.000000 0.000000 -1.000000
vn 0.000000 0.000000 -1.000000
vn 0.000000 0.000000 -1.000000
vn 0.000000 0.000000 -1.000000
vn 0.000000 0.000000 -1.000000
vn 0.000000 0.000000 -1.000000
vn 0.000000 0.000000 -1.000000
vn 0.000000 0.000000 -1.000000
vn 0.000000 1.000000 0.000000
vn 0.000000 1.000000 0.000000
vn 0.000000 1.000000 0.000000
vn 0.000000 1.000000 0.000000
vn -1.000000 0.000000 0.000000
vn -1.000000 0.000000 0.000000
vn -1.000000 0.000000 0.000000
vn -1.000000 0.000000 0.000000
vn 0.000000 -1.000000 0.000000
vn 0.000000 -1.000000 0.000000
vn 0.000000 -1.000000 0.000000
vn 0.000000 -1.000000 0.000000
vn 1.000000 0.000000 0.000000
vn 1.000000 0.000000 0.000000
vn 1.000000 0.000000 0.000000
vn 1.000000 0.000000 0.000000
vn 1.000000 0.000000 0.000000
vn 1.000000 0.000000 0.000000
vn 1.000000 0.000000 0.000000
vn 1.000000 0.000000 0.000000
vn 0.000000 -1.000000 0.000000
vn 0.000000 -1.000000 0.000000
vn 0.000000 -1.000000 0.000000
vn 0.000000 -1.000000 0.000000
vn -1.000000 0.000000 0.000000
vn -1.000000 0.000000 0.000000
vn -1.000000 0.000000 0.000000
vn -1.000000 0.000000 0.000000
vn 0.000000 1.000000 0.000000
vn 0.000000 1.000000 0.000000
vn 0.000000 1.000000 0.000000
vn 0.000000 1.000000 0.000000
vn 0.000000 0.000000 1.000000
vn 0.000000 0.000000 1.000000
vn 0.000000 0.000000 1.000000
vn 0.000000 0.000000 1.000000
vn -0.000000 0.000000 1.000000
vn 0.000000 0.000000 1.000000
vn 0.000000 0.000000 1.000000
vn 0.000000 0.000000 1.000000
vn 1.000000 0.000000 0.000000
vn 1.000000 0.000000 0.000000
vn 1.000000 0.000000 0.000000
vn 1.000000 0.000000 0.000000
vn -0.000000 0.000000 -1.000000
vn -0.000000 0.000000 -1.000000
vn 0.000000 0.000000 -1.000000
vn 0.000000 0.000000 -1.000000
vn 0.000000 0.000000 -1.000000
vn 0.000000 0.000000 -1.000000
vn 0.000000 0.000000 -1.000000
vn 0.000000 0.000000 -1.000000
vn 0.000000 0.000000 -1.000000
vn 0.000000 0.000000 -1.000000
vn 0.000000 0.000000 -1.000000
vn 0.000000 0.000000 -1.000000
vn -1.000000 0.000000 0.000000
vn -1.000000 0.000000 0.000000
vn -1.000000 0.000000 0.000000
vn -1.000000 0.000000 0.000000
vn 0.000000 0.000000 1.000000
vn 0.000000 0.000000 1.000000
vn 0.000000 0.000000 1.000000
vn 0.000000 0.000000 1.000000
vn 0.000000 0.000000 1.000000
vn 0.000000 0.000000 1.000000
vn 0.000000 0.000000 1.000000
vn 0.000000 0.000000 1.000000
vn 0.000000 0.000000 1.000000
vn 0.000000 0.000000 1.000000
vn 0.000000 0.000000 1.000000
vn 0.000000 0.000000 1.000000
vn 0.000000 0.000000 1.000000
vn 0.000000 0.000000 1.000000
vn 0.000000 0.000000 1.000000
vn 0.000000 0.000000 1.000000
vn -0.000000 0.000000 1.000000
vn -0.000000 0.000000 1.000000
vn 0.000000 0.000000 1.000000
vn 0.000000 0.000000 1.000000
vn 0.000000 0.000000 1.000000
vn 0.000000 0.000000 1.000000
vn 0.000000 0.000000 1.000000
vn 0.000000 0.000000 1.000000
vn 0.000000 0.000000 1.000000
vn 0.000000 0.000000 1.000000
vn 0.000000 0.000000 1.000000
vn 0.000000 0.000000 1.000000
vn 0.000000 0.000000 1.000000
vn 0.000000 0.000000 1.000000
vn 0.000000 0.000000 1.000000
vn 0.000000 0.000000 1.000000
vn -0.000000 0.000000 1.000000
vn 0.000000 0.000000 1.000000
vn 0.000000 0.000000 1.000000
vn -0.000000 0.000000 1.000000
vn 0.000000 0.000000 1.000000
vn 0.000000 0.000000 1.000000
vn -0.000000 0.000000 1.000000
vn 0.000000 0.000000 1.000000
vn -0.000000 0.000000 1.000000
vn -0.000000 0.000000 1.000000
vn -0.000000 0.000000 1.000000
vn -0.000000 0.000000 1.000000
vn -0.000000 0.000000 1.000000
vn -0.000000 0.000000 1.000000
vn 0.000000 0.000000 1.000000
vn -0.000000 0.000000 1.000000
vn -0.000000 0.000000 -1.000000
vn -0.000000 0.000000 -1.000000
vn -0.000000 0.000000 -1.000000
vn -0.000000 0.000000 -1.000000
vn -0.000000 0.000000 -1.000000
vn 0.000000 0.000000 -1.000000
vn 0.000000 0.000000 -1.000000
vn -0.000000 0.000000 -1.000000
vn 0.000000 0.000000 -1.000000
vn 0.000000 0.000000 -1.000000
vn -0.000000 0.000000 -1.000000
vn -0.000000 0.000000 -1.000000
vn -0.000000 0.000000 -1.000000
vn -0.000000 0.000000 -1.000000
vn 0.000000 0.000000 -1.000000
vn -0.000000 0.000000 -1.000000
vn -0.000000 0.000000 -1.000000
vn 0.000000 0.000000 -1.000000
vn 0.000000 0.000000 -1.000000
vn 0.000000 0.000000 -1.000000
vn 0.000000 0.000000 -1.000000
vn 0.000000 0.000000 -1.000000
vn 0.000000 0.000000 -1.000000
vn 0.000000 0.000000 -1.000000
vn 0.000000 0.000000 -1.000000
vn 0.000000 0.000000 -1.000000
vn -0.000000 0.000000 -1.000000
vn 0.000000 0.000000 -1.000000
vn -0.000000 0.000000 -1.000000
vn -0.000000 0.000000 -1.000000
vn 0.000000 0.000000 -1.000000
vn -0.000000 0.000000 -1.000000
vn 0.000000 0.000000 -1.000000
vn 0.000000 0.000000 -1.000000
vn 0.000000 0.000000 -1.000000
vn -0.000000 0.000000 -1.000000
vn 0.000000 0.000000 -1.000000
vn -0.000000 0.000000 -1.000000
vn 0.000000 0.000000 -1.000000
vn 0.000000 0.000000 -1.000000
vn 0.000000 0.000000 -1.000000
vn 0.000000 0.000000 -1.000000
vn 0.000000 0.000000 -1.000000
vn 0.000000 0.000000 -1.000000
vn 0.000000 0.000000 1.000000
vn 0.000000 0.000000 1.000000
vn 0.000000 0.000000 1.000000
vn 0.000000 0.000000 1.000000
vn 0.000000 0.000000 -1.000000
vn 0.000000 0.000000 -1.000000
vn 0.000000 0.000000 -1.000000
vn 0.000000 0.000000 -1.000000
vn 0.000000 0.000000 1.000000
vn 0.000000 0.000000 1.000000
vn 0.000000 0.000000 1.000000
vn 0.000000 0.000000 1.000000
vn 0.000000 0.000000 -1.000000
vn 0.000000 0.000000 -1.000000
vn 0.000000 0.000000 -1.000000
vn 0.000000 0.000000 -1.000000
vn 0.000000 0.000000 1.000000
vn 0.000000 0.000000 1.000000
vn 0.000000 0.000000 1.000000
vn 0.000000 0.000000 1.000000
vn 0.000000 0.000000 -1.000000
vn 0.000000 0.000000 -1.000000
vn 0.000000 0.000000 -1.000000
vn 0.000000 0.000000 -1.000000
vn 0.000000 0.000000 1.000000
vn 0.000000 0.000000 1.000000
vn 0.000000 0.000000 1.000000
vn 0.000000 0.000000 1.000000
vn 0.000000 0.000000 -1.000000
vn 0.000000 0.000000 -1.000000
vn 0.000000 0.000000 -1.000000
vn 0.000000 0.000000 -1.000000
s off
f 14/12/1 53/88/2 15/27/3 16/28/4
f 17/11/5 14/12/6 16/28/7 18/29/8
f 58/97/9 19/10/10 20/30/11 21/31/12
f 43/52/13 44/53/14 45/54/15 46/55/16
f 58/97/17 22/13/18 19/10/19
f 22/13/20 14/12/21 17/11/22 19/10/23
f 58/97/24 51/85/25 22/13/26
f 51/78/27 52/79/28 14/81/29 22/82/30
f 52/86/31 53/88/32 14/12/33
f 12/14/34 5/16/35 4/15/36 54/90/37
f 11/17/38 8/18/39 5/16/40 12/14/41
f 57/95/42 3/21/43 6/20/44 10/19/45
f 48/56/46 47/57/47 49/58/48 50/59/49
f 57/95/50 10/19/51 13/22/52
f 13/22/53 10/19/54 11/17/55 12/14/56
f 57/95/57 13/22/58 56/93/59
f 56/98/60 13/99/61 12/100/62 55/101/63
f 55/92/64 12/14/65 54/90/66
f 54/89/67 4/4/68 15/27/69 53/88/70
f 4/4/71 5/5/72 16/28/73 15/27/74
f 5/5/75 8/8/76 18/29/77 16/28/78
f 6/6/79 3/3/80 21/31/81 20/30/82
f 3/3/83 57/96/84 58/97/85 21/31/86
f 8/36/87 6/37/88 20/38/89 18/39/90
f 1/1/91 7/7/92 24/33/93 23/32/94
f 7/80/95 9/83/96 25/77/97 24/76/98
f 25/34/99 9/9/100 2/2/101 26/35/102
f 19/40/103 17/41/104 28/42/105 27/43/106
f 17/41/107 18/39/108 29/44/109 28/42/110
f 18/39/111 20/38/112 30/45/113 29/44/114
f 20/38/115 19/40/116 27/43/117 30/45/118
f 10/46/119 6/37/120 31/47/121 32/48/122
f 6/37/123 8/36/124 33/49/125 31/47/126
f 8/36/127 11/50/128 34/51/129 33/49/130
f 11/50/131 10/46/132 32/48/133 34/51/134
f 27/43/135 28/42/136 36/60/137 35/61/138
f 28/42/139 29/44/140 37/62/141 36/60/142
f 29/44/143 30/45/144 38/63/145 37/62/146
f 30/45/147 27/43/148 35/61/149 38/63/150
f 32/48/151 31/47/152 39/64/153 40/65/154
f 31/47/155 33/49/156 41/66/157 39/64/158
f 33/49/159 34/51/160 42/67/161 41/66/162
f 34/51/163 32/48/164 40/65/165 42/67/166
f 35/61/167 36/60/168 44/68/169 43/69/170
f 36/60/171 37/62/172 45/70/173 44/68/174
f 37/62/175 38/63/176 46/71/177 45/70/178
f 38/63/179 35/61/180 43/69/181 46/71/182
f 40/65/183 39/64/184 47/72/185 48/73/186
f 39/64/187 41/66/188 49/74/189 47/72/190
f 41/66/191 42/67/192 50/75/193 49/74/194
f 42/67/195 40/65/196 48/73/197 50/75/198
f 80/126/199 81/127/200 61/128/201 62/129/202
f 53/88/203 52/86/204 25/34/205 26/35/206
f 54/89/207 53/88/208 26/35/209 2/2/210
f 55/92/211 54/90/212 2/26/213 9/25/214
f 82/130/215 79/131/216 63/132/217 65/133/218
f 57/95/219 56/93/220 7/24/221 1/23/222
f 58/97/223 57/96/224 1/1/225 23/32/226
f 51/85/227 58/97/228 23/32/229 24/33/230
f 24/76/231 25/77/232 60/103/233 59/102/234
f 25/77/235 52/87/236 60/103/237
f 60/103/238 52/87/239 69/112/240
f 69/112/241 52/87/242 73/116/243
f 73/116/244 52/87/245 77/120/246
f 77/120/247 52/87/248 81/124/249
f 52/87/250 61/104/251 81/124/252
f 52/87/253 51/84/254 62/105/255 61/104/256
f 24/76/257 59/102/258 51/84/259
f 59/102/260 68/111/261 51/84/262
f 68/111/263 72/115/264 51/84/265
f 72/115/266 76/119/267 51/84/268
f 76/119/269 80/123/270 51/84/271
f 80/123/272 62/105/273 51/84/274
f 7/80/275 56/94/276 64/106/277
f 64/106/278 56/94/279 67/110/280
f 67/110/281 56/94/282 71/114/283
f 71/114/284 56/94/285 75/118/286
f 75/118/287 56/94/288 79/122/289
f 56/94/290 63/107/291 79/122/292
f 56/94/293 55/91/294 65/108/295 63/107/296
f 9/83/297 66/109/298 55/91/299
f 66/109/300 70/113/301 55/91/302
f 70/113/303 74/117/304 55/91/305
f 74/117/306 78/121/307 55/91/308
f 78/121/309 82/125/310 55/91/311
f 82/125/312 65/108/313 55/91/314
f 9/83/315 7/80/316 64/106/317 66/109/318
f 59/134/319 60/135/320 69/136/321 68/137/322
f 64/138/323 67/139/324 70/140/325 66/141/326
f 68/111/327 69/112/328 73/116/329 72/115/330
f 70/113/331 67/110/332 71/114/333 74/117/334
f 72/142/335 73/143/336 77/144/337 76/145/338
f 74/146/339 71/147/340 75/148/341 78/149/342
f 76/119/343 77/120/344 81/124/345 80/123/346
f 78/121/347 75/118/348 79/122/349 82/125/350
