# This file uses meters as units for non-parametric coordinates.

v -17.427139 27.399063 4.465674
v 5.965995 -26.945381 -4.853553
v 17.903709 25.821972 -4.870989
v -5.737229 26.513443 -4.848709
v -17.476387 -26.980686 4.510194
v 17.427330 20.013046 5.207710
v 17.910995 -26.470490 -4.825552
v 4.918444 -12.875576 5.636025
v 18.765678 25.424137 0.086289
v 5.590820 2.916393 0.819129
v -18.797493 25.658245 0.039064
v -7.134895 -25.512486 4.895402
v -7.151717 -25.520594 -4.855005
v 18.797493 -26.330072 0.039674
v 17.427330 -27.399061 4.465674
v 7.617722 27.275963 4.465674
v -12.549247 -25.134621 5.707245
v 12.439193 25.460873 -5.657540
v -18.051071 -1.633148 4.949035
v 6.253280 0.028858 -5.150910
v -12.585258 26.371365 -5.638160
v 12.534217 -26.325512 5.693664
v 12.600405 -26.866112 -5.644110
v -6.209333 -1.464863 -5.150910
v 12.522546 25.028610 5.694160
v 6.380921 -0.549049 5.370026
v -18.775101 -25.540466 0.030249
v -12.567177 -25.596409 -5.707245
v -6.337967 -0.874634 5.370026
v -17.907257 25.829525 -4.822692
v -5.537644 -4.327087 0.815582
v -17.896425 -25.594084 -4.846804
v -5.527189 25.877590 4.866525
v -12.523042 25.848179 5.689239
v -8.207094 -27.329254 3.909149
v 17.733843 27.038956 3.909149
v 5.770111 -26.365471 4.870452
v 8.230859 27.070827 -4.716835
vt 0.247243 0.306986
vt 0.247243 0.306986
vt 0.247243 0.306986
vt 0.247243 0.306986
vt 0.247243 0.306986
vt 0.247243 0.306986
vt 0.247243 0.306986
vt 0.247243 0.306986
vt 0.247243 0.306986
vt 0.247243 0.306986
vt 0.247243 0.306986
vt 0.247243 0.306986
vt 0.247243 0.306986
vt 0.247243 0.306986
vt 0.247243 0.306986
vt 0.247243 0.306986
vt 0.247243 0.306986
vt 0.247243 0.306986
vt 0.247243 0.306986
vt 0.247243 0.306986
vt 0.247243 0.306986
vt 0.247243 0.306986
vt 0.247243 0.306986
vt 0.247243 0.306986
vt 0.247243 0.306986
vt 0.247243 0.306986
vt 0.247243 0.306986
vt 0.247243 0.306986
vt 0.247243 0.306986
vt 0.247243 0.306986
vt 0.247243 0.306986
vt 0.247243 0.306986
vt 0.247243 0.306986
vt 0.247243 0.306986
vt 0.247243 0.306986
vt 0.247243 0.306986
vt 0.247243 0.306986
vt 0.247243 0.306986
vt 0.247243 0.306986
vt 0.247243 0.306986
vt 0.247243 0.306986
vt 0.247243 0.306986
vt 0.247243 0.306986
vt 0.247243 0.306986
vt 0.247243 0.306986
vt 0.247243 0.306986
vt 0.247243 0.306986
vt 0.247243 0.306986
vt 0.247243 0.306986
vt 0.247243 0.306986
vt 0.247243 0.306986
vt 0.247243 0.306986
vt 0.247243 0.306986
vt 0.247243 0.306986
vt 0.247243 0.306986
vt 0.247243 0.306986
vt 0.247243 0.306986
vt 0.247243 0.306986
vt 0.247243 0.306986
vt 0.247243 0.306986
vt 0.247243 0.306986
vt 0.247243 0.306986
vt 0.247243 0.306986
vt 0.247243 0.306986
vt 0.247243 0.306986
vt 0.247243 0.306986
vt 0.247243 0.306986
vt 0.247243 0.306986
vt 0.247243 0.306986
vt 0.247243 0.306986
vt 0.247243 0.306986
vt 0.247243 0.306986
vt 0.247243 0.306986
vt 0.247243 0.306986
vt 0.247243 0.306986
vt 0.247243 0.306986
vt 0.247243 0.306986
vt 0.247243 0.306986
vt 0.247243 0.306986
vt 0.247243 0.306986
vt 0.247243 0.306986
vn 0.006867 -0.998953 0.045231
vn 0.006867 -0.998953 0.045231
vn 0.006867 -0.998953 0.045231
vn 0.058383 0.573926 0.816824
vn 0.058383 0.573926 0.816823
vn 0.058383 0.573926 0.816823
vn -0.046532 -0.988427 -0.144385
vn -0.046532 -0.988427 -0.144385
vn -0.046532 -0.988427 -0.144385
vn -0.055701 0.984960 -0.163558
vn -0.055701 0.984960 -0.163558
vn -0.055701 0.984960 -0.163558
vn 0.899623 0.408328 0.154748
vn 0.899623 0.408328 0.154748
vn 0.899623 0.408328 0.154748
vn -0.235694 0.021242 0.971595
vn -0.235694 0.021242 0.971595
vn -0.235694 0.021242 0.971595
vn -0.574867 -0.812756 -0.094636
vn -0.574867 -0.812756 -0.094636
vn -0.574867 -0.812756 -0.094636
vn -0.117487 -0.055470 -0.991524
vn -0.117487 -0.055470 -0.991524
vn -0.117487 -0.055470 -0.991524
vn 0.152399 -0.000838 -0.988319
vn 0.152399 -0.000838 -0.988319
vn 0.152399 -0.000838 -0.988319
vn -0.976882 0.050176 0.207809
vn -0.976882 0.050176 0.207809
vn -0.976882 0.050176 0.207809
vn 0.966029 0.005610 0.258373
vn 0.966029 0.005610 0.258373
vn 0.966029 0.005610 0.258373
vn 0.747415 0.659880 -0.077003
vn 0.747415 0.659880 -0.077003
vn 0.747415 0.659880 -0.077003
vn 0.983802 -0.000019 -0.179259
vn 0.983802 -0.000019 -0.179259
vn 0.983802 -0.000019 -0.179259
vn -0.057814 -0.854325 0.516513
vn -0.057814 -0.854325 0.516513
vn -0.057814 -0.854325 0.516513
vn -0.023439 -0.022863 -0.999464
vn -0.023439 -0.022863 -0.999464
vn -0.023439 -0.022863 -0.999464
vn 0.113020 0.062483 -0.991626
vn 0.113020 0.062483 -0.991626
vn 0.113020 0.062483 -0.991626
vn -0.089670 -0.062074 0.994035
vn -0.089670 -0.062074 0.994035
vn -0.089670 -0.062074 0.994035
vn -0.957739 0.025353 0.286519
vn -0.957739 0.025353 0.286519
vn -0.957739 0.025353 0.286519
vn 0.073965 0.751289 0.655815
vn 0.073965 0.751289 0.655815
vn 0.073965 0.751289 0.655815
vn -0.053106 0.955973 0.288609
vn -0.053106 0.955973 0.288609
vn -0.053106 0.955973 0.288609
vn -0.962365 -0.026501 0.270465
vn -0.962365 -0.026501 0.270465
vn -0.962365 -0.026501 0.270465
vn -0.984156 -0.000400 -0.177306
vn -0.984156 -0.000400 -0.177306
vn -0.984156 -0.000400 -0.177306
vn -0.989016 -0.000458 0.147806
vn -0.989016 -0.000458 0.147806
vn -0.989016 -0.000458 0.147806
vn -0.983645 -0.000123 -0.180119
vn -0.983645 -0.000123 -0.180119
vn -0.983645 -0.000123 -0.180119
vn 0.004438 0.021048 0.999769
vn 0.004438 0.021048 0.999769
vn 0.004438 0.021048 0.999769
vn -0.048211 -0.023087 0.998570
vn -0.048211 -0.023087 0.998570
vn -0.048211 -0.023087 0.998570
vn 0.116431 0.051078 0.991885
vn 0.116431 0.051078 0.991884
vn 0.116431 0.051078 0.991884
vn 0.395591 -0.027124 0.918026
vn 0.395591 -0.027124 0.918026
vn 0.395591 -0.027124 0.918026
vn 0.038204 -0.974085 0.222934
vn 0.038204 -0.974085 0.222934
vn 0.038204 -0.974085 0.222934
vn 0.968502 -0.003897 0.248975
vn 0.968502 -0.003897 0.248975
vn 0.968502 -0.003897 0.248975
vn 0.955251 0.000321 0.295796
vn 0.955251 0.000321 0.295796
vn 0.955251 0.000321 0.295796
vn 0.985227 0.000760 -0.171250
vn 0.985227 0.000760 -0.171250
vn 0.985227 0.000760 -0.171250
vn -0.986551 0.074482 -0.145496
vn -0.986551 0.074482 -0.145496
vn -0.986551 0.074482 -0.145496
vn -0.993324 0.092892 -0.068402
vn -0.993324 0.092892 -0.068402
vn -0.993324 0.092892 -0.068402
vn -0.224759 0.041631 0.973525
vn -0.224759 0.041631 0.973525
vn -0.224759 0.041631 0.973525
vn -0.052614 -0.000022 0.998615
vn -0.052614 -0.000022 0.998615
vn -0.052614 -0.000022 0.998615
vn 0.082878 -0.015595 0.996438
vn 0.082878 -0.015595 0.996438
vn 0.082878 -0.015595 0.996438
vn 0.243424 0.000046 0.969920
vn 0.243424 0.000046 0.969920
vn 0.243424 0.000046 0.969920
vn -0.120700 -0.016351 0.992554
vn -0.120700 -0.016351 0.992554
vn -0.120700 -0.016351 0.992554
vn -0.206802 0.030821 -0.977897
vn -0.206802 0.030821 -0.977897
vn -0.206802 0.030821 -0.977897
vn -0.079581 -0.000501 -0.996828
vn -0.079581 -0.000501 -0.996828
vn -0.079581 -0.000501 -0.996828
vn 0.142458 0.000185 -0.989801
vn 0.142458 0.000185 -0.989801
vn 0.142458 0.000185 -0.989801
vn 0.076600 0.036349 -0.996399
vn 0.076600 0.036349 -0.996399
vn 0.076600 0.036349 -0.996399
vn 0.146619 -0.023793 0.988907
vn 0.146619 -0.023793 0.988907
vn 0.146619 -0.023793 0.988907
vn 0.052944 0.000325 0.998598
vn 0.052944 0.000325 0.998598
vn 0.052944 0.000325 0.998597
vn -0.228226 -0.022026 0.973359
vn -0.228226 -0.022026 0.973359
vn -0.228226 -0.022026 0.973359
vn -0.134763 0.000419 0.990878
vn -0.134763 0.000419 0.990878
vn -0.134763 0.000419 0.990878
vn 0.155682 -0.018248 -0.987639
vn 0.155682 -0.018248 -0.987639
vn 0.155682 -0.018248 -0.987639
vn -0.159392 0.000429 -0.987215
vn -0.159392 0.000429 -0.987215
vn -0.159392 0.000429 -0.987215
vn 0.082071 0.001353 -0.996626
vn 0.082071 0.001353 -0.996626
vn 0.082071 0.001353 -0.996626
vn -0.151583 0.001261 -0.988444
vn -0.151584 0.001261 -0.988444
vn -0.151584 0.001261 -0.988444
vn 0.910994 0.412356 0.007293
vn 0.910994 0.412356 0.007293
vn 0.910994 0.412356 0.007293
vn 0.885209 0.449647 -0.119255
vn 0.885209 0.449647 -0.119255
vn 0.885209 0.449647 -0.119255
vn -0.890368 -0.455148 0.009208
vn -0.890368 -0.455148 0.009208
vn -0.890368 -0.455148 0.009208
vn -0.896801 -0.429745 -0.105197
vn -0.896801 -0.429745 -0.105197
vn -0.896801 -0.429745 -0.105197
vn -0.889413 -0.425730 0.166430
vn -0.889413 -0.425730 0.166430
vn -0.889413 -0.425730 0.166430
vn -0.653388 0.751268 -0.093174
vn -0.653388 0.751268 -0.093174
vn -0.653388 0.751268 -0.093174
vn 0.124519 0.990271 0.062120
vn 0.124519 0.990271 0.062120
vn 0.124519 0.990271 0.062120
vn 0.979353 -0.035512 0.199015
vn 0.979353 -0.035512 0.199015
vn 0.979353 -0.035512 0.199015
vn 0.990571 -0.040416 -0.130904
vn 0.990571 -0.040416 -0.130904
vn 0.990571 -0.040416 -0.130904
vn 0.997145 -0.075498 -0.001658
vn 0.997145 -0.075498 -0.001658
vn 0.997145 -0.075498 -0.001658
vn 0.861458 -0.507828 -0.001064
vn 0.861458 -0.507828 -0.001064
vn 0.861458 -0.507828 -0.001064
vn 0.006546 -0.979497 -0.201351
vn 0.006546 -0.979497 -0.201351
vn 0.006546 -0.979497 -0.201351
vn 0.022271 0.999535 -0.020842
vn 0.022271 0.999535 -0.020842
vn 0.022271 0.999535 -0.020842
vn 0.124796 0.983112 -0.133851
vn 0.124796 0.983112 -0.133851
vn 0.124796 0.983112 -0.133851
vn 0.480852 -0.874580 -0.062375
vn 0.480852 -0.874580 -0.062375
vn 0.480852 -0.874580 -0.062375
vn 0.039764 -0.994459 -0.097317
vn 0.039764 -0.994459 -0.097317
vn 0.039764 -0.994459 -0.097317
vn -0.086188 -0.994614 0.057580
vn -0.086188 -0.994614 0.057580
vn -0.086188 -0.994614 0.057580
vn 0.029450 -0.597979 0.800971
vn 0.029450 -0.597979 0.800971
vn 0.029450 -0.597979 0.800971
vn 0.091639 -0.516317 0.851480
vn 0.091639 -0.516317 0.851480
vn 0.091639 -0.516317 0.851480
vn 0.262323 0.164304 0.950890
vn 0.262323 0.164304 0.950890
vn 0.262323 0.164304 0.950890
vn 0.069314 0.632126 -0.771759
vn 0.069314 0.632126 -0.771759
vn 0.069314 0.632126 -0.771759
s off
f 32/1/1 28/2/2 13/3/3
f 16/4/4 25/5/5 36/6/6
f 5/7/7 32/8/8 35/9/9
f 1/10/10 4/11/11 30/12/12
f 26/13/13 10/14/14 33/15/15
f 1/16/16 19/17/17 34/18/18
f 5/19/19 27/20/20 32/21/21
f 2/22/22 21/23/23 23/24/24
f 7/25/25 23/24/26 3/26/27
f 16/27/28 10/28/29 26/29/30
f 6/30/31 9/31/32 36/32/33
f 36/32/34 9/31/35 3/33/36
f 7/34/37 3/33/38 14/35/39
f 15/36/40 22/37/41 37/38/42
f 2/22/43 24/39/44 21/23/45
f 4/40/46 20/41/47 21/23/48
f 37/38/49 8/42/50 29/43/51
f 1/44/52 11/45/53 19/46/54
f 1/16/55 34/18/56 33/47/57
f 4/40/58 21/23/59 30/48/60
f 19/46/61 27/20/62 5/19/63
f 27/20/64 11/45/65 32/21/66
f 19/46/67 11/45/68 27/20/69
f 11/45/70 30/49/71 32/21/72
f 33/47/73 8/42/74 26/50/75
f 8/42/76 34/18/77 29/43/78
f 33/47/79 34/18/80 8/42/81
f 8/42/82 37/38/83 26/50/84
f 2/22/85 23/24/86 7/25/87
f 15/51/88 9/31/89 6/30/90
f 14/35/91 9/31/92 15/51/93
f 14/35/94 3/33/95 9/31/96
f 10/28/97 38/52/98 20/53/99
f 16/27/100 38/52/101 10/28/102
f 26/50/103 25/5/104 16/4/105
f 22/37/106 25/5/107 26/50/108
f 25/5/109 15/36/110 6/54/111
f 22/37/112 15/36/113 25/5/114
f 37/38/115 22/37/116 26/50/117
f 38/55/118 18/56/119 20/41/120
f 18/56/121 23/24/122 20/41/123
f 3/26/124 23/24/125 18/56/126
f 23/24/127 21/23/128 20/41/129
f 29/43/130 17/57/131 12/58/132
f 34/18/133 17/57/134 29/43/135
f 17/57/136 19/17/137 5/59/138
f 34/18/139 19/17/140 17/57/141
f 13/3/142 28/2/143 24/39/144
f 30/48/145 28/2/146 32/1/147
f 28/2/148 21/23/149 24/39/150
f 30/48/151 21/23/152 28/2/153
f 33/15/154 20/60/155 4/61/156
f 33/15/157 10/14/158 20/60/159
f 31/62/160 2/63/161 37/64/162
f 31/62/163 24/65/164 2/63/165
f 29/66/166 31/62/167 37/64/168
f 30/49/169 11/45/170 1/44/171
f 33/67/172 4/11/173 1/10/174
f 31/68/175 29/69/176 12/70/177
f 31/68/178 13/71/179 24/72/180
f 12/70/181 13/71/182 31/68/183
f 12/70/184 35/73/185 13/71/186
f 35/9/187 32/8/188 13/74/189
f 36/75/190 38/76/191 16/77/192
f 36/75/193 3/78/194 38/76/195
f 7/34/196 14/35/197 15/51/198
f 7/79/199 15/80/200 2/63/201
f 15/80/202 37/64/203 2/63/204
f 35/81/205 17/57/206 5/59/207
f 35/81/208 12/58/209 17/57/210
f 36/6/211 25/5/212 6/54/213
f 38/55/214 3/26/215 18/56/216
