# This file uses meters as units for non-parametric coordinates.

v -13.448516 -9.621509 7.798346
v 21.687832 -9.621509 7.798346
v -13.448516 9.621509 7.798346
v 21.687832 9.621509 7.798346
v -13.448516 9.621509 -7.798346
v 21.687832 9.621509 -7.798346
v -13.448516 -9.621509 -7.798346
v 21.687832 -9.621509 -7.798346
v -6.218374 10.472938 12.093000
v -6.218374 -10.472938 12.093000
v -6.218374 -14.077501 8.488439
v -6.218374 -14.077501 -8.488439
v -6.218374 -10.472938 -12.093000
v -6.218374 10.472938 -12.093000
v -6.218374 14.077501 -8.488439
v -6.218374 14.077501 8.488439
v 14.457693 10.472938 12.093000
v 14.457693 -10.472938 12.093000
v 14.457693 -14.077501 8.488439
v 14.457693 -14.077501 -8.488439
v 14.457693 -10.472938 -12.093000
v 14.457693 10.472938 -12.093000
v 14.457693 14.077501 -8.488439
v 14.457693 14.077501 8.488439
v -16.254116 3.761346 3.048617
v -16.254116 3.761346 -3.048617
v -16.254116 -3.761346 -3.048617
v -16.254116 -3.761346 3.048617
v 24.493433 -3.761346 -3.048617
v 24.493433 3.761346 -3.048617
v 24.493433 3.761346 3.048617
v 24.493433 -3.761346 3.048617
v -22.253593 8.690208 6.352865
v -22.253593 10.172306 3.521762
v -22.253593 -8.690208 -6.352865
v -22.253593 -10.172306 -3.521762
v 30.492908 -10.700960 1.169632
v 30.492908 9.886084 -4.259572
v 30.492908 10.700960 -1.169632
v 30.492908 -9.886084 4.259572
v -31.020855 14.609526 8.256520
v -31.020855 15.403688 6.658434
v -31.020855 -14.609526 -8.256520
v -31.020855 -15.403688 -6.658434
v 39.260170 -15.063179 7.396556
v 39.260170 14.192555 -8.954309
v 39.260170 15.063179 -7.396556
v 39.260170 -14.192555 8.954309
v 14.457693 0.000000 14.063608
v 21.687832 0.000000 9.069119
v 24.493433 0.000000 3.545402
v 30.492908 0.473833 1.796730
v 44.231369 0.838100 0.720328
v 44.231369 -0.174392 -1.091270
v 30.492908 -0.473833 -1.796730
v 24.493433 0.000000 -3.545402
v 21.687832 0.000000 -9.069119
v 14.457693 0.000000 -14.063608
v -6.218374 0.000000 -14.063608
v -13.448516 0.000000 -9.069119
v -16.254116 0.000000 -3.545402
v -22.253593 0.861806 -1.646222
v -35.283508 1.027404 -0.648171
v -35.283508 0.103827 1.210332
v -22.253593 -0.861806 1.646222
v -16.254116 0.000000 3.545402
v -13.448516 0.000000 9.069119
v -6.218374 0.000000 14.063608
vt 0.245167 0.302400
vt 0.245167 0.302400
vt 0.245167 0.302400
vt 0.245167 0.302400
vt 0.245167 0.302400
vt 0.245167 0.302400
vt 0.245167 0.302400
vt 0.245167 0.302400
vt 0.245167 0.302400
vt 0.245167 0.302400
vt 0.245167 0.302400
vt 0.245167 0.302400
vt 0.245167 0.302400
vt 0.245167 0.302400
vt 0.245167 0.302400
vt 0.245167 0.302400
vt 0.245167 0.302400
vt 0.245167 0.302400
vt 0.245167 0.302400
vt 0.245167 0.302400
vt 0.245167 0.302400
vt 0.245167 0.302400
vt 0.245167 0.302400
vt 0.245167 0.302400
vt 0.245167 0.302400
vt 0.245167 0.302400
vt 0.245167 0.302400
vt 0.245167 0.302400
vt 0.245167 0.302400
vt 0.245167 0.302400
vt 0.245167 0.302400
vt 0.245167 0.302400
vt 0.245167 0.302400
vt 0.245167 0.302400
vt 0.245167 0.302400
vt 0.245167 0.302400
vt 0.245167 0.302400
vt 0.245167 0.302400
vt 0.245167 0.302400
vt 0.245167 0.302400
vt 0.245167 0.302400
vt 0.245167 0.302400
vt 0.245167 0.302400
vt 0.245167 0.302400
vt 0.245167 0.302400
vt 0.245167 0.302400
vt 0.245167 0.302400
vt 0.245167 0.302400
vt 0.245167 0.302400
vt 0.245167 0.302400
vt 0.245167 0.302400
vt 0.245167 0.302400
vt 0.245167 0.302400
vt 0.245167 0.302400
vt 0.245167 0.302400
vt 0.245167 0.302400
vt 0.245167 0.302400
vt 0.245167 0.302400
vt 0.245167 0.302400
vt 0.245167 0.302400
vt 0.245167 0.302400
vt 0.245167 0.302400
vt 0.245167 0.302400
vt 0.245167 0.302400
vt 0.245167 0.302400
vt 0.245167 0.302400
vt 0.245167 0.302400
vt 0.245167 0.302400
vt 0.245167 0.302400
vt 0.245167 0.302400
vt 0.245167 0.302400
vt 0.245167 0.302400
vt 0.245167 0.302400
vt 0.245167 0.302400
vt 0.245167 0.302400
vt 0.245167 0.302400
vt 0.245167 0.302400
vt 0.245167 0.302400
vt 0.245167 0.302400
vt 0.245167 0.302400
vt 0.245167 0.302400
vt 0.245167 0.302400
vt 0.245167 0.302400
vt 0.245167 0.302400
vn 0.524668 -0.851307 0.000000
vn 0.524668 -0.851307 0.000000
vn 0.524668 -0.851307 0.000000
vn 0.524668 -0.851307 0.000000
vn 0.541181 0.133913 0.830175
vn 0.541181 0.133913 0.830175
vn 0.541181 0.133913 0.830175
vn 0.541181 0.133913 0.830175
vn -0.966794 0.228857 0.113730
vn -0.966794 0.228857 0.113730
vn -0.966794 0.228857 0.113730
vn -0.966794 0.228857 0.113730
vn 0.956888 0.253544 -0.141705
vn 0.956888 0.253544 -0.141705
vn 0.956888 0.253544 -0.141705
vn 0.956888 0.253544 -0.141705
vn 0.524668 0.851307 0.000000
vn 0.524668 0.851307 0.000000
vn 0.524668 0.851307 0.000000
vn 0.524668 0.851307 0.000000
vn 0.541181 0.133913 -0.830175
vn 0.541181 0.133913 -0.830175
vn 0.541181 0.133913 -0.830175
vn 0.541181 0.133913 -0.830175
vn 0.449561 -0.631623 0.631623
vn 0.449561 -0.631623 0.631623
vn 0.449560 -0.631623 0.631623
vn 0.449561 0.631623 0.631623
vn 0.449561 0.631623 0.631623
vn 0.449561 0.631623 0.631623
vn 0.449561 0.631623 -0.631623
vn 0.449561 0.631623 -0.631623
vn 0.449560 0.631623 -0.631623
vn 0.449561 -0.631623 -0.631623
vn 0.449561 -0.631623 -0.631623
vn 0.449561 -0.631623 -0.631623
vn -0.541181 0.133913 0.830175
vn -0.541181 0.133913 0.830175
vn -0.541181 0.133913 0.830175
vn -0.541181 0.133913 0.830175
vn -0.449560 -0.631623 0.631623
vn -0.449560 -0.631623 0.631623
vn -0.449560 -0.631623 0.631623
vn -0.524667 -0.851307 0.000000
vn -0.524667 -0.851307 0.000000
vn -0.524667 -0.851307 0.000000
vn -0.524667 -0.851307 0.000000
vn -0.449560 -0.631623 -0.631623
vn -0.449560 -0.631623 -0.631623
vn -0.449560 -0.631623 -0.631623
vn -0.541181 0.133913 -0.830175
vn -0.541181 0.133913 -0.830175
vn -0.541181 0.133913 -0.830175
vn -0.541181 0.133913 -0.830175
vn -0.449560 0.631623 -0.631623
vn -0.449560 0.631623 -0.631623
vn -0.449560 0.631623 -0.631623
vn -0.524667 0.851307 0.000000
vn -0.524667 0.851307 0.000000
vn -0.524667 0.851307 0.000000
vn -0.524667 0.851307 0.000000
vn -0.449560 0.631623 0.631623
vn -0.449560 0.631623 0.631623
vn -0.449560 0.631623 0.631623
vn 0.000000 0.184917 0.982754
vn 0.000000 0.184917 0.982754
vn 0.000000 0.184917 0.982754
vn 0.000000 0.184917 0.982754
vn 0.000000 -0.707107 0.707107
vn 0.000000 -0.707107 0.707107
vn 0.000000 -0.707107 0.707107
vn 0.000000 -0.707107 0.707107
vn 0.000000 -1.000000 0.000000
vn 0.000000 -1.000000 0.000000
vn 0.000000 -1.000000 0.000000
vn 0.000000 -1.000000 0.000000
vn 0.000000 -0.707107 -0.707107
vn 0.000000 -0.707107 -0.707107
vn 0.000000 -0.707107 -0.707107
vn 0.000000 -0.707107 -0.707107
vn 0.000000 0.184917 -0.982754
vn 0.000000 0.184917 -0.982754
vn 0.000000 0.184917 -0.982754
vn 0.000000 0.184917 -0.982754
vn 0.000000 0.707107 -0.707107
vn 0.000000 0.707107 -0.707107
vn 0.000000 0.707107 -0.707107
vn 0.000000 0.707107 -0.707107
vn 0.000000 1.000000 0.000000
vn 0.000000 1.000000 0.000000
vn 0.000000 1.000000 0.000000
vn 0.000000 1.000000 0.000000
vn 0.000000 0.707107 0.707107
vn 0.000000 0.707107 0.707107
vn 0.000000 0.707107 0.707107
vn 0.000000 0.707107 0.707107
vn -0.901960 0.431821 0.000000
vn -0.901960 0.431821 0.000000
vn -0.901960 0.431821 0.000000
vn -0.901960 0.431821 0.000000
vn -0.889995 0.059704 -0.452045
vn -0.889995 0.059704 -0.452045
vn -0.889995 0.059704 -0.452045
vn -0.889995 0.059704 -0.452045
vn -0.901960 -0.431821 0.000000
vn -0.901960 -0.431821 0.000000
vn -0.901960 -0.431821 0.000000
vn -0.901960 -0.431821 0.000000
vn -0.889995 0.059704 0.452045
vn -0.889995 0.059704 0.452045
vn -0.889995 0.059704 0.452045
vn -0.889995 0.059704 0.452045
vn 0.889995 0.059704 -0.452045
vn 0.889995 0.059704 -0.452045
vn 0.889995 0.059704 -0.452045
vn 0.889995 0.059704 -0.452045
vn 0.901959 0.431821 0.000000
vn 0.901959 0.431821 0.000000
vn 0.901959 0.431821 0.000000
vn 0.901959 0.431821 0.000000
vn 0.889995 0.059704 0.452045
vn 0.889995 0.059704 0.452045
vn 0.889995 0.059704 0.452045
vn 0.889995 0.059704 0.452045
vn 0.901959 -0.431821 0.000000
vn 0.901959 -0.431821 0.000000
vn 0.901959 -0.431821 0.000000
vn 0.901959 -0.431821 0.000000
vn 0.729668 0.674571 0.111978
vn 0.729668 0.674571 0.111978
vn 0.729668 0.674570 0.111978
vn 0.729668 0.674571 0.111978
vn -0.376696 0.368335 -0.849959
vn -0.376696 0.368335 -0.849959
vn -0.376696 0.368335 -0.849959
vn -0.376696 0.368335 -0.849959
vn 0.729668 -0.674571 -0.111978
vn 0.729668 -0.674571 -0.111978
vn 0.729668 -0.674570 -0.111978
vn 0.729668 -0.674571 -0.111978
vn 0.009457 -0.301485 0.953424
vn 0.009457 -0.301485 0.953424
vn 0.009457 -0.301485 0.953424
vn 0.009457 -0.301485 0.953424
vn 0.108680 -0.137080 -0.984580
vn 0.108680 -0.137080 -0.984580
vn 0.108680 -0.137080 -0.984580
vn 0.108680 -0.137080 -0.984580
vn -0.747265 0.661927 -0.058711
vn -0.747265 0.661927 -0.058711
vn -0.747265 0.661927 -0.058711
vn -0.747265 0.661927 -0.058711
vn 0.316999 0.227922 0.920632
vn 0.316999 0.227922 0.920632
vn 0.316998 0.227922 0.920632
vn 0.316999 0.227922 0.920632
vn -0.747265 -0.661927 0.058711
vn -0.747265 -0.661927 0.058711
vn -0.747265 -0.661927 0.058711
vn -0.747265 -0.661927 0.058711
vn 0.571809 0.729668 0.374993
vn 0.571809 0.729668 0.374993
vn 0.571809 0.729668 0.374993
vn 0.571809 0.729668 0.374993
vn -0.049950 0.472417 -0.879959
vn -0.049950 0.472417 -0.879959
vn -0.049950 0.472417 -0.879959
vn -0.049950 0.472417 -0.879959
vn 0.571809 -0.729668 -0.374993
vn 0.571809 -0.729668 -0.374993
vn 0.571809 -0.729668 -0.374993
vn 0.571809 -0.729668 -0.374993
vn -0.074221 -0.427089 0.901158
vn -0.074221 -0.427089 0.901158
vn -0.074221 -0.427089 0.901158
vn -0.074221 -0.427089 0.901158
vn -0.080575 -0.397845 -0.913908
vn -0.080575 -0.397845 -0.913908
vn -0.080575 -0.397845 -0.913908
vn -0.080575 -0.397845 -0.913908
vn -0.560674 0.778429 -0.282300
vn -0.560674 0.778429 -0.282300
vn -0.560674 0.778429 -0.282300
vn -0.560674 0.778429 -0.282300
vn 0.193162 0.437367 0.878293
vn 0.193162 0.437367 0.878293
vn 0.193162 0.437367 0.878293
vn 0.193162 0.437367 0.878293
vn -0.560674 -0.778429 0.282300
vn -0.560674 -0.778429 0.282300
vn -0.560674 -0.778429 0.282300
vn -0.560674 -0.778429 0.282300
vn 0.541181 -0.133913 0.830175
vn 0.541181 -0.133913 0.830175
vn 0.541181 -0.133913 0.830175
vn 0.541181 -0.133913 0.830175
vn 0.889995 -0.059704 0.452045
vn 0.889995 -0.059704 0.452045
vn 0.889995 -0.059704 0.452045
vn 0.889995 -0.059704 0.452045
vn 0.108680 0.137080 0.984580
vn 0.108680 0.137080 0.984580
vn 0.108680 0.137080 0.984580
vn 0.108680 0.137080 0.984580
vn -0.076809 0.399831 0.913365
vn -0.076809 0.399831 0.913365
vn -0.076809 0.399831 0.913365
vn -0.076809 0.399831 0.913365
vn 0.960410 -0.243187 0.135916
vn 0.960410 -0.243187 0.135916
vn 0.960410 -0.243187 0.135916
vn 0.960410 -0.243187 0.135916
vn 0.191368 -0.438375 -0.878183
vn 0.191368 -0.438375 -0.878183
vn 0.191368 -0.438375 -0.878183
vn 0.191368 -0.438375 -0.878183
vn 0.316999 -0.227922 -0.920632
vn 0.316999 -0.227922 -0.920632
vn 0.316998 -0.227922 -0.920632
vn 0.316999 -0.227922 -0.920632
vn 0.889995 -0.059704 -0.452045
vn 0.889995 -0.059704 -0.452045
vn 0.889995 -0.059704 -0.452045
vn 0.889995 -0.059704 -0.452045
vn 0.541181 -0.133913 -0.830175
vn 0.541181 -0.133913 -0.830175
vn 0.541181 -0.133913 -0.830175
vn 0.541181 -0.133913 -0.830175
vn 0.000000 -0.184917 -0.982754
vn 0.000000 -0.184917 -0.982754
vn 0.000000 -0.184917 -0.982754
vn 0.000000 -0.184917 -0.982754
vn -0.541181 -0.133913 -0.830175
vn -0.541181 -0.133913 -0.830175
vn -0.541181 -0.133913 -0.830175
vn -0.541181 -0.133913 -0.830175
vn -0.889995 -0.059704 -0.452045
vn -0.889995 -0.059704 -0.452045
vn -0.889995 -0.059704 -0.452045
vn -0.889995 -0.059704 -0.452045
vn 0.009457 0.301485 -0.953424
vn 0.009457 0.301485 -0.953424
vn 0.009457 0.301485 -0.953424
vn 0.009457 0.301485 -0.953424
vn -0.075456 0.427635 -0.900797
vn -0.075456 0.427635 -0.900797
vn -0.075456 0.427635 -0.900797
vn -0.075456 0.427635 -0.900797
vn -0.971244 -0.213210 -0.105954
vn -0.971244 -0.213210 -0.105954
vn -0.971244 -0.213210 -0.105954
vn -0.971244 -0.213210 -0.105954
vn -0.052041 -0.471399 0.880383
vn -0.052041 -0.471399 0.880383
vn -0.052041 -0.471399 0.880383
vn -0.052041 -0.471399 0.880383
vn -0.376696 -0.368335 0.849959
vn -0.376696 -0.368335 0.849959
vn -0.376696 -0.368335 0.849959
vn -0.376696 -0.368335 0.849959
vn -0.889995 -0.059704 0.452045
vn -0.889995 -0.059704 0.452045
vn -0.889995 -0.059704 0.452045
vn -0.889995 -0.059704 0.452045
vn -0.541181 -0.133913 0.830175
vn -0.541181 -0.133913 0.830175
vn -0.541181 -0.133913 0.830175
vn -0.541181 -0.133913 0.830175
vn 0.000000 -0.184917 0.982754
vn 0.000000 -0.184917 0.982754
vn 0.000000 -0.184917 0.982754
vn 0.000000 -0.184917 0.982754
s off
f 19/32/1 20/34/2 8/10/3 2/9/4
f 4/18/5 17/30/6 49/63/7 50/64/8
f 41/55/9 42/56/10 63/79/11 64/80/12
f 54/68/13 46/60/14 47/61/15 53/67/16
f 23/37/17 24/38/18 4/13/19 6/19/20
f 57/72/21 58/73/22 22/36/23 6/15/24
f 2/17/25 18/31/26 19/33/27
f 4/18/28 24/38/29 17/30/30
f 6/19/31 22/36/32 23/37/33
f 8/16/34 20/34/35 21/35/36
f 67/83/37 68/84/38 9/21/39 3/1/40
f 1/8/41 11/24/42 10/22/43
f 12/25/44 11/23/45 1/6/46 7/7/47
f 7/20/48 13/26/49 12/25/50
f 5/14/51 14/27/52 59/74/53 60/76/54
f 5/12/55 15/28/56 14/27/57
f 16/29/58 15/28/59 5/12/60 3/11/61
f 3/1/62 9/21/63 16/29/64
f 68/84/65 49/63/66 17/30/67 9/21/68
f 10/22/69 11/24/70 19/33/71 18/31/72
f 12/25/73 20/34/74 19/32/75 11/23/76
f 12/25/77 13/26/78 21/35/79 20/34/80
f 22/36/81 58/73/82 59/74/83 14/27/84
f 14/27/85 15/28/86 23/37/87 22/36/88
f 24/38/89 23/37/90 15/28/91 16/29/92
f 16/29/93 9/21/94 17/30/95 24/38/96
f 3/1/97 5/2/98 26/40/99 25/39/100
f 5/2/101 60/75/102 61/77/103 26/40/104
f 7/3/105 1/8/106 28/42/107 27/41/108
f 67/83/109 3/1/110 25/39/111 66/82/112
f 57/71/113 6/5/114 30/44/115 56/70/116
f 6/5/117 4/18/118 31/45/119 30/44/120
f 4/18/121 50/64/122 51/65/123 31/45/124
f 2/17/125 8/4/126 29/43/127 32/46/128
f 25/39/129 26/40/130 34/48/131 33/47/132
f 26/40/133 61/77/134 62/78/135 34/48/136
f 27/41/137 28/42/138 36/50/139 35/49/140
f 66/82/141 25/39/142 33/47/143 65/81/144
f 56/70/145 30/44/146 38/52/147 55/69/148
f 30/44/149 31/45/150 39/53/151 38/52/152
f 31/45/153 51/65/154 52/66/155 39/53/156
f 32/46/157 29/43/158 37/51/159 40/54/160
f 33/47/161 34/48/162 42/56/163 41/55/164
f 34/48/165 62/78/166 63/79/167 42/56/168
f 35/49/169 36/50/170 44/58/171 43/57/172
f 65/81/173 33/47/174 41/55/175 64/80/176
f 55/69/177 38/52/178 46/60/179 54/68/180
f 38/52/181 39/53/182 47/61/183 46/60/184
f 39/53/185 52/66/186 53/67/187 47/61/188
f 40/54/189 37/51/190 45/59/191 48/62/192
f 49/63/193 18/31/194 2/17/195 50/64/196
f 51/65/197 50/64/198 2/17/199 32/46/200
f 52/66/201 51/65/202 32/46/203 40/54/204
f 53/67/205 52/66/206 40/54/207 48/62/208
f 45/59/209 54/68/210 53/67/211 48/62/212
f 37/51/213 55/69/214 54/68/215 45/59/216
f 29/43/217 56/70/218 55/69/219 37/51/220
f 8/4/221 57/71/222 56/70/223 29/43/224
f 8/16/225 21/35/226 58/73/227 57/72/228
f 59/74/229 58/73/230 21/35/231 13/26/232
f 59/74/233 13/26/234 7/20/235 60/76/236
f 61/77/237 60/75/238 7/3/239 27/41/240
f 62/78/241 61/77/242 27/41/243 35/49/244
f 63/79/245 62/78/246 35/49/247 43/57/248
f 64/80/249 63/79/250 43/57/251 44/58/252
f 36/50/253 65/81/254 64/80/255 44/58/256
f 28/42/257 66/82/258 65/81/259 36/50/260
f 1/8/261 67/83/262 66/82/263 28/42/264
f 1/8/265 10/22/266 68/84/267 67/83/268
f 18/31/269 49/63/270 68/84/271 10/22/272
