# This file uses meters as units for non-parametric coordinates.

v 10.703716 2.260042 -3.852544
v -10.703718 2.260042 -3.852544
v 10.703716 -10.777319 -3.852544
v -10.703718 -10.777319 -3.852544
v 22.640858 -10.777319 -3.852544
v -22.640856 -10.777319 -3.852544
v 0.000000 -38.246452 -3.852544
v -22.640856 -10.777319 3.852544
v 0.000000 -38.246452 3.852544
v -10.703718 -10.777319 3.852544
v 10.703716 -10.777319 3.852544
v 22.640858 -10.777319 3.852544
v 10.703716 2.260042 3.852544
v -10.703718 2.260042 3.852544
v -10.703718 10.777322 -3.852544
v 10.703716 10.777322 -3.852544
v -22.640856 10.777322 -3.852544
v 22.640858 10.777322 -3.852544
v 0.000000 38.246452 -3.852544
v 22.640858 10.777322 3.852544
v 0.000000 38.246452 3.852544
v 10.703716 10.777322 3.852544
v -10.703718 10.777322 3.852544
v -22.640856 10.777322 3.852544
vt 0.247795 0.302644
vt 0.247795 0.302644
vt 0.247795 0.302644
vt 0.247795 0.302644
vt 0.247795 0.302644
vt 0.247795 0.302644
vt 0.247795 0.302644
vt 0.247795 0.302644
vt 0.247795 0.302644
vt 0.247795 0.302644
vt 0.247795 0.302644
vt 0.247795 0.302644
vt 0.247795 0.302644
vt 0.247795 0.302644
vt 0.247795 0.302644
vt 0.247795 0.302644
vt 0.247795 0.302644
vt 0.247795 0.302644
vt 0.247795 0.302644
vt 0.247795 0.302644
vt 0.247795 0.302644
vt 0.247795 0.302644
vt 0.247795 0.302644
vt 0.247795 0.302644
vt 0.247795 0.302644
vt 0.247795 0.302644
vt 0.247795 0.302644
vt 0.247795 0.302644
vt 0.247795 0.302644
vt 0.247795 0.302644
vt 0.247795 0.302644
vt 0.247795 0.302644
vt 0.247795 0.302644
vt 0.247795 0.302644
vt 0.247795 0.302644
vt 0.247795 0.302644
vt 0.247795 0.302644
vt 0.247795 0.302644
vt 0.247795 0.302644
vt 0.247795 0.302644
vt 0.247795 0.302644
vt 0.247795 0.302644
vn 0.000000 0.000000 1.000000
vn 0.000000 0.000000 1.000000
vn 0.000000 0.000000 1.000000
vn 0.000000 0.000000 1.000000
vn 0.000000 0.000000 1.000000
vn 0.000000 0.000000 1.000000
vn 0.000000 0.000000 1.000000
vn 0.000000 0.000000 1.000000
vn 0.000000 0.000000 1.000000
vn 0.000000 0.000000 1.000000
vn 0.000000 0.000000 1.000000
vn 0.000000 0.000000 1.000000
vn 0.000000 0.000000 1.000000
vn 0.000000 0.000000 1.000000
vn 0.000000 0.000000 1.000000
vn 0.000000 0.000000 -1.000000
vn 0.000000 0.000000 -1.000000
vn 0.000000 0.000000 -1.000000
vn 0.000000 0.000000 -1.000000
vn 0.000000 0.000000 -1.000000
vn 0.000000 0.000000 -1.000000
vn 0.000000 0.000000 -1.000000
vn 0.000000 0.000000 -1.000000
vn 0.000000 0.000000 -1.000000
vn 0.000000 0.000000 -1.000000
vn 0.000000 0.000000 -1.000000
vn 0.000000 0.000000 -1.000000
vn 0.000000 0.000000 -1.000000
vn 0.000000 0.000000 -1.000000
vn 0.000000 0.000000 -1.000000
vn -0.771665 -0.636029 0.000000
vn -0.771665 -0.636029 0.000000
vn -0.771665 -0.636029 0.000000
vn -0.771665 -0.636029 0.000000
vn 0.000000 1.000000 0.000000
vn 0.000000 1.000000 0.000000
vn 0.000000 1.000000 0.000000
vn 0.000000 1.000000 0.000000
vn 0.000000 1.000000 0.000000
vn 0.000000 1.000000 0.000000
vn 0.000000 1.000000 0.000000
vn 0.000000 1.000000 0.000000
vn 0.771665 -0.636029 0.000000
vn 0.771665 -0.636029 0.000000
vn 0.771665 -0.636029 0.000000
vn 0.771665 -0.636029 0.000000
vn 1.000000 0.000000 0.000000
vn 1.000000 0.000000 0.000000
vn 1.000000 0.000000 0.000000
vn 1.000000 0.000000 0.000000
vn -1.000000 0.000000 0.000000
vn -1.000000 0.000000 0.000000
vn -1.000000 0.000000 0.000000
vn -1.000000 0.000000 0.000000
vn 0.000000 0.000000 1.000000
vn 0.000000 0.000000 1.000000
vn 0.000000 0.000000 1.000000
vn 0.000000 0.000000 1.000000
vn 0.000000 0.000000 1.000000
vn 0.000000 0.000000 1.000000
vn 0.000000 0.000000 1.000000
vn 0.000000 0.000000 1.000000
vn 0.000000 0.000000 1.000000
vn 0.000000 0.000000 1.000000
vn 0.000000 0.000000 1.000000
vn 0.000000 0.000000 1.000000
vn 0.000000 0.000000 1.000000
vn 0.000000 0.000000 1.000000
vn 0.000000 0.000000 1.000000
vn 0.000000 0.000000 -1.000000
vn 0.000000 0.000000 -1.000000
vn 0.000000 0.000000 -1.000000
vn 0.000000 0.000000 -1.000000
vn 0.000000 0.000000 -1.000000
vn 0.000000 0.000000 -1.000000
vn 0.000000 0.000000 -1.000000
vn 0.000000 0.000000 -1.000000
vn 0.000000 0.000000 -1.000000
vn 0.000000 0.000000 -1.000000
vn 0.000000 0.000000 -1.000000
vn 0.000000 0.000000 -1.000000
vn 0.000000 0.000000 -1.000000
vn 0.000000 0.000000 -1.000000
vn 0.000000 0.000000 -1.000000
vn 0.771665 0.636029 0.000000
vn 0.771665 0.636029 0.000000
vn 0.771665 0.636029 0.000000
vn 0.771665 0.636029 0.000000
vn 0.000000 -1.000000 0.000000
vn 0.000000 -1.000000 0.000000
vn 0.000000 -1.000000 0.000000
vn 0.000000 -1.000000 0.000000
vn 0.000000 -1.000000 0.000000
vn 0.000000 -1.000000 0.000000
vn 0.000000 -1.000000 0.000000
vn 0.000000 -1.000000 0.000000
vn -0.771665 0.636029 0.000000
vn -0.771665 0.636029 0.000000
vn -0.771665 0.636029 0.000000
vn -0.771665 0.636029 0.000000
vn -1.000000 0.000000 0.000000
vn -1.000000 0.000000 0.000000
vn -1.000000 0.000000 0.000000
vn -1.000000 0.000000 0.000000
vn 1.000000 0.000000 0.000000
vn 1.000000 0.000000 0.000000
vn 1.000000 0.000000 0.000000
vn 1.000000 0.000000 0.000000
s off
f 8/15/1 9/16/2 10/17/3
f 12/18/4 11/19/5 9/16/6
f 9/16/7 11/19/8 10/17/9
f 11/19/10 13/20/11 10/17/12
f 13/20/13 14/21/14 10/17/15
f 6/8/16 4/10/17 7/9/18
f 5/11/19 7/9/20 3/12/21
f 7/9/22 4/10/23 3/12/24
f 3/12/25 4/10/26 1/13/27
f 1/13/28 4/10/29 2/14/30
f 6/6/31 7/7/32 9/16/33 8/15/34
f 4/4/35 6/6/36 8/15/37 10/17/38
f 5/5/39 3/3/40 11/19/41 12/18/42
f 7/7/43 5/5/44 12/18/45 9/16/46
f 3/3/47 1/1/48 13/20/49 11/19/50
f 2/2/51 4/4/52 10/17/53 14/21/54
f 20/22/55 21/23/56 22/24/57
f 24/25/58 23/26/59 21/23/60
f 21/23/61 23/26/62 22/24/63
f 23/26/64 14/27/65 22/24/66
f 14/27/67 13/28/68 22/24/69
f 18/29/70 16/30/71 19/31/72
f 17/32/73 19/31/74 15/33/75
f 19/31/76 16/30/77 15/33/78
f 15/33/79 16/30/80 2/34/81
f 2/34/82 16/30/83 1/35/84
f 18/36/85 19/37/86 21/23/87 20/22/88
f 16/38/89 18/36/90 20/22/91 22/24/92
f 17/39/93 15/40/94 23/26/95 24/25/96
f 19/37/97 17/39/98 24/25/99 21/23/100
f 15/40/101 2/41/102 14/27/103 23/26/104
f 1/42/105 16/38/106 22/24/107 13/28/108
