# This file uses meters as units for non-parametric coordinates.

v -16.924551 -9.505540 2.066151
v 16.924551 -9.505540 2.066151
v -16.924551 0.494460 2.066151
v 16.924551 0.494460 2.066151
v -16.924551 0.494460 -2.066151
v 16.924551 0.494460 -2.066151
v -16.924551 -9.505540 -2.066151
v 16.924551 -9.505540 -2.066151
v 0.000000 9.427167 2.066151
v 0.000000 9.427167 -2.066151
v 0.000000 -0.572833 -2.066151
v 0.000000 -0.572833 2.066151
v -16.924551 -24.655422 2.066151
v 16.924551 -24.655422 2.066151
v -16.924551 -14.655422 2.066151
v 16.924551 -14.655422 2.066151
v -16.924551 -14.655422 -2.066151
v 16.924551 -14.655422 -2.066151
v -16.924551 -24.655422 -2.066151
v 16.924551 -24.655422 -2.066151
v 0.000000 -5.722714 2.066151
v 0.000000 -5.722714 -2.066151
v 0.000000 -15.722714 -2.066151
v 0.000000 -15.722714 2.066151
v -16.924551 5.722716 2.066151
v 16.924551 5.722716 2.066151
v -16.924551 15.722717 2.066151
v 16.924551 15.722717 2.066151
v -16.924551 15.722717 -2.066151
v 16.924551 15.722717 -2.066151
v -16.924551 5.722716 -2.066151
v 16.924551 5.722716 -2.066151
v 0.000000 24.655422 2.066151
v 0.000000 24.655422 -2.066151
v 0.000000 14.655422 -2.066151
v 0.000000 14.655422 2.066151
vt 0.247204 0.306604
vt 0.247204 0.306604
vt 0.247204 0.306604
vt 0.247204 0.306604
vt 0.247204 0.306604
vt 0.247204 0.306604
vt 0.247204 0.306604
vt 0.247204 0.306604
vt 0.247204 0.306604
vt 0.247204 0.306604
vt 0.247204 0.306604
vt 0.247204 0.306604
vt 0.247204 0.306604
vt 0.247204 0.306604
vt 0.247204 0.306604
vt 0.247204 0.306604
vt 0.247204 0.306604
vt 0.247204 0.306604
vt 0.247204 0.306604
vt 0.247204 0.306604
vt 0.247204 0.306604
vt 0.247204 0.306604
vt 0.247204 0.306604
vt 0.247204 0.306604
vt 0.247204 0.306604
vt 0.247204 0.306604
vt 0.247204 0.306604
vt 0.247204 0.306604
vt 0.247204 0.306604
vt 0.247204 0.306604
vt 0.247204 0.306604
vt 0.247204 0.306604
vt 0.247204 0.306604
vt 0.247204 0.306604
vt 0.247204 0.306604
vt 0.247204 0.306604
vt 0.247204 0.306604
vt 0.247204 0.306604
vt 0.247204 0.306604
vt 0.247204 0.306604
vt 0.247204 0.306604
vt 0.247204 0.306604
vt 0.247204 0.306604
vt 0.247204 0.306604
vt 0.247204 0.306604
vt 0.247204 0.306604
vt 0.247204 0.306604
vt 0.247204 0.306604
vt 0.247204 0.306604
vt 0.247204 0.306604
vt 0.247204 0.306604
vt 0.247204 0.306604
vt 0.247204 0.306604
vt 0.247204 0.306604
vt 0.247204 0.306604
vt 0.247204 0.306604
vt 0.247204 0.306604
vn 0.000000 0.000000 1.000000
vn 0.000000 0.000000 1.000000
vn 0.000000 0.000000 1.000000
vn 0.000000 0.000000 1.000000
vn -0.466771 0.884378 0.000000
vn 0.000000 1.000000 0.000000
vn 0.000000 1.000000 0.000000
vn -0.466771 0.884378 0.000000
vn 0.000000 0.000000 -1.000000
vn 0.000000 0.000000 -1.000000
vn 0.000000 0.000000 -1.000000
vn 0.000000 0.000000 -1.000000
vn 0.466771 -0.884378 0.000000
vn 0.000000 -1.000000 0.000000
vn 0.000000 -1.000000 0.000000
vn 0.466771 -0.884378 0.000000
vn 1.000000 0.000000 0.000000
vn 1.000000 0.000000 0.000000
vn 1.000000 0.000000 0.000000
vn 1.000000 0.000000 0.000000
vn -1.000000 0.000000 0.000000
vn -1.000000 0.000000 0.000000
vn -1.000000 0.000000 0.000000
vn -1.000000 0.000000 0.000000
vn 0.000000 1.000000 0.000000
vn 0.466771 0.884378 0.000000
vn 0.466771 0.884378 0.000000
vn 0.000000 1.000000 0.000000
vn 0.000000 0.000000 -1.000000
vn 0.000000 0.000000 -1.000000
vn 0.000000 0.000000 -1.000000
vn 0.000000 0.000000 -1.000000
vn 0.000000 -1.000000 0.000000
vn 0.000000 -1.000000 0.000000
vn -0.466771 -0.884378 0.000000
vn -0.466771 -0.884378 0.000000
vn 0.000000 0.000000 1.000000
vn 0.000000 0.000000 1.000000
vn 0.000000 0.000000 1.000000
vn 0.000000 0.000000 1.000000
vn -0.000000 0.000000 1.000000
vn 0.000000 0.000000 1.000000
vn 0.000000 0.000000 1.000000
vn -0.000000 0.000000 1.000000
vn -0.466771 0.884378 0.000000
vn 0.000000 1.000000 0.000000
vn 0.000000 1.000000 0.000000
vn -0.466771 0.884378 0.000000
vn 0.000000 0.000000 -1.000000
vn 0.000000 0.000000 -1.000000
vn 0.000000 0.000000 -1.000000
vn 0.000000 0.000000 -1.000000
vn 0.466771 -0.884378 0.000000
vn 0.000000 -1.000000 0.000000
vn 0.000000 -1.000000 0.000000
vn 0.466771 -0.884378 0.000000
vn 1.000000 0.000000 0.000000
vn 1.000000 0.000000 0.000000
vn 1.000000 0.000000 0.000000
vn 1.000000 0.000000 0.000000
vn -1.000000 0.000000 0.000000
vn -1.000000 0.000000 0.000000
vn -1.000000 0.000000 0.000000
vn -1.000000 0.000000 0.000000
vn 0.000000 1.000000 0.000000
vn 0.466771 0.884378 0.000000
vn 0.466771 0.884378 0.000000
vn 0.000000 1.000000 0.000000
vn 0.000000 0.000000 -1.000000
vn 0.000000 0.000000 -1.000000
vn 0.000000 0.000000 -1.000000
vn 0.000000 0.000000 -1.000000
vn 0.000000 -1.000000 0.000000
vn 0.000000 -1.000000 0.000000
vn -0.466771 -0.884378 0.000000
vn -0.466771 -0.884378 0.000000
vn 0.000000 0.000000 1.000000
vn 0.000000 0.000000 1.000000
vn 0.000000 0.000000 1.000000
vn 0.000000 0.000000 1.000000
vn 0.000000 0.000000 1.000000
vn 0.000000 0.000000 1.000000
vn 0.000000 0.000000 1.000000
vn 0.000000 0.000000 1.000000
vn -0.466771 0.884378 0.000000
vn 0.000000 1.000000 0.000000
vn 0.000000 1.000000 0.000000
vn -0.466771 0.884378 0.000000
vn 0.000000 0.000000 -1.000000
vn 0.000000 0.000000 -1.000000
vn 0.000000 0.000000 -1.000000
vn 0.000000 0.000000 -1.000000
vn 0.466771 -0.884378 0.000000
vn 0.000000 -1.000000 0.000000
vn 0.000000 -1.000000 0.000000
vn 0.466771 -0.884378 0.000000
vn 1.000000 0.000000 0.000000
vn 1.000000 0.000000 0.000000
vn 1.000000 0.000000 0.000000
vn 1.000000 0.000000 0.000000
vn -1.000000 0.000000 0.000000
vn -1.000000 0.000000 0.000000
vn -1.000000 0.000000 0.000000
vn -1.000000 0.000000 0.000000
vn 0.000000 1.000000 0.000000
vn 0.466771 0.884378 0.000000
vn 0.466771 0.884378 0.000000
vn 0.000000 1.000000 0.000000
vn 0.000000 0.000000 -1.000000
vn 0.000000 0.000000 -1.000000
vn 0.000000 0.000000 -1.000000
vn 0.000000 0.000000 -1.000000
vn 0.000000 -1.000000 0.000000
vn 0.000000 -1.000000 0.000000
vn -0.466771 -0.884378 0.000000
vn -0.466771 -0.884378 0.000000
vn 0.000000 0.000000 1.000000
vn 0.000000 0.000000 1.000000
vn 0.000000 0.000000 1.000000
vn 0.000000 0.000000 1.000000
s off
f 1/1/1 12/18/2 9/15/3 3/3/4
f 3/3/5 9/15/6 10/16/7 5/5/8
f 5/5/9 10/16/10 11/17/11 7/7/12
f 7/7/13 11/17/14 12/19/15 1/9/16
f 2/2/17 8/11/18 6/12/19 4/4/20
f 7/13/21 1/1/22 3/3/23 5/14/24
f 9/15/25 4/4/26 6/6/27 10/16/28
f 11/17/29 10/16/30 6/6/31 8/8/32
f 12/19/33 11/17/34 8/8/35 2/10/36
f 9/15/37 12/18/38 2/2/39 4/4/40
f 13/20/41 24/21/42 21/22/43 15/23/44
f 15/23/45 21/22/46 22/24/47 17/25/48
f 17/25/49 22/24/50 23/26/51 19/27/52
f 19/27/53 23/26/54 24/28/55 13/29/56
f 14/30/57 20/31/58 18/32/59 16/33/60
f 19/34/61 13/20/62 15/23/63 17/35/64
f 21/22/65 16/33/66 18/36/67 22/24/68
f 23/26/69 22/24/70 18/36/71 20/37/72
f 24/28/73 23/26/74 20/37/75 14/38/76
f 21/22/77 24/21/78 14/30/79 16/33/80
f 25/39/81 36/40/82 33/41/83 27/42/84
f 27/42/85 33/41/86 34/43/87 29/44/88
f 29/44/89 34/43/90 35/45/91 31/46/92
f 31/46/93 35/45/94 36/47/95 25/48/96
f 26/49/97 32/50/98 30/51/99 28/52/100
f 31/53/101 25/39/102 27/42/103 29/54/104
f 33/41/105 28/52/106 30/55/107 34/43/108
f 35/45/109 34/43/110 30/55/111 32/56/112
f 36/47/113 35/45/114 32/56/115 26/57/116
f 33/41/117 36/40/118 26/49/119 28/52/120
