# This file uses meters as units for non-parametric coordinates.

v 4.132975 17.245699 4.823589
v 13.707115 26.025196 5.195456
v 14.894465 6.044448 3.826542
v -5.197493 9.237344 -5.109453
v -11.566844 1.633488 4.476585
v -2.972480 -15.054516 -3.117752
v -4.719763 21.817474 -5.278044
v -16.109978 8.826823 4.733257
v 11.059116 1.045242 -4.762869
v 15.923059 -8.698209 -4.886866
v -14.018412 25.355576 -4.243326
v -16.039545 7.939760 -4.946032
v 3.166996 6.188343 -2.200518
v -15.673257 -6.169840 -3.677123
v 3.356724 -15.800889 -5.250778
v 2.566762 17.018858 -4.775200
v 11.252403 1.009656 3.273925
v -14.883354 -24.971119 4.571066
v 4.859200 2.499324 -5.260324
v 15.778279 7.564940 -4.918232
v -3.424275 16.528990 -5.256701
v 5.578215 -4.075658 -5.273991
v 14.278618 -25.389214 -4.240284
v -12.836404 26.393332 5.148611
v -3.958210 5.303114 4.926825
v 5.343771 -5.749630 5.176892
v 15.942791 -6.839947 4.054786
v -4.906624 -5.455040 4.379389
v -0.828115 -2.621550 5.282955
v -3.490110 -14.880841 4.703970
v 3.340044 -15.697280 5.083111
v 6.479856 2.382105 5.097571
v -3.442534 17.428682 5.270786
v -3.175145 -5.367558 -4.444628
v 16.110332 25.045502 -1.886539
v -8.890910 -2.050452 -5.274525
v 12.794428 -26.463774 5.064562
v -14.248455 -25.614588 -4.229450
v 3.466893 5.439986 4.823589
v 4.330102 9.134729 4.823589
v -5.213247 10.059175 5.064409
v 0.734920 -3.900069 1.341549
v -14.181792 -6.228974 4.507705
v -9.341899 -6.806292 4.592792
vt 0.243979 0.305250
vt 0.243979 0.305250
vt 0.243979 0.305250
vt 0.243979 0.305250
vt 0.243979 0.305250
vt 0.243979 0.305250
vt 0.243979 0.305250
vt 0.243979 0.305250
vt 0.243979 0.305250
vt 0.243979 0.305250
vt 0.243979 0.305250
vt 0.243979 0.305250
vt 0.243979 0.305250
vt 0.243979 0.305250
vt 0.243979 0.305250
vt 0.243979 0.305250
vt 0.243979 0.305250
vt 0.243979 0.305250
vt 0.243979 0.305250
vt 0.243979 0.305250
vt 0.243979 0.305250
vt 0.243979 0.305250
vt 0.243979 0.305250
vt 0.243979 0.305250
vt 0.243979 0.305250
vt 0.243979 0.305250
vt 0.243979 0.305250
vt 0.243979 0.305250
vt 0.243979 0.305250
vt 0.243979 0.305250
vt 0.243979 0.305250
vt 0.243979 0.305250
vt 0.243979 0.305250
vt 0.243979 0.305250
vt 0.243979 0.305250
vt 0.243979 0.305250
vt 0.243979 0.305250
vt 0.243979 0.305250
vt 0.243979 0.305250
vt 0.243979 0.305250
vt 0.243979 0.305250
vt 0.243979 0.305250
vt 0.243979 0.305250
vt 0.243979 0.305250
vt 0.243979 0.305250
vt 0.243979 0.305250
vt 0.243979 0.305250
vt 0.243979 0.305250
vt 0.243979 0.305250
vt 0.243979 0.305250
vt 0.243979 0.305250
vt 0.243979 0.305250
vt 0.243979 0.305250
vt 0.243979 0.305250
vt 0.243979 0.305250
vt 0.243979 0.305250
vt 0.243979 0.305250
vt 0.243979 0.305250
vt 0.243979 0.305250
vt 0.243979 0.305250
vt 0.243979 0.305250
vt 0.243979 0.305250
vt 0.243979 0.305250
vt 0.243979 0.305250
vt 0.243979 0.305250
vt 0.243979 0.305250
vt 0.243979 0.305250
vt 0.243979 0.305250
vt 0.243979 0.305250
vt 0.243979 0.305250
vt 0.243979 0.305250
vt 0.243979 0.305250
vt 0.243979 0.305250
vt 0.243979 0.305250
vt 0.243979 0.305250
vt 0.243979 0.305250
vt 0.243979 0.305250
vt 0.243979 0.305250
vt 0.243979 0.305250
vt 0.243979 0.305250
vt 0.243979 0.305250
vt 0.243979 0.305250
vt 0.243979 0.305250
vt 0.243979 0.305250
vt 0.243979 0.305250
vt 0.243979 0.305250
vt 0.243979 0.305250
vt 0.243979 0.305250
vt 0.243979 0.305250
vt 0.243979 0.305250
vt 0.243979 0.305250
vt 0.243979 0.305250
vt 0.243979 0.305250
vt 0.243979 0.305250
vt 0.243979 0.305250
vt 0.243979 0.305250
vt 0.243979 0.305250
vt 0.243979 0.305250
vt 0.243979 0.305250
vt 0.243979 0.305250
vt 0.243979 0.305250
vt 0.243979 0.305250
vt 0.243979 0.305250
vt 0.243979 0.305250
vt 0.243979 0.305250
vt 0.243979 0.305250
vt 0.243979 0.305250
vt 0.243979 0.305250
vt 0.243979 0.305250
vt 0.243979 0.305250
vt 0.243979 0.305250
vt 0.243979 0.305250
vt 0.243979 0.305250
vt 0.243979 0.305250
vt 0.243979 0.305250
vt 0.243979 0.305250
vt 0.243979 0.305250
vt 0.243979 0.305250
vt 0.243979 0.305250
vt 0.243979 0.305250
vt 0.243979 0.305250
vn -0.001599 0.011952 0.999927
vn -0.001599 0.011952 0.999927
vn -0.001599 0.011952 0.999927
vn 0.056128 -0.103271 0.993068
vn 0.056128 -0.103271 0.993068
vn 0.056128 -0.103271 0.993068
vn -0.048633 0.010731 0.998759
vn -0.048633 0.010731 0.998759
vn -0.048633 0.010731 0.998759
vn -0.030181 -0.018006 0.999382
vn -0.030181 -0.018006 0.999382
vn -0.030181 -0.018006 0.999382
vn -0.029625 -0.047317 0.998441
vn -0.029625 -0.047317 0.998441
vn -0.028944 -0.036593 0.998911
vn -0.029274 -0.041786 0.998698
vn 0.266414 -0.293487 0.918090
vn 0.266414 -0.293487 0.918090
vn 0.266414 -0.293487 0.918090
vn 0.173348 -0.057060 0.983206
vn 0.173348 -0.057060 0.983206
vn 0.173348 -0.057060 0.983206
vn -0.016843 0.994155 0.106638
vn -0.016843 0.994155 0.106638
vn -0.016843 0.994155 0.106638
vn 0.006263 0.027887 0.999591
vn 0.006263 0.027887 0.999591
vn 0.006263 0.027887 0.999592
vn 0.006263 0.027887 0.999592
vn 0.418751 0.334213 0.844363
vn 0.418751 0.334212 0.844363
vn 0.418751 0.334212 0.844363
vn -0.036106 -0.047612 0.998213
vn -0.036106 -0.047612 0.998213
vn -0.036106 -0.047612 0.998213
vn -0.194445 -0.032745 0.980367
vn -0.194445 -0.032745 0.980367
vn -0.194445 -0.032745 0.980367
vn 0.040609 0.024459 0.998876
vn 0.038424 0.031614 0.998761
vn 0.037892 0.033356 0.998725
vn 0.137292 0.028921 0.990108
vn 0.137292 0.028921 0.990108
vn 0.137292 0.028921 0.990108
vn 0.030377 0.005506 0.999523
vn 0.030377 0.005506 0.999523
vn 0.030377 0.005506 0.999523
vn -0.007136 -0.007989 0.999943
vn -0.007136 -0.007989 0.999943
vn -0.007136 -0.007989 0.999943
vn -0.016452 0.009429 0.999820
vn -0.015621 0.004301 0.999869
vn -0.015571 0.003990 0.999871
vn -0.050185 0.043523 0.997791
vn -0.050185 0.043523 0.997791
vn -0.050185 0.043523 0.997791
vn -0.018807 -0.018238 0.999657
vn -0.018807 -0.018238 0.999657
vn -0.018807 -0.018238 0.999657
vn 0.074408 -0.993595 0.085043
vn 0.074408 -0.993595 0.085043
vn 0.074408 -0.993595 0.085043
vn -0.022528 -0.999374 0.027293
vn -0.022528 -0.999374 0.027293
vn -0.022528 -0.999374 0.027293
vn -0.986574 -0.023978 0.161544
vn -0.986574 -0.023978 0.161544
vn -0.986574 -0.023978 0.161544
vn -0.541081 0.726804 -0.423070
vn -0.541081 0.726804 -0.423070
vn -0.541081 0.726804 -0.423070
vn -0.054948 -0.996111 0.068869
vn -0.054948 -0.996111 0.068869
vn -0.054948 -0.996111 0.068869
vn 0.013978 0.993660 -0.111553
vn 0.013978 0.993660 -0.111553
vn 0.013978 0.993660 -0.111553
vn -0.845586 -0.532956 -0.030699
vn -0.845586 -0.532956 -0.030699
vn -0.845586 -0.532956 -0.030699
vn -0.811586 -0.582302 0.047460
vn -0.811586 -0.582302 0.047460
vn -0.811586 -0.582302 0.047460
vn 0.986680 0.150412 0.061957
vn 0.986680 0.150412 0.061957
vn 0.986680 0.150412 0.061957
vn 0.978904 -0.149907 0.138830
vn 0.978904 -0.149907 0.138830
vn 0.978904 -0.149907 0.138830
vn -0.978259 0.179861 0.103244
vn -0.978259 0.179861 0.103244
vn -0.978259 0.179861 0.103244
vn 0.997401 -0.071675 0.007334
vn 0.998264 -0.058561 0.006276
vn 0.966588 0.255619 -0.019152
vn -0.701768 0.235705 -0.672283
vn -0.701768 0.235705 -0.672283
vn -0.701768 0.235705 -0.672283
vn 0.541805 0.803109 0.247917
vn 0.541805 0.803109 0.247917
vn 0.541805 0.803109 0.247917
vn -0.447816 -0.887304 0.110236
vn -0.325193 -0.929756 0.172634
vn -0.221454 -0.949955 0.220326
vn 0.552612 -0.827390 0.100233
vn 0.552612 -0.827390 0.100233
vn 0.552612 -0.827390 0.100233
vn 0.119218 0.992820 -0.009762
vn 0.119218 0.992820 -0.009762
vn 0.119218 0.992820 -0.009762
vn 0.980119 0.046913 0.192787
vn 0.980119 0.046913 0.192787
vn 0.980119 0.046913 0.192787
vn -0.980298 0.197492 -0.003562
vn -0.980298 0.197492 -0.003562
vn -0.980298 0.197492 -0.003562
vn -0.988416 0.043660 0.145356
vn -0.988416 0.043660 0.145356
vn -0.988416 0.043660 0.145356
vn -0.988416 0.043660 0.145356
vn 0.859086 0.511501 -0.018396
vn 0.859086 0.511501 -0.018396
vn 0.859086 0.511501 -0.018396
vn -0.993092 0.115970 -0.017855
vn -0.993092 0.115970 -0.017855
vn -0.993092 0.115970 -0.017855
vn 0.811101 -0.584575 -0.019667
vn 0.811101 -0.584575 -0.019667
vn 0.811101 -0.584575 -0.019667
vn 0.890222 0.445603 -0.094570
vn 0.890222 0.445603 -0.094570
vn 0.890222 0.445603 -0.094570
vn -0.982489 0.186160 0.007778
vn -0.982489 0.186160 0.007778
vn -0.982489 0.186160 0.007778
vn -0.934462 0.311472 0.172531
vn -0.978742 0.099986 0.179072
vn -0.976059 0.123914 0.178756
vn 0.074117 0.454400 -0.887709
vn 0.074117 0.454400 -0.887709
vn 0.074117 0.454400 -0.887709
vn 0.020387 0.991277 -0.130211
vn 0.020387 0.991277 -0.130211
vn 0.020387 0.991277 -0.130211
vn 0.947842 0.034617 0.316854
vn 0.947842 0.034617 0.316854
vn 0.947842 0.034617 0.316854
vn 0.994907 -0.035274 0.094420
vn 0.994907 -0.035274 0.094420
vn 0.994907 -0.035274 0.094420
vn 0.971550 -0.235825 0.021839
vn 0.971550 -0.235825 0.021839
vn 0.971550 -0.235825 0.021839
vn -0.926913 -0.134643 -0.350291
vn -0.926913 -0.134643 -0.350291
vn -0.926913 -0.134643 -0.350291
vn 0.809613 -0.586549 -0.022069
vn 0.809613 -0.586549 -0.022069
vn 0.809613 -0.586549 -0.022069
vn 0.995088 -0.097340 0.018033
vn 0.995088 -0.097340 0.018033
vn 0.995088 -0.097340 0.018033
vn 0.112236 0.993574 -0.014634
vn 0.112236 0.993574 -0.014634
vn 0.112236 0.993574 -0.014634
vn -0.995248 -0.071034 -0.066607
vn -0.995248 -0.071034 -0.066607
vn -0.995248 -0.071034 -0.066607
vn 0.007806 -0.993509 -0.113489
vn 0.007806 -0.993509 -0.113489
vn 0.007806 -0.993509 -0.113489
vn 0.078860 0.015295 -0.996768
vn 0.078860 0.015295 -0.996768
vn 0.078860 0.015295 -0.996768
vn -0.123384 -0.034227 -0.991769
vn -0.123384 -0.034227 -0.991769
vn -0.123384 -0.034227 -0.991769
vn 0.142524 0.113381 -0.983276
vn 0.142524 0.113381 -0.983276
vn 0.142524 0.113381 -0.983276
vn -0.056416 0.046787 -0.997311
vn -0.056416 0.046787 -0.997311
vn -0.056416 0.046787 -0.997311
vn -0.013033 -0.017020 -0.999770
vn -0.013033 -0.017020 -0.999770
vn -0.013033 -0.017020 -0.999770
vn 0.109492 0.167834 -0.979716
vn 0.109493 0.167834 -0.979716
vn 0.109493 0.167834 -0.979716
vn 0.014738 0.035714 -0.999253
vn 0.014738 0.035714 -0.999253
vn 0.014738 0.035714 -0.999253
vn 0.063529 -0.069708 -0.995542
vn 0.063529 -0.069708 -0.995543
vn 0.063529 -0.069708 -0.995542
vn -0.015060 -0.000090 -0.999887
vn -0.015060 -0.000090 -0.999887
vn -0.015060 -0.000090 -0.999887
vn -0.005013 0.018271 -0.999821
vn -0.005013 0.018271 -0.999821
vn -0.005013 0.018271 -0.999820
vn -0.005013 0.018271 -0.999820
vn -0.043740 -0.312754 -0.948827
vn -0.043740 -0.312754 -0.948827
vn -0.043740 -0.312754 -0.948827
vn -0.251223 -0.954851 -0.158579
vn -0.070231 -0.997219 -0.024949
vn -0.009279 -0.999762 0.019743
vn 0.082560 0.011100 -0.996524
vn 0.082560 0.011100 -0.996524
vn 0.082560 0.011100 -0.996524
vn 0.065763 -0.134064 -0.988788
vn 0.065763 -0.134064 -0.988788
vn 0.065763 -0.134064 -0.988788
vn 0.099807 -0.007514 -0.994978
vn 0.099807 -0.007514 -0.994978
vn 0.099807 -0.007514 -0.994978
vn 0.077590 -0.016674 -0.996846
vn 0.077590 -0.016674 -0.996846
vn 0.077590 -0.016674 -0.996846
vn -0.102716 -0.208075 -0.972705
vn -0.102716 -0.208075 -0.972705
vn -0.102716 -0.208075 -0.972705
vn 0.067176 0.033247 -0.997187
vn 0.067176 0.033247 -0.997187
vn 0.067176 0.033247 -0.997187
vn -0.085745 -0.030130 -0.995862
vn -0.085745 -0.030130 -0.995862
vn -0.085744 -0.030130 -0.995862
vn -0.061298 0.006091 -0.998101
vn -0.061298 0.006091 -0.998101
vn -0.061298 0.006091 -0.998101
vn -0.061298 0.006091 -0.998101
vn 0.011971 0.100930 0.994822
vn 0.011971 0.100930 0.994822
vn 0.011971 0.100930 0.994822
vn -0.073296 0.017124 0.997163
vn -0.073296 0.017124 0.997163
vn -0.073296 0.017124 0.997163
vn -0.136687 -0.003322 0.990609
vn -0.136687 -0.003322 0.990609
vn -0.136687 -0.003322 0.990609
vn 0.997401 -0.071675 0.007334
vn 0.971994 -0.234118 0.020417
vn 0.998264 -0.058561 0.006276
vn -0.029274 -0.041786 0.998698
vn -0.028944 -0.036593 0.998911
vn -0.027966 -0.021267 0.999383
vn -0.221454 -0.949955 0.220326
vn -0.325193 -0.929756 0.172634
vn -0.063111 -0.956386 0.285206
vn -0.009279 -0.999762 0.019743
vn -0.070231 -0.997219 -0.024949
vn 0.157635 -0.977329 0.141346
vn -0.976059 0.123914 0.178756
vn -0.978742 0.099986 0.179072
vn -0.983064 0.037405 0.179407
vn -0.015571 0.003990 0.999871
vn -0.015621 0.004301 0.999869
vn -0.015497 0.003532 0.999874
vn -0.015497 0.003532 0.999874
vn 0.037892 0.033356 0.998725
vn 0.038424 0.031614 0.998761
vn 0.035925 0.039785 0.998562
s off
f 24/1/1 33/4/2 2/5/3
f 1/2/4 2/5/5 33/4/6
f 1/2/7 32/11/8 2/5/9
f 24/1/10 8/3/11 33/4/12
f 5/7/13 25/6/14 41/117/15 8/3/16
f 3/8/17 32/11/18 17/13/19
f 2/5/20 32/11/21 3/8/22
f 25/10/23 39/113/24 13/52/25
f 25/6/26 29/14/27 26/15/28 32/11/29
f 27/16/30 17/13/31 32/11/32
f 25/6/33 5/7/34 28/17/35
f 25/6/36 28/17/37 29/14/38
f 5/7/39 44/121/40 28/17/41
f 32/11/42 37/23/43 27/16/44
f 32/11/45 26/15/46 37/23/47
f 31/20/48 37/23/49 26/15/50
f 5/7/51 43/119/52 44/121/53
f 18/24/54 31/20/55 30/19/56
f 18/24/57 37/23/58 31/20/59
f 33/26/60 21/27/61 16/28/62
f 1/29/63 33/26/64 16/28/65
f 16/30/66 40/115/67 1/49/68
f 5/34/69 36/33/70 14/32/71
f 37/38/72 18/25/73 38/37/74
f 2/75/75 11/39/76 24/40/77
f 5/34/78 8/42/79 36/33/80
f 8/42/81 12/41/82 36/33/83
f 6/45/84 28/18/85 30/22/86
f 27/21/87 37/47/88 23/92/89
f 8/42/90 24/48/91 11/98/92
f 4/50/93 41/116/94 25/9/95
f 13/52/96 19/53/97 25/10/98
f 4/50/99 25/9/100 19/54/101
f 26/63/102 29/57/103 42/118/104
f 28/18/105 34/58/106 29/59/107
f 30/35/108 31/71/109 15/72/110
f 28/18/111 6/45/112 34/55/113
f 15/65/114 31/66/115 26/64/116
f 16/30/117 13/43/118 39/114/119 40/115/120
f 9/67/121 17/68/122 27/69/123
f 8/42/124 11/98/125 12/41/126
f 20/78/127 3/76/128 17/77/129
f 9/79/130 27/21/131 10/70/132
f 15/65/133 26/64/134 22/82/135
f 5/46/136 14/83/137 43/120/138
f 7/84/139 11/39/140 35/74/141
f 2/75/142 35/74/143 11/39/144
f 35/85/145 2/86/146 3/76/147
f 35/85/148 3/76/149 20/78/150
f 4/61/151 21/87/152 33/60/153
f 16/30/154 19/88/155 13/43/156
f 9/62/157 20/89/158 17/44/159
f 10/70/160 27/21/161 23/92/162
f 30/35/163 15/72/164 6/90/165
f 14/83/166 38/91/167 18/36/168
f 37/38/169 38/37/170 23/93/171
f 16/97/172 21/95/173 7/73/174
f 11/94/175 7/73/176 21/95/177
f 16/97/178 7/73/179 35/96/180
f 12/99/181 11/94/182 21/95/183
f 12/99/184 21/95/185 4/100/186
f 35/96/187 20/101/188 16/97/189
f 16/97/190 20/101/191 19/102/192
f 9/105/193 19/102/194 20/101/195
f 4/100/196 19/102/197 12/99/198
f 22/107/199 36/103/200 12/99/201 19/102/202
f 22/107/203 34/104/204 36/103/205
f 26/63/206 42/118/207 22/106/208
f 9/105/209 22/107/210 19/102/211
f 34/80/212 6/81/213 36/103/214
f 23/112/215 22/107/216 9/105/217
f 23/112/218 15/108/219 22/107/220
f 6/81/221 14/109/222 36/103/223
f 6/81/224 38/110/225 14/109/226
f 23/112/227 9/105/228 10/111/229
f 15/108/230 23/112/231 38/110/232 6/81/233
f 25/10/234 32/12/235 39/113/236
f 40/115/237 39/114/238 32/31/239
f 1/49/240 40/115/241 32/31/242
f 4/50/243 33/51/244 41/116/245
f 8/3/246 41/117/247 33/4/248
f 42/118/249 29/57/250 34/56/251
f 22/106/252 42/118/253 34/56/254
f 43/120/255 14/83/256 18/36/257
f 44/121/258 43/119/259 18/24/260 30/19/261
f 28/17/262 44/121/263 30/19/264
