# This file uses meters as units for non-parametric coordinates.

v 5.753890 23.567638 -4.466399
v 5.466890 22.439575 4.716110
v 17.096186 -25.728743 -4.876251
v -0.244842 8.281193 5.133514
v 2.781458 -8.594570 -4.953346
v -16.508263 -19.966202 5.221137
v 15.856686 -20.601616 5.221137
v -5.425515 -17.900352 4.808883
v -7.425556 -25.125296 -4.867669
v 9.904085 -20.108967 -5.664863
v -12.478205 3.134422 -0.100936
v 4.416690 -18.081625 -4.761695
v -0.366082 8.251324 -5.162010
v -10.755868 -19.781153 -5.664331
v 11.547489 -25.136738 5.664826
v 4.683075 -17.932642 5.016669
v 7.596216 -26.625235 -4.744644
v -12.468928 -24.807930 5.663072
v 11.877766 2.614574 -0.125238
v -5.634274 -18.096506 -4.837417
v 17.895546 -25.428238 0.074576
v 7.009883 -26.758444 4.437865
v 17.109684 -26.584053 3.881340
v -5.827703 24.307499 4.482385
v -3.916378 16.685486 -5.662002
v 2.999835 -9.131832 5.179901
v 3.262730 16.659946 5.620652
v 3.266511 16.538830 -5.664444
v -3.896450 -9.134502 -5.208396
v -3.974796 16.610432 5.634117
v -3.675375 -8.566246 4.924812
v -8.168745 -26.718924 4.437865
v -0.835610 26.758442 -4.876289
v 6.000719 24.326038 0.794372
v 0.074472 26.697388 4.834710
v -17.830788 -25.418015 -4.875373
v -6.982336 21.892185 -4.510880
v -17.895546 -26.476042 3.881340
vt 0.247243 0.306986
vt 0.247243 0.306986
vt 0.247243 0.306986
vt 0.247243 0.306986
vt 0.247243 0.306986
vt 0.247243 0.306986
vt 0.247243 0.306986
vt 0.247243 0.306986
vt 0.247243 0.306986
vt 0.247243 0.306986
vt 0.247243 0.306986
vt 0.247243 0.306986
vt 0.247243 0.306986
vt 0.247243 0.306986
vt 0.247243 0.306986
vt 0.247243 0.306986
vt 0.247243 0.306986
vt 0.247243 0.306986
vt 0.247243 0.306986
vt 0.247243 0.306986
vt 0.247243 0.306986
vt 0.247243 0.306986
vt 0.247243 0.306986
vt 0.247243 0.306986
vt 0.247243 0.306986
vt 0.247243 0.306986
vt 0.247243 0.306986
vt 0.247243 0.306986
vt 0.247243 0.306986
vt 0.247243 0.306986
vt 0.247243 0.306986
vt 0.247243 0.306986
vt 0.247243 0.306986
vt 0.247243 0.306986
vt 0.247243 0.306986
vt 0.247243 0.306986
vt 0.247243 0.306986
vt 0.247243 0.306986
vt 0.247243 0.306986
vt 0.247243 0.306986
vt 0.247243 0.306986
vt 0.247243 0.306986
vt 0.247243 0.306986
vt 0.247243 0.306986
vt 0.247243 0.306986
vt 0.247243 0.306986
vt 0.247243 0.306986
vt 0.247243 0.306986
vt 0.247243 0.306986
vt 0.247243 0.306986
vt 0.247243 0.306986
vt 0.247243 0.306986
vt 0.247243 0.306986
vt 0.247243 0.306986
vt 0.247243 0.306986
vt 0.247243 0.306986
vt 0.247243 0.306986
vt 0.247243 0.306986
vt 0.247243 0.306986
vt 0.247243 0.306986
vt 0.247243 0.306986
vt 0.247243 0.306986
vt 0.247243 0.306986
vt 0.247243 0.306986
vt 0.247243 0.306986
vt 0.247243 0.306986
vt 0.247243 0.306986
vt 0.247243 0.306986
vt 0.247243 0.306986
vt 0.247243 0.306986
vt 0.247243 0.306986
vt 0.247243 0.306986
vt 0.247243 0.306986
vt 0.247243 0.306986
vt 0.247243 0.306986
vt 0.247243 0.306986
vt 0.247243 0.306986
vt 0.247243 0.306986
vt 0.247243 0.306986
vt 0.247243 0.306986
vt 0.247243 0.306986
vt 0.247243 0.306986
vt 0.247243 0.306986
vt 0.247243 0.306986
vt 0.247243 0.306986
vn 0.438457 0.886423 -0.148360
vn 0.438457 0.886423 -0.148360
vn 0.438457 0.886423 -0.148360
vn 0.937693 0.217997 -0.270573
vn 0.937693 0.217997 -0.270573
vn 0.937693 0.217997 -0.270573
vn -0.108139 0.121606 0.986670
vn -0.108139 0.121606 0.986670
vn -0.108139 0.121606 0.986670
vn -0.099991 -0.015982 0.994860
vn -0.099991 -0.015982 0.994860
vn -0.099991 -0.015982 0.994860
vn -0.140919 -0.045295 0.988984
vn -0.140919 -0.045295 0.988984
vn -0.140919 -0.045295 0.988984
vn -0.251829 0.065185 -0.965574
vn -0.251829 0.065185 -0.965574
vn -0.251829 0.065185 -0.965574
vn 0.098777 -0.017403 -0.994957
vn 0.098777 -0.017403 -0.994957
vn 0.098777 -0.017403 -0.994957
vn 0.121674 0.124781 -0.984696
vn 0.121674 0.124781 -0.984696
vn 0.121674 0.124781 -0.984695
vn 0.979860 -0.199387 -0.010960
vn 0.979860 -0.199387 -0.010960
vn 0.979860 -0.199387 -0.010960
vn 0.979954 -0.198962 -0.010222
vn 0.979954 -0.198962 -0.010222
vn 0.979954 -0.198962 -0.010222
vn 0.093831 -0.995552 -0.008451
vn 0.093831 -0.995552 -0.008451
vn 0.093831 -0.995552 -0.008451
vn 0.959023 0.146560 0.242478
vn 0.959023 0.146560 0.242478
vn 0.959023 0.146560 0.242478
vn 0.073022 -0.027219 0.996959
vn 0.073022 -0.027219 0.996959
vn 0.073022 -0.027219 0.996959
vn 0.161236 -0.042478 0.986001
vn 0.161236 -0.042478 0.986001
vn 0.161236 -0.042478 0.986001
vn 0.266878 0.069396 -0.961229
vn 0.266878 0.069396 -0.961229
vn 0.266878 0.069396 -0.961229
vn -0.076906 -0.026715 -0.996680
vn -0.076906 -0.026715 -0.996680
vn -0.076906 -0.026715 -0.996680
vn 0.031496 0.081043 -0.996213
vn 0.031496 0.081042 -0.996213
vn 0.031496 0.081042 -0.996213
vn -0.000540 -0.139644 -0.990202
vn -0.000540 -0.139644 -0.990202
vn -0.000540 -0.139644 -0.990202
vn -0.218537 -0.121115 0.968283
vn -0.218537 -0.121115 0.968283
vn -0.218537 -0.121115 0.968283
vn 0.264039 -0.157795 0.951517
vn 0.264039 -0.157795 0.951517
vn 0.264039 -0.157795 0.951517
vn 0.001327 -0.999793 0.020301
vn 0.001327 -0.999793 0.020301
vn 0.001327 -0.999793 0.020301
vn 0.007590 -0.042827 -0.999054
vn 0.007590 -0.042827 -0.999054
vn 0.007590 -0.042827 -0.999054
vn 0.954262 -0.297907 0.025194
vn 0.954263 -0.297906 0.025194
vn 0.954263 -0.297906 0.025194
vn 0.051679 -0.690480 0.721503
vn 0.051679 -0.690480 0.721503
vn 0.051679 -0.690480 0.721503
vn -0.187768 -0.071833 -0.979583
vn -0.187768 -0.071833 -0.979583
vn -0.187768 -0.071833 -0.979583
vn -0.257327 -0.285190 -0.923282
vn -0.257327 -0.285190 -0.923282
vn -0.257327 -0.285190 -0.923282
vn 0.126673 0.022954 -0.991679
vn 0.126673 0.022954 -0.991679
vn 0.126673 0.022954 -0.991679
vn -0.139795 -0.025308 -0.989857
vn -0.139795 -0.025308 -0.989857
vn -0.139795 -0.025308 -0.989857
vn -0.086804 0.018498 0.996054
vn -0.086804 0.018498 0.996054
vn -0.086804 0.018498 0.996054
vn 0.131859 -0.026349 0.990918
vn 0.131859 -0.026349 0.990918
vn 0.131859 -0.026349 0.990918
vn -0.265058 0.079976 0.960910
vn -0.265058 0.079976 0.960910
vn -0.265058 0.079976 0.960910
vn 0.701902 -0.708795 -0.070306
vn 0.701902 -0.708795 -0.070306
vn 0.701902 -0.708795 -0.070306
vn -0.929118 0.228985 0.290355
vn -0.929118 0.228985 0.290355
vn -0.929118 0.228985 0.290355
vn -0.955816 0.290551 0.044683
vn -0.955816 0.290551 0.044683
vn -0.955816 0.290551 0.044683
vn -0.943937 0.218357 -0.247593
vn -0.943938 0.218357 -0.247593
vn -0.943937 0.218357 -0.247593
vn -0.977846 0.190553 0.086641
vn -0.977846 0.190553 0.086641
vn -0.977846 0.190553 0.086641
vn -0.983214 0.181860 0.014702
vn -0.983215 0.181860 0.014702
vn -0.983214 0.181860 0.014702
vn 0.011827 -0.995193 -0.097213
vn 0.011827 -0.995193 -0.097213
vn 0.011827 -0.995193 -0.097213
vn 0.027851 -0.985636 -0.166571
vn 0.027851 -0.985636 -0.166571
vn 0.027851 -0.985636 -0.166571
vn -0.017916 -0.992605 -0.120063
vn -0.017916 -0.992605 -0.120063
vn -0.017916 -0.992605 -0.120063
vn 0.082382 0.995295 0.050995
vn 0.082382 0.995295 0.050995
vn 0.082382 0.995295 0.050995
vn -0.078419 0.995451 -0.054113
vn -0.078419 0.995451 -0.054113
vn -0.078419 0.995451 -0.054113
vn 0.968920 -0.246860 -0.015949
vn 0.968920 -0.246860 -0.015949
vn 0.968920 -0.246860 -0.015949
vn -0.003509 -0.999876 0.015330
vn -0.003509 -0.999876 0.015330
vn -0.003509 -0.999876 0.015330
vn -0.966028 -0.256663 0.030227
vn -0.966028 -0.256663 0.030227
vn -0.966028 -0.256663 0.030227
vn -0.935194 -0.348164 -0.064766
vn -0.935194 -0.348164 -0.064766
vn -0.935194 -0.348164 -0.064766
vn -0.982950 -0.183516 0.011453
vn -0.982950 -0.183516 0.011453
vn -0.982950 -0.183516 0.011453
vn -0.983013 -0.183139 0.012107
vn -0.983013 -0.183139 0.012107
vn -0.983013 -0.183139 0.012107
vn -0.156691 0.124349 -0.979788
vn -0.156691 0.124349 -0.979788
vn -0.156691 0.124349 -0.979788
vn -0.001561 -0.059833 -0.998207
vn -0.001561 -0.059833 -0.998207
vn -0.001561 -0.059833 -0.998207
vn 0.001241 0.077389 -0.997000
vn 0.001241 0.077389 -0.997000
vn 0.001241 0.077389 -0.997000
vn 0.004798 -0.144515 -0.989491
vn 0.004798 -0.144515 -0.989491
vn 0.004798 -0.144515 -0.989491
vn 0.171944 -0.039583 -0.984311
vn 0.171944 -0.039583 -0.984311
vn 0.171944 -0.039583 -0.984311
vn 0.183281 -0.076111 -0.980110
vn 0.183281 -0.076111 -0.980110
vn 0.183281 -0.076111 -0.980110
vn -0.130013 0.024448 -0.991211
vn -0.130013 0.024448 -0.991211
vn -0.130013 0.024448 -0.991211
vn 0.093202 -0.017417 -0.995495
vn 0.093202 -0.017417 -0.995495
vn 0.093202 -0.017417 -0.995495
vn 0.083961 0.017695 0.996312
vn 0.083961 0.017695 0.996312
vn 0.083961 0.017695 0.996312
vn -0.086729 -0.016138 0.996101
vn -0.086729 -0.016138 0.996101
vn -0.086729 -0.016138 0.996101
vn 0.225938 0.065943 0.971907
vn 0.225938 0.065943 0.971907
vn 0.225938 0.065943 0.971907
vn 0.110481 0.112415 0.987500
vn 0.110481 0.112415 0.987500
vn 0.110481 0.112415 0.987500
vn 0.002261 -0.058985 0.998256
vn 0.002261 -0.058985 0.998256
vn 0.002261 -0.058985 0.998256
vn 0.001318 0.078478 0.996915
vn 0.001318 0.078478 0.996915
vn 0.001318 0.078478 0.996915
vn -0.040394 -0.026252 0.998839
vn -0.040394 -0.026252 0.998839
vn -0.040394 -0.026252 0.998839
vn -0.020578 -0.008559 0.999752
vn -0.020578 -0.008559 0.999752
vn -0.020578 -0.008559 0.999752
vn 0.226333 -0.111119 0.967691
vn 0.226333 -0.111119 0.967691
vn 0.226333 -0.111119 0.967691
vn -0.270253 -0.138499 0.952776
vn -0.270253 -0.138499 0.952776
vn -0.270253 -0.138499 0.952776
vn -0.060011 -0.630956 0.773494
vn -0.060011 -0.630956 0.773494
vn -0.060011 -0.630956 0.773494
vn 0.960416 0.207423 0.185950
vn 0.960416 0.207423 0.185950
vn 0.960416 0.207423 0.185950
vn 0.964066 0.205683 -0.168143
vn 0.964066 0.205683 -0.168143
vn 0.964066 0.205683 -0.168143
vn 0.961030 0.263660 -0.083100
vn 0.961030 0.263660 -0.083100
vn 0.961030 0.263660 -0.083100
vn 0.927397 0.227352 0.297062
vn 0.927397 0.227352 0.297062
vn 0.927397 0.227352 0.297062
vn 0.938425 0.243646 0.244939
vn 0.938425 0.243646 0.244939
vn 0.938425 0.243646 0.244939
vn 0.568566 0.708427 0.418166
vn 0.568566 0.708427 0.418166
vn 0.568566 0.708427 0.418166
vn -0.377108 0.925254 0.041158
vn -0.377108 0.925254 0.041158
vn -0.377108 0.925254 0.041158
vn 0.355200 0.934388 -0.027413
vn 0.355200 0.934388 -0.027413
vn 0.355200 0.934388 -0.027413
vn -0.620263 0.773848 -0.128197
vn -0.620263 0.773847 -0.128197
vn -0.620263 0.773847 -0.128197
s off
f 1/1/1 33/2/2 34/3/3
f 1/4/4 19/5/5 3/6/6
f 24/7/7 30/8/8 35/9/9
f 4/10/10 26/11/11 27/12/12
f 26/11/13 16/13/14 15/14/15
f 37/15/16 25/16/17 36/17/18
f 13/18/19 29/19/20 25/16/21
f 1/20/22 28/21/23 33/22/24
f 4/23/25 31/24/26 13/25/27
f 13/25/28 31/24/29 29/26/30
f 3/27/31 22/28/32 17/29/33
f 7/30/34 23/31/35 21/32/36
f 4/10/37 30/8/38 31/33/39
f 31/33/40 18/34/41 8/35/42
f 1/20/43 3/36/44 28/21/45
f 13/18/46 28/21/47 5/37/48
f 5/37/49 10/38/50 29/19/51
f 3/36/52 17/39/53 10/38/54
f 16/13/55 22/40/56 15/14/57
f 7/41/58 15/14/59 23/42/60
f 12/43/61 8/44/62 20/45/63
f 20/46/64 29/19/65 12/47/66
f 8/48/67 32/49/68 9/50/69
f 23/42/70 15/14/71 22/40/72
f 10/38/73 17/39/74 12/47/75
f 29/19/76 10/38/77 12/47/78
f 10/38/79 28/21/80 3/36/81
f 5/37/82 28/21/83 10/38/84
f 18/34/85 30/8/86 6/51/87
f 31/33/88 30/8/89 18/34/90
f 30/8/91 24/7/92 6/51/93
f 3/6/94 21/32/95 23/31/96
f 24/52/97 11/53/98 6/54/99
f 37/55/100 11/53/101 24/52/102
f 36/56/103 11/53/104 37/55/105
f 11/53/106 38/57/107 6/54/108
f 36/56/109 38/57/110 11/53/111
f 23/58/112 22/28/113 3/27/114
f 9/59/115 32/60/116 36/61/117
f 32/60/118 38/62/119 36/61/120
f 5/63/121 31/64/122 26/65/123
f 5/63/124 29/66/125 31/64/126
f 20/67/127 8/48/128 9/50/129
f 12/43/130 16/68/131 8/44/132
f 12/69/133 22/70/134 16/71/135
f 17/72/136 22/70/137 12/69/138
f 26/73/139 13/25/140 5/74/141
f 13/25/142 26/73/143 4/23/144
f 33/22/145 25/16/146 37/15/147
f 25/16/148 28/21/149 13/18/150
f 33/22/151 28/21/152 25/16/153
f 14/75/154 9/76/155 36/17/156
f 14/75/157 20/46/158 9/76/159
f 14/75/160 29/19/161 20/46/162
f 25/16/163 14/75/164 36/17/165
f 25/16/166 29/19/167 14/75/168
f 27/12/169 15/14/170 7/41/171
f 27/12/172 26/11/173 15/14/174
f 2/77/175 27/12/176 7/41/177
f 35/9/178 27/12/179 2/77/180
f 27/12/181 30/8/182 4/10/183
f 35/9/184 30/8/185 27/12/186
f 31/33/187 16/13/188 26/11/189
f 8/35/190 16/13/191 31/33/192
f 18/34/193 32/78/194 8/35/195
f 38/79/196 18/34/197 6/51/198
f 38/79/199 32/78/200 18/34/201
f 21/32/202 19/5/203 7/30/204
f 3/6/205 19/5/206 21/32/207
f 34/80/208 19/5/209 1/4/210
f 19/5/211 2/81/212 7/30/213
f 34/80/214 2/81/215 19/5/216
f 34/3/217 35/82/218 2/83/219
f 35/82/220 33/2/221 24/84/222
f 34/3/223 33/2/224 35/82/225
f 33/2/226 37/85/227 24/84/228
