# This file uses meters as units for non-parametric coordinates.

v 5.641556 14.510727 -4.812281
v -15.385283 26.834812 -4.844550
v -4.438515 -27.666491 -4.486733
v 5.686398 -26.154993 -4.876098
v -5.460053 -25.599310 4.859963
v 15.197717 26.848469 -4.810181
v 14.762916 21.959572 5.717163
v 15.200387 22.014084 -5.695879
v 16.863346 18.008137 -3.885727
v 0.093441 -25.874710 5.710069
v 0.044480 -26.199741 -5.695991
v 6.664390 -25.929430 -0.060884
v -16.627062 17.167702 -3.885727
v 15.128785 27.666492 0.048408
v -15.519981 21.967678 5.706633
v -15.527647 21.985111 -5.717164
v -5.878944 16.681042 5.029905
v -16.592255 26.458721 4.506532
v 7.021999 16.029530 0.009916
v 0.597573 16.843548 -5.621072
v -6.421011 -26.039658 0.031509
v -6.046026 16.783047 -5.010107
v 5.734633 -26.189421 4.887466
v 16.694717 26.413994 4.462012
v -6.901550 15.980034 0.009916
v -16.863346 18.008137 3.905487
v 16.499462 17.167702 3.905487
v 6.177787 16.298618 5.029905
vt 0.247243 0.306986
vt 0.247243 0.306986
vt 0.247243 0.306986
vt 0.247243 0.306986
vt 0.247243 0.306986
vt 0.247243 0.306986
vt 0.247243 0.306986
vt 0.247243 0.306986
vt 0.247243 0.306986
vt 0.247243 0.306986
vt 0.247243 0.306986
vt 0.247243 0.306986
vt 0.247243 0.306986
vt 0.247243 0.306986
vt 0.247243 0.306986
vt 0.247243 0.306986
vt 0.247243 0.306986
vt 0.247243 0.306986
vt 0.247243 0.306986
vt 0.247243 0.306986
vt 0.247243 0.306986
vt 0.247243 0.306986
vt 0.247243 0.306986
vt 0.247243 0.306986
vt 0.247243 0.306986
vt 0.247243 0.306986
vt 0.247243 0.306986
vt 0.247243 0.306986
vt 0.247243 0.306986
vt 0.247243 0.306986
vt 0.247243 0.306986
vt 0.247243 0.306986
vt 0.247243 0.306986
vt 0.247243 0.306986
vt 0.247243 0.306986
vt 0.247243 0.306986
vt 0.247243 0.306986
vt 0.247243 0.306986
vt 0.247243 0.306986
vt 0.247243 0.306986
vt 0.247243 0.306986
vt 0.247243 0.306986
vt 0.247243 0.306986
vt 0.247243 0.306986
vt 0.247243 0.306986
vt 0.247243 0.306986
vt 0.247243 0.306986
vt 0.247243 0.306986
vt 0.247243 0.306986
vt 0.247243 0.306986
vt 0.247243 0.306986
vt 0.247243 0.306986
vt 0.247243 0.306986
vt 0.247243 0.306986
vt 0.247243 0.306986
vt 0.247243 0.306986
vt 0.247243 0.306986
vt 0.247243 0.306986
vt 0.247243 0.306986
vt 0.247243 0.306986
vt 0.247243 0.306986
vt 0.247243 0.306986
vn -0.991155 0.040778 -0.126291
vn -0.991155 0.040778 -0.126291
vn -0.991155 0.040778 -0.126291
vn -0.051979 -0.976268 0.210237
vn -0.051979 -0.976268 0.210237
vn -0.051979 -0.976268 0.210237
vn -0.383484 -0.909708 0.159285
vn -0.383484 -0.909708 0.159285
vn -0.383484 -0.909708 0.159285
vn 0.144030 -0.004820 0.989562
vn 0.144030 -0.004820 0.989562
vn 0.144030 -0.004820 0.989562
vn -0.980510 -0.011112 0.196154
vn -0.980510 -0.011112 0.196154
vn -0.980510 -0.011112 0.196154
vn 0.637019 -0.059709 0.768532
vn 0.637019 -0.059709 0.768532
vn 0.637019 -0.059709 0.768532
vn -0.000254 0.986120 -0.166033
vn -0.000254 0.986120 -0.166033
vn -0.000254 0.986120 -0.166033
vn 0.001657 0.962167 0.272457
vn 0.001657 0.962167 0.272457
vn 0.001657 0.962167 0.272457
vn -0.091024 0.243102 -0.965720
vn -0.091024 0.243102 -0.965720
vn -0.091024 0.243102 -0.965720
vn -0.138787 -0.370656 0.918342
vn -0.138787 -0.370656 0.918342
vn -0.138787 -0.370656 0.918342
vn -0.003650 -0.115061 0.993352
vn -0.003650 -0.115061 0.993352
vn -0.003650 -0.115061 0.993352
vn 0.128698 -0.309555 0.942132
vn 0.128698 -0.309555 0.942132
vn 0.128698 -0.309555 0.942132
vn 0.001651 0.270551 0.962704
vn 0.001651 0.270551 0.962704
vn 0.001651 0.270551 0.962704
vn -0.000379 -0.127651 0.991819
vn -0.000379 -0.127651 0.991819
vn -0.000379 -0.127651 0.991819
vn -0.000267 0.258103 0.966117
vn -0.000267 0.258103 0.966117
vn -0.000267 0.258103 0.966117
vn 0.182416 -0.340986 -0.922200
vn 0.182416 -0.340986 -0.922200
vn 0.182416 -0.340986 -0.922200
vn 0.065162 -0.198181 -0.977997
vn 0.065162 -0.198181 -0.977997
vn 0.065162 -0.198181 -0.977997
vn 0.000812 -0.133227 -0.991085
vn 0.000812 -0.133227 -0.991085
vn 0.000812 -0.133227 -0.991085
vn 0.001025 0.180209 -0.983628
vn 0.001025 0.180209 -0.983628
vn 0.001025 0.180209 -0.983628
vn 0.000515 0.177073 -0.984198
vn 0.000515 0.177073 -0.984198
vn 0.000515 0.177073 -0.984198
vn -0.111603 -0.330782 -0.937085
vn -0.111603 -0.330782 -0.937085
vn -0.111603 -0.330782 -0.937085
vn -0.032982 0.998811 0.035914
vn -0.032982 0.998810 0.035914
vn -0.032982 0.998811 0.035914
vn 0.158498 -0.982427 -0.098571
vn 0.158498 -0.982427 -0.098571
vn 0.158498 -0.982427 -0.098571
vn 0.833168 0.100104 -0.543884
vn 0.833168 0.100104 -0.543884
vn 0.833168 0.100104 -0.543884
vn -0.920016 -0.037865 -0.390047
vn -0.920016 -0.037865 -0.390047
vn -0.920016 -0.037865 -0.390047
vn -0.985421 -0.011357 -0.169754
vn -0.985421 -0.011357 -0.169754
vn -0.985421 -0.011357 -0.169754
vn -0.979534 -0.010513 0.201006
vn -0.979534 -0.010513 0.201006
vn -0.979534 -0.010513 0.201006
vn -0.151576 -0.005475 0.988430
vn -0.151576 -0.005475 0.988430
vn -0.151576 -0.005475 0.988430
vn 0.000509 0.016052 0.999871
vn 0.000509 0.016052 0.999871
vn 0.000509 0.016052 0.999871
vn 0.143798 0.001712 -0.989606
vn 0.143798 0.001712 -0.989606
vn 0.143798 0.001712 -0.989606
vn -0.254099 -0.020575 -0.966959
vn -0.254099 -0.020575 -0.966959
vn -0.254099 -0.020575 -0.966959
vn 0.158184 -0.000314 -0.987410
vn 0.158184 -0.000314 -0.987410
vn 0.158184 -0.000314 -0.987410
vn -0.091602 0.002910 -0.995791
vn -0.091602 0.002910 -0.995791
vn -0.091602 0.002910 -0.995791
vn -0.052680 -0.998397 0.020701
vn -0.052680 -0.998397 0.020701
vn -0.052680 -0.998397 0.020701
vn 0.094461 -0.789110 -0.606946
vn 0.094461 -0.789110 -0.606946
vn 0.094461 -0.789110 -0.606946
vn 0.982848 -0.010868 0.184098
vn 0.982848 -0.010868 0.184098
vn 0.982848 -0.010868 0.184098
vn 0.246347 -0.969171 -0.004634
vn 0.246347 -0.969171 -0.004634
vn 0.246347 -0.969171 -0.004634
vn 0.979978 0.001393 -0.199103
vn 0.979978 0.001393 -0.199103
vn 0.979978 0.001393 -0.199103
vn 0.986039 -0.008684 0.166288
vn 0.986039 -0.008684 0.166288
vn 0.986039 -0.008684 0.166288
vn 0.961997 -0.007738 -0.272952
vn 0.961997 -0.007738 -0.272952
vn 0.961996 -0.007738 -0.272952
vn 0.147489 -0.989055 -0.004216
vn 0.147489 -0.989055 -0.004216
vn 0.147489 -0.989055 -0.004216
vn -0.991453 0.123057 -0.043342
vn -0.991453 0.123057 -0.043342
vn -0.991453 0.123057 -0.043342
vn 0.771253 0.629396 -0.095027
vn 0.771252 0.629396 -0.095027
vn 0.771252 0.629396 -0.095027
vn 0.974400 0.167961 -0.149447
vn 0.974400 0.167961 -0.149447
vn 0.974400 0.167961 -0.149447
vn 0.998746 -0.023744 0.044085
vn 0.998746 -0.023744 0.044085
vn 0.998746 -0.023744 0.044085
vn 0.274133 -0.936974 0.216634
vn 0.274133 -0.936974 0.216634
vn 0.274133 -0.936974 0.216634
vn 0.091121 -0.993476 0.068578
vn 0.091121 -0.993476 0.068578
vn 0.091121 -0.993476 0.068578
vn -0.134844 -0.977213 0.163929
vn -0.134844 -0.977212 0.163929
vn -0.134844 -0.977213 0.163929
vn -0.160381 -0.981869 0.101050
vn -0.160381 -0.981869 0.101050
vn -0.160381 -0.981869 0.101050
vn -0.053497 -0.984570 -0.166611
vn -0.053497 -0.984571 -0.166611
vn -0.053497 -0.984570 -0.166611
vn -0.780540 -0.019399 0.624804
vn -0.780541 -0.019399 0.624804
vn -0.780540 -0.019399 0.624804
vn -0.938749 0.087528 -0.333299
vn -0.938749 0.087528 -0.333299
vn -0.938749 0.087528 -0.333299
s off
f 18/1/1 2/2/2 26/3/3
f 5/4/4 3/5/5 23/6/6
f 5/7/7 21/8/8 3/9/9
f 28/10/10 10/11/11 23/12/12
f 5/7/13 25/13/14 21/8/15
f 24/14/16 7/15/17 27/16/18
f 6/17/19 2/18/20 14/19/21
f 24/20/22 14/19/23 18/21/24
f 22/22/25 8/23/26 20/24/27
f 26/25/28 17/26/29 15/27/30
f 17/26/31 28/10/32 7/15/33
f 7/15/34 28/10/35 27/16/36
f 18/28/37 7/15/38 24/14/39
f 7/15/40 15/27/41 17/26/42
f 18/28/43 15/27/44 7/15/45
f 8/23/46 9/29/47 1/30/48
f 20/24/49 8/23/50 1/30/51
f 16/31/52 8/23/53 22/22/54
f 8/23/55 2/32/56 6/33/57
f 16/31/58 2/32/59 8/23/60
f 13/34/61 16/31/62 22/22/63
f 18/21/64 14/19/65 2/18/66
f 27/35/67 19/36/68 9/37/69
f 9/29/70 8/23/71 6/33/72
f 21/8/73 22/38/74 3/9/75
f 21/8/76 25/13/77 22/38/78
f 17/39/79 25/13/80 5/7/81
f 10/11/82 17/26/83 5/40/84
f 28/10/85 17/26/86 10/11/87
f 11/41/88 1/30/89 4/42/90
f 22/22/91 11/41/92 3/43/93
f 11/41/94 20/24/95 1/30/96
f 22/22/97 20/24/98 11/41/99
f 23/12/100 10/11/101 5/40/102
f 3/43/103 11/41/104 4/42/105
f 23/44/106 12/45/107 28/46/108
f 12/45/109 23/44/110 4/47/111
f 1/48/112 12/45/113 4/47/114
f 12/45/115 19/49/116 28/46/117
f 1/48/118 19/49/119 12/45/120
f 23/6/121 3/5/122 4/50/123
f 26/3/124 2/2/125 13/51/126
f 24/20/127 6/17/128 14/19/129
f 24/52/130 9/53/131 6/54/132
f 24/52/133 27/55/134 9/53/135
f 9/37/136 19/36/137 1/56/138
f 28/57/139 19/36/140 27/35/141
f 25/58/142 17/59/143 26/60/144
f 13/61/145 25/58/146 26/60/147
f 25/58/148 13/61/149 22/62/150
f 26/25/151 15/27/152 18/28/153
f 16/31/154 13/34/155 2/32/156
