# This file uses meters as units for non-parametric coordinates.

v -6.365873 16.859585 4.416132
v -4.322404 -3.279181 4.893589
v 13.328393 -16.432011 4.829931
v 14.103750 -26.706499 3.516884
v -14.034990 24.418821 -5.180836
v 4.546876 10.062923 5.318804
v 4.160879 17.359764 5.318804
v -13.063279 24.432705 4.288406
v -2.627191 18.129683 -4.607401
v 5.819448 -15.855671 -5.243044
v 13.407516 -25.785564 -4.399757
v -14.337727 4.346102 -3.624334
v -15.244444 12.473523 -3.805733
v -7.607866 12.929536 -3.846401
v -14.675533 -25.978321 -4.026499
v 11.833334 26.706497 1.037064
v 11.247964 26.014557 5.318804
v -8.034061 12.457921 1.813288
v -12.138201 4.757365 3.825359
v 3.275091 4.981448 5.218821
v 15.054015 -2.958540 4.653606
v -4.333938 -15.553969 4.368010
v -11.383373 -26.430458 5.206232
v 15.506718 -20.353394 2.642303
v -13.578378 2.470138 5.228214
v -14.930277 -23.590199 5.249338
v 3.340704 5.619266 -5.212154
v 14.862692 -17.620775 1.357955
v -3.404334 -14.377100 0.508337
v -3.528745 -19.246080 -5.282574
v 11.258835 26.342319 -5.171604
v 14.843685 22.449091 -5.231838
v 3.416572 17.748674 -5.295439
v 15.243776 24.451767 2.031708
v -14.712513 12.090977 4.416132
v 14.649658 -16.974846 -3.944769
v -9.621744 26.693768 0.082808
v -15.245323 19.465767 5.095901
v 14.370123 -3.955784 -4.203148
v -2.033879 -4.156938 -5.203133
vt 0.243979 0.305250
vt 0.243979 0.305250
vt 0.243979 0.305250
vt 0.243979 0.305250
vt 0.243979 0.305250
vt 0.243979 0.305250
vt 0.243979 0.305250
vt 0.243979 0.305250
vt 0.243979 0.305250
vt 0.243979 0.305250
vt 0.243979 0.305250
vt 0.243979 0.305250
vt 0.243979 0.305250
vt 0.243979 0.305250
vt 0.243979 0.305250
vt 0.243979 0.305250
vt 0.243979 0.305250
vt 0.243979 0.305250
vt 0.243979 0.305250
vt 0.243979 0.305250
vt 0.243979 0.305250
vt 0.243979 0.305250
vt 0.243979 0.305250
vt 0.243979 0.305250
vt 0.243979 0.305250
vt 0.243979 0.305250
vt 0.243979 0.305250
vt 0.243979 0.305250
vt 0.243979 0.305250
vt 0.243979 0.305250
vt 0.243979 0.305250
vt 0.243979 0.305250
vt 0.243979 0.305250
vt 0.243979 0.305250
vt 0.243979 0.305250
vt 0.243979 0.305250
vt 0.243979 0.305250
vt 0.243979 0.305250
vt 0.243979 0.305250
vt 0.243979 0.305250
vt 0.243979 0.305250
vt 0.243979 0.305250
vt 0.243979 0.305250
vt 0.243979 0.305250
vt 0.243979 0.305250
vt 0.243979 0.305250
vt 0.243979 0.305250
vt 0.243979 0.305250
vt 0.243979 0.305250
vt 0.243979 0.305250
vt 0.243979 0.305250
vt 0.243979 0.305250
vt 0.243979 0.305250
vt 0.243979 0.305250
vt 0.243979 0.305250
vt 0.243979 0.305250
vt 0.243979 0.305250
vt 0.243979 0.305250
vt 0.243979 0.305250
vt 0.243979 0.305250
vt 0.243979 0.305250
vt 0.243979 0.305250
vt 0.243979 0.305250
vt 0.243979 0.305250
vt 0.243979 0.305250
vt 0.243979 0.305250
vt 0.243979 0.305250
vt 0.243979 0.305250
vt 0.243979 0.305250
vt 0.243979 0.305250
vt 0.243979 0.305250
vt 0.243979 0.305250
vt 0.243979 0.305250
vt 0.243979 0.305250
vt 0.243979 0.305250
vt 0.243979 0.305250
vt 0.243979 0.305250
vt 0.243979 0.305250
vt 0.243979 0.305250
vt 0.243979 0.305250
vt 0.243979 0.305250
vt 0.243979 0.305250
vt 0.243979 0.305250
vt 0.243979 0.305250
vt 0.243979 0.305250
vt 0.243979 0.305250
vt 0.243979 0.305250
vt 0.243979 0.305250
vt 0.243979 0.305250
vt 0.243979 0.305250
vt 0.243979 0.305250
vt 0.243979 0.305250
vt 0.243979 0.305250
vt 0.243979 0.305250
vt 0.243979 0.305250
vt 0.243979 0.305250
vt 0.243979 0.305250
vt 0.243979 0.305250
vt 0.243979 0.305250
vt 0.243979 0.305250
vt 0.243979 0.305250
vt 0.243979 0.305250
vt 0.243979 0.305250
vt 0.243979 0.305250
vt 0.243979 0.305250
vt 0.243979 0.305250
vn -0.070516 0.986209 0.149734
vn -0.070516 0.986209 0.149734
vn -0.070516 0.986209 0.149734
vn -0.041073 -0.019475 0.998966
vn -0.041073 -0.019475 0.998966
vn -0.041073 -0.019475 0.998966
vn 0.649541 0.067940 0.757285
vn 0.649541 0.067940 0.757285
vn 0.649541 0.067940 0.757285
vn 0.445206 -0.050241 0.894018
vn 0.445206 -0.050241 0.894018
vn 0.445206 -0.050241 0.894018
vn -0.088634 0.072579 0.993416
vn -0.088634 0.072579 0.993416
vn -0.088634 0.072579 0.993416
vn -0.006401 0.011204 0.999917
vn -0.006401 0.011204 0.999917
vn -0.006401 0.011204 0.999917
vn 0.325442 -0.569632 0.754723
vn 0.325442 -0.569631 0.754723
vn 0.325442 -0.569631 0.754723
vn 0.000000 0.000000 1.000000
vn 0.000000 0.000000 1.000000
vn 0.000000 0.000000 1.000000
vn 0.041591 -0.017472 0.998982
vn 0.041591 -0.017472 0.998982
vn 0.041591 -0.017472 0.998982
vn 0.029686 -0.027090 0.999192
vn 0.029686 -0.027090 0.999192
vn 0.029686 -0.027090 0.999192
vn -0.082744 0.558382 0.825447
vn -0.082744 0.558382 0.825447
vn -0.082744 0.558382 0.825447
vn 0.009128 -0.057524 0.998302
vn 0.009128 -0.057524 0.998302
vn 0.009128 -0.057524 0.998302
vn 0.012992 -0.037241 0.999222
vn 0.012992 -0.037241 0.999222
vn 0.012992 -0.037241 0.999222
vn 0.009541 -0.042786 0.999039
vn 0.009541 -0.042786 0.999039
vn 0.009541 -0.042786 0.999039
vn 0.085623 -0.003634 0.996321
vn 0.085623 -0.003634 0.996321
vn 0.085623 -0.003634 0.996321
vn 0.666616 -0.044782 0.744055
vn 0.666616 -0.044782 0.744055
vn 0.666616 -0.044782 0.744055
vn 0.064333 -0.121725 0.990477
vn 0.064333 -0.121725 0.990477
vn 0.064333 -0.121725 0.990477
vn -0.021531 0.090687 0.995647
vn -0.021531 0.090687 0.995647
vn -0.021531 0.090687 0.995647
vn 0.048520 0.045449 0.997788
vn 0.048520 0.045449 0.997788
vn 0.048520 0.045449 0.997788
vn 0.997054 -0.014115 -0.075400
vn 0.997054 -0.014115 -0.075400
vn 0.997053 -0.014115 -0.075400
vn -0.989407 -0.052339 0.135407
vn -0.989407 -0.052339 0.135407
vn -0.989407 -0.052339 0.135407
vn -0.997511 0.006721 0.070195
vn -0.997511 0.006721 0.070195
vn -0.997511 0.006721 0.070195
vn -0.036165 0.977229 -0.209082
vn -0.036165 0.977229 -0.209082
vn -0.036165 0.977229 -0.209082
vn -0.036165 0.977229 -0.209082
vn -0.020988 0.887645 0.460050
vn -0.020988 0.887645 0.460050
vn -0.020988 0.887645 0.460050
vn 0.497718 0.842943 0.204266
vn 0.497717 0.842943 0.204266
vn 0.497717 0.842943 0.204266
vn -0.994021 0.051644 0.096208
vn -0.994021 0.051644 0.096208
vn -0.994021 0.051644 0.096208
vn 0.017599 -0.995736 0.090553
vn 0.017599 -0.995736 0.090553
vn 0.017599 -0.995736 0.090553
vn 0.005390 -0.993752 0.111477
vn 0.005390 -0.993752 0.111477
vn 0.005390 -0.993752 0.111477
vn -0.613388 -0.768745 0.181072
vn -0.613388 -0.768745 0.181072
vn -0.613388 -0.768745 0.181072
vn 0.926620 -0.374012 0.038612
vn 0.926620 -0.374012 0.038612
vn 0.926620 -0.374012 0.038612
vn 0.059266 -0.996978 -0.050222
vn 0.059266 -0.996978 -0.050222
vn 0.059266 -0.996978 -0.050222
vn 0.023065 -0.996423 -0.081294
vn 0.023065 -0.996423 -0.081294
vn 0.023065 -0.996423 -0.081294
vn -0.995138 -0.077498 0.060777
vn -0.995138 -0.077498 0.060777
vn -0.995138 -0.077498 0.060777
vn -0.081464 -0.981734 -0.171935
vn -0.081464 -0.981734 -0.171935
vn -0.081464 -0.981734 -0.171935
vn 0.050856 -0.997899 -0.040130
vn 0.050856 -0.997899 -0.040130
vn 0.050856 -0.997899 -0.040130
vn -0.970082 0.242619 0.008733
vn -0.970082 0.242619 0.008733
vn -0.970082 0.242619 0.008733
vn 0.692378 0.719055 0.059773
vn 0.692378 0.719055 0.059773
vn 0.692378 0.719055 0.059773
vn 0.897060 0.342605 0.279115
vn 0.897060 0.342605 0.279115
vn 0.897060 0.342605 0.279115
vn 0.972888 -0.010806 0.231026
vn 0.972888 -0.010806 0.231026
vn 0.972888 -0.010806 0.231026
vn 0.357094 0.865992 0.350061
vn 0.357094 0.865992 0.350061
vn 0.357094 0.865992 0.350061
vn -0.266005 0.740635 -0.617010
vn -0.266005 0.740635 -0.617010
vn -0.266005 0.740635 -0.617010
vn 0.131626 0.990432 -0.041452
vn 0.131626 0.990432 -0.041452
vn 0.131626 0.990432 -0.041452
vn 0.049105 0.998583 0.020529
vn 0.049105 0.998583 0.020529
vn 0.049105 0.998583 0.020529
vn 0.974494 0.224099 -0.011852
vn 0.974494 0.224099 -0.011852
vn 0.974494 0.224099 -0.011852
vn 0.938827 -0.241167 -0.245849
vn 0.938827 -0.241167 -0.245849
vn 0.938827 -0.241167 -0.245849
vn -0.504542 0.861908 0.050511
vn -0.504542 0.861908 0.050511
vn -0.504542 0.861908 0.050511
vn 0.663013 0.727672 -0.175803
vn 0.663013 0.727672 -0.175803
vn 0.663013 0.727672 -0.175803
vn 0.663013 0.727672 -0.175803
vn -0.906016 0.413042 0.092368
vn -0.906016 0.413042 0.092368
vn -0.906016 0.413042 0.092368
vn -0.993096 0.092202 -0.072523
vn -0.993096 0.092202 -0.072523
vn -0.993096 0.092202 -0.072523
vn 0.998575 -0.019839 -0.049534
vn 0.998575 -0.019839 -0.049534
vn 0.998575 -0.019839 -0.049534
vn 0.721583 -0.660992 0.205933
vn 0.721583 -0.660992 0.205933
vn 0.721583 -0.660992 0.205933
vn -0.045086 0.998820 0.018036
vn -0.045086 0.998820 0.018036
vn -0.045086 0.998820 0.018036
vn -0.045086 0.998820 0.018036
vn -0.999471 0.011537 -0.030419
vn -0.999471 0.011537 -0.030419
vn -0.999471 0.011537 -0.030419
vn 0.975109 -0.006905 0.221619
vn 0.975109 -0.006905 0.221619
vn 0.975109 -0.006905 0.221619
vn 0.993203 -0.098720 0.061666
vn 0.993203 -0.098720 0.061666
vn 0.993203 -0.098720 0.061666
vn 0.985735 -0.133690 -0.102243
vn 0.985735 -0.133690 -0.102243
vn 0.985735 -0.133690 -0.102243
vn -0.004582 -0.996884 -0.078750
vn -0.004582 -0.996884 -0.078750
vn -0.004582 -0.996884 -0.078750
vn -0.004582 -0.996884 -0.078750
vn -0.771873 0.605301 0.194480
vn -0.771873 0.605301 0.194480
vn -0.771873 0.605301 0.194480
vn 0.006394 -0.079292 -0.996831
vn 0.006394 -0.079292 -0.996831
vn 0.006394 -0.079292 -0.996831
vn -0.012418 -0.113112 -0.993505
vn -0.012418 -0.113112 -0.993505
vn -0.012418 -0.113112 -0.993505
vn 0.003580 -0.148155 -0.988958
vn 0.003580 -0.148155 -0.988958
vn 0.003580 -0.148155 -0.988958
vn -0.105536 0.110549 -0.988251
vn -0.105536 0.110549 -0.988252
vn -0.105536 0.110549 -0.988251
vn -0.000579 0.014937 -0.999888
vn -0.000579 0.014937 -0.999888
vn -0.000579 0.014937 -0.999888
vn 0.021729 -0.039309 -0.998991
vn 0.021729 -0.039309 -0.998991
vn 0.021729 -0.039309 -0.998991
vn 0.084752 -0.007372 -0.996375
vn 0.084752 -0.007372 -0.996375
vn 0.084752 -0.007372 -0.996375
vn -0.092928 0.050170 -0.994408
vn -0.092928 0.050170 -0.994408
vn -0.092928 0.050170 -0.994408
vn -0.117412 0.014477 -0.992978
vn -0.117412 0.014477 -0.992978
vn -0.117412 0.014477 -0.992978
vn 0.061233 -0.034584 -0.997524
vn 0.061233 -0.034584 -0.997524
vn 0.061233 -0.034584 -0.997524
vn -0.122295 0.017340 -0.992342
vn -0.122295 0.017340 -0.992342
vn -0.122295 0.017340 -0.992342
vn 0.027361 -0.063811 -0.997587
vn 0.027361 -0.063811 -0.997587
vn 0.027361 -0.063811 -0.997587
vn 0.149120 0.030016 -0.988363
vn 0.149120 0.030016 -0.988363
vn 0.149120 0.030016 -0.988363
vn -0.011983 -0.164190 -0.986356
vn -0.011983 -0.164190 -0.986356
vn -0.011983 -0.164190 -0.986356
s off
f 8/75/1 17/1/2 16/2/3
f 1/9/4 17/7/5 8/4/6
f 21/12/7 34/5/8 17/7/9
f 8/4/10 38/3/11 35/6/12
f 7/8/13 17/7/14 1/9/15
f 8/4/16 35/6/17 1/9/18
f 1/9/19 35/6/20 18/10/21
f 7/8/22 6/11/23 17/7/24
f 21/12/25 17/7/26 6/11/27
f 21/12/28 6/11/29 20/13/30
f 25/14/31 20/13/32 19/15/33
f 25/14/34 21/12/35 20/13/36
f 25/14/37 2/16/38 21/12/39
f 2/16/40 25/14/41 22/18/42
f 26/17/43 22/18/44 25/14/45
f 4/19/46 24/20/47 3/21/48
f 4/19/49 3/21/50 23/22/51
f 22/18/52 23/22/53 3/21/54
f 26/17/55 23/22/56 22/18/57
f 34/23/58 21/43/59 39/38/60
f 7/27/61 27/57/62 6/28/63
f 33/98/64 27/57/65 7/27/66
f 31/35/67 5/36/68 37/34/69 16/2/70
f 16/2/71 37/34/72 8/75/73
f 17/1/74 34/37/75 16/2/76
f 12/42/77 26/41/78 25/40/79
f 2/44/80 40/45/81 21/29/82
f 39/53/83 21/29/84 40/45/85
f 23/32/86 26/46/87 15/33/88
f 1/48/89 18/49/90 14/82/91
f 13/56/92 14/51/93 35/52/94
f 14/51/95 18/50/96 35/52/97
f 13/55/98 35/39/99 38/24/100
f 9/80/101 33/81/102 1/26/103
f 7/25/104 1/26/105 33/81/106
f 6/28/107 27/57/108 20/58/109
f 36/59/110 3/60/111 28/61/112
f 3/62/113 24/31/114 28/63/115
f 2/66/116 22/67/117 29/68/118
f 22/69/119 10/70/120 29/71/121
f 10/70/122 30/72/123 29/71/124
f 36/59/125 10/70/126 3/60/127
f 22/69/128 3/60/129 10/70/130
f 24/31/131 36/74/132 28/63/133
f 4/30/134 36/74/135 24/31/136
f 8/75/137 37/34/138 5/36/139
f 34/37/140 32/76/141 31/35/142 16/2/143
f 8/77/144 5/78/145 38/24/146
f 13/55/147 38/24/148 5/78/149
f 34/23/150 39/38/151 32/79/152
f 9/94/153 1/48/154 14/82/155
f 20/64/156 27/65/157 12/83/158 19/84/159
f 15/54/160 26/41/161 12/42/162
f 2/66/163 29/68/164 40/85/165
f 30/73/166 40/85/167 29/68/168
f 4/30/169 11/86/170 36/74/171
f 23/32/172 15/33/173 11/87/174 4/47/175
f 19/84/176 12/83/177 25/88/178
f 9/89/179 5/90/180 31/91/181
f 13/92/182 5/90/183 9/89/184
f 13/92/185 9/89/186 14/93/187
f 9/89/188 31/91/189 33/95/190
f 32/96/191 33/95/192 31/91/193
f 32/96/194 39/97/195 33/95/196
f 39/97/197 27/99/198 33/95/199
f 40/101/200 12/100/201 27/99/202
f 15/102/203 12/100/204 40/101/205
f 27/99/206 39/97/207 40/101/208
f 30/104/209 15/102/210 40/101/211
f 11/103/212 30/104/213 10/105/214
f 11/103/215 10/105/216 36/106/217
f 11/103/218 15/102/219 30/104/220
