# This file uses meters as units for non-parametric coordinates.

v 20.696831 -27.352066 4.451102
v 10.513248 27.236614 4.451102
v 0.031548 -0.558758 5.399209
v 9.876060 -4.368668 -5.071525
v 20.165710 27.311211 -4.497682
v 21.159859 -25.993422 -4.845007
v 2.904663 -26.018293 -4.834403
v -16.015358 25.435734 5.655823
v -10.796602 27.126484 4.822120
v -21.152632 26.241646 -4.871561
v 20.745125 26.935997 4.495622
v 15.898800 -25.621336 5.701829
v 10.047530 -3.849926 5.291520
v 22.030869 25.192184 0.020102
v -15.212593 -12.153969 -5.652313
v 2.326812 -27.374365 4.451102
v -22.030869 25.886192 0.063974
v -10.005721 -25.839233 0.002594
v 22.030561 -25.945587 0.019761
v -15.963973 -25.970785 5.674248
v 15.920829 24.819641 5.638465
v 0.152225 -0.380363 -5.165483
v -11.258507 -27.252369 -4.497682
v 15.970880 25.411415 -5.649301
v 9.082755 25.410748 -4.855231
v -21.144295 -25.987871 4.862595
v 4.111767 10.335884 4.847757
v -5.007765 10.904694 -4.864197
v -21.998062 -26.232088 0.082092
v 10.739155 -27.164576 3.894577
v -0.591355 -25.723801 5.669517
v 15.955125 -25.933035 -5.701828
v 21.310196 -2.739944 4.934960
v -9.960594 -4.362888 -5.071525
v 0.015410 2.144070 0.809441
v -9.995003 -4.740982 5.193099
v -2.973650 -27.193317 3.894577
v -10.232507 6.298084 5.585100
v -21.135597 25.540962 4.886780
v -20.757769 27.379589 3.961372
v -11.823311 -27.391796 4.495622
v -0.508346 -26.045265 -5.658112
v -3.326323 -26.297932 -4.873046
v -21.176376 -26.500742 -4.883270
v -11.254004 27.391796 -4.824180
v 10.581780 -26.186140 -4.876097
v 21.164856 25.276985 -4.852180
vt 0.247243 0.306986
vt 0.247243 0.306986
vt 0.247243 0.306986
vt 0.247243 0.306986
vt 0.247243 0.306986
vt 0.247243 0.306986
vt 0.247243 0.306986
vt 0.247243 0.306986
vt 0.247243 0.306986
vt 0.247243 0.306986
vt 0.247243 0.306986
vt 0.247243 0.306986
vt 0.247243 0.306986
vt 0.247243 0.306986
vt 0.247243 0.306986
vt 0.247243 0.306986
vt 0.247243 0.306986
vt 0.247243 0.306986
vt 0.247243 0.306986
vt 0.247243 0.306986
vt 0.247243 0.306986
vt 0.247243 0.306986
vt 0.247243 0.306986
vt 0.247243 0.306986
vt 0.247243 0.306986
vt 0.247243 0.306986
vt 0.247243 0.306986
vt 0.247243 0.306986
vt 0.247243 0.306986
vt 0.247243 0.306986
vt 0.247243 0.306986
vt 0.247243 0.306986
vt 0.247243 0.306986
vt 0.247243 0.306986
vt 0.247243 0.306986
vt 0.247243 0.306986
vt 0.247243 0.306986
vt 0.247243 0.306986
vt 0.247243 0.306986
vt 0.247243 0.306986
vt 0.247243 0.306986
vt 0.247243 0.306986
vt 0.247243 0.306986
vt 0.247243 0.306986
vt 0.247243 0.306986
vt 0.247243 0.306986
vt 0.247243 0.306986
vt 0.247243 0.306986
vt 0.247243 0.306986
vt 0.247243 0.306986
vt 0.247243 0.306986
vt 0.247243 0.306986
vt 0.247243 0.306986
vt 0.247243 0.306986
vt 0.247243 0.306986
vt 0.247243 0.306986
vt 0.247243 0.306986
vt 0.247243 0.306986
vt 0.247243 0.306986
vt 0.247243 0.306986
vt 0.247243 0.306986
vt 0.247243 0.306986
vt 0.247243 0.306986
vt 0.247243 0.306986
vt 0.247243 0.306986
vt 0.247243 0.306986
vt 0.247243 0.306986
vt 0.247243 0.306986
vt 0.247243 0.306986
vt 0.247243 0.306986
vt 0.247243 0.306986
vt 0.247243 0.306986
vt 0.247243 0.306986
vt 0.247243 0.306986
vt 0.247243 0.306986
vt 0.247243 0.306986
vt 0.247243 0.306986
vt 0.247243 0.306986
vt 0.247243 0.306986
vt 0.247243 0.306986
vt 0.247243 0.306986
vt 0.247243 0.306986
vt 0.247243 0.306986
vt 0.247243 0.306986
vt 0.247243 0.306986
vt 0.247243 0.306986
vt 0.247243 0.306986
vt 0.247243 0.306986
vt 0.247243 0.306986
vt 0.247243 0.306986
vt 0.247243 0.306986
vt 0.247243 0.306986
vt 0.247243 0.306986
vt 0.247243 0.306986
vt 0.247243 0.306986
vt 0.247243 0.306986
vt 0.247243 0.306986
vt 0.247243 0.306986
vn 0.076394 -0.033743 0.996507
vn 0.076394 -0.033743 0.996507
vn 0.076394 -0.033743 0.996507
vn 0.018449 -0.989451 -0.143692
vn 0.018449 -0.989451 -0.143692
vn 0.018449 -0.989451 -0.143692
vn -0.161457 0.972811 -0.166044
vn -0.161457 0.972811 -0.166044
vn -0.161457 0.972811 -0.166044
vn -0.146715 -0.987787 0.052465
vn -0.146715 -0.987787 0.052465
vn -0.146715 -0.987787 0.052465
vn -0.936851 0.290517 0.194706
vn -0.936851 0.290517 0.194706
vn -0.936851 0.290517 0.194706
vn 0.915353 0.401349 -0.032365
vn 0.915353 0.401349 -0.032365
vn 0.915353 0.401349 -0.032365
vn -0.053724 -0.678429 0.732699
vn -0.053724 -0.678429 0.732699
vn -0.053724 -0.678429 0.732699
vn -0.148539 -0.000439 0.988906
vn -0.148539 -0.000439 0.988906
vn -0.148539 -0.000439 0.988906
vn 0.959692 -0.029412 0.279510
vn 0.959692 -0.029412 0.279510
vn 0.959692 -0.029412 0.279510
vn -0.008763 -0.998578 0.052579
vn -0.008763 -0.998578 0.052579
vn -0.008763 -0.998578 0.052579
vn 0.951814 -0.306335 0.014495
vn 0.951814 -0.306335 0.014495
vn 0.951814 -0.306335 0.014495
vn -0.114375 0.051538 -0.992100
vn -0.114375 0.051538 -0.992100
vn -0.114375 0.051538 -0.992100
vn -0.175315 0.089415 0.980444
vn -0.175315 0.089415 0.980444
vn -0.175315 0.089415 0.980444
vn 0.222711 0.018671 0.974706
vn 0.222711 0.018671 0.974706
vn 0.222711 0.018671 0.974706
vn 0.134197 0.073086 0.988256
vn 0.134197 0.073086 0.988256
vn 0.134197 0.073086 0.988256
vn 0.019595 0.002226 0.999806
vn 0.019595 0.002226 0.999806
vn 0.019595 0.002226 0.999806
vn -0.984541 0.000482 -0.175156
vn -0.984541 0.000482 -0.175156
vn -0.984541 0.000482 -0.175156
vn -0.983202 0.000080 0.182520
vn -0.983202 0.000080 0.182520
vn -0.983202 0.000080 0.182520
vn 0.004315 0.004062 -0.999982
vn 0.004315 0.004062 -0.999982
vn 0.004315 0.004062 -0.999982
vn 0.774811 0.631753 -0.023561
vn 0.774811 0.631753 -0.023561
vn 0.774811 0.631753 -0.023561
vn 0.877247 0.456662 -0.147976
vn 0.877247 0.456662 -0.147976
vn 0.877247 0.456662 -0.147976
vn -0.055916 0.575059 0.816199
vn -0.055916 0.575059 0.816199
vn -0.055916 0.575059 0.816199
vn -0.122033 0.466116 0.876267
vn -0.122033 0.466116 0.876267
vn -0.122033 0.466116 0.876267
vn -0.911925 0.352191 0.210605
vn -0.911925 0.352191 0.210605
vn -0.911925 0.352191 0.210605
vn -0.815240 0.526535 -0.241131
vn -0.815240 0.526535 -0.241131
vn -0.815240 0.526535 -0.241131
vn -0.932050 0.354761 0.073664
vn -0.932050 0.354761 0.073664
vn -0.932050 0.354761 0.073664
vn -0.944775 0.326855 0.023790
vn -0.944775 0.326855 0.023790
vn -0.944775 0.326855 0.023790
vn -0.986588 -0.000678 -0.163227
vn -0.986588 -0.000678 -0.163227
vn -0.986588 -0.000678 -0.163227
vn -0.984419 -0.000559 0.175839
vn -0.984419 -0.000559 0.175839
vn -0.984419 -0.000559 0.175839
vn -0.312200 -0.066046 0.947718
vn -0.312200 -0.066046 0.947718
vn -0.312200 -0.066046 0.947718
vn 0.243667 -0.025133 0.969533
vn 0.243667 -0.025133 0.969533
vn 0.243667 -0.025133 0.969533
vn -0.065204 0.001282 0.997871
vn -0.065204 0.001282 0.997871
vn -0.065204 0.001282 0.997871
vn 0.135396 0.001185 0.990791
vn 0.135396 0.001185 0.990791
vn 0.135396 0.001185 0.990791
vn -0.069436 0.002153 0.997584
vn -0.069436 0.002153 0.997584
vn -0.069436 0.002153 0.997584
vn -0.017715 0.019322 -0.999656
vn -0.017715 0.019322 -0.999656
vn -0.017715 0.019322 -0.999656
vn -0.015530 0.019588 -0.999688
vn -0.015530 0.019588 -0.999687
vn -0.015530 0.019588 -0.999688
vn -0.151242 -0.013746 -0.988401
vn -0.151242 -0.013746 -0.988401
vn -0.151242 -0.013746 -0.988401
vn -0.099451 0.001048 -0.995042
vn -0.099451 0.001048 -0.995042
vn -0.099451 0.001048 -0.995042
vn 0.162435 -0.000154 -0.986719
vn 0.162435 -0.000154 -0.986719
vn 0.162435 -0.000154 -0.986719
vn 0.151718 0.000965 -0.988423
vn 0.151718 0.000965 -0.988423
vn 0.151718 0.000965 -0.988423
vn 0.001573 -0.019719 -0.999804
vn 0.001573 -0.019719 -0.999804
vn 0.001573 -0.019719 -0.999804
vn 0.950138 -0.311831 -0.000112
vn 0.950138 -0.311831 -0.000112
vn 0.950138 -0.311831 -0.000112
vn 0.984568 -0.000120 -0.175002
vn 0.984568 -0.000120 -0.175002
vn 0.984568 -0.000120 -0.175002
vn 0.963158 0.022308 0.268008
vn 0.963158 0.022308 0.268008
vn 0.963158 0.022308 0.268008
vn 0.984358 -0.000005 -0.176182
vn 0.984358 -0.000005 -0.176182
vn 0.984358 -0.000005 -0.176182
vn 0.989426 -0.000007 0.145042
vn 0.989426 -0.000007 0.145042
vn 0.989426 -0.000007 0.145042
vn -0.098338 -0.697688 0.709621
vn -0.098338 -0.697688 0.709621
vn -0.098338 -0.697688 0.709621
vn 0.257357 -0.050488 0.964997
vn 0.257357 -0.050488 0.964997
vn 0.257357 -0.050488 0.964997
vn 0.188655 -0.030797 0.981560
vn 0.188656 -0.030797 0.981560
vn 0.188655 -0.030797 0.981560
vn -0.154792 0.000199 0.987947
vn -0.154792 0.000199 0.987947
vn -0.154792 0.000199 0.987947
vn 0.013459 0.000372 0.999909
vn 0.013459 0.000372 0.999909
vn 0.013459 0.000372 0.999909
vn 0.045251 -0.986850 -0.155176
vn 0.045251 -0.986850 -0.155176
vn 0.045251 -0.986850 -0.155176
vn 0.159196 -0.033763 -0.986670
vn 0.159196 -0.033763 -0.986670
vn 0.159196 -0.033763 -0.986670
vn 0.033657 -0.067442 -0.997155
vn 0.033657 -0.067442 -0.997155
vn 0.033657 -0.067442 -0.997155
vn 0.171592 -0.042299 -0.984260
vn 0.171592 -0.042299 -0.984260
vn 0.171592 -0.042299 -0.984260
vn 0.023167 0.023907 -0.999446
vn 0.023167 0.023907 -0.999446
vn 0.023167 0.023907 -0.999446
vn -0.128551 0.000278 -0.991703
vn -0.128551 0.000278 -0.991703
vn -0.128551 0.000278 -0.991703
vn 0.018446 -0.983247 -0.181345
vn 0.018446 -0.983247 -0.181345
vn 0.018446 -0.983247 -0.181345
vn 0.896957 0.414250 -0.154484
vn 0.896957 0.414250 -0.154484
vn 0.896957 0.414250 -0.154484
vn 0.900342 0.341754 -0.269421
vn 0.900342 0.341754 -0.269421
vn 0.900342 0.341754 -0.269421
vn 0.909292 0.359991 0.208795
vn 0.909292 0.359991 0.208795
vn 0.909292 0.359991 0.208795
vn 0.045258 -0.988889 -0.141603
vn 0.045258 -0.988889 -0.141603
vn 0.045258 -0.988889 -0.141603
vn -0.023408 -0.994648 -0.100636
vn -0.023408 -0.994648 -0.100636
vn -0.023408 -0.994648 -0.100636
vn -0.954260 -0.298873 0.007862
vn -0.954260 -0.298874 0.007862
vn -0.954260 -0.298873 0.007862
vn -0.957051 -0.289586 -0.013875
vn -0.957051 -0.289586 -0.013875
vn -0.957051 -0.289586 -0.013875
vn -0.668385 0.740919 -0.065573
vn -0.668385 0.740919 -0.065573
vn -0.668385 0.740919 -0.065573
vn -0.113979 0.985973 -0.121927
vn -0.113979 0.985973 -0.121927
vn -0.113979 0.985973 -0.121927
vn 0.023113 0.999385 0.026390
vn 0.023113 0.999384 0.026390
vn 0.023113 0.999384 0.026390
vn 0.933565 -0.086068 0.347920
vn 0.933565 -0.086068 0.347920
vn 0.933565 -0.086068 0.347920
vn 0.998397 -0.056581 0.001263
vn 0.998397 -0.056581 0.001263
vn 0.998397 -0.056581 0.001263
vn 0.955054 0.070358 -0.287961
vn 0.955054 0.070358 -0.287961
vn 0.955054 0.070358 -0.287961
vn 0.694334 -0.718920 0.032460
vn 0.694334 -0.718920 0.032460
vn 0.694334 -0.718920 0.032460
vn -0.074774 -0.996997 -0.020153
vn -0.074774 -0.996997 -0.020153
vn -0.074774 -0.996997 -0.020153
vn 0.029172 0.998782 0.039791
vn 0.029172 0.998782 0.039791
vn 0.029172 0.998782 0.039791
vn 0.560912 -0.822714 -0.092303
vn 0.560912 -0.822714 -0.092303
vn 0.560912 -0.822714 -0.092303
vn -0.012528 -0.993782 -0.110638
vn -0.012528 -0.993782 -0.110638
vn -0.012528 -0.993782 -0.110638
vn -0.999318 -0.032162 0.018145
vn -0.999318 -0.032162 0.018145
vn -0.999318 -0.032162 0.018145
vn -0.999429 -0.030518 0.014528
vn -0.999429 -0.030518 0.014528
vn -0.999429 -0.030518 0.014528
vn -0.089386 -0.006245 0.995978
vn -0.089386 -0.006245 0.995978
vn -0.089386 -0.006245 0.995978
vn 0.113270 0.007868 0.993533
vn 0.113270 0.007868 0.993533
vn 0.113270 0.007868 0.993533
vn 0.371928 -0.027364 0.927858
vn 0.371928 -0.027364 0.927858
vn 0.371928 -0.027364 0.927858
vn 0.024866 0.010122 0.999640
vn 0.024866 0.010122 0.999640
vn 0.024866 0.010122 0.999640
vn -0.526326 -0.156263 0.835801
vn -0.526326 -0.156263 0.835801
vn -0.526326 -0.156263 0.835801
vn -0.093744 -0.783092 0.614800
vn -0.093744 -0.783092 0.614800
vn -0.093744 -0.783092 0.614800
vn 0.009592 0.458113 0.888842
vn 0.009592 0.458113 0.888842
vn 0.009592 0.458113 0.888842
vn 0.234380 -0.086078 -0.968327
vn 0.234380 -0.086078 -0.968327
vn 0.234380 -0.086078 -0.968327
vn -0.260070 -0.087359 -0.961630
vn -0.260070 -0.087359 -0.961630
vn -0.260070 -0.087359 -0.961630
vn 0.017347 0.018742 -0.999674
vn 0.017347 0.018742 -0.999674
vn 0.017347 0.018742 -0.999674
vn 0.153298 0.242248 -0.958027
vn 0.153298 0.242248 -0.958027
vn 0.153298 0.242248 -0.958027
vn -0.087096 0.649957 -0.754964
vn -0.087096 0.649957 -0.754964
vn -0.087096 0.649956 -0.754964
s off
f 36/1/1 37/2/2 38/3/3
f 1/4/4 46/5/5 6/6/6
f 2/7/7 5/8/8 25/9/9
f 26/10/10 44/11/11 41/12/12
f 40/13/13 17/14/14 39/15/15
f 9/16/16 35/17/17 45/18/18
f 1/19/19 12/20/20 30/21/21
f 39/22/22 26/23/23 8/24/24
f 1/25/25 19/26/26 33/27/27
f 26/28/28 29/29/29 44/30/30
f 7/31/31 4/32/32 16/33/33
f 25/34/34 24/35/35 22/36/36
f 2/37/37 27/38/38 21/39/39
f 11/40/40 21/39/41 33/41/42
f 9/42/43 8/24/44 3/43/45
f 3/43/46 8/24/47 38/3/48
f 10/44/49 44/30/50 17/14/51
f 39/15/52 17/14/53 26/28/54
f 28/45/55 10/46/56 45/47/57
f 11/48/58 14/49/59 5/50/60
f 5/50/61 14/49/62 47/51/63
f 40/52/64 8/24/65 9/42/66
f 39/22/67 8/24/68 40/52/69
f 27/53/70 35/17/71 3/54/72
f 35/17/73 27/53/74 22/55/75
f 25/56/76 27/53/77 2/57/78
f 27/53/79 25/56/80 22/55/81
f 29/29/82 17/14/83 44/30/84
f 26/28/85 17/14/86 29/29/87
f 12/20/88 13/58/89 30/21/90
f 33/41/91 12/20/92 1/19/93
f 12/20/94 21/39/95 13/58/96
f 33/41/97 21/39/98 12/20/99
f 21/39/100 27/38/101 13/58/102
f 28/45/103 42/59/104 34/60/105
f 42/59/106 28/45/107 22/36/108
f 32/61/109 46/62/110 4/63/111
f 24/35/112 32/61/113 4/63/114
f 32/61/115 47/64/116 6/65/117
f 24/35/118 47/64/119 32/61/120
f 22/36/121 24/35/122 4/63/123
f 16/33/124 4/32/125 13/66/126
f 47/51/127 14/49/128 6/67/129
f 33/27/130 14/49/131 11/48/132
f 14/49/133 19/26/134 6/67/135
f 33/27/136 19/26/137 14/49/138
f 16/68/139 31/69/140 37/2/141
f 36/1/142 20/70/143 41/71/144
f 38/3/145 20/70/146 36/1/147
f 20/70/148 8/24/149 26/23/150
f 38/3/151 8/24/152 20/70/153
f 43/72/154 42/59/155 7/73/156
f 23/74/157 15/75/158 34/60/159
f 15/75/160 23/74/161 44/76/162
f 15/75/163 28/45/164 34/60/165
f 15/75/166 10/46/167 28/45/168
f 44/76/169 10/46/170 15/75/171
f 46/62/172 32/61/173 6/65/174
f 28/77/175 35/17/176 22/55/177
f 45/18/178 35/17/179 28/77/180
f 3/54/181 35/17/182 9/16/183
f 16/78/184 43/79/185 7/80/186
f 16/78/187 37/81/188 43/79/189
f 36/82/190 43/83/191 37/84/192
f 36/82/193 34/85/194 43/83/195
f 40/13/196 10/44/197 17/14/198
f 40/86/199 45/87/200 10/88/201
f 40/86/202 9/89/203 45/87/204
f 18/90/205 36/82/206 41/91/207
f 36/82/208 23/92/209 34/85/210
f 18/90/211 23/92/212 36/82/213
f 41/91/214 23/92/215 18/90/216
f 23/93/217 41/12/218 44/11/219
f 11/94/220 5/8/221 2/7/222
f 6/67/223 19/26/224 1/25/225
f 30/95/226 46/5/227 1/4/228
f 46/96/229 13/66/230 4/32/231
f 30/97/232 13/66/233 46/96/234
f 13/58/235 27/38/236 16/68/237
f 31/69/238 27/38/239 3/43/240
f 27/38/241 31/69/242 16/68/243
f 38/3/244 31/69/245 3/43/246
f 38/3/247 37/2/248 31/69/249
f 26/23/250 41/71/251 20/70/252
f 11/40/253 2/37/254 21/39/255
f 42/59/256 4/63/257 7/73/258
f 34/60/259 42/59/260 43/72/261
f 42/59/262 22/36/263 4/63/264
f 47/64/265 24/35/266 5/98/267
f 24/35/268 25/34/269 5/98/270
