# This file uses meters as units for non-parametric coordinates.

v 6.005077 -27.442970 -4.553147
v -28.258715 26.389389 4.812129
v -10.727577 -3.614464 4.882584
v -16.647625 27.248707 -4.553147
v 5.029316 25.725346 -4.906808
v -4.027252 27.420769 -4.803924
v -3.923683 25.880871 5.540347
v 16.150761 -27.328527 4.690932
v 28.259487 26.370964 4.811934
v -15.860910 -27.245272 -5.087431
v -5.378780 -27.108725 4.440156
v 15.868683 -27.172892 -5.087431
v -29.237473 26.108322 -0.117187
v 29.237473 26.086788 -0.117187
v -3.403282 11.791096 5.557673
v -10.514994 -3.894100 -5.349084
v 10.921173 -1.136227 -0.865860
v -8.123665 9.417076 -4.977073
v -5.998535 -27.461279 -4.553147
v -15.037796 26.223774 -0.092164
v -17.261393 0.814304 5.751801
v 0.047951 -0.679207 -5.343398
v 0.002880 -0.065441 5.398288
v 4.991579 26.139069 4.797938
v 15.041447 26.211452 -0.092164
v 17.653799 -25.374222 -0.051421
v 5.384436 -27.083185 4.440156
v -17.570763 -25.721016 -0.051386
v -16.140432 -27.382471 4.690932
v -4.469070 -25.516758 -4.926222
v 10.574608 -4.333916 -5.250663
v -4.982471 26.149845 4.762117
v -21.978893 26.170940 5.674208
v -22.024620 26.056480 -5.753897
v 21.979446 26.150398 5.674208
v 22.024841 26.034946 -5.754126
v -17.353079 27.461281 4.440156
v 10.730906 -3.600044 4.882584
v -28.159246 26.038837 -4.941368
v 4.467506 -25.436056 -4.925880
v 16.016989 26.226540 4.793091
v 17.324104 1.150646 5.754122
v 28.158808 26.015968 -4.941177
v 16.651840 27.244816 -4.553147
vt 0.247243 0.306986
vt 0.247243 0.306986
vt 0.247243 0.306986
vt 0.247243 0.306986
vt 0.247243 0.306986
vt 0.247243 0.306986
vt 0.247243 0.306986
vt 0.247243 0.306986
vt 0.247243 0.306986
vt 0.247243 0.306986
vt 0.247243 0.306986
vt 0.247243 0.306986
vt 0.247243 0.306986
vt 0.247243 0.306986
vt 0.247243 0.306986
vt 0.247243 0.306986
vt 0.247243 0.306986
vt 0.247243 0.306986
vt 0.247243 0.306986
vt 0.247243 0.306986
vt 0.247243 0.306986
vt 0.247243 0.306986
vt 0.247243 0.306986
vt 0.247243 0.306986
vt 0.247243 0.306986
vt 0.247243 0.306986
vt 0.247243 0.306986
vt 0.247243 0.306986
vt 0.247243 0.306986
vt 0.247243 0.306986
vt 0.247243 0.306986
vt 0.247243 0.306986
vt 0.247243 0.306986
vt 0.247243 0.306986
vt 0.247243 0.306986
vt 0.247243 0.306986
vt 0.247243 0.306986
vt 0.247243 0.306986
vt 0.247243 0.306986
vt 0.247243 0.306986
vt 0.247243 0.306986
vt 0.247243 0.306986
vt 0.247243 0.306986
vt 0.247243 0.306986
vt 0.247243 0.306986
vt 0.247243 0.306986
vt 0.247243 0.306986
vt 0.247243 0.306986
vt 0.247243 0.306986
vt 0.247243 0.306986
vt 0.247243 0.306986
vt 0.247243 0.306986
vt 0.247243 0.306986
vt 0.247243 0.306986
vt 0.247243 0.306986
vt 0.247243 0.306986
vt 0.247243 0.306986
vt 0.247243 0.306986
vt 0.247243 0.306986
vt 0.247243 0.306986
vt 0.247243 0.306986
vt 0.247243 0.306986
vt 0.247243 0.306986
vt 0.247243 0.306986
vt 0.247243 0.306986
vt 0.247243 0.306986
vt 0.247243 0.306986
vt 0.247243 0.306986
vt 0.247243 0.306986
vt 0.247243 0.306986
vt 0.247243 0.306986
vt 0.247243 0.306986
vt 0.247243 0.306986
vt 0.247243 0.306986
vt 0.247243 0.306986
vt 0.247243 0.306986
vt 0.247243 0.306986
vt 0.247243 0.306986
vt 0.247243 0.306986
vt 0.247243 0.306986
vt 0.247243 0.306986
vt 0.247243 0.306986
vt 0.247243 0.306986
vt 0.247243 0.306986
vt 0.247243 0.306986
vt 0.247243 0.306986
vt 0.247243 0.306986
vt 0.247243 0.306986
vt 0.247243 0.306986
vt 0.247243 0.306986
vt 0.247243 0.306986
vt 0.247243 0.306986
vt 0.247243 0.306986
vt 0.247243 0.306986
vt 0.247243 0.306986
vt 0.247243 0.306986
vt 0.247243 0.306986
vt 0.247243 0.306986
vt 0.247243 0.306986
vt 0.247243 0.306986
vn -0.046874 -0.217002 -0.975045
vn -0.046874 -0.217002 -0.975045
vn -0.046874 -0.217002 -0.975045
vn 0.186804 -0.044334 0.981396
vn 0.186804 -0.044334 0.981396
vn 0.186804 -0.044334 0.981396
vn -0.152154 0.029930 0.987903
vn -0.152154 0.029930 0.987903
vn -0.152154 0.029930 0.987904
vn -0.011733 0.999274 -0.036251
vn -0.011733 0.999274 -0.036251
vn -0.011733 0.999274 -0.036251
vn 0.026465 -0.999511 -0.016672
vn 0.026465 -0.999511 -0.016672
vn 0.026465 -0.999511 -0.016672
vn 0.047816 -0.224353 -0.973334
vn 0.047816 -0.224353 -0.973334
vn 0.047816 -0.224353 -0.973334
vn -0.187008 -0.044357 0.981357
vn -0.187008 -0.044357 0.981357
vn -0.187008 -0.044357 0.981357
vn -0.953241 -0.215305 0.212076
vn -0.953241 -0.215305 0.212076
vn -0.953241 -0.215305 0.212076
vn -0.713244 -0.700264 -0.030214
vn -0.713244 -0.700264 -0.030214
vn -0.713244 -0.700264 -0.030214
vn -0.098992 0.994409 -0.036750
vn -0.098992 0.994409 -0.036750
vn -0.098992 0.994409 -0.036750
vn -0.983806 0.177446 -0.025290
vn -0.983806 0.177446 -0.025290
vn -0.983806 0.177446 -0.025290
vn 0.038898 -0.027675 0.998860
vn 0.038898 -0.027675 0.998860
vn 0.038898 -0.027675 0.998860
vn -0.071663 0.849553 -0.522612
vn -0.071663 0.849553 -0.522612
vn -0.071663 0.849553 -0.522612
vn 0.240246 0.065011 0.968533
vn 0.240246 0.065011 0.968533
vn 0.240246 0.065011 0.968533
vn 0.082433 0.018745 0.996420
vn 0.082433 0.018745 0.996420
vn 0.082433 0.018745 0.996420
vn -0.167006 0.036223 0.985290
vn -0.167006 0.036223 0.985290
vn -0.167006 0.036223 0.985290
vn -0.009168 0.011702 -0.999890
vn -0.009168 0.011702 -0.999889
vn -0.009168 0.011702 -0.999890
vn -0.015814 -0.010811 -0.999816
vn -0.015814 -0.010811 -0.999817
vn -0.015814 -0.010811 -0.999817
vn 0.941912 -0.216939 -0.256398
vn 0.941912 -0.216939 -0.256398
vn 0.941912 -0.216939 -0.256398
vn 0.024212 -0.036625 0.999036
vn 0.024212 -0.036625 0.999036
vn 0.024212 -0.036625 0.999036
vn -0.942486 -0.216835 -0.254366
vn -0.942486 -0.216835 -0.254366
vn -0.942486 -0.216835 -0.254366
vn 0.782888 -0.621458 -0.029589
vn 0.782888 -0.621458 -0.029589
vn 0.782888 -0.621458 -0.029589
vn -0.955537 -0.214833 0.201980
vn -0.955537 -0.214833 0.201980
vn -0.955537 -0.214834 0.201980
vn -0.953762 -0.214957 -0.210074
vn -0.953762 -0.214957 -0.210074
vn -0.953762 -0.214957 -0.210074
vn 0.140786 0.013410 0.989949
vn 0.140786 0.013410 0.989949
vn 0.140786 0.013410 0.989949
vn 0.016418 -0.014961 -0.999753
vn 0.016418 -0.014961 -0.999753
vn 0.016418 -0.014961 -0.999753
vn 0.005980 -0.017881 -0.999822
vn 0.005980 -0.017881 -0.999822
vn 0.005980 -0.017881 -0.999822
vn -0.790742 -0.611409 -0.030110
vn -0.790742 -0.611409 -0.030110
vn -0.790742 -0.611409 -0.030110
vn 0.955539 -0.214830 0.201974
vn 0.955539 -0.214830 0.201974
vn 0.955539 -0.214830 0.201974
vn 0.953755 -0.214955 -0.210108
vn 0.953755 -0.214955 -0.210108
vn 0.953755 -0.214955 -0.210108
vn -0.024098 -0.036304 0.999050
vn -0.024098 -0.036304 0.999050
vn -0.024098 -0.036304 0.999050
vn -0.140469 0.013329 0.989995
vn -0.140469 0.013329 0.989995
vn -0.140469 0.013329 0.989995
vn 0.003149 -0.016300 -0.999862
vn 0.003149 -0.016300 -0.999862
vn 0.003149 -0.016300 -0.999862
vn 0.029706 0.060244 -0.997742
vn 0.029706 0.060244 -0.997742
vn 0.029706 0.060244 -0.997742
vn -0.007195 0.010111 -0.999923
vn -0.007195 0.010111 -0.999923
vn -0.007195 0.010111 -0.999923
vn -0.038858 -0.027656 0.998862
vn -0.038858 -0.027656 0.998862
vn -0.038858 -0.027656 0.998862
vn -0.039786 -0.024858 0.998899
vn -0.039786 -0.024858 0.998899
vn -0.039786 -0.024858 0.998899
vn 0.058508 0.003389 0.998281
vn 0.058508 0.003389 0.998281
vn 0.058508 0.003389 0.998281
vn -0.595576 -0.021010 0.803024
vn -0.595576 -0.021010 0.803024
vn -0.595576 -0.021010 0.803024
vn 0.048637 0.001892 0.998815
vn 0.048637 0.001892 0.998815
vn 0.048637 0.001892 0.998815
vn 0.936397 0.191904 -0.293825
vn 0.936397 0.191905 -0.293825
vn 0.936397 0.191905 -0.293825
vn 0.989197 0.145655 0.016572
vn 0.989197 0.145655 0.016572
vn 0.989197 0.145655 0.016572
vn -0.100391 0.994269 -0.036758
vn -0.100391 0.994269 -0.036758
vn -0.100391 0.994269 -0.036758
vn -0.056624 0.788589 0.612307
vn -0.056624 0.788589 0.612307
vn -0.056624 0.788589 0.612307
vn -0.979898 0.189927 -0.061058
vn -0.979898 0.189927 -0.061058
vn -0.979898 0.189927 -0.061058
vn -0.983756 0.174475 0.042220
vn -0.983756 0.174475 0.042220
vn -0.983756 0.174475 0.042220
vn -0.940512 0.150320 -0.304699
vn -0.940512 0.150320 -0.304699
vn -0.940512 0.150320 -0.304699
vn -0.970951 0.140813 0.193456
vn -0.970951 0.140813 0.193456
vn -0.970951 0.140813 0.193456
vn 0.101232 0.994166 -0.037231
vn 0.101232 0.994166 -0.037231
vn 0.101232 0.994166 -0.037231
vn -0.011888 0.986111 0.165659
vn -0.011888 0.986111 0.165659
vn -0.011888 0.986111 0.165659
vn 0.072573 0.846244 -0.527830
vn 0.072573 0.846244 -0.527830
vn 0.072573 0.846244 -0.527830
vn -0.000153 0.945076 0.326852
vn -0.000153 0.945076 0.326852
vn -0.000153 0.945076 0.326852
vn 0.978488 -0.196902 0.061569
vn 0.978488 -0.196902 0.061569
vn 0.978488 -0.196902 0.061569
vn 0.983803 -0.178676 0.014337
vn 0.983803 -0.178676 0.014337
vn 0.983803 -0.178676 0.014337
vn -0.972704 0.221972 -0.067639
vn -0.972704 0.221972 -0.067639
vn -0.972704 0.221972 -0.067639
vn -0.981845 0.189480 -0.008867
vn -0.981845 0.189480 -0.008867
vn -0.981845 0.189480 -0.008867
vn -0.021102 -0.999670 -0.014629
vn -0.021102 -0.999670 -0.014629
vn -0.021102 -0.999670 -0.014629
vn 0.026281 -0.998957 0.037350
vn 0.026281 -0.998957 0.037350
vn 0.026281 -0.998957 0.037350
vn 0.499551 0.866082 0.018715
vn 0.499551 0.866082 0.018715
vn 0.499551 0.866082 0.018715
vn 0.893884 0.196318 0.403027
vn 0.893884 0.196318 0.403027
vn 0.893884 0.196318 0.403027
vn -0.103417 0.994136 -0.031611
vn -0.103417 0.994136 -0.031611
vn -0.103417 0.994136 -0.031611
vn 0.152714 0.031434 0.987770
vn 0.152714 0.031434 0.987770
vn 0.152714 0.031434 0.987770
vn -0.136733 -0.022408 0.990354
vn -0.136733 -0.022408 0.990355
vn -0.136733 -0.022408 0.990354
vn -0.008424 0.029448 -0.999531
vn -0.008424 0.029448 -0.999531
vn -0.008424 0.029448 -0.999531
vn 0.203716 0.065082 -0.976865
vn 0.203716 0.065082 -0.976865
vn 0.203716 0.065082 -0.976865
vn 0.003768 -0.012067 -0.999920
vn 0.003768 -0.012067 -0.999920
vn 0.003768 -0.012067 -0.999920
vn -0.131175 -0.027560 -0.990976
vn -0.131175 -0.027560 -0.990976
vn -0.131175 -0.027560 -0.990976
vn -0.984437 -0.175641 0.005905
vn -0.984437 -0.175641 0.005905
vn -0.984437 -0.175641 0.005905
vn -0.978482 -0.197068 0.061136
vn -0.978482 -0.197068 0.061136
vn -0.978482 -0.197068 0.061136
vn 0.000598 0.991282 0.131759
vn 0.000598 0.991282 0.131759
vn 0.000598 0.991282 0.131759
vn 0.183399 0.982177 -0.041158
vn 0.183399 0.982177 -0.041158
vn 0.183399 0.982177 -0.041158
vn 0.975520 0.188587 0.113118
vn 0.975520 0.188587 0.113118
vn 0.975520 0.188587 0.113118
vn 0.983391 0.181459 -0.003912
vn 0.983391 0.181459 -0.003912
vn 0.983391 0.181459 -0.003912
vn 0.930763 0.256459 -0.260592
vn 0.930763 0.256459 -0.260592
vn 0.930763 0.256459 -0.260592
vn -0.023658 -0.998985 0.038332
vn -0.023658 -0.998985 0.038332
vn -0.023658 -0.998985 0.038332
vn -0.385116 0.919892 0.074063
vn -0.385116 0.919892 0.074063
vn -0.385116 0.919892 0.074063
vn 0.109317 0.987333 0.114996
vn 0.109317 0.987333 0.114996
vn 0.109317 0.987333 0.114996
vn 0.952959 -0.215364 0.213280
vn 0.952959 -0.215364 0.213280
vn 0.952959 -0.215364 0.213280
vn 0.753006 -0.657226 -0.032183
vn 0.753006 -0.657226 -0.032183
vn 0.753007 -0.657226 -0.032183
vn -0.145744 0.030301 0.988858
vn -0.145744 0.030301 0.988858
vn -0.145744 0.030301 0.988858
vn 0.136762 -0.022302 0.990353
vn 0.136762 -0.022302 0.990353
vn 0.136762 -0.022302 0.990353
vn -0.015488 -0.010736 -0.999822
vn -0.015488 -0.010736 -0.999822
vn -0.015488 -0.010736 -0.999822
vn -0.204639 0.060961 -0.976937
vn -0.204639 0.060961 -0.976937
vn -0.204639 0.060961 -0.976937
vn 0.131250 -0.027602 -0.990965
vn 0.131250 -0.027602 -0.990965
vn 0.131250 -0.027602 -0.990965
s off
f 1/1/1 40/2/2 12/3/3
f 9/4/4 42/5/5 8/6/6
f 38/7/7 42/5/8 41/8/9
f 9/9/10 43/10/11 41/11/12
f 8/12/13 1/13/14 12/14/15
f 19/15/16 10/16/17 30/17/18
f 2/18/19 29/19/20 21/20/21
f 2/21/22 28/22/23 29/23/24
f 29/23/25 28/22/26 10/24/27
f 2/25/28 37/26/29 39/27/30
f 3/28/31 18/29/32 16/30/33
f 27/31/34 38/7/35 23/32/36
f 4/33/37 34/34/38 39/35/39
f 3/36/40 37/37/41 33/38/42
f 24/39/43 7/40/44 38/7/45
f 32/41/46 3/36/47 15/42/48
f 6/43/49 5/44/50 18/45/51
f 12/3/52 40/2/53 31/46/54
f 12/47/55 43/48/56 26/49/57
f 29/19/58 11/50/59 21/20/60
f 10/24/61 28/22/62 39/51/63
f 30/52/64 11/53/65 19/54/66
f 13/55/67 28/22/68 2/21/69
f 39/51/70 28/22/71 13/55/72
f 21/20/73 11/50/74 3/36/75
f 16/56/76 30/17/77 10/16/78
f 22/57/79 30/17/80 16/56/81
f 27/58/82 40/59/83 1/60/84
f 26/49/85 14/61/86 9/62/87
f 26/49/88 43/48/89 14/61/90
f 42/5/91 27/31/92 8/6/93
f 38/7/94 27/31/95 42/5/96
f 31/46/97 40/2/98 22/57/99
f 18/45/100 31/46/101 22/57/102
f 18/45/103 5/44/104 31/46/105
f 23/32/106 3/36/107 11/50/108
f 15/42/109 3/36/110 23/32/111
f 7/40/112 15/42/113 23/32/114
f 15/42/115 7/40/116 32/41/117
f 38/7/118 7/40/119 23/32/120
f 20/63/121 16/64/122 4/65/123
f 20/63/124 3/66/125 16/64/126
f 39/51/127 13/55/128 2/21/129
f 2/18/130 33/38/131 37/37/132
f 17/67/133 44/68/134 31/69/135
f 41/70/136 17/67/137 38/71/138
f 17/67/139 25/72/140 44/68/141
f 41/70/142 25/72/143 17/67/144
f 9/62/145 14/61/146 43/48/147
f 41/8/148 35/73/149 9/4/150
f 43/74/151 36/75/152 44/76/153
f 7/40/154 24/39/155 32/41/156
f 30/52/157 23/77/158 11/53/159
f 22/78/160 23/77/161 30/52/162
f 18/29/163 32/79/164 6/80/165
f 3/28/166 32/79/167 18/29/168
f 10/81/169 19/82/170 29/83/171
f 11/84/172 29/83/173 19/82/174
f 37/85/175 20/63/176 4/65/177
f 20/63/178 37/85/179 3/66/180
f 39/27/181 37/26/182 4/86/183
f 33/38/184 21/20/185 3/36/186
f 33/38/187 2/18/188 21/20/189
f 18/45/190 22/57/191 16/56/192
f 16/56/193 34/34/194 4/33/195
f 34/34/196 16/56/197 10/16/198
f 39/35/199 34/34/200 10/16/201
f 40/59/202 23/87/203 22/88/204
f 40/59/205 27/58/206 23/87/207
f 32/89/208 24/90/209 6/91/210
f 24/90/211 5/92/212 6/91/213
f 17/93/214 24/94/215 38/95/216
f 24/94/217 31/96/218 5/97/219
f 17/93/220 31/96/221 24/94/222
f 8/12/223 27/98/224 1/13/225
f 25/72/226 41/70/227 44/68/228
f 41/11/229 43/10/230 44/99/231
f 8/100/232 26/49/233 9/62/234
f 12/47/235 26/49/236 8/100/237
f 42/5/238 35/73/239 41/8/240
f 9/4/241 35/73/242 42/5/243
f 31/46/244 36/75/245 12/3/246
f 31/46/247 44/76/248 36/75/249
f 36/75/250 43/74/251 12/3/252
