# This file uses meters as units for non-parametric coordinates.

v 13.940965 -26.736126 4.451865
v -6.835700 -8.456020 3.895340
v 3.869734 26.708927 4.861946
v 14.761581 27.189484 -4.892195
v -15.033188 -25.928650 -4.452399
v 3.936338 -16.081161 4.836732
v 15.674229 -25.592192 0.024568
v -5.487289 -16.951447 -5.020292
v 14.488220 -27.189484 -0.807570
v -9.625664 -26.744347 4.823800
v -10.564003 -21.709251 -5.684891
v -6.229677 -8.662395 -4.496919
v 2.998571 -15.771656 -0.010454
v 3.857718 26.965580 -4.867249
v 15.634480 27.038078 0.077173
v 2.957172 26.971359 -0.000303
v 9.299126 26.993771 5.681000
v 9.209156 27.046738 -5.678176
v 14.771195 -25.133955 -4.833679
v -15.523643 -26.369246 0.807382
v 3.886242 -16.443481 -4.840852
v -15.674229 -9.602947 4.836961
v -14.473116 -25.345762 4.730110
v 14.732437 26.979237 4.871482
v -5.577584 -16.812477 5.019720
v 9.002686 -22.509501 5.684927
v 9.126625 -22.561247 -5.682372
v -15.297718 -8.520184 -3.962669
vt 0.247243 0.306986
vt 0.247243 0.306986
vt 0.247243 0.306986
vt 0.247243 0.306986
vt 0.247243 0.306986
vt 0.247243 0.306986
vt 0.247243 0.306986
vt 0.247243 0.306986
vt 0.247243 0.306986
vt 0.247243 0.306986
vt 0.247243 0.306986
vt 0.247243 0.306986
vt 0.247243 0.306986
vt 0.247243 0.306986
vt 0.247243 0.306986
vt 0.247243 0.306986
vt 0.247243 0.306986
vt 0.247243 0.306986
vt 0.247243 0.306986
vt 0.247243 0.306986
vt 0.247243 0.306986
vt 0.247243 0.306986
vt 0.247243 0.306986
vt 0.247243 0.306986
vt 0.247243 0.306986
vt 0.247243 0.306986
vt 0.247243 0.306986
vt 0.247243 0.306986
vt 0.247243 0.306986
vt 0.247243 0.306986
vt 0.247243 0.306986
vt 0.247243 0.306986
vt 0.247243 0.306986
vt 0.247243 0.306986
vt 0.247243 0.306986
vt 0.247243 0.306986
vt 0.247243 0.306986
vt 0.247243 0.306986
vt 0.247243 0.306986
vt 0.247243 0.306986
vt 0.247243 0.306986
vt 0.247243 0.306986
vt 0.247243 0.306986
vt 0.247243 0.306986
vt 0.247243 0.306986
vt 0.247243 0.306986
vt 0.247243 0.306986
vt 0.247243 0.306986
vt 0.247243 0.306986
vt 0.247243 0.306986
vt 0.247243 0.306986
vt 0.247243 0.306986
vt 0.247243 0.306986
vt 0.247243 0.306986
vt 0.247243 0.306986
vt 0.247243 0.306986
vt 0.247243 0.306986
vt 0.247243 0.306986
vt 0.247243 0.306986
vt 0.247243 0.306986
vt 0.247243 0.306986
vt 0.247243 0.306986
vt 0.247243 0.306986
vt 0.247243 0.306986
vt 0.247243 0.306986
vt 0.247243 0.306986
vn -0.285568 0.022613 -0.958092
vn -0.285568 0.022613 -0.958092
vn -0.285568 0.022613 -0.958092
vn 0.086110 0.145578 0.985592
vn 0.086110 0.145578 0.985592
vn 0.086110 0.145578 0.985592
vn -0.024922 -0.009562 0.999644
vn -0.024922 -0.009562 0.999644
vn -0.024922 -0.009562 0.999644
vn 0.015314 -0.263498 0.964538
vn 0.015314 -0.263498 0.964538
vn 0.015314 -0.263498 0.964538
vn -0.995506 -0.012486 -0.093873
vn -0.995506 -0.012486 -0.093873
vn -0.995506 -0.012486 -0.093873
vn 0.985243 0.157386 0.067276
vn 0.985243 0.157386 0.067276
vn 0.985243 0.157386 0.067276
vn -0.050726 0.987877 -0.146719
vn -0.050726 0.987877 -0.146719
vn -0.050726 0.987877 -0.146719
vn -0.024308 0.983219 -0.180805
vn -0.024308 0.983218 -0.180805
vn -0.024308 0.983218 -0.180805
vn 0.983160 -0.000024 -0.182748
vn 0.983160 -0.000024 -0.182748
vn 0.983160 -0.000024 -0.182748
vn 0.140163 -0.000149 -0.990129
vn 0.140163 -0.000149 -0.990129
vn 0.140163 -0.000149 -0.990129
vn 0.233342 -0.011034 0.972332
vn 0.233342 -0.011034 0.972332
vn 0.233342 -0.011034 0.972332
vn -0.166156 -0.000840 0.986099
vn -0.166156 -0.000840 0.986099
vn -0.166156 -0.000840 0.986099
vn -0.983549 -0.000756 -0.180639
vn -0.983549 -0.000756 -0.180639
vn -0.983549 -0.000756 -0.180639
vn -0.983309 -0.000909 -0.181943
vn -0.983309 -0.000909 -0.181943
vn -0.983309 -0.000909 -0.181943
vn 0.760986 -0.634800 0.133902
vn 0.760986 -0.634800 0.133902
vn 0.760986 -0.634800 0.133902
vn 0.833838 -0.513172 -0.203394
vn 0.833838 -0.513172 -0.203394
vn 0.833838 -0.513172 -0.203394
vn -0.981813 -0.001640 0.189843
vn -0.981813 -0.001640 0.189843
vn -0.981813 -0.001640 0.189843
vn -0.982849 -0.000996 0.184410
vn -0.982849 -0.000996 0.184410
vn -0.982849 -0.000996 0.184410
vn 0.147363 -0.000804 0.989082
vn 0.147363 -0.000804 0.989082
vn 0.147363 -0.000804 0.989082
vn -0.149218 0.000972 0.988804
vn -0.149218 0.000972 0.988804
vn -0.149218 0.000972 0.988804
vn -0.159355 -0.000705 -0.987221
vn -0.159355 -0.000705 -0.987221
vn -0.159355 -0.000705 -0.987221
vn -0.149829 0.000333 -0.988712
vn -0.149829 0.000333 -0.988712
vn -0.149829 0.000333 -0.988712
vn 0.148203 -0.001079 -0.988956
vn 0.148203 -0.001079 -0.988956
vn 0.148203 -0.001079 -0.988956
vn 0.984925 0.000917 -0.172980
vn 0.984925 0.000917 -0.172980
vn 0.984925 0.000917 -0.172980
vn 0.932500 -0.016558 0.360790
vn 0.932500 -0.016558 0.360790
vn 0.932500 -0.016558 0.360790
vn 0.982755 0.000557 0.184911
vn 0.982755 0.000557 0.184911
vn 0.982755 0.000557 0.184911
vn 0.146353 0.988893 0.025906
vn 0.146353 0.988893 0.025906
vn 0.146353 0.988893 0.025906
vn -0.074918 0.994137 0.077972
vn -0.074918 0.994137 0.077972
vn -0.074918 0.994137 0.077972
vn -0.129064 0.991525 -0.014885
vn -0.129064 0.991525 -0.014885
vn -0.129064 0.991525 -0.014885
vn -0.269083 -0.911870 0.309980
vn -0.269083 -0.911870 0.309980
vn -0.269083 -0.911870 0.309980
vn 0.996027 0.088718 0.007730
vn 0.996027 0.088718 0.007730
vn 0.996027 0.088718 0.007730
vn -0.011161 0.999590 0.026383
vn -0.011161 0.999590 0.026383
vn -0.011161 0.999590 0.026383
vn -0.028726 0.999357 0.021434
vn -0.028726 0.999358 0.021434
vn -0.028726 0.999357 0.021434
vn -0.024889 0.999501 0.019426
vn -0.024889 0.999501 0.019426
vn -0.024889 0.999501 0.019426
vn 0.049938 0.998518 0.021651
vn 0.049938 0.998518 0.021651
vn 0.049938 0.998518 0.021651
vn 0.017954 -0.891004 -0.453640
vn 0.017954 -0.891004 -0.453640
vn 0.017954 -0.891004 -0.453640
vn 0.001706 -0.996289 0.086056
vn 0.001706 -0.996289 0.086056
vn 0.001706 -0.996289 0.086056
vn -0.031863 -0.995752 -0.086383
vn -0.031863 -0.995752 -0.086383
vn -0.031863 -0.995752 -0.086383
vn -0.029937 -0.998337 -0.049275
vn -0.029937 -0.998337 -0.049275
vn -0.029937 -0.998336 -0.049275
vn 0.014289 0.999621 -0.023550
vn 0.014289 0.999621 -0.023550
vn 0.014289 0.999621 -0.023550
vn -0.115602 0.986448 0.116433
vn -0.115602 0.986448 0.116433
vn -0.115602 0.986448 0.116433
vn -0.999092 0.001263 -0.042593
vn -0.999092 0.001263 -0.042593
vn -0.999092 0.001263 -0.042593
vn -0.958180 -0.074980 0.276169
vn -0.958180 -0.074980 0.276169
vn -0.958180 -0.074980 0.276169
vn 0.021408 -0.028439 0.999366
vn 0.021408 -0.028439 0.999366
vn 0.021408 -0.028439 0.999366
vn -0.064297 0.080569 0.994673
vn -0.064297 0.080569 0.994673
vn -0.064297 0.080569 0.994673
vn -0.021759 -0.008446 0.999728
vn -0.021759 -0.008446 0.999728
vn -0.021759 -0.008446 0.999728
vn 0.012186 0.125568 -0.992010
vn 0.012186 0.125568 -0.992010
vn 0.012186 0.125568 -0.992010
vn 0.006250 0.141520 -0.989916
vn 0.006250 0.141520 -0.989916
vn 0.006250 0.141520 -0.989916
vn -0.004950 -0.275547 -0.961275
vn -0.004950 -0.275547 -0.961275
vn -0.004950 -0.275547 -0.961275
vn -0.014684 -0.342152 -0.939530
vn -0.014684 -0.342152 -0.939530
vn -0.014684 -0.342152 -0.939530
vn 0.065881 0.068754 -0.995456
vn 0.065881 0.068754 -0.995456
vn 0.065881 0.068754 -0.995456
vn -0.056755 0.109217 -0.992396
vn -0.056755 0.109217 -0.992396
vn -0.056755 0.109217 -0.992396
s off
f 5/1/1 28/2/2 11/3/3
f 2/4/4 22/5/5 25/6/6
f 25/6/7 22/5/8 10/7/9
f 1/8/10 26/9/11 10/7/12
f 5/10/13 20/11/14 28/12/15
f 2/13/16 25/14/17 12/15/18
f 8/16/19 13/17/20 21/18/21
f 3/19/22 17/20/23 24/21/24
f 4/22/25 7/23/26 19/24/27
f 4/25/28 27/26/29 18/27/30
f 1/8/31 24/21/32 26/9/33
f 6/28/34 26/9/35 3/19/36
f 21/29/37 13/30/38 14/31/39
f 14/31/40 13/30/41 16/32/42
f 9/33/43 7/23/44 1/34/45
f 19/24/46 7/23/47 9/33/48
f 3/35/49 13/30/50 6/36/51
f 16/32/52 13/30/53 3/35/54
f 17/20/55 26/9/56 24/21/57
f 3/19/58 26/9/59 17/20/60
f 14/37/61 27/26/62 21/38/63
f 18/27/64 27/26/65 14/37/66
f 19/39/67 27/26/68 4/25/69
f 15/40/70 7/23/71 4/22/72
f 7/23/73 24/41/74 1/34/75
f 15/40/76 24/41/77 7/23/78
f 14/31/79 16/32/80 3/35/81
f 13/17/82 25/42/83 6/43/84
f 8/16/85 25/42/86 13/17/87
f 20/44/88 10/45/89 23/46/90
f 12/15/91 25/14/92 8/47/93
f 3/48/94 18/49/95 14/50/96
f 18/49/97 24/51/98 4/52/99
f 3/48/100 24/51/101 18/49/102
f 24/51/103 15/53/104 4/52/105
f 19/54/106 9/55/107 5/56/108
f 10/45/109 9/55/110 1/57/111
f 9/55/112 20/44/113 5/56/114
f 10/45/115 20/44/116 9/55/117
f 12/58/118 28/59/119 2/60/120
f 22/61/121 2/60/122 28/59/123
f 28/12/124 20/11/125 22/62/126
f 20/11/127 23/63/128 22/62/129
f 25/6/130 10/7/131 6/28/132
f 10/7/133 26/9/134 6/28/135
f 10/7/136 22/5/137 23/64/138
f 21/38/139 11/3/140 8/65/141
f 27/26/142 11/3/143 21/38/144
f 11/3/145 19/39/146 5/1/147
f 27/26/148 19/39/149 11/3/150
f 11/3/151 12/66/152 8/65/153
f 11/3/154 28/2/155 12/66/156
