# This file uses meters as units for non-parametric coordinates.

v -13.839170 26.908970 4.497720
v 15.850278 -17.945194 4.856721
v 4.440671 -26.687508 4.824218
v -4.335633 -17.134054 4.940147
v 4.615439 17.655125 5.021093
v 4.567642 -16.836779 -4.938011
v 15.486259 19.614868 -4.451064
v -4.335651 17.794666 -4.938011
v -14.923212 26.597710 -4.495584
v -14.923212 -26.573503 4.497720
v 4.333381 -15.318298 0.010451
v 10.723991 18.907528 5.659027
v -4.331284 15.913525 0.012434
v -16.750793 -24.910049 0.033418
v -9.843960 -22.578337 5.679206
v -9.922333 -22.585432 -5.672416
v -16.749971 24.696369 -0.019684
v 3.691997 17.188568 0.001070
v -5.456201 27.930470 0.043451
v 11.479262 -23.579502 0.030289
v -5.453338 -27.930468 -0.040550
v 10.702744 -18.554630 5.677871
v 10.670853 18.882656 -5.679244
v 16.750793 17.934093 -0.039824
v 4.982930 -17.062567 5.195236
v 15.819073 -17.624723 -4.855614
v 15.859890 18.024673 4.841156
v 4.831295 17.552109 -5.018957
v -4.576262 18.171539 5.195236
v -5.242805 -16.400969 -4.861490
v 5.547085 26.462269 4.824218
v -4.327506 -15.910532 -0.064545
v 16.745796 -17.938860 -0.023919
v 5.547085 -26.408537 -4.822082
v -13.839170 -26.891098 -4.495584
v -15.899315 24.388866 4.848291
v -9.915810 22.884159 5.670927
v -15.910018 -24.563162 -4.837188
v 4.440670 26.741352 -4.822082
v -9.840869 22.914238 -5.674058
v 10.681476 -18.580057 -5.670204
vt 0.247243 0.306986
vt 0.247243 0.306986
vt 0.247243 0.306986
vt 0.247243 0.306986
vt 0.247243 0.306986
vt 0.247243 0.306986
vt 0.247243 0.306986
vt 0.247243 0.306986
vt 0.247243 0.306986
vt 0.247243 0.306986
vt 0.247243 0.306986
vt 0.247243 0.306986
vt 0.247243 0.306986
vt 0.247243 0.306986
vt 0.247243 0.306986
vt 0.247243 0.306986
vt 0.247243 0.306986
vt 0.247243 0.306986
vt 0.247243 0.306986
vt 0.247243 0.306986
vt 0.247243 0.306986
vt 0.247243 0.306986
vt 0.247243 0.306986
vt 0.247243 0.306986
vt 0.247243 0.306986
vt 0.247243 0.306986
vt 0.247243 0.306986
vt 0.247243 0.306986
vt 0.247243 0.306986
vt 0.247243 0.306986
vt 0.247243 0.306986
vt 0.247243 0.306986
vt 0.247243 0.306986
vt 0.247243 0.306986
vt 0.247243 0.306986
vt 0.247243 0.306986
vt 0.247243 0.306986
vt 0.247243 0.306986
vt 0.247243 0.306986
vt 0.247243 0.306986
vt 0.247243 0.306986
vt 0.247243 0.306986
vt 0.247243 0.306986
vt 0.247243 0.306986
vt 0.247243 0.306986
vt 0.247243 0.306986
vt 0.247243 0.306986
vt 0.247243 0.306986
vt 0.247243 0.306986
vt 0.247243 0.306986
vt 0.247243 0.306986
vt 0.247243 0.306986
vt 0.247243 0.306986
vt 0.247243 0.306986
vt 0.247243 0.306986
vt 0.247243 0.306986
vt 0.247243 0.306986
vt 0.247243 0.306986
vt 0.247243 0.306986
vt 0.247243 0.306986
vt 0.247243 0.306986
vt 0.247243 0.306986
vt 0.247243 0.306986
vt 0.247243 0.306986
vt 0.247243 0.306986
vt 0.247243 0.306986
vt 0.247243 0.306986
vt 0.247243 0.306986
vt 0.247243 0.306986
vt 0.247243 0.306986
vt 0.247243 0.306986
vt 0.247243 0.306986
vt 0.247243 0.306986
vt 0.247243 0.306986
vt 0.247243 0.306986
vt 0.247243 0.306986
vt 0.247243 0.306986
vt 0.247243 0.306986
vt 0.247243 0.306986
vt 0.247243 0.306986
vt 0.247243 0.306986
vt 0.247243 0.306986
vt 0.247243 0.306986
vt 0.247243 0.306986
vt 0.247243 0.306986
vn -0.009930 -0.255223 -0.966831
vn -0.009930 -0.255223 -0.966831
vn -0.009930 -0.255223 -0.966831
vn -0.018265 0.281720 -0.959323
vn -0.018265 0.281720 -0.959323
vn -0.018265 0.281720 -0.959323
vn -0.018203 -0.379208 -0.925132
vn -0.018203 -0.379208 -0.925132
vn -0.018203 -0.379208 -0.925132
vn -0.028359 0.207576 0.977808
vn -0.028359 0.207576 0.977808
vn -0.028359 0.207576 0.977808
vn -0.009970 0.270863 0.962566
vn -0.009970 0.270863 0.962566
vn -0.009970 0.270863 0.962566
vn -0.082944 0.203514 0.975552
vn -0.082944 0.203514 0.975552
vn -0.082944 0.203514 0.975552
vn 0.131224 -0.991259 -0.013615
vn 0.131224 -0.991259 -0.013615
vn 0.131224 -0.991259 -0.013615
vn 0.725150 -0.675786 0.132176
vn 0.725150 -0.675786 0.132176
vn 0.725150 -0.675786 0.132176
vn -0.068321 0.969148 0.236822
vn -0.068321 0.969148 0.236822
vn -0.068321 0.969148 0.236822
vn -0.130650 0.991255 -0.018560
vn -0.130650 0.991255 -0.018560
vn -0.130650 0.991255 -0.018560
vn -0.767473 0.637198 0.070457
vn -0.767473 0.637198 0.070457
vn -0.767473 0.637198 0.070457
vn -0.218484 0.010730 -0.975782
vn -0.218484 0.010730 -0.975782
vn -0.218484 0.010730 -0.975782
vn 0.998993 0.006488 0.044393
vn 0.998993 0.006488 0.044393
vn 0.998993 0.006488 0.044393
vn -0.609361 -0.791587 -0.045497
vn -0.609361 -0.791587 -0.045497
vn -0.609361 -0.791587 -0.045497
vn 0.247164 -0.000164 -0.968974
vn 0.247164 -0.000164 -0.968974
vn 0.247164 -0.000164 -0.968974
vn 0.157487 0.000385 0.987521
vn 0.157487 0.000385 0.987521
vn 0.157487 0.000385 0.987521
vn 0.983580 -0.000185 0.180471
vn 0.983580 -0.000185 0.180471
vn 0.983580 -0.000185 0.180471
vn 0.983747 -0.000057 0.179560
vn 0.983747 -0.000057 0.179560
vn 0.983747 -0.000057 0.179560
vn -0.992601 -0.009900 0.121022
vn -0.992601 -0.009900 0.121022
vn -0.992600 -0.009900 0.121022
vn -0.982993 -0.019342 0.182621
vn -0.982993 -0.019342 0.182621
vn -0.982993 -0.019342 0.182621
vn -0.998741 0.007540 -0.049594
vn -0.998741 0.007540 -0.049594
vn -0.998741 0.007540 -0.049594
vn -0.974717 -0.019296 -0.222610
vn -0.974717 -0.019296 -0.222610
vn -0.974717 -0.019296 -0.222610
vn 0.962376 0.011550 -0.271476
vn 0.962376 0.011550 -0.271476
vn 0.962376 0.011550 -0.271476
vn 0.982096 -0.000220 -0.188381
vn 0.982096 -0.000220 -0.188381
vn 0.982096 -0.000220 -0.188381
vn -0.104654 0.003881 0.994501
vn -0.104654 0.003881 0.994501
vn -0.104654 0.003881 0.994501
vn -0.083939 0.000549 0.996471
vn -0.083939 0.000549 0.996471
vn -0.083939 0.000549 0.996471
vn 0.157333 0.000408 0.987546
vn 0.157333 0.000408 0.987546
vn 0.157333 0.000408 0.987546
vn -0.119310 -0.001422 -0.992856
vn -0.119310 -0.001422 -0.992856
vn -0.119310 -0.001422 -0.992856
vn -0.112294 -0.000272 -0.993675
vn -0.112294 -0.000272 -0.993675
vn -0.112294 -0.000272 -0.993675
vn 0.154389 0.012112 -0.987936
vn 0.154389 0.012112 -0.987936
vn 0.154389 0.012112 -0.987936
vn -0.723258 -0.668694 -0.172475
vn -0.723258 -0.668694 -0.172475
vn -0.723258 -0.668694 -0.172475
vn -0.068696 -0.204399 -0.976474
vn -0.068696 -0.204399 -0.976474
vn -0.068696 -0.204399 -0.976474
vn 0.999999 0.000115 0.001652
vn 0.999999 0.000115 0.001652
vn 0.999999 0.000115 0.001652
vn 0.999588 -0.026542 -0.010968
vn 0.999588 -0.026542 -0.010968
vn 0.999588 -0.026542 -0.010968
vn 0.982268 0.000570 -0.187484
vn 0.982268 0.000570 -0.187484
vn 0.982268 0.000570 -0.187484
vn -0.985465 0.020134 -0.168679
vn -0.985465 0.020134 -0.168679
vn -0.985465 0.020134 -0.168679
vn -0.927897 -0.020333 0.372283
vn -0.927897 -0.020333 0.372283
vn -0.927897 -0.020333 0.372283
vn -0.925800 -0.000389 -0.378014
vn -0.925800 -0.000389 -0.378014
vn -0.925800 -0.000389 -0.378014
vn -0.985071 0.000201 0.172149
vn -0.985071 0.000201 0.172149
vn -0.985071 0.000201 0.172149
vn 0.139001 -0.006207 0.990273
vn 0.139001 -0.006207 0.990273
vn 0.139001 -0.006207 0.990273
vn 0.089019 0.000322 0.996030
vn 0.089019 0.000322 0.996030
vn 0.089019 0.000322 0.996030
vn -0.218410 -0.010896 0.975796
vn -0.218410 -0.010896 0.975796
vn -0.218410 -0.010896 0.975796
vn -0.136211 -0.000035 0.990680
vn -0.136211 -0.000035 0.990680
vn -0.136211 -0.000035 0.990680
vn 0.179676 -0.006968 -0.983701
vn 0.179676 -0.006968 -0.983701
vn 0.179676 -0.006968 -0.983701
vn 0.132271 -0.000273 -0.991214
vn 0.132271 -0.000273 -0.991214
vn 0.132271 -0.000273 -0.991214
vn -0.138222 0.000212 -0.990401
vn -0.138222 0.000212 -0.990401
vn -0.138222 0.000212 -0.990401
vn -0.521679 0.840854 0.144276
vn -0.521679 0.840854 0.144276
vn -0.521679 0.840854 0.144276
vn -0.027061 -0.996562 -0.078310
vn -0.027061 -0.996562 -0.078310
vn -0.027061 -0.996562 -0.078310
vn -0.053870 -0.993302 0.102226
vn -0.053870 -0.993302 0.102226
vn -0.053870 -0.993302 0.102226
vn 0.146448 -0.924664 -0.351497
vn 0.146448 -0.924664 -0.351497
vn 0.146448 -0.924664 -0.351497
vn 0.144334 -0.904655 0.400958
vn 0.144334 -0.904655 0.400958
vn 0.144334 -0.904655 0.400958
vn -0.011539 0.965680 -0.259478
vn -0.011539 0.965680 -0.259478
vn -0.011539 0.965680 -0.259479
vn 0.017970 0.966641 0.255502
vn 0.017970 0.966642 0.255502
vn 0.017970 0.966642 0.255502
vn 0.126172 0.991906 0.014226
vn 0.126172 0.991906 0.014226
vn 0.126172 0.991906 0.014226
vn 0.542652 0.839099 -0.037965
vn 0.542652 0.839099 -0.037965
vn 0.542652 0.839099 -0.037965
vn 0.629532 0.769655 0.106400
vn 0.629531 0.769655 0.106400
vn 0.629532 0.769655 0.106400
vn 0.644881 0.757222 0.103655
vn 0.644881 0.757221 0.103655
vn 0.644881 0.757221 0.103655
vn 0.040185 0.955763 -0.291382
vn 0.040185 0.955763 -0.291382
vn 0.040185 0.955763 -0.291382
vn -0.067186 0.993782 -0.088785
vn -0.067186 0.993782 -0.088785
vn -0.067186 0.993782 -0.088785
vn -0.016042 0.947071 0.320624
vn -0.016042 0.947071 0.320624
vn -0.016042 0.947071 0.320624
vn 0.612741 -0.717814 -0.330593
vn 0.612741 -0.717814 -0.330593
vn 0.612741 -0.717814 -0.330593
vn 0.717934 -0.672061 -0.181396
vn 0.717934 -0.672061 -0.181396
vn 0.717934 -0.672061 -0.181396
vn 0.568469 -0.743221 0.352797
vn 0.568469 -0.743221 0.352797
vn 0.568469 -0.743221 0.352797
vn 0.416022 -0.909102 0.021425
vn 0.416022 -0.909102 0.021425
vn 0.416022 -0.909102 0.021425
vn 0.019605 -0.964867 -0.262008
vn 0.019605 -0.964867 -0.262008
vn 0.019605 -0.964867 -0.262008
vn -0.010174 -0.963668 0.266911
vn -0.010174 -0.963668 0.266911
vn -0.010174 -0.963668 0.266911
vn -0.132902 -0.990948 0.018975
vn -0.132902 -0.990948 0.018975
vn -0.132902 -0.990947 0.018975
vn 0.192393 0.237063 0.952253
vn 0.192393 0.237063 0.952253
vn 0.192393 0.237063 0.952253
vn -0.006864 -0.427083 0.904187
vn -0.006864 -0.427083 0.904187
vn -0.006864 -0.427083 0.904187
vn -0.023938 -0.127213 0.991587
vn -0.023938 -0.127213 0.991587
vn -0.023938 -0.127213 0.991586
vn 0.024982 0.126695 0.991627
vn 0.024982 0.126695 0.991627
vn 0.024982 0.126695 0.991627
vn 0.180506 -0.239126 0.954063
vn 0.180506 -0.239126 0.954063
vn 0.180506 -0.239126 0.954063
vn -0.032591 0.166750 0.985460
vn -0.032591 0.166750 0.985460
vn -0.032591 0.166750 0.985460
vn -0.017325 -0.091170 0.995685
vn -0.017325 -0.091170 0.995685
vn -0.017325 -0.091170 0.995685
vn 0.071643 -0.365530 0.928038
vn 0.071643 -0.365530 0.928038
vn 0.071643 -0.365530 0.928038
vn 0.200870 0.262195 -0.943878
vn 0.200870 0.262195 -0.943878
vn 0.200870 0.262195 -0.943878
vn -0.035541 -0.179560 -0.983105
vn -0.035541 -0.179560 -0.983105
vn -0.035541 -0.179560 -0.983105
vn 0.024882 0.127868 -0.991479
vn 0.024882 0.127868 -0.991479
vn 0.024882 0.127868 -0.991479
vn 0.194059 -0.230576 -0.953507
vn 0.194058 -0.230576 -0.953507
vn 0.194059 -0.230576 -0.953507
vn 0.011661 0.421703 -0.906659
vn 0.011661 0.421703 -0.906659
vn 0.011661 0.421703 -0.906659
vn -0.029403 0.151794 -0.987975
vn -0.029403 0.151794 -0.987975
vn -0.029403 0.151794 -0.987975
vn 0.024070 -0.123266 -0.992082
vn 0.024070 -0.123266 -0.992082
vn 0.024070 -0.123266 -0.992082
s off
f 35/1/1 16/2/2 34/3/3
f 9/4/4 39/5/5 40/6/6
f 8/7/7 23/8/8 28/9/9
f 4/10/10 22/11/11 25/12/12
f 1/13/13 37/14/14 31/15/15
f 1/13/16 36/16/17 37/14/18
f 3/17/19 21/18/20 34/19/21
f 2/20/22 20/21/23 33/22/24
f 4/23/25 11/24/26 32/25/27
f 1/26/28 19/27/29 9/28/30
f 1/29/31 9/30/32 36/31/33
f 9/4/34 40/6/35 38/32/36
f 4/33/37 13/34/38 29/35/39
f 10/36/40 14/37/41 35/38/42
f 7/39/43 41/40/44 23/8/45
f 2/41/46 27/42/47 22/11/48
f 2/43/49 33/44/50 27/45/51
f 27/45/52 33/44/53 24/46/54
f 5/47/55 11/48/56 25/49/57
f 18/50/58 11/48/59 5/47/60
f 11/48/61 28/51/62 6/52/63
f 18/50/64 28/51/65 11/48/66
f 24/46/67 26/53/68 7/54/69
f 24/46/70 33/44/71 26/53/72
f 25/12/73 12/55/74 5/56/75
f 22/11/76 12/55/77 25/12/78
f 22/11/79 27/42/80 12/55/81
f 28/9/82 41/40/83 6/57/84
f 23/8/85 41/40/86 28/9/87
f 26/58/88 41/40/89 7/39/90
f 35/38/91 14/37/92 38/59/93
f 38/32/94 16/2/95 35/1/96
f 32/60/97 13/34/98 4/33/99
f 13/34/100 30/61/101 8/62/102
f 32/60/103 30/61/104 13/34/105
f 38/59/106 14/37/107 9/30/108
f 36/31/109 14/37/110 10/36/111
f 14/37/112 17/63/113 9/30/114
f 36/31/115 17/63/116 14/37/117
f 29/64/118 15/65/119 4/10/120
f 37/14/121 15/65/122 29/64/123
f 15/65/124 36/16/125 10/66/126
f 37/14/127 36/16/128 15/65/129
f 30/67/130 16/2/131 8/7/132
f 16/2/133 40/6/134 8/7/135
f 38/32/136 40/6/137 16/2/138
f 36/31/139 9/30/140 17/63/141
f 28/68/142 18/69/143 8/70/144
f 29/71/145 18/69/146 5/72/147
f 18/69/148 13/73/149 8/70/150
f 29/71/151 13/73/152 18/69/153
f 9/28/154 19/27/155 39/74/156
f 31/75/157 19/27/158 1/26/159
f 19/27/160 31/75/161 39/74/162
f 31/75/163 7/76/164 39/74/165
f 27/77/166 7/76/167 31/75/168
f 27/77/169 24/78/170 7/76/171
f 30/79/172 11/24/173 6/80/174
f 32/25/175 11/24/176 30/79/177
f 25/81/178 11/24/179 4/23/180
f 26/82/181 20/21/182 34/19/183
f 33/22/184 20/21/185 26/82/186
f 3/17/187 20/21/188 2/20/189
f 3/17/190 34/19/191 20/21/192
f 34/19/193 21/18/194 35/83/195
f 10/84/196 21/18/197 3/17/198
f 10/84/199 35/83/200 21/18/201
f 12/55/202 27/42/203 31/15/204
f 12/55/205 29/64/206 5/56/207
f 12/55/208 37/14/209 29/64/210
f 31/15/211 37/14/212 12/55/213
f 22/11/214 3/85/215 2/41/216
f 15/65/217 22/11/218 4/10/219
f 22/11/220 10/66/221 3/85/222
f 15/65/223 10/66/224 22/11/225
f 23/8/226 39/5/227 7/39/228
f 40/6/229 23/8/230 8/7/231
f 40/6/232 39/5/233 23/8/234
f 41/40/235 26/58/236 34/3/237
f 41/40/238 30/67/239 6/57/240
f 41/40/241 16/2/242 30/67/243
f 34/3/244 16/2/245 41/40/246
