# This file uses meters as units for non-parametric coordinates.

v 7.042138 -23.134470 -12.197330
v -7.042133 -23.134470 -12.197332
v -14.084270 -23.134470 -0.000002
v -7.042137 -23.134470 12.197332
v 7.042135 -23.134470 12.197332
v 14.084270 -23.134470 0.000000
v 3.172603 16.588697 -5.495108
v -3.172601 16.588697 -5.495108
v -6.345203 16.588697 -0.000001
v -3.172603 16.588697 5.495108
v 3.172602 16.588697 5.495108
v 6.345203 16.588697 0.000000
v 4.180009 -27.395496 -7.239983
v -4.180006 -27.395496 -7.239985
v 0.000000 -28.540323 -0.000000
v -8.360013 -27.395496 -0.000001
v -4.180007 -27.395496 7.239985
v 4.180007 -27.395496 7.239985
v 8.360013 -27.395496 0.000000
v 4.529662 17.688236 -7.845601
v -4.529658 17.688236 -7.845602
v -9.059319 17.688236 -0.000001
v -4.529661 17.688236 7.845602
v 4.529659 17.688236 7.845602
v 9.059319 17.688236 0.000000
v 4.529662 19.534603 -7.845601
v -4.529658 19.534603 -7.845602
v -9.059319 19.534603 -0.000001
v -4.529661 19.534603 7.845602
v 4.529659 19.534603 7.845602
v 9.059319 19.534603 0.000000
v 2.335255 20.380711 -4.044779
v -2.335253 20.380711 -4.044780
v -4.670509 20.380711 -0.000001
v -2.335255 20.380711 4.044780
v 2.335254 20.380711 4.044780
v 4.670509 20.380711 0.000000
v 3.393887 28.364864 -5.969937
v -3.478612 28.540323 -5.908653
v -0.000000 28.037487 0.000000
v -6.872500 28.212944 0.061283
v -3.393886 27.710106 5.969938
v 3.478615 27.534645 5.908653
v 6.872500 27.862028 -0.061284
v 3.172603 -3.516071 -5.495108
v -3.172601 -3.516071 -5.495108
v -6.345203 -3.516071 -0.000001
v -3.172603 -3.516071 5.495108
v 3.172602 -3.516071 5.495108
v 6.345203 -3.516071 0.000000
v -6.607607 -8.269636 11.444701
v -13.215208 -8.269636 -0.000002
v -6.607604 -8.269636 -11.444701
v 6.607609 -8.269636 -11.444698
v 13.215208 -8.269636 0.000000
v 6.607604 -8.269636 11.444701
v -7.952555 -15.614964 13.774220
v -15.905106 -15.614964 -0.000002
v -7.952551 -15.614964 -13.774220
v 7.952555 -15.614964 -13.774218
v 15.905106 -15.614964 0.000000
v 7.952553 -15.614964 13.774220
v 3.172602 3.207402 5.495108
v -3.172603 3.207402 5.495108
v -6.345203 3.207402 -0.000001
v -3.172601 3.207402 -5.495108
v 3.172603 3.207402 -5.495108
v 6.345203 3.207402 0.000000
vt 0.247919 0.304255
vt 0.247919 0.304255
vt 0.247919 0.304255
vt 0.247919 0.304255
vt 0.247919 0.304255
vt 0.247919 0.304255
vt 0.247919 0.304255
vt 0.247919 0.304255
vt 0.247919 0.304255
vt 0.247919 0.304255
vt 0.247919 0.304255
vt 0.247919 0.304255
vt 0.247919 0.304255
vt 0.369622 0.449386
vt 0.369622 0.449386
vt 0.369622 0.449386
vt 0.369622 0.449386
vt 0.369622 0.449386
vt 0.369622 0.449386
vt 0.369622 0.449386
vt 0.369622 0.449386
vt 0.369622 0.449386
vt 0.369622 0.449386
vt 0.369622 0.449386
vt 0.369622 0.449386
vt 0.369622 0.449386
vt 0.247919 0.304255
vt 0.218633 0.304255
vt 0.247919 0.304255
vt 0.247919 0.304255
vt 0.247919 0.304255
vt 0.247919 0.304255
vt 0.247919 0.304255
vt 0.249221 0.302953
vt 0.369622 0.449386
vt 0.369622 0.449386
vt 0.369622 0.449386
vt 0.369622 0.449386
vt 0.369622 0.449386
vt 0.369622 0.449386
vt 0.369622 0.449386
vt 0.369622 0.449386
vt 0.369622 0.449386
vt 0.369622 0.449386
vt 0.369622 0.449386
vt 0.369622 0.449386
vt 0.369622 0.449386
vt 0.369622 0.449386
vt 0.369622 0.449386
vt 0.369622 0.449386
vt 0.369622 0.449386
vt 0.369622 0.449386
vt 0.218633 0.304255
vt 0.218633 0.304255
vt 0.218633 0.304255
vt 0.218633 0.304255
vt 0.218633 0.304255
vt 0.218633 0.304255
vt 0.218633 0.304255
vt 0.218633 0.304255
vt 0.218633 0.304255
vt 0.218633 0.304255
vt 0.218633 0.304255
vt 0.218633 0.304255
vt 0.249221 0.302953
vt 0.249221 0.302953
vt 0.249221 0.302953
vt 0.249221 0.302953
vt 0.249221 0.302953
vt 0.249221 0.302953
vt 0.247919 0.304255
vt 0.247919 0.304255
vt 0.247919 0.304255
vt 0.247919 0.304255
vt 0.247919 0.304255
vt 0.247919 0.304255
vt 0.247919 0.304255
vt 0.247919 0.304255
vt 0.247919 0.304255
vt 0.247919 0.304255
vt 0.247919 0.304255
vt 0.247919 0.304255
vt 0.369622 0.449386
vt 0.369622 0.449386
vt 0.369622 0.449386
vt 0.369622 0.449386
vt 0.369622 0.449386
vt 0.369622 0.449386
vt 0.369622 0.449386
vt 0.249221 0.302953
vt 0.249221 0.302953
vt 0.249221 0.302953
vt 0.249221 0.302953
vt 0.249221 0.302953
vn 0.000000 -0.205242 -0.978711
vn 0.000000 -0.205242 -0.978711
vn 0.000000 -0.205242 -0.978711
vn 0.000000 -0.205242 -0.978711
vn -0.847589 -0.205242 -0.489356
vn -0.847589 -0.205242 -0.489356
vn -0.847589 -0.205242 -0.489356
vn -0.847589 -0.205242 -0.489356
vn -0.847589 -0.205242 0.489355
vn -0.847589 -0.205242 0.489355
vn -0.847589 -0.205242 0.489355
vn -0.847589 -0.205242 0.489355
vn 0.000000 -0.205242 0.978711
vn 0.000000 -0.205242 0.978711
vn 0.000000 -0.205242 0.978711
vn 0.000000 -0.205242 0.978711
vn 0.847589 -0.205242 0.489356
vn 0.847589 -0.205242 0.489356
vn 0.847589 -0.205242 0.489356
vn 0.847589 -0.205242 0.489356
vn 0.847589 -0.205242 -0.489356
vn 0.847589 -0.205242 -0.489356
vn 0.847589 -0.205242 -0.489356
vn 0.847589 -0.205242 -0.489356
vn 0.000000 -0.987728 -0.156185
vn 0.000000 -0.987728 -0.156185
vn 0.000000 -0.987728 -0.156185
vn -0.135260 -0.987728 -0.078093
vn -0.135260 -0.987728 -0.078093
vn -0.135260 -0.987728 -0.078093
vn -0.135260 -0.987728 0.078093
vn -0.135260 -0.987728 0.078093
vn -0.135260 -0.987728 0.078093
vn 0.000000 -0.987728 0.156185
vn 0.000000 -0.987728 0.156185
vn 0.000000 -0.987728 0.156185
vn 0.135260 -0.987728 0.078093
vn 0.135260 -0.987728 0.078093
vn 0.135260 -0.987728 0.078093
vn 0.135260 -0.987728 -0.078093
vn 0.135260 -0.987728 -0.078093
vn 0.135260 -0.987728 -0.078093
vn 0.026080 0.997240 0.069512
vn 0.026080 0.997240 0.069512
vn 0.026080 0.997240 0.069512
vn 0.026080 0.997240 0.069513
vn 0.026080 0.997240 0.069513
vn 0.026080 0.997240 0.069513
vn 0.026080 0.997240 0.069513
vn 0.026080 0.997240 0.069513
vn 0.026080 0.997240 0.069513
vn 0.026080 0.997240 0.069514
vn 0.026080 0.997240 0.069514
vn 0.026080 0.997240 0.069514
vn 0.026080 0.997240 0.069513
vn 0.026080 0.997240 0.069513
vn 0.026080 0.997240 0.069513
vn 0.026080 0.997240 0.069513
vn 0.026080 0.997240 0.069513
vn 0.026080 0.997240 0.069513
vn 0.000000 -0.758358 -0.651838
vn 0.000000 -0.758358 -0.651838
vn 0.000000 -0.758358 -0.651838
vn 0.000000 -0.758358 -0.651838
vn -0.564508 -0.758359 -0.325919
vn -0.564508 -0.758359 -0.325919
vn -0.564508 -0.758359 -0.325919
vn -0.564508 -0.758359 -0.325919
vn -0.564508 -0.758359 0.325919
vn -0.564508 -0.758359 0.325919
vn -0.564508 -0.758359 0.325919
vn -0.564508 -0.758359 0.325919
vn 0.000000 -0.758359 0.651838
vn 0.000000 -0.758359 0.651838
vn 0.000000 -0.758359 0.651838
vn 0.000000 -0.758359 0.651838
vn 0.564508 -0.758359 0.325919
vn 0.564508 -0.758359 0.325919
vn 0.564508 -0.758359 0.325919
vn 0.564508 -0.758359 0.325919
vn 0.564508 -0.758359 -0.325919
vn 0.564508 -0.758359 -0.325919
vn 0.564508 -0.758359 -0.325919
vn 0.564508 -0.758359 -0.325919
vn 0.000000 -0.905793 -0.423721
vn 0.000000 -0.905793 -0.423721
vn 0.000000 -0.905793 -0.423721
vn 0.000000 -0.905793 -0.423721
vn -0.366953 -0.905793 -0.211861
vn -0.366953 -0.905793 -0.211861
vn -0.366953 -0.905793 -0.211861
vn -0.366953 -0.905793 -0.211861
vn -0.366953 -0.905793 0.211861
vn -0.366953 -0.905793 0.211860
vn -0.366953 -0.905793 0.211860
vn -0.366953 -0.905793 0.211861
vn 0.000000 -0.905793 0.423721
vn 0.000000 -0.905793 0.423721
vn 0.000000 -0.905793 0.423721
vn 0.000000 -0.905793 0.423721
vn 0.366953 -0.905793 0.211861
vn 0.366953 -0.905793 0.211861
vn 0.366953 -0.905793 0.211861
vn 0.366953 -0.905793 0.211861
vn 0.366953 -0.905793 -0.211861
vn 0.366953 -0.905793 -0.211861
vn 0.366953 -0.905793 -0.211861
vn 0.366953 -0.905793 -0.211861
vn 0.000000 0.000000 -1.000000
vn 0.000000 0.000000 -1.000000
vn 0.000000 0.000000 -1.000000
vn 0.000000 0.000000 -1.000000
vn -0.866026 0.000000 -0.500000
vn -0.866026 0.000000 -0.500000
vn -0.866026 0.000000 -0.500000
vn -0.866026 0.000000 -0.500000
vn -0.866026 0.000000 0.500000
vn -0.866026 0.000000 0.500000
vn -0.866026 0.000000 0.500000
vn -0.866026 0.000000 0.500000
vn 0.000000 0.000000 1.000000
vn 0.000000 0.000000 1.000000
vn 0.000000 0.000000 1.000000
vn 0.000000 0.000000 1.000000
vn 0.866025 0.000000 0.500000
vn 0.866025 0.000000 0.500000
vn 0.866025 0.000000 0.500000
vn 0.866025 0.000000 0.500000
vn 0.866026 0.000000 -0.500000
vn 0.866026 0.000000 -0.500000
vn 0.866026 0.000000 -0.500000
vn 0.866026 0.000000 -0.500000
vn 0.000000 0.976107 -0.217292
vn 0.000000 0.976107 -0.217292
vn 0.000000 0.976107 -0.217292
vn 0.000000 0.976107 -0.217292
vn -0.188181 0.976106 -0.108647
vn -0.188181 0.976106 -0.108647
vn -0.188181 0.976106 -0.108647
vn -0.188181 0.976107 -0.108647
vn -0.188181 0.976107 0.108646
vn -0.188181 0.976107 0.108646
vn -0.188181 0.976107 0.108646
vn -0.188181 0.976107 0.108646
vn 0.000000 0.976107 0.217292
vn 0.000000 0.976107 0.217292
vn 0.000000 0.976107 0.217292
vn 0.000000 0.976107 0.217292
vn 0.188181 0.976106 0.108646
vn 0.188181 0.976106 0.108646
vn 0.188181 0.976106 0.108646
vn 0.188181 0.976106 0.108646
vn 0.188181 0.976107 -0.108646
vn 0.188181 0.976107 -0.108646
vn 0.188181 0.976107 -0.108646
vn 0.188181 0.976107 -0.108646
vn -0.008642 -0.228531 -0.973498
vn -0.008642 -0.228531 -0.973498
vn -0.008642 -0.228531 -0.973498
vn -0.008642 -0.228531 -0.973498
vn -0.841235 -0.231076 -0.488801
vn -0.841235 -0.231076 -0.488801
vn -0.841235 -0.231076 -0.488801
vn -0.841235 -0.231076 -0.488801
vn -0.842688 -0.244100 0.479888
vn -0.842688 -0.244100 0.479888
vn -0.842688 -0.244100 0.479888
vn -0.842688 -0.244100 0.479888
vn 0.001289 -0.253102 0.967439
vn 0.001289 -0.253102 0.967439
vn 0.001289 -0.253102 0.967439
vn 0.001289 -0.253102 0.967439
vn 0.843670 -0.251281 0.474425
vn 0.843669 -0.251281 0.474425
vn 0.843669 -0.251281 0.474425
vn 0.843669 -0.251281 0.474425
vn 0.832999 -0.239674 -0.498668
vn 0.832999 -0.239674 -0.498668
vn 0.832999 -0.239674 -0.498668
vn 0.832999 -0.239674 -0.498668
vn 0.000000 0.000000 -1.000000
vn 0.000000 0.000000 -1.000000
vn 0.000000 0.000000 -1.000000
vn 0.000000 0.000000 -1.000000
vn -0.866025 0.000000 -0.500000
vn -0.866025 0.000000 -0.500000
vn -0.866025 0.000000 -0.500000
vn -0.866025 0.000000 -0.500000
vn -0.866026 0.000000 0.500000
vn -0.866026 0.000000 0.500000
vn -0.866026 0.000000 0.500000
vn -0.866026 0.000000 0.500000
vn 0.000000 0.000000 1.000000
vn 0.000000 0.000000 1.000000
vn 0.000000 0.000000 1.000000
vn 0.000000 0.000000 1.000000
vn 0.866025 0.000000 0.500000
vn 0.866025 0.000000 0.500000
vn 0.866025 0.000000 0.500000
vn 0.866025 0.000000 0.500000
vn 0.866026 0.000000 -0.500000
vn 0.866026 0.000000 -0.500000
vn 0.866026 0.000000 -0.500000
vn 0.866026 0.000000 -0.500000
vn -0.540578 0.781260 0.312103
vn -0.540578 0.781260 0.312103
vn -0.540578 0.781260 0.312103
vn -0.540578 0.781260 0.312103
vn -0.540578 0.781260 -0.312103
vn -0.540578 0.781260 -0.312103
vn -0.540578 0.781260 -0.312103
vn -0.540578 0.781260 -0.312103
vn 0.000000 0.781260 -0.624206
vn 0.000000 0.781260 -0.624206
vn 0.000000 0.781260 -0.624206
vn 0.000000 0.781260 -0.624206
vn 0.540578 0.781260 -0.312103
vn 0.540578 0.781260 -0.312103
vn 0.540578 0.781260 -0.312103
vn 0.540578 0.781260 -0.312103
vn 0.540578 0.781260 0.312103
vn 0.540578 0.781260 0.312103
vn 0.540578 0.781260 0.312103
vn 0.540578 0.781260 0.312103
vn 0.000000 0.781260 0.624206
vn 0.000000 0.781260 0.624206
vn 0.000000 0.781260 0.624206
vn 0.000000 0.781260 0.624206
vn -0.825505 0.302304 0.476606
vn -0.825505 0.302304 0.476606
vn -0.825505 0.302304 0.476606
vn -0.825505 0.302304 0.476606
vn -0.825505 0.302304 -0.476606
vn -0.825505 0.302304 -0.476606
vn -0.825505 0.302304 -0.476606
vn -0.825505 0.302304 -0.476606
vn 0.000000 0.302304 -0.953212
vn 0.000000 0.302304 -0.953212
vn 0.000000 0.302304 -0.953211
vn 0.000000 0.302304 -0.953211
vn 0.825505 0.302304 -0.476606
vn 0.825505 0.302304 -0.476606
vn 0.825505 0.302304 -0.476606
vn 0.825505 0.302304 -0.476606
vn 0.825505 0.302304 0.476606
vn 0.825505 0.302304 0.476606
vn 0.825505 0.302304 0.476606
vn 0.825505 0.302304 0.476606
vn 0.000000 0.302304 0.953211
vn 0.000000 0.302304 0.953211
vn 0.000000 0.302304 0.953211
vn 0.000000 0.302304 0.953211
vn 0.000000 0.000000 1.000000
vn 0.000000 0.000000 1.000000
vn 0.000000 0.000000 1.000000
vn 0.000000 0.000000 1.000000
vn -0.866026 0.000000 0.500000
vn -0.866026 0.000000 0.500000
vn -0.866026 0.000000 0.500000
vn -0.866026 0.000000 0.500000
vn -0.866025 0.000000 -0.500000
vn -0.866025 0.000000 -0.500000
vn -0.866025 0.000000 -0.500000
vn -0.866025 0.000000 -0.500000
vn 0.000000 0.000000 -1.000000
vn 0.000000 0.000000 -1.000000
vn 0.000000 0.000000 -1.000000
vn 0.000000 0.000000 -1.000000
vn 0.866026 0.000000 -0.500000
vn 0.866026 0.000000 -0.500000
vn 0.866026 0.000000 -0.500000
vn 0.866026 0.000000 -0.500000
vn 0.866025 0.000000 0.500000
vn 0.866025 0.000000 0.500000
vn 0.866025 0.000000 0.500000
vn 0.866025 0.000000 0.500000
s off
f 1/1/1 2/2/2 59/79/3 60/80/4
f 2/2/5 3/5/6 58/78/7 59/79/8
f 3/5/9 4/7/10 57/77/11 58/78/12
f 4/7/13 5/9/14 62/82/15 57/77/16
f 5/9/17 6/11/18 61/81/19 62/82/20
f 6/11/21 1/1/22 60/80/23 61/81/24
f 14/13/25 13/27/26 15/29/27
f 16/30/28 14/13/29 15/29/30
f 17/31/31 16/30/32 15/29/33
f 18/32/34 17/31/35 15/29/36
f 19/33/37 18/32/38 15/29/39
f 13/27/40 19/33/41 15/29/42
f 38/28/43 39/53/44 40/54/45
f 39/53/46 41/55/47 40/54/48
f 41/55/49 42/56/50 40/54/51
f 42/56/52 43/57/53 40/54/54
f 43/57/55 44/58/56 40/54/57
f 44/58/58 38/28/59 40/54/60
f 2/2/61 1/1/62 13/27/63 14/13/64
f 3/5/65 2/2/66 14/13/67 16/30/68
f 4/7/69 3/5/70 16/30/71 17/31/72
f 5/9/73 4/7/74 17/31/75 18/32/76
f 6/11/77 5/9/78 18/32/79 19/33/80
f 1/1/81 6/11/82 19/33/83 13/27/84
f 7/25/85 8/24/86 21/36/87 20/35/88
f 8/24/89 9/23/90 22/37/91 21/36/92
f 9/23/93 10/22/94 23/38/95 22/37/96
f 10/22/97 11/21/98 24/39/99 23/38/100
f 11/21/101 12/26/102 25/40/103 24/39/104
f 12/26/105 7/25/106 20/35/107 25/40/108
f 20/35/109 21/36/110 27/42/111 26/41/112
f 21/36/113 22/37/114 28/43/115 27/42/116
f 22/37/117 23/38/118 29/44/119 28/43/120
f 23/38/121 24/39/122 30/45/123 29/44/124
f 24/39/125 25/40/126 31/46/127 30/45/128
f 25/40/129 20/35/130 26/41/131 31/46/132
f 26/41/133 27/42/134 33/48/135 32/47/136
f 27/42/137 28/43/138 34/49/139 33/48/140
f 28/43/141 29/44/142 35/50/143 34/49/144
f 29/44/145 30/45/146 36/51/147 35/50/148
f 30/45/149 31/46/150 37/52/151 36/51/152
f 31/46/153 26/41/154 32/47/155 37/52/156
f 32/59/157 33/60/158 39/53/159 38/28/160
f 33/60/161 34/61/162 41/55/163 39/53/164
f 34/61/165 35/62/166 42/56/167 41/55/168
f 35/62/169 36/63/170 43/57/171 42/56/172
f 36/63/173 37/64/174 44/58/175 43/57/176
f 37/64/177 32/59/178 38/28/179 44/58/180
f 45/34/181 46/65/182 66/66/183 67/67/184
f 46/65/185 47/68/186 65/69/187 66/66/188
f 47/68/189 48/70/190 64/90/191 65/69/192
f 48/70/193 49/91/194 63/92/195 64/90/196
f 49/91/197 50/93/198 68/94/199 63/92/200
f 50/93/201 45/34/202 67/67/203 68/94/204
f 52/72/205 51/71/206 48/8/207 47/6/208
f 53/73/209 52/72/210 47/6/211 46/3/212
f 54/74/213 53/73/214 46/3/215 45/4/216
f 55/75/217 54/74/218 45/4/219 50/12/220
f 56/76/221 55/75/222 50/12/223 49/10/224
f 51/71/225 56/76/226 49/10/227 48/8/228
f 58/78/229 57/77/230 51/71/231 52/72/232
f 59/79/233 58/78/234 52/72/235 53/73/236
f 60/80/237 59/79/238 53/73/239 54/74/240
f 61/81/241 60/80/242 54/74/243 55/75/244
f 62/82/245 61/81/246 55/75/247 56/76/248
f 57/77/249 62/82/250 56/76/251 51/71/252
f 64/84/253 63/83/254 11/18/255 10/17/256
f 65/85/257 64/84/258 10/17/259 9/16/260
f 66/86/261 65/85/262 9/16/263 8/15/264
f 67/88/265 66/86/266 8/15/267 7/14/268
f 68/89/269 67/87/270 7/20/271 12/19/272
f 63/83/273 68/89/274 12/19/275 11/18/276
