# This file uses meters as units for non-parametric coordinates.

v 6.227012 6.227003 -27.475534
v 0.000000 8.806314 -27.475533
v -6.227012 6.227003 -27.475534
v -8.806316 -0.000001 -27.475533
v -6.227012 -6.227006 -27.475533
v 0.000000 -8.806316 -27.475533
v 6.227012 -6.227006 -27.475533
v 8.806316 -0.000001 -27.475533
v 5.207232 5.207227 10.000000
v 0.000000 7.364130 10.000001
v -5.207232 5.207227 10.000000
v -7.364131 0.000000 10.000000
v -5.207232 -5.207228 10.000000
v 0.000000 -7.364131 10.000000
v 5.207232 -5.207228 10.000000
v 7.364131 0.000000 10.000000
v 0.000000 -0.000001 -27.475533
v 10.719967 10.719959 10.000000
v 0.000000 15.160313 10.000000
v -10.719967 10.719959 10.000000
v -15.160313 0.000000 10.000000
v -10.719967 -10.719959 10.000000
v 0.000000 -15.160315 10.000000
v 10.719967 -10.719963 10.000000
v 15.160313 0.000000 10.000000
v 0.000000 0.000000 32.343262
vt 0.247243 0.310785
vt 0.247243 0.310785
vt 0.247243 0.310785
vt 0.247243 0.310785
vt 0.247243 0.310785
vt 0.247243 0.310785
vt 0.247243 0.310785
vt 0.247243 0.310785
vt 0.247243 0.310785
vt 0.247243 0.310785
vt 0.247243 0.310785
vt 0.247243 0.310785
vt 0.247243 0.310785
vt 0.247243 0.310785
vt 0.247243 0.310785
vt 0.247243 0.310785
vt 0.247243 0.310785
vt 0.247243 0.310785
vt 0.247243 0.310785
vt 0.247243 0.310785
vt 0.247243 0.310785
vt 0.247243 0.310785
vt 0.247243 0.310785
vt 0.247243 0.310785
vt 0.247243 0.310785
vt 0.247243 0.310785
vt 0.247243 0.310785
vt 0.247243 0.310785
vt 0.247243 0.310785
vt 0.247243 0.310785
vt 0.247243 0.310785
vt 0.247243 0.310785
vt 0.247243 0.310785
vt 0.247243 0.310785
vt 0.247243 0.310785
vt 0.247243 0.310785
vt 0.247243 0.310785
vt 0.247243 0.310785
vt 0.247243 0.310785
vt 0.247243 0.310785
vt 0.247243 0.310785
vt 0.247243 0.310785
vt 0.247243 0.310785
vt 0.247243 0.310785
vn 0.382441 0.923296 0.035532
vn 0.382441 0.923296 0.035532
vn 0.382441 0.923296 0.035532
vn 0.382441 0.923296 0.035532
vn -0.382441 0.923296 0.035532
vn -0.382441 0.923296 0.035532
vn -0.382441 0.923296 0.035532
vn -0.382441 0.923296 0.035532
vn -0.923296 0.382441 0.035532
vn -0.923296 0.382441 0.035532
vn -0.923296 0.382441 0.035532
vn -0.923296 0.382441 0.035532
vn -0.923297 -0.382441 0.035532
vn -0.923297 -0.382441 0.035532
vn -0.923296 -0.382441 0.035532
vn -0.923296 -0.382441 0.035532
vn -0.382441 -0.923296 0.035532
vn -0.382441 -0.923296 0.035532
vn -0.382441 -0.923296 0.035532
vn -0.382441 -0.923296 0.035532
vn 0.382441 -0.923296 0.035532
vn 0.382441 -0.923296 0.035532
vn 0.382441 -0.923296 0.035532
vn 0.382441 -0.923296 0.035532
vn 0.923297 -0.382441 0.035532
vn 0.923297 -0.382441 0.035532
vn 0.923296 -0.382441 0.035532
vn 0.923296 -0.382441 0.035532
vn 0.923296 0.382441 0.035532
vn 0.923296 0.382441 0.035532
vn 0.923296 0.382441 0.035532
vn 0.923296 0.382441 0.035532
vn 0.000000 0.000000 -1.000000
vn -0.000000 -0.000000 -1.000000
vn -0.000000 -0.000000 -1.000000
vn 0.000000 -0.000000 -1.000000
vn 0.000000 0.000000 -1.000000
vn -0.000000 -0.000000 -1.000000
vn 0.000000 -0.000000 -1.000000
vn 0.000000 -0.000000 -1.000000
vn -0.000000 -0.000000 -1.000000
vn -0.000000 0.000000 -1.000000
vn 0.000000 -0.000000 -1.000000
vn -0.000000 -0.000000 -1.000000
vn -0.000000 0.000000 -1.000000
vn -0.000000 0.000000 -1.000000
vn -0.000000 -0.000000 -1.000000
vn 0.000000 0.000000 -1.000000
vn -0.000000 0.000000 -1.000000
vn -0.000000 -0.000000 -1.000000
vn 0.000000 -0.000000 -1.000000
vn 0.000000 0.000000 -1.000000
vn -0.000000 -0.000000 -1.000000
vn -0.000000 -0.000000 -1.000000
vn 0.000000 -0.000000 -1.000000
vn -0.000000 -0.000000 -1.000000
vn 0.000000 -0.000000 -1.000000
vn 0.000000 -0.000000 -1.000000
vn 0.000000 -0.000000 -1.000000
vn 0.000000 -0.000000 -1.000000
vn 0.000000 -0.000000 -1.000000
vn 0.000000 -0.000000 -1.000000
vn 0.000000 -0.000000 -1.000000
vn 0.000000 -0.000000 -1.000000
vn 0.000000 0.000000 -1.000000
vn 0.000000 0.000000 -1.000000
vn 0.000000 0.000000 -1.000000
vn 0.000000 0.000000 -1.000000
vn 0.000000 0.000000 -1.000000
vn 0.000000 0.000000 -1.000000
vn 0.000000 0.000000 -1.000000
vn 0.000000 0.000000 -1.000000
vn 0.000000 0.000000 -1.000000
vn 0.000000 0.000000 -1.000000
vn 0.000000 0.000000 -1.000000
vn 0.000000 0.000000 -1.000000
vn 0.000000 0.000000 -1.000000
vn 0.000000 0.000000 -1.000000
vn 0.000000 0.000000 -1.000000
vn 0.000000 0.000000 -1.000000
vn 0.000000 0.000000 -1.000000
vn 0.000000 0.000000 -1.000000
vn 0.000000 0.000000 -1.000000
vn 0.000000 0.000000 -1.000000
vn 0.000000 0.000000 -1.000000
vn 0.000000 0.000000 -1.000000
vn 0.000000 0.000000 -1.000000
vn 0.000000 0.000000 -1.000000
vn 0.324242 0.782790 0.531137
vn 0.324242 0.782790 0.531137
vn 0.324242 0.782790 0.531137
vn -0.324242 0.782790 0.531137
vn -0.324242 0.782790 0.531137
vn -0.324242 0.782790 0.531137
vn -0.782790 0.324242 0.531137
vn -0.782790 0.324242 0.531138
vn -0.782790 0.324242 0.531137
vn -0.782790 -0.324242 0.531138
vn -0.782790 -0.324242 0.531137
vn -0.782790 -0.324242 0.531137
vn -0.324242 -0.782790 0.531137
vn -0.324242 -0.782790 0.531137
vn -0.324242 -0.782790 0.531137
vn 0.324242 -0.782790 0.531137
vn 0.324242 -0.782790 0.531137
vn 0.324242 -0.782790 0.531137
vn 0.782790 -0.324242 0.531137
vn 0.782790 -0.324242 0.531137
vn 0.782790 -0.324242 0.531137
vn 0.782790 0.324242 0.531138
vn 0.782790 0.324242 0.531137
vn 0.782790 0.324242 0.531137
s off
f 1/9/1 2/10/2 10/19/3 9/18/4
f 2/10/5 3/11/6 11/20/7 10/19/8
f 3/11/9 4/12/10 12/21/11 11/20/12
f 4/12/13 5/13/14 13/22/15 12/21/16
f 5/13/17 6/14/18 14/23/19 13/22/20
f 6/14/21 7/15/22 15/24/23 14/23/24
f 7/15/25 8/16/26 16/25/27 15/24/28
f 8/16/29 1/17/30 9/26/31 16/25/32
f 2/2/33 1/1/34 17/35/35
f 3/3/36 2/2/37 17/35/38
f 4/4/39 3/3/40 17/35/41
f 5/5/42 4/4/43 17/35/44
f 6/6/45 5/5/46 17/35/47
f 7/7/48 6/6/49 17/35/50
f 8/8/51 7/7/52 17/35/53
f 1/1/54 8/8/55 17/35/56
f 9/33/57 10/32/58 19/38/59 18/37/60
f 10/32/61 11/31/62 20/39/63 19/38/64
f 11/31/65 12/30/66 21/40/67 20/39/68
f 12/30/69 13/29/70 22/41/71 21/40/72
f 13/29/73 14/28/74 23/42/75 22/41/76
f 14/28/77 15/27/78 24/43/79 23/42/80
f 15/27/81 16/34/82 25/44/83 24/43/84
f 16/34/85 9/33/86 18/37/87 25/44/88
f 18/37/89 19/38/90 26/36/91
f 19/38/92 20/39/93 26/36/94
f 20/39/95 21/40/96 26/36/97
f 21/40/98 22/41/99 26/36/100
f 22/41/101 23/42/102 26/36/103
f 23/42/104 24/43/105 26/36/106
f 24/43/107 25/44/108 26/36/109
f 25/44/110 18/37/111 26/36/112
