# This file uses meters as units for non-parametric coordinates.

v -16.854477 27.061214 4.502946
v -6.583978 27.284679 3.968696
v 4.857750 25.757656 4.866026
v 17.188414 26.644611 -4.883806
v -17.292366 26.020412 -4.856873
v 4.579695 -18.243313 -5.187835
v -5.797044 -17.882421 5.026320
v -6.213722 -16.847935 -4.836119
v -16.665501 -27.071533 4.502946
v 4.195977 -17.790735 4.945374
v -11.719133 25.790405 5.699957
v -11.810912 26.073589 -5.701906
v 18.218309 -25.936375 0.030632
v 16.295013 -27.413122 4.458426
v -11.506501 -23.135204 5.701941
v 3.540993 -17.111912 -0.800322
v 17.154427 26.218777 4.875299
v 4.841956 26.286831 -4.859924
v -5.028152 -17.155989 0.006330
v -18.218311 -25.917608 0.027085
v -15.837594 -27.378027 -4.490319
v 18.175812 26.436806 0.081824
v 3.823395 26.239204 0.006330
v -5.219382 26.062698 0.067750
v -18.198742 25.975666 0.023230
v 12.020760 27.449303 4.951401
v 10.899467 26.468773 -5.674364
v -17.470360 1.589680 4.955178
v 17.198830 -25.564154 -4.826583
v -6.164778 26.326008 -4.873924
v 10.710640 -23.174173 5.693208
v 10.829771 -23.258190 -5.676308
v 9.102364 -27.449305 -4.831733
v -17.317776 -25.571156 -4.842795
v -11.530113 -23.239765 -5.682029
vt 0.247243 0.306986
vt 0.247243 0.306986
vt 0.247243 0.306986
vt 0.247243 0.306986
vt 0.247243 0.306986
vt 0.247243 0.306986
vt 0.247243 0.306986
vt 0.247243 0.306986
vt 0.247243 0.306986
vt 0.247243 0.306986
vt 0.247243 0.306986
vt 0.247243 0.306986
vt 0.247243 0.306986
vt 0.247243 0.306986
vt 0.247243 0.306986
vt 0.247243 0.306986
vt 0.247243 0.306986
vt 0.247243 0.306986
vt 0.247243 0.306986
vt 0.247243 0.306986
vt 0.247243 0.306986
vt 0.247243 0.306986
vt 0.247243 0.306986
vt 0.247243 0.306986
vt 0.247243 0.306986
vt 0.247243 0.306986
vt 0.247243 0.306986
vt 0.247243 0.306986
vt 0.247243 0.306986
vt 0.247243 0.306986
vt 0.247243 0.306986
vt 0.247243 0.306986
vt 0.247243 0.306986
vt 0.247243 0.306986
vt 0.247243 0.306986
vt 0.247243 0.306986
vt 0.247243 0.306986
vt 0.247243 0.306986
vt 0.247243 0.306986
vt 0.247243 0.306986
vt 0.247243 0.306986
vt 0.247243 0.306986
vt 0.247243 0.306986
vt 0.247243 0.306986
vt 0.247243 0.306986
vt 0.247243 0.306986
vt 0.247243 0.306986
vt 0.247243 0.306986
vt 0.247243 0.306986
vt 0.247243 0.306986
vt 0.247243 0.306986
vt 0.247243 0.306986
vt 0.247243 0.306986
vt 0.247243 0.306986
vt 0.247243 0.306986
vt 0.247243 0.306986
vt 0.247243 0.306986
vt 0.247243 0.306986
vt 0.247243 0.306986
vt 0.247243 0.306986
vt 0.247243 0.306986
vt 0.247243 0.306986
vt 0.247243 0.306986
vt 0.247243 0.306986
vt 0.247243 0.306986
vt 0.247243 0.306986
vt 0.247243 0.306986
vt 0.247243 0.306986
vt 0.247243 0.306986
vt 0.247243 0.306986
vt 0.247243 0.306986
vt 0.247243 0.306986
vt 0.247243 0.306986
vt 0.247243 0.306986
vn -0.048551 -0.229409 -0.972119
vn -0.048551 -0.229409 -0.972119
vn -0.048551 -0.229409 -0.972119
vn 0.051274 -0.217550 -0.974702
vn 0.051274 -0.217550 -0.974702
vn 0.051274 -0.217550 -0.974701
vn -0.001623 -0.281640 0.959519
vn -0.001623 -0.281640 0.959519
vn -0.001623 -0.281640 0.959519
vn -0.553550 -0.832510 -0.022587
vn -0.553550 -0.832510 -0.022587
vn -0.553550 -0.832510 -0.022587
vn -0.027301 0.993643 -0.109215
vn -0.027301 0.993643 -0.109215
vn -0.027301 0.993643 -0.109215
vn 0.559700 0.826293 -0.063049
vn 0.559700 0.826293 -0.063049
vn 0.559700 0.826293 -0.063049
vn -0.008818 0.999012 0.043561
vn -0.008818 0.999012 0.043561
vn -0.008818 0.999012 0.043561
vn 0.233482 0.971401 0.043200
vn 0.233482 0.971401 0.043200
vn 0.233482 0.971401 0.043200
vn -0.230117 0.971706 0.053243
vn -0.230117 0.971705 0.053243
vn -0.230117 0.971705 0.053243
vn 0.019890 0.726933 0.686420
vn 0.019890 0.726933 0.686420
vn 0.019890 0.726933 0.686420
vn 0.978675 -0.000030 -0.205416
vn 0.978675 -0.000030 -0.205416
vn 0.978675 -0.000030 -0.205416
vn -0.023773 0.067527 -0.997434
vn -0.023773 0.067527 -0.997434
vn -0.023773 0.067527 -0.997434
vn 0.000362 0.130903 -0.991395
vn 0.000362 0.130903 -0.991395
vn 0.000362 0.130903 -0.991395
vn -0.007931 0.989832 0.142022
vn -0.007931 0.989832 0.142022
vn -0.007931 0.989832 0.142022
vn 0.145139 -0.001031 -0.989411
vn 0.145139 -0.001031 -0.989411
vn 0.145139 -0.001031 -0.989411
vn -0.210847 -0.021341 0.977286
vn -0.210847 -0.021341 0.977286
vn -0.210847 -0.021341 0.977286
vn -0.983187 0.000357 -0.182603
vn -0.983187 0.000357 -0.182603
vn -0.983187 0.000357 -0.182603
vn 0.124728 -0.000136 -0.992191
vn 0.124728 -0.000136 -0.992191
vn 0.124728 -0.000136 -0.992191
vn 0.207966 -0.010935 0.978075
vn 0.207966 -0.010935 0.978075
vn 0.207966 -0.010935 0.978075
vn -0.111187 0.003500 0.993793
vn -0.111187 0.003500 0.993793
vn -0.111187 0.003500 0.993793
vn -0.972644 0.007438 -0.232182
vn -0.972644 0.007438 -0.232182
vn -0.972644 0.007438 -0.232182
vn -0.978758 0.010186 -0.204765
vn -0.978758 0.010186 -0.204765
vn -0.978758 0.010186 -0.204765
vn 0.366334 -0.918751 -0.147296
vn 0.366334 -0.918751 -0.147296
vn 0.366334 -0.918751 -0.147296
vn -0.993244 0.015303 0.115033
vn -0.993244 0.015303 0.115033
vn -0.993244 0.015303 0.115033
vn -0.978037 0.002493 0.208416
vn -0.978037 0.002493 0.208416
vn -0.978037 0.002493 0.208416
vn 0.018218 0.014178 0.999734
vn 0.018218 0.014178 0.999734
vn 0.018218 0.014178 0.999734
vn -0.015470 0.015050 0.999767
vn -0.015470 0.015050 0.999767
vn -0.015470 0.015050 0.999767
vn -0.071719 0.007767 -0.997395
vn -0.071719 0.007767 -0.997395
vn -0.071719 0.007767 -0.997395
vn -0.133259 0.000226 -0.991081
vn -0.133259 0.000226 -0.991081
vn -0.133259 0.000226 -0.991081
vn 0.131866 -0.001060 -0.991267
vn 0.131866 -0.001060 -0.991267
vn 0.131866 -0.001060 -0.991267
vn -0.959285 0.028184 0.281031
vn -0.959285 0.028184 0.281031
vn -0.959285 0.028184 0.281031
vn -0.946784 -0.031641 0.320310
vn -0.946784 -0.031641 0.320310
vn -0.946784 -0.031641 0.320310
vn -0.988993 0.000384 0.147959
vn -0.988993 0.000384 0.147959
vn -0.988993 0.000384 0.147959
vn -0.983334 0.000435 -0.181807
vn -0.983334 0.000435 -0.181807
vn -0.983334 0.000435 -0.181807
vn 0.312109 0.027674 0.949643
vn 0.312109 0.027674 0.949643
vn 0.312109 0.027674 0.949643
vn -0.221626 0.022667 0.974868
vn -0.221626 0.022667 0.974868
vn -0.221626 0.022667 0.974868
vn 0.117016 0.000549 0.993130
vn 0.117016 0.000549 0.993130
vn 0.117016 0.000549 0.993130
vn -0.126321 -0.000509 0.991989
vn -0.126321 -0.000509 0.991989
vn -0.126321 -0.000509 0.991989
vn 0.156559 0.000493 -0.987669
vn 0.156559 0.000493 -0.987669
vn 0.156559 0.000493 -0.987669
vn -0.152360 -0.000195 -0.988325
vn -0.152360 -0.000195 -0.988325
vn -0.152360 -0.000195 -0.988325
vn -0.143024 -0.001213 -0.989718
vn -0.143024 -0.001213 -0.989718
vn -0.143024 -0.001213 -0.989718
vn -0.029072 0.966228 -0.256042
vn -0.029072 0.966228 -0.256042
vn -0.029072 0.966228 -0.256042
vn 0.005874 0.993154 0.116667
vn 0.005874 0.993154 0.116667
vn 0.005874 0.993154 0.116667
vn -0.013958 -0.263258 -0.964624
vn -0.013958 -0.263258 -0.964624
vn -0.013958 -0.263258 -0.964624
vn 0.000088 -0.197579 -0.980287
vn 0.000088 -0.197579 -0.980287
vn 0.000088 -0.197579 -0.980287
vn 0.980805 0.000986 -0.194988
vn 0.980805 0.000986 -0.194988
vn 0.980805 0.000986 -0.194988
vn 0.919218 -0.017787 0.393347
vn 0.919218 -0.017787 0.393347
vn 0.919218 -0.017787 0.393347
vn 0.978038 0.000590 0.208425
vn 0.978038 0.000590 0.208425
vn 0.978038 0.000590 0.208425
vn 0.206672 0.976983 0.052821
vn 0.206672 0.976983 0.052821
vn 0.206672 0.976983 0.052821
vn 0.971293 -0.001309 -0.237883
vn 0.971293 -0.001309 -0.237883
vn 0.971293 -0.001309 -0.237883
vn 0.988374 0.004157 0.151987
vn 0.988374 0.004157 0.151987
vn 0.988374 0.004157 0.151987
vn 0.982222 0.004613 -0.187664
vn 0.982222 0.004613 -0.187664
vn 0.982222 0.004613 -0.187664
vn 0.945965 0.024053 0.323375
vn 0.945965 0.024053 0.323375
vn 0.945965 0.024053 0.323375
vn -0.458368 0.885420 -0.077014
vn -0.458368 0.885420 -0.077014
vn -0.458368 0.885420 -0.077014
vn -0.027446 0.992922 -0.115553
vn -0.027446 0.992922 -0.115553
vn -0.027446 0.992922 -0.115553
vn -0.016510 0.995792 -0.090148
vn -0.016510 0.995792 -0.090148
vn -0.016510 0.995792 -0.090148
vn -0.041652 0.995298 -0.087449
vn -0.041652 0.995298 -0.087449
vn -0.041652 0.995298 -0.087449
vn 0.129157 0.991126 0.031429
vn 0.129157 0.991126 0.031429
vn 0.129157 0.991126 0.031429
vn 0.223596 -0.959853 -0.169375
vn 0.223596 -0.959853 -0.169375
vn 0.223596 -0.959853 -0.169375
vn -0.002775 -0.999978 0.006043
vn -0.002775 -0.999978 0.006043
vn -0.002775 -0.999978 0.006043
vn -0.010313 -0.999399 0.033110
vn -0.010313 -0.999399 0.033110
vn -0.010313 -0.999399 0.033110
vn -0.027456 0.993659 -0.109029
vn -0.027456 0.993659 -0.109029
vn -0.027456 0.993659 -0.109029
vn -0.742670 -0.644123 -0.183159
vn -0.742670 -0.644123 -0.183159
vn -0.742670 -0.644123 -0.183159
vn 0.006939 0.120144 0.992732
vn 0.006939 0.120144 0.992732
vn 0.006939 0.120144 0.992732
vn 0.000632 0.138343 0.990384
vn 0.000632 0.138343 0.990384
vn 0.000632 0.138343 0.990384
vn -0.000135 -0.291219 0.956657
vn -0.000135 -0.291219 0.956657
vn -0.000135 -0.291219 0.956657
s off
f 21/1/1 34/2/2 35/3/3
f 29/4/4 33/5/5 32/6/6
f 14/7/7 31/8/8 9/9/9
f 9/10/10 20/11/11 21/12/12
f 1/13/13 2/14/14 5/15/15
f 2/16/16 24/17/17 30/18/18
f 17/19/19 22/20/20 4/21/21
f 17/22/22 4/23/23 26/24/24
f 3/25/25 26/24/26 18/26/27
f 1/27/28 11/28/29 2/29/30
f 4/21/31 13/30/32 29/31/33
f 6/32/34 32/6/35 8/33/36
f 8/33/37 32/6/38 35/3/39
f 7/34/40 10/35/41 19/36/42
f 8/33/43 12/37/44 30/38/45
f 9/9/46 15/39/47 28/40/48
f 5/41/49 20/11/50 25/42/51
f 4/43/52 32/6/53 27/44/54
f 14/7/55 17/45/56 31/8/57
f 10/46/58 31/8/59 3/47/60
f 6/48/61 16/49/62 18/50/63
f 18/50/64 16/49/65 23/51/66
f 29/31/67 13/30/68 14/52/69
f 3/53/70 16/49/71 10/54/72
f 23/51/73 16/49/74 3/53/75
f 26/55/76 31/8/77 17/45/78
f 3/47/79 31/8/80 26/55/81
f 18/56/82 32/6/83 6/32/84
f 27/44/85 32/6/86 18/56/87
f 29/4/88 32/6/89 4/43/90
f 25/42/91 28/57/92 1/58/93
f 28/57/94 20/11/95 9/10/96
f 25/42/97 20/11/98 28/57/99
f 34/59/100 20/11/101 5/41/102
f 2/29/103 11/28/104 7/60/105
f 28/40/106 11/28/107 1/27/108
f 11/28/109 15/39/110 7/60/111
f 28/40/112 15/39/113 11/28/114
f 35/3/115 12/37/116 8/33/117
f 12/37/118 34/2/119 5/61/120
f 35/3/121 34/2/122 12/37/123
f 19/36/124 16/62/125 6/63/126
f 19/36/127 10/35/128 16/62/129
f 35/3/130 33/5/131 21/1/132
f 35/3/133 32/6/134 33/5/135
f 22/20/136 13/30/137 4/21/138
f 13/30/139 17/19/140 14/52/141
f 22/20/142 17/19/143 13/30/144
f 18/50/145 23/51/146 3/53/147
f 30/18/148 19/64/149 8/65/150
f 19/64/151 24/17/152 7/66/153
f 30/18/154 24/17/155 19/64/156
f 24/17/157 2/16/158 7/66/159
f 5/41/160 25/42/161 1/58/162
f 30/38/163 12/37/164 5/61/165
f 27/67/166 26/24/167 4/23/168
f 18/26/169 26/24/170 27/67/171
f 8/68/172 19/36/173 6/63/174
f 14/69/175 33/70/176 29/71/177
f 14/69/178 21/72/179 33/70/180
f 9/73/181 21/72/182 14/69/183
f 30/74/184 5/15/185 2/14/186
f 21/12/187 20/11/188 34/59/189
f 15/39/190 10/46/191 7/60/192
f 15/39/193 31/8/194 10/46/195
f 9/9/196 31/8/197 15/39/198
