# This file uses meters as units for non-parametric coordinates.

v -4.285126 -26.970921 4.481965
v 5.606899 -27.146091 -4.466781
v 18.565397 27.145081 -3.977050
v -18.564625 27.115784 -3.977050
v 17.239962 21.539745 -5.208816
v 18.744011 26.030350 4.852525
v -0.805693 -6.683903 -4.847681
v 6.941652 -23.636339 -4.866296
v 0.336580 -10.565510 5.277898
v 12.692642 25.788898 5.695496
v 12.782774 25.735607 -5.696412
v -12.417000 25.653915 5.697665
v -12.512024 25.603409 -5.697669
v 19.667149 25.750599 -0.082741
v -5.492449 25.654240 -0.011137
v -6.648035 -24.796160 -0.034981
v 7.367926 -25.207098 -0.039099
v 6.917887 25.312462 -4.865419
v 0.345564 -8.188152 0.795516
v -6.095667 -23.937740 4.832535
v -6.485186 25.610294 4.864731
v -13.005457 2.492561 -4.911308
v 5.993757 25.690098 -0.011064
v -19.667149 25.595741 -0.081976
v -18.715370 25.899906 4.851759
v 8.305941 27.146091 4.481965
v 6.793680 -24.357889 4.816133
v 3.228550 -19.832211 5.670244
v 1.610947 -5.701694 -4.847452
v 3.168173 -19.742182 -5.691184
v -4.963713 -26.603470 -4.511300
v -7.181988 26.921062 -4.511300
v -2.398767 -19.740086 -5.691948
vt 0.247243 0.306986
vt 0.247243 0.306986
vt 0.247243 0.306986
vt 0.247243 0.306986
vt 0.247243 0.306986
vt 0.247243 0.306986
vt 0.247243 0.306986
vt 0.247243 0.306986
vt 0.247243 0.306986
vt 0.247243 0.306986
vt 0.247243 0.306986
vt 0.247243 0.306986
vt 0.247243 0.306986
vt 0.247243 0.306986
vt 0.247243 0.306986
vt 0.247243 0.306986
vt 0.247243 0.306986
vt 0.247243 0.306986
vt 0.247243 0.306986
vt 0.247243 0.306986
vt 0.247243 0.306986
vt 0.247243 0.306986
vt 0.247243 0.306986
vt 0.247243 0.306986
vt 0.247243 0.306986
vt 0.247243 0.306986
vt 0.247243 0.306986
vt 0.247243 0.306986
vt 0.247243 0.306986
vt 0.247243 0.306986
vt 0.247243 0.306986
vt 0.247243 0.306986
vt 0.247243 0.306986
vt 0.247243 0.306986
vt 0.247243 0.306986
vt 0.247243 0.306986
vt 0.247243 0.306986
vt 0.247243 0.306986
vt 0.247243 0.306986
vt 0.247243 0.306986
vt 0.247243 0.306986
vt 0.247243 0.306986
vt 0.247243 0.306986
vt 0.247243 0.306986
vt 0.247243 0.306986
vt 0.247243 0.306986
vt 0.247243 0.306986
vt 0.247243 0.306986
vt 0.247243 0.306986
vt 0.247243 0.306986
vt 0.247243 0.306986
vt 0.247243 0.306986
vt 0.247243 0.306986
vt 0.247243 0.306986
vt 0.247243 0.306986
vt 0.247243 0.306986
vt 0.247243 0.306986
vt 0.247243 0.306986
vt 0.247243 0.306986
vt 0.247243 0.306986
vt 0.247243 0.306986
vt 0.247243 0.306986
vt 0.247243 0.306986
vt 0.247243 0.306986
vt 0.247243 0.306986
vt 0.247243 0.306986
vt 0.247243 0.306986
vt 0.247243 0.306986
vn -0.004292 -0.164531 -0.986363
vn -0.004292 -0.164531 -0.986363
vn -0.004292 -0.164531 -0.986363
vn 0.071727 -0.139695 -0.987593
vn 0.071727 -0.139695 -0.987593
vn 0.071727 -0.139695 -0.987593
vn 0.023358 0.990335 0.136713
vn 0.023358 0.990335 0.136713
vn 0.023358 0.990335 0.136713
vn 0.977513 0.185478 0.100333
vn 0.977513 0.185478 0.100333
vn 0.977513 0.185478 0.100333
vn 0.965125 0.171210 0.198044
vn 0.965125 0.171210 0.198044
vn 0.965125 0.171210 0.198044
vn -0.051075 -0.998012 -0.036923
vn -0.051075 -0.998012 -0.036923
vn -0.051075 -0.998012 -0.036923
vn -0.358243 0.881355 0.308018
vn -0.358243 0.881355 0.308018
vn -0.358243 0.881355 0.308018
vn -0.972181 0.207729 0.108227
vn -0.972181 0.207729 0.108227
vn -0.972181 0.207729 0.108227
vn 0.101180 0.987285 0.122598
vn 0.101180 0.987285 0.122598
vn 0.101180 0.987285 0.122598
vn 0.247536 0.151750 -0.956921
vn 0.247536 0.151750 -0.956921
vn 0.247536 0.151750 -0.956921
vn -0.685873 0.722408 0.087777
vn -0.685873 0.722408 0.087777
vn -0.685873 0.722408 0.087777
vn -0.326757 0.935421 -0.134975
vn -0.326757 0.935420 -0.134975
vn -0.326757 0.935420 -0.134975
vn 0.959510 -0.231726 -0.160134
vn 0.959510 -0.231726 -0.160134
vn 0.959510 -0.231726 -0.160134
vn -0.235821 -0.078494 -0.968621
vn -0.235821 -0.078494 -0.968621
vn -0.235821 -0.078494 -0.968621
vn 0.205502 0.048777 -0.977440
vn 0.205502 0.048777 -0.977440
vn 0.205502 0.048777 -0.977440
vn -0.933443 -0.261369 -0.245703
vn -0.933443 -0.261369 -0.245703
vn -0.933443 -0.261369 -0.245703
vn 0.168028 -0.045770 -0.984719
vn 0.168028 -0.045770 -0.984719
vn 0.168028 -0.045770 -0.984719
vn -0.245116 0.072204 0.966801
vn -0.245116 0.072204 0.966801
vn -0.245116 0.072204 0.966801
vn 0.444477 -0.871998 0.205087
vn 0.444477 -0.871998 0.205087
vn 0.444477 -0.871998 0.205087
vn 0.908036 -0.368086 -0.199960
vn 0.908036 -0.368086 -0.199960
vn 0.908036 -0.368086 -0.199959
vn -0.082269 0.016515 0.996473
vn -0.082269 0.016515 0.996473
vn -0.082269 0.016515 0.996473
vn 0.139212 -0.033731 0.989688
vn 0.139212 -0.033731 0.989688
vn 0.139212 -0.033731 0.989688
vn 0.185645 -0.039055 0.981841
vn 0.185645 -0.039055 0.981840
vn 0.185645 -0.039055 0.981840
vn -0.141926 0.023712 -0.989593
vn -0.141926 0.023712 -0.989593
vn -0.141926 0.023712 -0.989593
vn -0.183480 0.038677 -0.982262
vn -0.183480 0.038677 -0.982262
vn -0.183480 0.038677 -0.982262
vn 0.090754 -0.019301 -0.995686
vn 0.090754 -0.019301 -0.995686
vn 0.090754 -0.019301 -0.995686
vn -0.921094 -0.195173 -0.336887
vn -0.921094 -0.195173 -0.336887
vn -0.921094 -0.195173 -0.336887
vn -0.949048 -0.245009 0.198188
vn -0.949048 -0.245009 0.198188
vn -0.949048 -0.245009 0.198188
vn -0.959052 -0.247906 -0.136975
vn -0.959052 -0.247906 -0.136975
vn -0.959052 -0.247906 -0.136975
vn -0.958196 -0.242689 0.151536
vn -0.958196 -0.242689 0.151536
vn -0.958196 -0.242689 0.151536
vn 0.139227 0.037556 0.989548
vn 0.139227 0.037556 0.989548
vn 0.139227 0.037556 0.989548
vn -0.134351 -0.034402 0.990336
vn -0.134351 -0.034402 0.990336
vn -0.134351 -0.034402 0.990336
vn -0.026050 -0.020756 0.999445
vn -0.026050 -0.020756 0.999445
vn -0.026050 -0.020756 0.999445
vn 0.184389 0.041002 -0.981998
vn 0.184389 0.041002 -0.981998
vn 0.184389 0.041002 -0.981998
vn -0.279510 -0.026689 -0.959772
vn -0.279510 -0.026689 -0.959772
vn -0.279510 -0.026689 -0.959772
vn -0.137332 -0.030755 -0.990048
vn -0.137332 -0.030755 -0.990048
vn -0.137332 -0.030755 -0.990048
vn 0.954976 -0.226625 0.191474
vn 0.954976 -0.226625 0.191474
vn 0.954976 -0.226625 0.191474
vn 0.960501 -0.231696 0.154127
vn 0.960501 -0.231696 0.154127
vn 0.960501 -0.231696 0.154127
vn 0.939112 -0.216105 -0.267147
vn 0.939112 -0.216105 -0.267147
vn 0.939112 -0.216105 -0.267147
vn 0.058925 0.764465 0.641966
vn 0.058925 0.764465 0.641966
vn 0.058925 0.764465 0.641966
vn 0.023396 0.993135 0.114607
vn 0.023396 0.993135 0.114607
vn 0.023396 0.993135 0.114607
vn -0.020646 0.713805 -0.700040
vn -0.020646 0.713805 -0.700040
vn -0.020646 0.713805 -0.700040
vn -0.095865 0.979371 -0.177883
vn -0.095865 0.979371 -0.177883
vn -0.095865 0.979371 -0.177883
vn -0.172408 0.962551 -0.209218
vn -0.172408 0.962551 -0.209218
vn -0.172408 0.962550 -0.209218
vn 0.935671 -0.151181 -0.318849
vn 0.935671 -0.151181 -0.318849
vn 0.935671 -0.151181 -0.318849
vn 0.659531 0.747300 0.081004
vn 0.659531 0.747300 0.081004
vn 0.659530 0.747300 0.081004
vn -0.966410 0.165252 -0.196832
vn -0.966410 0.165252 -0.196832
vn -0.966410 0.165252 -0.196832
vn -0.975985 0.159176 -0.148718
vn -0.975985 0.159176 -0.148718
vn -0.975985 0.159176 -0.148718
vn -0.897864 0.159463 0.410380
vn -0.897864 0.159463 0.410380
vn -0.897864 0.159463 0.410380
vn 0.214616 -0.942636 0.255691
vn 0.214616 -0.942636 0.255691
vn 0.214616 -0.942636 0.255691
vn 0.971285 0.185782 -0.148628
vn 0.971285 0.185782 -0.148628
vn 0.971285 0.185782 -0.148628
vn 0.938477 0.154531 -0.308840
vn 0.938477 0.154531 -0.308840
vn 0.938477 0.154531 -0.308840
vn 0.423898 0.900774 0.094425
vn 0.423898 0.900774 0.094425
vn 0.423898 0.900774 0.094425
vn 0.023306 0.990327 0.136783
vn 0.023306 0.990327 0.136783
vn 0.023306 0.990327 0.136783
vn -0.701268 -0.712500 0.023802
vn -0.701268 -0.712500 0.023802
vn -0.701268 -0.712500 0.023802
vn -0.834016 -0.519359 0.186237
vn -0.834016 -0.519359 0.186237
vn -0.834016 -0.519359 0.186237
vn -0.002527 -0.116302 0.993211
vn -0.002527 -0.116302 0.993211
vn -0.002527 -0.116302 0.993211
vn -0.094940 0.012516 0.995404
vn -0.094940 0.012516 0.995404
vn -0.094940 0.012516 0.995404
vn -0.004917 -0.189189 0.981929
vn -0.004917 -0.189189 0.981929
vn -0.004917 -0.189189 0.981929
vn -0.023235 0.057400 -0.998081
vn -0.023235 0.057400 -0.998081
vn -0.023235 0.057400 -0.998081
vn 0.000162 0.064510 -0.997917
vn 0.000162 0.064510 -0.997917
vn 0.000162 0.064510 -0.997917
vn 0.000072 -0.169557 -0.985520
vn 0.000072 -0.169557 -0.985520
vn 0.000072 -0.169557 -0.985520
s off
f 2/1/1 31/2/2 30/3/3
f 2/1/4 30/3/5 8/4/6
f 4/5/7 21/6/8 32/7/9
f 9/8/10 19/9/11 21/10/12
f 21/10/13 19/9/14 15/11/15
f 2/12/16 1/13/17 31/14/18
f 7/15/19 19/16/20 29/17/21
f 9/18/22 26/19/23 19/16/24
f 6/20/25 3/21/26 26/22/27
f 5/23/28 11/24/29 3/25/30
f 4/26/31 24/27/32 25/28/33
f 18/29/34 23/30/35 26/19/36
f 8/31/37 14/32/38 17/33/39
f 31/2/40 22/34/41 33/35/42
f 7/36/43 13/37/44 32/38/45
f 31/39/46 16/40/47 22/41/48
f 8/4/49 30/3/50 5/23/51
f 9/42/52 10/43/53 26/44/54
f 2/45/55 17/33/56 27/46/57
f 8/31/58 17/33/59 2/45/60
f 28/47/61 10/43/62 9/42/63
f 10/43/64 27/48/65 6/49/66
f 28/47/67 27/48/68 10/43/69
f 18/50/70 11/24/71 29/51/72
f 11/24/73 30/3/74 29/51/75
f 5/23/76 30/3/77 11/24/78
f 22/41/79 24/27/80 4/26/81
f 24/27/82 16/40/83 25/28/84
f 22/41/85 16/40/86 24/27/87
f 16/40/88 20/52/89 25/28/90
f 21/53/91 12/54/92 9/42/93
f 20/55/94 12/54/95 25/56/96
f 12/54/97 20/55/98 9/42/99
f 33/35/100 13/37/101 7/36/102
f 13/37/103 22/34/104 4/57/105
f 33/35/106 22/34/107 13/37/108
f 27/46/109 14/32/110 6/58/111
f 17/33/112 14/32/113 27/46/114
f 5/59/115 14/32/116 8/31/117
f 26/44/118 10/43/119 6/49/120
f 25/56/121 12/54/122 21/53/123
f 32/38/124 13/37/125 4/57/126
f 26/22/127 11/60/128 18/61/129
f 26/22/130 3/21/131 11/60/132
f 3/62/133 14/32/134 5/59/135
f 3/62/136 6/58/137 14/32/138
f 23/30/139 18/29/140 29/17/141
f 19/16/142 23/30/143 29/17/144
f 19/16/145 26/19/146 23/30/147
f 2/12/148 27/63/149 1/13/150
f 32/64/151 19/9/152 7/65/153
f 15/11/154 19/9/155 32/64/156
f 21/10/157 15/11/158 32/64/159
f 25/66/160 21/6/161 4/5/162
f 1/67/163 16/40/164 31/39/165
f 1/67/166 20/52/167 16/40/168
f 27/48/169 20/55/170 1/68/171
f 20/55/172 28/47/173 9/42/174
f 27/48/175 28/47/176 20/55/177
f 29/51/178 30/3/179 7/36/180
f 30/3/181 33/35/182 7/36/183
f 30/3/184 31/2/185 33/35/186
