# This file uses meters as units for non-parametric coordinates.

v 0.000000 28.950047 3.374672
v -3.950111 26.914656 3.374672
v 3.950111 26.914656 3.374672
v 3.950111 26.914656 -3.373795
v -3.950111 26.914656 -3.373795
v 0.000000 28.950047 -3.373795
v -32.622452 -27.483580 3.374672
v -29.377796 -28.950045 3.374672
v -32.146969 -23.065975 3.374672
v -32.622452 -27.483580 -3.373795
v -32.146969 -23.065975 -3.373795
v -29.377796 -28.950045 -3.373795
v 32.622452 -27.483580 3.374672
v 32.146969 -23.065975 3.374672
v 29.377796 -28.950045 3.374672
v 32.622452 -27.483580 -3.373795
v 29.377796 -28.950045 -3.373795
v 32.146969 -23.065975 -3.373795
v 3.160971 20.994081 -3.373795
v -3.160971 20.994081 -3.373795
v 25.724758 -19.766230 -3.373795
v 23.508802 -24.564817 -3.373795
v -23.508802 -24.564817 -3.373795
v -25.724758 -19.766230 -3.373795
v 0.000000 22.653984 -3.373795
v -26.105253 -23.368883 -3.373795
v 26.105253 -23.368883 -3.373795
v -23.508802 -24.564817 3.374672
v -25.724758 -19.766230 3.374672
v 23.508802 -24.564817 3.374672
v 25.724758 -19.766230 3.374672
v 3.160971 20.994081 3.374672
v -3.160971 20.994081 3.374672
v 0.000000 22.653984 3.374672
v -26.105253 -23.368883 3.374672
v 26.105253 -23.368883 3.374672
v 3.160971 20.994081 -1.892204
v -3.160971 20.994081 -1.892204
v 25.724758 -19.766230 -1.892204
v 23.508802 -24.564817 -1.892204
v -23.508802 -24.564817 -1.892204
v -25.724758 -19.766230 -1.892204
v 0.000000 22.653984 -1.892204
v -26.105253 -23.368883 -1.892204
v 26.105253 -23.368883 -1.892204
v -23.508802 -24.564817 1.893082
v -25.724758 -19.766230 1.893082
v 23.508802 -24.564817 1.893082
v 25.724758 -19.766230 1.893082
v 3.160971 20.994081 1.893082
v -3.160971 20.994081 1.893082
v 0.000000 22.653984 1.893082
v -26.105253 -23.368883 1.893082
v 26.105253 -23.368883 1.893082
v 3.939140 16.043905 -4.111557
v -3.080764 -6.907083 4.130554
v 3.623330 16.906757 3.816566
v 4.581092 16.011021 0.022240
v 0.021820 16.068949 4.828186
v -3.587427 -6.861071 0.054741
v -4.581092 16.127260 -0.049744
v 0.020210 -6.949155 4.820900
v -0.625236 17.184172 -4.188805
v 3.055653 -6.830684 -4.139938
v 3.584574 -6.900524 -0.036011
v -0.045194 -6.829840 -4.828186
v -3.925093 16.181562 -4.127922
v -3.944480 16.276777 4.155426
v 3.077692 -6.881985 4.134369
v -3.091318 -6.823280 -4.117393
v 3.776141 -14.442282 -4.111557
v -3.767234 -21.188404 4.130554
v 3.473391 -13.387162 3.816566
v 4.391537 -14.482494 0.022240
v 0.020887 -14.411656 4.828186
v -4.386818 -21.132135 0.054741
v -4.391537 -14.340355 -0.049744
v 0.024728 -21.239849 4.820900
v -0.599374 -13.047931 -4.188805
v 3.736544 -21.094980 -4.139938
v 4.383307 -21.180382 -0.036011
v -0.055272 -21.093945 -4.828186
v -3.762680 -14.273952 -4.127922
v -3.781281 -14.157522 4.155426
v 3.763503 -21.157711 4.134369
v -3.780165 -21.085926 -4.117393
vt 0.080677 0.278897
vt 0.080677 0.278897
vt 0.080677 0.278897
vt 0.080677 0.278897
vt 0.080677 0.278897
vt 0.080677 0.278897
vt 0.080677 0.278897
vt 0.080677 0.278897
vt 0.080677 0.278897
vt 0.080677 0.278897
vt 0.080677 0.278897
vt 0.080677 0.278897
vt 0.080677 0.278897
vt 0.080677 0.278897
vt 0.080677 0.278897
vt 0.080677 0.278897
vt 0.080677 0.278897
vt 0.080677 0.278897
vt 0.080677 0.278897
vt 0.080677 0.278897
vt 0.080677 0.278897
vt 0.080677 0.278897
vt 0.080677 0.278897
vt 0.080677 0.278897
vt 0.080677 0.278897
vt 0.080677 0.278897
vt 0.080677 0.278897
vt 0.080677 0.278897
vt 0.080677 0.278897
vt 0.080677 0.278897
vt 0.079199 0.279636
vt 0.079199 0.279636
vt 0.079199 0.279636
vt 0.079199 0.279636
vt 0.079199 0.279636
vt 0.079199 0.279636
vt 0.079199 0.279636
vt 0.079199 0.279636
vt 0.079199 0.279636
vt 0.079199 0.279636
vt 0.079199 0.279636
vt 0.079199 0.279636
vt 0.079199 0.279636
vt 0.079199 0.279636
vt 0.079199 0.279636
vt 0.079199 0.279636
vt 0.079199 0.279636
vt 0.079199 0.279636
vt 0.080677 0.278897
vt 0.080677 0.278897
vt 0.080677 0.278897
vt 0.080677 0.278897
vt 0.080677 0.278897
vt 0.080677 0.278897
vt 0.247638 0.305099
vt 0.247638 0.305099
vt 0.247638 0.305099
vt 0.247638 0.305099
vt 0.247638 0.305099
vt 0.247638 0.305099
vt 0.247638 0.305099
vt 0.247638 0.305099
vt 0.247638 0.305099
vt 0.247638 0.305099
vt 0.247638 0.305099
vt 0.247638 0.305099
vt 0.247638 0.305099
vt 0.247638 0.305099
vt 0.247638 0.305099
vt 0.247638 0.305099
vt 0.247638 0.305099
vt 0.247638 0.305099
vt 0.079199 0.279636
vt 0.079199 0.279636
vt 0.079199 0.279636
vt 0.079199 0.279636
vt 0.079199 0.279636
vt 0.079199 0.279636
vt 0.079199 0.279636
vt 0.079199 0.279636
vt 0.079199 0.279636
vt 0.079199 0.279636
vt 0.079199 0.279636
vt 0.079199 0.279636
vt 0.079199 0.279636
vt 0.079199 0.279636
vt 0.079199 0.279636
vt 0.079199 0.279636
vt 0.079199 0.279636
vt 0.079199 0.279636
vt 0.081233 0.277356
vt 0.081233 0.277356
vt 0.081233 0.277356
vt 0.081233 0.277356
vt 0.081233 0.277356
vt 0.081233 0.277356
vt 0.081233 0.277356
vt 0.081233 0.277356
vt 0.081233 0.277356
vt 0.081233 0.277356
vt 0.081233 0.277356
vt 0.081233 0.277356
vt 0.081233 0.277356
vt 0.081233 0.277356
vt 0.081233 0.277356
vt 0.081233 0.277356
vt 0.081233 0.277356
vt 0.081233 0.277356
vt 0.081233 0.277356
vt 0.081233 0.277356
vt 0.081233 0.277356
vt 0.081233 0.277356
vt 0.081233 0.277356
vt 0.081233 0.277356
vt 0.081233 0.277356
vt 0.081233 0.277356
vt 0.081233 0.277356
vt 0.081233 0.277356
vt 0.081233 0.277356
vt 0.081233 0.277356
vt 0.081233 0.277356
vt 0.081233 0.277356
vt 0.081233 0.277356
vt 0.081233 0.277356
vt 0.081233 0.277356
vt 0.081233 0.277356
vt 0.081233 0.277356
vt 0.081233 0.277356
vt 0.081233 0.277356
vt 0.081233 0.277356
vt 0.081233 0.277356
vt 0.081233 0.277356
vt 0.081233 0.277356
vt 0.081233 0.277356
vt 0.081233 0.277356
vt 0.081233 0.277356
vt 0.081233 0.277356
vt 0.081233 0.277356
vt 0.081233 0.277356
vt 0.081233 0.277356
vt 0.081233 0.277356
vt 0.081233 0.277356
vt 0.081233 0.277356
vt 0.081233 0.277356
vt 0.081233 0.277356
vt 0.081233 0.277356
vt 0.081233 0.277356
vt 0.081233 0.277356
vt 0.081233 0.277356
vt 0.081233 0.277356
vt 0.081233 0.277356
vt 0.081233 0.277356
vt 0.081233 0.277356
vt 0.081233 0.277356
vt 0.081233 0.277356
vt 0.081233 0.277356
vn 0.000000 -1.000000 0.000000
vn 0.000000 -1.000000 0.000000
vn 0.000000 -1.000000 0.000000
vn 0.000000 -1.000000 0.000000
vn 0.870959 0.491356 0.000000
vn 0.870959 0.491356 0.000000
vn 0.870959 0.491356 0.000000
vn 0.870959 0.491356 0.000000
vn -0.870959 0.491356 0.000000
vn -0.870959 0.491356 0.000000
vn -0.870959 0.491356 0.000000
vn -0.870959 0.491356 0.000000
vn 0.000000 0.000000 -1.000000
vn 0.000000 0.000000 -1.000000
vn 0.000000 0.000000 -1.000000
vn 0.000000 0.000000 -1.000000
vn 0.000000 0.000000 -1.000000
vn 0.000000 0.000000 -1.000000
vn 0.000000 0.000000 1.000000
vn 0.000000 0.000000 1.000000
vn 0.000000 0.000000 1.000000
vn 0.000000 0.000000 1.000000
vn 0.000000 0.000000 1.000000
vn 0.000000 0.000000 1.000000
vn -0.458043 0.888930 0.000000
vn 0.000000 1.000000 0.000000
vn 0.000000 1.000000 0.000000
vn -0.458043 0.888930 0.000000
vn 0.000000 1.000000 0.000000
vn 0.458043 0.888930 0.000000
vn 0.458043 0.888930 0.000000
vn 0.000000 1.000000 0.000000
vn -0.411852 -0.911251 0.000000
vn -0.904807 -0.425822 0.000000
vn -0.904807 -0.425822 0.000000
vn -0.411852 -0.911251 0.000000
vn -0.904807 -0.425822 0.000000
vn -0.994257 0.107015 0.000000
vn -0.994257 0.107015 0.000000
vn -0.904807 -0.425822 0.000000
vn 0.994257 0.107015 0.000000
vn 0.904807 -0.425822 0.000000
vn 0.904807 -0.425822 0.000000
vn 0.994257 0.107015 0.000000
vn 0.904807 -0.425822 0.000000
vn 0.411852 -0.911251 0.000000
vn 0.411852 -0.911251 0.000000
vn 0.904807 -0.425822 0.000000
vn 0.000000 0.000000 1.000000
vn 0.000000 0.000000 1.000000
vn 0.000000 0.000000 1.000000
vn 0.000000 0.000000 -1.000000
vn 0.000000 0.000000 -1.000000
vn 0.000000 0.000000 -1.000000
vn 0.000000 0.000000 1.000000
vn 0.000000 0.000000 1.000000
vn 0.000000 0.000000 1.000000
vn 0.000000 0.000000 -1.000000
vn 0.000000 0.000000 -1.000000
vn 0.000000 0.000000 -1.000000
vn 0.000000 0.000000 1.000000
vn 0.000000 0.000000 1.000000
vn 0.000000 0.000000 1.000000
vn 0.000000 0.000000 -1.000000
vn 0.000000 0.000000 -1.000000
vn 0.000000 0.000000 -1.000000
vn 0.000000 0.000000 -1.000000
vn 0.000000 0.000000 -1.000000
vn 0.000000 0.000000 -1.000000
vn 0.000000 0.000000 -1.000000
vn 0.000000 0.000000 -1.000000
vn 0.000000 0.000000 -1.000000
vn 0.000000 0.000000 -1.000000
vn 0.000000 0.000000 -1.000000
vn -0.000000 0.000000 -1.000000
vn -0.000000 0.000000 -1.000000
vn -0.000000 0.000000 -1.000000
vn -0.000000 0.000000 -1.000000
vn 0.000000 0.000000 -1.000000
vn 0.000000 0.000000 -1.000000
vn 0.000000 0.000000 -1.000000
vn 0.000000 0.000000 -1.000000
vn 0.000000 0.000000 -1.000000
vn 0.000000 0.000000 -1.000000
vn 0.000000 0.000000 -1.000000
vn 0.000000 0.000000 -1.000000
vn 0.000000 0.000000 -1.000000
vn 0.000000 0.000000 -1.000000
vn 0.000000 0.000000 -1.000000
vn 0.000000 0.000000 -1.000000
vn 0.000000 0.000000 -1.000000
vn 0.000000 0.000000 -1.000000
vn 0.000000 0.000000 -1.000000
vn 0.000000 0.000000 -1.000000
vn 0.000000 0.000000 -1.000000
vn 0.000000 0.000000 -1.000000
vn 0.000000 0.000000 -1.000000
vn 0.000000 0.000000 -1.000000
vn 0.000000 0.000000 -1.000000
vn 0.000000 0.000000 -1.000000
vn 0.000000 0.000000 -1.000000
vn 0.000000 0.000000 -1.000000
vn 0.000000 0.000000 1.000000
vn 0.000000 0.000000 1.000000
vn 0.000000 0.000000 1.000000
vn 0.000000 0.000000 1.000000
vn 0.000000 0.000000 1.000000
vn 0.000000 0.000000 1.000000
vn 0.000000 0.000000 1.000000
vn 0.000000 0.000000 1.000000
vn 0.000000 0.000000 1.000000
vn 0.000000 0.000000 1.000000
vn 0.000000 0.000000 1.000000
vn 0.000000 0.000000 1.000000
vn 0.000000 0.000000 1.000000
vn 0.000000 0.000000 1.000000
vn 0.000000 0.000000 1.000000
vn 0.000000 0.000000 1.000000
vn 0.000000 0.000000 1.000000
vn 0.000000 0.000000 1.000000
vn 0.000000 0.000000 1.000000
vn 0.000000 0.000000 1.000000
vn 0.000000 0.000000 1.000000
vn 0.000000 0.000000 1.000000
vn 0.000000 0.000000 1.000000
vn 0.000000 0.000000 1.000000
vn 0.000000 0.000000 1.000000
vn 0.000000 0.000000 1.000000
vn 0.000000 0.000000 1.000000
vn 0.000000 0.000000 1.000000
vn -0.000000 0.000000 1.000000
vn -0.000000 0.000000 1.000000
vn -0.000000 0.000000 1.000000
vn -0.000000 0.000000 1.000000
vn 0.000000 0.000000 1.000000
vn 0.000000 0.000000 1.000000
vn 0.000000 0.000000 1.000000
vn 0.000000 0.000000 1.000000
vn -0.874893 -0.484317 0.000000
vn -0.874893 -0.484317 0.000000
vn -0.874893 -0.484317 0.000000
vn -0.874893 -0.484317 0.000000
vn 0.000000 1.000000 0.000000
vn 0.000000 1.000000 0.000000
vn 0.000000 1.000000 0.000000
vn 0.000000 1.000000 0.000000
vn 0.874893 -0.484317 0.000000
vn 0.874893 -0.484317 0.000000
vn 0.874893 -0.484317 0.000000
vn 0.874893 -0.484317 0.000000
vn 0.464920 -0.885353 0.000000
vn 0.464920 -0.885353 0.000000
vn 0.464920 -0.885353 0.000000
vn 0.464920 -0.885353 0.000000
vn -0.464920 -0.885353 0.000000
vn -0.464920 -0.885353 0.000000
vn -0.464920 -0.885353 0.000000
vn -0.464920 -0.885353 0.000000
vn 0.994469 -0.105031 0.000000
vn 0.994469 -0.105031 0.000000
vn 0.994469 -0.105031 0.000000
vn 0.994469 -0.105031 0.000000
vn 0.418358 0.908282 0.000000
vn 0.418358 0.908282 0.000000
vn 0.418358 0.908282 0.000000
vn 0.418358 0.908282 0.000000
vn -0.418358 0.908282 0.000000
vn -0.418358 0.908282 0.000000
vn -0.418358 0.908282 0.000000
vn -0.418358 0.908282 0.000000
vn -0.994469 -0.105031 0.000000
vn -0.994469 -0.105031 0.000000
vn -0.994469 -0.105031 0.000000
vn -0.994469 -0.105031 0.000000
vn 0.000000 1.000000 0.000000
vn 0.000000 1.000000 0.000000
vn 0.000000 1.000000 0.000000
vn 0.000000 1.000000 0.000000
vn -0.874893 -0.484317 0.000000
vn -0.874893 -0.484317 0.000000
vn -0.874893 -0.484317 0.000000
vn -0.874893 -0.484317 0.000000
vn 0.874893 -0.484317 0.000000
vn 0.874893 -0.484317 0.000000
vn 0.874893 -0.484317 0.000000
vn 0.874893 -0.484317 0.000000
vn 0.464920 -0.885353 0.000000
vn 0.464920 -0.885353 0.000000
vn 0.464920 -0.885353 0.000000
vn 0.464920 -0.885353 0.000000
vn -0.464920 -0.885353 0.000000
vn -0.464920 -0.885353 0.000000
vn -0.464920 -0.885353 0.000000
vn -0.464920 -0.885353 0.000000
vn 0.418358 0.908282 0.000000
vn 0.418358 0.908282 0.000000
vn 0.418358 0.908282 0.000000
vn 0.418358 0.908282 0.000000
vn 0.994469 -0.105031 0.000000
vn 0.994469 -0.105031 0.000000
vn 0.994469 -0.105031 0.000000
vn 0.994469 -0.105031 0.000000
vn -0.994469 -0.105031 0.000000
vn -0.994469 -0.105031 0.000000
vn -0.994469 -0.105031 0.000000
vn -0.994469 -0.105031 0.000000
vn -0.418358 0.908282 0.000000
vn -0.418358 0.908282 0.000000
vn -0.418358 0.908282 0.000000
vn -0.418358 0.908282 0.000000
vn -0.085393 -0.996330 -0.005950
vn -0.085393 -0.996330 -0.005950
vn -0.085393 -0.996330 -0.005950
vn -0.992022 -0.043418 -0.118355
vn -0.992022 -0.043418 -0.118355
vn -0.992022 -0.043418 -0.118355
vn 0.023703 0.027181 -0.999350
vn 0.023703 0.027181 -0.999349
vn 0.023703 0.027181 -0.999350
vn -0.167598 -0.007301 0.985828
vn -0.167598 -0.007301 0.985828
vn -0.167598 -0.007301 0.985828
vn 0.512206 0.855777 -0.072735
vn 0.512206 0.855777 -0.072735
vn 0.512206 0.855777 -0.072735
vn -0.046358 0.844161 0.534081
vn -0.046358 0.844161 0.534081
vn -0.046358 0.844161 0.534081
vn 0.987398 -0.037946 -0.153639
vn 0.987398 -0.037946 -0.153639
vn 0.987398 -0.037946 -0.153639
vn 0.968348 -0.018886 0.248888
vn 0.968348 -0.018886 0.248888
vn 0.968348 -0.018886 0.248888
vn 0.990797 -0.042767 -0.128423
vn 0.990797 -0.042767 -0.128423
vn 0.990797 -0.042767 -0.128423
vn 0.991734 -0.043442 0.120732
vn 0.991734 -0.043442 0.120732
vn 0.991734 -0.043442 0.120732
vn -0.217306 -0.000294 0.976103
vn -0.217306 -0.000294 0.976103
vn -0.217306 -0.000294 0.976103
vn 0.268972 0.006697 0.963125
vn 0.268972 0.006697 0.963125
vn 0.268972 0.006697 0.963125
vn 0.219093 -0.000324 0.975704
vn 0.219093 -0.000324 0.975704
vn 0.219093 -0.000324 0.975704
vn -0.227248 -0.008682 -0.973798
vn -0.227248 -0.008682 -0.973798
vn -0.227248 -0.008682 -0.973798
vn -0.026328 0.025971 -0.999316
vn -0.026328 0.025971 -0.999316
vn -0.026328 0.025971 -0.999316
vn 0.216674 -0.007157 -0.976218
vn 0.216674 -0.007157 -0.976218
vn 0.216674 -0.007157 -0.976218
vn -0.991731 -0.037079 0.122863
vn -0.991731 -0.037079 0.122863
vn -0.991731 -0.037079 0.122863
vn -0.987639 -0.042004 0.151010
vn -0.987639 -0.042004 0.151010
vn -0.987639 -0.042004 0.151010
vn -0.009173 -0.999906 -0.010148
vn -0.009173 -0.999906 -0.010148
vn -0.009173 -0.999906 -0.010148
vn -0.986600 -0.035831 -0.159177
vn -0.986600 -0.035831 -0.159177
vn -0.986600 -0.035831 -0.159177
vn -0.154622 0.987904 -0.011718
vn -0.154622 0.987904 -0.011718
vn -0.154622 0.987904 -0.011718
vn -0.290889 0.956685 -0.011677
vn -0.290889 0.956685 -0.011677
vn -0.290889 0.956686 -0.011677
vn -0.079311 0.993908 0.076534
vn -0.079311 0.993908 0.076534
vn -0.079311 0.993908 0.076534
vn 0.242784 0.965378 -0.095395
vn 0.242784 0.965378 -0.095395
vn 0.242784 0.965379 -0.095395
vn -0.001227 -0.999980 -0.006197
vn -0.001227 -0.999980 -0.006197
vn -0.001227 -0.999980 -0.006197
vn 0.004081 -0.999940 -0.010165
vn 0.004081 -0.999940 -0.010165
vn 0.004081 -0.999940 -0.010165
vn 0.004112 -0.996849 -0.079220
vn 0.004112 -0.996849 -0.079220
vn 0.004112 -0.996849 -0.079220
vn -0.001189 -0.999991 0.004132
vn -0.001189 -0.999991 0.004132
vn -0.001189 -0.999991 0.004132
vn -0.085395 -0.996321 -0.007275
vn -0.085395 -0.996321 -0.007275
vn -0.085395 -0.996321 -0.007275
vn -0.989585 -0.002902 -0.143924
vn -0.989585 -0.002902 -0.143924
vn -0.989585 -0.002902 -0.143924
vn 0.043734 0.082079 -0.995666
vn 0.043734 0.082079 -0.995666
vn 0.043734 0.082079 -0.995666
vn -0.174482 -0.003832 0.984653
vn -0.174482 -0.003832 0.984653
vn -0.174482 -0.003832 0.984653
vn 0.604774 0.792130 -0.082327
vn 0.604774 0.792130 -0.082327
vn 0.604774 0.792130 -0.082327
vn -0.055321 0.789720 0.610967
vn -0.055321 0.789720 0.610967
vn -0.055321 0.789720 0.610967
vn 0.989079 -0.005259 -0.147295
vn 0.989079 -0.005259 -0.147295
vn 0.989079 -0.005259 -0.147295
vn 0.973865 0.045460 0.222531
vn 0.973865 0.045460 0.222531
vn 0.973865 0.045460 0.222531
vn 0.987809 0.000140 -0.155672
vn 0.987809 0.000140 -0.155672
vn 0.987809 0.000140 -0.155672
vn 0.989131 -0.002494 0.147018
vn 0.989131 -0.002494 0.147018
vn 0.989131 -0.002494 0.147018
vn -0.179126 -0.001151 0.983826
vn -0.179126 -0.001151 0.983826
vn -0.179126 -0.001151 0.983825
vn 0.267335 0.049339 0.962340
vn 0.267335 0.049339 0.962340
vn 0.267335 0.049339 0.962340
vn 0.180625 -0.000948 0.983552
vn 0.180625 -0.000948 0.983552
vn 0.180625 -0.000948 0.983552
vn -0.187442 -0.001037 -0.982275
vn -0.187442 -0.001037 -0.982275
vn -0.187442 -0.001037 -0.982275
vn -0.048569 0.075858 -0.995935
vn -0.048569 0.075858 -0.995935
vn -0.048569 0.075858 -0.995935
vn 0.178591 0.003135 -0.983918
vn 0.178591 0.003135 -0.983919
vn 0.178591 0.003135 -0.983918
vn -0.988644 -0.002507 0.150254
vn -0.988644 -0.002507 0.150254
vn -0.988644 -0.002507 0.150254
vn -0.989642 0.001521 0.143551
vn -0.989642 0.001521 0.143551
vn -0.989642 0.001521 0.143551
vn -0.009177 -0.999881 -0.012409
vn -0.009177 -0.999881 -0.012409
vn -0.009177 -0.999881 -0.012409
vn -0.988322 0.002301 -0.152362
vn -0.988322 0.002301 -0.152362
vn -0.988322 0.002301 -0.152362
vn -0.195770 0.980547 -0.014222
vn -0.195770 0.980547 -0.014222
vn -0.195770 0.980547 -0.014222
vn -0.361580 0.932237 -0.013915
vn -0.361580 0.932237 -0.013915
vn -0.361580 0.932237 -0.013915
vn -0.100825 0.990523 0.093269
vn -0.100825 0.990523 0.093269
vn -0.100825 0.990523 0.093269
vn 0.303468 0.945961 -0.114305
vn 0.303468 0.945961 -0.114305
vn 0.303468 0.945961 -0.114305
vn -0.001227 -0.999971 -0.007577
vn -0.001227 -0.999971 -0.007577
vn -0.001227 -0.999971 -0.007577
vn 0.004082 -0.999914 -0.012429
vn 0.004082 -0.999914 -0.012429
vn 0.004082 -0.999914 -0.012429
vn 0.004106 -0.995303 -0.096724
vn 0.004106 -0.995303 -0.096724
vn 0.004106 -0.995303 -0.096724
vn -0.001189 -0.999987 0.005043
vn -0.001189 -0.999987 0.005043
vn -0.001189 -0.999987 0.005043
s off
f 8/1/1 12/2/2 17/3/3 15/4/4
f 14/5/5 18/6/6 4/7/7 3/8/8
f 11/9/9 9/10/10 2/11/11 5/12/12
f 38/60/13 37/55/14 39/56/15 40/57/16 41/58/17 42/59/18
f 47/66/19 46/61/20 48/62/21 49/63/22 50/64/23 51/65/24
f 2/11/25 1/13/26 6/14/27 5/12/28
f 1/13/29 3/8/30 4/7/31 6/14/32
f 8/1/33 7/15/34 10/16/35 12/2/36
f 7/15/37 9/10/38 11/9/39 10/16/40
f 14/5/41 13/17/42 16/18/43 18/6/44
f 13/17/45 15/4/46 17/3/47 16/18/48
f 52/67/49 51/65/50 50/64/51
f 37/55/52 38/60/53 43/68/54
f 53/69/55 46/61/56 47/66/57
f 44/70/58 42/59/59 41/58/60
f 54/71/61 49/63/62 48/62/63
f 45/72/64 40/57/65 39/56/66
f 4/7/67 18/6/68 21/19/69 19/20/70
f 17/3/71 12/2/72 23/21/73 22/22/74
f 11/9/75 5/12/76 20/23/77 24/24/78
f 5/12/79 6/14/80 25/25/81 20/23/82
f 6/14/83 4/7/84 19/20/85 25/25/86
f 10/16/87 11/9/88 24/24/89 26/26/90
f 12/2/91 10/16/92 26/26/93 23/21/94
f 16/18/95 17/3/96 22/22/97 27/27/98
f 18/6/99 16/18/100 27/27/101 21/19/102
f 8/1/103 15/4/104 30/28/105 28/29/106
f 14/5/107 3/8/108 32/30/109 31/49/110
f 2/11/111 9/10/112 29/50/113 33/51/114
f 1/13/115 2/11/116 33/51/117 34/52/118
f 3/8/119 1/13/120 34/52/121 32/30/122
f 7/15/123 8/1/124 28/29/125 35/53/126
f 9/10/127 7/15/128 35/53/129 29/50/130
f 13/17/131 14/5/132 31/49/133 36/54/134
f 15/4/135 13/17/136 36/54/137 30/28/138
f 19/31/139 21/32/140 39/33/141 37/34/142
f 22/35/143 23/36/144 41/37/145 40/38/146
f 24/39/147 20/40/148 38/41/149 42/42/150
f 20/40/151 25/43/152 43/44/153 38/41/154
f 25/43/155 19/31/156 37/34/157 43/44/158
f 26/45/159 24/39/160 42/42/161 44/46/162
f 23/36/163 26/45/164 44/46/165 41/37/166
f 27/47/167 22/35/168 40/38/169 45/48/170
f 21/32/171 27/47/172 45/48/173 39/33/174
f 28/73/175 30/74/176 48/75/177 46/76/178
f 31/77/179 32/78/180 50/79/181 49/80/182
f 33/81/183 29/82/184 47/83/185 51/84/186
f 34/85/187 33/81/188 51/84/189 52/86/190
f 32/78/191 34/85/192 52/86/193 50/79/194
f 35/87/195 28/73/196 46/76/197 53/88/198
f 29/82/199 35/87/200 53/88/201 47/83/202
f 36/89/203 31/77/204 49/80/205 54/90/206
f 30/74/207 36/89/208 54/90/209 48/75/210
f 64/91/211 65/92/212 69/93/213
f 70/94/214 60/95/215 61/96/216
f 55/97/217 66/98/218 63/99/219
f 56/100/220 59/101/221 68/102/222
f 57/103/223 58/104/224 55/105/225
f 68/102/226 59/101/227 57/106/228
f 58/104/229 64/91/230 55/105/231
f 69/93/232 58/104/233 57/103/234
f 58/104/235 65/92/236 64/91/237
f 69/93/238 65/92/239 58/104/240
f 62/107/241 59/101/242 56/100/243
f 59/101/244 69/108/245 57/106/246
f 62/107/247 69/108/248 59/101/249
f 67/109/250 66/98/251 70/110/252
f 63/99/253 66/98/254 67/109/255
f 64/111/256 66/98/257 55/97/258
f 68/112/259 60/95/260 56/113/261
f 61/96/262 60/95/263 68/112/264
f 60/95/265 70/94/266 56/113/267
f 61/96/268 67/114/269 70/94/270
f 61/96/271 68/112/272 67/114/273
f 68/115/274 63/116/275 67/117/276
f 57/118/277 63/116/278 68/115/279
f 57/118/280 55/119/281 63/116/282
f 69/120/283 70/121/284 64/122/285
f 56/123/286 70/121/287 69/120/288
f 62/107/289 56/100/290 69/108/291
f 70/110/292 66/98/293 64/111/294
f 80/124/295 81/125/296 85/126/297
f 86/127/298 76/128/299 77/129/300
f 71/130/301 82/131/302 79/132/303
f 72/133/304 75/134/305 84/135/306
f 73/136/307 74/137/308 71/138/309
f 84/135/310 75/134/311 73/139/312
f 74/137/313 80/124/314 71/138/315
f 85/126/316 74/137/317 73/136/318
f 74/137/319 81/125/320 80/124/321
f 85/126/322 81/125/323 74/137/324
f 78/140/325 75/134/326 72/133/327
f 75/134/328 85/141/329 73/139/330
f 78/140/331 85/141/332 75/134/333
f 83/142/334 82/131/335 86/143/336
f 79/132/337 82/131/338 83/142/339
f 80/144/340 82/131/341 71/130/342
f 84/145/343 76/128/344 72/146/345
f 77/129/346 76/128/347 84/145/348
f 76/128/349 86/127/350 72/146/351
f 77/129/352 83/147/353 86/127/354
f 77/129/355 84/145/356 83/147/357
f 84/148/358 79/149/359 83/150/360
f 73/151/361 79/149/362 84/148/363
f 73/151/364 71/152/365 79/149/366
f 85/153/367 86/154/368 80/155/369
f 72/156/370 86/154/371 85/153/372
f 78/140/373 72/133/374 85/141/375
f 86/143/376 82/131/377 80/144/378
