# This file uses meters as units for non-parametric coordinates.

v -13.160707 -25.747318 5.040015
v -14.894103 26.387405 4.505731
v 13.624000 26.514511 4.739494
v -15.577736 -1.988544 -4.827005
v 14.206162 -26.450556 -4.487535
v -13.893470 -26.244089 -4.738311
v 4.915543 -16.826632 -4.848670
v -4.621601 -16.684208 -4.814033
v -15.322572 24.994030 -4.487535
v 3.537940 18.913460 -4.929962
v 14.318066 27.013931 -4.443053
v -14.720689 -3.084965 4.505731
v 14.799786 4.689579 4.505731
v 4.846650 -16.821081 4.844475
v 3.822002 19.153900 5.203247
v -3.618354 19.451408 4.861452
v 16.518898 2.819099 0.041540
v 4.332581 13.243618 -4.866486
v -16.518898 -20.938244 0.003701
v 15.630301 22.042103 4.855079
v -16.446266 -2.435226 0.042227
v 15.627175 -24.466188 -4.837876
v 0.250777 -27.718489 0.049171
v 4.884339 -4.331684 -4.827462
v -4.828722 6.309853 4.871140
v 14.518604 12.226906 4.505731
v -15.641288 -21.129398 4.832726
v -5.909444 -11.105730 -3.886528
v 15.647449 2.532139 -4.823038
v 9.744338 1.222134 5.676345
v 8.854217 -22.466925 -5.662764
v 15.134315 12.381096 -4.487535
v -15.068360 -11.207640 4.461249
v -4.883900 -12.475681 4.886855
v 14.890748 27.402458 0.817147
v 12.638627 -26.671904 4.505731
v 13.825873 4.982090 -4.487535
v 4.385261 13.468647 4.886168
v -11.153069 27.638245 4.841424
v 15.714761 -24.747372 4.854318
v -4.351387 -16.767122 4.832229
v 8.938351 -22.454395 5.678255
v 4.955444 -4.236774 4.872704
v -9.640368 0.478058 5.677719
v -4.185772 19.473267 -4.849318
v 9.188061 23.279400 -5.665322
v -12.159136 27.718487 -4.823686
v -4.805697 5.867157 -4.832954
v -10.461541 22.261906 -5.655897
v -15.533486 -12.558041 -4.820099
v -9.728240 -21.101437 -5.678255
v -9.699095 0.456295 -5.654373
vt 0.247243 0.306986
vt 0.247243 0.306986
vt 0.247243 0.306986
vt 0.247243 0.306986
vt 0.247243 0.306986
vt 0.247243 0.306986
vt 0.247243 0.306986
vt 0.247243 0.306986
vt 0.247243 0.306986
vt 0.247243 0.306986
vt 0.247243 0.306986
vt 0.247243 0.306986
vt 0.247243 0.306986
vt 0.247243 0.306986
vt 0.247243 0.306986
vt 0.247243 0.306986
vt 0.247243 0.306986
vt 0.247243 0.306986
vt 0.247243 0.306986
vt 0.247243 0.306986
vt 0.247243 0.306986
vt 0.247243 0.306986
vt 0.247243 0.306986
vt 0.247243 0.306986
vt 0.247243 0.306986
vt 0.247243 0.306986
vt 0.247243 0.306986
vt 0.247243 0.306986
vt 0.247243 0.306986
vt 0.247243 0.306986
vt 0.247243 0.306986
vt 0.247243 0.306986
vt 0.247243 0.306986
vt 0.247243 0.306986
vt 0.247243 0.306986
vt 0.247243 0.306986
vt 0.247243 0.306986
vt 0.247243 0.306986
vt 0.247243 0.306986
vt 0.247243 0.306986
vt 0.247243 0.306986
vt 0.247243 0.306986
vt 0.247243 0.306986
vt 0.247243 0.306986
vt 0.247243 0.306986
vt 0.247243 0.306986
vt 0.247243 0.306986
vt 0.247243 0.306986
vt 0.247243 0.306986
vt 0.247243 0.306986
vt 0.247243 0.306986
vt 0.247243 0.306986
vt 0.247243 0.306986
vt 0.247243 0.306986
vt 0.247243 0.306986
vt 0.247243 0.306986
vt 0.247243 0.306986
vt 0.247243 0.306986
vt 0.247243 0.306986
vt 0.247243 0.306986
vt 0.247243 0.306986
vt 0.247243 0.306986
vt 0.247243 0.306986
vt 0.247243 0.306986
vt 0.247243 0.306986
vt 0.247243 0.306986
vt 0.247243 0.306986
vt 0.247243 0.306986
vt 0.247243 0.306986
vt 0.247243 0.306986
vt 0.247243 0.306986
vt 0.247243 0.306986
vt 0.247243 0.306986
vt 0.247243 0.306986
vt 0.247243 0.306986
vt 0.247243 0.306986
vt 0.247243 0.306986
vt 0.247243 0.306986
vt 0.247243 0.306986
vt 0.247243 0.306986
vt 0.247243 0.306986
vt 0.247243 0.306986
vt 0.247243 0.306986
vt 0.247243 0.306986
vt 0.247243 0.306986
vt 0.247243 0.306986
vt 0.247243 0.306986
vt 0.247243 0.306986
vt 0.247243 0.306986
vt 0.247243 0.306986
vt 0.247243 0.306986
vt 0.247243 0.306986
vt 0.247243 0.306986
vt 0.247243 0.306986
vt 0.247243 0.306986
vt 0.247243 0.306986
vt 0.247243 0.306986
vt 0.247243 0.306986
vt 0.247243 0.306986
vt 0.247243 0.306986
vt 0.247243 0.306986
vt 0.247243 0.306986
vt 0.247243 0.306986
vt 0.247243 0.306986
vt 0.247243 0.306986
vt 0.247243 0.306986
vt 0.247243 0.306986
vt 0.247243 0.306986
vt 0.247243 0.306986
vt 0.247243 0.306986
vt 0.247243 0.306986
vt 0.247243 0.306986
vt 0.247243 0.306986
vt 0.247243 0.306986
vt 0.247243 0.306986
vt 0.247243 0.306986
vt 0.247243 0.306986
vt 0.247243 0.306986
vt 0.247243 0.306986
vt 0.247243 0.306986
vt 0.247243 0.306986
vt 0.247243 0.306986
vt 0.247243 0.306986
vn -0.029374 -0.256327 -0.966144
vn -0.029374 -0.256327 -0.966144
vn -0.029374 -0.256327 -0.966144
vn 0.007406 -0.185592 -0.982599
vn 0.007406 -0.185592 -0.982599
vn 0.007406 -0.185592 -0.982599
vn -0.186731 -0.028245 -0.982005
vn -0.186731 -0.028245 -0.982005
vn -0.186731 -0.028245 -0.982005
vn -0.183410 0.092207 -0.978703
vn -0.183410 0.092207 -0.978703
vn -0.183410 0.092207 -0.978703
vn -0.108935 -0.026392 -0.993698
vn -0.108935 -0.026392 -0.993698
vn -0.108935 -0.026392 -0.993698
vn 0.010715 -0.259102 0.965791
vn 0.010715 -0.259102 0.965791
vn 0.010715 -0.259102 0.965791
vn -0.055716 -0.990879 -0.122699
vn -0.055716 -0.990879 -0.122699
vn -0.055716 -0.990879 -0.122699
vn 0.992324 0.052600 -0.111920
vn 0.992324 0.052600 -0.111920
vn 0.992324 0.052600 -0.111920
vn -0.981457 0.063446 0.180878
vn -0.981457 0.063446 0.180878
vn -0.981457 0.063446 0.180878
vn 0.121030 0.000455 -0.992649
vn 0.121030 0.000455 -0.992649
vn 0.121030 0.000455 -0.992649
vn 0.129421 0.004456 -0.991580
vn 0.129421 0.004456 -0.991580
vn 0.129421 0.004456 -0.991580
vn -0.223910 -0.001317 0.974609
vn -0.223910 -0.001317 0.974609
vn -0.223910 -0.001317 0.974609
vn 0.008694 -0.177016 -0.984170
vn 0.008694 -0.177016 -0.984170
vn 0.008694 -0.177016 -0.984170
vn 0.674305 0.736822 -0.049057
vn 0.674305 0.736822 -0.049057
vn 0.674305 0.736822 -0.049057
vn 0.778479 0.602777 -0.175016
vn 0.778479 0.602777 -0.175016
vn 0.778479 0.602777 -0.175016
vn -0.999937 0.008628 0.007245
vn -0.999937 0.008628 0.007245
vn -0.999937 0.008628 0.007245
vn -0.999972 -0.002485 -0.007106
vn -0.999972 -0.002485 -0.007106
vn -0.999972 -0.002485 -0.007106
vn -0.655385 0.750491 -0.085053
vn -0.655385 0.750491 -0.085053
vn -0.655385 0.750491 -0.085053
vn -0.320154 0.946470 0.041184
vn -0.320154 0.946470 0.041184
vn -0.320154 0.946470 0.041184
vn -0.071999 -0.997074 0.025677
vn -0.071999 -0.997074 0.025677
vn -0.071999 -0.997074 0.025677
vn -0.039958 -0.999201 0.000086
vn -0.039958 -0.999201 0.000086
vn -0.039958 -0.999201 0.000086
vn 0.006564 0.054169 0.998510
vn 0.006564 0.054169 0.998510
vn 0.006564 0.054169 0.998510
vn -0.047497 -0.041272 0.998018
vn -0.047497 -0.041272 0.998018
vn -0.047497 -0.041272 0.998018
vn 0.021346 0.284375 -0.958475
vn 0.021346 0.284375 -0.958475
vn 0.021346 0.284375 -0.958475
vn -0.008153 0.148287 -0.988911
vn -0.008153 0.148287 -0.988911
vn -0.008153 0.148287 -0.988911
vn -0.035130 -0.349829 -0.936155
vn -0.035130 -0.349829 -0.936155
vn -0.035130 -0.349829 -0.936155
vn 0.997257 -0.045508 -0.058374
vn 0.997257 -0.045508 -0.058374
vn 0.997257 -0.045508 -0.058374
vn 0.995765 -0.091707 0.006546
vn 0.995765 -0.091707 0.006546
vn 0.995764 -0.091707 0.006546
vn 0.032747 0.032582 0.998933
vn 0.032747 0.032582 0.998933
vn 0.032747 0.032582 0.998933
vn -0.097698 0.025193 0.994897
vn -0.097698 0.025193 0.994897
vn -0.097698 0.025193 0.994897
vn 0.184443 -0.016263 0.982709
vn 0.184443 -0.016263 0.982709
vn 0.184443 -0.016263 0.982709
vn -0.226019 0.014392 -0.974017
vn -0.226019 0.014392 -0.974017
vn -0.226019 0.014392 -0.974017
vn -0.137379 -0.004873 -0.990507
vn -0.137379 -0.004873 -0.990507
vn -0.137379 -0.004873 -0.990507
vn 0.175399 -0.009176 -0.984455
vn 0.175399 -0.009176 -0.984455
vn 0.175399 -0.009176 -0.984455
vn 0.984337 -0.000642 -0.176298
vn 0.984337 -0.000642 -0.176298
vn 0.984337 -0.000642 -0.176298
vn 0.937274 0.033242 0.347006
vn 0.937274 0.033242 0.347006
vn 0.937274 0.033242 0.347006
vn 0.999474 -0.030889 -0.009928
vn 0.999474 -0.030889 -0.009928
vn 0.999474 -0.030889 -0.009928
vn -0.164624 -0.000789 0.986356
vn -0.164624 -0.000789 0.986356
vn -0.164624 -0.000789 0.986356
vn 0.230636 -0.007773 0.973009
vn 0.230636 -0.007773 0.973009
vn 0.230636 -0.007773 0.973009
vn -0.190960 0.006580 0.981576
vn -0.190960 0.006580 0.981576
vn -0.190960 0.006580 0.981576
vn 0.125905 0.015660 0.991919
vn 0.125905 0.015660 0.991919
vn 0.125905 0.015660 0.991919
vn -0.200819 0.001161 -0.979628
vn -0.200819 0.001161 -0.979628
vn -0.200819 0.001161 -0.979628
vn -0.025385 0.040450 -0.998859
vn -0.025385 0.040450 -0.998859
vn -0.025385 0.040450 -0.998859
vn -0.995057 -0.099011 0.007659
vn -0.995057 -0.099011 0.007659
vn -0.995057 -0.099011 0.007659
vn 0.031028 -0.052594 0.998134
vn 0.031028 -0.052594 0.998134
vn 0.031028 -0.052594 0.998134
vn -0.858333 -0.505140 0.089984
vn -0.858333 -0.505140 0.089984
vn -0.858333 -0.505140 0.089984
vn -0.874810 -0.463605 0.140633
vn -0.874810 -0.463605 0.140633
vn -0.874810 -0.463605 0.140633
vn -0.990544 0.133840 0.030167
vn -0.990544 0.133840 0.030167
vn -0.990544 0.133840 0.030167
vn -0.917210 -0.112195 -0.382281
vn -0.917210 -0.112195 -0.382281
vn -0.917210 -0.112195 -0.382281
vn 0.987644 0.123777 -0.096121
vn 0.987644 0.123777 -0.096121
vn 0.987644 0.123777 -0.096121
vn -0.044005 -0.018175 0.998866
vn -0.044005 -0.018175 0.998866
vn -0.044005 -0.018175 0.998866
vn 0.847094 0.389350 0.361716
vn 0.847094 0.389350 0.361716
vn 0.847094 0.389350 0.361716
vn 0.991222 -0.114614 0.065898
vn 0.991222 -0.114614 0.065898
vn 0.991222 -0.114614 0.065898
vn 0.992340 0.055690 -0.110270
vn 0.992340 0.055690 -0.110270
vn 0.992340 0.055690 -0.110270
vn -0.078793 -0.996637 -0.022482
vn -0.078793 -0.996637 -0.022482
vn -0.078793 -0.996638 -0.022482
vn -0.120725 -0.992407 0.023550
vn -0.120725 -0.992407 0.023550
vn -0.120725 -0.992407 0.023550
vn -0.989892 -0.138388 0.031033
vn -0.989892 -0.138388 0.031033
vn -0.989892 -0.138388 0.031033
vn 0.027623 0.996677 -0.076624
vn 0.027623 0.996677 -0.076624
vn 0.027623 0.996677 -0.076624
vn 0.010172 0.999922 0.007243
vn 0.010172 0.999922 0.007243
vn 0.010172 0.999922 0.007243
vn 0.045007 0.971104 0.234375
vn 0.045007 0.971104 0.234375
vn 0.045007 0.971104 0.234375
vn -0.984578 0.011507 -0.174565
vn -0.984578 0.011507 -0.174565
vn -0.984578 0.011507 -0.174565
vn -0.932979 -0.005490 0.359888
vn -0.932979 -0.005490 0.359888
vn -0.932979 -0.005490 0.359888
vn -0.998061 0.047524 0.040188
vn -0.998061 0.047524 0.040188
vn -0.998061 0.047524 0.040188
vn -0.134912 0.981474 -0.136040
vn -0.134912 0.981474 -0.136040
vn -0.134912 0.981474 -0.136040
vn 0.116579 0.983277 0.139910
vn 0.116579 0.983277 0.139910
vn 0.116579 0.983277 0.139910
vn 0.973130 0.228861 -0.025292
vn 0.973130 0.228861 -0.025292
vn 0.973130 0.228861 -0.025292
vn 0.816892 -0.562284 0.128546
vn 0.816892 -0.562284 0.128546
vn 0.816892 -0.562284 0.128546
vn 0.532545 -0.845892 -0.029353
vn 0.532545 -0.845892 -0.029353
vn 0.532545 -0.845892 -0.029353
vn 0.014961 0.999855 0.008175
vn 0.014961 0.999855 0.008175
vn 0.014961 0.999855 0.008175
vn 0.005867 0.999983 -0.000531
vn 0.005867 0.999983 -0.000531
vn 0.005867 0.999983 -0.000531
vn -0.004532 -0.959383 -0.282072
vn -0.004532 -0.959383 -0.282072
vn -0.004532 -0.959383 -0.282072
vn 0.087491 -0.996122 -0.009267
vn 0.087491 -0.996122 -0.009267
vn 0.087491 -0.996122 -0.009267
vn -0.027914 -0.953084 0.301416
vn -0.027914 -0.953084 0.301416
vn -0.027914 -0.953084 0.301416
vn -0.123421 -0.990565 0.059573
vn -0.123421 -0.990565 0.059573
vn -0.123421 -0.990565 0.059573
vn -0.113070 -0.987396 -0.110748
vn -0.113070 -0.987396 -0.110748
vn -0.113070 -0.987396 -0.110748
vn -0.086203 -0.996224 0.010379
vn -0.086203 -0.996224 0.010379
vn -0.086203 -0.996224 0.010379
vn 0.048241 0.997803 -0.045405
vn 0.048241 0.997803 -0.045405
vn 0.048241 0.997803 -0.045405
vn 0.082678 0.996300 0.023452
vn 0.082678 0.996300 0.023452
vn 0.082678 0.996300 0.023452
vn 0.056825 -0.012775 0.998302
vn 0.056825 -0.012775 0.998302
vn 0.056825 -0.012775 0.998302
vn -0.108668 -0.023064 0.993810
vn -0.108668 -0.023064 0.993810
vn -0.108668 -0.023064 0.993810
vn -0.014739 0.038260 0.999159
vn -0.014739 0.038260 0.999159
vn -0.014739 0.038260 0.999159
vn 0.037994 -0.236580 0.970869
vn 0.037994 -0.236580 0.970869
vn 0.037994 -0.236580 0.970869
vn -0.001311 0.003506 0.999993
vn -0.001311 0.003506 0.999993
vn -0.001311 0.003506 0.999993
vn -0.027265 0.126952 0.991534
vn -0.027265 0.126952 0.991534
vn -0.027265 0.126952 0.991534
vn -0.032903 0.027172 0.999089
vn -0.032903 0.027172 0.999089
vn -0.032903 0.027172 0.999089
vn -0.033679 -0.268626 0.962656
vn -0.033679 -0.268626 0.962656
vn -0.033679 -0.268626 0.962656
vn -0.005355 0.141335 0.989947
vn -0.005355 0.141335 0.989947
vn -0.005355 0.141335 0.989947
vn 0.005853 -0.150668 0.988567
vn 0.005853 -0.150668 0.988567
vn 0.005853 -0.150668 0.988567
vn 0.039952 0.266832 0.962915
vn 0.039952 0.266832 0.962915
vn 0.039952 0.266832 0.962915
vn 0.221189 0.015303 -0.975111
vn 0.221189 0.015303 -0.975111
vn 0.221189 0.015303 -0.975111
vn 0.027529 -0.092546 -0.995328
vn 0.027529 -0.092546 -0.995328
vn 0.027529 -0.092546 -0.995328
vn 0.020878 0.168666 -0.985452
vn 0.020878 0.168666 -0.985452
vn 0.020878 0.168666 -0.985452
vn 0.073206 0.148800 -0.986154
vn 0.073206 0.148800 -0.986154
vn 0.073206 0.148800 -0.986154
vn 0.056113 -0.212420 -0.975566
vn 0.056113 -0.212420 -0.975566
vn 0.056113 -0.212420 -0.975566
vn 0.011919 0.150994 -0.988463
vn 0.011919 0.150994 -0.988463
vn 0.011919 0.150994 -0.988463
vn -0.021983 -0.309945 -0.950500
vn -0.021983 -0.309945 -0.950500
vn -0.021983 -0.309945 -0.950500
vn -0.000685 0.192770 -0.981244
vn -0.000685 0.192770 -0.981244
vn -0.000685 0.192770 -0.981244
vn 0.025642 0.154322 -0.987688
vn 0.025642 0.154322 -0.987688
vn 0.025642 0.154322 -0.987688
vn 0.021801 0.130754 -0.991175
vn 0.021801 0.130754 -0.991175
vn 0.021801 0.130754 -0.991175
vn 0.037481 -0.058131 -0.997605
vn 0.037481 -0.058131 -0.997605
vn 0.037481 -0.058131 -0.997605
s off
f 4/1/1 52/2/2 24/3/3
f 6/4/4 51/5/5 5/6/6
f 6/4/7 50/7/8 51/5/9
f 9/8/10 47/9/11 49/10/12
f 10/11/13 46/12/14 18/13/15
f 36/14/16 42/15/17 1/16/18
f 12/17/19 21/18/20 43/19/21
f 11/20/22 35/21/23 20/22/24
f 33/23/25 19/24/26 27/25/27
f 22/26/28 31/27/29 29/28/30
f 45/29/31 52/2/32 49/10/33
f 12/30/34 44/31/35 2/32/36
f 10/11/37 49/10/38 46/12/39
f 13/33/40 17/34/41 37/35/42
f 37/35/43 17/34/44 29/36/45
f 24/37/46 14/38/47 43/39/48
f 14/38/49 24/37/50 7/40/51
f 2/41/52 47/42/53 9/43/54
f 2/41/55 39/44/56 47/42/57
f 15/45/58 45/46/59 10/47/60
f 16/48/61 45/46/62 15/45/63
f 3/49/64 39/50/65 15/51/66
f 39/50/67 16/52/68 15/51/69
f 46/12/70 47/9/71 11/53/72
f 46/12/73 49/10/74 47/9/75
f 45/29/76 49/10/77 10/11/78
f 16/54/79 48/55/80 45/56/81
f 25/57/82 48/55/83 16/54/84
f 39/50/85 44/31/86 16/52/87
f 2/32/88 44/31/89 39/50/90
f 44/31/91 25/58/92 16/52/93
f 49/10/94 4/1/95 9/8/96
f 49/10/97 52/2/98 4/1/99
f 48/59/100 52/2/101 45/29/102
f 29/36/103 17/34/104 22/60/105
f 40/61/106 17/34/107 13/33/108
f 40/61/109 22/60/110 17/34/111
f 14/62/112 30/63/113 43/64/114
f 30/63/115 42/15/116 13/65/117
f 14/62/118 42/15/119 30/63/120
f 42/15/121 40/66/122 13/65/123
f 24/3/124 31/27/125 7/67/126
f 29/28/127 31/27/128 24/3/129
f 38/68/130 15/69/131 18/13/132
f 38/70/133 26/71/134 15/51/135
f 1/72/136 19/24/137 6/73/138
f 27/25/139 19/24/140 1/72/141
f 50/74/142 19/24/143 33/23/144
f 19/24/145 50/74/146 6/73/147
f 34/75/148 41/76/149 28/77/150
f 34/78/151 33/79/152 41/80/153
f 20/22/154 35/21/155 3/81/156
f 32/82/157 20/22/158 26/83/159
f 32/82/160 11/20/161 20/22/162
f 26/84/163 18/85/164 32/86/165
f 26/84/166 38/87/167 18/85/168
f 18/13/169 15/69/170 10/11/171
f 47/42/172 35/88/173 11/89/174
f 39/44/175 35/88/176 47/42/177
f 3/90/178 35/88/179 39/44/180
f 4/91/181 21/92/182 9/93/183
f 2/94/184 21/92/185 12/95/186
f 21/92/187 2/94/188 9/93/189
f 50/96/190 33/97/191 28/98/192
f 33/97/193 34/99/194 28/98/195
f 28/77/196 41/76/197 8/100/198
f 22/60/199 36/101/200 5/102/201
f 40/61/202 36/101/203 22/60/204
f 8/103/205 41/104/206 7/105/207
f 41/104/208 14/106/209 7/105/210
f 5/107/211 23/108/212 6/109/213
f 36/110/214 23/108/215 5/107/216
f 1/111/217 23/108/218 36/110/219
f 23/108/220 1/111/221 6/109/222
f 24/112/223 21/18/224 4/113/225
f 43/19/226 21/18/227 24/112/228
f 25/114/229 37/115/230 48/116/231
f 13/117/232 37/115/233 25/114/234
f 26/71/235 3/49/236 15/51/237
f 20/118/238 3/49/239 26/71/240
f 33/79/241 27/119/242 41/80/243
f 40/66/244 42/15/245 36/14/246
f 41/80/247 27/119/248 14/62/249
f 27/119/250 42/15/251 14/62/252
f 1/16/253 42/15/254 27/119/255
f 43/64/256 44/31/257 12/30/258
f 44/31/259 30/63/260 25/58/261
f 43/64/262 30/63/263 44/31/264
f 30/63/265 13/65/266 25/58/267
f 32/120/268 46/12/269 11/53/270
f 18/13/271 46/12/272 32/120/273
f 51/5/274 28/121/275 8/122/276
f 51/5/277 50/7/278 28/121/279
f 31/27/280 22/26/281 5/6/282
f 31/27/283 51/5/284 7/67/285
f 5/6/286 51/5/287 31/27/288
f 51/5/289 8/122/290 7/67/291
f 37/123/292 29/28/293 48/59/294
f 29/28/295 52/2/296 48/59/297
f 24/3/298 52/2/299 29/28/300
