# This file uses meters as units for non-parametric coordinates.

v -9.757503 -5.633500 100.000000
v -9.757504 5.633495 100.000000
v -0.000002 11.266994 100.000000
v 9.757504 5.633499 100.000000
v 9.757504 -5.633497 100.000000
v 0.000000 -11.266994 100.000000
v -0.000000 0.000000 132.477325
v 2.602613 -2.602613 100.000000
v -2.602613 -2.602613 100.000000
v 2.602613 2.602613 100.000000
v -2.602613 2.602613 100.000000
v 2.602613 2.602612 2.602612
v -2.602613 2.602613 2.602613
v 2.602613 -2.602613 2.602612
v -2.602612 -2.602613 2.602612
v -2.602613 100.000000 2.602613
v -2.602613 100.000000 -2.602613
v 2.602613 100.000000 2.602613
v 2.602613 100.000000 -2.602613
v 2.602613 2.602612 -2.602613
v -2.602612 2.602612 -2.602613
v -100.000000 -2.602613 2.602613
v -100.000000 -2.602613 -2.602613
v -100.000000 2.602613 2.602613
v -100.000000 2.602613 -2.602613
v -2.602612 -2.602613 -2.602613
v 2.602613 -2.602613 -2.602613
v -9.757503 100.000000 5.633500
v -9.757504 100.000000 -5.633495
v -0.000002 100.000000 -11.266994
v 9.757504 100.000000 -5.633499
v 9.757504 100.000000 5.633497
v -0.000000 100.000000 11.266994
v 0.000000 132.477325 -0.000000
v -100.000000 -5.633500 -9.757503
v -100.000000 5.633495 -9.757504
v -100.000000 11.266994 -0.000002
v -100.000000 5.633499 9.757504
v -100.000000 -5.633497 9.757504
v -100.000000 -11.266994 0.000000
v -132.477325 -0.000000 0.000000
vt 0.004591 0.473130
vt 0.004591 0.473130
vt 0.004591 0.473130
vt 0.004591 0.473130
vt 0.004591 0.473130
vt 0.004591 0.473130
vt 0.004591 0.473130
vt 0.004591 0.473130
vt 0.004591 0.473130
vt 0.004591 0.473130
vt 0.004591 0.473130
vt 0.004591 0.473130
vt 0.004591 0.473130
vt 0.004591 0.473130
vt 0.004591 0.473130
vt 0.136902 0.446231
vt 0.246684 0.446243
vt 0.138361 0.445504
vt 0.248138 0.444050
vt 0.248138 0.444050
vt 0.004591 0.472403
vt 0.004591 0.472403
vt 0.138361 0.445504
vt 0.248138 0.444050
vt 0.248138 0.444050
vt 0.004591 0.472403
vt 0.004591 0.472403
vt 0.136902 0.446230
vt 0.246685 0.446228
vt 0.246685 0.446228
vt 0.246685 0.446228
vt 0.246685 0.446228
vt 0.246685 0.446231
vt 0.246685 0.446231
vt 0.246685 0.446231
vt 0.246685 0.446231
vt 0.246684 0.446228
vt 0.246684 0.446228
vt 0.246684 0.446228
vt 0.246684 0.446228
vt 0.246684 0.446228
vt 0.246684 0.446228
vt 0.136902 0.446231
vt 0.136902 0.446231
vt 0.136902 0.446231
vt 0.136902 0.446231
vt 0.136906 0.446231
vt 0.136906 0.446231
vt 0.136906 0.446231
vt 0.136906 0.446231
vt 0.136902 0.446230
vt 0.136902 0.446232
vt 0.136902 0.446230
vt 0.136902 0.446230
vt 0.136902 0.446232
vt 0.138361 0.445504
vt 0.138361 0.445504
vt 0.004591 0.472403
vt 0.004591 0.472403
vn -0.000001 0.000000 -1.000000
vn 0.000000 0.000000 -1.000000
vn 0.000000 0.000000 -1.000000
vn 0.000000 0.000000 -1.000000
vn 0.000000 0.000000 -1.000000
vn 0.000000 0.000000 -1.000000
vn 0.000000 0.000000 -1.000000
vn 0.000000 0.000000 -1.000000
vn 0.000000 0.000000 -1.000000
vn 0.000000 0.000000 -1.000000
vn 0.000000 0.000000 -1.000000
vn 0.000000 0.000000 -1.000000
vn -0.957710 -0.000000 0.287735
vn -0.957710 -0.000000 0.287735
vn -0.957710 -0.000000 0.287735
vn -0.478855 0.829401 0.287735
vn -0.478855 0.829401 0.287735
vn -0.478855 0.829401 0.287735
vn 0.478855 0.829401 0.287735
vn 0.478855 0.829401 0.287735
vn 0.478855 0.829401 0.287735
vn 0.957710 0.000000 0.287735
vn 0.957710 0.000000 0.287735
vn 0.957710 0.000000 0.287735
vn 0.478855 -0.829401 0.287735
vn 0.478855 -0.829401 0.287735
vn 0.478855 -0.829401 0.287735
vn -0.478855 -0.829401 0.287735
vn -0.478855 -0.829401 0.287735
vn -0.478855 -0.829401 0.287735
vn 0.000000 0.000000 1.000000
vn 0.000000 0.000000 1.000000
vn 0.000000 0.000000 1.000000
vn 0.000000 0.000000 1.000000
vn 0.000000 1.000000 -0.000000
vn 0.000000 1.000000 -0.000000
vn 0.000000 1.000000 -0.000000
vn 0.000000 1.000000 -0.000000
vn 0.000000 -1.000000 -0.000000
vn 0.000000 -1.000000 -0.000000
vn 0.000000 -1.000000 -0.000000
vn 0.000000 -1.000000 -0.000000
vn -1.000000 -0.000000 -0.000000
vn -1.000000 -0.000000 -0.000000
vn -1.000000 -0.000000 -0.000000
vn -1.000000 -0.000000 -0.000000
vn 1.000000 0.000000 0.000000
vn 1.000000 0.000000 0.000000
vn 1.000000 0.000000 0.000000
vn 1.000000 0.000000 0.000000
vn 0.000000 1.000000 0.000000
vn 0.000000 1.000000 0.000000
vn 0.000000 1.000000 0.000000
vn 0.000000 1.000000 0.000000
vn 1.000000 -0.000000 0.000000
vn 1.000000 -0.000000 0.000000
vn 1.000000 -0.000000 0.000000
vn 1.000000 -0.000000 0.000000
vn -1.000000 -0.000000 -0.000000
vn -1.000000 -0.000000 -0.000000
vn -1.000000 -0.000000 -0.000000
vn -1.000000 -0.000000 -0.000000
vn 0.000000 0.000000 -1.000000
vn 0.000000 0.000000 -1.000000
vn 0.000000 0.000000 -1.000000
vn 0.000000 0.000000 -1.000000
vn 0.000000 -0.000000 1.000000
vn 0.000000 -0.000000 1.000000
vn 0.000000 -0.000000 1.000000
vn 0.000000 -0.000000 1.000000
vn -1.000000 0.000000 0.000000
vn -1.000000 0.000000 0.000000
vn -1.000000 0.000000 0.000000
vn -1.000000 0.000000 0.000000
vn 0.000000 1.000000 -0.000000
vn 0.000000 1.000000 -0.000000
vn 0.000000 1.000000 -0.000000
vn 0.000000 1.000000 -0.000000
vn 0.000000 -1.000000 -0.000000
vn 0.000000 -1.000000 -0.000000
vn 0.000000 -1.000000 -0.000000
vn 0.000000 -1.000000 -0.000000
vn 0.000000 0.000000 -1.000000
vn 0.000000 0.000000 -1.000000
vn 0.000000 0.000000 -1.000000
vn 0.000000 0.000000 -1.000000
vn 0.000000 -0.000000 1.000000
vn 0.000000 -0.000000 1.000000
vn 0.000000 -0.000000 1.000000
vn 0.000000 -0.000000 1.000000
vn 1.000000 -0.000000 -0.000000
vn 1.000000 0.000000 0.000000
vn 1.000000 -0.000000 -0.000000
vn 0.000000 -1.000000 0.000000
vn 0.000000 -1.000000 0.000000
vn 0.000000 -1.000000 0.000000
vn -0.000000 0.000000 -1.000000
vn -0.000000 0.000000 -1.000000
vn -0.000000 0.000000 -1.000000
vn 0.000000 -1.000000 0.000000
vn 0.000000 -1.000000 0.000000
vn 0.000000 -1.000000 0.000000
vn 0.000000 -1.000000 0.000000
vn 0.000000 -1.000000 0.000000
vn 0.000000 -1.000000 0.000000
vn 0.000000 -1.000000 0.000000
vn 0.000000 -1.000000 0.000000
vn 0.000000 -1.000000 -0.000000
vn 0.000000 -1.000000 -0.000000
vn 0.000000 -1.000000 0.000000
vn 0.000000 -1.000000 -0.000001
vn -0.957710 0.287735 -0.000000
vn -0.957710 0.287735 -0.000000
vn -0.957710 0.287735 -0.000000
vn -0.478855 0.287735 -0.829401
vn -0.478855 0.287735 -0.829401
vn -0.478855 0.287735 -0.829401
vn 0.478855 0.287735 -0.829401
vn 0.478855 0.287735 -0.829401
vn 0.478855 0.287735 -0.829401
vn 0.957710 0.287735 0.000000
vn 0.957710 0.287735 0.000000
vn 0.957710 0.287735 0.000000
vn 0.478855 0.287735 0.829401
vn 0.478855 0.287735 0.829401
vn 0.478855 0.287735 0.829401
vn -0.478855 0.287735 0.829401
vn -0.478855 0.287735 0.829401
vn -0.478855 0.287735 0.829402
vn 1.000000 0.000000 0.000000
vn 1.000000 0.000000 0.000000
vn 1.000000 -0.000000 0.000000
vn 1.000000 -0.000000 0.000000
vn 1.000000 0.000000 0.000000
vn 1.000000 -0.000000 0.000000
vn 1.000000 -0.000000 0.000000
vn 1.000000 0.000000 0.000000
vn 1.000000 0.000000 0.000000
vn 1.000000 0.000000 0.000000
vn 1.000000 0.000000 0.000000
vn 1.000000 0.000001 0.000000
vn -0.287735 0.000000 -0.957710
vn -0.287735 0.000000 -0.957710
vn -0.287735 0.000000 -0.957710
vn -0.287735 0.829401 -0.478855
vn -0.287735 0.829401 -0.478855
vn -0.287735 0.829401 -0.478855
vn -0.287735 0.829402 0.478855
vn -0.287735 0.829401 0.478855
vn -0.287735 0.829402 0.478855
vn -0.287735 0.000000 0.957710
vn -0.287735 0.000000 0.957710
vn -0.287735 0.000000 0.957710
vn -0.287735 -0.829401 0.478855
vn -0.287735 -0.829401 0.478855
vn -0.287735 -0.829401 0.478855
vn -0.287735 -0.829401 -0.478855
vn -0.287735 -0.829401 -0.478855
vn -0.287735 -0.829402 -0.478855
vn -0.000000 0.000000 -1.000000
vn 0.000000 0.000000 -1.000000
vn -0.000000 0.000000 -1.000000
vn 1.000000 -0.000000 -0.000000
vn 1.000000 -0.000000 -0.000000
vn 1.000000 -0.000000 -0.000000
vn 0.000000 -1.000000 0.000000
vn -0.000000 -1.000000 0.000000
vn 0.000000 -1.000000 0.000000
s off
f 1/1/1 2/6/2 6/2/3
f 6/2/4 2/6/5 5/3/6
f 5/3/7 2/6/8 4/4/9
f 4/4/10 2/6/11 3/5/12
f 1/1/13 7/7/14 2/6/15
f 2/6/16 7/7/17 3/5/18
f 3/5/19 7/7/20 4/4/21
f 4/4/22 7/7/23 5/3/24
f 5/3/25 7/7/26 6/2/27
f 6/2/28 7/7/29 1/1/30
f 8/8/31 10/11/32 11/10/33 9/9/34
f 10/11/35 12/13/36 13/12/37 11/10/38
f 14/21/39 8/58/40 9/27/41 15/22/42
f 9/9/43 11/10/44 13/12/45 15/15/46
f 14/14/47 12/13/48 10/11/49 8/8/50
f 16/29/51 18/32/52 19/31/53 17/30/54
f 18/32/55 12/34/56 20/33/57 19/31/58
f 13/35/59 16/29/60 17/30/61 21/36/62
f 17/30/63 19/31/64 20/33/65 21/36/66
f 13/35/67 12/34/68 18/32/69 16/29/70
f 22/43/71 24/46/72 25/45/73 23/44/74
f 24/46/75 13/48/76 21/47/77 25/45/78
f 15/49/79 22/43/80 23/44/81 26/50/82
f 23/44/83 25/45/84 21/47/85 26/50/86
f 15/49/87 13/48/88 24/46/89 22/43/90
f 27/19/91 20/24/92 12/20/93
f 26/18/94 27/56/95 15/23/96
f 20/24/97 27/19/98 21/25/99
f 28/37/100 29/42/101 33/38/102
f 33/38/103 29/42/104 32/39/105
f 32/39/106 29/42/107 31/40/108
f 31/40/109 29/42/110 30/41/111
f 28/37/112 34/17/113 29/42/114
f 29/42/115 34/17/116 30/41/117
f 30/41/118 34/17/119 31/40/120
f 31/40/121 34/17/122 32/39/123
f 32/39/124 34/17/125 33/38/126
f 33/38/127 34/17/128 28/37/129
f 35/51/130 36/28/131 40/52/132
f 40/52/133 36/28/134 39/53/135
f 39/53/136 36/28/137 38/54/138
f 38/54/139 36/28/140 37/55/141
f 35/51/142 41/16/143 36/28/144
f 36/28/145 41/16/146 37/55/147
f 37/55/148 41/16/149 38/54/150
f 38/54/151 41/16/152 39/53/153
f 39/53/154 41/16/155 40/52/156
f 40/52/157 41/16/158 35/51/159
f 27/56/160 26/18/161 21/57/162
f 14/21/163 27/26/164 12/59/165
f 27/26/166 14/21/167 15/22/168
