# This file uses meters as units for non-parametric coordinates.

v 3.172603 16.588697 -5.495108
v -3.172601 16.588697 -5.495108
v -6.345203 16.588697 -0.000001
v -3.172603 16.588697 5.495108
v 3.172602 16.588697 5.495108
v 6.345203 16.588697 0.000000
v 2.453316 -26.352448 -4.249265
v -2.453315 -26.352448 -4.249267
v 0.000000 -28.540323 -0.000000
v -4.906629 -26.352448 -0.000001
v -2.453315 -26.352448 4.249266
v 2.453315 -26.352448 4.249266
v 4.906629 -26.352448 -0.000000
v 4.529662 17.688236 -7.845601
v -4.529658 17.688236 -7.845602
v -9.059319 17.688236 -0.000001
v -4.529661 17.688236 7.845602
v 4.529659 17.688236 7.845602
v 9.059319 17.688236 0.000000
v 4.529662 19.534603 -7.845601
v -4.529658 19.534603 -7.845602
v -9.059319 19.534603 -0.000001
v -4.529661 19.534603 7.845602
v 4.529659 19.534603 7.845602
v 9.059319 19.534603 0.000000
v 2.335255 20.380711 -4.044779
v -2.335253 20.380711 -4.044780
v -4.670509 20.380711 -0.000001
v -2.335255 20.380711 4.044780
v 2.335254 20.380711 4.044780
v 4.670509 20.380711 0.000000
v 3.393887 28.364864 -5.969937
v -3.478612 28.540323 -5.908653
v -0.000000 28.037487 0.000000
v -6.872500 28.212944 0.061283
v -3.393886 27.710106 5.969938
v 3.478615 27.534645 5.908653
v 6.872500 27.862028 -0.061284
v 3.172602 6.027108 5.495108
v -3.172603 6.027108 5.495108
v -6.345203 6.027108 -0.000001
v -3.172601 6.027108 -5.495108
v 3.172603 6.027108 -5.495108
v 6.345203 6.027108 0.000000
v -3.253108 -22.368271 5.646437
v 3.251736 -22.368271 5.646437
v 6.504158 -22.368271 0.013076
v 3.251739 -22.368271 -5.620283
v -3.253107 -22.368271 -5.620285
v -6.505528 -22.368271 0.013075
vt 0.247919 0.304255
vt 0.369622 0.449386
vt 0.369622 0.449386
vt 0.369622 0.449386
vt 0.369622 0.449386
vt 0.369622 0.449386
vt 0.369622 0.449386
vt 0.369622 0.449386
vt 0.369622 0.449386
vt 0.369622 0.449386
vt 0.369622 0.449386
vt 0.369622 0.449386
vt 0.369622 0.449386
vt 0.369622 0.449386
vt 0.247919 0.304255
vt 0.218633 0.304255
vt 0.247919 0.304255
vt 0.247919 0.304255
vt 0.247919 0.304255
vt 0.247919 0.304255
vt 0.247919 0.304255
vt 0.369622 0.449386
vt 0.369622 0.449386
vt 0.369622 0.449386
vt 0.369622 0.449386
vt 0.369622 0.449386
vt 0.369622 0.449386
vt 0.369622 0.449386
vt 0.369622 0.449386
vt 0.369622 0.449386
vt 0.369622 0.449386
vt 0.369622 0.449386
vt 0.369622 0.449386
vt 0.369622 0.449386
vt 0.369622 0.449386
vt 0.369622 0.449386
vt 0.369622 0.449386
vt 0.369622 0.449386
vt 0.369622 0.449386
vt 0.218633 0.304255
vt 0.218633 0.304255
vt 0.218633 0.304255
vt 0.218633 0.304255
vt 0.218633 0.304255
vt 0.218633 0.304255
vt 0.218633 0.304255
vt 0.218633 0.304255
vt 0.218633 0.304255
vt 0.218633 0.304255
vt 0.218633 0.304255
vt 0.218633 0.304255
vt 0.249221 0.302953
vt 0.249221 0.302953
vt 0.249221 0.302953
vt 0.369622 0.449386
vt 0.369622 0.449386
vt 0.369622 0.449386
vt 0.369622 0.449386
vt 0.369622 0.449386
vt 0.369622 0.449386
vt 0.369622 0.449386
vt 0.249221 0.302953
vt 0.249221 0.302953
vt 0.249221 0.302953
vt 0.247919 0.304255
vt 0.247919 0.304255
vt 0.247919 0.304255
vt 0.247919 0.304255
vt 0.247919 0.304255
vt 0.247919 0.304255
vn 0.000000 0.004408 -0.999990
vn 0.000000 0.004408 -0.999990
vn 0.000000 0.004408 -0.999990
vn 0.000000 0.004408 -0.999990
vn -0.866016 0.004659 -0.499995
vn -0.866016 0.004659 -0.499995
vn -0.866016 0.004659 -0.499995
vn -0.866016 0.004659 -0.499995
vn -0.866014 0.005120 0.499993
vn -0.866014 0.005120 0.499993
vn -0.866014 0.005120 0.499993
vn -0.866014 0.005120 0.499993
vn 0.000000 0.005329 0.999986
vn 0.000000 0.005329 0.999986
vn 0.000000 0.005329 0.999986
vn 0.000000 0.005329 0.999986
vn 0.866014 0.005078 0.499994
vn 0.866014 0.005078 0.499994
vn 0.866014 0.005078 0.499994
vn 0.866014 0.005078 0.499994
vn 0.866016 0.004618 -0.499995
vn 0.866016 0.004618 -0.499995
vn 0.866016 0.004618 -0.499995
vn 0.866016 0.004618 -0.499995
vn 0.000000 -0.889072 -0.457768
vn 0.000000 -0.889072 -0.457768
vn 0.000000 -0.889072 -0.457768
vn -0.396439 -0.889072 -0.228884
vn -0.396439 -0.889072 -0.228884
vn -0.396439 -0.889072 -0.228884
vn -0.396439 -0.889071 0.228885
vn -0.396439 -0.889072 0.228885
vn -0.396439 -0.889071 0.228885
vn 0.000000 -0.889072 0.457767
vn 0.000000 -0.889072 0.457767
vn 0.000000 -0.889072 0.457768
vn 0.396439 -0.889072 0.228884
vn 0.396439 -0.889072 0.228884
vn 0.396439 -0.889072 0.228884
vn 0.396439 -0.889072 -0.228884
vn 0.396439 -0.889072 -0.228884
vn 0.396439 -0.889072 -0.228884
vn 0.026080 0.997240 0.069512
vn 0.026080 0.997240 0.069512
vn 0.026080 0.997240 0.069512
vn 0.026080 0.997240 0.069513
vn 0.026080 0.997240 0.069513
vn 0.026080 0.997240 0.069513
vn 0.026080 0.997240 0.069513
vn 0.026080 0.997240 0.069513
vn 0.026080 0.997240 0.069513
vn 0.026080 0.997240 0.069514
vn 0.026080 0.997240 0.069514
vn 0.026080 0.997240 0.069514
vn 0.026080 0.997240 0.069513
vn 0.026080 0.997240 0.069513
vn 0.026080 0.997240 0.069513
vn 0.026080 0.997240 0.069513
vn 0.026080 0.997240 0.069513
vn 0.026080 0.997240 0.069513
vn 0.000000 -0.905793 -0.423721
vn 0.000000 -0.905793 -0.423721
vn 0.000000 -0.905793 -0.423721
vn 0.000000 -0.905793 -0.423721
vn -0.366953 -0.905793 -0.211861
vn -0.366953 -0.905793 -0.211861
vn -0.366953 -0.905793 -0.211861
vn -0.366953 -0.905793 -0.211861
vn -0.366953 -0.905793 0.211861
vn -0.366953 -0.905793 0.211860
vn -0.366953 -0.905793 0.211860
vn -0.366953 -0.905793 0.211861
vn 0.000000 -0.905793 0.423721
vn 0.000000 -0.905793 0.423721
vn 0.000000 -0.905793 0.423721
vn 0.000000 -0.905793 0.423721
vn 0.366953 -0.905793 0.211861
vn 0.366953 -0.905793 0.211861
vn 0.366953 -0.905793 0.211861
vn 0.366953 -0.905793 0.211861
vn 0.366953 -0.905793 -0.211861
vn 0.366953 -0.905793 -0.211861
vn 0.366953 -0.905793 -0.211861
vn 0.366953 -0.905793 -0.211861
vn 0.000000 0.000000 -1.000000
vn 0.000000 0.000000 -1.000000
vn 0.000000 0.000000 -1.000000
vn 0.000000 0.000000 -1.000000
vn -0.866026 0.000000 -0.500000
vn -0.866026 0.000000 -0.500000
vn -0.866026 0.000000 -0.500000
vn -0.866026 0.000000 -0.500000
vn -0.866026 0.000000 0.500000
vn -0.866026 0.000000 0.500000
vn -0.866026 0.000000 0.500000
vn -0.866026 0.000000 0.500000
vn 0.000000 0.000000 1.000000
vn 0.000000 0.000000 1.000000
vn 0.000000 0.000000 1.000000
vn 0.000000 0.000000 1.000000
vn 0.866025 0.000000 0.500000
vn 0.866025 0.000000 0.500000
vn 0.866025 0.000000 0.500000
vn 0.866025 0.000000 0.500000
vn 0.866026 0.000000 -0.500000
vn 0.866026 0.000000 -0.500000
vn 0.866026 0.000000 -0.500000
vn 0.866026 0.000000 -0.500000
vn 0.000000 0.976107 -0.217292
vn 0.000000 0.976107 -0.217292
vn 0.000000 0.976107 -0.217292
vn 0.000000 0.976107 -0.217292
vn -0.188181 0.976106 -0.108647
vn -0.188181 0.976106 -0.108647
vn -0.188181 0.976106 -0.108647
vn -0.188181 0.976107 -0.108647
vn -0.188181 0.976107 0.108646
vn -0.188181 0.976107 0.108646
vn -0.188181 0.976107 0.108646
vn -0.188181 0.976107 0.108646
vn 0.000000 0.976107 0.217292
vn 0.000000 0.976107 0.217292
vn 0.000000 0.976107 0.217292
vn 0.000000 0.976107 0.217292
vn 0.188181 0.976106 0.108646
vn 0.188181 0.976106 0.108646
vn 0.188181 0.976106 0.108646
vn 0.188181 0.976106 0.108646
vn 0.188181 0.976107 -0.108646
vn 0.188181 0.976107 -0.108646
vn 0.188181 0.976107 -0.108646
vn 0.188181 0.976107 -0.108646
vn -0.008642 -0.228531 -0.973498
vn -0.008642 -0.228531 -0.973498
vn -0.008642 -0.228531 -0.973498
vn -0.008642 -0.228531 -0.973498
vn -0.841235 -0.231076 -0.488801
vn -0.841235 -0.231076 -0.488801
vn -0.841235 -0.231076 -0.488801
vn -0.841235 -0.231076 -0.488801
vn -0.842688 -0.244100 0.479888
vn -0.842688 -0.244100 0.479888
vn -0.842688 -0.244100 0.479888
vn -0.842688 -0.244100 0.479888
vn 0.001289 -0.253102 0.967439
vn 0.001289 -0.253102 0.967439
vn 0.001289 -0.253102 0.967439
vn 0.001289 -0.253102 0.967439
vn 0.843670 -0.251281 0.474425
vn 0.843669 -0.251281 0.474425
vn 0.843669 -0.251281 0.474425
vn 0.843669 -0.251281 0.474425
vn 0.832999 -0.239674 -0.498668
vn 0.832999 -0.239674 -0.498668
vn 0.832999 -0.239674 -0.498668
vn 0.832999 -0.239674 -0.498668
vn 0.000000 0.000000 1.000000
vn 0.000000 0.000000 1.000000
vn 0.000000 0.000000 1.000000
vn 0.000000 0.000000 1.000000
vn -0.866026 0.000000 0.500000
vn -0.866026 0.000000 0.500000
vn -0.866026 0.000000 0.500000
vn -0.866026 0.000000 0.500000
vn -0.866025 0.000000 -0.500000
vn -0.866025 0.000000 -0.500000
vn -0.866025 0.000000 -0.500000
vn -0.866025 0.000000 -0.500000
vn 0.000000 0.000000 -1.000000
vn 0.000000 0.000000 -1.000000
vn 0.000000 0.000000 -1.000000
vn 0.000000 0.000000 -1.000000
vn 0.866026 0.000000 -0.500000
vn 0.866026 0.000000 -0.500000
vn 0.866026 0.000000 -0.500000
vn 0.866026 0.000000 -0.500000
vn 0.866025 0.000000 0.500000
vn 0.866025 0.000000 0.500000
vn 0.866025 0.000000 0.500000
vn 0.866025 0.000000 0.500000
vn 0.000000 -0.330922 0.943658
vn 0.000000 -0.330922 0.943658
vn 0.000000 -0.330922 0.943658
vn 0.000000 -0.330922 0.943658
vn 0.817688 -0.329417 0.472092
vn 0.817688 -0.329417 0.472092
vn 0.817688 -0.329417 0.472092
vn 0.817688 -0.329417 0.472092
vn 0.818520 -0.326650 -0.472573
vn 0.818520 -0.326650 -0.472573
vn 0.818520 -0.326650 -0.472573
vn 0.818520 -0.326650 -0.472573
vn 0.000000 -0.325389 -0.945580
vn 0.000000 -0.325389 -0.945580
vn 0.000000 -0.325389 -0.945580
vn 0.000000 -0.325389 -0.945580
vn -0.818445 -0.326901 -0.472529
vn -0.818445 -0.326901 -0.472529
vn -0.818445 -0.326901 -0.472529
vn -0.818445 -0.326901 -0.472529
vn -0.817612 -0.329667 0.472048
vn -0.817612 -0.329667 0.472048
vn -0.817612 -0.329667 0.472048
vn -0.817612 -0.329667 0.472048
s off
f 43/53/1 48/68/2 49/69/3 42/52/4
f 42/52/5 49/69/6 50/70/7 41/54/8
f 41/54/9 50/70/10 45/65/11 40/62/12
f 40/62/13 45/65/14 46/66/15 39/63/16
f 39/63/17 46/66/18 47/67/19 44/64/20
f 44/64/21 47/67/22 48/68/23 43/53/24
f 8/1/25 7/15/26 9/17/27
f 10/18/28 8/1/29 9/17/30
f 11/19/31 10/18/32 9/17/33
f 12/20/34 11/19/35 9/17/36
f 13/21/37 12/20/38 9/17/39
f 7/15/40 13/21/41 9/17/42
f 32/16/43 33/40/44 34/41/45
f 33/40/46 35/42/47 34/41/48
f 35/42/49 36/43/50 34/41/51
f 36/43/52 37/44/53 34/41/54
f 37/44/55 38/45/56 34/41/57
f 38/45/58 32/16/59 34/41/60
f 1/13/61 2/12/62 15/23/63 14/22/64
f 2/12/65 3/11/66 16/24/67 15/23/68
f 3/11/69 4/10/70 17/25/71 16/24/72
f 4/10/73 5/9/74 18/26/75 17/25/76
f 5/9/77 6/14/78 19/27/79 18/26/80
f 6/14/81 1/13/82 14/22/83 19/27/84
f 14/22/85 15/23/86 21/29/87 20/28/88
f 15/23/89 16/24/90 22/30/91 21/29/92
f 16/24/93 17/25/94 23/31/95 22/30/96
f 17/25/97 18/26/98 24/32/99 23/31/100
f 18/26/101 19/27/102 25/33/103 24/32/104
f 19/27/105 14/22/106 20/28/107 25/33/108
f 20/28/109 21/29/110 27/35/111 26/34/112
f 21/29/113 22/30/114 28/36/115 27/35/116
f 22/30/117 23/31/118 29/37/119 28/36/120
f 23/31/121 24/32/122 30/38/123 29/37/124
f 24/32/125 25/33/126 31/39/127 30/38/128
f 25/33/129 20/28/130 26/34/131 31/39/132
f 26/46/133 27/47/134 33/40/135 32/16/136
f 27/47/137 28/48/138 35/42/139 33/40/140
f 28/48/141 29/49/142 36/43/143 35/42/144
f 29/49/145 30/50/146 37/44/147 36/43/148
f 30/50/149 31/51/150 38/45/151 37/44/152
f 31/51/153 26/46/154 32/16/155 38/45/156
f 40/56/157 39/55/158 5/6/159 4/5/160
f 41/57/161 40/56/162 4/5/163 3/4/164
f 42/58/165 41/57/166 3/4/167 2/3/168
f 43/60/169 42/58/170 2/3/171 1/2/172
f 44/61/173 43/59/174 1/8/175 6/7/176
f 39/55/177 44/61/178 6/7/179 5/6/180
f 12/20/181 46/66/182 45/65/183 11/19/184
f 13/21/185 47/67/186 46/66/187 12/20/188
f 7/15/189 48/68/190 47/67/191 13/21/192
f 8/1/193 49/69/194 48/68/195 7/15/196
f 10/18/197 50/70/198 49/69/199 8/1/200
f 45/65/201 50/70/202 10/18/203 11/19/204
