# This file uses meters as units for non-parametric coordinates.

v 13.262741 -8.072477 2.501011
v 15.799750 -24.369493 2.501011
v 0.012663 -17.678297 2.501011
v -15.862101 -24.336708 2.501011
v -13.217514 -8.045059 2.501011
v -25.614975 5.785641 2.501011
v -8.144129 7.514421 2.501011
v 0.019269 24.369495 2.501011
v 8.221592 7.497476 2.501011
v 25.614975 5.732601 2.501011
v 13.262741 -8.072477 -2.501010
v 15.799750 -24.369493 -2.501010
v 0.012663 -17.678297 -2.501010
v -15.862101 -24.336708 -2.501010
v -13.217514 -8.045059 -2.501010
v -25.614975 5.785641 -2.501010
v -8.144129 7.514421 -2.501010
v 0.019269 24.369495 -2.501010
v 8.221592 7.497476 -2.501010
v 25.614975 5.732601 -2.501010
v -0.008616 -2.563693 5.461217
v -0.008616 -2.563693 -5.461216
vt 0.048412 0.213334
vt 0.048412 0.213334
vt 0.048412 0.213334
vt 0.048412 0.213334
vt 0.048412 0.213334
vt 0.048412 0.213334
vt 0.048412 0.213334
vt 0.048412 0.213334
vt 0.048412 0.213334
vt 0.048412 0.213334
vt 0.048412 0.213334
vt 0.048412 0.213334
vt 0.048412 0.213334
vt 0.048412 0.213334
vt 0.048412 0.213334
vt 0.048412 0.213334
vt 0.048412 0.213334
vt 0.048412 0.213334
vt 0.048412 0.213334
vt 0.048412 0.213334
vt 0.048412 0.213334
vt 0.048412 0.213334
vt 0.048412 0.213334
vt 0.048412 0.213334
vt 0.048412 0.213334
vt 0.048412 0.213334
vt 0.048412 0.213334
vt 0.048412 0.213334
vt 0.048412 0.213334
vt 0.048412 0.213334
vt 0.048412 0.213334
vt 0.048412 0.213334
vt 0.048412 0.213334
vt 0.048412 0.213334
vt 0.048412 0.213334
vt 0.048412 0.213334
vt 0.048412 0.213334
vt 0.048412 0.213334
vt 0.048412 0.213334
vt 0.048412 0.213334
vt 0.048412 0.213334
vt 0.048412 0.213334
vt 0.048412 0.213334
vt 0.048412 0.213334
vn 0.988099 0.153820 0.000000
vn 0.988099 0.153820 0.000000
vn 0.988099 0.153820 0.000000
vn 0.988099 0.153820 0.000000
vn -0.390236 -0.920715 0.000000
vn -0.390236 -0.920715 0.000000
vn -0.390236 -0.920715 0.000000
vn -0.390236 -0.920715 0.000000
vn 0.386789 -0.922168 0.000000
vn 0.386789 -0.922168 0.000000
vn 0.386789 -0.922168 0.000000
vn 0.386789 -0.922168 0.000000
vn -0.987080 0.160230 0.000000
vn -0.987080 0.160230 0.000000
vn -0.987080 0.160230 0.000000
vn -0.987080 0.160230 0.000000
vn -0.744636 -0.667471 0.000000
vn -0.744636 -0.667471 0.000000
vn -0.744636 -0.667471 0.000000
vn -0.744636 -0.667471 0.000000
vn -0.098471 0.995140 0.000000
vn -0.098471 0.995140 0.000000
vn -0.098471 0.995140 0.000000
vn -0.098471 0.995140 0.000000
vn -0.899998 0.435895 0.000000
vn -0.899998 0.435895 0.000000
vn -0.899998 0.435895 0.000000
vn -0.899998 0.435895 0.000000
vn 0.899354 0.437221 0.000000
vn 0.899354 0.437221 0.000000
vn 0.899354 0.437221 0.000000
vn 0.899354 0.437221 0.000000
vn 0.100950 0.994892 0.000000
vn 0.100950 0.994892 0.000000
vn 0.100950 0.994892 0.000000
vn 0.100950 0.994892 0.000000
vn 0.745233 -0.666804 0.000000
vn 0.745233 -0.666804 0.000000
vn 0.745233 -0.666804 0.000000
vn 0.745233 -0.666804 0.000000
vn 0.231806 0.036086 0.972092
vn 0.231806 0.036086 0.972092
vn 0.231806 0.036086 0.972092
vn -0.081239 -0.191674 0.978091
vn -0.081239 -0.191674 0.978091
vn -0.081239 -0.191674 0.978091
vn 0.080309 -0.191470 0.978208
vn 0.080309 -0.191470 0.978207
vn 0.080309 -0.191470 0.978207
vn -0.233475 0.037899 0.971624
vn -0.233475 0.037899 0.971624
vn -0.233475 0.037899 0.971624
vn -0.159553 -0.143019 0.976775
vn -0.159553 -0.143019 0.976775
vn -0.159553 -0.143019 0.976775
vn -0.025963 0.262375 0.964617
vn -0.025963 0.262375 0.964617
vn -0.025963 0.262375 0.964617
vn -0.220487 0.106788 0.969527
vn -0.220487 0.106788 0.969527
vn -0.220487 0.106788 0.969527
vn 0.218821 0.106380 0.969949
vn 0.218821 0.106380 0.969949
vn 0.218821 0.106380 0.969949
vn 0.026592 0.262076 0.964681
vn 0.026592 0.262076 0.964681
vn 0.026592 0.262076 0.964681
vn 0.158905 -0.142182 0.977002
vn 0.158905 -0.142182 0.977002
vn 0.158905 -0.142182 0.977002
vn 0.231806 0.036086 -0.972092
vn 0.231806 0.036086 -0.972092
vn 0.231806 0.036086 -0.972092
vn -0.081239 -0.191674 -0.978091
vn -0.081239 -0.191674 -0.978091
vn -0.081239 -0.191674 -0.978091
vn 0.080309 -0.191470 -0.978207
vn 0.080309 -0.191470 -0.978208
vn 0.080309 -0.191470 -0.978208
vn -0.233475 0.037899 -0.971624
vn -0.233475 0.037899 -0.971624
vn -0.233475 0.037899 -0.971624
vn -0.159553 -0.143019 -0.976775
vn -0.159553 -0.143019 -0.976775
vn -0.159553 -0.143019 -0.976775
vn -0.025963 0.262375 -0.964617
vn -0.025963 0.262375 -0.964617
vn -0.025963 0.262375 -0.964617
vn -0.220487 0.106788 -0.969527
vn -0.220487 0.106788 -0.969527
vn -0.220487 0.106788 -0.969527
vn 0.218821 0.106380 -0.969949
vn 0.218821 0.106380 -0.969949
vn 0.218821 0.106380 -0.969949
vn 0.026592 0.262076 -0.964681
vn 0.026592 0.262076 -0.964681
vn 0.026592 0.262076 -0.964681
vn 0.158905 -0.142182 -0.977002
vn 0.158905 -0.142182 -0.977002
vn 0.158905 -0.142182 -0.977002
s off
f 1/1/1 2/2/2 12/3/3 11/4/4
f 2/2/5 3/5/6 13/6/7 12/3/8
f 3/5/9 4/7/10 14/8/11 13/6/12
f 4/7/13 5/9/14 15/10/15 14/8/16
f 5/9/17 6/11/18 16/12/19 15/10/20
f 6/11/21 7/13/22 17/14/23 16/12/24
f 7/13/25 8/15/26 18/16/27 17/14/28
f 8/15/29 9/17/30 19/18/31 18/16/32
f 9/17/33 10/19/34 20/20/35 19/18/36
f 10/19/37 1/21/38 11/22/39 20/20/40
f 2/23/41 1/24/42 21/25/43
f 3/26/44 2/23/45 21/25/46
f 4/27/47 3/26/48 21/25/49
f 5/28/50 4/27/51 21/25/52
f 6/29/53 5/28/54 21/25/55
f 7/30/56 6/29/57 21/25/58
f 8/31/59 7/30/60 21/25/61
f 9/32/62 8/31/63 21/25/64
f 10/33/65 9/32/66 21/25/67
f 1/24/68 10/33/69 21/25/70
f 11/34/71 12/35/72 22/36/73
f 12/35/74 13/37/75 22/36/76
f 13/37/77 14/38/78 22/36/79
f 14/38/80 15/39/81 22/36/82
f 15/39/83 16/40/84 22/36/85
f 16/40/86 17/41/87 22/36/88
f 17/41/89 18/42/90 22/36/91
f 18/42/92 19/43/93 22/36/94
f 19/43/95 20/44/96 22/36/97
f 20/44/98 11/34/99 22/36/100
