# This file uses meters as units for non-parametric coordinates.

v -4.170208 -10.351042 -1.500966
v 4.170208 -10.351042 -1.500966
v -4.170208 -0.351042 -1.500966
v 4.170208 -0.351042 -1.500966
v -8.820972 -0.351042 -1.500966
v 8.820972 -0.351042 -1.500966
v 0.000000 10.351043 -1.500966
v 8.820972 -0.351042 1.500966
v 0.000000 10.351043 1.500966
v 4.170208 -0.351042 1.500966
v -4.170208 -0.351042 1.500966
v -8.820972 -0.351042 1.500966
v -4.170208 -10.351042 1.500966
v 4.170208 -10.351042 1.500966
vt 0.247795 0.302644
vt 0.247795 0.302644
vt 0.247795 0.302644
vt 0.247795 0.302644
vt 0.247795 0.302644
vt 0.247795 0.302644
vt 0.247795 0.302644
vt 0.247795 0.302644
vt 0.247795 0.302644
vt 0.247795 0.302644
vt 0.247795 0.302644
vt 0.247795 0.302644
vt 0.247795 0.302644
vt 0.247795 0.302644
vt 0.247795 0.302644
vt 0.247795 0.302644
vt 0.247795 0.302644
vt 0.247795 0.302644
vt 0.247795 0.302644
vt 0.247795 0.302644
vt 0.247795 0.302644
vn 0.000000 0.000000 1.000000
vn 0.000000 0.000000 1.000000
vn 0.000000 0.000000 1.000000
vn 0.000000 0.000000 1.000000
vn 0.000000 0.000000 1.000000
vn 0.000000 0.000000 1.000000
vn 0.000000 0.000000 1.000000
vn 0.000000 0.000000 1.000000
vn 0.000000 0.000000 1.000000
vn 0.000000 0.000000 1.000000
vn 0.000000 0.000000 1.000000
vn 0.000000 0.000000 1.000000
vn 0.000000 0.000000 1.000000
vn 0.000000 0.000000 1.000000
vn 0.000000 0.000000 1.000000
vn 0.000000 0.000000 -1.000000
vn 0.000000 0.000000 -1.000000
vn 0.000000 0.000000 -1.000000
vn 0.000000 0.000000 -1.000000
vn 0.000000 0.000000 -1.000000
vn 0.000000 0.000000 -1.000000
vn 0.000000 0.000000 -1.000000
vn 0.000000 0.000000 -1.000000
vn 0.000000 0.000000 -1.000000
vn 0.000000 0.000000 -1.000000
vn 0.000000 0.000000 -1.000000
vn 0.000000 0.000000 -1.000000
vn 0.000000 0.000000 -1.000000
vn 0.000000 0.000000 -1.000000
vn 0.000000 0.000000 -1.000000
vn 0.771665 0.636029 0.000000
vn 0.771665 0.636029 0.000000
vn 0.771665 0.636029 0.000000
vn 0.771665 0.636029 0.000000
vn 0.000000 -1.000000 0.000000
vn 0.000000 -1.000000 0.000000
vn 0.000000 -1.000000 0.000000
vn 0.000000 -1.000000 0.000000
vn 0.000000 -1.000000 0.000000
vn 0.000000 -1.000000 0.000000
vn 0.000000 -1.000000 0.000000
vn 0.000000 -1.000000 0.000000
vn -0.771665 0.636029 0.000000
vn -0.771665 0.636029 0.000000
vn -0.771665 0.636029 0.000000
vn -0.771665 0.636029 0.000000
vn -1.000000 0.000000 0.000000
vn -1.000000 0.000000 0.000000
vn -1.000000 0.000000 0.000000
vn -1.000000 0.000000 0.000000
vn 0.000000 -1.000000 0.000000
vn 0.000000 -1.000000 0.000000
vn 0.000000 -1.000000 0.000000
vn 0.000000 -1.000000 0.000000
vn 1.000000 0.000000 0.000000
vn 1.000000 0.000000 0.000000
vn 1.000000 0.000000 0.000000
vn 1.000000 0.000000 0.000000
s off
f 8/15/1 9/16/2 10/17/3
f 12/18/4 11/19/5 9/16/6
f 9/16/7 11/19/8 10/17/9
f 11/19/10 13/20/11 10/17/12
f 13/20/13 14/21/14 10/17/15
f 6/8/16 4/10/17 7/9/18
f 5/11/19 7/9/20 3/12/21
f 7/9/22 4/10/23 3/12/24
f 3/12/25 4/10/26 1/13/27
f 1/13/28 4/10/29 2/14/30
f 6/6/31 7/7/32 9/16/33 8/15/34
f 4/4/35 6/6/36 8/15/37 10/17/38
f 5/5/39 3/3/40 11/19/41 12/18/42
f 7/7/43 5/5/44 12/18/45 9/16/46
f 3/3/47 1/1/48 13/20/49 11/19/50
f 1/1/51 2/2/52 14/21/53 13/20/54
f 2/2/55 4/4/56 10/17/57 14/21/58
