# This file uses meters as units for non-parametric coordinates.

v -2.077262 -3.852541 88.015518
v 2.077262 -3.852541 88.015518
v -10.703707 3.093955 2.705049
v 10.703707 3.093955 2.705049
v -22.640862 3.093955 2.705049
v 22.640862 3.093955 2.705049
v 0.000000 -3.852541 -24.764080
v 22.640862 10.799038 0.901023
v 0.000000 3.852541 -26.568108
v 10.703707 10.799038 0.901023
v -10.703707 10.799038 0.901023
v -22.640862 10.799038 0.901023
v -2.077262 3.852541 89.658478
v 2.077262 3.852541 89.658478
v -9.471358 13.527309 13.580657
v -9.471358 5.822225 13.580657
v 9.471358 5.822225 13.580657
v 9.471358 13.527309 13.580657
v -8.239009 14.714392 26.260296
v -8.239009 7.009310 26.260294
v 8.239009 7.009310 26.260294
v 8.239009 14.714392 26.260296
v -7.006660 14.871742 38.939930
v -7.006660 7.166659 38.939930
v 7.006660 7.166659 38.939930
v 7.006660 14.871742 38.939930
v -5.774310 14.120502 51.619564
v -5.774310 6.415420 51.619564
v 5.774310 6.415420 51.619564
v 5.774310 14.120502 51.619564
v -4.541960 11.372442 64.299202
v -4.541960 3.667359 64.299194
v 4.541960 3.667359 64.299194
v 4.541960 11.372442 64.299202
v -3.309611 8.016241 76.978836
v -3.309611 0.311158 76.978836
v 3.309611 0.311158 76.978836
v 3.309611 8.016241 76.978836
vt 0.247795 0.302644
vt 0.247795 0.302644
vt 0.247795 0.302644
vt 0.247795 0.302644
vt 0.247795 0.302644
vt 0.247795 0.302644
vt 0.247795 0.302644
vt 0.247795 0.302644
vt 0.247795 0.302644
vt 0.247795 0.302644
vt 0.247795 0.302644
vt 0.247795 0.302644
vt 0.247795 0.302644
vt 0.247795 0.302644
vt 0.247795 0.302644
vt 0.247795 0.302644
vt 0.247795 0.302644
vt 0.247795 0.302644
vt 0.247795 0.302644
vt 0.247795 0.302644
vt 0.247795 0.302644
vt 0.247795 0.302644
vt 0.247795 0.302644
vt 0.247795 0.302644
vt 0.247795 0.302644
vt 0.247795 0.302644
vt 0.247795 0.302644
vt 0.247795 0.302644
vt 0.247795 0.302644
vt 0.247795 0.302644
vt 0.247795 0.302644
vt 0.247795 0.302644
vt 0.247795 0.302644
vt 0.247795 0.302644
vt 0.247795 0.302644
vt 0.247795 0.302644
vt 0.247795 0.302644
vt 0.247795 0.302644
vt 0.247795 0.302644
vt 0.247795 0.302644
vt 0.247795 0.302644
vt 0.247795 0.302644
vt 0.247795 0.302644
vt 0.247795 0.302644
vt 0.247795 0.302644
vt 0.247795 0.302644
vt 0.247795 0.302644
vt 0.247795 0.302644
vt 0.247795 0.302644
vt 0.247795 0.302644
vt 0.247795 0.302644
vt 0.247795 0.302644
vt 0.247795 0.302644
vt 0.247795 0.302644
vt 0.247795 0.302644
vt 0.247795 0.302644
vt 0.247795 0.302644
vn 0.000000 0.969481 -0.245166
vn 0.000000 0.969481 -0.245166
vn 0.000000 0.969481 -0.245166
vn 0.000000 0.969481 -0.245166
vn 0.000000 0.969481 -0.245166
vn 0.000000 0.969481 -0.245166
vn 0.000000 0.969481 -0.245166
vn 0.000000 0.969481 -0.245166
vn 0.000000 0.969481 -0.245166
vn 0.000000 0.950087 0.311986
vn 0.000000 0.950087 0.311986
vn 0.000000 0.950087 0.311986
vn 0.000000 0.950087 0.311986
vn 0.000000 -0.969481 0.245166
vn 0.000000 -0.969481 0.245166
vn 0.000000 -0.969481 0.245166
vn 0.000000 -0.969481 0.245166
vn 0.000000 -0.969481 0.245166
vn 0.000000 -0.969481 0.245166
vn 0.000000 -0.969481 0.245166
vn 0.000000 -0.969481 0.245166
vn 0.000000 -0.969481 0.245166
vn 0.000000 -0.935632 -0.352977
vn 0.000000 -0.935632 -0.352977
vn 0.000000 -0.935632 -0.352977
vn 0.000000 -0.935632 -0.352977
vn 0.781174 -0.142324 -0.607875
vn 0.781174 -0.142324 -0.607875
vn 0.781174 -0.142324 -0.607875
vn 0.781174 -0.142324 -0.607875
vn 0.000000 0.227969 0.973668
vn 0.000000 0.227969 0.973668
vn 0.000000 0.227969 0.973668
vn 0.000000 0.227969 0.973668
vn 0.000000 0.227969 0.973668
vn 0.000000 0.227969 0.973668
vn 0.000000 0.227969 0.973668
vn 0.000000 0.227969 0.973668
vn -0.781174 -0.142325 -0.607875
vn -0.781174 -0.142325 -0.607875
vn -0.781174 -0.142325 -0.607875
vn -0.781174 -0.142325 -0.607875
vn -0.994964 -0.010626 0.099670
vn -0.994964 -0.010626 0.099670
vn -0.994964 -0.010626 0.099670
vn -0.994964 -0.010626 0.099670
vn 0.000000 -0.208542 0.978013
vn 0.000000 -0.208542 0.978013
vn 0.000000 -0.208542 0.978013
vn 0.000000 -0.208542 0.978013
vn 0.994964 -0.010626 0.099670
vn 0.994964 -0.010626 0.099670
vn 0.994964 -0.010626 0.099670
vn 0.994964 -0.010626 0.099670
vn -0.994781 0.011864 0.101340
vn -0.994781 0.011864 0.101340
vn -0.994781 0.011864 0.101340
vn -0.994781 0.011864 0.101340
vn 0.000000 -0.969946 0.243322
vn 0.000000 -0.969946 0.243322
vn 0.000000 -0.969946 0.243322
vn 0.000000 -0.969946 0.243322
vn 0.994781 0.011864 0.101340
vn 0.994781 0.011864 0.101340
vn 0.994781 0.011864 0.101340
vn 0.994781 0.011864 0.101340
vn 0.000000 0.977625 -0.210355
vn 0.000000 0.977625 -0.210355
vn 0.000000 0.977625 -0.210355
vn 0.000000 0.977625 -0.210355
vn -0.995310 -0.000000 0.096735
vn -0.995310 -0.000000 0.096735
vn -0.995310 -0.000000 0.096735
vn -0.995310 -0.000000 0.096735
vn 0.000000 -0.995646 0.093214
vn 0.000000 -0.995646 0.093214
vn 0.000000 -0.995646 0.093214
vn 0.000000 -0.995646 0.093214
vn 0.995310 -0.000000 0.096735
vn 0.995310 -0.000000 0.096735
vn 0.995310 -0.000000 0.096735
vn 0.995310 -0.000000 0.096735
vn 0.000000 0.995646 -0.093214
vn 0.000000 0.995646 -0.093214
vn 0.000000 0.995646 -0.093214
vn 0.000000 0.995646 -0.093214
vn -0.995310 -0.000000 0.096735
vn -0.995310 -0.000000 0.096735
vn -0.995310 -0.000000 0.096735
vn -0.995310 -0.000000 0.096735
vn 0.000000 -0.999923 0.012409
vn 0.000000 -0.999923 0.012409
vn 0.000000 -0.999923 0.012409
vn 0.000000 -0.999923 0.012409
vn 0.995310 0.000000 0.096735
vn 0.995310 0.000000 0.096735
vn 0.995310 0.000000 0.096735
vn 0.995310 0.000000 0.096735
vn 0.000000 0.999923 -0.012409
vn 0.000000 0.999923 -0.012409
vn 0.000000 0.999923 -0.012409
vn 0.000000 0.999923 -0.012409
vn -0.995310 0.000000 0.096735
vn -0.995310 0.000000 0.096735
vn -0.995310 0.000000 0.096735
vn -0.995310 0.000000 0.096735
vn 0.000000 -0.998250 -0.059144
vn 0.000000 -0.998249 -0.059144
vn 0.000000 -0.998249 -0.059144
vn 0.000000 -0.998250 -0.059144
vn 0.995310 0.000000 0.096735
vn 0.995310 0.000000 0.096735
vn 0.995310 0.000000 0.096735
vn 0.995310 0.000000 0.096735
vn 0.000000 0.998250 0.059144
vn 0.000000 0.998250 0.059144
vn 0.000000 0.998249 0.059144
vn 0.000000 0.998249 0.059144
vn -0.995310 0.000000 0.096735
vn -0.995310 0.000000 0.096735
vn -0.995310 0.000000 0.096735
vn -0.995310 0.000000 0.096735
vn 0.000000 -0.977310 -0.211813
vn 0.000000 -0.977310 -0.211813
vn 0.000000 -0.977310 -0.211813
vn 0.000000 -0.977310 -0.211813
vn 0.995310 0.000000 0.096735
vn 0.995310 0.000000 0.096735
vn 0.995310 0.000000 0.096735
vn 0.995310 0.000000 0.096735
vn 0.000000 0.977310 0.211813
vn 0.000000 0.977310 0.211813
vn 0.000000 0.977310 0.211813
vn 0.000000 0.977310 0.211813
vn -0.995310 -0.000000 0.096735
vn -0.995310 -0.000000 0.096735
vn -0.995310 -0.000000 0.096735
vn -0.995310 -0.000000 0.096735
vn 0.000000 -0.966709 -0.255880
vn 0.000000 -0.966709 -0.255880
vn 0.000000 -0.966709 -0.255880
vn 0.000000 -0.966709 -0.255880
vn 0.995310 -0.000000 0.096735
vn 0.995310 -0.000000 0.096735
vn 0.995310 -0.000000 0.096735
vn 0.995310 -0.000000 0.096735
vn 0.000000 0.966708 0.255880
vn 0.000000 0.966708 0.255880
vn 0.000000 0.966708 0.255880
vn 0.000000 0.966708 0.255880
s off
f 8/15/1 9/16/2 10/17/3
f 12/18/4 11/19/5 9/16/6
f 9/16/7 11/19/8 10/17/9
f 38/57/10 35/52/11 13/20/12 14/21/13
f 6/8/14 4/10/15 7/9/16
f 5/11/17 7/9/18 3/12/19
f 7/9/20 4/10/21 3/12/22
f 37/56/23 2/14/24 1/13/25 36/53/26
f 6/6/27 7/7/28 9/16/29 8/15/30
f 4/4/31 6/6/32 8/15/33 10/17/34
f 5/5/35 3/3/36 11/19/37 12/18/38
f 7/7/39 5/5/40 12/18/41 9/16/42
f 36/54/43 1/1/44 13/20/45 35/52/46
f 1/1/47 2/2/48 14/21/49 13/20/50
f 2/2/51 37/55/52 38/57/53 14/21/54
f 3/3/55 16/24/56 15/22/57 11/19/58
f 4/10/59 17/26/60 16/23/61 3/12/62
f 18/27/63 17/25/64 4/4/65 10/17/66
f 10/17/67 11/19/68 15/22/69 18/27/70
f 16/24/71 20/30/72 19/28/73 15/22/74
f 17/26/75 21/32/76 20/29/77 16/23/78
f 22/33/79 21/31/80 17/25/81 18/27/82
f 18/27/83 15/22/84 19/28/85 22/33/86
f 20/30/87 24/36/88 23/34/89 19/28/90
f 21/32/91 25/38/92 24/35/93 20/29/94
f 26/39/95 25/37/96 21/31/97 22/33/98
f 22/33/99 19/28/100 23/34/101 26/39/102
f 24/36/103 28/42/104 27/40/105 23/34/106
f 25/38/107 29/44/108 28/41/109 24/35/110
f 30/45/111 29/43/112 25/37/113 26/39/114
f 26/39/115 23/34/116 27/40/117 30/45/118
f 28/42/119 32/48/120 31/46/121 27/40/122
f 29/44/123 33/50/124 32/47/125 28/41/126
f 34/51/127 33/49/128 29/43/129 30/45/130
f 30/45/131 27/40/132 31/46/133 34/51/134
f 32/48/135 36/54/136 35/52/137 31/46/138
f 33/50/139 37/56/140 36/53/141 32/47/142
f 38/57/143 37/55/144 33/49/145 34/51/146
f 34/51/147 31/46/148 35/52/149 38/57/150
