# This file uses meters as units for non-parametric coordinates.

v 4.621992 30.999079 -2.875900
v -4.611120 -32.540127 2.889252
v 4.251451 32.858688 2.669525
v 5.375261 30.928209 0.015488
v 0.025587 31.053051 3.377151
v -5.369499 -32.440956 0.038376
v -5.375263 31.178722 -0.034828
v 0.030260 -32.630772 3.372078
v -0.733652 33.456570 -2.929802
v 4.573526 -32.375446 -2.895584
v 5.365210 -32.525990 -0.025063
v -0.067663 -32.373650 -3.377075
v -4.605551 31.295755 -2.887268
v -4.628304 31.500957 2.906685
v 4.606543 -32.486008 2.891922
v -4.626930 -32.359512 -2.880020
v -15.322271 -25.747318 5.040016
v -17.306145 26.387405 4.505730
v 15.453901 26.514511 4.739494
v -18.149099 -1.988544 -4.827003
v 16.487801 -26.450558 -4.487534
v -16.225803 -26.244087 -4.738312
v 7.523508 -16.826630 -4.848671
v -8.286869 -16.684208 -4.814034
v -17.834463 24.994030 -4.487534
v 6.484499 18.913460 -4.929962
v 16.309731 27.013931 -4.443054
v -17.092314 -3.084965 4.505730
v 16.479006 4.689579 4.505730
v 7.409277 -16.821079 4.844475
v 6.955366 19.153900 5.203247
v -6.623716 19.451408 4.861450
v 18.598776 2.819099 0.041542
v 7.801809 13.243618 -4.866486
v -19.463125 -20.938244 0.003700
v 17.927811 22.042103 4.855080
v -19.220055 -2.435226 0.042229
v 18.240005 -24.466190 -4.837875
v 0.309210 -27.718487 0.049171
v 7.471762 -4.331684 -4.827461
v -8.630268 6.309853 4.871140
v 16.557037 12.226906 4.505730
v -18.380993 -21.129398 4.832726
v -10.421803 -11.105728 -3.886528
v 17.524195 2.532139 -4.823036
v 12.015390 1.222134 5.676346
v 13.023558 -22.466927 -5.662766
v 17.316238 12.381096 -4.487534
v -17.674532 -11.207638 4.461250
v -8.721685 -12.475681 4.886856
v 17.015907 27.402458 0.817146
v 14.554930 -26.671906 4.505730
v 15.278101 4.982090 -4.487534
v 7.889166 13.468647 4.886169
v -13.752470 27.638245 4.841423
v 18.348000 -24.747372 4.854317
v -7.838964 -16.767120 4.832230
v 11.021547 -22.454395 5.678253
v 7.589636 -4.236774 4.872704
v -11.887215 0.478058 5.677719
v -7.564344 19.473267 -4.849319
v 11.329470 23.279400 -5.665321
v -14.993010 27.718487 -4.823685
v -8.592062 5.867157 -4.832954
v -12.899771 22.261906 -5.655899
v -18.248051 -12.558041 -4.820099
v -11.995552 -21.101437 -5.678253
v -11.959618 0.456295 -5.654373
vt 0.247243 0.306986
vt 0.247243 0.306986
vt 0.247243 0.306986
vt 0.247243 0.306986
vt 0.247243 0.306986
vt 0.247243 0.306986
vt 0.247243 0.306986
vt 0.247243 0.306986
vt 0.247243 0.306986
vt 0.247243 0.306986
vt 0.247243 0.306986
vt 0.247243 0.306986
vt 0.247243 0.306986
vt 0.247243 0.306986
vt 0.247243 0.306986
vt 0.247243 0.306986
vt 0.247243 0.306986
vt 0.247243 0.306986
vt 0.247243 0.306986
vt 0.247243 0.306986
vt 0.247243 0.306986
vt 0.247243 0.306986
vt 0.247243 0.306986
vt 0.247243 0.306986
vt 0.247243 0.306986
vt 0.247243 0.306986
vt 0.247243 0.306986
vt 0.247243 0.306986
vt 0.247243 0.306986
vt 0.247243 0.306986
vt 0.247243 0.306986
vt 0.247243 0.306986
vt 0.247243 0.306986
vt 0.247243 0.306986
vt 0.247243 0.306986
vt 0.247243 0.306986
vt 0.247243 0.306986
vt 0.247243 0.306986
vt 0.247243 0.306986
vt 0.247243 0.306986
vt 0.247243 0.306986
vt 0.247243 0.306986
vt 0.247243 0.306986
vt 0.247243 0.306986
vt 0.247243 0.306986
vt 0.247243 0.306986
vt 0.247243 0.306986
vt 0.247243 0.306986
vt 0.247243 0.306986
vt 0.247243 0.306986
vt 0.247243 0.306986
vt 0.247243 0.306986
vt 0.247243 0.306986
vt 0.247243 0.306986
vt 0.247243 0.306986
vt 0.247243 0.306986
vt 0.247243 0.306986
vt 0.247243 0.306986
vt 0.247243 0.306986
vt 0.247243 0.306986
vt 0.247243 0.306986
vt 0.247243 0.306986
vt 0.247243 0.306986
vt 0.247243 0.306986
vt 0.247243 0.306986
vt 0.247243 0.306986
vt 0.247243 0.306986
vt 0.247243 0.306986
vt 0.247243 0.306986
vt 0.247243 0.306986
vt 0.247243 0.306986
vt 0.247243 0.306986
vt 0.247243 0.306986
vt 0.247243 0.306986
vt 0.247243 0.306986
vt 0.247243 0.306986
vt 0.247243 0.306986
vt 0.247243 0.306986
vt 0.247243 0.306986
vt 0.247243 0.306986
vt 0.247243 0.306986
vt 0.247243 0.306986
vt 0.247243 0.306986
vt 0.247243 0.306986
vt 0.247243 0.306986
vt 0.247243 0.306986
vt 0.247243 0.306986
vt 0.247243 0.306986
vt 0.247243 0.306986
vt 0.247243 0.306986
vt 0.247243 0.306986
vt 0.247243 0.306986
vt 0.247243 0.306986
vt 0.247243 0.306986
vt 0.247243 0.306986
vt 0.247243 0.306986
vt 0.247243 0.306986
vt 0.247243 0.306986
vt 0.247243 0.306986
vt 0.247243 0.306986
vt 0.247243 0.306986
vt 0.247243 0.306986
vt 0.247243 0.306986
vt 0.247243 0.306986
vt 0.247243 0.306986
vt 0.247243 0.306986
vt 0.247243 0.306986
vt 0.247243 0.306986
vt 0.247243 0.306986
vt 0.247243 0.306986
vt 0.247243 0.306986
vt 0.247243 0.306986
vt 0.247243 0.306986
vt 0.247243 0.306986
vt 0.247243 0.306986
vt 0.247243 0.306986
vt 0.247243 0.306986
vt 0.247243 0.306986
vt 0.247243 0.306986
vt 0.247243 0.306986
vt 0.247243 0.306986
vt 0.247243 0.306986
vt 0.247243 0.306986
vt 0.247243 0.306986
vt 0.247243 0.306986
vt 0.247243 0.306986
vt 0.247243 0.306986
vt 0.247243 0.306986
vt 0.247243 0.306986
vt 0.247243 0.306986
vt 0.247243 0.306986
vt 0.247243 0.306986
vt 0.247243 0.306986
vt 0.247243 0.306986
vt 0.247243 0.306986
vt 0.247243 0.306986
vt 0.247243 0.306986
vt 0.247243 0.306986
vt 0.247243 0.306986
vt 0.247243 0.306986
vt 0.247243 0.306986
vt 0.247243 0.306986
vt 0.247243 0.306986
vt 0.247243 0.306986
vt 0.247243 0.306986
vt 0.247243 0.306986
vt 0.247243 0.306986
vt 0.247243 0.306986
vt 0.247243 0.306986
vt 0.247243 0.306986
vt 0.247243 0.306986
vt 0.247243 0.306986
vt 0.247243 0.306986
vt 0.247243 0.306986
vt 0.247243 0.306986
vt 0.247243 0.306986
vn -0.122493 -0.992302 -0.018257
vn -0.122493 -0.992302 -0.018257
vn -0.122493 -0.992302 -0.018257
vn -0.969118 -0.000372 -0.246597
vn -0.969118 -0.000372 -0.246597
vn -0.969118 -0.000372 -0.246597
vn 0.013242 0.006928 -0.999888
vn 0.013242 0.006928 -0.999888
vn 0.013242 0.006928 -0.999888
vn -0.100607 -0.000298 0.994926
vn -0.100607 -0.000298 0.994926
vn -0.100607 -0.000298 0.994926
vn 0.728507 0.662690 -0.173549
vn 0.728507 0.662690 -0.173549
vn 0.728507 0.662690 -0.173549
vn -0.045973 0.455923 0.888831
vn -0.045973 0.455923 0.888831
vn -0.045973 0.455923 0.888831
vn 0.967695 -0.000662 -0.252122
vn 0.967695 -0.000662 -0.252122
vn 0.967695 -0.000662 -0.252122
vn 0.922475 0.006327 0.386005
vn 0.922475 0.006327 0.386005
vn 0.922475 0.006327 0.386005
vn 0.964009 0.000017 -0.265870
vn 0.964009 0.000017 -0.265870
vn 0.964009 0.000017 -0.265870
vn 0.967801 -0.000314 0.251716
vn 0.967801 -0.000314 0.251716
vn 0.967801 -0.000314 0.251716
vn -0.103470 -0.000087 0.994633
vn -0.103470 -0.000087 0.994633
vn -0.103470 -0.000087 0.994633
vn 0.163386 0.004246 0.986553
vn 0.163386 0.004246 0.986553
vn 0.163386 0.004246 0.986553
vn 0.104352 -0.000072 0.994540
vn 0.104352 -0.000072 0.994540
vn 0.104352 -0.000072 0.994540
vn -0.108379 -0.000077 -0.994110
vn -0.108379 -0.000077 -0.994110
vn -0.108379 -0.000077 -0.994110
vn -0.014692 0.006645 -0.999870
vn -0.014692 0.006645 -0.999870
vn -0.014692 0.006645 -0.999870
vn 0.103189 0.000230 -0.994662
vn 0.103189 0.000230 -0.994662
vn 0.103189 0.000230 -0.994662
vn -0.966394 -0.000329 0.257065
vn -0.966394 -0.000329 0.257065
vn -0.966394 -0.000329 0.257065
vn -0.969243 0.000195 0.246106
vn -0.969243 0.000195 0.246106
vn -0.969243 0.000195 0.246106
vn -0.013210 -0.999424 -0.031251
vn -0.013210 -0.999424 -0.031251
vn -0.013210 -0.999424 -0.031251
vn -0.965470 0.000295 -0.260514
vn -0.965470 0.000295 -0.260514
vn -0.965470 0.000295 -0.260514
vn -0.276119 0.960482 -0.035102
vn -0.276120 0.960482 -0.035102
vn -0.276120 0.960482 -0.035102
vn -0.487336 0.872597 -0.032818
vn -0.487336 0.872597 -0.032818
vn -0.487336 0.872597 -0.032818
vn -0.141178 0.963243 0.228543
vn -0.141178 0.963243 0.228543
vn -0.141178 0.963243 0.228543
vn 0.404190 0.875014 -0.266420
vn 0.404191 0.875014 -0.266420
vn 0.404191 0.875014 -0.266420
vn -0.001764 -0.999816 -0.019091
vn -0.001764 -0.999816 -0.019091
vn -0.001764 -0.999816 -0.019091
vn 0.005877 -0.999493 -0.031308
vn 0.005877 -0.999493 -0.031308
vn 0.005877 -0.999493 -0.031308
vn 0.005772 -0.971294 -0.237813
vn 0.005772 -0.971294 -0.237813
vn 0.005772 -0.971294 -0.237813
vn -0.001710 -0.999917 0.012769
vn -0.001710 -0.999917 0.012769
vn -0.001710 -0.999917 0.012769
vn -0.024240 -0.264859 -0.963982
vn -0.024240 -0.264859 -0.963982
vn -0.024240 -0.264859 -0.963982
vn 0.006367 -0.184857 -0.982745
vn 0.006367 -0.184857 -0.982745
vn 0.006367 -0.184857 -0.982745
vn -0.179157 -0.032348 -0.983289
vn -0.179157 -0.032348 -0.983289
vn -0.179157 -0.032348 -0.983289
vn -0.189324 0.076672 -0.978917
vn -0.189324 0.076672 -0.978917
vn -0.189324 0.076672 -0.978917
vn -0.116280 -0.038127 -0.992485
vn -0.116280 -0.038127 -0.992485
vn -0.116280 -0.038127 -0.992485
vn 0.009196 -0.260684 0.965380
vn 0.009196 -0.260684 0.965380
vn 0.009196 -0.260684 0.965380
vn -0.044434 -0.991395 -0.123133
vn -0.044434 -0.991395 -0.123133
vn -0.044434 -0.991395 -0.123133
vn 0.988398 0.064597 -0.137463
vn 0.988398 0.064597 -0.137463
vn 0.988398 0.064597 -0.137463
vn -0.972206 0.077496 0.220929
vn -0.972206 0.077496 0.220929
vn -0.972206 0.077496 0.220929
vn 0.157959 0.004731 -0.987434
vn 0.157959 0.004731 -0.987434
vn 0.157959 0.004731 -0.987434
vn 0.152803 0.006519 -0.988235
vn 0.152803 0.006519 -0.988235
vn 0.152803 0.006519 -0.988235
vn -0.218629 -0.001586 0.975807
vn -0.218629 -0.001586 0.975807
vn -0.218629 -0.001586 0.975807
vn 0.006904 -0.173533 -0.984804
vn 0.006904 -0.173533 -0.984804
vn 0.006904 -0.173533 -0.984804
vn 0.595124 0.801859 -0.053388
vn 0.595124 0.801859 -0.053388
vn 0.595124 0.801859 -0.053388
vn 0.709165 0.677079 -0.196595
vn 0.709165 0.677079 -0.196595
vn 0.709165 0.677079 -0.196595
vn -0.999826 0.014303 0.012010
vn -0.999826 0.014303 0.012010
vn -0.999826 0.014303 0.012010
vn -0.999922 -0.004121 -0.011781
vn -0.999922 -0.004121 -0.011781
vn -0.999922 -0.004121 -0.011781
vn -0.694696 0.715879 -0.070105
vn -0.694696 0.715879 -0.070105
vn -0.694696 0.715879 -0.070104
vn -0.335863 0.940534 0.050918
vn -0.335863 0.940534 0.050918
vn -0.335863 0.940534 0.050918
vn -0.039656 -0.998887 0.025544
vn -0.039656 -0.998887 0.025544
vn -0.039656 -0.998887 0.025544
vn -0.021901 -0.999760 -0.000129
vn -0.021901 -0.999760 -0.000129
vn -0.021901 -0.999760 -0.000129
vn 0.005653 0.056376 0.998394
vn 0.005653 0.056376 0.998394
vn 0.005653 0.056376 0.998394
vn -0.025592 -0.019840 0.999476
vn -0.025592 -0.019840 0.999476
vn -0.025592 -0.019840 0.999476
vn 0.018145 0.289063 -0.957138
vn 0.018145 0.289063 -0.957138
vn 0.018145 0.289063 -0.957138
vn -0.006612 0.148290 -0.988922
vn -0.006612 0.148290 -0.988922
vn -0.006612 0.148290 -0.988922
vn -0.017772 -0.309035 -0.950885
vn -0.017772 -0.309035 -0.950885
vn -0.017772 -0.309035 -0.950885
vn 0.992516 -0.075084 -0.096308
vn 0.992516 -0.075084 -0.096308
vn 0.992516 -0.075084 -0.096308
vn 0.988487 -0.150922 0.010777
vn 0.988487 -0.150922 0.010777
vn 0.988487 -0.150922 0.010777
vn 0.035298 0.033179 0.998826
vn 0.035298 0.033179 0.998826
vn 0.035298 0.033179 0.998826
vn -0.102249 0.023599 0.994479
vn -0.102249 0.023599 0.994479
vn -0.102249 0.023599 0.994479
vn 0.320692 -0.048268 0.945953
vn 0.320692 -0.048268 0.945953
vn 0.320692 -0.048268 0.945953
vn -0.222573 0.014859 -0.974803
vn -0.222573 0.014859 -0.974803
vn -0.222573 0.014859 -0.974803
vn -0.130286 -0.005687 -0.991460
vn -0.130286 -0.005687 -0.991460
vn -0.130286 -0.005687 -0.991460
vn 0.269401 -0.021507 -0.962788
vn 0.269401 -0.021507 -0.962788
vn 0.269401 -0.021507 -0.962788
vn 0.975806 0.025991 -0.217088
vn 0.975806 0.025991 -0.217088
vn 0.975806 0.025991 -0.217088
vn 0.911480 0.062685 0.406541
vn 0.911480 0.062685 0.406541
vn 0.911480 0.062685 0.406541
vn 0.999873 -0.011097 -0.011463
vn 0.999873 -0.011097 -0.011463
vn 0.999873 -0.011097 -0.011463
vn -0.179091 0.000360 0.983832
vn -0.179091 0.000360 0.983832
vn -0.179091 0.000360 0.983832
vn 0.261579 -0.010902 0.965120
vn 0.261579 -0.010902 0.965120
vn 0.261579 -0.010902 0.965121
vn -0.211607 0.008961 0.977314
vn -0.211607 0.008961 0.977314
vn -0.211607 0.008961 0.977314
vn 0.117676 0.019229 0.992866
vn 0.117676 0.019229 0.992866
vn 0.117676 0.019229 0.992866
vn -0.145339 0.001078 -0.989381
vn -0.145339 0.001078 -0.989381
vn -0.145339 0.001078 -0.989381
vn -0.025621 0.038168 -0.998943
vn -0.025621 0.038168 -0.998943
vn -0.025621 0.038168 -0.998943
vn -0.986587 -0.162749 0.012592
vn -0.986587 -0.162749 0.012592
vn -0.986587 -0.162749 0.012592
vn 0.036696 -0.049638 0.998093
vn 0.036696 -0.049638 0.998093
vn 0.036696 -0.049638 0.998093
vn -0.804958 -0.584136 0.104055
vn -0.804958 -0.584136 0.104055
vn -0.804958 -0.584136 0.104055
vn -0.825825 -0.539645 0.163697
vn -0.825825 -0.539645 0.163697
vn -0.825825 -0.539645 0.163697
vn -0.985727 0.164230 0.037016
vn -0.985727 0.164231 0.037016
vn -0.985727 0.164231 0.037016
vn -0.881522 -0.132961 -0.453036
vn -0.881522 -0.132961 -0.453035
vn -0.881522 -0.132961 -0.453035
vn 0.967103 0.200913 -0.156034
vn 0.967103 0.200913 -0.156034
vn 0.967103 0.200913 -0.156034
vn -0.050743 -0.023147 0.998443
vn -0.050743 -0.023147 0.998443
vn -0.050743 -0.023147 0.998444
vn 0.790952 0.448277 0.416464
vn 0.790952 0.448277 0.416464
vn 0.790952 0.448277 0.416464
vn 0.986744 -0.140686 0.080888
vn 0.986744 -0.140686 0.080888
vn 0.986744 -0.140686 0.080888
vn 0.988423 0.068399 -0.135433
vn 0.988423 0.068399 -0.135433
vn 0.988423 0.068399 -0.135433
vn -0.089284 -0.995702 -0.024609
vn -0.089284 -0.995702 -0.024609
vn -0.089284 -0.995702 -0.024609
vn -0.140732 -0.989754 0.024098
vn -0.140732 -0.989754 0.024098
vn -0.140732 -0.989754 0.024098
vn -0.972934 -0.225482 0.050560
vn -0.972935 -0.225482 0.050560
vn -0.972935 -0.225482 0.050560
vn 0.023369 0.996776 -0.076761
vn 0.023369 0.996776 -0.076761
vn 0.023369 0.996776 -0.076761
vn 0.008604 0.999937 0.007198
vn 0.008604 0.999937 0.007198
vn 0.008604 0.999937 0.007198
vn 0.038189 0.971227 0.235076
vn 0.038189 0.971227 0.235076
vn 0.038189 0.971227 0.235076
vn -0.976830 0.014077 -0.213556
vn -0.976829 0.014077 -0.213556
vn -0.976830 0.014077 -0.213556
vn -0.903033 -0.006552 0.429520
vn -0.903033 -0.006552 0.429520
vn -0.903033 -0.006552 0.429520
vn -0.997057 0.058541 0.049503
vn -0.997057 0.058541 0.049503
vn -0.997057 0.058541 0.049503
vn -0.165619 0.977321 -0.131963
vn -0.165619 0.977321 -0.131963
vn -0.165619 0.977321 -0.131963
vn 0.133136 0.982840 0.127670
vn 0.133136 0.982840 0.127670
vn 0.133136 0.982840 0.127670
vn 0.930945 0.362949 -0.040107
vn 0.930945 0.362949 -0.040107
vn 0.930945 0.362949 -0.040107
vn 0.754202 -0.640128 0.146341
vn 0.754202 -0.640128 0.146341
vn 0.754202 -0.640128 0.146341
vn 0.454513 -0.890205 -0.030890
vn 0.454513 -0.890205 -0.030890
vn 0.454513 -0.890205 -0.030890
vn 0.009025 0.999926 0.008176
vn 0.009025 0.999926 0.008176
vn 0.009025 0.999926 0.008176
vn 0.003539 0.999994 -0.000531
vn 0.003539 0.999994 -0.000531
vn 0.003539 0.999994 -0.000531
vn -0.003893 -0.959401 -0.282019
vn -0.003893 -0.959401 -0.282019
vn -0.003893 -0.959401 -0.282019
vn 0.075831 -0.997087 -0.008243
vn 0.075831 -0.997087 -0.008243
vn 0.075831 -0.997087 -0.008243
vn -0.024120 -0.953325 0.300980
vn -0.024120 -0.953325 0.300980
vn -0.024120 -0.953325 0.300980
vn -0.105938 -0.992548 0.060213
vn -0.105938 -0.992548 0.060213
vn -0.105938 -0.992548 0.060213
vn -0.090516 -0.989723 -0.110701
vn -0.090516 -0.989723 -0.110701
vn -0.090516 -0.989723 -0.110701
vn -0.068944 -0.997564 0.010598
vn -0.068944 -0.997564 0.010598
vn -0.068944 -0.997564 0.010598
vn 0.037671 0.998259 -0.045392
vn 0.037671 0.998259 -0.045392
vn 0.037671 0.998259 -0.045392
vn 0.064722 0.997619 0.023806
vn 0.064722 0.997619 0.023806
vn 0.064722 0.997619 0.023806
vn 0.064293 -0.011362 0.997866
vn 0.064293 -0.011362 0.997866
vn 0.064293 -0.011362 0.997866
vn -0.088308 -0.023111 0.995825
vn -0.088308 -0.023111 0.995825
vn -0.088308 -0.023111 0.995825
vn -0.015901 0.038540 0.999131
vn -0.015901 0.038540 0.999131
vn -0.015901 0.038540 0.999131
vn 0.033453 -0.241591 0.969801
vn 0.033453 -0.241591 0.969801
vn 0.033453 -0.241591 0.969801
vn -0.000796 0.002037 0.999998
vn -0.000796 0.002037 0.999998
vn -0.000796 0.002037 0.999998
vn -0.022539 0.132218 0.990964
vn -0.022539 0.132218 0.990964
vn -0.022539 0.132218 0.990964
vn -0.027536 0.026616 0.999266
vn -0.027536 0.026616 0.999266
vn -0.027536 0.026616 0.999266
vn -0.027177 -0.276298 0.960688
vn -0.027177 -0.276298 0.960688
vn -0.027177 -0.276298 0.960688
vn -0.004281 0.139347 0.990234
vn -0.004281 0.139347 0.990234
vn -0.004281 0.139347 0.990234
vn 0.004707 -0.149379 0.988769
vn 0.004707 -0.149379 0.988769
vn 0.004707 -0.149379 0.988769
vn 0.032168 0.282280 0.958793
vn 0.032168 0.282280 0.958793
vn 0.032168 0.282280 0.958793
vn 0.225235 0.018454 -0.974130
vn 0.225235 0.018454 -0.974130
vn 0.225235 0.018454 -0.974130
vn 0.031461 -0.090293 -0.995418
vn 0.031461 -0.090293 -0.995418
vn 0.031461 -0.090293 -0.995418
vn 0.023670 0.172776 -0.984677
vn 0.023670 0.172776 -0.984677
vn 0.023670 0.172776 -0.984677
vn 0.087094 0.162465 -0.982863
vn 0.087094 0.162465 -0.982863
vn 0.087094 0.162465 -0.982863
vn 0.065640 -0.229411 -0.971114
vn 0.065640 -0.229411 -0.971114
vn 0.065640 -0.229412 -0.971114
vn 0.008870 0.151318 -0.988445
vn 0.008870 0.151318 -0.988445
vn 0.008870 0.151318 -0.988445
vn -0.015527 -0.295322 -0.955272
vn -0.015527 -0.295322 -0.955272
vn -0.015527 -0.295322 -0.955272
vn -0.000417 0.192345 -0.981327
vn -0.000417 0.192345 -0.981327
vn -0.000417 0.192345 -0.981327
vn 0.019992 0.153618 -0.987928
vn 0.019992 0.153618 -0.987928
vn 0.019992 0.153618 -0.987928
vn 0.018130 0.139026 -0.990123
vn 0.018130 0.139026 -0.990123
vn 0.018130 0.139026 -0.990123
vn 0.031340 -0.045255 -0.998484
vn 0.031340 -0.045255 -0.998484
vn 0.031340 -0.045255 -0.998484
s off
f 10/1/1 11/2/2 15/3/3
f 16/4/4 6/5/5 7/6/6
f 1/7/7 12/8/8 9/9/9
f 2/10/10 5/11/11 14/12/12
f 3/13/13 4/14/14 1/15/15
f 14/12/16 5/11/17 3/16/18
f 4/14/19 10/1/20 1/15/21
f 15/3/22 4/14/23 3/13/24
f 4/14/25 11/2/26 10/1/27
f 15/3/28 11/2/29 4/14/30
f 8/17/31 5/11/32 2/10/33
f 5/11/34 15/18/35 3/16/36
f 8/17/37 15/18/38 5/11/39
f 13/19/40 12/8/41 16/20/42
f 9/9/43 12/8/44 13/19/45
f 10/21/46 12/8/47 1/7/48
f 14/22/49 6/5/50 2/23/51
f 7/6/52 6/5/53 14/22/54
f 6/5/55 16/4/56 2/23/57
f 7/6/58 13/24/59 16/4/60
f 7/6/61 14/22/62 13/24/63
f 14/25/64 9/26/65 13/27/66
f 3/28/67 9/26/68 14/25/69
f 3/28/70 1/29/71 9/26/72
f 15/30/73 16/31/74 10/32/75
f 2/33/76 16/31/77 15/30/78
f 8/17/79 2/10/80 15/18/81
f 16/20/82 12/8/83 10/21/84
f 20/34/85 68/35/86 40/36/87
f 22/37/88 67/38/89 21/39/90
f 22/37/91 66/40/92 67/38/93
f 25/41/94 63/42/95 65/43/96
f 26/44/97 62/45/98 34/46/99
f 52/47/100 58/48/101 17/49/102
f 28/50/103 37/51/104 59/52/105
f 27/53/106 51/54/107 36/55/108
f 49/56/109 35/57/110 43/58/111
f 38/59/112 47/60/113 45/61/114
f 61/62/115 68/35/116 65/43/117
f 28/63/118 60/64/119 18/65/120
f 26/44/121 65/43/122 62/45/123
f 29/66/124 33/67/125 53/68/126
f 53/68/127 33/67/128 45/69/129
f 40/70/130 30/71/131 59/72/132
f 30/71/133 40/70/134 23/73/135
f 18/74/136 63/75/137 25/76/138
f 18/74/139 55/77/140 63/75/141
f 31/78/142 61/79/143 26/80/144
f 32/81/145 61/79/146 31/78/147
f 19/82/148 55/83/149 31/84/150
f 55/83/151 32/85/152 31/84/153
f 62/45/154 63/42/155 27/86/156
f 62/45/157 65/43/158 63/42/159
f 61/62/160 65/43/161 26/44/162
f 32/87/163 64/88/164 61/89/165
f 41/90/166 64/88/167 32/87/168
f 55/83/169 60/64/170 32/85/171
f 18/65/172 60/64/173 55/83/174
f 60/64/175 41/91/176 32/85/177
f 65/43/178 20/34/179 25/41/180
f 65/43/181 68/35/182 20/34/183
f 64/92/184 68/35/185 61/62/186
f 45/69/187 33/67/188 38/93/189
f 56/94/190 33/67/191 29/66/192
f 56/94/193 38/93/194 33/67/195
f 30/95/196 46/96/197 59/97/198
f 46/96/199 58/48/200 29/98/201
f 30/95/202 58/48/203 46/96/204
f 58/48/205 56/99/206 29/98/207
f 40/36/208 47/60/209 23/100/210
f 45/61/211 47/60/212 40/36/213
f 54/101/214 31/102/215 34/46/216
f 54/103/217 42/104/218 31/84/219
f 17/105/220 35/57/221 22/106/222
f 43/58/223 35/57/224 17/105/225
f 66/107/226 35/57/227 49/56/228
f 35/57/229 66/107/230 22/106/231
f 50/108/232 57/109/233 44/110/234
f 50/111/235 49/112/236 57/113/237
f 36/55/238 51/54/239 19/114/240
f 48/115/241 36/55/242 42/116/243
f 48/115/244 27/53/245 36/55/246
f 42/117/247 34/118/248 48/119/249
f 42/117/250 54/120/251 34/118/252
f 34/46/253 31/102/254 26/44/255
f 63/75/256 51/121/257 27/122/258
f 55/77/259 51/121/260 63/75/261
f 19/123/262 51/121/263 55/77/264
f 20/124/265 37/125/266 25/126/267
f 18/127/268 37/125/269 28/128/270
f 37/125/271 18/127/272 25/126/273
f 66/129/274 49/130/275 44/131/276
f 49/130/277 50/132/278 44/131/279
f 44/110/280 57/109/281 24/133/282
f 38/93/283 52/134/284 21/135/285
f 56/94/286 52/134/287 38/93/288
f 24/136/289 57/137/290 23/138/291
f 57/137/292 30/139/293 23/138/294
f 21/140/295 39/141/296 22/142/297
f 52/143/298 39/141/299 21/140/300
f 17/144/301 39/141/302 52/143/303
f 39/141/304 17/144/305 22/142/306
f 40/145/307 37/51/308 20/146/309
f 59/52/310 37/51/311 40/145/312
f 41/147/313 53/148/314 64/149/315
f 29/150/316 53/148/317 41/147/318
f 42/104/319 19/82/320 31/84/321
f 36/151/322 19/82/323 42/104/324
f 49/112/325 43/152/326 57/113/327
f 56/99/328 58/48/329 52/47/330
f 57/113/331 43/152/332 30/95/333
f 43/152/334 58/48/335 30/95/336
f 17/49/337 58/48/338 43/152/339
f 59/97/340 60/64/341 28/63/342
f 60/64/343 46/96/344 41/91/345
f 59/97/346 46/96/347 60/64/348
f 46/96/349 29/98/350 41/91/351
f 48/153/352 62/45/353 27/86/354
f 34/46/355 62/45/356 48/153/357
f 67/38/358 44/154/359 24/155/360
f 67/38/361 66/40/362 44/154/363
f 47/60/364 38/59/365 21/39/366
f 47/60/367 67/38/368 23/100/369
f 21/39/370 67/38/371 47/60/372
f 67/38/373 24/155/374 23/100/375
f 53/156/376 45/61/377 64/92/378
f 45/61/379 68/35/380 64/92/381
f 40/36/382 68/35/383 45/61/384
