# This file uses meters as units for non-parametric coordinates.

v 16.627735 12.463102 5.176620
v 15.885693 -25.851038 5.324253
v -16.454374 -15.728879 5.226393
v 15.081215 25.923826 -3.696089
v 4.410794 17.442104 5.249929
v -5.402151 -15.569744 5.271482
v -3.874034 12.443023 -4.807262
v 3.601875 16.567989 -5.231571
v -16.580807 -24.413666 -5.159760
v 2.895647 -15.605428 -4.647150
v 16.275784 -25.722731 -5.561874
v -3.705711 17.331120 -5.070553
v -16.493608 24.814568 -4.211798
v 14.442214 21.188789 -5.195827
v 16.626640 4.917969 -5.159330
v -16.406876 11.837092 -5.189209
v -6.073188 -17.589874 -5.245333
v 4.537050 -19.862782 -5.218878
v -15.561487 26.151825 4.663362
v 15.523223 25.582052 4.016848
v 12.297189 26.366310 5.225010
v -4.867110 17.579828 5.280390
v -3.820688 9.227785 1.889791
v -15.826715 -25.359346 3.720369
v -0.948654 -16.406946 5.295172
v 3.167118 -26.423422 5.169630
v 4.334495 -15.575076 5.245657
v 15.305698 26.680120 1.742220
v -16.952694 -2.131989 1.379480
v -3.114994 16.268183 3.529310
v 16.593161 -24.029099 5.199347
v -14.033616 26.327314 -5.172987
v -16.956959 25.041737 1.365871
v 3.427069 15.950807 0.019150
v -3.128723 -15.290393 -3.856630
v 6.431724 26.236200 -5.204945
v 16.275051 -23.517065 -5.240536
v -13.597725 -26.435989 -5.132122
v -16.922052 23.431812 4.768152
v -3.264219 15.924690 -3.972139
vt 0.243979 0.305250
vt 0.243979 0.305250
vt 0.243979 0.305250
vt 0.243979 0.305250
vt 0.243979 0.305250
vt 0.243979 0.305250
vt 0.243979 0.305250
vt 0.243979 0.305250
vt 0.243979 0.305250
vt 0.243979 0.305250
vt 0.243979 0.305250
vt 0.243979 0.305250
vt 0.243979 0.305250
vt 0.243979 0.305250
vt 0.243979 0.305250
vt 0.243979 0.305250
vt 0.243979 0.305250
vt 0.243979 0.305250
vt 0.243979 0.305250
vt 0.243979 0.305250
vt 0.243979 0.305250
vt 0.243979 0.305250
vt 0.243979 0.305250
vt 0.243979 0.305250
vt 0.243979 0.305250
vt 0.243979 0.305250
vt 0.243979 0.305250
vt 0.243979 0.305250
vt 0.243979 0.305250
vt 0.243979 0.305250
vt 0.243979 0.305250
vt 0.243979 0.305250
vt 0.243979 0.305250
vt 0.243979 0.305250
vt 0.243979 0.305250
vt 0.243979 0.305250
vt 0.243979 0.305250
vt 0.243979 0.305250
vt 0.243979 0.305250
vt 0.243979 0.305250
vt 0.243979 0.305250
vt 0.243979 0.305250
vt 0.243979 0.305250
vt 0.243979 0.305250
vt 0.243979 0.305250
vt 0.243979 0.305250
vt 0.243979 0.305250
vt 0.243979 0.305250
vt 0.243979 0.305250
vt 0.243979 0.305250
vt 0.243979 0.305250
vt 0.243979 0.305250
vt 0.243979 0.305250
vt 0.243979 0.305250
vt 0.243979 0.305250
vt 0.243979 0.305250
vt 0.243979 0.305250
vt 0.243979 0.305250
vt 0.243979 0.305250
vt 0.243979 0.305250
vt 0.243979 0.305250
vt 0.243979 0.305250
vt 0.243979 0.305250
vt 0.243979 0.305250
vt 0.243979 0.305250
vt 0.243979 0.305250
vt 0.243979 0.305250
vt 0.243979 0.305250
vt 0.243979 0.305250
vt 0.243979 0.305250
vt 0.243979 0.305250
vt 0.243979 0.305250
vt 0.243979 0.305250
vt 0.243979 0.305250
vt 0.243979 0.305250
vt 0.243979 0.305250
vt 0.243979 0.305250
vt 0.243979 0.305250
vt 0.243979 0.305250
vt 0.243979 0.305250
vt 0.243979 0.305250
vt 0.243979 0.305250
vt 0.243979 0.305250
vt 0.243979 0.305250
vt 0.243979 0.305250
vt 0.243979 0.305250
vt 0.243979 0.305250
vt 0.243979 0.305250
vt 0.243979 0.305250
vt 0.243979 0.305250
vt 0.243979 0.305250
vt 0.243979 0.305250
vt 0.243979 0.305250
vn 0.350369 0.856152 0.379796
vn 0.350369 0.856152 0.379796
vn 0.350369 0.856152 0.379796
vn -0.014365 0.034360 0.999306
vn -0.014365 0.034360 0.999306
vn -0.014365 0.034360 0.999306
vn -0.014365 0.034360 0.999306
vn 0.372409 0.112791 0.921189
vn 0.372409 0.112791 0.921189
vn 0.372409 0.112791 0.921189
vn -0.019116 0.048036 0.998663
vn -0.019116 0.048036 0.998663
vn -0.019116 0.048036 0.998663
vn -0.010004 -0.805102 0.593052
vn -0.010004 -0.805102 0.593052
vn -0.010004 -0.805102 0.593053
vn 0.005248 -0.001846 0.999985
vn 0.005248 -0.001846 0.999985
vn 0.005248 -0.001846 0.999985
vn 0.591248 -0.238662 0.770368
vn 0.591248 -0.238661 0.770368
vn 0.591248 -0.238661 0.770368
vn -0.036998 0.011251 0.999252
vn -0.036998 0.011251 0.999252
vn -0.036998 0.011251 0.999252
vn 0.006252 0.000617 0.999980
vn 0.006252 0.000617 0.999980
vn 0.006252 0.000617 0.999980
vn -0.004077 -0.000203 0.999992
vn -0.004077 -0.000203 0.999992
vn -0.004077 -0.000203 0.999992
vn 0.003683 -0.000138 0.999993
vn 0.003683 -0.000138 0.999993
vn 0.003683 -0.000138 0.999993
vn 0.040184 0.052802 0.997796
vn 0.040184 0.052802 0.997796
vn 0.040184 0.052802 0.997796
vn 0.006939 0.015447 0.999857
vn 0.006939 0.015447 0.999857
vn 0.006939 0.015447 0.999857
vn -0.008317 -0.015949 0.999838
vn -0.008317 -0.015949 0.999838
vn -0.008317 -0.015949 0.999838
vn -0.003900 -0.012462 0.999915
vn -0.003900 -0.012462 0.999915
vn -0.003900 -0.012462 0.999915
vn -0.083978 -0.159298 0.983652
vn -0.083978 -0.159298 0.983652
vn -0.083978 -0.159298 0.983652
vn -0.011380 -0.017207 0.999787
vn -0.011380 -0.017207 0.999787
vn -0.011380 -0.017207 0.999787
vn -0.014084 0.999391 0.031917
vn -0.014084 0.999391 0.031917
vn -0.014084 0.999391 0.031917
vn -0.014084 0.999391 0.031917
vn -0.869314 0.443259 0.218665
vn -0.869314 0.443259 0.218665
vn -0.869314 0.443259 0.218665
vn 0.944155 -0.015327 0.329145
vn 0.944155 -0.015327 0.329145
vn 0.944155 -0.015327 0.329145
vn -0.982885 0.002248 0.184205
vn -0.982885 0.002248 0.184205
vn -0.982885 0.002248 0.184205
vn -0.063589 -0.992470 0.104693
vn -0.063589 -0.992470 0.104693
vn -0.063589 -0.992470 0.104693
vn 0.995255 0.078739 -0.057166
vn 0.995255 0.078739 -0.057166
vn 0.995255 0.078739 -0.057166
vn 0.995431 0.079953 -0.052208
vn 0.995431 0.079953 -0.052208
vn 0.995431 0.079953 -0.052208
vn 0.984878 -0.001041 -0.173244
vn 0.984878 -0.001041 -0.173244
vn 0.984878 -0.001041 -0.173244
vn -0.995818 -0.010831 0.090713
vn -0.995818 -0.010831 0.090713
vn -0.995818 -0.010831 0.090713
vn 0.932465 -0.360081 0.029170
vn 0.932465 -0.360081 0.029170
vn 0.932465 -0.360081 0.029170
vn -0.998422 -0.000185 -0.056151
vn -0.998422 -0.000185 -0.056151
vn -0.998422 -0.000185 -0.056151
vn -0.999948 -0.000152 0.010187
vn -0.999948 -0.000152 0.010187
vn -0.999948 -0.000152 0.010187
vn 0.969537 0.034369 0.242523
vn 0.969537 0.034369 0.242522
vn 0.969537 0.034369 0.242522
vn 0.144515 -0.988594 0.042394
vn 0.144515 -0.988594 0.042394
vn 0.144515 -0.988594 0.042394
vn -0.544458 0.835037 -0.079239
vn -0.544458 0.835037 -0.079239
vn -0.544458 0.835037 -0.079239
vn -0.521333 0.850813 -0.065799
vn -0.521333 0.850813 -0.065799
vn -0.521333 0.850813 -0.065799
vn -0.082755 -0.629414 -0.772651
vn -0.082755 -0.629414 -0.772651
vn -0.082755 -0.629414 -0.772651
vn 0.071912 -0.990866 -0.114075
vn 0.071912 -0.990866 -0.114075
vn 0.071912 -0.990866 -0.114075
vn -0.175467 -0.937567 0.300300
vn -0.175467 -0.937567 0.300300
vn -0.175467 -0.937567 0.300300
vn -0.040773 0.997077 0.064616
vn -0.040773 0.997077 0.064616
vn -0.040773 0.997077 0.064616
vn -0.040773 0.997077 0.064616
vn 0.183831 0.980033 0.075777
vn 0.183831 0.980033 0.075777
vn 0.183831 0.980033 0.075777
vn 0.004333 0.997588 -0.069280
vn 0.004333 0.997588 -0.069280
vn 0.004333 0.997588 -0.069280
vn 0.060103 0.988336 -0.139927
vn 0.060103 0.988336 -0.139927
vn 0.060103 0.988336 -0.139927
vn 0.994853 -0.088032 -0.050188
vn 0.994853 -0.088032 -0.050188
vn 0.994853 -0.088032 -0.050188
vn 0.996755 -0.069180 -0.041153
vn 0.996755 -0.069180 -0.041153
vn 0.996755 -0.069180 -0.041153
vn -0.999298 0.021377 -0.030756
vn -0.999298 0.021377 -0.030756
vn -0.999298 0.021377 -0.030756
vn -0.989575 -0.004620 0.143942
vn -0.989575 -0.004620 0.143942
vn -0.989575 -0.004620 0.143942
vn 0.983268 0.060368 0.171874
vn 0.983268 0.060368 0.171874
vn 0.983268 0.060368 0.171874
vn 0.999442 -0.012269 -0.031055
vn 0.999442 -0.012269 -0.031055
vn 0.999442 -0.012269 -0.031055
vn -0.999041 -0.026827 0.034594
vn -0.999041 -0.026827 0.034594
vn -0.999041 -0.026827 0.034594
vn -0.994133 -0.076716 0.076251
vn -0.994133 -0.076716 0.076251
vn -0.994133 -0.076716 0.076251
vn -0.560421 -0.827217 -0.040503
vn -0.560421 -0.827217 -0.040503
vn -0.560421 -0.827217 -0.040503
vn 0.999532 0.004736 -0.030224
vn 0.999532 0.004736 -0.030224
vn 0.999532 0.004736 -0.030224
vn 0.023325 -0.999053 -0.036739
vn 0.023325 -0.999053 -0.036739
vn 0.023325 -0.999053 -0.036739
vn 0.045079 -0.998932 -0.010159
vn 0.045079 -0.998932 -0.010159
vn 0.045079 -0.998932 -0.010159
vn 0.985415 -0.169758 -0.011830
vn 0.985415 -0.169758 -0.011830
vn 0.985415 -0.169758 -0.011830
vn 0.900523 -0.054247 -0.431411
vn 0.900523 -0.054247 -0.431411
vn 0.900523 -0.054247 -0.431411
vn 0.174842 0.275776 -0.945187
vn 0.174842 0.275776 -0.945187
vn 0.174842 0.275776 -0.945187
vn -0.001620 -0.013246 -0.999911
vn -0.001620 -0.013246 -0.999911
vn -0.001620 -0.013246 -0.999911
vn -0.398213 0.066245 -0.914898
vn -0.398213 0.066245 -0.914898
vn -0.398213 0.066245 -0.914898
vn -0.004874 -0.009542 -0.999943
vn -0.004874 -0.009542 -0.999943
vn -0.004874 -0.009542 -0.999943
vn -0.017028 0.047672 -0.998718
vn -0.017028 0.047672 -0.998718
vn -0.017028 0.047672 -0.998718
vn 0.004023 -0.001703 -0.999990
vn 0.004023 -0.001703 -0.999990
vn 0.004023 -0.001703 -0.999991
vn -0.996569 -0.000427 -0.082770
vn -0.996569 -0.000427 -0.082770
vn -0.996569 -0.000427 -0.082770
vn -0.995653 0.004702 -0.093023
vn -0.995653 0.004702 -0.093023
vn -0.995653 0.004702 -0.093023
vn 0.760329 0.100638 -0.641695
vn 0.760329 0.100638 -0.641695
vn 0.760329 0.100638 -0.641695
vn 0.009533 -0.000442 -0.999955
vn 0.009533 -0.000442 -0.999954
vn 0.009533 -0.000442 -0.999955
vn 0.033067 -0.054892 -0.997945
vn 0.033067 -0.054892 -0.997945
vn 0.033067 -0.054892 -0.997945
vn 0.008012 0.002757 -0.999964
vn 0.008012 0.002757 -0.999964
vn 0.008012 0.002757 -0.999964
vn -0.054298 -0.016943 -0.998381
vn -0.054298 -0.016943 -0.998381
vn -0.054298 -0.016943 -0.998381
vn 0.438599 -0.019011 -0.898482
vn 0.438599 -0.019011 -0.898482
vn 0.438599 -0.019011 -0.898482
vn 0.011001 0.005770 -0.999923
vn 0.011001 0.005770 -0.999923
vn 0.011001 0.005770 -0.999923
vn 0.011001 0.005770 -0.999923
vn 0.000373 -0.013114 -0.999914
vn 0.000373 -0.013114 -0.999914
vn 0.000373 -0.013114 -0.999914
vn 0.044854 0.149931 -0.987679
vn 0.044854 0.149931 -0.987679
vn 0.044854 0.149931 -0.987679
vn 0.000542 0.286361 -0.958122
vn 0.000542 0.286361 -0.958122
vn 0.000542 0.286361 -0.958122
vn 0.000542 0.286361 -0.958122
vn -0.000210 -0.012618 -0.999920
vn -0.000210 -0.012618 -0.999920
vn -0.000210 -0.012618 -0.999920
vn 0.043020 0.144046 -0.988635
vn 0.043020 0.144046 -0.988635
vn 0.043020 0.144046 -0.988635
vn -0.015055 0.028344 -0.999485
vn -0.015055 0.028344 -0.999485
vn -0.015055 0.028344 -0.999485
s off
f 20/2/1 28/3/2 21/5/3
f 5/6/4 21/5/5 19/1/6 22/7/7
f 1/11/8 20/2/9 21/5/10
f 22/7/11 19/1/12 39/4/13
f 5/8/14 22/7/15 30/9/16
f 1/11/17 21/5/18 5/6/19
f 30/45/20 22/13/21 23/12/22
f 3/14/23 22/7/24 39/4/25
f 1/11/26 5/6/27 31/19/28
f 3/14/29 6/20/30 22/7/31
f 5/6/32 27/15/33 31/19/34
f 2/18/35 31/19/36 27/15/37
f 25/21/38 2/18/39 27/15/40
f 26/23/41 25/21/42 6/20/43
f 3/14/44 26/23/45 6/20/46
f 3/14/47 24/22/48 26/23/49
f 25/21/50 26/23/51 2/18/52
f 32/26/53 19/27/54 21/28/55 28/29/56
f 19/30/57 33/31/58 39/32/59
f 6/42/60 23/12/61 22/13/62
f 5/50/63 34/34/64 27/35/65
f 38/66/66 26/36/67 24/67/68
f 28/37/69 20/38/70 1/16/71
f 4/39/72 28/37/73 1/16/74
f 4/39/75 1/16/76 31/17/77
f 3/40/78 39/32/79 29/33/80
f 11/68/81 31/43/82 2/52/83
f 9/44/84 29/33/85 33/31/86
f 29/33/87 39/32/88 33/31/89
f 6/42/90 35/51/91 7/46/92
f 40/48/93 5/10/94 30/47/95
f 13/74/96 33/53/97 32/26/98
f 19/27/99 32/26/100 33/53/101
f 12/54/102 8/55/103 40/48/104
f 8/55/105 34/49/106 40/48/107
f 40/48/108 34/49/109 5/10/110
f 10/56/111 35/57/112 25/24/113 27/25/114
f 6/41/115 25/24/116 35/57/117
f 36/59/118 32/26/119 28/29/120
f 4/60/121 36/59/122 28/29/123
f 30/45/124 23/12/125 7/46/126
f 6/42/127 7/46/128 23/12/129
f 8/58/130 10/73/131 34/34/132
f 27/35/133 34/34/134 10/73/135
f 4/39/136 31/17/137 15/61/138
f 37/64/139 15/61/140 31/17/141
f 3/40/142 29/33/143 9/44/144
f 24/62/145 3/40/146 9/44/147
f 24/67/148 9/63/149 38/66/150
f 11/65/151 37/64/152 31/17/153
f 38/66/154 11/68/155 26/36/156
f 11/68/157 2/52/158 26/36/159
f 30/45/160 7/46/161 40/69/162
f 12/70/163 40/69/164 7/46/165
f 4/78/166 14/75/167 36/76/168
f 32/77/169 36/76/170 12/71/171
f 16/79/172 13/80/173 32/77/174
f 36/76/175 14/75/176 12/71/177
f 8/81/178 12/71/179 14/75/180
f 8/81/181 14/75/182 15/82/183
f 13/83/184 16/84/185 33/31/186
f 9/44/187 33/31/188 16/84/189
f 4/39/190 15/61/191 14/85/192
f 16/79/193 32/77/194 12/71/195
f 7/86/196 16/79/197 12/71/198
f 15/82/199 37/92/200 8/81/201
f 10/72/202 8/81/203 37/92/204
f 35/91/205 17/87/206 7/86/207
f 9/88/208 16/79/209 7/86/210 17/87/211
f 38/89/212 9/88/213 17/87/214
f 37/92/215 18/90/216 10/72/217
f 10/72/218 18/90/219 17/87/220 35/91/221
f 38/89/222 17/87/223 18/90/224
f 37/92/225 11/93/226 18/90/227
f 38/89/228 18/90/229 11/93/230
