# This file uses meters as units for non-parametric coordinates.

v 10.402206 22.904268 5.055933
v 10.004138 -21.235218 5.283432
v -1.414354 15.115492 5.258245
v -10.187469 25.070038 4.886808
v -7.334199 26.373560 -5.125294
v 8.090916 26.659397 -4.703493
v -0.482271 -25.388975 5.059564
v -1.165205 -14.858803 3.939291
v -1.296885 12.823917 1.824913
v -1.227614 -26.344631 -0.303259
v -9.640917 24.188211 -4.946775
v -1.016579 15.073028 -5.280123
v -3.025315 15.353944 -4.403439
v 10.195690 24.138218 -5.177898
v 10.189226 -24.300858 -5.195932
v -1.509781 14.348079 -4.810200
v -0.932389 8.052708 -5.023603
v -0.608267 -23.386799 -5.184832
v -10.304211 16.588425 -4.816008
v 2.891501 -26.332520 -5.243311
v -6.750328 26.355843 5.267048
v -10.160173 15.451649 5.020933
v 10.489738 5.869665 3.038833
v -0.057898 -2.938392 5.283747
v 8.734692 1.630336 5.323982
v 9.709261 -26.055801 4.744196
v 6.717408 26.084972 4.852343
v 9.922713 25.332275 0.097103
v -0.975128 1.820328 5.078669
v -1.123531 -3.203755 4.631567
v 5.025652 -26.723764 3.378649
v 10.610706 -26.182970 1.181221
v 6.926044 27.145775 0.305589
v -10.621177 25.034641 -1.215096
v -2.383733 14.952468 3.974857
v -10.489204 15.520050 -3.895521
v -1.132667 -26.344631 -3.384781
v 10.217647 -26.721903 -3.915100
vt 0.243979 0.305250
vt 0.243979 0.305250
vt 0.243979 0.305250
vt 0.243979 0.305250
vt 0.243979 0.305250
vt 0.243979 0.305250
vt 0.243979 0.305250
vt 0.243979 0.305250
vt 0.243979 0.305250
vt 0.243979 0.305250
vt 0.243979 0.305250
vt 0.243979 0.305250
vt 0.243979 0.305250
vt 0.243979 0.305250
vt 0.243979 0.305250
vt 0.243979 0.305250
vt 0.243979 0.305250
vt 0.243979 0.305250
vt 0.243979 0.305250
vt 0.243979 0.305250
vt 0.243979 0.305250
vt 0.243979 0.305250
vt 0.243979 0.305250
vt 0.243979 0.305250
vt 0.243979 0.305250
vt 0.243979 0.305250
vt 0.243979 0.305250
vt 0.243979 0.305250
vt 0.243979 0.305250
vt 0.243979 0.305250
vt 0.243979 0.305250
vt 0.243979 0.305250
vt 0.243979 0.305250
vt 0.243979 0.305250
vt 0.243979 0.305250
vt 0.243979 0.305250
vt 0.243979 0.305250
vt 0.243979 0.305250
vt 0.243979 0.305250
vt 0.243979 0.305250
vt 0.243979 0.305250
vt 0.243979 0.305250
vt 0.243979 0.305250
vt 0.243979 0.305250
vt 0.243979 0.305250
vt 0.243979 0.305250
vt 0.243979 0.305250
vt 0.243979 0.305250
vt 0.243979 0.305250
vt 0.243979 0.305250
vt 0.243979 0.305250
vt 0.243979 0.305250
vt 0.243979 0.305250
vt 0.243979 0.305250
vt 0.243979 0.305250
vt 0.243979 0.305250
vt 0.243979 0.305250
vt 0.243979 0.305250
vt 0.243979 0.305250
vt 0.243979 0.305250
vt 0.243979 0.305250
vt 0.243979 0.305250
vt 0.243979 0.305250
vt 0.243979 0.305250
vt 0.243979 0.305250
vt 0.243979 0.305250
vt 0.243979 0.305250
vt 0.243979 0.305250
vt 0.243979 0.305250
vt 0.243979 0.305250
vt 0.243979 0.305250
vt 0.243979 0.305250
vt 0.243979 0.305250
vt 0.243979 0.305250
vt 0.243979 0.305250
vt 0.243979 0.305250
vt 0.243979 0.305250
vt 0.243979 0.305250
vt 0.243979 0.305250
vt 0.243979 0.305250
vt 0.243979 0.305250
vt 0.243979 0.305250
vt 0.243979 0.305250
vn -0.114943 0.013525 0.993280
vn -0.114943 0.013525 0.993280
vn -0.114943 0.013525 0.993280
vn -0.027656 -0.013912 0.999521
vn -0.027656 -0.013912 0.999521
vn -0.027656 -0.013912 0.999521
vn 0.017182 0.024249 0.999558
vn 0.017182 0.024249 0.999558
vn 0.017182 0.024249 0.999558
vn 0.017182 0.024249 0.999558
vn 0.025459 -0.012660 0.999596
vn 0.025459 -0.012660 0.999596
vn 0.025459 -0.012660 0.999596
vn 0.841743 -0.059217 0.536621
vn 0.841743 -0.059217 0.536621
vn 0.841743 -0.059217 0.536621
vn 0.754504 0.040727 0.655031
vn 0.754504 0.040727 0.655031
vn 0.754504 0.040727 0.655031
vn -0.024488 0.038331 0.998965
vn -0.024488 0.038331 0.998965
vn -0.024488 0.038331 0.998965
vn 0.000619 -0.009997 0.999950
vn 0.000619 -0.009997 0.999950
vn 0.000619 -0.009997 0.999950
vn -0.024969 0.014552 0.999582
vn -0.024969 0.014552 0.999582
vn -0.024969 0.014552 0.999582
vn -0.020197 -0.002894 0.999792
vn -0.020197 -0.002894 0.999792
vn -0.020197 -0.002894 0.999792
vn 0.023375 -0.112549 0.993371
vn 0.023375 -0.112549 0.993371
vn 0.023375 -0.112549 0.993371
vn 0.614172 0.730606 0.298341
vn 0.614172 0.730606 0.298341
vn 0.614172 0.730606 0.298341
vn -0.042189 -0.986665 0.157198
vn -0.042189 -0.986665 0.157198
vn -0.042189 -0.986665 0.157199
vn -0.988404 0.015756 0.151025
vn -0.988404 0.015756 0.151025
vn -0.988404 0.015756 0.151025
vn -0.509878 -0.061299 0.858060
vn -0.509878 -0.061299 0.858060
vn -0.509878 -0.061299 0.858060
vn -0.512458 -0.049089 0.857308
vn -0.512458 -0.049089 0.857308
vn -0.512458 -0.049089 0.857308
vn -0.811599 0.009508 0.584137
vn -0.811599 0.009508 0.584137
vn -0.811599 0.009508 0.584137
vn 0.965064 -0.086692 0.247258
vn 0.965064 -0.086692 0.247258
vn 0.965064 -0.086692 0.247258
vn 0.132571 -0.986695 0.094117
vn 0.132571 -0.986695 0.094117
vn 0.132571 -0.986695 0.094117
vn 0.121937 -0.990328 0.066199
vn 0.121937 -0.990328 0.066199
vn 0.121937 -0.990328 0.066199
vn -0.038179 -0.839707 0.541696
vn -0.038179 -0.839707 0.541696
vn -0.038179 -0.839707 0.541696
vn -0.352372 0.935615 0.021392
vn -0.352372 0.935615 0.021392
vn -0.352372 0.935615 0.021392
vn -0.055911 0.998424 0.004843
vn -0.055911 0.998424 0.004843
vn -0.055911 0.998424 0.004843
vn 0.026604 0.973231 0.228284
vn 0.026604 0.973231 0.228284
vn 0.026604 0.973231 0.228284
vn 0.516416 0.828395 0.216969
vn 0.516416 0.828395 0.216969
vn 0.516416 0.828395 0.216969
vn -0.997481 -0.001842 0.070909
vn -0.997481 -0.001842 0.070909
vn -0.997481 -0.001842 0.070909
vn -0.999083 -0.041677 0.009813
vn -0.999083 -0.041677 0.009813
vn -0.999083 -0.041677 0.009813
vn 0.995940 0.015615 -0.088656
vn 0.995940 0.015615 -0.088656
vn 0.995940 0.015615 -0.088656
vn -0.498770 -0.728689 0.469297
vn -0.498770 -0.728689 0.469297
vn -0.498770 -0.728689 0.469297
vn -0.999385 -0.032851 -0.012267
vn -0.999385 -0.032851 -0.012267
vn -0.999385 -0.032851 -0.012267
vn 0.999621 -0.016058 0.022353
vn 0.999621 -0.016058 0.022353
vn 0.999621 -0.016058 0.022353
vn -0.988095 -0.048552 0.145981
vn -0.988095 -0.048552 0.145981
vn -0.988095 -0.048552 0.145981
vn 0.989716 0.141053 -0.023783
vn 0.989716 0.141053 -0.023783
vn 0.989716 0.141053 -0.023783
vn -0.987207 0.156513 -0.030417
vn -0.987207 0.156513 -0.030417
vn -0.987208 0.156513 -0.030417
vn -0.663170 0.673295 -0.326924
vn -0.663170 0.673295 -0.326924
vn -0.663170 0.673295 -0.326924
vn -0.356735 0.933993 0.019938
vn -0.356735 0.933993 0.019938
vn -0.356735 0.933993 0.019938
vn 0.519301 0.853752 0.037866
vn 0.519301 0.853752 0.037866
vn 0.519301 0.853752 0.037866
vn -0.015694 0.994839 -0.100247
vn -0.015694 0.994839 -0.100247
vn -0.015694 0.994839 -0.100247
vn -0.999216 -0.003908 0.039401
vn -0.999216 -0.003908 0.039401
vn -0.999216 -0.003908 0.039401
vn -0.998543 0.001166 -0.053957
vn -0.998543 0.001166 -0.053957
vn -0.998543 0.001166 -0.053957
vn -0.999977 0.003220 0.005994
vn -0.999977 0.003220 0.005994
vn -0.999977 0.003220 0.005994
vn -0.042559 -0.998627 -0.030550
vn -0.042559 -0.998627 -0.030550
vn -0.042559 -0.998627 -0.030550
vn -0.174000 -0.965012 0.196150
vn -0.174000 -0.965012 0.196150
vn -0.174000 -0.965012 0.196150
vn -0.978679 0.201913 0.037664
vn -0.978679 0.201913 0.037664
vn -0.978679 0.201913 0.037664
vn -0.064764 -0.997887 -0.005265
vn -0.064764 -0.997887 -0.005265
vn -0.064764 -0.997887 -0.005265
vn -0.025348 -0.998624 -0.045912
vn -0.025348 -0.998624 -0.045912
vn -0.025348 -0.998624 -0.045912
vn -0.552546 -0.833479 0.002373
vn -0.552546 -0.833479 0.002373
vn -0.552546 -0.833479 0.002373
vn -0.913235 -0.402509 -0.063159
vn -0.913235 -0.402509 -0.063159
vn -0.913235 -0.402509 -0.063159
vn -0.033268 -0.999446 -0.001027
vn -0.033268 -0.999446 -0.001027
vn -0.033268 -0.999446 -0.001027
vn 0.999351 -0.000120 -0.036030
vn 0.999351 -0.000120 -0.036030
vn 0.999351 -0.000120 -0.036030
vn 0.998412 0.035677 0.043591
vn 0.998412 0.035677 0.043591
vn 0.998412 0.035677 0.043591
vn -0.959601 0.079106 -0.270017
vn -0.959601 0.079106 -0.270017
vn -0.959601 0.079106 -0.270017
vn 0.753082 0.649012 -0.107940
vn 0.753082 0.649012 -0.107940
vn 0.753082 0.649012 -0.107940
vn -0.995728 -0.091694 0.010886
vn -0.995728 -0.091694 0.010886
vn -0.995728 -0.091694 0.010886
vn -0.661700 -0.035301 -0.748938
vn -0.661700 -0.035301 -0.748938
vn -0.661700 -0.035301 -0.748938
vn -0.991264 -0.009545 -0.131549
vn -0.991264 -0.009545 -0.131549
vn -0.991264 -0.009545 -0.131549
vn 0.996882 -0.027438 -0.073984
vn 0.996882 -0.027438 -0.073984
vn 0.996882 -0.027438 -0.073984
vn -0.037152 -0.995522 -0.086928
vn -0.037152 -0.995522 -0.086928
vn -0.037152 -0.995522 -0.086928
vn 0.134355 -0.462160 -0.876560
vn 0.134355 -0.462160 -0.876560
vn 0.134355 -0.462160 -0.876560
vn 0.026793 0.028669 -0.999230
vn 0.026793 0.028669 -0.999230
vn 0.026793 0.028669 -0.999230
vn -0.054470 -0.015024 -0.998402
vn -0.054470 -0.015024 -0.998402
vn -0.054470 -0.015024 -0.998402
vn -0.054470 -0.015024 -0.998402
vn -0.163640 -0.984730 -0.059410
vn -0.163640 -0.984730 -0.059410
vn -0.163640 -0.984730 -0.059410
vn -0.007881 0.021022 -0.999748
vn -0.007881 0.021022 -0.999748
vn -0.007881 0.021022 -0.999748
vn -0.007881 0.021022 -0.999748
vn -0.066172 -0.644694 -0.761571
vn -0.066172 -0.644694 -0.761571
vn -0.066172 -0.644694 -0.761571
vn -0.416624 -0.277675 -0.865633
vn -0.416624 -0.277675 -0.865633
vn -0.416624 -0.277675 -0.865633
vn -0.012501 0.004999 -0.999909
vn -0.012501 0.004999 -0.999909
vn -0.012501 0.004999 -0.999909
vn -0.008251 0.002490 -0.999963
vn -0.008251 0.002490 -0.999963
vn -0.008251 0.002490 -0.999963
vn -0.008251 0.002490 -0.999963
vn -0.377115 -0.431779 -0.819360
vn -0.377115 -0.431779 -0.819360
vn -0.377115 -0.431779 -0.819360
s off
f 22/2/1 21/3/2 4/1/3
f 21/3/4 22/2/5 3/7/6
f 27/4/7 21/3/8 3/7/9 1/5/10
f 1/5/11 3/7/12 29/8/13
f 25/10/14 23/9/15 1/5/16
f 25/10/17 2/14/18 23/9/19
f 29/8/20 24/12/21 25/10/22
f 7/13/23 25/10/24 24/12/25
f 29/8/26 25/10/27 1/5/28
f 2/14/29 25/10/30 7/13/31
f 2/14/32 7/13/33 26/15/34
f 28/19/35 27/18/36 1/6/37
f 3/22/38 22/21/39 35/20/40
f 30/24/41 29/23/42 9/51/43
f 29/8/44 30/25/45 24/12/46
f 24/12/47 30/25/48 8/26/49
f 24/12/50 8/26/51 7/13/52
f 2/27/53 26/31/54 32/30/55
f 31/33/56 38/54/57 32/34/58
f 31/33/59 32/34/60 26/35/61
f 7/32/62 31/33/63 26/35/64
f 4/49/65 21/37/66 5/36/67
f 21/37/68 33/38/69 5/36/70
f 21/37/71 27/39/72 33/38/73
f 28/40/74 33/38/75 27/39/76
f 4/16/77 34/41/78 22/17/79
f 19/42/80 22/17/81 34/41/82
f 1/6/83 23/11/84 28/19/85
f 35/43/86 9/51/87 3/44/88
f 29/23/89 3/44/90 9/51/91
f 15/70/92 23/11/93 2/27/94
f 7/28/95 8/29/96 10/45/97
f 32/30/98 15/70/99 2/27/100
f 37/46/101 10/45/102 18/47/103
f 5/36/104 11/63/105 34/48/106
f 5/36/107 34/48/108 4/49/109
f 6/50/110 33/38/111 28/40/112
f 33/38/113 6/50/114 5/36/115
f 30/24/116 9/51/117 10/45/118
f 17/52/119 10/45/120 9/51/121
f 8/29/122 30/24/123 10/45/124
f 10/53/125 38/54/126 31/33/127
f 7/32/128 10/53/129 31/33/130
f 22/17/131 19/42/132 36/55/133
f 22/21/134 36/56/135 35/20/136
f 13/57/137 35/20/138 36/56/139
f 16/60/140 35/20/141 13/57/142
f 9/51/143 35/43/144 16/61/145
f 10/53/146 37/58/147 38/54/148
f 15/70/149 14/62/150 23/11/151
f 28/19/152 23/11/153 14/62/154
f 19/42/155 34/41/156 11/64/157
f 6/59/158 28/19/159 14/62/160
f 9/51/161 16/61/162 17/52/163
f 12/65/164 17/68/165 16/66/166
f 10/45/167 17/52/168 18/47/169
f 32/30/170 38/69/171 15/70/172
f 37/58/173 20/71/174 38/54/175
f 15/72/176 38/54/177 20/71/178
f 5/74/179 6/75/180 12/65/181
f 5/74/182 12/65/183 19/77/184 11/76/185
f 13/57/186 19/78/187 12/79/188
f 12/65/189 6/75/190 14/81/191 17/68/192
f 13/57/193 36/56/194 19/78/195
f 13/80/196 12/65/197 16/66/198
f 17/68/199 20/82/200 18/67/201
f 17/68/202 14/81/203 15/73/204 20/82/205
f 20/82/206 37/83/207 18/67/208
