# This file uses meters as units for non-parametric coordinates.

v 25.202103 1.849505 -2.251511
v 1.156693 -1.161593 -24.635506
v -25.235977 -1.529055 -1.021137
v 0.853958 -1.058450 25.021019
v 0.000000 -24.742512 -0.000191
v 17.495651 17.495598 -0.000191
v 1.974411 17.245026 -17.233505
v -18.183670 15.160041 -1.732388
v 1.500473 16.143913 17.773075
v 17.495651 -17.495598 -0.000191
v 0.000000 -17.495604 -17.495766
v -17.495651 -17.495598 -0.000191
v 0.000000 -17.495598 17.495384
v 17.495651 0.000000 -17.495766
v -17.495651 0.000000 -17.495766
v -17.495651 0.000000 17.495384
v 17.495651 0.000000 17.495384
v 9.513397 21.623672 -0.000191
v 0.000000 21.623672 -9.513626
v -9.513474 21.623672 -0.000191
v 0.000000 21.623680 9.513283
v 9.513397 26.635551 -0.000191
v 0.000000 26.635551 -9.513626
v -9.513474 26.635551 -0.000191
v 0.000000 26.635551 9.513283
v 15.508041 30.955486 -0.000191
v 0.000000 30.955486 -15.508194
v -15.508118 30.955486 -0.000191
v 0.000000 30.955486 15.507851
v -10.498581 37.854446 10.128040
v 9.688644 37.854446 10.854530
v 10.752869 37.854446 -9.825897
v -9.914780 37.854446 -10.747528
v -0.111694 26.375198 -0.017586
v 9.377365 39.617691 -8.569031
v 0.000000 33.601227 -13.524456
v -8.646545 39.617691 -9.372749
v 8.449249 39.617691 9.466038
v 13.524246 33.601227 -0.000191
v -13.524323 33.601227 -0.000191
v -9.155655 39.617691 8.832474
v 0.000000 33.601227 13.524113
v 0.000000 24.129616 10.816917
v -10.607758 24.673344 0.887527
v 0.000000 24.129616 -10.817261
v 10.852051 23.513828 0.706615
vt 0.006006 0.254630
vt 0.004935 0.304433
vt 0.004935 0.304433
vt 0.004935 0.304433
vt 0.004935 0.304433
vt 0.004935 0.304433
vt 0.004935 0.304433
vt 0.004935 0.304433
vt 0.004935 0.304433
vt 0.004935 0.304433
vt 0.004935 0.304433
vt 0.004935 0.304433
vt 0.004935 0.304433
vt 0.004935 0.304433
vt 0.004935 0.304433
vt 0.004935 0.304433
vt 0.004935 0.304433
vt 0.004935 0.304433
vt 0.006006 0.254630
vt 0.006006 0.254630
vt 0.006006 0.254630
vt 0.004935 0.304433
vt 0.004935 0.304433
vt 0.004935 0.304433
vt 0.004935 0.304433
vt 0.004935 0.304433
vt 0.004935 0.304433
vt 0.004935 0.304433
vt 0.004935 0.304433
vt 0.004935 0.304433
vt 0.004935 0.304433
vt 0.004935 0.304433
vt 0.004935 0.304433
vt 0.004935 0.304433
vt 0.004935 0.304433
vt 0.004935 0.304433
vt 0.004935 0.304433
vt 0.004935 0.304433
vt 0.004935 0.304433
vt 0.004935 0.304433
vt 0.004935 0.304433
vt 0.004935 0.304433
vt 0.004935 0.304433
vt 0.004935 0.304433
vt 0.004935 0.304433
vt 0.004935 0.304433
vt 0.004935 0.304433
vt 0.125817 0.446129
vt 0.125817 0.446129
vt 0.125817 0.446129
vt 0.125817 0.446129
vt 0.125817 0.446129
vt 0.125817 0.446129
vt 0.125817 0.446129
vt 0.125817 0.446129
vt 0.004935 0.304433
vt 0.004935 0.304433
vt 0.004935 0.304433
vt 0.004935 0.304433
vt 0.006006 0.254630
vt 0.004935 0.304433
vt 0.004935 0.304433
vt 0.006006 0.254630
vt 0.004935 0.304433
vt 0.004935 0.304433
vt 0.004935 0.304433
vt 0.004935 0.304433
vt 0.006006 0.254630
vt 0.006006 0.254630
vt 0.006006 0.254630
vt 0.006006 0.254630
vt 0.004935 0.304433
vt 0.006006 0.254630
vt 0.006006 0.254630
vt 0.006006 0.254630
vt 0.004935 0.304433
vt 0.006006 0.254630
vt 0.004935 0.304433
vt 0.006006 0.254630
vt 0.006006 0.254630
vt 0.006006 0.254630
vt 0.006006 0.254630
vt 0.006006 0.254630
vt 0.006006 0.254630
vt 0.006006 0.254630
vt 0.006006 0.254630
vt 0.006006 0.254630
vt 0.006006 0.254630
vt 0.125817 0.446129
vt 0.125817 0.446129
vt 0.125817 0.446129
vt 0.125817 0.446129
vn -0.631303 0.685986 0.361774
vn -0.631303 0.685986 0.361774
vn -0.631303 0.685986 0.361774
vn 0.775680 0.446274 -0.446275
vn 0.775679 0.446274 -0.446275
vn 0.775679 0.446274 -0.446275
vn 0.611924 0.559262 -0.559263
vn 0.611924 0.559262 -0.559263
vn 0.611924 0.559262 -0.559263
vn 0.357225 0.334778 -0.871960
vn 0.357225 0.334778 -0.871960
vn 0.357225 0.334778 -0.871960
vn 0.643465 0.672729 0.365224
vn 0.643465 0.672729 0.365224
vn 0.643465 0.672729 0.365224
vn -0.312651 0.366319 -0.876390
vn -0.312651 0.366319 -0.876390
vn -0.312651 0.366319 -0.876390
vn -0.524995 0.601884 -0.601761
vn -0.524995 0.601884 -0.601761
vn -0.524995 0.601884 -0.601761
vn -0.860588 0.347802 -0.372052
vn -0.860588 0.347802 -0.372052
vn -0.860588 0.347802 -0.372052
vn -0.864404 0.379335 0.330016
vn -0.864404 0.379335 0.330016
vn -0.864404 0.379335 0.330016
vn -0.554696 0.643626 0.527312
vn -0.554696 0.643626 0.527312
vn -0.554696 0.643626 0.527312
vn -0.332809 0.376738 0.864469
vn -0.332809 0.376738 0.864469
vn -0.332809 0.376738 0.864469
vn -0.362788 0.686120 -0.630575
vn -0.362788 0.686120 -0.630575
vn -0.362788 0.686120 -0.630575
vn 0.367547 0.349335 0.861902
vn 0.367547 0.349335 0.861902
vn 0.367547 0.349335 0.861902
vn 0.587475 0.572220 0.572221
vn 0.587475 0.572220 0.572221
vn 0.587475 0.572220 0.572221
vn 0.854103 0.367769 0.367769
vn 0.854103 0.367768 0.367769
vn 0.854103 0.367769 0.367769
vn 0.357406 -0.862857 -0.357407
vn 0.357406 -0.862857 -0.357407
vn 0.357406 -0.862857 -0.357407
vn 0.391665 -0.391666 -0.832584
vn 0.391665 -0.391666 -0.832584
vn 0.391665 -0.391666 -0.832584
vn 0.577349 -0.577351 -0.577351
vn 0.577349 -0.577350 -0.577351
vn 0.577349 -0.577350 -0.577351
vn 0.843198 -0.380142 -0.380143
vn 0.843198 -0.380142 -0.380143
vn 0.843198 -0.380142 -0.380143
vn -0.357406 -0.862857 -0.357407
vn -0.357406 -0.862857 -0.357407
vn -0.357406 -0.862857 -0.357407
vn -0.806756 -0.417819 -0.417819
vn -0.806755 -0.417819 -0.417819
vn -0.806755 -0.417819 -0.417819
vn -0.577349 -0.577350 -0.577351
vn -0.577349 -0.577351 -0.577351
vn -0.577349 -0.577351 -0.577351
vn -0.353523 -0.353523 -0.866050
vn -0.353523 -0.353523 -0.866050
vn -0.353523 -0.353523 -0.866050
vn -0.357406 -0.862857 0.357407
vn -0.357406 -0.862856 0.357407
vn -0.357406 -0.862856 0.357407
vn -0.370647 -0.370648 0.851611
vn -0.370647 -0.370648 0.851611
vn -0.370647 -0.370648 0.851611
vn -0.577349 -0.577351 0.577351
vn -0.577349 -0.577351 0.577351
vn -0.577349 -0.577351 0.577351
vn -0.840594 -0.383015 0.383016
vn -0.840594 -0.383015 0.383016
vn -0.840594 -0.383015 0.383016
vn 0.357406 -0.862857 0.357407
vn 0.357406 -0.862856 0.357407
vn 0.357406 -0.862856 0.357407
vn 0.892761 -0.318572 0.318573
vn 0.892761 -0.318572 0.318573
vn 0.892761 -0.318572 0.318573
vn 0.577349 -0.577351 0.577351
vn 0.577349 -0.577351 0.577351
vn 0.577349 -0.577351 0.577351
vn 0.398797 -0.398798 0.825785
vn 0.398797 -0.398798 0.825785
vn 0.398797 -0.398798 0.825785
vn 0.406147 0.827393 -0.387899
vn 0.406146 0.827393 -0.387899
vn 0.406147 0.827393 -0.387899
vn 0.406147 0.827393 -0.387899
vn -0.471936 0.726668 -0.499229
vn -0.471936 0.726668 -0.499229
vn -0.471936 0.726668 -0.499229
vn -0.471936 0.726668 -0.499229
vn -0.557966 0.630106 0.540038
vn -0.557966 0.630106 0.540038
vn -0.557966 0.630106 0.540038
vn -0.557966 0.630106 0.540038
vn 0.424334 0.793630 0.435995
vn 0.424334 0.793630 0.435995
vn 0.424334 0.793630 0.435995
vn 0.424334 0.793630 0.435995
vn 0.681412 -0.298238 -0.668380
vn 0.681412 -0.298238 -0.668380
vn 0.681412 -0.298238 -0.668380
vn 0.681412 -0.298238 -0.668380
vn -0.714678 -0.191140 -0.672831
vn -0.714678 -0.191140 -0.672831
vn -0.714678 -0.191140 -0.672831
vn -0.714678 -0.191140 -0.672831
vn -0.646182 -0.386784 0.657911
vn -0.646182 -0.386784 0.657911
vn -0.646182 -0.386784 0.657911
vn -0.646182 -0.386784 0.657911
vn 0.602590 -0.476325 0.640312
vn 0.602590 -0.476325 0.640312
vn 0.602590 -0.476325 0.640312
vn 0.602590 -0.476325 0.640312
vn 0.444897 -0.617370 -0.648785
vn 0.444897 -0.617370 -0.648785
vn 0.444897 -0.617370 -0.648785
vn -0.645535 -0.619605 -0.446514
vn -0.645535 -0.619605 -0.446514
vn -0.645535 -0.619605 -0.446514
vn -0.447269 -0.620662 0.643995
vn -0.447269 -0.620662 0.643995
vn -0.447269 -0.620662 0.643995
vn 0.651380 -0.615566 0.443602
vn 0.651380 -0.615566 0.443602
vn 0.651380 -0.615566 0.443602
vn -0.639904 -0.623438 0.449275
vn -0.639904 -0.623438 0.449275
vn -0.639904 -0.623438 0.449275
vn -0.579161 -0.573712 0.579161
vn -0.579161 -0.573712 0.579161
vn -0.579161 -0.573712 0.579161
vn 0.450077 -0.624558 0.638246
vn 0.450077 -0.624558 0.638246
vn 0.450077 -0.624558 0.638246
vn 0.580594 -0.570812 0.580590
vn 0.580594 -0.570812 0.580590
vn 0.580594 -0.570812 0.580590
vn 0.638428 -0.624433 -0.449993
vn 0.638428 -0.624433 -0.449993
vn 0.638428 -0.624433 -0.449993
vn 0.579989 -0.572040 -0.579986
vn 0.579989 -0.572040 -0.579986
vn 0.579989 -0.572040 -0.579986
vn -0.450965 -0.625791 -0.636409
vn -0.450965 -0.625791 -0.636409
vn -0.450965 -0.625791 -0.636409
vn -0.578554 -0.574933 -0.578556
vn -0.578554 -0.574933 -0.578556
vn -0.578554 -0.574933 -0.578556
vn 0.368811 0.683054 0.630409
vn 0.368811 0.683054 0.630409
vn 0.368811 0.683054 0.630409
vn 0.363573 0.676390 -0.640555
vn 0.363573 0.676390 -0.640555
vn 0.363573 0.676390 -0.640555
vn -0.649311 0.673183 -0.353864
vn -0.649311 0.673183 -0.353864
vn -0.649311 0.673183 -0.353864
vn 0.634927 0.679415 -0.367781
vn 0.634927 0.679415 -0.367782
vn 0.634927 0.679415 -0.367781
vn -0.357926 0.673871 0.646365
vn -0.357926 0.673871 0.646365
vn -0.357926 0.673871 0.646365
vn 0.037887 0.599459 -0.799508
vn 0.037887 0.599459 -0.799508
vn 0.037887 0.599459 -0.799508
vn 0.037887 0.599459 -0.799508
vn 0.033235 0.599561 -0.799639
vn 0.033235 0.599561 -0.799639
vn 0.033235 0.599561 -0.799639
vn 0.033235 0.599561 -0.799639
vn 0.799167 0.599221 0.047598
vn 0.799167 0.599221 0.047598
vn 0.799167 0.599221 0.047598
vn 0.799167 0.599221 0.047598
vn -0.799688 0.599600 -0.031289
vn -0.799688 0.599600 -0.031289
vn -0.799688 0.599600 -0.031289
vn -0.799688 0.599600 -0.031289
vn -0.800012 0.599845 -0.012899
vn -0.800012 0.599845 -0.012899
vn -0.800012 0.599845 -0.012899
vn -0.800012 0.599845 -0.012899
vn -0.042854 0.599338 0.799348
vn -0.042854 0.599338 0.799348
vn -0.042854 0.599338 0.799348
vn -0.042854 0.599338 0.799348
vn -0.015779 0.599816 0.799983
vn -0.015779 0.599816 0.799983
vn -0.015779 0.599816 0.799983
vn -0.015779 0.599816 0.799983
vn 0.799614 0.599552 0.033992
vn 0.799614 0.599552 0.033992
vn 0.799614 0.599552 0.033992
vn 0.799614 0.599552 0.033992
vn -0.608844 0.464501 0.643077
vn -0.608844 0.464501 0.643077
vn -0.608844 0.464501 0.643077
vn -0.608844 0.464501 0.643077
vn -0.702361 0.234572 -0.672060
vn -0.702361 0.234572 -0.672060
vn -0.702361 0.234572 -0.672060
vn -0.702361 0.234572 -0.672060
vn 0.701301 0.238079 -0.671935
vn 0.701301 0.238079 -0.671935
vn 0.701300 0.238079 -0.671935
vn 0.701301 0.238079 -0.671935
vn 0.645441 0.388470 0.657645
vn 0.645441 0.388470 0.657645
vn 0.645441 0.388470 0.657645
vn 0.645441 0.388470 0.657645
s off
f 34/19/1 35/71/2 36/87/3
f 6/7/4 1/2/5 14/15/6
f 6/7/7 14/15/8 7/8/9
f 7/8/10 14/15/11 2/3/12
f 34/80/13 36/88/14 37/85/15
f 7/8/16 2/3/17 15/16/18
f 7/8/19 15/16/20 8/9/21
f 8/9/22 15/16/23 3/4/24
f 8/23/25 3/24/26 16/17/27
f 8/25/28 16/17/29 9/10/30
f 9/10/31 16/17/32 4/5/33
f 34/1/34 38/77/35 39/69/36
f 9/10/37 4/5/38 17/18/39
f 9/10/40 17/18/41 6/7/42
f 6/7/43 17/18/44 1/2/45
f 5/26/46 11/12/47 10/11/48
f 11/12/49 2/3/50 14/15/51
f 11/12/52 14/15/53 10/11/54
f 10/11/55 14/15/56 1/2/57
f 5/27/58 12/13/59 11/12/60
f 12/13/61 3/4/62 15/16/63
f 12/13/64 15/16/65 11/12/66
f 11/12/67 15/16/68 2/3/69
f 5/28/70 13/14/71 12/29/72
f 13/14/73 4/5/74 16/17/75
f 13/14/76 16/17/77 12/30/78
f 12/31/79 16/17/80 3/32/81
f 5/6/82 10/11/83 13/14/84
f 10/11/85 1/2/86 17/18/87
f 10/11/88 17/18/89 13/14/90
f 13/14/91 17/18/92 4/5/93
f 6/7/94 7/8/95 19/34/96 18/33/97
f 7/8/98 8/9/99 20/35/100 19/34/101
f 8/22/102 9/10/103 21/37/104 20/36/105
f 9/10/106 6/7/107 18/33/108 21/37/109
f 18/48/110 19/49/111 45/91/112 46/92/113
f 19/49/114 20/52/115 44/90/116 45/91/117
f 20/52/118 21/54/119 43/89/120 44/90/121
f 21/54/122 18/48/123 46/92/124 43/89/125
f 22/38/126 32/58/127 26/43/128
f 23/39/129 33/59/130 27/44/131
f 24/41/132 30/56/133 28/46/134
f 25/42/135 31/57/136 29/47/137
f 30/56/138 25/42/139 29/47/140
f 24/41/141 25/42/142 30/56/143
f 31/57/144 22/38/145 26/43/146
f 25/42/147 22/38/148 31/57/149
f 32/58/150 23/39/151 27/44/152
f 22/38/153 23/39/154 32/58/155
f 33/59/156 24/40/157 28/45/158
f 23/39/159 24/40/160 33/59/161
f 34/20/162 37/86/163 40/83/164
f 41/73/165 34/79/166 40/84/167
f 38/63/168 34/82/169 42/75/170
f 34/21/171 41/74/172 42/68/173
f 34/81/174 39/70/175 35/60/176
f 32/58/177 27/44/178 36/61/179 35/72/180
f 27/44/181 33/59/182 37/62/183 36/61/184
f 31/57/185 26/43/186 39/64/187 38/78/188
f 33/59/189 28/45/190 40/65/191 37/62/192
f 28/46/193 30/56/194 41/67/195 40/66/196
f 29/47/197 31/57/198 38/78/199 42/76/200
f 30/56/201 29/47/202 42/76/203 41/67/204
f 26/43/205 32/58/206 35/72/207 39/64/208
f 44/90/209 43/89/210 25/55/211 24/53/212
f 45/91/213 44/90/214 24/53/215 23/50/216
f 46/92/217 45/91/218 23/50/219 22/51/220
f 43/89/221 46/92/222 22/51/223 25/55/224
