# This file uses meters as units for non-parametric coordinates.

v 17.139277 17.605883 -0.959823
v 14.055478 21.661375 -0.959823
v -25.534271 21.661396 -0.959823
v -28.618080 17.605906 -0.959823
v -28.618090 -15.136814 -0.959823
v -25.077950 -18.212879 -0.959823
v -16.634256 -22.982212 -0.959823
v -4.432296 -18.027157 -0.959822
v 14.055491 -17.699503 -0.959823
v 17.139305 -13.644008 -0.959823
v 14.005856 16.648193 -0.959823
v 11.235473 19.397541 -0.959823
v -22.714262 19.397560 -0.959823
v -26.012140 16.648212 -0.959823
v -26.012150 -12.170993 -0.959823
v -23.672789 -15.459589 -0.959823
v -13.527308 -19.450726 -0.959823
v -5.398597 -15.326374 -0.959823
v 11.235485 -14.973413 -0.959823
v 14.005878 -12.686318 -0.959823
v 17.139277 17.605881 0.959823
v 14.005856 16.648193 0.959823
v 14.055478 21.661375 0.959823
v 11.235473 19.397541 0.959824
v -25.534271 21.661396 0.959823
v -22.714262 19.397560 0.959824
v -28.618080 17.605906 0.959823
v -26.012140 16.648212 0.959823
v -28.618090 -15.136815 0.959823
v -26.012150 -12.170991 0.959823
v -25.077950 -18.212883 0.959823
v -23.672789 -15.459590 0.959823
v -16.634256 -22.982216 0.959823
v -13.527308 -19.450726 0.959823
v -4.432296 -18.027157 0.959823
v -5.398597 -15.326375 0.959823
v 14.055491 -17.699505 0.959823
v 11.235485 -14.973413 0.959823
v 17.139305 -13.644010 0.959823
v 14.005878 -12.686318 0.959823
v -10.458912 -18.590698 0.959823
v -10.458912 -18.590696 -0.959823
v -11.315263 -21.717804 -0.959823
v -11.315263 -21.717804 0.959823
v -12.993950 -15.626184 0.959823
v -12.993950 -15.626181 -0.959823
v -15.823767 -18.659117 -0.959822
v -15.823767 -18.659115 0.959823
vt 0.078708 0.228760
vt 0.078708 0.228760
vt 0.078708 0.228760
vt 0.078708 0.228760
vt 0.078708 0.228760
vt 0.078708 0.228760
vt 0.078708 0.228760
vt 0.078708 0.228760
vt 0.078708 0.228760
vt 0.078708 0.228760
vt 0.078708 0.228760
vt 0.078708 0.228760
vt 0.078708 0.228760
vt 0.078708 0.228760
vt 0.078708 0.228760
vt 0.078708 0.228760
vt 0.078708 0.228760
vt 0.078708 0.228760
vt 0.078708 0.228760
vt 0.078708 0.228760
vt 0.078708 0.228760
vt 0.078708 0.228760
vt 0.078708 0.228760
vt 0.078708 0.228760
vt 0.078708 0.228760
vt 0.078708 0.228760
vt 0.078708 0.228760
vt 0.078708 0.228760
vt 0.078708 0.228760
vt 0.078708 0.228760
vt 0.078708 0.228760
vt 0.078708 0.228760
vt 0.078708 0.228760
vt 0.078708 0.228760
vt 0.078708 0.228760
vt 0.078708 0.228760
vt 0.078708 0.228760
vt 0.078708 0.228760
vt 0.078708 0.228760
vt 0.078708 0.228760
vt 0.078708 0.228760
vt 0.078708 0.228760
vt 0.078708 0.228760
vt 0.078708 0.228760
vt 0.078708 0.228760
vt 0.078708 0.228760
vt 0.078708 0.228760
vt 0.078708 0.228760
vt 0.078708 0.228760
vt 0.078708 0.228760
vt 0.078708 0.228760
vt 0.078708 0.228760
vt 0.078708 0.228760
vt 0.078708 0.228760
vt 0.078708 0.228760
vt 0.078708 0.228760
vt 0.078708 0.228760
vt 0.078708 0.228760
vt 0.078708 0.228760
vt 0.078708 0.228760
vt 0.078708 0.228760
vt 0.078708 0.228760
vt 0.078708 0.228760
vt 0.078708 0.228760
vt 0.078708 0.228760
vt 0.078708 0.228760
vt 0.078708 0.228760
vt 0.078708 0.228760
vt 0.078708 0.228760
vt 0.078708 0.228760
vt 0.078708 0.228760
vt 0.078708 0.228760
vt 0.078708 0.228760
vt 0.078708 0.228760
vt 0.078708 0.228760
vt 0.078708 0.228760
vt 0.078708 0.228760
vt 0.078708 0.228760
vt 0.078708 0.228760
vt 0.078708 0.228760
vt 0.078708 0.228760
vt 0.078708 0.228760
vt 0.078708 0.228760
vt 0.078708 0.228760
vt 0.078708 0.228760
vt 0.078708 0.228760
vt 0.078708 0.228760
vt 0.078708 0.228760
vt 0.078708 0.228760
vt 0.078708 0.228760
vt 0.078708 0.228760
vt 0.078708 0.228760
vt 0.078708 0.228760
vt 0.078708 0.228760
vt 0.078708 0.228760
vt 0.078708 0.228760
vt 0.078708 0.228760
vt 0.078708 0.228760
vt 0.078708 0.228760
vt 0.078708 0.228760
vt 0.078708 0.228760
vt 0.078708 0.228760
vt 0.078708 0.228760
vt 0.078708 0.228760
vt 0.078708 0.228760
vt 0.078708 0.228760
vt 0.078708 0.228760
vt 0.078708 0.228760
vt 0.078708 0.228760
vt 0.078708 0.228760
vt 0.078708 0.228760
vt 0.078708 0.228760
vt 0.078708 0.228760
vt 0.078708 0.228760
vt 0.078708 0.228760
vt 0.078708 0.228760
vt 0.078708 0.228760
vt 0.078708 0.228760
vt 0.078708 0.228760
vt 0.078708 0.228760
vt 0.078708 0.228760
vt 0.078708 0.228760
vt 0.078708 0.228760
vt 0.078708 0.228760
vt 0.078708 0.228760
vt 0.078708 0.228760
vt 0.078708 0.228760
vt 0.078708 0.228760
vt 0.078708 0.228760
vt 0.078708 0.228760
vt 0.078708 0.228760
vt 0.078708 0.228760
vn 0.000000 -0.000000 1.000000
vn 0.000000 -0.000000 1.000000
vn 0.000000 -0.000000 1.000000
vn 0.000000 -0.000000 1.000000
vn 0.000000 0.000000 1.000000
vn 0.000000 0.000000 1.000000
vn 0.000000 0.000000 1.000000
vn 0.000000 0.000000 1.000000
vn -0.000000 0.000000 1.000000
vn -0.000000 0.000000 1.000000
vn -0.000000 0.000000 1.000000
vn -0.000000 0.000000 1.000000
vn 0.000000 -0.000000 1.000000
vn 0.000000 -0.000000 1.000000
vn 0.000000 -0.000000 1.000000
vn 0.000000 -0.000000 1.000000
vn -0.000000 0.000000 1.000000
vn -0.000000 0.000000 1.000000
vn -0.000000 0.000000 1.000000
vn -0.000000 0.000000 1.000000
vn 0.000000 0.000000 1.000000
vn -0.000000 0.000000 1.000000
vn -0.000000 0.000000 1.000000
vn 0.000000 0.000000 1.000000
vn -0.000000 0.000000 1.000000
vn -0.000000 0.000000 1.000000
vn 0.000000 0.000000 1.000000
vn -0.000000 0.000000 1.000000
vn -0.000000 0.000000 1.000000
vn -0.000000 0.000000 1.000000
vn -0.000000 0.000000 1.000000
vn -0.000000 0.000000 1.000000
vn 0.000000 0.000000 1.000000
vn 0.000000 0.000000 1.000000
vn 0.000000 0.000000 1.000000
vn 0.000000 0.000000 1.000000
vn -0.000000 0.000000 1.000000
vn -0.000000 0.000000 1.000000
vn -0.000000 0.000000 1.000000
vn -0.000000 0.000000 1.000000
vn 0.000000 -0.000000 -1.000000
vn 0.000000 -0.000000 -1.000000
vn 0.000000 -0.000000 -1.000000
vn 0.000000 -0.000000 -1.000000
vn -0.000000 0.000000 -1.000000
vn -0.000000 0.000000 -1.000000
vn -0.000000 0.000000 -1.000000
vn -0.000000 0.000000 -1.000000
vn -0.000000 -0.000000 -1.000000
vn -0.000000 -0.000000 -1.000000
vn -0.000000 -0.000000 -1.000000
vn -0.000000 -0.000000 -1.000000
vn 0.000000 0.000000 -1.000000
vn 0.000000 0.000000 -1.000000
vn 0.000000 0.000000 -1.000000
vn 0.000000 0.000000 -1.000000
vn -0.000000 0.000000 -1.000000
vn -0.000000 0.000000 -1.000000
vn -0.000000 0.000000 -1.000000
vn -0.000000 0.000000 -1.000000
vn 0.000000 -0.000000 -1.000000
vn 0.000000 -0.000000 -1.000000
vn 0.000000 -0.000000 -1.000000
vn 0.000000 -0.000000 -1.000000
vn 0.000000 -0.000000 -1.000000
vn 0.000000 -0.000000 -1.000000
vn -0.000000 -0.000000 -1.000000
vn -0.000000 -0.000000 -1.000000
vn -0.000000 0.000000 -1.000000
vn -0.000000 0.000000 -1.000000
vn 0.000000 -0.000000 -1.000000
vn 0.000000 -0.000000 -1.000000
vn -0.000000 -0.000000 -1.000000
vn -0.000000 -0.000000 -1.000000
vn -0.000000 -0.000000 -1.000000
vn -0.000000 -0.000000 -1.000000
vn 0.000000 0.000000 -1.000000
vn 0.000000 0.000000 -1.000000
vn 0.000000 0.000000 -1.000000
vn 0.000000 0.000000 -1.000000
vn -1.000000 -0.000001 0.000000
vn -1.000000 -0.000001 0.000000
vn -1.000000 -0.000001 0.000000
vn -1.000000 -0.000001 0.000000
vn 0.796009 0.605285 0.000000
vn 0.796009 0.605285 0.000000
vn 0.796009 0.605285 0.000000
vn 0.796009 0.605285 0.000000
vn -0.704407 -0.709796 0.000000
vn -0.704407 -0.709796 0.000000
vn -0.704407 -0.709796 0.000000
vn -0.704407 -0.709796 0.000000
vn 0.000001 1.000000 0.000000
vn 0.000001 1.000000 0.000000
vn 0.000001 1.000000 0.000000
vn 0.000001 1.000000 0.000000
vn -0.000001 -1.000000 0.000000
vn -0.000001 -1.000000 0.000000
vn -0.000001 -1.000000 0.000000
vn -0.000001 -1.000000 0.000000
vn -0.796007 0.605287 0.000000
vn -0.796007 0.605287 0.000000
vn -0.796007 0.605287 0.000000
vn -0.796007 0.605287 0.000000
vn 0.640338 -0.768093 0.000000
vn 0.640338 -0.768093 0.000000
vn 0.640338 -0.768093 0.000000
vn 0.640338 -0.768093 0.000000
vn -1.000000 0.000000 0.000000
vn -1.000000 0.000000 0.000000
vn -1.000000 0.000000 0.000000
vn -1.000000 0.000000 0.000000
vn 1.000000 -0.000000 0.000000
vn 1.000000 -0.000000 0.000000
vn 1.000000 -0.000000 0.000000
vn 1.000000 -0.000000 0.000000
vn -0.655898 -0.754850 -0.000000
vn -0.655898 -0.754850 -0.000000
vn -0.655898 -0.754850 -0.000000
vn -0.655898 -0.754850 -0.000000
vn 0.814861 0.579656 0.000000
vn 0.814861 0.579656 0.000000
vn 0.814861 0.579656 0.000000
vn 0.814861 0.579656 0.000000
vn -0.048164 -0.998839 -0.000001
vn -0.491808 -0.870704 -0.000001
vn -0.491808 -0.870704 -0.000001
vn -0.048164 -0.998839 -0.000001
vn 0.366082 0.930583 0.000001
vn 0.015598 0.999878 0.000001
vn 0.015598 0.999878 0.000001
vn 0.366083 0.930582 0.000001
vn 0.231271 -0.972889 -0.000001
vn 0.376247 -0.926519 -0.000001
vn 0.376247 -0.926519 -0.000001
vn 0.231271 -0.972889 -0.000001
vn -0.452471 0.891779 0.000001
vn -0.269885 0.962892 0.000001
vn -0.269885 0.962892 0.000001
vn -0.452471 0.891779 0.000001
vn 0.017720 -0.999843 0.000000
vn 0.017720 -0.999843 0.000000
vn 0.017720 -0.999843 0.000000
vn 0.017720 -0.999843 0.000000
vn -0.021214 0.999775 0.000000
vn -0.021214 0.999775 0.000000
vn -0.021214 0.999775 0.000000
vn -0.021214 0.999775 0.000000
vn 0.796007 -0.605287 -0.000000
vn 0.796007 -0.605287 -0.000000
vn 0.796007 -0.605287 -0.000000
vn 0.796007 -0.605287 -0.000000
vn -0.636635 0.771166 0.000000
vn -0.636635 0.771166 0.000000
vn -0.636635 0.771166 0.000000
vn -0.636635 0.771166 0.000000
vn 1.000000 0.000001 0.000000
vn 1.000000 0.000001 0.000000
vn 1.000000 0.000001 0.000000
vn 1.000000 0.000001 0.000000
vn -0.542080 0.840327 0.000001
vn -0.452471 0.891779 0.000001
vn -0.452471 0.891779 0.000001
vn -0.542080 0.840327 0.000001
vn 0.000000 -0.000000 -1.000000
vn 0.000000 -0.000000 -1.000000
vn 0.000000 -0.000000 -1.000000
vn 0.000000 -0.000000 -1.000000
vn 0.376247 -0.926519 -0.000001
vn 0.376247 -0.926519 -0.000001
vn 0.472554 -0.881302 0.000000
vn 0.472554 -0.881302 0.000000
vn 0.000000 0.000000 1.000000
vn -0.000000 0.000000 1.000000
vn 0.000000 0.000000 1.000000
vn 0.000000 0.000000 1.000000
vn 0.990416 -0.138120 -0.000000
vn 0.366082 0.930583 0.000001
vn 0.366083 0.930582 0.000001
vn 0.990416 -0.138120 -0.000000
vn -0.000000 -0.000000 -1.000000
vn -0.000000 -0.000000 -1.000000
vn -0.000000 0.000000 -1.000000
vn -0.000000 0.000000 -1.000000
vn -0.491808 -0.870704 -0.000001
vn -0.491808 -0.870704 -0.000001
vn -0.982876 0.184268 0.000000
vn -0.982876 0.184268 0.000000
vn -0.000000 0.000000 1.000000
vn -0.000000 0.000000 1.000000
vn -0.000000 0.000000 1.000000
vn -0.000000 0.000000 1.000000
s off
f 21/83/1 23/84/2 24/85/3 22/86/4
f 24/88/5 23/87/6 25/89/7 26/90/8
f 25/91/9 27/92/10 28/93/11 26/94/12
f 28/96/13 27/95/14 29/97/15 30/98/16
f 30/100/17 29/99/18 31/101/19 32/102/20
f 31/103/21 48/132/22 45/127/23 32/106/24
f 33/107/25 44/126/26 41/121/27 34/110/28
f 36/112/29 35/111/30 37/113/31 38/114/32
f 37/115/33 39/116/34 40/117/35 38/118/36
f 40/120/37 39/119/38 21/81/39 22/82/40
f 11/42/41 1/41/42 10/79/43 20/80/44
f 1/43/45 11/46/46 12/45/47 2/44/48
f 13/50/49 3/49/50 2/47/51 12/48/52
f 3/51/53 13/54/54 14/53/55 4/52/56
f 15/58/57 5/57/58 4/55/59 14/56/60
f 16/62/61 6/61/62 5/59/63 15/60/64
f 6/63/65 16/66/66 46/128/67 47/131/68
f 7/67/69 17/70/70 42/122/71 43/125/72
f 19/74/73 9/73/74 8/71/75 18/72/76
f 9/75/77 19/78/78 20/77/79 10/76/80
f 40/120/81 22/82/82 11/2/83 20/40/84
f 1/3/85 2/4/86 23/84/87 21/83/88
f 12/5/89 11/6/90 22/86/91 24/85/92
f 23/87/93 2/7/94 3/9/95 25/89/96
f 24/88/97 26/90/98 13/10/99 12/8/100
f 3/11/101 4/12/102 27/92/103 25/91/104
f 14/13/105 13/14/106 26/94/107 28/93/108
f 27/95/109 4/15/110 5/17/111 29/97/112
f 28/96/113 30/98/114 15/18/115 14/16/116
f 29/99/117 5/19/118 6/21/119 31/101/120
f 30/100/121 32/102/122 16/22/123 15/20/124
f 6/23/125 47/130/126 48/132/127 31/103/128
f 46/129/129 16/26/130 32/106/131 45/127/132
f 7/27/133 43/124/134 44/126/135 33/107/136
f 42/123/137 17/30/138 34/110/139 41/121/140
f 35/111/141 8/31/142 9/33/143 37/113/144
f 36/112/145 38/114/146 19/34/147 18/32/148
f 9/35/149 10/36/150 39/116/151 37/115/152
f 20/37/153 19/38/154 38/118/155 40/117/156
f 39/119/157 10/39/158 1/1/159 21/81/160
f 18/29/161 42/123/162 41/121/163 36/109/164
f 43/125/165 42/122/166 18/69/167 8/68/168
f 44/126/169 43/124/170 8/28/171 35/108/172
f 41/121/173 44/126/174 35/108/175 36/109/176
f 17/25/177 46/129/178 45/127/179 34/105/180
f 47/131/181 46/128/182 17/65/183 7/64/184
f 48/132/185 47/130/186 7/24/187 33/104/188
f 45/127/189 48/132/190 33/104/191 34/105/192
