# This file uses meters as units for non-parametric coordinates.

v -14.646399 26.485023 4.455146
v 5.336074 -26.544762 4.826163
v 5.336074 26.645775 -4.820136
v -4.107704 18.089733 -5.016973
v -13.766204 -26.383801 -4.493600
v -3.950749 -3.775482 -4.936066
v -4.302788 5.374451 -4.820136
v 3.249454 4.424114 -5.067443
v 15.587635 6.976280 -4.820136
v -4.288865 -16.756973 -5.016973
v 3.834658 -16.663607 5.023039
v 4.040298 17.890587 -5.191116
v 3.420295 4.183998 5.295602
v -9.685574 22.560120 5.683554
v -9.547520 9.997368 -5.682600
v 15.586128 -20.654011 4.455146
v -4.910927 -27.789705 -0.037689
v 3.420295 -4.087524 5.023039
v -16.821701 22.283821 0.049783
v -4.802141 27.789707 0.050889
v 6.446667 26.411991 4.826163
v -4.056206 4.962711 4.826163
v 11.039944 0.248871 -4.820136
v 10.323200 19.442577 -5.691834
v 15.568085 20.280571 4.499665
v 10.305653 19.479885 5.680391
v 4.178934 -15.846807 -4.817276
v 15.111027 -6.445789 5.033949
v 3.601475 -4.352837 -5.016973
v -16.795855 -21.388552 0.018883
v -15.925121 22.385845 -4.803237
v -5.008125 16.949005 4.852561
v -14.906168 -25.769920 4.499665
v 6.446667 -26.310865 -4.820136
v 16.821699 -19.172838 0.031318
v -4.056206 -3.182697 5.197181
v -13.927040 25.992489 -4.727364
v 15.108843 20.847054 -4.493600
v -4.107714 -16.791265 5.023039
v 10.290737 -19.001219 5.691833
v 11.039944 -0.157299 4.826163
v 15.398159 6.428013 4.826163
v -9.680337 -21.897964 5.680655
v 3.562507 17.696762 4.942093
v 15.825949 -19.077034 -4.826891
v 15.735798 -6.289711 -4.744414
v 9.587431 -5.272770 -5.654259
v -9.743366 -21.872328 -5.672342
v -0.443087 0.160961 -5.627135
v -15.921639 -21.456491 -4.846611
vt 0.247243 0.306986
vt 0.247243 0.306986
vt 0.247243 0.306986
vt 0.247243 0.306986
vt 0.247243 0.306986
vt 0.247243 0.306986
vt 0.247243 0.306986
vt 0.247243 0.306986
vt 0.247243 0.306986
vt 0.247243 0.306986
vt 0.247243 0.306986
vt 0.247243 0.306986
vt 0.247243 0.306986
vt 0.247243 0.306986
vt 0.247243 0.306986
vt 0.247243 0.306986
vt 0.247243 0.306986
vt 0.247243 0.306986
vt 0.247243 0.306986
vt 0.247243 0.306986
vt 0.247243 0.306986
vt 0.247243 0.306986
vt 0.247243 0.306986
vt 0.247243 0.306986
vt 0.247243 0.306986
vt 0.247243 0.306986
vt 0.247243 0.306986
vt 0.247243 0.306986
vt 0.247243 0.306986
vt 0.247243 0.306986
vt 0.247243 0.306986
vt 0.247243 0.306986
vt 0.247243 0.306986
vt 0.247243 0.306986
vt 0.247243 0.306986
vt 0.247243 0.306986
vt 0.247243 0.306986
vt 0.247243 0.306986
vt 0.247243 0.306986
vt 0.247243 0.306986
vt 0.247243 0.306986
vt 0.247243 0.306986
vt 0.247243 0.306986
vt 0.247243 0.306986
vt 0.247243 0.306986
vt 0.247243 0.306986
vt 0.247243 0.306986
vt 0.247243 0.306986
vt 0.247243 0.306986
vt 0.247243 0.306986
vt 0.247243 0.306986
vt 0.247243 0.306986
vt 0.247243 0.306986
vt 0.247243 0.306986
vt 0.247243 0.306986
vt 0.247243 0.306986
vt 0.247243 0.306986
vt 0.247243 0.306986
vt 0.247243 0.306986
vt 0.247243 0.306986
vt 0.247243 0.306986
vt 0.247243 0.306986
vt 0.247243 0.306986
vt 0.247243 0.306986
vt 0.247243 0.306986
vt 0.247243 0.306986
vt 0.247243 0.306986
vt 0.247243 0.306986
vt 0.247243 0.306986
vt 0.247243 0.306986
vt 0.247243 0.306986
vt 0.247243 0.306986
vt 0.247243 0.306986
vt 0.247243 0.306986
vt 0.247243 0.306986
vt 0.247243 0.306986
vt 0.247243 0.306986
vt 0.247243 0.306986
vt 0.247243 0.306986
vt 0.247243 0.306986
vt 0.247243 0.306986
vt 0.247243 0.306986
vt 0.247243 0.306986
vt 0.247243 0.306986
vt 0.247243 0.306986
vt 0.247243 0.306986
vt 0.247243 0.306986
vt 0.247243 0.306986
vt 0.247243 0.306986
vt 0.247243 0.306986
vt 0.247243 0.306986
vt 0.247243 0.306986
vt 0.247243 0.306986
vt 0.247243 0.306986
vt 0.247243 0.306986
vt 0.247243 0.306986
vt 0.247243 0.306986
vt 0.247243 0.306986
vt 0.247243 0.306986
vt 0.247243 0.306986
vt 0.247243 0.306986
vt 0.247243 0.306986
vt 0.247243 0.306986
vt 0.247243 0.306986
vt 0.247243 0.306986
vt 0.247243 0.306986
vt 0.247243 0.306986
vt 0.247243 0.306986
vt 0.247243 0.306986
vt 0.247243 0.306986
vt 0.247243 0.306986
vt 0.247243 0.306986
vt 0.247243 0.306986
vt 0.247243 0.306986
vt 0.247243 0.306986
vt 0.247243 0.306986
vt 0.247243 0.306986
vn -0.026021 -0.209985 -0.977358
vn -0.026021 -0.209985 -0.977358
vn -0.026021 -0.209985 -0.977358
vn -0.140016 -0.131559 -0.981371
vn -0.140016 -0.131559 -0.981371
vn -0.140016 -0.131559 -0.981371
vn 0.025994 -0.010707 -0.999605
vn 0.025994 -0.010707 -0.999605
vn 0.025994 -0.010707 -0.999605
vn -0.014812 -0.240378 -0.970566
vn -0.014812 -0.240378 -0.970566
vn -0.014812 -0.240378 -0.970566
vn -0.015912 0.280281 0.959786
vn -0.015912 0.280281 0.959786
vn -0.015912 0.280281 0.959786
vn 0.033431 -0.487642 0.872404
vn 0.033431 -0.487642 0.872404
vn 0.033431 -0.487642 0.872404
vn 0.028763 0.045483 0.998551
vn 0.028763 0.045483 0.998551
vn 0.028763 0.045483 0.998551
vn 0.158151 -0.214482 0.963839
vn 0.158151 -0.214482 0.963839
vn 0.158151 -0.214482 0.963839
vn -0.159780 0.984987 -0.065350
vn -0.159780 0.984987 -0.065350
vn -0.159780 0.984987 -0.065350
vn 0.999750 -0.011817 0.018966
vn 0.999750 -0.011817 0.018966
vn 0.999750 -0.011817 0.018966
vn -0.998748 -0.032907 -0.037674
vn -0.998748 -0.032907 -0.037674
vn -0.998748 -0.032907 -0.037674
vn -0.016017 0.996491 0.082154
vn -0.016017 0.996491 0.082154
vn -0.016017 0.996491 0.082154
vn -0.106993 0.994246 0.005326
vn -0.106993 0.994246 0.005326
vn -0.106993 0.994246 0.005326
vn 0.125114 -0.992095 -0.009652
vn 0.125114 -0.992095 -0.009652
vn 0.125114 -0.992095 -0.009652
vn -0.898459 0.004840 0.439030
vn -0.898459 0.004840 0.439030
vn -0.898459 0.004840 0.439030
vn -0.132408 0.000970 -0.991195
vn -0.132408 0.000970 -0.991195
vn -0.132408 0.000970 -0.991195
vn 0.116372 0.003159 -0.993201
vn 0.116372 0.003159 -0.993201
vn 0.116372 0.003159 -0.993201
vn -0.092737 -0.091426 -0.991484
vn -0.092737 -0.091426 -0.991484
vn -0.092737 -0.091426 -0.991484
vn 0.129086 -0.013177 0.991546
vn 0.129086 -0.013177 0.991546
vn 0.129086 -0.013177 0.991546
vn 0.282406 0.043650 0.958301
vn 0.282406 0.043650 0.958301
vn 0.282406 0.043650 0.958301
vn -0.882781 -0.462870 -0.080303
vn -0.882781 -0.462870 -0.080303
vn -0.882781 -0.462870 -0.080303
vn -0.109295 -0.022756 -0.993749
vn -0.109295 -0.022756 -0.993749
vn -0.109295 -0.022756 -0.993749
vn 0.217683 -0.032459 0.975480
vn 0.217683 -0.032459 0.975480
vn 0.217683 -0.032459 0.975480
vn -0.104270 -0.003436 0.994543
vn -0.104270 -0.003436 0.994543
vn -0.104270 -0.003436 0.994543
vn 0.125597 0.113874 0.985524
vn 0.125597 0.113874 0.985524
vn 0.125597 0.113874 0.985524
vn 0.961092 0.020917 0.275435
vn 0.961092 0.020917 0.275435
vn 0.961092 0.020917 0.275435
vn -0.998856 0.009285 -0.046919
vn -0.998856 0.009285 -0.046919
vn -0.998856 0.009285 -0.046919
vn -0.998112 0.058780 0.017816
vn -0.998112 0.058780 0.017816
vn -0.998112 0.058780 0.017816
vn 0.215930 0.020360 0.976197
vn 0.215930 0.020360 0.976196
vn 0.215930 0.020360 0.976196
vn 0.992044 0.107752 0.065105
vn 0.992044 0.107752 0.065105
vn 0.992044 0.107752 0.065105
vn 0.979634 0.008201 -0.200626
vn 0.979634 0.008201 -0.200626
vn 0.979634 0.008201 -0.200626
vn 0.051808 0.032410 0.998131
vn 0.051808 0.032410 0.998131
vn 0.051808 0.032410 0.998131
vn -0.166427 -0.032475 0.985519
vn -0.166427 -0.032475 0.985519
vn -0.166427 -0.032475 0.985519
vn 0.162613 0.105424 -0.981042
vn 0.162613 0.105424 -0.981042
vn 0.162613 0.105424 -0.981042
vn 0.147584 0.007420 -0.989022
vn 0.147584 0.007420 -0.989022
vn 0.147584 0.007420 -0.989022
vn -0.019897 -0.068774 -0.997434
vn -0.019897 -0.068774 -0.997434
vn -0.019897 -0.068774 -0.997434
vn -0.900773 -0.405231 -0.156190
vn -0.900773 -0.405231 -0.156190
vn -0.900773 -0.405231 -0.156190
vn 0.189911 0.012920 0.981716
vn 0.189911 0.012920 0.981716
vn 0.189911 0.012920 0.981716
vn -0.240430 -0.000092 0.970666
vn -0.240430 -0.000092 0.970666
vn -0.240430 -0.000092 0.970666
vn 0.085829 -0.000055 0.996310
vn 0.085829 -0.000055 0.996310
vn 0.085829 -0.000055 0.996310
vn -0.221794 0.001933 0.975092
vn -0.221794 0.001933 0.975092
vn -0.221794 0.001933 0.975092
vn 0.147144 -0.017567 -0.988959
vn 0.147144 -0.017567 -0.988959
vn 0.147144 -0.017567 -0.988959
vn 0.009468 0.075650 -0.997090
vn 0.009468 0.075650 -0.997090
vn 0.009468 0.075650 -0.997090
vn 0.560936 0.515542 -0.647741
vn 0.560936 0.515542 -0.647741
vn 0.560936 0.515542 -0.647741
vn -0.135610 0.000514 -0.990762
vn -0.135610 0.000514 -0.990762
vn -0.135610 0.000514 -0.990762
vn 0.129519 -0.001115 -0.991576
vn 0.129519 -0.001115 -0.991576
vn 0.129519 -0.001115 -0.991576
vn -0.984240 -0.000457 -0.176838
vn -0.984240 -0.000457 -0.176838
vn -0.984240 -0.000457 -0.176838
vn -0.921698 -0.000820 0.387907
vn -0.921698 -0.000820 0.387907
vn -0.921698 -0.000820 0.387907
vn -0.983359 0.000102 -0.181670
vn -0.983360 0.000102 -0.181670
vn -0.983360 0.000102 -0.181670
vn 0.604692 -0.784165 -0.139402
vn 0.604692 -0.784165 -0.139402
vn 0.604692 -0.784165 -0.139402
vn 0.595428 -0.797089 -0.100576
vn 0.595428 -0.797089 -0.100576
vn 0.595428 -0.797089 -0.100576
vn 0.498939 -0.865870 0.036449
vn 0.498939 -0.865870 0.036449
vn 0.498939 -0.865870 0.036449
vn -0.001377 -0.954439 -0.298403
vn -0.001377 -0.954439 -0.298403
vn -0.001377 -0.954439 -0.298403
vn -0.041419 -0.943506 0.328757
vn -0.041419 -0.943506 0.328757
vn -0.041419 -0.943506 0.328756
vn -0.178438 -0.982945 0.044478
vn -0.178438 -0.982945 0.044478
vn -0.178438 -0.982945 0.044478
vn -0.998587 -0.050459 -0.016687
vn -0.998587 -0.050459 -0.016687
vn -0.998587 -0.050459 -0.016687
vn 0.811856 0.583340 0.024562
vn 0.811856 0.583340 0.024562
vn 0.811856 0.583340 0.024562
vn 0.836884 0.543841 0.062152
vn 0.836884 0.543841 0.062152
vn 0.836884 0.543841 0.062152
vn -0.075936 -0.996800 0.024971
vn -0.075936 -0.996800 0.024971
vn -0.075936 -0.996800 0.024971
vn -0.118650 -0.991313 0.056756
vn -0.118650 -0.991313 0.056756
vn -0.118650 -0.991313 0.056756
vn 0.101037 0.994084 0.039848
vn 0.101037 0.994084 0.039848
vn 0.101037 0.994084 0.039848
vn 0.125497 0.991874 0.020913
vn 0.125497 0.991874 0.020913
vn 0.125497 0.991874 0.020913
vn 0.998177 0.035602 -0.048729
vn 0.998177 0.035602 -0.048729
vn 0.998177 0.035602 -0.048729
vn 0.828236 -0.559883 -0.023575
vn 0.828236 -0.559883 -0.023575
vn 0.828236 -0.559883 -0.023575
vn 0.833822 -0.551830 -0.014986
vn 0.833822 -0.551830 -0.014986
vn 0.833822 -0.551830 -0.014986
vn -0.840148 0.534068 -0.094464
vn -0.840148 0.534067 -0.094464
vn -0.840148 0.534067 -0.094464
vn -0.863579 0.481566 -0.149419
vn -0.863579 0.481566 -0.149419
vn -0.863579 0.481566 -0.149419
vn 0.999532 -0.015741 -0.026222
vn 0.999532 -0.015741 -0.026222
vn 0.999532 -0.015741 -0.026222
vn 0.991924 0.078557 0.099575
vn 0.991924 0.078557 0.099575
vn 0.991924 0.078557 0.099575
vn 0.999831 -0.003553 -0.018052
vn 0.999831 -0.003553 -0.018052
vn 0.999831 -0.003553 -0.018052
vn 0.999588 -0.026110 0.011930
vn 0.999588 -0.026110 0.011930
vn 0.999588 -0.026110 0.011930
vn -0.026768 -0.992749 -0.117185
vn -0.026768 -0.992749 -0.117185
vn -0.026768 -0.992749 -0.117185
vn 0.087061 -0.996091 -0.014948
vn 0.087061 -0.996091 -0.014948
vn 0.087061 -0.996091 -0.014948
vn -0.033807 0.955010 -0.294642
vn -0.033807 0.955010 -0.294642
vn -0.033807 0.955010 -0.294642
vn -0.001614 0.959790 0.280713
vn -0.001614 0.959790 0.280713
vn -0.001614 0.959790 0.280713
vn 0.117135 0.993060 0.010582
vn 0.117135 0.993060 0.010582
vn 0.117135 0.993060 0.010582
vn 0.510858 0.858825 -0.038002
vn 0.510858 0.858825 -0.038002
vn 0.510858 0.858825 -0.038002
vn 0.558303 0.829298 0.023728
vn 0.558303 0.829298 0.023728
vn 0.558303 0.829298 0.023728
vn -0.004247 0.264204 0.964457
vn -0.004247 0.264204 0.964457
vn -0.004247 0.264204 0.964457
vn -0.022585 0.151893 0.988139
vn -0.022585 0.151893 0.988139
vn -0.022585 0.151893 0.988139
vn -0.019912 -0.101067 0.994680
vn -0.019912 -0.101067 0.994680
vn -0.019912 -0.101067 0.994680
vn 0.050735 -0.353385 0.934101
vn 0.050735 -0.353385 0.934101
vn 0.050735 -0.353385 0.934101
vn -0.066040 -0.032862 0.997276
vn -0.066040 -0.032862 0.997276
vn -0.066040 -0.032862 0.997276
vn 0.044675 -0.029566 0.998564
vn 0.044675 -0.029566 0.998564
vn 0.044675 -0.029566 0.998564
vn -0.115901 0.027195 0.992888
vn -0.115901 0.027195 0.992888
vn -0.115901 0.027195 0.992888
vn 0.047842 -0.046636 0.997766
vn 0.047842 -0.046636 0.997766
vn 0.047842 -0.046636 0.997766
vn 0.181714 0.219282 0.958591
vn 0.181714 0.219282 0.958590
vn 0.181714 0.219282 0.958590
vn -0.025625 -0.167322 0.985569
vn -0.025625 -0.167322 0.985569
vn -0.025625 -0.167322 0.985569
vn 0.020749 0.133646 0.990812
vn 0.020749 0.133646 0.990812
vn 0.020749 0.133646 0.990812
vn 0.016730 0.063291 -0.997855
vn 0.016730 0.063291 -0.997855
vn 0.016730 0.063291 -0.997855
vn 0.021451 0.104514 -0.994292
vn 0.021451 0.104514 -0.994292
vn 0.021451 0.104514 -0.994292
vn 0.038566 -0.050936 -0.997957
vn 0.038566 -0.050936 -0.997957
vn 0.038566 -0.050936 -0.997957
vn -0.014480 0.142475 -0.989693
vn -0.014480 0.142475 -0.989693
vn -0.014480 0.142475 -0.989693
vn -0.022321 -0.153541 -0.987890
vn -0.022321 -0.153541 -0.987890
vn -0.022321 -0.153541 -0.987890
vn 0.069393 0.070537 -0.995093
vn 0.069393 0.070537 -0.995093
vn 0.069393 0.070537 -0.995093
vn -0.141122 -0.255734 -0.956391
vn -0.141122 -0.255734 -0.956392
vn -0.141122 -0.255734 -0.956391
vn 0.068496 0.131379 -0.988963
vn 0.068496 0.131379 -0.988963
vn 0.068496 0.131379 -0.988963
vn -0.067618 -0.047785 -0.996566
vn -0.067618 -0.047785 -0.996566
vn -0.067618 -0.047785 -0.996566
vn -0.033106 0.022380 -0.999201
vn -0.033106 0.022380 -0.999201
vn -0.033106 0.022380 -0.999201
vn 0.252255 -0.034499 -0.967046
vn 0.252255 -0.034499 -0.967046
vn 0.252255 -0.034499 -0.967046
vn 0.170912 0.234150 -0.957060
vn 0.170912 0.234150 -0.957060
vn 0.170912 0.234150 -0.957060
vn -0.040772 -0.062539 -0.997209
vn -0.040772 -0.062539 -0.997209
vn -0.040772 -0.062539 -0.997209
vn -0.008658 0.114224 -0.993417
vn -0.008658 0.114224 -0.993417
vn -0.008658 0.114224 -0.993417
vn -0.029619 0.037422 -0.998861
vn -0.029619 0.037422 -0.998861
vn -0.029619 0.037422 -0.998861
s off
f 4/1/1 24/2/2 12/3/3
f 5/4/4 50/5/5 48/6/6
f 12/3/7 23/7/8 8/8/9
f 5/4/10 48/6/11 34/9/12
f 1/10/13 14/11/14 21/12/15
f 32/13/16 44/14/17 26/15/18
f 18/16/19 22/17/20 36/18/21
f 16/19/22 40/20/23 2/21/24
f 1/22/25 20/23/26 37/24/27
f 42/25/28 9/26/29 25/27/30
f 11/28/31 18/29/32 27/30/33
f 11/31/34 27/32/35 39/33/36
f 39/33/37 27/32/38 10/34/39
f 2/35/40 17/36/41 34/37/42
f 1/38/43 19/39/44 33/40/45
f 50/5/46 31/41/47 48/6/48
f 10/42/49 48/6/50 6/43/51
f 6/43/52 15/44/53 49/45/54
f 39/46/55 36/18/56 43/47/57
f 36/18/58 22/17/59 14/11/60
f 33/40/61 30/48/62 5/49/63
f 27/50/64 29/51/65 47/52/66
f 16/19/67 28/53/68 40/20/69
f 11/54/70 40/20/71 18/16/72
f 28/53/73 41/55/74 13/56/75
f 16/57/76 35/58/77 28/59/78
f 12/60/79 13/61/80 44/62/81
f 12/60/82 8/63/83 13/61/84
f 25/64/85 26/15/86 42/65/87
f 28/59/88 35/58/89 46/66/90
f 35/58/91 45/67/92 46/66/93
f 13/56/94 40/20/95 28/53/96
f 18/16/97 40/20/98 13/56/99
f 46/68/100 47/52/101 23/7/102
f 45/69/103 47/52/104 46/68/105
f 47/52/106 45/69/107 27/50/108
f 5/49/109 30/48/110 50/70/111
f 14/11/112 22/17/113 32/13/114
f 43/47/115 14/11/116 1/10/117
f 43/47/118 36/18/119 14/11/120
f 33/71/121 43/47/122 1/10/123
f 15/44/124 4/1/125 7/72/126
f 15/44/127 31/41/128 4/1/129
f 49/45/130 15/44/131 7/72/132
f 15/44/133 48/6/134 31/41/135
f 6/43/136 48/6/137 15/44/138
f 30/48/139 19/39/140 50/70/141
f 33/40/142 19/39/143 30/48/144
f 19/39/145 31/73/146 50/70/147
f 35/74/148 34/37/149 45/75/150
f 35/74/151 16/76/152 34/37/153
f 2/35/154 34/37/155 16/76/156
f 34/37/157 17/36/158 5/77/159
f 33/78/160 17/36/161 2/35/162
f 33/78/163 5/77/164 17/36/165
f 27/30/166 18/29/167 29/79/168
f 41/80/169 46/81/170 23/82/171
f 41/80/172 28/83/173 46/81/174
f 29/84/175 18/85/176 6/86/177
f 18/85/178 36/87/179 6/86/180
f 13/88/181 7/89/182 22/90/183
f 7/89/184 13/88/185 8/91/186
f 25/27/187 9/26/188 38/92/189
f 9/93/190 41/94/191 23/95/192
f 42/96/193 41/94/194 9/93/195
f 37/97/196 19/39/197 1/38/198
f 37/97/199 31/73/200 19/39/201
f 4/98/202 22/99/203 7/100/204
f 32/101/205 22/99/206 4/98/207
f 10/102/208 36/103/209 39/104/210
f 10/102/211 6/105/212 36/103/213
f 12/106/214 32/107/215 4/108/216
f 44/109/217 32/107/218 12/106/219
f 37/24/220 20/23/221 3/110/222
f 21/111/223 20/23/224 1/22/225
f 20/23/226 21/111/227 3/110/228
f 3/110/229 21/111/230 38/112/231
f 25/113/232 38/112/233 21/111/234
f 39/46/235 40/20/236 11/54/237
f 43/47/238 40/20/239 39/46/240
f 40/20/241 33/71/242 2/21/243
f 43/47/244 33/71/245 40/20/246
f 13/56/247 22/17/248 18/16/249
f 42/65/250 13/56/251 41/55/252
f 13/56/253 26/15/254 44/14/255
f 42/65/256 26/15/257 13/56/258
f 26/15/259 25/64/260 21/12/261
f 26/15/262 14/11/263 32/13/264
f 21/12/265 14/11/266 26/15/267
f 45/69/268 10/42/269 27/50/270
f 45/69/271 48/6/272 10/42/273
f 34/9/274 48/6/275 45/69/276
f 49/45/277 7/72/278 8/8/279
f 49/45/280 29/51/281 6/43/282
f 23/7/283 49/45/284 8/8/285
f 49/45/286 47/52/287 29/51/288
f 23/7/289 47/52/290 49/45/291
f 24/2/292 23/7/293 12/3/294
f 23/7/295 38/114/296 9/115/297
f 24/2/298 38/114/299 23/7/300
f 24/2/301 3/116/302 38/114/303
f 31/41/304 24/2/305 4/1/306
f 24/2/307 37/117/308 3/116/309
f 31/41/310 37/117/311 24/2/312
