# This file uses meters as units for non-parametric coordinates.

v 13.798600 26.703320 4.782596
v -14.821207 -15.452232 -4.797934
v 14.563560 15.258751 -4.823800
v 15.438633 -26.765938 4.531785
v -14.562796 -15.034409 4.868200
v 15.387249 16.846714 4.531785
v 15.368270 14.996548 0.059968
v 10.555286 17.169094 5.696259
v 10.572834 17.193947 -5.638162
v 3.672581 16.681976 -4.984854
v 3.330231 16.738377 5.055159
v -15.823059 17.742329 -4.461480
v -14.644814 27.935524 -0.032960
v 16.465130 22.247581 0.015945
v 15.813847 -18.520947 3.930779
v 13.660851 -27.935524 0.069046
v 8.750648 21.475849 5.687526
v 15.535431 22.279892 -4.812661
v -3.869743 -22.320402 -5.727499
v -16.465130 -17.355804 0.035170
v -14.622841 22.211514 -5.653609
v 12.865485 26.191368 -4.995764
v 13.559723 -22.382679 5.727504
v 15.707054 -26.240864 -4.461480
v -3.534603 -15.222015 4.845506
v -12.349737 -26.995394 -3.860436
v -2.528305 -16.677649 0.035170
v -16.043968 18.275833 4.531785
v -14.913790 27.093735 4.900819
v -14.393940 -26.175365 3.930779
v -9.034920 -15.071926 5.677982
v -4.846611 -27.232283 4.981385
v -16.068840 26.725082 -3.927230
v 15.410557 -17.700712 -3.860436
v -3.866730 -15.678463 -4.794504
vt 0.247243 0.306986
vt 0.247243 0.306986
vt 0.247243 0.306986
vt 0.247243 0.306986
vt 0.247243 0.306986
vt 0.247243 0.306986
vt 0.247243 0.306986
vt 0.247243 0.306986
vt 0.247243 0.306986
vt 0.247243 0.306986
vt 0.247243 0.306986
vt 0.247243 0.306986
vt 0.247243 0.306986
vt 0.247243 0.306986
vt 0.247243 0.306986
vt 0.247243 0.306986
vt 0.247243 0.306986
vt 0.247243 0.306986
vt 0.247243 0.306986
vt 0.247243 0.306986
vt 0.247243 0.306986
vt 0.247243 0.306986
vt 0.247243 0.306986
vt 0.247243 0.306986
vt 0.247243 0.306986
vt 0.247243 0.306986
vt 0.247243 0.306986
vt 0.247243 0.306986
vt 0.247243 0.306986
vt 0.247243 0.306986
vt 0.247243 0.306986
vt 0.247243 0.306986
vt 0.247243 0.306986
vt 0.247243 0.306986
vt 0.247243 0.306986
vt 0.247243 0.306986
vt 0.247243 0.306986
vt 0.247243 0.306986
vt 0.247243 0.306986
vt 0.247243 0.306986
vt 0.247243 0.306986
vt 0.247243 0.306986
vt 0.247243 0.306986
vt 0.247243 0.306986
vt 0.247243 0.306986
vt 0.247243 0.306986
vt 0.247243 0.306986
vt 0.247243 0.306986
vt 0.247243 0.306986
vt 0.247243 0.306986
vt 0.247243 0.306986
vt 0.247243 0.306986
vt 0.247243 0.306986
vt 0.247243 0.306986
vt 0.247243 0.306986
vt 0.247243 0.306986
vt 0.247243 0.306986
vt 0.247243 0.306986
vt 0.247243 0.306986
vt 0.247243 0.306986
vt 0.247243 0.306986
vt 0.247243 0.306986
vt 0.247243 0.306986
vt 0.247243 0.306986
vt 0.247243 0.306986
vt 0.247243 0.306986
vt 0.247243 0.306986
vt 0.247243 0.306986
vt 0.247243 0.306986
vt 0.247243 0.306986
vt 0.247243 0.306986
vt 0.247243 0.306986
vt 0.247243 0.306986
vt 0.247243 0.306986
vn 0.003183 0.139103 -0.990273
vn 0.003183 0.139103 -0.990273
vn 0.003183 0.139103 -0.990273
vn 0.062451 0.138805 -0.988349
vn 0.062451 0.138805 -0.988349
vn 0.062451 0.138805 -0.988349
vn -0.028147 0.349226 -0.936616
vn -0.028147 0.349226 -0.936616
vn -0.028147 0.349226 -0.936616
vn -0.022496 0.078330 -0.996674
vn -0.022496 0.078330 -0.996674
vn -0.022496 0.078330 -0.996674
vn -0.110269 0.263157 -0.958431
vn -0.110269 0.263157 -0.958431
vn -0.110269 0.263157 -0.958431
vn -0.144829 -0.106235 0.983737
vn -0.144829 -0.106235 0.983737
vn -0.144829 -0.106235 0.983737
vn 0.027237 -0.252195 0.967293
vn 0.027237 -0.252195 0.967293
vn 0.027237 -0.252195 0.967293
vn -0.086314 -0.034149 0.995683
vn -0.086314 -0.034149 0.995683
vn -0.086314 -0.034149 0.995683
vn 0.998683 -0.043460 0.027270
vn 0.998683 -0.043460 0.027270
vn 0.998683 -0.043460 0.027270
vn 0.998140 0.038008 -0.047664
vn 0.998140 0.038008 -0.047664
vn 0.998140 0.038008 -0.047664
vn -0.921721 -0.046371 0.385072
vn -0.921721 -0.046371 0.385072
vn -0.921721 -0.046371 0.385072
vn 0.798408 0.592496 -0.107210
vn 0.798408 0.592496 -0.107210
vn 0.798408 0.592496 -0.107210
vn 0.014096 0.985530 0.168916
vn 0.014096 0.985530 0.168916
vn 0.014096 0.985530 0.168916
vn -0.984895 0.121051 0.123807
vn -0.984895 0.121051 0.123807
vn -0.984895 0.121051 0.123807
vn 0.598922 -0.800288 -0.028849
vn 0.598922 -0.800288 -0.028849
vn 0.598922 -0.800288 -0.028849
vn 0.155351 -0.093479 -0.983427
vn 0.155351 -0.093479 -0.983427
vn 0.155351 -0.093479 -0.983427
vn -0.144032 0.075306 0.986704
vn -0.144032 0.075306 0.986704
vn -0.144032 0.075306 0.986704
vn 0.847021 -0.504755 -0.166665
vn 0.847021 -0.504755 -0.166665
vn 0.847021 -0.504755 -0.166665
vn 0.844409 -0.496262 0.201739
vn 0.844409 -0.496262 0.201739
vn 0.844408 -0.496262 0.201739
vn 0.823638 -0.465118 -0.324477
vn 0.823638 -0.465118 -0.324477
vn 0.823638 -0.465118 -0.324477
vn 0.826422 -0.467192 0.314258
vn 0.826422 -0.467192 0.314258
vn 0.826422 -0.467192 0.314258
vn 0.224731 -0.123144 0.966608
vn 0.224731 -0.123144 0.966608
vn 0.224731 -0.123144 0.966608
vn 0.146651 -0.089666 0.985116
vn 0.146651 -0.089666 0.985116
vn 0.146651 -0.089666 0.985116
vn -0.091507 0.055037 0.994282
vn -0.091507 0.055037 0.994282
vn -0.091507 0.055037 0.994282
vn -0.097853 0.050534 -0.993917
vn -0.097853 0.050534 -0.993917
vn -0.097853 0.050534 -0.993917
vn -0.000215 -0.025562 -0.999673
vn -0.000215 -0.025562 -0.999673
vn -0.000215 -0.025562 -0.999673
vn -0.079185 -0.996856 0.002900
vn -0.079185 -0.996856 0.002900
vn -0.079185 -0.996856 0.002900
vn -0.052670 -0.996935 0.057847
vn -0.052670 -0.996935 0.057847
vn -0.052670 -0.996935 0.057847
vn -0.751511 0.655896 0.070937
vn -0.751511 0.655896 0.070937
vn -0.751511 0.655896 0.070937
vn -0.740528 0.019690 -0.671737
vn -0.740528 0.019690 -0.671737
vn -0.740528 0.019690 -0.671737
vn 0.588803 0.032076 0.807640
vn 0.588803 0.032076 0.807640
vn 0.588803 0.032076 0.807640
vn -0.866341 0.498406 -0.032341
vn -0.866341 0.498406 -0.032341
vn -0.866341 0.498406 -0.032341
vn -0.866598 0.487400 0.106995
vn -0.866599 0.487400 0.106995
vn -0.866599 0.487400 0.106995
vn -0.855464 0.509959 -0.090123
vn -0.855464 0.509959 -0.090123
vn -0.855464 0.509959 -0.090123
vn -0.999398 -0.025976 -0.023008
vn -0.999398 -0.025976 -0.023008
vn -0.999398 -0.025976 -0.023008
vn 0.052881 0.996959 -0.057242
vn 0.052881 0.996959 -0.057242
vn 0.052881 0.996959 -0.057242
vn 0.006560 0.954231 -0.298999
vn 0.006560 0.954231 -0.298999
vn 0.006560 0.954231 -0.298999
vn 0.972892 -0.134370 -0.188220
vn 0.972892 -0.134370 -0.188220
vn 0.972892 -0.134370 -0.188220
vn 0.819411 0.552111 -0.154075
vn 0.819411 0.552111 -0.154075
vn 0.819411 0.552111 -0.154075
vn 0.913642 0.137523 0.382551
vn 0.913642 0.137523 0.382551
vn 0.913642 0.137523 0.382551
vn 0.974457 -0.148429 -0.168532
vn 0.974457 -0.148429 -0.168532
vn 0.974457 -0.148429 -0.168532
vn 0.987170 -0.148980 0.057449
vn 0.987170 -0.148980 0.057449
vn 0.987170 -0.148980 0.057449
vn -0.892773 -0.222943 -0.391475
vn -0.892773 -0.222943 -0.391475
vn -0.892773 -0.222943 -0.391475
vn -0.926920 -0.310657 -0.210502
vn -0.926920 -0.310657 -0.210502
vn -0.926920 -0.310657 -0.210502
vn 0.150580 0.954516 -0.257341
vn 0.150580 0.954516 -0.257341
vn 0.150580 0.954516 -0.257341
vn 0.094224 0.979765 0.176587
vn 0.094224 0.979765 0.176587
vn 0.094224 0.979765 0.176587
vn 0.078361 0.991860 0.100363
vn 0.078361 0.991860 0.100363
vn 0.078361 0.991860 0.100363
vn 0.017903 -0.939097 -0.343186
vn 0.017903 -0.939097 -0.343186
vn 0.017903 -0.939097 -0.343186
vn 0.027678 -0.969609 0.243088
vn 0.027678 -0.969609 0.243088
vn 0.027678 -0.969609 0.243088
vn -0.049787 -0.994549 0.091613
vn -0.049787 -0.994549 0.091613
vn -0.049787 -0.994549 0.091613
vn -0.087428 -0.978004 -0.189381
vn -0.087428 -0.978004 -0.189381
vn -0.087428 -0.978004 -0.189381
vn 0.173533 0.002910 0.984824
vn 0.173533 0.002910 0.984824
vn 0.173533 0.002910 0.984824
vn 0.239504 0.102316 0.965489
vn 0.239504 0.102316 0.965489
vn 0.239503 0.102316 0.965489
vn -0.034305 -0.093568 0.995022
vn -0.034305 -0.093568 0.995022
vn -0.034305 -0.093568 0.995022
vn 0.006300 0.164660 0.986330
vn 0.006300 0.164660 0.986330
vn 0.006300 0.164660 0.986330
vn -0.041840 -0.036424 0.998460
vn -0.041840 -0.036424 0.998460
vn -0.041840 -0.036424 0.998460
vn 0.106374 0.367732 0.923828
vn 0.106374 0.367732 0.923828
vn 0.106374 0.367732 0.923828
vn -0.044756 0.016190 0.998867
vn -0.044756 0.016190 0.998867
vn -0.044756 0.016190 0.998867
vn 0.149507 -0.005146 0.988747
vn 0.149507 -0.005146 0.988747
vn 0.149507 -0.005146 0.988747
vn -0.118282 -0.085037 0.989332
vn -0.118282 -0.085037 0.989332
vn -0.118282 -0.085037 0.989332
vn 0.188451 -0.024528 -0.981776
vn 0.188451 -0.024528 -0.981776
vn 0.188451 -0.024528 -0.981776
vn 0.027480 -0.264518 -0.963989
vn 0.027480 -0.264518 -0.963989
vn 0.027480 -0.264518 -0.963989
vn 0.027926 -0.027714 -0.999226
vn 0.027926 -0.027714 -0.999226
vn 0.027926 -0.027714 -0.999226
vn 0.078857 0.072710 -0.994231
vn 0.078857 0.072710 -0.994231
vn 0.078857 0.072710 -0.994231
vn -0.010500 -0.354382 -0.935042
vn -0.010500 -0.354382 -0.935042
vn -0.010500 -0.354382 -0.935042
vn -0.153998 -0.112696 -0.981623
vn -0.153998 -0.112696 -0.981623
vn -0.153998 -0.112696 -0.981623
s off
f 2/1/1 35/2/2 19/3/3
f 35/2/4 34/4/5 19/3/6
f 33/5/7 22/6/8 21/7/9
f 12/8/10 18/9/11 10/10/12
f 10/10/13 18/9/14 9/11/15
f 5/12/16 32/13/17 31/14/18
f 4/15/19 23/16/20 32/13/21
f 11/17/22 8/18/23 17/19/24
f 4/20/25 24/21/26 15/22/27
f 15/22/28 24/21/29 34/23/30
f 5/24/31 20/25/32 30/26/33
f 1/27/34 14/28/35 22/29/36
f 1/30/37 13/31/38 29/32/39
f 29/33/40 33/34/41 28/35/42
f 4/36/43 16/37/44 24/38/45
f 35/2/46 9/11/47 3/39/48
f 5/12/49 31/14/50 11/17/51
f 3/40/52 7/41/53 35/42/54
f 25/43/55 7/41/56 6/44/57
f 7/41/58 27/45/59 35/42/60
f 25/43/61 27/45/62 7/41/63
f 8/18/64 25/46/65 6/47/66
f 8/18/67 31/14/68 25/46/69
f 11/17/70 31/14/71 8/18/72
f 9/11/73 2/1/74 10/10/75
f 35/2/76 2/1/77 9/11/78
f 28/48/79 10/49/80 11/50/81
f 28/48/82 12/51/83 10/49/84
f 29/32/85 13/31/86 33/52/87
f 33/5/88 21/7/89 12/8/90
f 15/53/91 23/16/92 4/15/93
f 2/54/94 11/55/95 10/56/96
f 11/55/97 20/25/98 5/24/99
f 2/54/100 20/25/101 11/55/102
f 28/35/103 33/34/104 12/57/105
f 22/58/106 13/31/107 1/30/108
f 13/31/109 22/58/110 33/52/111
f 18/59/112 14/28/113 3/40/114
f 22/29/115 14/28/116 18/59/117
f 6/44/118 14/28/119 1/27/120
f 14/28/121 7/41/122 3/40/123
f 6/44/124 7/41/125 14/28/126
f 26/60/127 20/25/128 2/54/129
f 30/26/130 20/25/131 26/60/132
f 27/61/133 25/62/134 15/63/135
f 27/61/136 34/64/137 35/65/138
f 15/63/139 34/64/140 27/61/141
f 16/37/142 26/66/143 24/38/144
f 32/67/145 16/37/146 4/36/147
f 16/37/148 30/68/149 26/66/150
f 32/67/151 30/68/152 16/37/153
f 17/19/154 6/47/155 1/69/156
f 17/19/157 8/18/158 6/47/159
f 17/19/160 28/70/161 11/17/162
f 29/71/163 17/19/164 1/69/165
f 17/19/166 29/71/167 28/70/168
f 25/46/169 23/16/170 15/53/171
f 32/13/172 23/16/173 25/46/174
f 31/14/175 32/13/176 25/46/177
f 30/72/178 32/13/179 5/12/180
f 9/11/181 18/9/182 3/39/183
f 21/7/184 18/9/185 12/8/186
f 21/7/187 22/6/188 18/9/189
f 19/3/190 34/4/191 24/73/192
f 26/74/193 19/3/194 24/73/195
f 19/3/196 26/74/197 2/1/198
