# This file uses meters as units for non-parametric coordinates.

v -12.090504 -3.669279 5.219727
v 3.961341 5.420712 5.299807
v 16.239828 -26.488033 -3.442936
v -15.372091 -0.736990 5.241871
v 1.627474 -3.951441 5.262413
v 14.975499 26.082100 -3.809462
v -3.709283 7.065531 -4.650015
v 1.471231 -4.113716 -5.166054
v -7.331923 26.714005 -4.656417
v -5.088482 25.647331 -3.114176
v -0.500318 6.260794 -3.110075
v 3.473332 26.075344 -4.815798
v -15.760059 -2.716198 -4.597179
v 15.717592 -11.420898 -5.198765
v -12.978642 -4.061460 -4.687437
v 15.860629 -23.085846 -5.168295
v 13.715252 -26.411995 -5.219831
v -10.816803 25.330593 5.307655
v 9.851847 25.417471 5.319767
v 4.221394 24.973991 4.714432
v 16.231857 24.368317 4.869633
v 16.071850 -6.616864 4.996023
v 3.669777 -4.733783 5.321579
v -5.576645 5.553941 5.281458
v 15.263097 -24.927870 4.550953
v 3.113711 -22.964153 4.899616
v 14.112980 26.726189 4.915142
v -16.226198 22.389648 1.797438
v 2.549627 -26.173468 -4.041491
v 13.635702 -26.726187 3.061247
v 3.284197 6.849646 -5.135489
v -14.387691 25.917097 -4.687841
v -12.217210 -4.344628 0.039425
v 1.913697 -7.576750 -1.704292
v -14.891190 25.077707 4.227161
v -6.377851 25.629934 4.590273
v -8.904068 26.544333 3.844833
v -16.253622 -1.859050 1.777382
v 4.849663 -26.726187 4.890280
v 15.881382 23.686262 -5.168247
v 1.570680 2.339258 -5.198441
vt 0.243979 0.305250
vt 0.243979 0.305250
vt 0.243979 0.305250
vt 0.243979 0.305250
vt 0.243979 0.305250
vt 0.243979 0.305250
vt 0.243979 0.305250
vt 0.243979 0.305250
vt 0.243979 0.305250
vt 0.243979 0.305250
vt 0.243979 0.305250
vt 0.243979 0.305250
vt 0.243979 0.305250
vt 0.243979 0.305250
vt 0.243979 0.305250
vt 0.243979 0.305250
vt 0.243979 0.305250
vt 0.243979 0.305250
vt 0.243979 0.305250
vt 0.243979 0.305250
vt 0.243979 0.305250
vt 0.243979 0.305250
vt 0.243979 0.305250
vt 0.243979 0.305250
vt 0.243979 0.305250
vt 0.243979 0.305250
vt 0.243979 0.305250
vt 0.243979 0.305250
vt 0.243979 0.305250
vt 0.243979 0.305250
vt 0.243979 0.305250
vt 0.243979 0.305250
vt 0.243979 0.305250
vt 0.243979 0.305250
vt 0.243979 0.305250
vt 0.243979 0.305250
vt 0.243979 0.305250
vt 0.243979 0.305250
vt 0.243979 0.305250
vt 0.243979 0.305250
vt 0.243979 0.305250
vt 0.243979 0.305250
vt 0.243979 0.305250
vt 0.243979 0.305250
vt 0.243979 0.305250
vt 0.243979 0.305250
vt 0.243979 0.305250
vt 0.243979 0.305250
vt 0.243979 0.305250
vt 0.243979 0.305250
vt 0.243979 0.305250
vt 0.243979 0.305250
vt 0.243979 0.305250
vt 0.243979 0.305250
vt 0.243979 0.305250
vt 0.243979 0.305250
vt 0.243979 0.305250
vt 0.243979 0.305250
vt 0.243979 0.305250
vt 0.243979 0.305250
vt 0.243979 0.305250
vt 0.243979 0.305250
vt 0.243979 0.305250
vt 0.243979 0.305250
vt 0.243979 0.305250
vt 0.243979 0.305250
vt 0.243979 0.305250
vt 0.243979 0.305250
vt 0.243979 0.305250
vt 0.243979 0.305250
vt 0.243979 0.305250
vt 0.243979 0.305250
vt 0.243979 0.305250
vt 0.243979 0.305250
vt 0.243979 0.305250
vt 0.243979 0.305250
vt 0.243979 0.305250
vt 0.243979 0.305250
vt 0.243979 0.305250
vt 0.243979 0.305250
vt 0.243979 0.305250
vt 0.243979 0.305250
vt 0.243979 0.305250
vt 0.243979 0.305250
vt 0.243979 0.305250
vt 0.243979 0.305250
vt 0.243979 0.305250
vt 0.243979 0.305250
vt 0.243979 0.305250
vt 0.243979 0.305250
vt 0.243979 0.305250
vt 0.243979 0.305250
vt 0.243979 0.305250
vt 0.243979 0.305250
vt 0.243979 0.305250
vt 0.243979 0.305250
vt 0.243979 0.305250
vt 0.243979 0.305250
vt 0.243979 0.305250
vt 0.243979 0.305250
vn 0.061458 0.727165 0.683707
vn 0.061458 0.727165 0.683707
vn 0.061458 0.727165 0.683707
vn -0.180094 0.859765 0.477881
vn -0.180094 0.859765 0.477881
vn -0.180094 0.859765 0.477881
vn -0.131546 0.657643 0.741756
vn -0.131546 0.657643 0.741756
vn -0.131546 0.657643 0.741756
vn -0.891461 0.034366 0.451792
vn -0.891461 0.034366 0.451792
vn -0.891461 0.034366 0.451792
vn -0.258575 0.042750 0.965045
vn -0.258575 0.042750 0.965045
vn -0.258575 0.042750 0.965045
vn 0.156767 0.040231 0.986816
vn 0.156767 0.040231 0.986816
vn 0.156767 0.040231 0.986816
vn -0.109272 0.031197 0.993522
vn -0.109272 0.031197 0.993522
vn -0.109272 0.031197 0.993522
vn -0.002727 -0.002047 0.999994
vn -0.002727 -0.002047 0.999994
vn -0.002727 -0.002047 0.999994
vn 0.078713 0.051519 0.995565
vn 0.078713 0.051519 0.995565
vn 0.078713 0.051519 0.995565
vn 0.070984 0.003702 0.997471
vn 0.070984 0.003702 0.997471
vn 0.070984 0.003702 0.997471
vn 0.000471 -0.007025 0.999975
vn 0.000471 -0.007025 0.999975
vn 0.000471 -0.007025 0.999975
vn -0.011819 0.002483 0.999927
vn -0.011819 0.002483 0.999927
vn -0.011819 0.002483 0.999927
vn -0.001893 0.002198 0.999996
vn -0.001893 0.002198 0.999996
vn -0.001893 0.002198 0.999996
vn -0.003203 -0.004431 0.999985
vn -0.003203 -0.004431 0.999985
vn -0.003203 -0.004431 0.999985
vn -0.041843 -0.033713 0.998555
vn -0.041843 -0.033713 0.998555
vn -0.041843 -0.033713 0.998555
vn -0.614835 -0.690947 0.380223
vn -0.614835 -0.690947 0.380223
vn -0.614835 -0.690947 0.380223
vn 0.025458 -0.005160 0.999663
vn 0.025458 -0.005160 0.999663
vn 0.025458 -0.005160 0.999663
vn 0.022396 -0.025281 0.999429
vn 0.022396 -0.025281 0.999429
vn 0.022396 -0.025281 0.999430
vn 0.024820 -0.023889 0.999407
vn 0.024820 -0.023889 0.999406
vn 0.024820 -0.023889 0.999406
vn 0.030561 0.011622 0.999465
vn 0.030561 0.011622 0.999465
vn 0.030561 0.011622 0.999465
vn 0.144442 -0.705489 0.693846
vn 0.144442 -0.705489 0.693846
vn 0.144442 -0.705489 0.693846
vn 0.325020 0.944016 0.056526
vn 0.325020 0.944016 0.056526
vn 0.325020 0.944016 0.056526
vn 0.999483 -0.005032 0.031743
vn 0.999483 -0.005032 0.031743
vn 0.999483 -0.005032 0.031743
vn -0.996959 -0.077925 -0.000409
vn -0.996959 -0.077925 -0.000409
vn -0.996959 -0.077925 -0.000409
vn -0.037365 -0.021985 0.999060
vn -0.037365 -0.021985 0.999060
vn -0.037365 -0.021985 0.999060
vn 0.377607 0.921753 0.088228
vn 0.377607 0.921753 0.088228
vn 0.377607 0.921753 0.088228
vn -0.112226 0.993682 -0.000922
vn -0.112226 0.993682 -0.000922
vn -0.112226 0.993682 -0.000922
vn -0.232490 0.969454 0.078149
vn -0.232490 0.969454 0.078149
vn -0.232490 0.969454 0.078149
vn -0.996669 0.015652 0.080041
vn -0.996669 0.015652 0.080041
vn -0.996669 0.015652 0.080041
vn 0.985268 0.045001 0.164990
vn 0.985268 0.045001 0.164990
vn 0.985268 0.045001 0.164990
vn 0.999391 -0.004633 -0.034579
vn 0.999391 -0.004633 -0.034579
vn 0.999391 -0.004633 -0.034579
vn 0.992291 0.020143 -0.122284
vn 0.992291 0.020143 -0.122284
vn 0.992291 0.020143 -0.122284
vn 0.990382 -0.046906 0.130164
vn 0.990382 -0.046906 0.130164
vn 0.990382 -0.046906 0.130164
vn -0.995937 -0.043936 0.078603
vn -0.995937 -0.043936 0.078603
vn -0.995937 -0.043936 0.078603
vn -0.888808 -0.410636 0.203467
vn -0.888808 -0.410636 0.203467
vn -0.888808 -0.410636 0.203467
vn -0.892700 0.450580 -0.007993
vn -0.892700 0.450580 -0.007993
vn -0.892700 0.450580 -0.007993
vn 0.022649 -0.999628 0.015216
vn 0.022649 -0.999628 0.015216
vn 0.022649 -0.999628 0.015216
vn -0.993752 -0.110370 0.016606
vn -0.993752 -0.110370 0.016606
vn -0.993752 -0.110370 0.016606
vn 0.624079 -0.749030 0.222440
vn 0.624079 -0.749030 0.222440
vn 0.624079 -0.749030 0.222440
vn 0.841551 0.539964 -0.015198
vn 0.841551 0.539964 -0.015198
vn 0.841551 0.539964 -0.015198
vn 0.841551 0.539964 -0.015198
vn -0.078514 0.986999 0.140247
vn -0.078514 0.986999 0.140247
vn -0.078514 0.986999 0.140247
vn 0.013730 0.995648 0.092173
vn 0.013730 0.995648 0.092173
vn 0.013730 0.995648 0.092173
vn -0.175511 0.976303 0.126602
vn -0.175511 0.976303 0.126602
vn -0.175511 0.976303 0.126602
vn -0.997786 0.008719 0.065940
vn -0.997786 0.008719 0.065940
vn -0.997786 0.008719 0.065940
vn -0.995576 -0.044449 0.082785
vn -0.995576 -0.044449 0.082785
vn -0.995576 -0.044449 0.082785
vn 0.005806 0.997311 -0.073052
vn 0.005806 0.997311 -0.073052
vn 0.005806 0.997311 -0.073052
vn -0.967318 0.045573 -0.249437
vn -0.967318 0.045573 -0.249437
vn -0.967318 0.045573 -0.249436
vn -0.969189 0.000892 0.246319
vn -0.969189 0.000892 0.246319
vn -0.969189 0.000892 0.246319
vn -0.997003 0.001191 -0.077355
vn -0.997003 0.001191 -0.077355
vn -0.997003 0.001191 -0.077355
vn -0.477431 -0.876828 0.056855
vn -0.477431 -0.876828 0.056855
vn -0.477431 -0.876828 0.056855
vn -0.477431 -0.876828 0.056855
vn -0.480690 -0.867948 0.124911
vn -0.480690 -0.867948 0.124911
vn -0.480690 -0.867948 0.124911
vn -0.020794 -0.991329 0.129747
vn -0.020794 -0.991329 0.129747
vn -0.020794 -0.991329 0.129747
vn -0.020791 -0.998569 -0.049263
vn -0.020791 -0.998569 -0.049263
vn -0.020791 -0.998569 -0.049263
vn -0.020791 -0.998569 -0.049263
vn -0.008309 -0.999169 -0.039912
vn -0.008309 -0.999169 -0.039912
vn -0.008309 -0.999169 -0.039912
vn 0.979589 0.056770 0.192828
vn 0.979589 0.056770 0.192828
vn 0.979589 0.056770 0.192828
vn 0.158346 0.971279 0.177603
vn 0.158346 0.971280 0.177603
vn 0.158346 0.971279 0.177603
vn 0.981149 0.011527 -0.192907
vn 0.981149 0.011527 -0.192907
vn 0.981149 0.011527 -0.192907
vn 0.535854 -0.333610 -0.775607
vn 0.535854 -0.333610 -0.775607
vn 0.535854 -0.333610 -0.775606
vn 0.074510 0.513124 -0.855075
vn 0.074510 0.513124 -0.855075
vn 0.074510 0.513124 -0.855075
vn 0.598048 0.110005 -0.793875
vn 0.598048 0.110005 -0.793875
vn 0.598048 0.110005 -0.793875
vn -0.028201 0.001000 -0.999602
vn -0.028201 0.001000 -0.999602
vn -0.028201 0.001000 -0.999602
vn 0.004837 -0.003398 -0.999983
vn 0.004837 -0.003398 -0.999983
vn 0.004837 -0.003398 -0.999983
vn -0.057604 0.051340 -0.997019
vn -0.057604 0.051340 -0.997019
vn -0.057604 0.051340 -0.997019
vn -0.033120 -0.004506 -0.999441
vn -0.033120 -0.004506 -0.999441
vn -0.033120 -0.004506 -0.999441
vn 0.464150 0.594696 -0.656431
vn 0.464150 0.594696 -0.656431
vn 0.464150 0.594696 -0.656431
vn -0.486254 0.196613 -0.851411
vn -0.486254 0.196613 -0.851411
vn -0.486254 0.196613 -0.851411
vn 0.051990 -0.005813 -0.998631
vn 0.051990 -0.005813 -0.998631
vn 0.051990 -0.005813 -0.998631
vn -0.029344 0.006392 -0.999549
vn -0.029344 0.006392 -0.999549
vn -0.029344 0.006392 -0.999549
vn 0.019064 0.016435 -0.999683
vn 0.019064 0.016435 -0.999683
vn 0.019064 0.016435 -0.999683
vn 0.003626 0.000343 -0.999993
vn 0.003626 0.000343 -0.999993
vn 0.003626 0.000343 -0.999993
vn -0.005561 -0.998248 -0.058905
vn -0.005561 -0.998248 -0.058905
vn -0.005561 -0.998248 -0.058905
vn 0.243230 -0.037520 -0.969243
vn 0.243230 -0.037520 -0.969243
vn 0.243230 -0.037520 -0.969243
vn -0.009091 -0.002723 -0.999955
vn -0.009091 -0.002723 -0.999955
vn -0.009091 -0.002723 -0.999955
vn -0.105547 -0.030580 -0.993944
vn -0.105547 -0.030580 -0.993944
vn -0.105547 -0.030580 -0.993944
vn 0.013517 0.006774 -0.999886
vn 0.013517 0.006774 -0.999886
vn 0.013517 0.006774 -0.999886
s off
f 36/14/1 37/1/2 18/2/3
f 35/3/4 18/4/5 37/5/6
f 27/6/7 20/7/8 19/8/9
f 4/11/10 35/10/11 28/9/12
f 4/13/13 18/2/14 35/12/15
f 24/22/16 36/14/17 18/2/18
f 2/18/19 19/8/20 20/7/21
f 24/22/22 18/2/23 4/13/24
f 27/6/25 19/8/26 21/15/27
f 19/8/28 22/16/29 21/15/30
f 24/22/31 4/13/32 1/20/33
f 19/8/34 2/18/35 23/21/36
f 2/18/37 24/22/38 23/21/39
f 1/20/40 5/23/41 24/22/42
f 5/23/43 23/21/44 24/22/45
f 1/24/46 4/11/47 38/25/48
f 19/8/49 23/21/50 22/16/51
f 22/16/52 23/21/53 25/26/54
f 26/27/55 25/26/56 23/21/57
f 39/28/58 25/26/59 26/27/60
f 39/28/61 30/29/62 25/26/63
f 10/30/64 37/5/65 36/31/66
f 3/33/67 21/17/68 22/19/69
f 34/36/70 26/37/71 5/53/72
f 26/27/73 23/21/74 5/23/75
f 10/30/76 9/39/77 37/5/78
f 9/39/79 32/64/80 37/5/81
f 35/3/82 37/5/83 32/64/84
f 2/41/85 20/60/86 12/40/87
f 24/49/88 10/42/89 36/32/90
f 40/43/91 21/17/92 14/88/93
f 3/33/94 14/88/95 21/17/96
f 3/33/97 22/19/98 25/44/99
f 29/45/100 26/37/101 34/36/102
f 26/37/103 29/45/104 39/38/105
f 35/10/106 32/65/107 28/9/108
f 33/50/109 8/51/110 5/52/111
f 34/36/112 5/53/113 8/54/114
f 3/46/115 25/55/116 30/56/117
f 21/57/118 40/58/119 6/70/120 27/59/121
f 31/62/122 11/61/123 2/34/124
f 24/35/125 2/34/126 11/61/127
f 27/59/128 12/66/129 20/67/130
f 2/41/131 12/40/132 31/63/133
f 8/54/134 29/45/135 34/36/136
f 27/59/137 6/70/138 12/66/139
f 13/71/140 28/9/141 32/65/142
f 4/11/143 28/9/144 38/25/145
f 13/71/146 38/25/147 28/9/148
f 13/73/149 15/98/150 33/50/151 38/74/152
f 1/24/153 38/25/154 33/75/155
f 5/52/156 1/69/157 33/50/158
f 17/76/159 3/46/160 39/48/161 29/47/162
f 39/48/163 3/46/164 30/56/165
f 24/49/166 7/72/167 10/42/168
f 7/68/169 24/35/170 11/61/171
f 14/88/172 3/33/173 16/77/174
f 17/100/175 16/78/176 3/79/177
f 40/80/178 12/81/179 6/85/180
f 10/82/181 7/89/182 9/83/183
f 14/97/184 12/81/185 40/80/186
f 9/83/187 13/87/188 32/84/189
f 7/89/190 41/91/191 15/90/192
f 8/92/193 15/90/194 41/91/195
f 7/68/196 11/61/197 41/93/198
f 31/94/199 41/95/200 11/96/201
f 31/86/202 8/92/203 41/91/204
f 15/90/205 13/87/206 9/83/207
f 31/86/208 12/81/209 14/97/210
f 7/89/211 15/90/212 9/83/213
f 33/50/214 15/98/215 8/51/216
f 8/92/217 31/86/218 29/99/219
f 16/78/220 31/86/221 14/97/222
f 29/99/223 31/86/224 17/100/225
f 16/78/226 17/100/227 31/86/228
