# This file uses meters as units for non-parametric coordinates.

v -13.582259 27.335796 4.492646
v 15.306396 26.482697 4.819144
v 15.054893 -27.014978 4.743461
v 5.733757 -17.468302 4.819144
v -4.875889 -16.960659 4.855345
v 16.370926 -9.511261 -4.456100
v -14.817240 -27.600882 -4.456100
v -3.661595 17.997818 -4.943047
v 16.420517 10.051765 -4.500619
v 16.968307 21.001682 -4.839782
v 5.430374 -17.649687 -4.827117
v -9.429111 23.171883 5.652925
v 17.754059 10.969124 -0.027160
v -0.121336 28.642464 0.062674
v 5.372009 17.565327 4.743461
v -17.819672 24.490662 -0.031702
v -0.047970 -28.642464 -0.052797
v 17.862892 -20.436213 0.001678
v 15.825310 9.851170 4.492646
v 16.892052 19.641056 4.831351
v 10.885773 -21.914730 5.675697
v 5.979128 -10.476246 4.871217
v 10.956116 21.932487 -5.671959
v 10.944310 -21.928043 -5.654753
v 5.964003 17.743378 -5.034903
v 6.030083 -10.685387 -4.880447
v 16.973915 -20.848276 -4.831352
v -17.862892 -25.807991 -0.027808
v -3.786477 18.370132 5.190162
v -16.824110 23.617592 -4.828681
v -3.822346 15.898209 0.066796
v -9.324455 23.196526 -5.673982
v -16.876450 -25.430336 4.829406
v -4.811325 -16.760635 -4.828989
v -15.273533 26.945152 -4.500619
v -3.828421 -16.381094 0.024680
v -15.389624 -28.029709 0.804330
v 14.292356 -26.529541 -5.034903
v 5.990887 10.581493 4.860648
v -16.906273 24.289074 4.842111
v -9.414368 -23.414324 5.647886
v -1.733970 -27.821236 4.936067
v 16.843700 -10.773430 4.825479
v 6.400890 9.864712 -3.966369
v 14.131889 27.011089 -4.827117
v -16.842377 -25.095881 -4.862062
v -9.350120 -23.384018 -5.675697
vt 0.247243 0.306986
vt 0.247243 0.306986
vt 0.247243 0.306986
vt 0.247243 0.306986
vt 0.247243 0.306986
vt 0.247243 0.306986
vt 0.247243 0.306986
vt 0.247243 0.306986
vt 0.247243 0.306986
vt 0.247243 0.306986
vt 0.247243 0.306986
vt 0.247243 0.306986
vt 0.247243 0.306986
vt 0.247243 0.306986
vt 0.247243 0.306986
vt 0.247243 0.306986
vt 0.247243 0.306986
vt 0.247243 0.306986
vt 0.247243 0.306986
vt 0.247243 0.306986
vt 0.247243 0.306986
vt 0.247243 0.306986
vt 0.247243 0.306986
vt 0.247243 0.306986
vt 0.247243 0.306986
vt 0.247243 0.306986
vt 0.247243 0.306986
vt 0.247243 0.306986
vt 0.247243 0.306986
vt 0.247243 0.306986
vt 0.247243 0.306986
vt 0.247243 0.306986
vt 0.247243 0.306986
vt 0.247243 0.306986
vt 0.247243 0.306986
vt 0.247243 0.306986
vt 0.247243 0.306986
vt 0.247243 0.306986
vt 0.247243 0.306986
vt 0.247243 0.306986
vt 0.247243 0.306986
vt 0.247243 0.306986
vt 0.247243 0.306986
vt 0.247243 0.306986
vt 0.247243 0.306986
vt 0.247243 0.306986
vt 0.247243 0.306986
vt 0.247243 0.306986
vt 0.247243 0.306986
vt 0.247243 0.306986
vt 0.247243 0.306986
vt 0.247243 0.306986
vt 0.247243 0.306986
vt 0.247243 0.306986
vt 0.247243 0.306986
vt 0.247243 0.306986
vt 0.247243 0.306986
vt 0.247243 0.306986
vt 0.247243 0.306986
vt 0.247243 0.306986
vt 0.247243 0.306986
vt 0.247243 0.306986
vt 0.247243 0.306986
vt 0.247243 0.306986
vt 0.247243 0.306986
vt 0.247243 0.306986
vt 0.247243 0.306986
vt 0.247243 0.306986
vt 0.247243 0.306986
vt 0.247243 0.306986
vt 0.247243 0.306986
vt 0.247243 0.306986
vt 0.247243 0.306986
vt 0.247243 0.306986
vt 0.247243 0.306986
vt 0.247243 0.306986
vt 0.247243 0.306986
vt 0.247243 0.306986
vt 0.247243 0.306986
vt 0.247243 0.306986
vt 0.247243 0.306986
vt 0.247243 0.306986
vt 0.247243 0.306986
vt 0.247243 0.306986
vt 0.247243 0.306986
vt 0.247243 0.306986
vt 0.247243 0.306986
vt 0.247243 0.306986
vt 0.247243 0.306986
vt 0.247243 0.306986
vt 0.247243 0.306986
vt 0.247243 0.306986
vt 0.247243 0.306986
vt 0.247243 0.306986
vt 0.247243 0.306986
vt 0.247243 0.306986
vt 0.247243 0.306986
vt 0.247243 0.306986
vt 0.247243 0.306986
vt 0.247243 0.306986
vt 0.247243 0.306986
vt 0.247243 0.306986
vt 0.247243 0.306986
vt 0.247243 0.306986
vn -0.009351 -0.266614 -0.963758
vn -0.009351 -0.266614 -0.963758
vn -0.009351 -0.266614 -0.963758
vn -0.059007 -0.205999 -0.976771
vn -0.059007 -0.205999 -0.976771
vn -0.059007 -0.205999 -0.976772
vn -0.011284 0.282347 -0.959246
vn -0.011284 0.282347 -0.959246
vn -0.011284 0.282347 -0.959246
vn -0.013027 -0.135142 -0.990741
vn -0.013027 -0.135142 -0.990741
vn -0.013027 -0.135142 -0.990741
vn 0.147648 0.071768 -0.986433
vn 0.147648 0.071768 -0.986433
vn 0.147648 0.071768 -0.986433
vn 0.188125 -0.025678 0.981809
vn 0.188125 -0.025678 0.981809
vn 0.188125 -0.025678 0.981809
vn -0.043625 -0.232951 0.971510
vn -0.043625 -0.232951 0.971510
vn -0.043625 -0.232951 0.971510
vn 0.013089 0.203747 0.978936
vn 0.013089 0.203747 0.978936
vn 0.013089 0.203747 0.978936
vn -0.003053 0.265597 0.964079
vn -0.003053 0.265597 0.964079
vn -0.003053 0.265597 0.964079
vn 0.911734 -0.102425 0.397807
vn 0.911734 -0.102425 0.397807
vn 0.911734 -0.102425 0.397807
vn 0.027660 0.990688 0.133311
vn 0.027660 0.990688 0.133311
vn 0.027660 0.990688 0.133311
vn -0.138445 -0.854488 0.500683
vn -0.138445 -0.854488 0.500683
vn -0.138445 -0.854488 0.500683
vn 0.125440 -0.990348 -0.058946
vn 0.125440 -0.990348 -0.058946
vn 0.125440 -0.990349 -0.058946
vn 0.217059 0.962530 0.162547
vn 0.217059 0.962530 0.162547
vn 0.217059 0.962530 0.162547
vn -0.667380 0.738835 0.093415
vn -0.667381 0.738835 0.093415
vn -0.667381 0.738835 0.093415
vn -0.865818 0.428866 -0.257747
vn -0.865818 0.428866 -0.257747
vn -0.865818 0.428866 -0.257747
vn -0.104275 0.994269 -0.023579
vn -0.104275 0.994269 -0.023579
vn -0.104275 0.994269 -0.023579
vn -0.108125 0.000722 -0.994137
vn -0.108125 0.000722 -0.994137
vn -0.108125 0.000722 -0.994137
vn 0.923643 -0.113310 0.366122
vn 0.923643 -0.113310 0.366122
vn 0.923643 -0.113310 0.366122
vn 0.900877 0.425392 -0.086387
vn 0.900877 0.425392 -0.086387
vn 0.900877 0.425392 -0.086387
vn 0.973405 0.225672 0.039425
vn 0.973405 0.225672 0.039425
vn 0.973405 0.225672 0.039425
vn 0.959908 -0.056525 -0.274558
vn 0.959908 -0.056525 -0.274558
vn 0.959908 -0.056525 -0.274558
vn 0.995943 0.087687 0.020190
vn 0.995943 0.087687 0.020190
vn 0.995944 0.087687 0.020190
vn -0.998920 0.034826 0.030762
vn -0.998920 0.034826 0.030762
vn -0.998920 0.034826 0.030762
vn -0.996293 0.085739 -0.007045
vn -0.996293 0.085739 -0.007045
vn -0.996293 0.085739 -0.007045
vn -0.637676 -0.759039 -0.131261
vn -0.637676 -0.759039 -0.131261
vn -0.637676 -0.759039 -0.131261
vn -0.690907 -0.696302 0.194453
vn -0.690907 -0.696302 0.194453
vn -0.690907 -0.696302 0.194453
vn -0.733307 -0.633033 -0.248051
vn -0.733307 -0.633033 -0.248051
vn -0.733307 -0.633033 -0.248051
vn 0.071865 -0.011667 0.997346
vn 0.071865 -0.011667 0.997346
vn 0.071865 -0.011667 0.997346
vn -0.107854 -0.000319 0.994167
vn -0.107854 -0.000319 0.994167
vn -0.107854 -0.000319 0.994167
vn 0.172096 -0.000052 0.985080
vn 0.172096 -0.000052 0.985080
vn 0.172096 -0.000052 0.985080
vn -0.108993 -0.000142 0.994043
vn -0.108993 -0.000142 0.994043
vn -0.108993 -0.000142 0.994042
vn 0.121439 -0.007274 -0.992572
vn 0.121439 -0.007274 -0.992572
vn 0.121439 -0.007274 -0.992572
vn -0.111997 0.000098 -0.993708
vn -0.111997 0.000098 -0.993708
vn -0.111997 0.000098 -0.993708
vn 0.183477 -0.000065 -0.983024
vn 0.183477 -0.000065 -0.983024
vn 0.183477 -0.000065 -0.983024
vn 0.998965 -0.043311 0.013903
vn 0.998965 -0.043311 0.013903
vn 0.998965 -0.043311 0.013903
vn -0.076747 0.195867 0.977623
vn -0.076747 0.195867 0.977623
vn -0.076747 0.195867 0.977623
vn -0.102783 0.144916 -0.984091
vn -0.102783 0.144916 -0.984091
vn -0.102783 0.144916 -0.984091
vn 0.529418 -0.848208 0.016120
vn 0.529418 -0.848208 0.016120
vn 0.529418 -0.848208 0.016120
vn 0.017535 -0.999623 -0.021136
vn 0.017535 -0.999623 -0.021136
vn 0.017535 -0.999623 -0.021136
vn -0.070953 -0.994468 0.077458
vn -0.070953 -0.994468 0.077458
vn -0.070953 -0.994468 0.077458
vn -0.995281 -0.088852 -0.039014
vn -0.995280 -0.088852 -0.039014
vn -0.995281 -0.088852 -0.039014
vn -0.996083 -0.063570 -0.061462
vn -0.996083 -0.063570 -0.061462
vn -0.996083 -0.063570 -0.061462
vn -0.005798 0.943388 -0.331641
vn -0.005798 0.943388 -0.331641
vn -0.005798 0.943388 -0.331641
vn 0.023732 0.937011 0.348493
vn 0.023732 0.937011 0.348493
vn 0.023732 0.937011 0.348493
vn 0.126776 0.991170 0.038857
vn 0.126776 0.991170 0.038857
vn 0.126776 0.991170 0.038857
vn -0.026608 -0.999450 -0.019809
vn -0.026608 -0.999450 -0.019809
vn -0.026608 -0.999450 -0.019809
vn -0.085763 -0.995682 0.035526
vn -0.085763 -0.995682 0.035526
vn -0.085763 -0.995682 0.035526
vn -0.982882 0.000859 0.184237
vn -0.982882 0.000859 0.184237
vn -0.982882 0.000859 0.184237
vn -0.978451 0.000508 -0.206477
vn -0.978451 0.000508 -0.206477
vn -0.978451 0.000508 -0.206477
vn -0.979105 0.000826 -0.203353
vn -0.979105 0.000826 -0.203353
vn -0.979105 0.000826 -0.203353
vn -0.979984 -0.000639 0.199073
vn -0.979984 -0.000639 0.199073
vn -0.979984 -0.000639 0.199073
vn -0.551771 0.822595 0.137431
vn -0.551771 0.822595 0.137431
vn -0.551771 0.822595 0.137431
vn 0.977300 -0.000460 0.211860
vn 0.977300 -0.000460 0.211860
vn 0.977300 -0.000460 0.211860
vn 0.999289 -0.032994 0.018237
vn 0.999289 -0.032994 0.018237
vn 0.999289 -0.032994 0.018237
vn 0.980104 0.000075 -0.198484
vn 0.980104 0.000075 -0.198484
vn 0.980104 0.000075 -0.198484
vn 0.999491 -0.030894 0.007908
vn 0.999491 -0.030894 0.007908
vn 0.999491 -0.030894 0.007908
vn 0.086108 0.991747 -0.094990
vn 0.086108 0.991747 -0.094990
vn 0.086108 0.991747 -0.094990
vn 0.047714 0.998655 -0.020279
vn 0.047714 0.998655 -0.020279
vn 0.047714 0.998655 -0.020279
vn 0.028502 -0.947113 -0.319633
vn 0.028502 -0.947113 -0.319633
vn 0.028502 -0.947113 -0.319633
vn 0.049240 -0.982724 0.178409
vn 0.049240 -0.982724 0.178409
vn 0.049240 -0.982723 0.178409
vn -0.044557 -0.995300 -0.085984
vn -0.044557 -0.995300 -0.085984
vn -0.044557 -0.995300 -0.085984
vn -0.030955 -0.987872 0.152155
vn -0.030955 -0.987872 0.152155
vn -0.030955 -0.987872 0.152155
vn -0.111904 0.993478 -0.021892
vn -0.111904 0.993478 -0.021892
vn -0.111904 0.993478 -0.021892
vn 0.991997 0.121602 -0.033993
vn 0.991997 0.121602 -0.033993
vn 0.991997 0.121602 -0.033993
vn 0.890327 -0.446018 -0.091572
vn 0.890327 -0.446018 -0.091572
vn 0.890327 -0.446018 -0.091572
vn 0.980931 0.058310 -0.185402
vn 0.980931 0.058310 -0.185402
vn 0.980931 0.058310 -0.185402
vn 0.898493 -0.419450 -0.129505
vn 0.898494 -0.419450 -0.129505
vn 0.898494 -0.419450 -0.129505
vn 0.038885 0.020209 0.999039
vn 0.038885 0.020209 0.999039
vn 0.038885 0.020209 0.999039
vn -0.001423 -0.034422 0.999406
vn -0.001423 -0.034422 0.999406
vn -0.001423 -0.034422 0.999406
vn 0.029622 -0.205816 0.978142
vn 0.029622 -0.205816 0.978142
vn 0.029622 -0.205816 0.978142
vn 0.021648 -0.070671 0.997265
vn 0.021648 -0.070671 0.997265
vn 0.021648 -0.070671 0.997265
vn 0.032443 0.009302 0.999430
vn 0.032443 0.009302 0.999430
vn 0.032443 0.009302 0.999430
vn -0.010921 0.129444 0.991527
vn -0.010921 0.129444 0.991527
vn -0.010921 0.129444 0.991527
vn 0.019216 -0.164549 0.986182
vn 0.019216 -0.164549 0.986182
vn 0.019216 -0.164549 0.986182
vn 0.009260 -0.143702 0.989578
vn 0.009260 -0.143702 0.989578
vn 0.009260 -0.143702 0.989578
vn -0.165301 -0.001544 0.986242
vn -0.165301 -0.001544 0.986242
vn -0.165301 -0.001544 0.986242
vn 0.006190 0.072798 0.997327
vn 0.006190 0.072798 0.997327
vn 0.006190 0.072798 0.997328
vn -0.050193 -0.136956 -0.989305
vn -0.050193 -0.136956 -0.989305
vn -0.050193 -0.136956 -0.989305
vn -0.032159 -0.112703 -0.993108
vn -0.032159 -0.112703 -0.993108
vn -0.032159 -0.112703 -0.993108
vn 0.131351 -0.037255 -0.990636
vn 0.131351 -0.037255 -0.990636
vn 0.131351 -0.037255 -0.990636
vn -0.009190 -0.149034 -0.988789
vn -0.009190 -0.149034 -0.988789
vn -0.009190 -0.149034 -0.988789
vn 0.009948 0.158034 -0.987384
vn 0.009948 0.158034 -0.987384
vn 0.009948 0.158034 -0.987384
vn 0.018672 0.213036 -0.976866
vn 0.018672 0.213036 -0.976866
vn 0.018672 0.213036 -0.976866
vn -0.008484 0.132518 -0.991144
vn -0.008484 0.132518 -0.991144
vn -0.008484 0.132518 -0.991144
vn 0.010084 -0.126284 -0.991943
vn 0.010084 -0.126284 -0.991943
vn 0.010084 -0.126284 -0.991943
vn 0.140677 -0.030945 -0.989572
vn 0.140677 -0.030945 -0.989572
vn 0.140677 -0.030945 -0.989572
vn 0.128229 0.039621 -0.990953
vn 0.128229 0.039621 -0.990953
vn 0.128229 0.039621 -0.990953
vn 0.031522 0.082382 -0.996102
vn 0.031522 0.082382 -0.996102
vn 0.031522 0.082382 -0.996102
vn -0.144726 0.004886 -0.989460
vn -0.144726 0.004886 -0.989460
vn -0.144726 0.004886 -0.989460
s off
f 7/1/1 47/2/2 38/3/3
f 7/1/4 46/4/5 47/2/6
f 35/5/7 45/6/8 32/7/9
f 8/8/10 23/9/11 25/10/12
f 45/6/13 10/11/14 23/9/15
f 3/12/16 43/13/17 21/14/18
f 33/15/19 42/16/20 41/17/21
f 5/18/22 21/14/23 4/19/24
f 1/20/25 12/21/26 2/22/27
f 3/23/28 18/24/29 43/25/30
f 43/26/31 6/27/32 22/28/33
f 33/29/34 37/30/35 42/31/36
f 3/32/37 17/33/38 38/34/39
f 5/35/40 11/36/41 36/37/42
f 1/38/43 35/39/44 40/40/45
f 35/39/46 30/41/47 16/42/48
f 1/43/49 14/44/50 35/45/51
f 46/4/52 30/46/53 47/2/54
f 19/47/55 13/48/56 20/49/57
f 2/50/58 10/51/59 45/52/60
f 20/49/61 10/51/62 2/50/63
f 10/51/64 13/48/65 9/53/66
f 20/49/67 13/48/68 10/51/69
f 22/54/70 11/55/71 4/56/72
f 22/54/73 26/57/74 11/55/75
f 37/58/76 28/59/77 7/60/78
f 33/61/79 28/59/80 37/58/81
f 28/59/82 46/62/83 7/60/84
f 29/63/85 12/21/86 5/18/87
f 33/15/88 12/21/89 40/64/90
f 12/21/91 41/17/92 5/18/93
f 33/15/94 41/17/95 12/21/96
f 34/65/97 32/7/98 8/8/99
f 32/7/100 47/2/101 30/46/102
f 34/65/103 47/2/104 32/7/105
f 29/66/106 31/67/107 8/68/108
f 40/64/109 12/21/110 1/20/111
f 32/7/112 30/46/113 35/5/114
f 13/48/115 19/47/116 9/53/117
f 19/69/118 44/70/119 9/71/120
f 19/69/121 39/72/122 44/70/123
f 39/73/124 15/74/125 44/75/126
f 15/74/127 25/76/128 44/75/129
f 35/45/130 14/44/131 45/77/132
f 2/78/133 14/44/134 1/43/135
f 14/44/136 2/78/137 45/77/138
f 25/79/139 15/80/140 8/81/141
f 15/80/142 29/82/143 8/81/144
f 16/42/145 28/59/146 40/40/147
f 28/59/148 30/41/149 46/62/150
f 16/42/151 30/41/152 28/59/153
f 28/59/154 33/61/155 40/40/156
f 40/40/157 35/39/158 16/42/159
f 36/83/160 31/67/161 5/84/162
f 31/67/163 34/85/164 8/68/165
f 36/83/166 34/85/167 31/67/168
f 31/67/169 29/66/170 5/84/171
f 36/37/172 11/36/173 34/86/174
f 4/87/175 11/36/176 5/35/177
f 38/34/178 17/33/179 7/88/180
f 42/31/181 17/33/182 3/32/183
f 17/33/184 37/30/185 7/88/186
f 42/31/187 37/30/188 17/33/189
f 22/28/190 6/27/191 26/89/192
f 43/25/193 18/24/194 6/90/195
f 38/91/196 18/24/197 3/23/198
f 18/24/199 27/92/200 6/90/201
f 38/91/202 27/92/203 18/24/204
f 39/93/205 19/94/206 15/95/207
f 19/94/208 20/96/209 15/95/210
f 20/96/211 29/63/212 15/95/213
f 20/96/214 12/21/215 29/63/216
f 2/22/217 12/21/218 20/96/219
f 41/17/220 21/14/221 5/18/222
f 21/14/223 42/16/224 3/12/225
f 41/17/226 42/16/227 21/14/228
f 21/14/229 22/97/230 4/19/231
f 21/14/232 43/13/233 22/97/234
f 25/10/235 9/98/236 44/99/237
f 25/10/238 23/9/239 9/98/240
f 23/9/241 10/11/242 9/98/243
f 32/7/244 23/9/245 8/8/246
f 32/7/247 45/6/248 23/9/249
f 24/100/250 34/65/251 11/101/252
f 24/100/253 47/2/254 34/65/255
f 38/3/256 47/2/257 24/100/258
f 24/100/259 27/102/260 38/3/261
f 27/102/262 24/100/263 6/103/264
f 24/100/265 26/104/266 6/103/267
f 11/101/268 26/104/269 24/100/270
