# This file uses meters as units for non-parametric coordinates.

v -25.221630 -28.480310 -2.559929
v 25.221630 -28.480310 -2.559929
v -25.221630 4.341177 -2.559929
v 25.221630 4.341177 -2.559929
v -0.000006 21.954622 -2.559929
v 8.407194 -28.480310 -2.559929
v -8.407217 -28.480310 -2.559929
v -8.407217 -9.076818 -2.559929
v 8.407194 -9.076818 -2.559929
v -28.740686 1.949475 -3.939014
v 28.740686 1.949475 -3.939014
v 8.407194 -9.076818 2.559929
v 25.221630 4.341177 2.559929
v -0.000006 21.954622 2.559929
v -8.407217 -9.076818 2.559929
v -25.221630 4.341177 2.559929
v -25.221630 -28.480310 2.559929
v -8.407217 -28.480310 2.559929
v 8.407194 -28.480310 2.559929
v 25.221630 -28.480310 2.559929
v -28.740686 1.949475 3.939014
v 28.740686 1.949475 3.939014
v -0.000006 21.954622 3.939014
v -0.000006 28.480309 3.939014
v -31.098022 7.046828 3.939014
v 31.098022 7.046828 3.939014
v -0.000006 28.480309 -3.939014
v -0.000006 21.954622 -3.939014
v -31.098022 7.046828 -3.939014
v 31.098022 7.046828 -3.939014
vt 0.244142 0.305218
vt 0.244142 0.305218
vt 0.244142 0.305218
vt 0.244142 0.305218
vt 0.244142 0.305218
vt 0.244142 0.305218
vt 0.244142 0.305218
vt 0.244142 0.305218
vt 0.244142 0.305218
vt 0.244142 0.305218
vt 0.244142 0.305218
vt 0.244142 0.305218
vt 0.244142 0.305218
vt 0.244142 0.305218
vt 0.244142 0.305218
vt 0.244142 0.305218
vt 0.244142 0.305218
vt 0.244142 0.305218
vt 0.244142 0.305218
vt 0.244142 0.305218
vt 0.244142 0.305218
vt 0.244142 0.305218
vt 0.244142 0.305218
vt 0.244142 0.305218
vt 0.244142 0.305218
vt 0.244142 0.305218
vt 0.244142 0.305218
vt 0.244142 0.305218
vt 0.244142 0.305218
vt 0.244142 0.305218
vt 0.244142 0.305218
vt 0.244142 0.305218
vt 0.244142 0.305218
vt 0.244142 0.305218
vt 0.244142 0.305218
vt 0.244142 0.305218
vt 0.244142 0.305218
vt 0.244142 0.305218
vt 0.244142 0.305218
vt 0.244142 0.305218
vt 0.244142 0.305218
vt 0.244142 0.305218
vt 0.244142 0.305218
vt 0.244142 0.305218
vt 0.244142 0.305218
vt 0.244142 0.305218
vt 0.244142 0.305218
vt 0.244142 0.305218
vt 0.244142 0.305218
vt 0.244142 0.305218
vt 0.244142 0.305218
vt 0.244142 0.305218
vt 0.244142 0.305218
vt 0.244142 0.305218
vt 0.244142 0.305218
vn -0.000000 0.000000 1.000000
vn -0.000000 0.000000 1.000000
vn -0.000000 0.000000 1.000000
vn -0.000000 0.000000 1.000000
vn -0.000000 0.000000 1.000000
vn 0.000000 0.000000 1.000000
vn -0.000000 0.000000 1.000000
vn 0.000000 0.000000 1.000000
vn 0.000000 0.000000 1.000000
vn 0.000000 0.000000 1.000000
vn -0.000000 0.000000 1.000000
vn -0.000000 0.000000 1.000000
vn -0.000000 0.000000 1.000000
vn 0.000000 0.000000 1.000000
vn 0.000000 0.000000 1.000000
vn 0.000000 0.000000 1.000000
vn 0.000000 0.000000 1.000000
vn 0.000000 0.000000 1.000000
vn 0.000000 0.000000 1.000000
vn 0.000000 0.000000 1.000000
vn 0.000000 0.000000 1.000000
vn 0.000000 0.000000 1.000000
vn 0.000000 0.000000 1.000000
vn 0.000000 0.000000 1.000000
vn 0.000000 0.000000 1.000000
vn -0.000000 0.000000 1.000000
vn -0.000000 0.000000 1.000000
vn -0.000000 0.000000 1.000000
vn -0.000000 0.000000 1.000000
vn 0.000000 0.000000 -1.000000
vn 0.000000 0.000000 -1.000000
vn 0.000000 0.000000 -1.000000
vn 0.000000 0.000000 -1.000000
vn 0.000000 0.000000 -1.000000
vn 0.000000 0.000000 -1.000000
vn 0.000000 0.000000 -1.000000
vn 0.000000 0.000000 -1.000000
vn 0.000000 0.000000 -1.000000
vn 0.000000 0.000000 -1.000000
vn 0.000000 0.000000 -1.000000
vn 0.000000 0.000000 -1.000000
vn 0.000000 0.000000 -1.000000
vn 0.000000 0.000000 -1.000000
vn 0.000000 0.000000 -1.000000
vn 0.000000 0.000000 -1.000000
vn 0.000000 0.000000 -1.000000
vn 0.000000 0.000000 -1.000000
vn 0.000000 0.000000 -1.000000
vn 0.000000 0.000000 -1.000000
vn 0.000000 0.000000 -1.000000
vn -0.000000 0.000000 -1.000000
vn -0.000000 0.000000 -1.000000
vn -0.000000 0.000000 -1.000000
vn -0.000000 0.000000 -1.000000
vn 0.000000 0.000000 -1.000000
vn 0.000000 0.000000 -1.000000
vn 0.000000 0.000000 -1.000000
vn 0.000000 0.000000 -1.000000
vn 0.000000 -1.000000 0.000000
vn 0.000000 -1.000000 0.000000
vn 0.000000 -1.000000 0.000000
vn 0.000000 -1.000000 0.000000
vn -1.000000 0.000000 0.000000
vn -1.000000 0.000000 0.000000
vn -1.000000 0.000000 0.000000
vn -1.000000 0.000000 0.000000
vn 0.000000 -1.000000 0.000000
vn 0.000000 -1.000000 0.000000
vn 0.000000 -1.000000 0.000000
vn 0.000000 -1.000000 0.000000
vn 1.000000 0.000000 0.000000
vn 1.000000 0.000000 0.000000
vn 1.000000 0.000000 0.000000
vn 1.000000 0.000000 0.000000
vn 0.000000 -1.000000 0.000000
vn 0.000000 -1.000000 0.000000
vn 0.000000 -1.000000 0.000000
vn 0.000000 -1.000000 0.000000
vn 1.000000 0.000000 0.000000
vn 1.000000 0.000000 0.000000
vn 1.000000 0.000000 0.000000
vn 1.000000 0.000000 0.000000
vn -1.000000 0.000000 0.000000
vn -1.000000 0.000000 0.000000
vn -1.000000 0.000000 0.000000
vn -1.000000 0.000000 0.000000
vn 0.562108 -0.827064 0.000000
vn 0.562108 -0.827064 0.000000
vn 0.562108 -0.827064 0.000000
vn 0.562108 -0.827064 0.000000
vn -0.562108 -0.827064 0.000000
vn -0.562108 -0.827064 0.000000
vn -0.562108 -0.827064 0.000000
vn -0.562108 -0.827064 0.000000
vn -0.567492 0.823379 0.000000
vn -0.567492 0.823379 0.000000
vn -0.567492 0.823379 0.000000
vn -0.567492 0.823379 0.000000
vn -0.571784 -0.820200 0.018296
vn -0.571784 -0.820200 0.018296
vn -0.571784 -0.820200 0.018296
vn -0.571784 -0.820200 0.018296
vn 0.571784 -0.820200 0.018297
vn 0.571784 -0.820200 0.018297
vn 0.571784 -0.820200 0.018297
vn 0.571784 -0.820200 0.018297
vn 0.907640 -0.419750 0.000000
vn 0.907640 -0.419750 0.000000
vn 0.907640 -0.419750 0.000000
vn 0.907640 -0.419750 0.000000
vn 0.571784 -0.820200 -0.018297
vn 0.571784 -0.820200 -0.018297
vn 0.571784 -0.820200 -0.018297
vn 0.571784 -0.820200 -0.018297
vn 0.567492 0.823379 0.000000
vn 0.567492 0.823379 0.000000
vn 0.567492 0.823379 0.000000
vn 0.567492 0.823379 0.000000
vn -0.907640 -0.419750 0.000000
vn -0.907640 -0.419750 0.000000
vn -0.907640 -0.419750 0.000000
vn -0.907640 -0.419750 0.000000
vn -0.571784 -0.820200 -0.018296
vn -0.571784 -0.820200 -0.018296
vn -0.571784 -0.820200 -0.018296
vn -0.571784 -0.820200 -0.018296
s off
f 14/5/1 12/34/2 13/32/3
f 13/32/4 12/34/5 20/39/6
f 12/34/7 19/38/8 20/39/9
f 15/33/10 12/34/11 14/5/12
f 14/5/13 16/35/14 15/33/15
f 16/35/16 17/36/17 15/33/18
f 15/33/19 17/36/20 18/37/21
f 24/47/22 23/46/23 22/43/24 26/49/25
f 24/45/26 25/48/27 21/40/28 23/44/29
f 8/20/30 5/19/31 9/17/32
f 5/19/33 8/20/34 3/21/35
f 3/21/36 8/20/37 1/22/38
f 8/20/39 7/23/40 1/22/41
f 5/19/42 4/18/43 9/17/44
f 4/18/45 2/25/46 9/17/47
f 2/25/48 6/24/49 9/17/50
f 27/50/51 28/51/52 10/30/53 29/54/54
f 27/52/55 30/55/56 11/31/57 28/53/58
f 8/8/59 9/9/60 12/34/61 15/33/62
f 16/35/63 3/3/64 1/1/65 17/36/66
f 1/1/67 7/7/68 18/37/69 17/36/70
f 7/7/71 8/8/72 15/33/73 18/37/74
f 6/6/75 2/2/76 20/39/77 19/38/78
f 13/32/79 20/39/80 2/2/81 4/4/82
f 9/9/83 6/6/84 19/38/85 12/34/86
f 10/14/87 3/13/88 16/41/89 21/40/90
f 4/15/91 11/16/92 22/43/93 13/42/94
f 29/54/95 25/48/96 24/45/97 27/50/98
f 23/46/99 14/12/100 13/42/101 22/43/102
f 23/44/103 21/40/104 16/10/105 14/11/106
f 30/55/107 26/49/108 22/43/109 11/31/110
f 28/51/111 5/26/112 3/29/113 10/30/114
f 30/55/115 27/52/116 24/47/117 26/49/118
f 29/54/119 10/14/120 21/40/121 25/48/122
f 28/53/123 11/31/124 4/28/125 5/27/126
