# This file uses meters as units for non-parametric coordinates.

v 49.633850 -3.852542 -9.765528
v 49.429935 -3.852541 11.640914
v 49.747559 -3.852542 -21.702141
v 49.316227 -3.852541 23.577530
v 76.855896 -3.852542 3.688490
v 49.316227 3.852541 23.577530
v 76.855896 3.852541 3.688490
v 49.429935 3.852541 11.640914
v 49.633850 3.852542 -9.765528
v 49.747559 3.852542 -21.702141
v 40.288769 3.852541 12.656474
v 35.391422 3.852542 -8.183231
v 35.391422 -3.852542 -8.183231
v 40.288769 -3.852541 12.656475
v 31.652077 3.852541 15.818728
v 21.934986 3.852542 -3.256269
v 21.934986 -3.852542 -3.256269
v 31.652077 -3.852541 15.818728
v 24.016344 3.852541 20.945892
v 10.038101 3.852541 4.732129
v 10.038101 -3.852542 4.732129
v 24.016344 -3.852541 20.945892
v 17.820505 3.852542 27.743235
v 0.384647 3.852542 15.322757
v 0.384647 -3.852541 15.322758
v 17.820505 -3.852541 27.743233
vt 0.247795 0.302644
vt 0.247795 0.302644
vt 0.247795 0.302644
vt 0.247795 0.302644
vt 0.247795 0.302644
vt 0.247795 0.302644
vt 0.247795 0.302644
vt 0.247795 0.302644
vt 0.247795 0.302644
vt 0.247795 0.302644
vt 0.247795 0.302644
vt 0.247795 0.302644
vt 0.247795 0.302644
vt 0.247795 0.302644
vt 0.247795 0.302644
vt 0.247795 0.302644
vt 0.247795 0.302644
vt 0.247795 0.302644
vt 0.247795 0.302644
vt 0.247795 0.302644
vt 0.247795 0.302644
vt 0.247795 0.302644
vt 0.247795 0.302644
vt 0.247795 0.302644
vt 0.247795 0.302644
vt 0.247795 0.302644
vt 0.247795 0.302644
vt 0.247795 0.302644
vt 0.247795 0.302644
vt 0.247795 0.302644
vt 0.247795 0.302644
vt 0.247795 0.302644
vt 0.247795 0.302644
vt 0.247795 0.302644
vt 0.247795 0.302644
vt 0.247795 0.302644
vt 0.247795 0.302644
vt 0.247795 0.302644
vt 0.247795 0.302644
vn 0.000000 1.000000 0.000000
vn 0.000000 1.000000 0.000000
vn -0.000000 1.000000 0.000000
vn 0.000000 1.000000 0.000000
vn 0.000000 1.000000 0.000000
vn 0.000000 1.000000 0.000000
vn 0.000000 1.000000 0.000000
vn 0.000000 1.000000 0.000000
vn -0.000000 1.000000 0.000000
vn -0.000000 -1.000000 -0.000000
vn -0.000000 -1.000000 0.000000
vn -0.000000 -1.000000 0.000000
vn -0.000000 -1.000000 -0.000000
vn -0.000000 -1.000000 0.000000
vn -0.000000 -1.000000 0.000000
vn -0.000000 -1.000000 0.000000
vn -0.000000 -1.000000 0.000000
vn -0.000000 -1.000000 0.000000
vn 0.585477 0.000000 0.810689
vn 0.585477 0.000000 0.810689
vn 0.585477 0.000000 0.810689
vn 0.585477 0.000000 0.810689
vn -0.999955 0.000000 -0.009526
vn -0.999955 0.000000 -0.009526
vn -0.999955 0.000000 -0.009526
vn -0.999955 0.000000 -0.009526
vn -0.999955 0.000000 -0.009526
vn -0.999955 0.000000 -0.009526
vn -0.999955 0.000000 -0.009526
vn -0.999955 0.000000 -0.009526
vn 0.683605 0.000000 -0.729852
vn 0.683605 0.000000 -0.729852
vn 0.683605 0.000000 -0.729852
vn 0.683605 0.000000 -0.729852
vn -0.000000 1.000000 0.000000
vn 0.000000 1.000000 0.000000
vn 0.000000 1.000000 0.000000
vn 0.000000 1.000000 0.000000
vn -0.110418 0.000000 -0.993885
vn -0.228769 0.000000 -0.973481
vn -0.228769 0.000000 -0.973481
vn -0.110418 0.000000 -0.993885
vn -0.000000 -1.000000 0.000000
vn 0.000000 -1.000000 0.000000
vn 0.000000 -1.000000 0.000000
vn -0.000000 -1.000000 0.000000
vn 0.228769 0.000000 0.973481
vn 0.228769 0.000000 0.973481
vn 0.110418 0.000000 0.993885
vn 0.110418 0.000000 0.993885
vn 0.000000 1.000000 0.000000
vn 0.000000 1.000000 0.000000
vn 0.000000 1.000000 0.000000
vn 0.000000 1.000000 0.000000
vn -0.228769 0.000000 -0.973481
vn -0.453912 0.000000 -0.891046
vn -0.453912 0.000000 -0.891046
vn -0.228769 0.000000 -0.973481
vn 0.000000 -1.000000 0.000000
vn 0.000000 -1.000000 0.000000
vn 0.000000 -1.000000 0.000000
vn 0.000000 -1.000000 0.000000
vn 0.453912 0.000000 0.891046
vn 0.453912 0.000000 0.891046
vn 0.228769 0.000000 0.973481
vn 0.228769 0.000000 0.973481
vn 0.000000 1.000000 0.000000
vn 0.000000 1.000000 0.000000
vn 0.000000 1.000000 -0.000000
vn 0.000000 1.000000 -0.000000
vn -0.453912 0.000000 -0.891046
vn -0.652963 -0.000000 -0.757390
vn -0.652963 -0.000000 -0.757390
vn -0.453912 0.000000 -0.891046
vn 0.000000 -1.000000 0.000000
vn 0.000000 -1.000000 0.000000
vn 0.000000 -1.000000 0.000000
vn 0.000000 -1.000000 0.000000
vn 0.652963 -0.000000 0.757390
vn 0.652963 -0.000000 0.757390
vn 0.453912 0.000000 0.891046
vn 0.453912 0.000000 0.891046
vn 0.000000 1.000000 -0.000000
vn 0.000000 1.000000 -0.000000
vn 0.000000 1.000000 -0.000000
vn 0.000000 1.000000 -0.000000
vn -0.652963 -0.000000 -0.757390
vn -0.739050 -0.000000 -0.673651
vn -0.739050 -0.000000 -0.673651
vn -0.652963 -0.000000 -0.757390
vn 0.000000 -1.000000 0.000000
vn -0.000000 -1.000000 0.000000
vn -0.000000 -1.000000 0.000000
vn 0.000000 -1.000000 0.000000
vn 0.739050 -0.000000 0.673651
vn 0.739050 -0.000000 0.673651
vn 0.652963 -0.000000 0.757390
vn 0.652963 -0.000000 0.757390
vn -0.580195 0.000000 0.814478
vn -0.580195 0.000000 0.814478
vn -0.580195 0.000000 0.814478
vn -0.580195 0.000000 0.814478
s off
f 6/11/1 7/12/2 8/13/3
f 10/14/4 9/15/5 7/12/6
f 7/12/7 9/15/8 8/13/9
f 4/6/10 2/8/11 5/7/12
f 3/9/13 5/7/14 1/10/15
f 5/7/16 2/8/17 1/10/18
f 4/4/19 5/5/20 7/12/21 6/11/22
f 2/2/23 4/4/24 6/11/25 8/13/26
f 3/3/27 1/1/28 9/15/29 10/14/30
f 5/5/31 3/3/32 10/14/33 7/12/34
f 8/13/35 9/15/36 12/17/37 11/16/38
f 1/1/39 13/19/40 12/17/41 9/15/42
f 2/8/43 14/21/44 13/18/45 1/10/46
f 11/16/47 14/20/48 2/2/49 8/13/50
f 11/16/51 12/17/52 16/23/53 15/22/54
f 13/19/55 17/25/56 16/23/57 12/17/58
f 14/21/59 18/27/60 17/24/61 13/18/62
f 15/22/63 18/26/64 14/20/65 11/16/66
f 15/22/67 16/23/68 20/29/69 19/28/70
f 17/25/71 21/31/72 20/29/73 16/23/74
f 18/27/75 22/33/76 21/30/77 17/24/78
f 19/28/79 22/32/80 18/26/81 15/22/82
f 19/28/83 20/29/84 24/35/85 23/34/86
f 21/31/87 25/37/88 24/35/89 20/29/90
f 22/33/91 26/39/92 25/36/93 21/30/94
f 23/34/95 26/38/96 22/32/97 19/28/98
f 24/35/99 25/36/100 26/38/101 23/34/102
