# This file uses meters as units for non-parametric coordinates.

v -10.813675 -27.177832 4.466247
v -10.878542 26.320076 4.466247
v 12.938023 -26.744001 -4.438018
v -12.038439 -25.420362 -4.819450
v -0.515326 17.241287 -5.180015
v 12.665292 26.033459 -4.482499
v 8.306503 -3.612423 4.510766
v -5.734444 6.625938 5.683861
v -5.674725 6.569996 -5.647772
v -12.938021 -25.874826 0.038721
v -0.385209 5.556946 5.208282
v -0.416279 -17.518805 -5.005873
v -12.923393 24.391975 0.060083
v 11.323091 27.177830 -0.009347
v 11.869240 -17.639694 -4.862975
v 11.793728 -27.163506 4.845773
v 11.691094 17.096977 4.879416
v 12.052288 -17.595749 4.888801
v -0.254821 5.653744 -4.924965
v 11.375027 21.763763 -5.680924
v 11.855659 -22.404043 -5.688477
v -0.674095 -3.329792 5.045050
v -1.213074 15.868015 4.864694
v -11.589109 18.941612 5.370598
v -12.031649 24.043407 -4.800337
v -12.006472 -24.985542 4.870605
v 8.501853 -3.134861 -4.482499
v -0.375653 -4.193764 -4.733314
v -1.208934 -16.450251 4.872398
v 0.087471 -5.436058 0.817148
v -10.182724 25.831089 -4.716263
v 8.513908 4.426651 3.976516
v 12.869816 25.523472 4.510766
v -5.902978 -22.843304 5.688476
v 7.322864 4.757576 -4.852562
v 12.878723 17.448883 -3.948287
vt 0.247243 0.306986
vt 0.247243 0.306986
vt 0.247243 0.306986
vt 0.247243 0.306986
vt 0.247243 0.306986
vt 0.247243 0.306986
vt 0.247243 0.306986
vt 0.247243 0.306986
vt 0.247243 0.306986
vt 0.247243 0.306986
vt 0.247243 0.306986
vt 0.247243 0.306986
vt 0.247243 0.306986
vt 0.247243 0.306986
vt 0.247243 0.306986
vt 0.247243 0.306986
vt 0.247243 0.306986
vt 0.247243 0.306986
vt 0.247243 0.306986
vt 0.247243 0.306986
vt 0.247243 0.306986
vt 0.247243 0.306986
vt 0.247243 0.306986
vt 0.247243 0.306986
vt 0.247243 0.306986
vt 0.247243 0.306986
vt 0.247243 0.306986
vt 0.247243 0.306986
vt 0.247243 0.306986
vt 0.247243 0.306986
vt 0.247243 0.306986
vt 0.247243 0.306986
vt 0.247243 0.306986
vt 0.247243 0.306986
vt 0.247243 0.306986
vt 0.247243 0.306986
vt 0.247243 0.306986
vt 0.247243 0.306986
vt 0.247243 0.306986
vt 0.247243 0.306986
vt 0.247243 0.306986
vt 0.247243 0.306986
vt 0.247243 0.306986
vt 0.247243 0.306986
vt 0.247243 0.306986
vt 0.247243 0.306986
vt 0.247243 0.306986
vt 0.247243 0.306986
vt 0.247243 0.306986
vt 0.247243 0.306986
vt 0.247243 0.306986
vt 0.247243 0.306986
vt 0.247243 0.306986
vt 0.247243 0.306986
vt 0.247243 0.306986
vt 0.247243 0.306986
vt 0.247243 0.306986
vt 0.247243 0.306986
vt 0.247243 0.306986
vt 0.247243 0.306986
vt 0.247243 0.306986
vt 0.247243 0.306986
vt 0.247243 0.306986
vt 0.247243 0.306986
vt 0.247243 0.306986
vt 0.247243 0.306986
vt 0.247243 0.306986
vt 0.247243 0.306986
vt 0.247243 0.306986
vt 0.247243 0.306986
vt 0.247243 0.306986
vt 0.247243 0.306986
vt 0.247243 0.306986
vt 0.247243 0.306986
vt 0.247243 0.306986
vt 0.247243 0.306986
vt 0.247243 0.306986
vt 0.247243 0.306986
vt 0.247243 0.306986
vt 0.247243 0.306986
vt 0.247243 0.306986
vt 0.247243 0.306986
vt 0.247243 0.306986
vt 0.247243 0.306986
vt 0.247243 0.306986
vt 0.247243 0.306986
vt 0.247243 0.306986
vt 0.247243 0.306986
vt 0.247243 0.306986
vt 0.247243 0.306986
vn 0.091280 -0.343518 -0.934700
vn 0.091280 -0.343518 -0.934700
vn 0.091280 -0.343518 -0.934700
vn -0.016072 -0.254448 0.966953
vn -0.016072 -0.254448 0.966953
vn -0.016072 -0.254448 0.966953
vn 0.002213 0.121446 0.992596
vn 0.002213 0.121446 0.992596
vn 0.002213 0.121446 0.992596
vn -0.056753 -0.210873 0.975865
vn -0.056753 -0.210873 0.975865
vn -0.056753 -0.210873 0.975865
vn -0.049329 -0.982529 -0.179453
vn -0.049329 -0.982529 -0.179453
vn -0.049329 -0.982529 -0.179453
vn 0.027633 -0.990661 -0.133520
vn 0.027633 -0.990661 -0.133520
vn 0.027633 -0.990661 -0.133520
vn 0.983086 -0.131961 0.126998
vn 0.983086 -0.131961 0.126998
vn 0.983086 -0.131961 0.126998
vn 0.999493 -0.024430 0.020413
vn 0.999493 -0.024430 0.020413
vn 0.999493 -0.024430 0.020413
vn -0.049992 0.997128 -0.056888
vn -0.049992 0.997128 -0.056888
vn -0.049992 0.997128 -0.056888
vn 0.086065 0.996271 -0.006105
vn 0.086065 0.996271 -0.006105
vn 0.086065 0.996271 -0.006105
vn 0.236211 -0.970593 -0.046410
vn 0.236211 -0.970593 -0.046410
vn 0.236211 -0.970593 -0.046410
vn -0.968275 0.006356 0.249806
vn -0.968275 0.006356 0.249806
vn -0.968275 0.006356 0.249806
vn 0.128694 -0.020875 -0.991465
vn 0.128694 -0.020875 -0.991465
vn 0.128694 -0.020875 -0.991465
vn 0.092488 -0.016871 0.995571
vn 0.092488 -0.016871 0.995571
vn 0.092488 -0.016871 0.995571
vn 0.058274 -0.034398 0.997708
vn 0.058274 -0.034398 0.997708
vn 0.058274 -0.034398 0.997708
vn 0.096588 0.040893 0.994484
vn 0.096588 0.040893 0.994484
vn 0.096588 0.040893 0.994484
vn -0.286096 -0.947676 -0.141628
vn -0.286096 -0.947676 -0.141628
vn -0.286096 -0.947676 -0.141628
vn -0.829894 -0.497949 0.251641
vn -0.829894 -0.497949 0.251641
vn -0.829894 -0.497949 0.251641
vn 0.065274 0.056371 0.996274
vn 0.065274 0.056371 0.996274
vn 0.065274 0.056371 0.996274
vn 0.090551 0.010080 0.995841
vn 0.090551 0.010080 0.995841
vn 0.090551 0.010080 0.995841
vn -0.075710 -0.010630 0.997073
vn -0.075710 -0.010630 0.997073
vn -0.075710 -0.010630 0.997073
vn 0.172384 -0.000832 0.985030
vn 0.172384 -0.000832 0.985030
vn 0.172384 -0.000832 0.985030
vn -0.133129 0.000917 0.991098
vn -0.133129 0.000917 0.991098
vn -0.133129 0.000917 0.991098
vn 0.129024 -0.018922 -0.991461
vn 0.129024 -0.018922 -0.991461
vn 0.129024 -0.018922 -0.991461
vn -0.005500 0.046444 -0.998906
vn -0.005500 0.046444 -0.998906
vn -0.005500 0.046444 -0.998906
vn 0.208100 0.019368 -0.977916
vn 0.208101 0.019368 -0.977916
vn 0.208100 0.019368 -0.977916
vn -0.131057 0.000401 -0.991375
vn -0.131057 0.000401 -0.991375
vn -0.131057 0.000401 -0.991375
vn 0.001807 -0.026243 -0.999654
vn 0.001807 -0.026243 -0.999654
vn 0.001807 -0.026243 -0.999654
vn -0.983288 0.000205 -0.182055
vn -0.983288 0.000205 -0.182055
vn -0.983288 0.000205 -0.182055
vn -0.983578 0.000363 -0.180484
vn -0.983578 0.000363 -0.180484
vn -0.983578 0.000363 -0.180484
vn -0.981925 0.000205 0.189270
vn -0.981925 0.000205 0.189270
vn -0.981925 0.000205 0.189270
vn 0.128672 0.991489 0.019804
vn 0.128672 0.991489 0.019804
vn 0.128672 0.991489 0.019804
vn 0.117335 0.993032 0.010996
vn 0.117335 0.993032 0.010996
vn 0.117335 0.993032 0.010996
vn 0.011024 0.994234 -0.106664
vn 0.011024 0.994234 -0.106664
vn 0.011024 0.994234 -0.106664
vn 0.874597 0.080354 -0.478145
vn 0.874598 0.080354 -0.478145
vn 0.874597 0.080354 -0.478145
vn -0.006024 0.968346 -0.249540
vn -0.006024 0.968346 -0.249540
vn -0.006024 0.968346 -0.249540
vn 0.030972 0.942002 0.334174
vn 0.030972 0.942002 0.334174
vn 0.030972 0.942002 0.334174
vn 0.723416 -0.024950 -0.689962
vn 0.723416 -0.024950 -0.689962
vn 0.723416 -0.024950 -0.689962
vn 0.981849 0.140707 -0.127178
vn 0.981849 0.140707 -0.127178
vn 0.981849 0.140707 -0.127178
vn 0.121669 -0.966394 -0.226448
vn 0.121669 -0.966394 -0.226448
vn 0.121669 -0.966394 -0.226448
vn -0.001659 -0.895195 0.445671
vn -0.001659 -0.895195 0.445671
vn -0.001659 -0.895195 0.445671
vn -0.919985 0.133754 0.368425
vn -0.919985 0.133754 0.368425
vn -0.919985 0.133754 0.368425
vn -0.577761 0.811556 -0.086998
vn -0.577761 0.811556 -0.086998
vn -0.577761 0.811556 -0.086998
vn -0.680128 0.711697 -0.175823
vn -0.680128 0.711697 -0.175823
vn -0.680128 0.711697 -0.175823
vn 0.999655 0.022762 0.013080
vn 0.999655 0.022762 0.013080
vn 0.999655 0.022762 0.013080
vn 0.993359 0.082431 0.080272
vn 0.993359 0.082431 0.080272
vn 0.993359 0.082431 0.080272
vn 0.979361 -0.042523 0.197595
vn 0.979361 -0.042523 0.197595
vn 0.979361 -0.042523 0.197595
vn 0.992494 -0.084146 0.088742
vn 0.992494 -0.084146 0.088742
vn 0.992494 -0.084146 0.088742
vn 0.996512 -0.001331 -0.083446
vn 0.996512 -0.001331 -0.083446
vn 0.996512 -0.001331 -0.083446
vn 0.695381 0.718209 0.024914
vn 0.695381 0.718209 0.024914
vn 0.695381 0.718209 0.024914
vn 0.999494 0.023518 -0.021397
vn 0.999494 0.023518 -0.021397
vn 0.999494 0.023518 -0.021397
vn 0.094805 -0.995132 -0.026915
vn 0.094805 -0.995132 -0.026915
vn 0.094805 -0.995132 -0.026915
vn 0.993101 0.115689 -0.019163
vn 0.993101 0.115689 -0.019163
vn 0.993101 0.115689 -0.019163
vn 0.992267 -0.027360 0.121068
vn 0.992267 -0.027360 0.121068
vn 0.992267 -0.027360 0.121068
vn 0.001388 -0.998987 -0.044970
vn 0.001388 -0.998987 -0.044970
vn 0.001388 -0.998987 -0.044970
vn 0.144554 0.061900 0.987559
vn 0.144554 0.061900 0.987559
vn 0.144554 0.061900 0.987559
vn 0.010910 -0.126436 0.991915
vn 0.010910 -0.126436 0.991915
vn 0.010910 -0.126436 0.991915
vn 0.024269 0.040306 0.998893
vn 0.024269 0.040306 0.998893
vn 0.024269 0.040306 0.998893
vn 0.009139 0.120013 0.992730
vn 0.009139 0.120013 0.992730
vn 0.009139 0.120013 0.992730
vn 0.046166 -0.005740 0.998917
vn 0.046166 -0.005740 0.998917
vn 0.046166 -0.005740 0.998917
vn 0.030599 -0.019824 -0.999335
vn 0.030599 -0.019824 -0.999335
vn 0.030599 -0.019824 -0.999335
vn 0.004077 -0.046229 -0.998923
vn 0.004077 -0.046229 -0.998923
vn 0.004077 -0.046229 -0.998923
vn -0.038510 -0.009425 -0.999214
vn -0.038510 -0.009425 -0.999214
vn -0.038510 -0.009425 -0.999214
vn 0.007481 0.268135 -0.963353
vn 0.007481 0.268135 -0.963352
vn 0.007481 0.268135 -0.963353
vn -0.029913 0.077804 -0.996520
vn -0.029913 0.077804 -0.996520
vn -0.029913 0.077804 -0.996520
vn 0.013139 0.170672 -0.985240
vn 0.013139 0.170672 -0.985240
vn 0.013139 0.170672 -0.985240
vn -0.040943 0.036665 -0.998489
vn -0.040943 0.036665 -0.998489
vn -0.040943 0.036665 -0.998489
vn 0.000002 -0.276863 -0.960909
vn 0.000002 -0.276863 -0.960909
vn 0.000002 -0.276863 -0.960909
s off
f 5/1/1 20/2/2 36/3/3
f 1/4/4 16/5/5 34/6/6
f 2/7/7 24/8/8 33/9/9
f 1/4/10 34/6/11 26/10/12
f 4/11/13 3/12/14 1/13/15
f 5/14/16 36/15/17 23/16/18
f 17/17/19 36/18/20 33/19/21
f 7/20/22 27/21/23 32/22/24
f 2/23/25 14/24/26 31/25/27
f 18/26/28 15/27/29 29/28/30
f 7/29/31 30/30/32 27/31/33
f 24/32/34 13/33/35 26/34/36
f 28/35/37 9/36/38 19/37/39
f 29/38/40 22/39/41 8/40/42
f 22/39/43 7/41/44 8/40/45
f 11/42/46 23/43/47 8/40/48
f 1/44/49 10/45/50 4/46/51
f 26/34/52 10/45/53 1/44/54
f 8/40/55 23/43/56 24/8/57
f 8/40/58 7/41/59 11/42/60
f 26/10/61 8/40/62 24/8/63
f 8/40/64 34/6/65 29/38/66
f 26/10/67 34/6/68 8/40/69
f 9/36/70 5/1/71 19/37/72
f 9/36/73 25/47/74 5/1/75
f 12/48/76 9/36/77 28/35/78
f 9/36/79 4/49/80 25/47/81
f 12/48/82 4/49/83 9/36/84
f 4/46/85 10/45/86 25/50/87
f 10/45/88 13/33/89 25/50/90
f 26/34/91 13/33/92 10/45/93
f 35/51/94 11/52/95 32/53/96
f 11/52/97 35/51/98 19/54/99
f 29/28/100 15/27/101 12/55/102
f 3/56/103 21/57/104 15/58/105
f 31/25/106 14/24/107 6/59/108
f 33/60/109 14/24/110 2/23/111
f 36/3/112 20/2/113 6/61/114
f 35/62/115 32/22/116 27/21/117
f 30/30/118 28/63/119 27/31/120
f 22/64/121 30/30/122 7/29/123
f 2/65/124 13/33/125 24/32/126
f 31/66/127 13/33/128 2/65/129
f 31/66/130 25/50/131 13/33/132
f 5/67/133 11/68/134 19/69/135
f 23/70/136 11/68/137 5/67/138
f 30/71/139 22/72/140 29/73/141
f 12/74/142 30/71/143 29/73/144
f 30/71/145 12/74/146 28/75/147
f 14/24/148 33/60/149 6/59/150
f 33/19/151 36/18/152 6/76/153
f 17/77/154 23/16/155 36/15/156
f 18/78/157 3/79/158 15/80/159
f 18/78/160 16/81/161 3/79/162
f 1/13/163 3/12/164 16/82/165
f 11/42/166 7/41/167 32/83/168
f 17/84/169 24/8/170 23/43/171
f 33/9/172 24/8/173 17/84/174
f 34/6/175 18/85/176 29/38/177
f 34/6/178 16/5/179 18/85/180
f 28/35/181 19/37/182 27/86/183
f 35/87/184 27/86/185 19/37/186
f 25/47/187 20/2/188 5/1/189
f 20/2/190 31/88/191 6/61/192
f 25/47/193 31/88/194 20/2/195
f 21/57/196 12/89/197 15/58/198
f 21/57/199 4/90/200 12/89/201
f 3/56/202 4/90/203 21/57/204
