# This file uses meters as units for non-parametric coordinates.

v -0.192099 -12.243940 -5.105361
v -7.147846 -0.013428 -4.973984
v 7.142525 -0.017757 -4.973984
v 7.186480 27.505302 4.417228
v -0.192986 12.217865 -5.105361
v 7.150631 -27.511084 4.417228
v 8.409119 0.014095 0.735666
v 12.544173 11.962090 -0.034868
v 11.998234 25.863171 5.678938
v 6.135349 -26.223049 -4.887011
v -7.384300 -27.512854 4.417228
v -12.302170 -11.622297 -0.042304
v 11.801642 -25.487173 5.676652
v -6.512661 26.448288 -4.887697
v -12.159195 25.966740 5.677914
v 18.416710 26.343384 -4.891966
v -18.532372 26.694508 -4.902000
v -6.640873 -0.009651 5.159267
v -18.597641 -27.320135 3.860703
v 6.622677 -0.013428 5.159267
v -0.184212 -12.027700 5.257688
v 18.314686 26.150017 4.824948
v -0.185328 12.037697 5.257688
v -18.660147 27.359772 3.860703
v -7.422047 27.512856 4.417228
v 6.246243 26.420536 -4.887619
v -8.390808 0.021763 0.739632
v 18.660145 -27.314817 3.860703
v -11.905098 -25.501270 5.674743
v 18.458004 -26.488478 -4.901200
v -0.026474 -0.050392 -5.678941
v -18.398169 -26.504345 -4.901313
v -6.395664 -26.229935 -4.887084
vt 0.247243 0.306986
vt 0.247243 0.306986
vt 0.247243 0.306986
vt 0.247243 0.306986
vt 0.247243 0.306986
vt 0.247243 0.306986
vt 0.247243 0.306986
vt 0.247243 0.306986
vt 0.247243 0.306986
vt 0.247243 0.306986
vt 0.247243 0.306986
vt 0.247243 0.306986
vt 0.247243 0.306986
vt 0.247243 0.306986
vt 0.247243 0.306986
vt 0.247243 0.306986
vt 0.247243 0.306986
vt 0.247243 0.306986
vt 0.247243 0.306986
vt 0.247243 0.306986
vt 0.247243 0.306986
vt 0.247243 0.306986
vt 0.247243 0.306986
vt 0.247243 0.306986
vt 0.247243 0.306986
vt 0.247243 0.306986
vt 0.247243 0.306986
vt 0.247243 0.306986
vt 0.247243 0.306986
vt 0.247243 0.306986
vt 0.247243 0.306986
vt 0.247243 0.306986
vt 0.247243 0.306986
vt 0.247243 0.306986
vt 0.247243 0.306986
vt 0.247243 0.306986
vt 0.247243 0.306986
vt 0.247243 0.306986
vt 0.247243 0.306986
vt 0.247243 0.306986
vt 0.247243 0.306986
vt 0.247243 0.306986
vt 0.247243 0.306986
vt 0.247243 0.306986
vt 0.247243 0.306986
vt 0.247243 0.306986
vt 0.247243 0.306986
vt 0.247243 0.306986
vt 0.247243 0.306986
vt 0.247243 0.306986
vt 0.247243 0.306986
vt 0.247243 0.306986
vt 0.247243 0.306986
vt 0.247243 0.306986
vt 0.247243 0.306986
vt 0.247243 0.306986
vt 0.247243 0.306986
vt 0.247243 0.306986
vt 0.247243 0.306986
vt 0.247243 0.306986
vt 0.247243 0.306986
vt 0.247243 0.306986
vt 0.247243 0.306986
vt 0.247243 0.306986
vt 0.247243 0.306986
vt 0.247243 0.306986
vt 0.247243 0.306986
vt 0.247243 0.306986
vt 0.247243 0.306986
vt 0.247243 0.306986
vt 0.247243 0.306986
vt 0.247243 0.306986
vt 0.247243 0.306986
vt 0.247243 0.306986
vt 0.247243 0.306986
vt 0.247243 0.306986
vt 0.247243 0.306986
vt 0.247243 0.306986
vt 0.247243 0.306986
vt 0.247243 0.306986
vt 0.247243 0.306986
vt 0.247243 0.306986
vt 0.247243 0.306986
vt 0.247243 0.306986
vt 0.247243 0.306986
vt 0.247243 0.306986
vt 0.247243 0.306986
vt 0.247243 0.306986
vt 0.247243 0.306986
vn 0.097612 0.038992 -0.994460
vn 0.097612 0.038992 -0.994460
vn 0.097612 0.038992 -0.994460
vn -0.067169 -0.045971 -0.996682
vn -0.067169 -0.045971 -0.996682
vn -0.067169 -0.045971 -0.996682
vn -0.098636 -0.039365 -0.994345
vn -0.098636 -0.039365 -0.994345
vn -0.098636 -0.039365 -0.994345
vn 0.072791 0.047564 -0.996212
vn 0.072791 0.047564 -0.996212
vn 0.072791 0.047564 -0.996212
vn 0.097963 -0.038803 -0.994433
vn 0.097963 -0.038803 -0.994433
vn 0.097963 -0.038803 -0.994433
vn -0.902626 -0.384230 -0.193994
vn -0.902626 -0.384230 -0.193994
vn -0.902626 -0.384230 -0.193994
vn -0.910139 0.411967 0.043940
vn -0.910139 0.411967 0.043940
vn -0.910139 0.411967 0.043940
vn 0.908643 -0.404745 0.102711
vn 0.908643 -0.404745 0.102711
vn 0.908643 -0.404745 0.102711
vn -0.049786 -0.607481 0.792773
vn -0.049786 -0.607481 0.792773
vn -0.049786 -0.607481 0.792773
vn 0.862922 0.363788 0.350749
vn 0.862922 0.363788 0.350749
vn 0.862922 0.363788 0.350749
vn 0.061620 0.715352 0.696042
vn 0.061620 0.715352 0.696042
vn 0.061620 0.715352 0.696042
vn 0.913947 0.405783 0.006379
vn 0.913947 0.405783 0.006379
vn 0.913947 0.405783 0.006379
vn 0.904301 0.425041 0.039750
vn 0.904301 0.425041 0.039750
vn 0.904301 0.425041 0.039750
vn -0.044488 0.709648 0.703151
vn -0.044488 0.709648 0.703151
vn -0.044488 0.709648 0.703151
vn 0.900763 0.384495 -0.201965
vn 0.900763 0.384495 -0.201965
vn 0.900763 0.384495 -0.201965
vn 0.935797 0.352347 0.011641
vn 0.935797 0.352347 0.011641
vn 0.935797 0.352347 0.011641
vn 0.906574 -0.421968 0.008115
vn 0.906575 -0.421968 0.008115
vn 0.906575 -0.421968 0.008115
vn 0.913572 -0.404576 0.041288
vn 0.913572 -0.404576 0.041288
vn 0.913572 -0.404576 0.041288
vn 0.048725 -0.606025 0.793952
vn 0.048725 -0.606025 0.793952
vn 0.048725 -0.606025 0.793952
vn 0.006254 0.993181 -0.116418
vn 0.006254 0.993181 -0.116418
vn 0.006254 0.993181 -0.116418
vn 0.120110 0.992538 0.021013
vn 0.120110 0.992538 0.021013
vn 0.120110 0.992538 0.021013
vn 0.921312 -0.331916 -0.202526
vn 0.921312 -0.331916 -0.202526
vn 0.921312 -0.331916 -0.202526
vn 0.889462 -0.284781 0.357431
vn 0.889462 -0.284781 0.357431
vn 0.889462 -0.284781 0.357431
vn 0.918251 -0.392557 -0.052093
vn 0.918251 -0.392557 -0.052093
vn 0.918251 -0.392557 -0.052093
vn 0.926048 -0.377400 0.002213
vn 0.926048 -0.377400 0.002213
vn 0.926048 -0.377400 0.002213
vn -0.902516 0.430579 0.008153
vn -0.902516 0.430579 0.008153
vn -0.902516 0.430579 0.008153
vn 0.020512 0.996943 -0.075388
vn 0.020512 0.996943 -0.075388
vn 0.020512 0.996943 -0.075388
vn -0.007866 0.993401 -0.114423
vn -0.007866 0.993401 -0.114423
vn -0.007866 0.993401 -0.114423
vn -0.935555 -0.352937 0.013153
vn -0.935555 -0.352937 0.013153
vn -0.935555 -0.352937 0.013153
vn -0.866706 -0.364455 0.340578
vn -0.866706 -0.364455 0.340578
vn -0.866706 -0.364455 0.340578
vn -0.202828 0.149253 0.967773
vn -0.202828 0.149253 0.967773
vn -0.202828 0.149253 0.967773
vn 0.135972 -0.048119 0.989543
vn 0.135972 -0.048119 0.989543
vn 0.135972 -0.048119 0.989543
vn -0.015418 -0.016875 0.999739
vn -0.015418 -0.016875 0.999739
vn -0.015418 -0.016875 0.999739
vn 0.015761 -0.016613 0.999738
vn 0.015761 -0.016613 0.999738
vn 0.015761 -0.016613 0.999738
vn -0.284111 -0.079433 0.955495
vn -0.284111 -0.079433 0.955495
vn -0.284111 -0.079433 0.955495
vn 0.208292 0.149896 0.966512
vn 0.208292 0.149896 0.966512
vn 0.208292 0.149896 0.966512
vn -0.067070 0.045689 -0.996702
vn -0.067070 0.045689 -0.996702
vn -0.067070 0.045689 -0.996702
vn -0.000167 0.029920 -0.999552
vn -0.000167 0.029920 -0.999552
vn -0.000167 0.029920 -0.999552
vn 0.001810 0.030289 -0.999540
vn 0.001810 0.030289 -0.999540
vn 0.001810 0.030289 -0.999540
vn -0.021548 -0.995397 -0.093379
vn -0.021548 -0.995397 -0.093379
vn -0.021548 -0.995397 -0.093379
vn 0.010205 -0.990350 -0.138213
vn 0.010205 -0.990350 -0.138213
vn 0.010205 -0.990350 -0.138213
vn -0.902216 -0.429518 0.038990
vn -0.902216 -0.429518 0.038990
vn -0.902216 -0.429518 0.038990
vn -0.911036 -0.412223 0.009295
vn -0.911036 -0.412222 0.009295
vn -0.911036 -0.412222 0.009295
vn 0.022809 -0.990695 -0.134178
vn 0.022809 -0.990695 -0.134178
vn 0.022809 -0.990695 -0.134178
vn -0.012496 -0.995590 -0.092979
vn -0.012496 -0.995590 -0.092979
vn -0.012496 -0.995590 -0.092979
vn -0.919661 0.390452 -0.042080
vn -0.919661 0.390452 -0.042080
vn -0.919661 0.390452 -0.042080
vn -0.926862 0.375147 0.013828
vn -0.926862 0.375147 0.013828
vn -0.926862 0.375147 0.013828
vn -0.912129 0.393954 0.113232
vn -0.912129 0.393954 0.113232
vn -0.912129 0.393954 0.113232
vn -0.924013 0.324018 -0.203009
vn -0.924013 0.324018 -0.203009
vn -0.924013 0.324018 -0.203009
vn -0.892962 0.276080 0.355527
vn -0.892962 0.276080 0.355527
vn -0.892962 0.276080 0.355527
vn -0.198578 -0.146673 0.969048
vn -0.198578 -0.146673 0.969048
vn -0.198578 -0.146673 0.969048
vn 0.273898 0.075159 0.958818
vn 0.273898 0.075159 0.958818
vn 0.273898 0.075159 0.958818
vn -0.034935 -0.000002 0.999390
vn -0.034935 -0.000002 0.999390
vn -0.034935 -0.000002 0.999390
vn 0.078455 0.036185 0.996261
vn 0.078455 0.036185 0.996261
vn 0.078455 0.036185 0.996261
vn 0.035558 0.000002 0.999368
vn 0.035558 0.000002 0.999368
vn 0.035558 0.000002 0.999368
vn -0.085826 0.037856 0.995591
vn -0.085826 0.037856 0.995591
vn -0.085826 0.037856 0.995591
vn 0.203710 -0.147251 0.967894
vn 0.203710 -0.147251 0.967894
vn 0.203710 -0.147251 0.967894
vn -0.280333 0.077239 0.956790
vn -0.280333 0.077239 0.956790
vn -0.280333 0.077239 0.956790
vn -0.001812 -0.030670 -0.999528
vn -0.001812 -0.030670 -0.999528
vn -0.001812 -0.030670 -0.999528
vn -0.098235 0.038991 -0.994399
vn -0.098235 0.038991 -0.994399
vn -0.098235 0.038991 -0.994399
vn 0.072826 -0.047850 -0.996196
vn 0.072826 -0.047850 -0.996196
vn 0.072826 -0.047850 -0.996196
vn 0.001887 -0.030692 -0.999527
vn 0.001887 -0.030692 -0.999527
vn 0.001887 -0.030692 -0.999527
s off
f 3/1/1 30/2/2 31/3/3
f 1/4/4 31/3/5 10/5/6
f 2/6/7 17/7/8 31/8/9
f 5/9/10 31/8/11 14/10/12
f 3/11/13 31/8/14 16/12/15
f 2/13/16 27/14/17 17/15/18
f 5/16/19 4/17/20 26/18/21
f 22/19/22 20/20/23 8/21/24
f 11/22/25 29/23/26 19/24/27
f 28/25/28 7/26/29 20/27/30
f 4/28/31 9/29/32 22/30/33
f 5/31/34 14/32/35 23/33/36
f 23/33/37 14/32/38 25/34/39
f 24/35/40 15/36/41 25/37/42
f 7/26/43 30/38/44 3/39/45
f 28/25/46 30/38/47 7/26/48
f 21/40/49 11/41/50 1/42/51
f 11/41/52 33/43/53 1/42/54
f 28/44/55 13/45/56 6/46/57
f 4/47/58 16/48/59 26/49/60
f 4/47/61 22/50/62 16/48/63
f 8/21/64 7/51/65 3/52/66
f 8/21/67 20/20/68 7/51/69
f 16/53/70 8/21/71 3/52/72
f 8/21/73 16/53/74 22/19/75
f 23/54/76 4/17/77 5/16/78
f 24/55/79 14/56/80 17/57/81
f 14/56/82 24/55/83 25/58/84
f 17/15/85 27/14/86 24/59/87
f 27/14/88 18/60/89 24/59/90
f 23/61/91 9/29/92 4/28/93
f 9/29/94 20/62/95 22/30/96
f 23/61/97 20/62/98 9/29/99
f 23/61/100 15/36/101 18/63/102
f 18/63/103 15/36/104 24/35/105
f 25/37/106 15/36/107 23/61/108
f 26/64/109 31/8/110 5/9/111
f 16/12/112 31/8/113 26/64/114
f 14/10/115 31/8/116 17/7/117
f 28/65/118 10/66/119 30/67/120
f 10/66/121 28/65/122 6/68/123
f 21/69/124 10/70/125 6/71/126
f 10/70/127 21/69/128 1/72/129
f 11/73/130 32/74/131 33/75/132
f 11/73/133 19/76/134 32/74/135
f 32/77/136 12/78/137 2/79/138
f 19/80/139 12/78/140 32/77/141
f 18/81/142 12/78/143 19/80/144
f 12/78/145 27/82/146 2/79/147
f 18/81/148 27/82/149 12/78/150
f 13/45/151 21/83/152 6/46/153
f 20/84/154 13/45/155 28/44/156
f 13/45/157 23/85/158 21/83/159
f 20/84/160 23/85/161 13/45/162
f 23/85/163 29/23/164 21/83/165
f 29/23/166 23/85/167 18/86/168
f 21/83/169 29/23/170 11/22/171
f 29/23/172 18/86/173 19/24/174
f 10/5/175 31/3/176 30/2/177
f 31/3/178 32/87/179 2/88/180
f 33/89/181 31/3/182 1/4/183
f 31/3/184 33/89/185 32/87/186
