# This file uses meters as units for non-parametric coordinates.

v -2.067282 -3.852541 58.074650
v 2.086521 -3.852541 58.152050
v 58.155571 -3.852542 -6.979484
v 58.155571 -3.852541 14.427931
v 58.155571 -3.852542 -18.916639
v 58.155571 -3.852541 26.365088
v 85.624695 -3.852542 3.724223
v 58.155571 3.852543 26.365088
v 85.624695 3.852542 3.724224
v 58.155571 3.852541 14.427931
v 58.155571 3.852542 -6.979483
v 58.155571 3.852542 -18.916637
v -2.067282 3.852541 58.074650
v 2.086521 3.852541 58.152050
v 43.838654 3.852541 -4.705015
v 43.838654 -3.852542 -4.705015
v 47.219818 -3.852541 13.933499
v 47.219818 3.852541 13.933499
v 30.148697 3.852541 0.716804
v 30.148697 -3.852542 0.716804
v 36.690388 -3.852541 15.840671
v 36.690388 3.852541 15.840670
v 18.288876 3.852541 8.961717
v 18.288876 -3.852541 8.961717
v 26.624092 -3.852541 20.226587
v 26.624092 3.852541 20.226587
v 8.813560 3.852541 19.489473
v 8.813560 -3.852541 19.489473
v 17.609226 -3.852541 26.973248
v 17.609226 3.852541 26.973248
v 2.129438 3.852543 31.658176
v 2.129438 -3.852541 31.658175
v 10.202706 -3.852541 35.822304
v 10.202706 3.852541 35.822300
v -1.521144 3.852541 44.762604
v -1.521144 -3.852541 44.762604
v 4.896512 -3.852541 46.383656
v 4.896512 3.852542 46.383656
vt 0.247795 0.302644
vt 0.247795 0.302644
vt 0.247795 0.302644
vt 0.247795 0.302644
vt 0.247795 0.302644
vt 0.247795 0.302644
vt 0.247795 0.302644
vt 0.247795 0.302644
vt 0.247795 0.302644
vt 0.247795 0.302644
vt 0.247795 0.302644
vt 0.247795 0.302644
vt 0.247795 0.302644
vt 0.247795 0.302644
vt 0.247795 0.302644
vt 0.247795 0.302644
vt 0.247795 0.302644
vt 0.247795 0.302644
vt 0.247795 0.302644
vt 0.247795 0.302644
vt 0.247795 0.302644
vt 0.247795 0.302644
vt 0.247795 0.302644
vt 0.247795 0.302644
vt 0.247795 0.302644
vt 0.247795 0.302644
vt 0.247795 0.302644
vt 0.247795 0.302644
vt 0.247795 0.302644
vt 0.247795 0.302644
vt 0.247795 0.302644
vt 0.247795 0.302644
vt 0.247795 0.302644
vt 0.247795 0.302644
vt 0.247795 0.302644
vt 0.247795 0.302644
vt 0.247795 0.302644
vt 0.247795 0.302644
vt 0.247795 0.302644
vt 0.247795 0.302644
vt 0.247795 0.302644
vt 0.247795 0.302644
vt 0.247795 0.302644
vt 0.247795 0.302644
vt 0.247795 0.302644
vt 0.247795 0.302644
vt 0.247795 0.302644
vt 0.247795 0.302644
vt 0.247795 0.302644
vt 0.247795 0.302644
vt 0.247795 0.302644
vt 0.247795 0.302644
vt 0.247795 0.302644
vt 0.247795 0.302644
vt 0.247795 0.302644
vt 0.247795 0.302644
vt 0.247795 0.302644
vn -0.000000 1.000000 -0.000000
vn -0.000000 1.000000 -0.000000
vn -0.000000 1.000000 -0.000000
vn -0.000000 1.000000 0.000000
vn -0.000000 1.000000 0.000000
vn -0.000000 1.000000 -0.000000
vn -0.000000 1.000000 -0.000000
vn -0.000000 1.000000 0.000000
vn -0.000000 1.000000 -0.000000
vn 0.000000 1.000000 0.000000
vn 0.000000 1.000000 0.000000
vn -0.000000 1.000000 0.000000
vn -0.000000 1.000000 0.000000
vn -0.000000 -1.000000 0.000000
vn -0.000000 -1.000000 0.000000
vn -0.000000 -1.000000 0.000000
vn 0.000000 -1.000000 0.000000
vn -0.000000 -1.000000 0.000000
vn -0.000000 -1.000000 0.000000
vn -0.000000 -1.000000 0.000000
vn -0.000000 -1.000000 0.000000
vn -0.000000 -1.000000 0.000000
vn 0.000000 -1.000000 0.000000
vn 0.000000 -1.000000 0.000000
vn 0.000000 -1.000000 0.000000
vn 0.000000 -1.000000 0.000000
vn 0.636029 0.000000 0.771665
vn 0.636029 0.000000 0.771665
vn 0.636029 0.000000 0.771665
vn 0.636029 0.000000 0.771665
vn -1.000000 0.000000 0.000000
vn -1.000000 0.000000 0.000000
vn -1.000000 0.000000 0.000000
vn -1.000000 0.000000 0.000000
vn -1.000000 0.000001 0.000000
vn -1.000000 0.000001 0.000000
vn -1.000000 0.000001 0.000000
vn -1.000000 0.000001 0.000000
vn 0.636029 0.000000 -0.771665
vn 0.636029 0.000000 -0.771665
vn 0.636029 0.000000 -0.771665
vn 0.636029 0.000000 -0.771665
vn -0.987615 0.000000 -0.156900
vn -0.999160 0.000000 -0.040991
vn -0.999160 0.000000 -0.040991
vn -0.987615 0.000000 -0.156900
vn -0.018630 0.000000 0.999826
vn -0.018630 0.000000 0.999826
vn -0.018630 0.000000 0.999826
vn -0.018630 0.000000 0.999826
vn 0.972657 0.000000 0.232246
vn 0.939844 0.000000 0.341605
vn 0.939844 0.000000 0.341605
vn 0.972657 0.000000 0.232246
vn -0.156898 0.000000 -0.987615
vn -0.264977 0.000000 -0.964255
vn -0.264977 0.000000 -0.964255
vn -0.156898 0.000000 -0.987615
vn -0.000000 -1.000000 0.000000
vn 0.000000 -1.000000 0.000000
vn 0.000000 -1.000000 0.000000
vn -0.000000 -1.000000 0.000000
vn 0.065673 0.000000 0.997841
vn 0.065673 0.000000 0.997841
vn -0.045166 0.000000 0.998980
vn -0.045166 0.000000 0.998980
vn -0.000000 1.000000 -0.000000
vn -0.000000 1.000000 0.000000
vn -0.000000 1.000000 0.000000
vn -0.000000 1.000000 0.000000
vn -0.264977 0.000000 -0.964255
vn -0.471668 0.000000 -0.881776
vn -0.471668 0.000000 -0.881776
vn -0.264977 0.000000 -0.964255
vn 0.000000 -1.000000 0.000000
vn 0.000000 -1.000000 0.000000
vn 0.000000 -1.000000 0.000000
vn 0.000000 -1.000000 0.000000
vn 0.292216 0.000000 0.956352
vn 0.292216 0.000000 0.956352
vn 0.065673 0.000000 0.997841
vn 0.065673 0.000000 0.997841
vn -0.000000 1.000000 0.000000
vn -0.000000 1.000000 0.000000
vn 0.000000 1.000000 0.000000
vn 0.000000 1.000000 0.000000
vn -0.471668 0.000000 -0.881776
vn -0.660583 0.000000 -0.750753
vn -0.660583 0.000000 -0.750753
vn -0.471668 0.000000 -0.881776
vn 0.000000 -1.000000 0.000000
vn -0.000000 -1.000000 -0.000000
vn -0.000000 -1.000000 -0.000000
vn 0.000000 -1.000000 0.000000
vn 0.503935 0.000000 0.863741
vn 0.503935 0.000000 0.863741
vn 0.292216 0.000000 0.956352
vn 0.292216 0.000000 0.956352
vn 0.000000 1.000000 0.000000
vn 0.000000 1.000000 0.000000
vn -0.000000 1.000000 -0.000000
vn -0.000000 1.000000 -0.000000
vn -0.660583 0.000000 -0.750753
vn -0.814621 0.000000 -0.579994
vn -0.814621 0.000000 -0.579994
vn -0.660583 0.000000 -0.750753
vn -0.000000 -1.000000 -0.000000
vn 0.000000 -1.000000 -0.000000
vn 0.000000 -1.000000 -0.000000
vn -0.000000 -1.000000 -0.000000
vn 0.688643 0.000000 0.725101
vn 0.688643 0.000000 0.725101
vn 0.503935 0.000000 0.863741
vn 0.503935 0.000000 0.863741
vn -0.000000 1.000000 -0.000000
vn -0.000000 1.000000 -0.000000
vn 0.000000 1.000000 0.000000
vn 0.000000 1.000000 0.000000
vn -0.814621 0.000000 -0.579994
vn -0.925602 0.000000 -0.378498
vn -0.925602 0.000000 -0.378498
vn -0.814621 0.000000 -0.579994
vn 0.000000 -1.000000 -0.000000
vn 0.000000 -1.000000 0.000000
vn 0.000000 -1.000000 0.000000
vn 0.000000 -1.000000 -0.000000
vn 0.836549 0.000000 0.547892
vn 0.836549 0.000000 0.547892
vn 0.688643 0.000000 0.725101
vn 0.688643 0.000000 0.725101
vn 0.000000 1.000000 0.000000
vn 0.000000 1.000000 0.000000
vn 0.000000 1.000000 0.000000
vn 0.000000 1.000000 0.000000
vn -0.925602 0.000000 -0.378498
vn -0.987615 0.000000 -0.156900
vn -0.987615 0.000000 -0.156900
vn -0.925602 0.000000 -0.378498
vn 0.000000 -1.000000 0.000000
vn 0.000000 -1.000000 0.000000
vn 0.000000 -1.000000 0.000000
vn 0.000000 -1.000000 0.000000
vn 0.939844 0.000000 0.341605
vn 0.939844 0.000000 0.341605
vn 0.836549 0.000000 0.547892
vn 0.836549 0.000000 0.547892
vn 0.000000 1.000000 0.000000
vn 0.000000 1.000000 0.000000
vn 0.000000 1.000000 0.000000
vn 0.000000 1.000000 0.000000
s off
f 8/15/1 9/16/2 10/17/3
f 12/18/4 11/19/5 9/16/6
f 9/16/7 11/19/8 10/17/9
f 38/57/10 35/52/11 13/20/12 14/21/13
f 6/8/14 4/10/15 7/9/16
f 5/11/17 7/9/18 3/12/19
f 7/9/20 4/10/21 3/12/22
f 37/56/23 2/14/24 1/13/25 36/53/26
f 6/6/27 7/7/28 9/16/29 8/15/30
f 4/4/31 6/6/32 8/15/33 10/17/34
f 5/5/35 3/3/36 11/19/37 12/18/38
f 7/7/39 5/5/40 12/18/41 9/16/42
f 36/54/43 1/1/44 13/20/45 35/52/46
f 1/1/47 2/2/48 14/21/49 13/20/50
f 2/2/51 37/55/52 38/57/53 14/21/54
f 3/3/55 16/24/56 15/22/57 11/19/58
f 4/10/59 17/26/60 16/23/61 3/12/62
f 18/27/63 17/25/64 4/4/65 10/17/66
f 10/17/67 11/19/68 15/22/69 18/27/70
f 16/24/71 20/30/72 19/28/73 15/22/74
f 17/26/75 21/32/76 20/29/77 16/23/78
f 22/33/79 21/31/80 17/25/81 18/27/82
f 18/27/83 15/22/84 19/28/85 22/33/86
f 20/30/87 24/36/88 23/34/89 19/28/90
f 21/32/91 25/38/92 24/35/93 20/29/94
f 26/39/95 25/37/96 21/31/97 22/33/98
f 22/33/99 19/28/100 23/34/101 26/39/102
f 24/36/103 28/42/104 27/40/105 23/34/106
f 25/38/107 29/44/108 28/41/109 24/35/110
f 30/45/111 29/43/112 25/37/113 26/39/114
f 26/39/115 23/34/116 27/40/117 30/45/118
f 28/42/119 32/48/120 31/46/121 27/40/122
f 29/44/123 33/50/124 32/47/125 28/41/126
f 34/51/127 33/49/128 29/43/129 30/45/130
f 30/45/131 27/40/132 31/46/133 34/51/134
f 32/48/135 36/54/136 35/52/137 31/46/138
f 33/50/139 37/56/140 36/53/141 32/47/142
f 38/57/143 37/55/144 33/49/145 34/51/146
f 34/51/147 31/46/148 35/52/149 38/57/150
