# This file uses meters as units for non-parametric coordinates.

v 13.216456 9.127541 -22.891560
v -13.216447 9.127541 -22.891565
v -26.432899 9.127541 -0.000003
v -13.216453 9.127541 22.891565
v 13.216449 9.127541 22.891565
v 26.432899 9.127541 0.000001
v 10.101172 21.905338 -17.495731
v -10.101164 21.905338 -17.495735
v -20.202333 21.905338 -0.000002
v -10.101170 21.905338 17.495733
v 10.101166 21.905338 17.495735
v 20.202333 21.905338 0.000001
v 0.000000 -21.905342 0.000001
v 0.000000 21.905338 0.000001
vt 0.250196 0.303017
vt 0.250196 0.303017
vt 0.250196 0.303017
vt 0.250196 0.303017
vt 0.250196 0.303017
vt 0.250196 0.303017
vt 0.250196 0.303017
vt 0.250196 0.303017
vt 0.250196 0.303017
vt 0.250196 0.303017
vt 0.250196 0.303017
vt 0.250196 0.303017
vt 0.250196 0.303017
vt 0.250196 0.303017
vt 0.250196 0.303017
vt 0.250196 0.303017
vt 0.250196 0.303017
vt 0.250196 0.303017
vt 0.250196 0.303017
vt 0.250196 0.303017
vt 0.250196 0.303017
vt 0.250196 0.303017
vt 0.250196 0.303017
vt 0.250196 0.303017
vt 0.250196 0.303017
vt 0.250196 0.303017
vt 0.250196 0.303017
vt 0.250196 0.303017
vn 0.000000 0.389019 -0.921230
vn 0.000000 0.389019 -0.921230
vn 0.000000 0.389019 -0.921230
vn 0.000000 0.389019 -0.921230
vn -0.797808 0.389018 -0.460615
vn -0.797808 0.389018 -0.460615
vn -0.797808 0.389019 -0.460615
vn -0.797808 0.389019 -0.460615
vn -0.797809 0.389019 0.460615
vn -0.797809 0.389019 0.460615
vn -0.797809 0.389019 0.460615
vn -0.797809 0.389019 0.460615
vn 0.000000 0.389019 0.921230
vn 0.000000 0.389019 0.921230
vn 0.000000 0.389019 0.921230
vn 0.000000 0.389019 0.921230
vn 0.797809 0.389019 0.460615
vn 0.797809 0.389019 0.460615
vn 0.797809 0.389019 0.460615
vn 0.797809 0.389018 0.460615
vn 0.797809 0.389018 -0.460615
vn 0.797809 0.389018 -0.460615
vn 0.797809 0.389018 -0.460615
vn 0.797809 0.389018 -0.460615
vn 0.000000 -0.593623 -0.804743
vn 0.000000 -0.593623 -0.804743
vn 0.000000 -0.593623 -0.804743
vn -0.696928 -0.593623 -0.402372
vn -0.696928 -0.593623 -0.402372
vn -0.696928 -0.593623 -0.402372
vn -0.696928 -0.593623 0.402371
vn -0.696928 -0.593623 0.402371
vn -0.696928 -0.593623 0.402371
vn 0.000000 -0.593623 0.804743
vn 0.000000 -0.593623 0.804743
vn 0.000000 -0.593623 0.804743
vn 0.696928 -0.593623 0.402372
vn 0.696928 -0.593623 0.402372
vn 0.696928 -0.593623 0.402372
vn 0.696928 -0.593623 -0.402372
vn 0.696928 -0.593623 -0.402372
vn 0.696928 -0.593623 -0.402372
vn 0.000000 1.000000 0.000000
vn 0.000000 1.000000 0.000000
vn 0.000000 1.000000 0.000000
vn 0.000000 1.000000 0.000000
vn 0.000000 1.000000 0.000000
vn 0.000000 1.000000 0.000000
vn 0.000000 1.000000 0.000000
vn 0.000000 1.000000 0.000000
vn 0.000000 1.000000 0.000000
vn 0.000000 1.000000 -0.000000
vn 0.000000 1.000000 -0.000000
vn 0.000000 1.000000 -0.000000
vn 0.000000 1.000000 -0.000000
vn 0.000000 1.000000 -0.000000
vn 0.000000 1.000000 -0.000000
vn 0.000000 1.000000 0.000000
vn 0.000000 1.000000 0.000000
vn 0.000000 1.000000 0.000000
s off
f 1/7/1 2/8/2 8/15/3 7/14/4
f 2/8/5 3/9/6 9/16/7 8/15/8
f 3/9/9 4/10/10 10/17/11 9/16/12
f 4/10/13 5/11/14 11/18/15 10/17/16
f 5/11/17 6/12/18 12/19/19 11/18/20
f 6/12/21 1/13/22 7/20/23 12/19/24
f 2/2/25 1/1/26 13/27/27
f 3/3/28 2/2/29 13/27/30
f 4/4/31 3/3/32 13/27/33
f 5/5/34 4/4/35 13/27/36
f 6/6/37 5/5/38 13/27/39
f 1/1/40 6/6/41 13/27/42
f 7/25/43 8/24/44 14/28/45
f 8/24/46 9/23/47 14/28/48
f 9/23/49 10/22/50 14/28/51
f 10/22/52 11/21/53 14/28/54
f 11/21/55 12/26/56 14/28/57
f 12/26/58 7/25/59 14/28/60
