# This file uses meters as units for non-parametric coordinates.

v 20.797367 20.797371 -4.031496
v -0.000001 29.411926 -4.031496
v -20.797367 20.797371 -4.031496
v -29.411926 -0.000000 -4.031496
v -20.797367 -20.797371 -4.031496
v -0.000001 -29.411926 -4.031496
v 20.797367 -20.797373 -4.031496
v 29.411926 -0.000000 -4.031496
v 20.797367 20.797371 4.031496
v -0.000001 29.411926 4.031496
v -20.797367 20.797371 4.031496
v -29.411926 0.000000 4.031496
v -20.797367 -20.797371 4.031496
v -0.000001 -29.411926 4.031496
v 20.797367 -20.797373 4.031496
v 29.411926 0.000000 4.031496
v 16.274033 16.274029 -4.031496
v -0.000001 23.014952 -4.031496
v -16.274033 16.274029 -4.031496
v -23.014946 -0.000000 -4.031496
v -16.274033 -16.274029 -4.031496
v -0.000001 -23.014952 -4.031496
v 16.274033 -16.274031 -4.031496
v 23.014946 -0.000000 -4.031496
v 16.274033 16.274029 4.031496
v -0.000001 23.014952 4.031496
v -16.274033 16.274029 4.031496
v -23.014946 -0.000000 4.031496
v -16.274033 -16.274029 4.031496
v -0.000001 -23.014952 4.031496
v 16.274033 -16.274031 4.031496
v 23.014946 -0.000000 4.031496
v 14.622077 14.622081 -2.545371
v -0.000001 20.678745 -2.545371
v -0.000001 -0.000000 -2.545371
v -14.622079 14.622081 -2.545371
v -20.678749 -0.000000 -2.545371
v -14.622079 -14.622082 -2.545371
v -0.000001 -20.678747 -2.545371
v 14.622077 -14.622085 -2.545371
v 20.678749 -0.000000 -2.545371
v 14.622077 14.622081 2.545371
v -0.000001 20.678745 2.545371
v -0.000001 -0.000000 2.545371
v -14.622079 14.622081 2.545371
v -20.678749 -0.000000 2.545371
v -14.622079 -14.622082 2.545371
v -0.000001 -20.678747 2.545371
v 14.622077 -14.622085 2.545371
v 20.678749 -0.000000 2.545371
v 9.195498 -3.816943 4.199595
v 10.953349 -15.108871 4.199595
v 0.014743 -10.472653 4.199595
v -10.984612 -15.086156 4.199595
v -9.152223 -3.797946 4.199595
v -17.742214 5.785112 4.199595
v -5.636960 6.982955 4.199595
v 0.019320 18.661551 4.199595
v 5.702571 6.971214 4.199595
v 17.754154 5.748362 4.199595
v 9.195498 -3.816943 -4.199595
v 10.953349 -15.108871 -4.199595
v 0.014743 -10.472653 -4.199595
v -10.984612 -15.086156 -4.199595
v -9.152223 -3.797946 -4.199595
v -17.742214 5.785112 -4.199595
v -5.636960 6.982955 -4.199595
v 0.019320 18.661551 -4.199595
v 5.702571 6.971214 -4.199595
v 17.754154 5.748362 -4.199595
v -0.000001 0.000000 6.250672
v -0.000001 -0.000000 -6.250672
vt 0.048412 0.213334
vt 0.048412 0.213334
vt 0.048412 0.213334
vt 0.048412 0.213334
vt 0.048412 0.213334
vt 0.048412 0.213334
vt 0.048412 0.213334
vt 0.048412 0.213334
vt 0.048412 0.213334
vt 0.048412 0.213334
vt 0.048412 0.213334
vt 0.048412 0.213334
vt 0.048412 0.213334
vt 0.048412 0.213334
vt 0.048412 0.213334
vt 0.048412 0.213334
vt 0.048412 0.213334
vt 0.048412 0.213334
vt 0.048412 0.213334
vt 0.048412 0.213334
vt 0.048412 0.213334
vt 0.048412 0.213334
vt 0.048412 0.213334
vt 0.048412 0.213334
vt 0.048412 0.213334
vt 0.048412 0.213334
vt 0.048412 0.213334
vt 0.048412 0.213334
vt 0.048412 0.213334
vt 0.048412 0.213334
vt 0.048412 0.213334
vt 0.048412 0.213334
vt 0.048412 0.213334
vt 0.048412 0.213334
vt 0.048180 0.205399
vt 0.048180 0.205399
vt 0.048412 0.213334
vt 0.048412 0.213334
vt 0.048412 0.213334
vt 0.048412 0.213334
vt 0.048412 0.213334
vt 0.048412 0.213334
vt 0.048412 0.213334
vt 0.048412 0.213334
vt 0.048412 0.213334
vt 0.048412 0.213334
vt 0.048412 0.213334
vt 0.048412 0.213334
vt 0.048412 0.213334
vt 0.048412 0.213334
vt 0.048412 0.213334
vt 0.048412 0.213334
vt 0.048412 0.213334
vt 0.048412 0.213334
vt 0.048412 0.213334
vt 0.048412 0.213334
vt 0.048412 0.213334
vt 0.048412 0.213334
vt 0.048412 0.213334
vt 0.048412 0.213334
vt 0.048412 0.213334
vt 0.048412 0.213334
vt 0.048412 0.213334
vt 0.048412 0.213334
vt 0.048412 0.213334
vt 0.048412 0.213334
vt 0.048412 0.213334
vt 0.048412 0.213334
vt 0.048180 0.205399
vt 0.048180 0.205399
vt 0.048180 0.205399
vt 0.048180 0.205399
vt 0.048180 0.205399
vt 0.048180 0.205399
vt 0.048180 0.205399
vt 0.048180 0.205399
vt 0.048180 0.205399
vt 0.048180 0.205399
vt 0.048180 0.205399
vt 0.048180 0.205399
vt 0.048180 0.205399
vt 0.048180 0.205399
vt 0.048180 0.205399
vt 0.048180 0.205399
vt 0.048412 0.213334
vt 0.048412 0.213334
vt 0.048412 0.213334
vt 0.048412 0.213334
vt 0.048412 0.213334
vt 0.048412 0.213334
vt 0.048412 0.213334
vt 0.048412 0.213334
vt 0.048412 0.213334
vt 0.048412 0.213334
vt 0.048412 0.213334
vt 0.048412 0.213334
vt 0.048412 0.213334
vt 0.048412 0.213334
vt 0.048412 0.213334
vt 0.048412 0.213334
vt 0.048412 0.213334
vt 0.048412 0.213334
vt 0.048412 0.213334
vt 0.048412 0.213334
vt 0.048412 0.213334
vt 0.048412 0.213334
vt 0.048412 0.213334
vt 0.048412 0.213334
vt 0.048412 0.213334
vt 0.048412 0.213334
vt 0.048412 0.213334
vt 0.048412 0.213334
vt 0.048412 0.213334
vt 0.048412 0.213334
vt 0.048412 0.213334
vt 0.048412 0.213334
vt 0.048412 0.213334
vt 0.048412 0.213334
vt 0.048412 0.213334
vt 0.048412 0.213334
vt 0.048412 0.213334
vt 0.048412 0.213334
vt 0.048412 0.213334
vt 0.048412 0.213334
vt 0.048412 0.213334
vt 0.048412 0.213334
vt 0.048412 0.213334
vt 0.048412 0.213334
vn 0.382684 0.923880 0.000000
vn 0.382684 0.923880 0.000000
vn 0.382684 0.923880 0.000000
vn 0.382684 0.923880 0.000000
vn -0.382684 0.923880 0.000000
vn -0.382684 0.923880 0.000000
vn -0.382684 0.923880 0.000000
vn -0.382684 0.923880 0.000000
vn -0.923879 0.382684 0.000000
vn -0.923879 0.382684 0.000000
vn -0.923879 0.382684 0.000000
vn -0.923879 0.382684 0.000000
vn -0.923879 -0.382684 0.000000
vn -0.923879 -0.382684 0.000000
vn -0.923879 -0.382684 0.000000
vn -0.923879 -0.382684 0.000000
vn -0.382684 -0.923880 0.000000
vn -0.382684 -0.923880 0.000000
vn -0.382684 -0.923880 0.000000
vn -0.382684 -0.923880 0.000000
vn 0.382683 -0.923880 0.000000
vn 0.382683 -0.923880 0.000000
vn 0.382683 -0.923880 0.000000
vn 0.382683 -0.923880 0.000000
vn 0.923879 -0.382684 0.000000
vn 0.923879 -0.382684 0.000000
vn 0.923879 -0.382684 0.000000
vn 0.923879 -0.382684 0.000000
vn 0.923879 0.382684 0.000000
vn 0.923879 0.382684 0.000000
vn 0.923879 0.382684 0.000000
vn 0.923879 0.382684 0.000000
vn 0.000000 0.000000 -1.000000
vn 0.000000 0.000000 -1.000000
vn 0.000000 0.000000 -1.000000
vn 0.000000 0.000000 -1.000000
vn 0.000000 0.000000 -1.000000
vn 0.000000 0.000000 -1.000000
vn 0.000000 0.000000 -1.000000
vn 0.000000 0.000000 -1.000000
vn 0.000000 0.000000 -1.000000
vn 0.000000 0.000000 -1.000000
vn 0.000000 0.000000 -1.000000
vn 0.000000 0.000000 -1.000000
vn 0.000000 0.000000 -1.000000
vn 0.000000 0.000000 -1.000000
vn 0.000000 0.000000 -1.000000
vn 0.000000 0.000000 -1.000000
vn 0.000000 0.000000 -1.000000
vn 0.000000 0.000000 -1.000000
vn 0.000000 0.000000 -1.000000
vn 0.000000 0.000000 -1.000000
vn 0.000000 0.000000 -1.000000
vn 0.000000 0.000000 -1.000000
vn 0.000000 0.000000 -1.000000
vn 0.000000 0.000000 -1.000000
vn 0.000000 0.000000 1.000000
vn 0.000000 0.000000 1.000000
vn 0.000000 0.000000 1.000000
vn 0.000000 0.000000 1.000000
vn 0.000000 0.000000 1.000000
vn 0.000000 0.000000 1.000000
vn 0.000000 0.000000 1.000000
vn 0.000000 0.000000 1.000000
vn 0.000000 0.000000 1.000000
vn 0.000000 0.000000 1.000000
vn 0.000000 0.000000 1.000000
vn 0.000000 0.000000 1.000000
vn 0.000000 0.000000 1.000000
vn 0.000000 0.000000 1.000000
vn 0.000000 0.000000 1.000000
vn 0.000000 0.000000 1.000000
vn 0.000000 0.000000 1.000000
vn 0.000000 0.000000 1.000000
vn 0.000000 0.000000 1.000000
vn 0.000000 0.000000 1.000000
vn 0.000000 0.000000 1.000000
vn 0.000000 0.000000 1.000000
vn 0.000000 0.000000 1.000000
vn 0.000000 0.000000 1.000000
vn 0.000000 0.000000 -1.000000
vn 0.000000 0.000000 -1.000000
vn 0.000000 0.000000 -1.000000
vn 0.000000 0.000000 -1.000000
vn 0.000000 0.000000 -1.000000
vn 0.000000 0.000000 -1.000000
vn 0.000000 0.000000 -1.000000
vn 0.000000 0.000000 -1.000000
vn 0.000000 0.000000 -1.000000
vn 0.000000 0.000000 -1.000000
vn 0.000000 0.000000 -1.000000
vn 0.000000 0.000000 -1.000000
vn 0.000000 0.000000 -1.000000
vn 0.000000 0.000000 -1.000000
vn 0.000000 0.000000 -1.000000
vn 0.000000 0.000000 -1.000000
vn 0.000000 0.000000 -1.000000
vn 0.000000 0.000000 -1.000000
vn 0.000000 0.000000 -1.000000
vn 0.000000 0.000000 -1.000000
vn 0.000000 0.000000 -1.000000
vn 0.000000 0.000000 -1.000000
vn 0.000000 0.000000 -1.000000
vn 0.000000 0.000000 -1.000000
vn 0.000000 0.000000 -1.000000
vn 0.000000 0.000000 -1.000000
vn 0.000000 0.000000 -1.000000
vn 0.000000 0.000000 -1.000000
vn -0.000000 0.000000 -1.000000
vn -0.000000 0.000000 -1.000000
vn -0.000000 0.000000 -1.000000
vn -0.000000 0.000000 -1.000000
vn 0.000000 0.000000 1.000000
vn 0.000000 0.000000 1.000000
vn 0.000000 0.000000 1.000000
vn 0.000000 0.000000 1.000000
vn 0.000000 0.000000 1.000000
vn 0.000000 0.000000 1.000000
vn 0.000000 0.000000 1.000000
vn 0.000000 0.000000 1.000000
vn 0.000000 0.000000 1.000000
vn 0.000000 0.000000 1.000000
vn 0.000000 0.000000 1.000000
vn 0.000000 0.000000 1.000000
vn 0.000000 0.000000 1.000000
vn 0.000000 0.000000 1.000000
vn 0.000000 0.000000 1.000000
vn 0.000000 0.000000 1.000000
vn 0.000000 0.000000 1.000000
vn 0.000000 0.000000 1.000000
vn 0.000000 0.000000 1.000000
vn 0.000000 0.000000 1.000000
vn 0.000000 0.000000 1.000000
vn 0.000000 0.000000 1.000000
vn 0.000000 0.000000 1.000000
vn 0.000000 0.000000 1.000000
vn -0.000000 0.000000 1.000000
vn -0.000000 0.000000 1.000000
vn -0.000000 0.000000 1.000000
vn -0.000000 0.000000 1.000000
vn -0.000000 0.000000 1.000000
vn -0.000000 0.000000 1.000000
vn -0.000000 0.000000 1.000000
vn -0.000000 0.000000 1.000000
vn -0.217023 -0.523941 -0.823642
vn -0.217023 -0.523941 -0.823642
vn -0.217023 -0.523941 -0.823642
vn -0.217023 -0.523941 -0.823642
vn 0.217024 -0.523942 -0.823642
vn 0.217024 -0.523942 -0.823642
vn 0.217024 -0.523942 -0.823642
vn 0.217024 -0.523942 -0.823642
vn 0.523942 -0.217024 -0.823642
vn 0.523942 -0.217024 -0.823642
vn 0.523942 -0.217024 -0.823642
vn 0.523942 -0.217024 -0.823642
vn 0.523942 0.217024 -0.823642
vn 0.523942 0.217024 -0.823642
vn 0.523942 0.217024 -0.823642
vn 0.523942 0.217024 -0.823642
vn 0.217024 0.523942 -0.823642
vn 0.217024 0.523942 -0.823642
vn 0.217024 0.523942 -0.823642
vn 0.217024 0.523942 -0.823642
vn -0.217023 0.523941 -0.823642
vn -0.217023 0.523941 -0.823642
vn -0.217023 0.523941 -0.823642
vn -0.217023 0.523941 -0.823642
vn -0.523941 0.217024 -0.823642
vn -0.523941 0.217024 -0.823642
vn -0.523941 0.217024 -0.823642
vn -0.523941 0.217024 -0.823642
vn -0.523941 -0.217024 -0.823642
vn -0.523941 -0.217024 -0.823642
vn -0.523941 -0.217024 -0.823642
vn -0.523941 -0.217024 -0.823642
vn -0.217023 -0.523941 0.823642
vn -0.217024 -0.523941 0.823642
vn -0.217024 -0.523941 0.823642
vn -0.217024 -0.523941 0.823642
vn 0.217024 -0.523942 0.823642
vn 0.217024 -0.523942 0.823642
vn 0.217024 -0.523942 0.823642
vn 0.217024 -0.523942 0.823642
vn 0.523942 -0.217024 0.823642
vn 0.523942 -0.217024 0.823642
vn 0.523942 -0.217024 0.823642
vn 0.523942 -0.217024 0.823642
vn 0.523942 0.217024 0.823642
vn 0.523942 0.217024 0.823642
vn 0.523942 0.217024 0.823642
vn 0.523941 0.217024 0.823642
vn 0.217024 0.523942 0.823642
vn 0.217024 0.523942 0.823642
vn 0.217024 0.523942 0.823642
vn 0.217024 0.523942 0.823642
vn -0.217023 0.523941 0.823642
vn -0.217023 0.523941 0.823642
vn -0.217023 0.523941 0.823642
vn -0.217023 0.523941 0.823642
vn -0.523941 0.217024 0.823642
vn -0.523941 0.217024 0.823642
vn -0.523941 0.217024 0.823642
vn -0.523941 0.217024 0.823642
vn -0.523941 -0.217024 0.823642
vn -0.523941 -0.217024 0.823642
vn -0.523941 -0.217024 0.823642
vn -0.523941 -0.217024 0.823642
vn 0.988099 0.153820 0.000000
vn 0.988099 0.153820 0.000000
vn 0.988099 0.153820 0.000000
vn 0.988099 0.153820 0.000000
vn -0.390236 -0.920715 0.000000
vn -0.390236 -0.920715 0.000000
vn -0.390236 -0.920715 0.000000
vn -0.390236 -0.920715 0.000000
vn 0.386789 -0.922168 0.000000
vn 0.386789 -0.922168 0.000000
vn 0.386789 -0.922168 0.000000
vn 0.386789 -0.922168 0.000000
vn -0.987080 0.160230 0.000000
vn -0.987080 0.160230 0.000000
vn -0.987080 0.160230 0.000000
vn -0.987080 0.160230 0.000000
vn -0.744636 -0.667471 0.000000
vn -0.744636 -0.667471 0.000000
vn -0.744636 -0.667471 0.000000
vn -0.744636 -0.667471 0.000000
vn -0.098471 0.995140 0.000000
vn -0.098471 0.995140 0.000000
vn -0.098471 0.995140 0.000000
vn -0.098471 0.995140 0.000000
vn -0.899998 0.435895 0.000000
vn -0.899998 0.435895 0.000000
vn -0.899998 0.435895 0.000000
vn -0.899998 0.435895 0.000000
vn 0.899354 0.437221 0.000000
vn 0.899354 0.437221 0.000000
vn 0.899354 0.437221 0.000000
vn 0.899354 0.437221 0.000000
vn 0.100950 0.994892 0.000000
vn 0.100950 0.994892 0.000000
vn 0.100950 0.994892 0.000000
vn 0.100950 0.994892 0.000000
vn 0.745233 -0.666805 0.000000
vn 0.745233 -0.666805 0.000000
vn 0.745233 -0.666805 0.000000
vn 0.745233 -0.666805 0.000000
vn 0.231806 0.036086 0.972092
vn 0.231806 0.036086 0.972092
vn 0.231806 0.036086 0.972092
vn -0.081239 -0.191674 0.978091
vn -0.081239 -0.191674 0.978091
vn -0.081239 -0.191674 0.978091
vn 0.080309 -0.191470 0.978208
vn 0.080309 -0.191470 0.978207
vn 0.080309 -0.191470 0.978207
vn -0.233475 0.037899 0.971624
vn -0.233475 0.037899 0.971624
vn -0.233475 0.037899 0.971624
vn -0.159553 -0.143019 0.976775
vn -0.159553 -0.143019 0.976775
vn -0.159553 -0.143019 0.976775
vn -0.025963 0.262375 0.964617
vn -0.025963 0.262375 0.964617
vn -0.025963 0.262375 0.964617
vn -0.220487 0.106788 0.969527
vn -0.220487 0.106788 0.969527
vn -0.220487 0.106788 0.969527
vn 0.218821 0.106380 0.969949
vn 0.218821 0.106380 0.969949
vn 0.218821 0.106380 0.969949
vn 0.026592 0.262076 0.964681
vn 0.026592 0.262076 0.964681
vn 0.026592 0.262076 0.964681
vn 0.158905 -0.142182 0.977002
vn 0.158905 -0.142182 0.977002
vn 0.158905 -0.142182 0.977002
vn 0.231806 0.036086 -0.972092
vn 0.231806 0.036086 -0.972092
vn 0.231806 0.036086 -0.972092
vn -0.081239 -0.191674 -0.978091
vn -0.081239 -0.191674 -0.978091
vn -0.081239 -0.191674 -0.978091
vn 0.080309 -0.191470 -0.978208
vn 0.080309 -0.191470 -0.978208
vn 0.080309 -0.191470 -0.978207
vn -0.233475 0.037900 -0.971624
vn -0.233475 0.037899 -0.971624
vn -0.233475 0.037899 -0.971624
vn -0.159553 -0.143019 -0.976775
vn -0.159553 -0.143019 -0.976775
vn -0.159553 -0.143019 -0.976775
vn -0.025963 0.262375 -0.964617
vn -0.025963 0.262375 -0.964617
vn -0.025963 0.262375 -0.964617
vn -0.220487 0.106788 -0.969527
vn -0.220487 0.106788 -0.969527
vn -0.220487 0.106788 -0.969527
vn 0.218821 0.106380 -0.969949
vn 0.218821 0.106380 -0.969949
vn 0.218821 0.106380 -0.969949
vn 0.026592 0.262076 -0.964681
vn 0.026592 0.262076 -0.964681
vn 0.026592 0.262076 -0.964681
vn 0.158905 -0.142182 -0.977002
vn 0.158905 -0.142182 -0.977002
vn 0.158905 -0.142182 -0.977002
s off
f 1/9/1 2/10/2 10/19/3 9/18/4
f 2/10/5 3/11/6 11/20/7 10/19/8
f 3/11/9 4/12/10 12/21/11 11/20/12
f 4/12/13 5/13/14 13/22/15 12/21/16
f 5/13/17 6/14/18 14/23/19 13/22/20
f 6/14/21 7/15/22 15/24/23 14/23/24
f 7/15/25 8/16/26 16/25/27 15/24/28
f 8/16/29 1/17/30 9/26/31 16/25/32
f 34/35/33 33/36/34 35/69/35
f 36/70/36 34/35/37 35/69/38
f 37/71/39 36/70/40 35/69/41
f 38/72/42 37/71/43 35/69/44
f 39/73/45 38/72/46 35/69/47
f 40/74/48 39/73/49 35/69/50
f 41/75/51 40/74/52 35/69/53
f 33/36/54 41/75/55 35/69/56
f 42/76/57 43/77/58 44/78/59
f 43/77/60 45/79/61 44/78/62
f 45/79/63 46/80/64 44/78/65
f 46/80/66 47/81/67 44/78/68
f 47/81/69 48/82/70 44/78/71
f 48/82/72 49/83/73 44/78/74
f 49/83/75 50/84/76 44/78/77
f 50/84/78 42/76/79 44/78/80
f 2/2/81 1/1/82 17/38/83 18/37/84
f 3/3/85 2/2/86 18/37/87 19/39/88
f 4/4/89 3/3/90 19/39/91 20/40/92
f 5/5/93 4/4/94 20/40/95 21/41/96
f 6/6/97 5/5/98 21/41/99 22/42/100
f 7/7/101 6/6/102 22/42/103 23/43/104
f 8/8/105 7/7/106 23/43/107 24/44/108
f 1/1/109 8/8/110 24/44/111 17/38/112
f 9/33/113 10/32/114 26/46/115 25/45/116
f 10/32/117 11/31/118 27/47/119 26/46/120
f 11/31/121 12/30/122 28/48/123 27/47/124
f 12/30/125 13/29/126 29/49/127 28/48/128
f 13/29/129 14/28/130 30/50/131 29/49/132
f 14/28/133 15/27/134 31/51/135 30/50/136
f 15/27/137 16/34/138 32/52/139 31/51/140
f 16/34/141 9/33/142 25/45/143 32/52/144
f 18/37/145 17/38/146 33/54/147 34/53/148
f 19/39/149 18/37/150 34/53/151 36/55/152
f 20/40/153 19/39/154 36/55/155 37/56/156
f 21/41/157 20/40/158 37/56/159 38/57/160
f 22/42/161 21/41/162 38/57/163 39/58/164
f 23/43/165 22/42/166 39/58/167 40/59/168
f 24/44/169 23/43/170 40/59/171 41/60/172
f 17/38/173 24/44/174 41/60/175 33/54/176
f 25/45/177 26/46/178 43/62/179 42/61/180
f 26/46/181 27/47/182 45/63/183 43/62/184
f 27/47/185 28/48/186 46/64/187 45/63/188
f 28/48/189 29/49/190 47/65/191 46/64/192
f 29/49/193 30/50/194 48/66/195 47/65/196
f 30/50/197 31/51/198 49/67/199 48/66/200
f 31/51/201 32/52/202 50/68/203 49/67/204
f 32/52/205 25/45/206 42/61/207 50/68/208
f 51/85/209 52/86/210 62/87/211 61/88/212
f 52/86/213 53/89/214 63/90/215 62/87/216
f 53/89/217 54/91/218 64/92/219 63/90/220
f 54/91/221 55/93/222 65/94/223 64/92/224
f 55/93/225 56/95/226 66/96/227 65/94/228
f 56/95/229 57/97/230 67/98/231 66/96/232
f 57/97/233 58/99/234 68/100/235 67/98/236
f 58/99/237 59/101/238 69/102/239 68/100/240
f 59/101/241 60/103/242 70/104/243 69/102/244
f 60/103/245 51/105/246 61/106/247 70/104/248
f 52/107/249 51/108/250 71/109/251
f 53/110/252 52/107/253 71/109/254
f 54/111/255 53/110/256 71/109/257
f 55/112/258 54/111/259 71/109/260
f 56/113/261 55/112/262 71/109/263
f 57/114/264 56/113/265 71/109/266
f 58/115/267 57/114/268 71/109/269
f 59/116/270 58/115/271 71/109/272
f 60/117/273 59/116/274 71/109/275
f 51/108/276 60/117/277 71/109/278
f 61/118/279 62/119/280 72/120/281
f 62/119/282 63/121/283 72/120/284
f 63/121/285 64/122/286 72/120/287
f 64/122/288 65/123/289 72/120/290
f 65/123/291 66/124/292 72/120/293
f 66/124/294 67/125/295 72/120/296
f 67/125/297 68/126/298 72/120/299
f 68/126/300 69/127/301 72/120/302
f 69/127/303 70/128/304 72/120/305
f 70/128/306 61/118/307 72/120/308
