# This file uses meters as units for non-parametric coordinates.

v 50.346531 0.000000 -50.346519
v -50.346523 0.000000 -50.346531
v -50.346527 0.000000 50.346523
v 50.346527 0.000000 50.346527
v 0.000000 100.000008 0.000000
vt 0.248092 0.303113
vt 0.248092 0.303113
vt 0.248092 0.303113
vt 0.248092 0.303113
vt 0.248092 0.303113
vt 0.248092 0.303113
vt 0.248092 0.303113
vt 0.248092 0.303113
vt 0.248092 0.303113
vt 0.248092 0.303113
vn 0.000000 -1.000000 0.000000
vn 0.000000 -1.000000 0.000000
vn 0.000000 -1.000000 0.000000
vn 0.000000 -1.000000 0.000000
vn 0.000000 0.449688 -0.893186
vn 0.000000 0.449688 -0.893186
vn 0.000000 0.449688 -0.893186
vn -0.893186 0.449688 -0.000000
vn -0.893186 0.449688 -0.000000
vn -0.893186 0.449688 -0.000000
vn -0.000000 0.449688 0.893186
vn -0.000000 0.449688 0.893186
vn -0.000000 0.449688 0.893186
vn 0.893186 0.449688 0.000000
vn 0.893186 0.449688 0.000000
vn 0.893186 0.449688 0.000000
s off
f 1/1/1 4/4/2 3/3/3 2/2/4
f 1/5/5 2/6/6 5/10/7
f 2/6/8 3/7/9 5/10/10
f 3/7/11 4/8/12 5/10/13
f 4/8/14 1/9/15 5/10/16
