# This file uses meters as units for non-parametric coordinates.

v -32.218018 0.000000 32.218018
v 32.218018 0.000000 32.218018
v -32.218018 6.838767 32.218018
v 32.218018 6.838767 32.218018
v -32.218018 6.838767 -32.218018
v 32.218018 6.838767 -32.218018
v -32.218018 0.000000 -32.218018
v 32.218018 0.000000 -32.218018
v -4.795516 6.838767 4.795516
v 4.795516 6.838767 4.795516
v 4.795516 6.838767 -4.795516
v -4.795516 6.838767 -4.795516
v -4.795516 125.516983 4.795516
v 4.795516 125.516983 4.795516
v 4.795516 125.516983 -4.795516
v -4.795516 125.516983 -4.795516
vt 0.080238 0.255033
vt 0.080238 0.255033
vt 0.080238 0.255033
vt 0.080238 0.255033
vt 0.080238 0.255033
vt 0.080238 0.255033
vt 0.080238 0.255033
vt 0.080238 0.255033
vt 0.080238 0.255033
vt 0.080238 0.255033
vt 0.080238 0.255033
vt 0.080238 0.255033
vt 0.080238 0.255033
vt 0.080238 0.255033
vt 0.080238 0.255033
vt 0.080238 0.255033
vt 0.080238 0.255033
vt 0.080238 0.255033
vt 0.080940 0.351330
vt 0.080940 0.351330
vt 0.080940 0.351330
vt 0.080940 0.351330
vt 0.080940 0.351330
vt 0.080940 0.351330
vt 0.080940 0.351330
vt 0.080940 0.351330
vn 0.000000 0.000000 1.000000
vn 0.000000 0.000000 1.000000
vn 0.000000 0.000000 1.000000
vn 0.000000 0.000000 1.000000
vn 0.000000 1.000000 0.000000
vn 0.000000 1.000000 0.000000
vn 0.000000 1.000000 0.000000
vn 0.000000 1.000000 0.000000
vn 0.000000 0.000000 -1.000000
vn 0.000000 0.000000 -1.000000
vn 0.000000 0.000000 -1.000000
vn 0.000000 0.000000 -1.000000
vn 0.000000 -1.000000 0.000000
vn 0.000000 -1.000000 0.000000
vn 0.000000 -1.000000 0.000000
vn 0.000000 -1.000000 0.000000
vn 1.000000 0.000000 0.000000
vn 1.000000 0.000000 0.000000
vn 1.000000 0.000000 0.000000
vn 1.000000 0.000000 0.000000
vn -1.000000 0.000000 0.000000
vn -1.000000 0.000000 0.000000
vn -1.000000 0.000000 0.000000
vn -1.000000 0.000000 0.000000
vn 0.000000 1.000000 0.000000
vn 0.000000 1.000000 0.000000
vn 0.000000 1.000000 0.000000
vn 0.000000 1.000000 0.000000
vn 0.000000 1.000000 0.000000
vn 0.000000 1.000000 0.000000
vn 0.000000 1.000000 0.000000
vn 0.000000 1.000000 0.000000
vn 0.000000 1.000000 -0.000000
vn 0.000000 1.000000 -0.000000
vn 0.000000 1.000000 -0.000000
vn 0.000000 1.000000 -0.000000
vn 0.000000 1.000000 0.000000
vn 0.000000 1.000000 0.000000
vn 0.000000 1.000000 0.000000
vn 0.000000 1.000000 0.000000
vn 0.000000 0.000000 1.000000
vn 0.000000 0.000000 1.000000
vn 0.000000 0.000000 1.000000
vn 0.000000 0.000000 1.000000
vn 1.000000 0.000000 0.000000
vn 1.000000 0.000000 0.000000
vn 1.000000 0.000000 0.000000
vn 1.000000 0.000000 0.000000
vn 0.000000 0.000000 -1.000000
vn 0.000000 0.000000 -1.000000
vn 0.000000 0.000000 -1.000000
vn 0.000000 0.000000 -1.000000
vn -1.000000 0.000000 0.000000
vn -1.000000 0.000000 0.000000
vn -1.000000 0.000000 0.000000
vn -1.000000 0.000000 0.000000
s off
f 1/1/1 2/2/2 4/4/3 3/3/4
f 13/19/5 14/20/6 15/21/7 16/22/8
f 5/5/9 6/6/10 8/8/11 7/7/12
f 7/7/13 8/8/14 2/10/15 1/9/16
f 2/2/17 8/11/18 6/12/19 4/4/20
f 7/13/21 1/1/22 3/3/23 5/14/24
f 3/3/25 4/4/26 10/16/27 9/15/28
f 4/4/29 6/6/30 11/17/31 10/16/32
f 6/6/33 5/5/34 12/18/35 11/17/36
f 5/5/37 3/3/38 9/15/39 12/18/40
f 9/23/41 10/24/42 14/20/43 13/19/44
f 10/24/45 11/25/46 15/21/47 14/20/48
f 11/25/49 12/26/50 16/22/51 15/21/52
f 12/26/53 9/23/54 13/19/55 16/22/56
