# This file uses meters as units for non-parametric coordinates.

v 45.000000 -50.000000 -0.000001
v 43.177185 -50.000000 -12.677967
v 37.856411 -50.000000 -24.328842
v 29.468731 -50.000000 -34.008736
v 18.693674 -50.000000 -40.933449
v 6.404162 -50.000000 -44.541973
v -6.404176 -50.000000 -44.541969
v -18.693687 -50.000000 -40.933445
v -29.468746 -50.000000 -34.008732
v -37.856422 -50.000000 -24.328827
v -43.177193 -50.000000 -12.677953
v -45.000011 -50.000000 0.000017
v -43.177185 -50.000000 12.677985
v -37.856403 -50.000000 24.328859
v -29.468723 -50.000000 34.008751
v -18.693657 -50.000000 40.933456
v -6.404141 -50.000000 44.541977
v 6.404199 -50.000000 44.541973
v 18.693712 -50.000000 40.933437
v 29.468767 -50.000000 34.008724
v 37.856441 -50.000000 24.328819
v 43.177212 -50.000000 12.677939
v 45.000000 50.000000 -0.000001
v 43.177185 50.000000 -12.677967
v 37.856411 50.000000 -24.328842
v 29.468731 50.000000 -34.008736
v 18.693674 50.000000 -40.933449
v 6.404162 50.000000 -44.541973
v -6.404176 50.000000 -44.541969
v -18.693687 50.000000 -40.933445
v -29.468746 50.000000 -34.008732
v -37.856422 50.000000 -24.328827
v -43.177193 50.000000 -12.677953
v -45.000011 50.000000 0.000017
v -43.177185 50.000000 12.677985
v -37.856403 50.000000 24.328859
v -29.468723 50.000000 34.008751
v -18.693657 50.000000 40.933456
v -6.404141 50.000000 44.541977
v 6.404199 50.000000 44.541973
v 18.693712 50.000000 40.933437
v 29.468767 50.000000 34.008724
v 37.856441 50.000000 24.328819
v 43.177212 50.000000 12.677939
v 50.000004 50.000000 -0.000001
v 47.974651 50.000000 -14.086630
v 42.062679 50.000000 -27.032047
v 32.743038 50.000000 -37.787483
v 20.770750 50.000000 -45.481606
v 7.115738 50.000000 -49.491081
v -7.115747 50.000000 -49.491077
v -20.770760 50.000000 -45.481602
v -32.743046 50.000000 -37.787479
v -42.062683 50.000000 -27.032034
v -47.974651 50.000000 -14.086617
v -50.000000 50.000000 0.000016
v -47.974648 50.000000 14.086647
v -42.062672 50.000000 27.032061
v -32.743019 50.000000 37.787495
v -20.770725 50.000000 45.481617
v -7.115713 50.000000 49.491077
v 7.115774 50.000000 49.491074
v 20.770781 50.000000 45.481586
v 32.743065 50.000000 37.787457
v 42.062698 50.000000 27.032015
v 47.974667 50.000000 14.086599
v 50.000004 -50.000000 -0.000001
v 47.974651 -50.000000 -14.086630
v 42.062679 -50.000000 -27.032047
v 32.743038 -50.000000 -37.787483
v 20.770750 -50.000000 -45.481606
v 7.115738 -50.000000 -49.491081
v -7.115747 -50.000000 -49.491077
v -20.770760 -50.000000 -45.481602
v -32.743046 -50.000000 -37.787479
v -42.062683 -50.000000 -27.032034
v -47.974651 -50.000000 -14.086617
v -50.000000 -50.000000 0.000016
v -47.974648 -50.000000 14.086647
v -42.062672 -50.000000 27.032061
v -32.743019 -50.000000 37.787495
v -20.770725 -50.000000 45.481617
v -7.115713 -50.000000 49.491077
v 7.115774 -50.000000 49.491074
v 20.770781 -50.000000 45.481586
v 32.743065 -50.000000 37.787457
v 42.062698 -50.000000 27.032015
v 47.974667 -50.000000 14.086599
vt 0.248092 0.303113
vt 0.248092 0.303113
vt 0.248092 0.303113
vt 0.248092 0.303113
vt 0.248092 0.303113
vt 0.248092 0.303113
vt 0.248092 0.303113
vt 0.248092 0.303113
vt 0.248092 0.303113
vt 0.248092 0.303113
vt 0.248092 0.303113
vt 0.248092 0.303113
vt 0.248092 0.303113
vt 0.248092 0.303113
vt 0.248092 0.303113
vt 0.248092 0.303113
vt 0.248092 0.303113
vt 0.248092 0.303113
vt 0.248092 0.303113
vt 0.248092 0.303113
vt 0.248092 0.303113
vt 0.248092 0.303113
vt 0.248092 0.303113
vt 0.248092 0.303113
vt 0.248092 0.303113
vt 0.248092 0.303113
vt 0.248092 0.303113
vt 0.248092 0.303113
vt 0.248092 0.303113
vt 0.248092 0.303113
vt 0.248092 0.303113
vt 0.248092 0.303113
vt 0.248092 0.303113
vt 0.248092 0.303113
vt 0.248092 0.303113
vt 0.248092 0.303113
vt 0.248092 0.303113
vt 0.248092 0.303113
vt 0.248092 0.303113
vt 0.248092 0.303113
vt 0.248092 0.303113
vt 0.248092 0.303113
vt 0.248092 0.303113
vt 0.248092 0.303113
vt 0.248092 0.303113
vt 0.248092 0.303113
vt 0.248092 0.303113
vt 0.248092 0.303113
vt 0.248092 0.303113
vt 0.248092 0.303113
vt 0.248092 0.303113
vt 0.248092 0.303113
vt 0.248092 0.303113
vt 0.248092 0.303113
vt 0.248092 0.303113
vt 0.248092 0.303113
vt 0.248092 0.303113
vt 0.248092 0.303113
vt 0.248092 0.303113
vt 0.248092 0.303113
vt 0.248092 0.303113
vt 0.248092 0.303113
vt 0.248092 0.303113
vt 0.248092 0.303113
vt 0.248092 0.303113
vt 0.248092 0.303113
vt 0.248092 0.303113
vt 0.248092 0.303113
vt 0.248092 0.303113
vt 0.248092 0.303113
vt 0.248092 0.303113
vt 0.248092 0.303113
vt 0.248092 0.303113
vt 0.248092 0.303113
vt 0.248092 0.303113
vt 0.248092 0.303113
vt 0.248092 0.303113
vt 0.248092 0.303113
vt 0.248092 0.303113
vt 0.248092 0.303113
vt 0.248092 0.303113
vt 0.248092 0.303113
vt 0.248092 0.303113
vt 0.248092 0.303113
vt 0.248092 0.303113
vt 0.248092 0.303113
vt 0.248092 0.303113
vt 0.248092 0.303113
vt 0.248092 0.303113
vt 0.248092 0.303113
vt 0.248092 0.303113
vt 0.248092 0.303113
vt 0.248092 0.303113
vt 0.248092 0.303113
vt 0.248092 0.303113
vt 0.248092 0.303113
vt 0.248092 0.303113
vt 0.248092 0.303113
vt 0.248092 0.303113
vt 0.248092 0.303113
vt 0.248092 0.303113
vt 0.248092 0.303113
vt 0.248092 0.303113
vt 0.248092 0.303113
vt 0.248092 0.303113
vt 0.248092 0.303113
vt 0.248092 0.303113
vt 0.248092 0.303113
vt 0.248092 0.303113
vt 0.248092 0.303113
vt 0.248092 0.303113
vt 0.248092 0.303113
vt 0.248092 0.303113
vt 0.248092 0.303113
vt 0.248092 0.303113
vn -0.989821 0.000000 0.142315
vn -0.989821 0.000000 0.142315
vn -0.989821 0.000000 0.142315
vn -0.989821 0.000000 0.142315
vn -0.909632 0.000000 0.415415
vn -0.909632 0.000000 0.415415
vn -0.909632 0.000000 0.415415
vn -0.909632 0.000000 0.415415
vn -0.755749 0.000000 0.654861
vn -0.755749 0.000000 0.654861
vn -0.755749 0.000000 0.654861
vn -0.755749 0.000000 0.654861
vn -0.540641 0.000000 0.841253
vn -0.540641 0.000000 0.841253
vn -0.540641 0.000000 0.841253
vn -0.540641 0.000000 0.841253
vn -0.281732 0.000000 0.959493
vn -0.281732 0.000000 0.959493
vn -0.281732 0.000000 0.959493
vn -0.281732 0.000000 0.959493
vn 0.000000 0.000000 1.000000
vn 0.000000 0.000000 1.000000
vn 0.000000 0.000000 1.000000
vn 0.000000 0.000000 1.000000
vn 0.281732 0.000000 0.959493
vn 0.281732 0.000000 0.959493
vn 0.281732 0.000000 0.959493
vn 0.281732 0.000000 0.959493
vn 0.540641 0.000000 0.841253
vn 0.540641 0.000000 0.841253
vn 0.540641 0.000000 0.841253
vn 0.540641 0.000000 0.841253
vn 0.755750 0.000000 0.654860
vn 0.755750 0.000000 0.654860
vn 0.755750 0.000000 0.654860
vn 0.755750 0.000000 0.654860
vn 0.909632 0.000000 0.415415
vn 0.909632 0.000000 0.415415
vn 0.909632 0.000000 0.415415
vn 0.909632 0.000000 0.415415
vn 0.989821 0.000000 0.142315
vn 0.989821 0.000000 0.142315
vn 0.989821 0.000000 0.142315
vn 0.989821 0.000000 0.142315
vn 0.989821 0.000000 -0.142316
vn 0.989821 0.000000 -0.142316
vn 0.989821 0.000000 -0.142316
vn 0.989821 0.000000 -0.142316
vn 0.909632 0.000000 -0.415415
vn 0.909632 0.000000 -0.415415
vn 0.909632 0.000000 -0.415415
vn 0.909632 0.000000 -0.415415
vn 0.755749 0.000000 -0.654861
vn 0.755749 0.000000 -0.654861
vn 0.755749 0.000000 -0.654861
vn 0.755749 0.000000 -0.654861
vn 0.540640 0.000000 -0.841254
vn 0.540640 0.000000 -0.841254
vn 0.540640 0.000000 -0.841254
vn 0.540640 0.000000 -0.841254
vn 0.281732 0.000000 -0.959493
vn 0.281732 0.000000 -0.959493
vn 0.281732 0.000000 -0.959493
vn 0.281732 0.000000 -0.959493
vn -0.000000 0.000000 -1.000000
vn -0.000000 0.000000 -1.000000
vn -0.000000 0.000000 -1.000000
vn -0.000000 0.000000 -1.000000
vn -0.281733 0.000000 -0.959493
vn -0.281733 0.000000 -0.959493
vn -0.281733 0.000000 -0.959493
vn -0.281733 0.000000 -0.959493
vn -0.540641 0.000000 -0.841253
vn -0.540641 0.000000 -0.841253
vn -0.540641 0.000000 -0.841253
vn -0.540641 0.000000 -0.841253
vn -0.755750 0.000000 -0.654860
vn -0.755750 0.000000 -0.654860
vn -0.755750 0.000000 -0.654860
vn -0.755750 0.000000 -0.654860
vn -0.909632 0.000000 -0.415415
vn -0.909632 0.000000 -0.415415
vn -0.909632 0.000000 -0.415415
vn -0.909632 0.000000 -0.415415
vn -0.989822 0.000000 -0.142313
vn -0.989822 0.000000 -0.142313
vn -0.989822 0.000000 -0.142313
vn -0.989822 0.000000 -0.142313
vn 0.000000 1.000000 0.000000
vn 0.000000 1.000000 0.000000
vn 0.000000 1.000000 0.000000
vn 0.000000 1.000000 0.000000
vn 0.000000 1.000000 0.000000
vn 0.000000 1.000000 0.000000
vn 0.000000 1.000000 0.000000
vn 0.000000 1.000000 0.000000
vn 0.000000 1.000000 0.000000
vn 0.000000 1.000000 0.000000
vn 0.000000 1.000000 0.000000
vn 0.000000 1.000000 0.000000
vn 0.000000 1.000000 -0.000001
vn 0.000000 1.000000 -0.000001
vn 0.000000 1.000000 -0.000001
vn 0.000000 1.000000 -0.000001
vn 0.000000 1.000000 0.000000
vn 0.000000 1.000000 0.000000
vn 0.000000 1.000000 0.000000
vn 0.000000 1.000000 0.000000
vn 0.000000 1.000000 -0.000000
vn 0.000000 1.000000 -0.000000
vn 0.000000 1.000000 -0.000000
vn 0.000000 1.000000 -0.000000
vn 0.000000 1.000000 0.000000
vn 0.000000 1.000000 0.000000
vn 0.000000 1.000000 0.000000
vn 0.000000 1.000000 0.000000
vn 0.000000 1.000000 0.000000
vn 0.000000 1.000000 0.000000
vn 0.000000 1.000000 0.000000
vn 0.000000 1.000000 0.000000
vn 0.000000 1.000000 0.000000
vn 0.000000 1.000000 0.000000
vn 0.000000 1.000000 0.000000
vn 0.000000 1.000000 0.000000
vn 0.000000 1.000000 0.000000
vn 0.000000 1.000000 0.000000
vn 0.000000 1.000000 0.000000
vn 0.000000 1.000000 0.000000
vn 0.000000 1.000000 0.000000
vn 0.000000 1.000000 0.000000
vn 0.000000 1.000000 0.000000
vn 0.000000 1.000000 0.000000
vn 0.000000 1.000000 0.000000
vn 0.000000 1.000000 0.000000
vn 0.000000 1.000000 0.000000
vn 0.000000 1.000000 0.000000
vn 0.000000 1.000000 0.000000
vn 0.000000 1.000000 0.000000
vn 0.000000 1.000000 0.000000
vn 0.000000 1.000000 0.000000
vn 0.000000 1.000000 -0.000000
vn 0.000000 1.000000 -0.000000
vn 0.000000 1.000000 -0.000000
vn 0.000000 1.000000 -0.000000
vn 0.000000 1.000000 -0.000000
vn 0.000000 1.000000 -0.000000
vn 0.000000 1.000000 -0.000000
vn 0.000000 1.000000 -0.000000
vn 0.000000 1.000000 0.000000
vn 0.000000 1.000000 0.000000
vn 0.000000 1.000000 0.000000
vn 0.000000 1.000000 0.000000
vn 0.000000 1.000000 0.000000
vn 0.000000 1.000000 0.000000
vn 0.000000 1.000000 0.000000
vn 0.000000 1.000000 0.000000
vn 0.000000 1.000000 0.000000
vn 0.000000 1.000000 0.000000
vn 0.000000 1.000000 0.000000
vn 0.000000 1.000000 0.000000
vn 0.000000 1.000000 0.000000
vn 0.000000 1.000000 0.000000
vn 0.000000 1.000000 0.000000
vn 0.000000 1.000000 0.000000
vn 0.000000 1.000000 -0.000000
vn 0.000000 1.000000 -0.000000
vn 0.000000 1.000000 -0.000000
vn 0.000000 1.000000 -0.000000
vn 0.000000 1.000000 0.000000
vn 0.000000 1.000000 0.000000
vn 0.000000 1.000000 0.000000
vn 0.000000 1.000000 0.000000
vn 0.000000 1.000000 -0.000000
vn 0.000000 1.000000 -0.000000
vn 0.000000 1.000000 -0.000000
vn 0.000000 1.000000 -0.000000
vn 0.989821 0.000000 -0.142315
vn 0.989821 0.000000 -0.142315
vn 0.989821 0.000000 -0.142315
vn 0.989821 0.000000 -0.142315
vn 0.909632 0.000000 -0.415415
vn 0.909632 0.000000 -0.415415
vn 0.909632 0.000000 -0.415415
vn 0.909632 0.000000 -0.415415
vn 0.755749 0.000000 -0.654861
vn 0.755749 0.000000 -0.654861
vn 0.755749 0.000000 -0.654861
vn 0.755749 0.000000 -0.654861
vn 0.540641 0.000000 -0.841254
vn 0.540641 0.000000 -0.841254
vn 0.540641 0.000000 -0.841254
vn 0.540641 0.000000 -0.841254
vn 0.281733 0.000000 -0.959493
vn 0.281733 0.000000 -0.959493
vn 0.281733 0.000000 -0.959493
vn 0.281733 0.000000 -0.959493
vn 0.000000 0.000000 -1.000000
vn 0.000000 0.000000 -1.000000
vn 0.000000 0.000000 -1.000000
vn 0.000000 0.000000 -1.000000
vn -0.281733 0.000000 -0.959493
vn -0.281733 0.000000 -0.959493
vn -0.281733 0.000000 -0.959493
vn -0.281733 0.000000 -0.959493
vn -0.540641 0.000000 -0.841254
vn -0.540641 0.000000 -0.841254
vn -0.540641 0.000000 -0.841254
vn -0.540641 0.000000 -0.841254
vn -0.755750 0.000000 -0.654860
vn -0.755750 0.000000 -0.654860
vn -0.755750 0.000000 -0.654860
vn -0.755750 0.000000 -0.654860
vn -0.909632 0.000000 -0.415415
vn -0.909632 0.000000 -0.415415
vn -0.909632 0.000000 -0.415415
vn -0.909632 0.000000 -0.415415
vn -0.989822 0.000000 -0.142315
vn -0.989822 0.000000 -0.142315
vn -0.989822 0.000000 -0.142315
vn -0.989822 0.000000 -0.142315
vn -0.989821 0.000000 0.142315
vn -0.989821 0.000000 0.142315
vn -0.989821 0.000000 0.142315
vn -0.989821 0.000000 0.142315
vn -0.909632 0.000000 0.415415
vn -0.909632 0.000000 0.415415
vn -0.909632 0.000000 0.415415
vn -0.909632 0.000000 0.415415
vn -0.755749 0.000000 0.654861
vn -0.755749 0.000000 0.654861
vn -0.755749 0.000000 0.654861
vn -0.755749 0.000000 0.654861
vn -0.540641 0.000000 0.841254
vn -0.540641 0.000000 0.841254
vn -0.540641 0.000000 0.841254
vn -0.540641 0.000000 0.841254
vn -0.281732 0.000000 0.959493
vn -0.281732 0.000000 0.959493
vn -0.281732 0.000000 0.959493
vn -0.281732 0.000000 0.959493
vn 0.000000 0.000000 1.000000
vn 0.000000 0.000000 1.000000
vn 0.000000 0.000000 1.000000
vn 0.000000 0.000000 1.000000
vn 0.281734 0.000000 0.959493
vn 0.281734 0.000000 0.959493
vn 0.281734 0.000000 0.959493
vn 0.281734 0.000000 0.959493
vn 0.540641 0.000000 0.841253
vn 0.540641 0.000000 0.841253
vn 0.540641 0.000000 0.841253
vn 0.540641 0.000000 0.841253
vn 0.755750 0.000000 0.654860
vn 0.755750 0.000000 0.654860
vn 0.755750 0.000000 0.654860
vn 0.755750 0.000000 0.654860
vn 0.909632 0.000000 0.415415
vn 0.909632 0.000000 0.415415
vn 0.909632 0.000000 0.415415
vn 0.909632 0.000000 0.415415
vn 0.989822 0.000000 0.142314
vn 0.989822 0.000000 0.142314
vn 0.989822 0.000000 0.142314
vn 0.989822 0.000000 0.142314
vn 0.000000 -1.000000 0.000000
vn 0.000000 -1.000000 0.000000
vn 0.000000 -1.000000 0.000000
vn 0.000000 -1.000000 0.000000
vn 0.000000 -1.000000 0.000000
vn 0.000000 -1.000000 0.000000
vn 0.000000 -1.000000 0.000000
vn 0.000000 -1.000000 0.000000
vn 0.000000 -1.000000 0.000000
vn 0.000000 -1.000000 0.000000
vn 0.000000 -1.000000 0.000000
vn 0.000000 -1.000000 0.000000
vn 0.000000 -1.000000 -0.000001
vn 0.000000 -1.000000 -0.000001
vn 0.000000 -1.000000 -0.000001
vn 0.000000 -1.000000 -0.000001
vn 0.000000 -1.000000 0.000000
vn 0.000000 -1.000000 0.000000
vn 0.000000 -1.000000 0.000000
vn 0.000000 -1.000000 0.000000
vn 0.000000 -1.000000 -0.000000
vn 0.000000 -1.000000 -0.000000
vn 0.000000 -1.000000 -0.000000
vn 0.000000 -1.000000 -0.000000
vn 0.000000 -1.000000 0.000000
vn 0.000000 -1.000000 0.000000
vn 0.000000 -1.000000 0.000000
vn 0.000000 -1.000000 0.000000
vn 0.000000 -1.000000 -0.000000
vn 0.000000 -1.000000 -0.000000
vn 0.000000 -1.000000 -0.000000
vn 0.000000 -1.000000 -0.000000
vn 0.000000 -1.000000 -0.000000
vn 0.000000 -1.000000 -0.000000
vn 0.000000 -1.000000 -0.000000
vn 0.000000 -1.000000 -0.000000
vn 0.000000 -1.000000 0.000000
vn 0.000000 -1.000000 0.000000
vn 0.000000 -1.000000 0.000000
vn 0.000000 -1.000000 0.000000
vn 0.000000 -1.000000 0.000000
vn 0.000000 -1.000000 0.000000
vn 0.000000 -1.000000 0.000000
vn 0.000000 -1.000000 0.000000
vn 0.000000 -1.000000 -0.000000
vn 0.000000 -1.000000 -0.000000
vn 0.000000 -1.000000 -0.000000
vn 0.000000 -1.000000 -0.000000
vn 0.000000 -1.000000 0.000000
vn 0.000000 -1.000000 0.000000
vn 0.000000 -1.000000 0.000000
vn 0.000000 -1.000000 0.000000
vn 0.000000 -1.000000 0.000000
vn 0.000000 -1.000000 0.000000
vn 0.000000 -1.000000 0.000000
vn 0.000000 -1.000000 0.000000
vn 0.000000 -1.000000 -0.000000
vn 0.000000 -1.000000 -0.000000
vn 0.000000 -1.000000 -0.000000
vn 0.000000 -1.000000 -0.000000
vn 0.000000 -1.000000 0.000000
vn 0.000000 -1.000000 0.000000
vn 0.000000 -1.000000 0.000000
vn 0.000000 -1.000000 0.000000
vn 0.000000 -1.000000 0.000000
vn 0.000000 -1.000000 0.000000
vn 0.000000 -1.000000 0.000000
vn 0.000000 -1.000000 0.000000
vn 0.000000 -1.000000 0.000000
vn 0.000000 -1.000000 0.000000
vn 0.000000 -1.000000 0.000000
vn 0.000000 -1.000000 0.000000
vn 0.000000 -1.000000 0.000001
vn 0.000000 -1.000000 0.000001
vn 0.000000 -1.000000 0.000001
vn 0.000000 -1.000000 0.000001
vn 0.000000 -1.000000 -0.000000
vn 0.000000 -1.000000 -0.000000
vn 0.000000 -1.000000 -0.000000
vn 0.000000 -1.000000 -0.000000
vn 0.000000 -1.000000 0.000000
vn 0.000000 -1.000000 0.000000
vn 0.000000 -1.000000 0.000000
vn 0.000000 -1.000000 0.000000
vn 0.000000 -1.000000 0.000000
vn 0.000000 -1.000000 0.000000
vn 0.000000 -1.000000 0.000000
vn 0.000000 -1.000000 0.000000
s off
f 2/2/1 1/1/2 23/24/3 24/25/4
f 3/3/5 2/2/6 24/25/7 25/26/8
f 4/4/9 3/3/10 25/26/11 26/27/12
f 5/5/13 4/4/14 26/27/15 27/28/16
f 6/6/17 5/5/18 27/28/19 28/29/20
f 7/7/21 6/6/22 28/29/23 29/30/24
f 8/8/25 7/7/26 29/30/27 30/31/28
f 9/9/29 8/8/30 30/31/31 31/32/32
f 10/10/33 9/9/34 31/32/35 32/33/36
f 11/11/37 10/10/38 32/33/39 33/34/40
f 12/12/41 11/11/42 33/34/43 34/35/44
f 13/13/45 12/12/46 34/35/47 35/36/48
f 14/14/49 13/13/50 35/36/51 36/37/52
f 15/15/53 14/14/54 36/37/55 37/38/56
f 16/16/57 15/15/58 37/38/59 38/39/60
f 17/17/61 16/16/62 38/39/63 39/40/64
f 18/18/65 17/17/66 39/40/67 40/41/68
f 19/19/69 18/18/70 40/41/71 41/42/72
f 20/20/73 19/19/74 41/42/75 42/43/76
f 21/21/77 20/20/78 42/43/79 43/44/80
f 22/22/81 21/21/82 43/44/83 44/45/84
f 1/23/85 22/22/86 44/45/87 23/46/88
f 24/25/89 23/24/90 45/47/91 46/48/92
f 25/26/93 24/25/94 46/48/95 47/49/96
f 26/27/97 25/26/98 47/49/99 48/50/100
f 27/28/101 26/27/102 48/50/103 49/51/104
f 28/29/105 27/28/106 49/51/107 50/52/108
f 29/30/109 28/29/110 50/52/111 51/53/112
f 30/31/113 29/30/114 51/53/115 52/54/116
f 31/32/117 30/31/118 52/54/119 53/55/120
f 32/33/121 31/32/122 53/55/123 54/56/124
f 33/34/125 32/33/126 54/56/127 55/57/128
f 34/35/129 33/34/130 55/57/131 56/58/132
f 35/36/133 34/35/134 56/58/135 57/59/136
f 36/37/137 35/36/138 57/59/139 58/60/140
f 37/38/141 36/37/142 58/60/143 59/61/144
f 38/39/145 37/38/146 59/61/147 60/62/148
f 39/40/149 38/39/150 60/62/151 61/63/152
f 40/41/153 39/40/154 61/63/155 62/64/156
f 41/42/157 40/41/158 62/64/159 63/65/160
f 42/43/161 41/42/162 63/65/163 64/66/164
f 43/44/165 42/43/166 64/66/167 65/67/168
f 44/45/169 43/44/170 65/67/171 66/68/172
f 23/46/173 44/45/174 66/68/175 45/69/176
f 46/48/177 45/47/178 67/70/179 68/71/180
f 47/49/181 46/48/182 68/71/183 69/72/184
f 48/50/185 47/49/186 69/72/187 70/73/188
f 49/51/189 48/50/190 70/73/191 71/74/192
f 50/52/193 49/51/194 71/74/195 72/75/196
f 51/53/197 50/52/198 72/75/199 73/76/200
f 52/54/201 51/53/202 73/76/203 74/77/204
f 53/55/205 52/54/206 74/77/207 75/78/208
f 54/56/209 53/55/210 75/78/211 76/79/212
f 55/57/213 54/56/214 76/79/215 77/80/216
f 56/58/217 55/57/218 77/80/219 78/81/220
f 57/59/221 56/58/222 78/81/223 79/82/224
f 58/60/225 57/59/226 79/82/227 80/83/228
f 59/61/229 58/60/230 80/83/231 81/84/232
f 60/62/233 59/61/234 81/84/235 82/85/236
f 61/63/237 60/62/238 82/85/239 83/86/240
f 62/64/241 61/63/242 83/86/243 84/87/244
f 63/65/245 62/64/246 84/87/247 85/88/248
f 64/66/249 63/65/250 85/88/251 86/89/252
f 65/67/253 64/66/254 86/89/255 87/90/256
f 66/68/257 65/67/258 87/90/259 88/91/260
f 45/69/261 66/68/262 88/91/263 67/92/264
f 68/71/265 67/70/266 1/93/267 2/94/268
f 69/72/269 68/71/270 2/94/271 3/95/272
f 70/73/273 69/72/274 3/95/275 4/96/276
f 71/74/277 70/73/278 4/96/279 5/97/280
f 72/75/281 71/74/282 5/97/283 6/98/284
f 73/76/285 72/75/286 6/98/287 7/99/288
f 74/77/289 73/76/290 7/99/291 8/100/292
f 75/78/293 74/77/294 8/100/295 9/101/296
f 76/79/297 75/78/298 9/101/299 10/102/300
f 77/80/301 76/79/302 10/102/303 11/103/304
f 78/81/305 77/80/306 11/103/307 12/104/308
f 79/82/309 78/81/310 12/104/311 13/105/312
f 80/83/313 79/82/314 13/105/315 14/106/316
f 81/84/317 80/83/318 14/106/319 15/107/320
f 82/85/321 81/84/322 15/107/323 16/108/324
f 83/86/325 82/85/326 16/108/327 17/109/328
f 84/87/329 83/86/330 17/109/331 18/110/332
f 85/88/333 84/87/334 18/110/335 19/111/336
f 86/89/337 85/88/338 19/111/339 20/112/340
f 87/90/341 86/89/342 20/112/343 21/113/344
f 88/91/345 87/90/346 21/113/347 22/114/348
f 67/92/349 88/91/350 22/114/351 1/115/352
