# This file uses meters as units for non-parametric coordinates.

v 2.354025 0.000000 -4.077292
v -2.354023 0.000000 -4.077293
v -4.708048 0.000000 -0.000004
v -2.354024 0.000000 4.077286
v 2.354024 0.000000 4.077286
v 4.708048 0.000000 -0.000003
v 1.186846 230.793777 -2.055680
v -1.186845 230.793777 -2.055680
v -2.373691 230.793777 -0.000004
v -1.186846 230.793777 2.055673
v 1.186845 230.793777 2.055673
v 2.373691 230.793777 -0.000003
v 0.000000 0.000000 -0.000003
v 0.000000 230.793777 -0.000003
v 0.000000 235.647064 0.000000
v 4.853285 230.793777 0.000000
v 0.000000 230.793777 -4.769413
v -4.853285 230.793777 0.000000
v 0.000000 230.793777 4.769413
v 0.000000 225.940491 0.000000
v 3.431788 234.225571 0.000000
v 0.000000 234.225571 -3.372484
v -3.431788 234.225571 0.000000
v 0.000000 234.225571 3.372485
v 3.431788 227.361984 0.000000
v 0.000000 227.361984 -3.372484
v -3.431788 227.361984 0.000000
v 0.000000 227.361984 3.372485
v 3.431788 230.793777 -3.372484
v -3.431788 230.793777 -3.372484
v -3.431788 230.793777 3.372485
v 3.431788 230.793777 3.372485
v 1.116169 190.831299 1.250142
v 54.654984 187.912766 1.250142
v 1.116169 226.577484 1.250142
v 54.654984 223.658966 1.250142
v 1.116169 226.577484 -1.250142
v 54.654984 223.658966 -1.250142
v 1.116169 190.831299 -1.250142
v 54.654984 187.912766 -1.250142
v 46.634705 225.483383 3.139413
v 46.634705 225.483383 0.639128
v 46.634705 189.737198 0.639128
v 46.634705 189.737198 3.139413
v 18.192133 225.483383 3.139413
v 18.192133 225.483383 0.639128
v 18.192133 189.737198 0.639128
v 18.192133 189.737198 3.139413
v 33.537247 226.577484 1.250142
v 33.537247 226.577484 -1.250142
v 33.537247 190.831299 -1.250142
v 33.537247 190.831299 1.250142
v 10.422710 226.577484 1.250142
v 10.422710 226.577484 -1.250142
v 10.422710 190.831299 -1.250142
v 10.422710 190.831299 1.250142
vt 0.090624 0.327717
vt 0.090624 0.327717
vt 0.090624 0.327717
vt 0.090624 0.327717
vt 0.090624 0.327717
vt 0.090624 0.327717
vt 0.090624 0.327717
vt 0.090624 0.327717
vt 0.090624 0.327717
vt 0.090624 0.327717
vt 0.090624 0.327717
vt 0.090624 0.327717
vt 0.090624 0.327717
vt 0.090624 0.327717
vt 0.090624 0.327717
vt 0.090624 0.327717
vt 0.090624 0.327717
vt 0.090624 0.327717
vt 0.090624 0.327717
vt 0.090624 0.327717
vt 0.090624 0.327717
vt 0.090624 0.327717
vt 0.090624 0.327717
vt 0.090624 0.327717
vt 0.090624 0.327717
vt 0.090624 0.327717
vt 0.090624 0.327717
vt 0.090624 0.327717
vt 0.090624 0.327717
vt 0.090624 0.327717
vt 0.090624 0.327717
vt 0.090624 0.327717
vt 0.090624 0.327717
vt 0.090624 0.327717
vt 0.090624 0.327717
vt 0.090624 0.327717
vt 0.090624 0.327717
vt 0.090624 0.327717
vt 0.090624 0.327717
vt 0.090624 0.327717
vt 0.090624 0.327717
vt 0.090624 0.327717
vt 0.090624 0.327717
vt 0.090624 0.327717
vt 0.090624 0.327717
vt 0.090624 0.327717
vt 0.244183 0.304615
vt 0.244183 0.304615
vt 0.244183 0.304615
vt 0.244183 0.304615
vt 0.244183 0.304615
vt 0.244183 0.304615
vt 0.244183 0.304615
vt 0.244183 0.304615
vt 0.244183 0.304615
vt 0.244183 0.304615
vt 0.244183 0.304615
vt 0.244183 0.304615
vt 0.244183 0.304615
vt 0.244183 0.304615
vt 0.244183 0.304615
vt 0.244183 0.304615
vt 0.244183 0.304615
vt 0.244183 0.304615
vt 0.244183 0.304615
vt 0.244183 0.304615
vt 0.244183 0.304615
vt 0.244183 0.304615
vt 0.244183 0.304615
vt 0.244183 0.304615
vt 0.244183 0.304615
vt 0.244183 0.304615
vt 0.244183 0.304615
vt 0.244183 0.304615
vt 0.244183 0.304615
vt 0.244183 0.304615
vt 0.244183 0.304615
vt 0.244183 0.304615
vt 0.244183 0.304615
vt 0.244183 0.304615
vn 0.000000 0.008759 -0.999962
vn 0.000000 0.008759 -0.999962
vn 0.000000 0.008759 -0.999962
vn 0.000000 0.008759 -0.999962
vn -0.865992 0.008759 -0.499981
vn -0.865992 0.008759 -0.499981
vn -0.865992 0.008759 -0.499981
vn -0.865992 0.008759 -0.499981
vn -0.865992 0.008759 0.499981
vn -0.865992 0.008759 0.499981
vn -0.865992 0.008759 0.499981
vn -0.865992 0.008759 0.499981
vn 0.000000 0.008759 0.999962
vn 0.000000 0.008759 0.999962
vn 0.000000 0.008759 0.999962
vn 0.000000 0.008759 0.999962
vn 0.865992 0.008759 0.499981
vn 0.865992 0.008759 0.499981
vn 0.865992 0.008759 0.499981
vn 0.865992 0.008759 0.499981
vn 0.865992 0.008759 -0.499981
vn 0.865992 0.008759 -0.499981
vn 0.865992 0.008759 -0.499981
vn 0.865992 0.008759 -0.499981
vn 0.000000 -1.000000 0.000000
vn 0.000000 -1.000000 0.000000
vn 0.000000 -1.000000 0.000000
vn 0.000000 -1.000000 0.000000
vn 0.000000 -1.000000 0.000000
vn 0.000000 -1.000000 0.000000
vn 0.000000 -1.000000 0.000000
vn 0.000000 -1.000000 0.000000
vn 0.000000 -1.000000 0.000000
vn 0.000000 -1.000000 0.000000
vn 0.000000 -1.000000 0.000000
vn 0.000000 -1.000000 0.000000
vn 0.000000 -1.000000 0.000000
vn 0.000000 -1.000000 0.000000
vn 0.000000 -1.000000 0.000000
vn 0.000000 -1.000000 0.000000
vn 0.000000 -1.000000 0.000000
vn 0.000000 -1.000000 0.000000
vn 0.000000 1.000000 0.000000
vn 0.000000 1.000000 0.000006
vn 0.000000 1.000000 -0.000000
vn 0.000000 1.000000 0.000006
vn 0.000000 1.000000 0.000006
vn 0.000000 1.000000 -0.000000
vn 0.000000 1.000000 0.000006
vn 0.000000 1.000000 -0.000006
vn 0.000000 1.000000 -0.000000
vn 0.000000 1.000000 -0.000006
vn 0.000000 1.000000 -0.000006
vn 0.000000 1.000000 -0.000000
vn 0.000000 1.000000 -0.000006
vn 0.000000 1.000000 0.000000
vn 0.000000 1.000000 -0.000000
vn 0.000000 1.000000 0.000000
vn 0.000000 1.000000 0.000000
vn 0.000000 1.000000 -0.000000
vn 0.356600 0.860908 -0.362871
vn 0.356600 0.860908 -0.362871
vn 0.356600 0.860908 -0.362871
vn 0.860908 0.356600 -0.362871
vn 0.860908 0.356600 -0.362871
vn 0.860908 0.356600 -0.362871
vn 0.573966 0.573966 -0.584060
vn 0.573966 0.573966 -0.584060
vn 0.573966 0.573966 -0.584060
vn 0.352778 0.352778 -0.866658
vn 0.352778 0.352778 -0.866658
vn 0.352778 0.352778 -0.866658
vn -0.356600 0.860908 -0.362871
vn -0.356600 0.860908 -0.362871
vn -0.356600 0.860908 -0.362871
vn -0.352778 0.352778 -0.866658
vn -0.352778 0.352778 -0.866658
vn -0.352778 0.352778 -0.866658
vn -0.573966 0.573966 -0.584060
vn -0.573966 0.573966 -0.584060
vn -0.573966 0.573966 -0.584060
vn -0.860908 0.356600 -0.362871
vn -0.860908 0.356600 -0.362871
vn -0.860908 0.356600 -0.362871
vn -0.356600 0.860908 0.362871
vn -0.356600 0.860908 0.362871
vn -0.356600 0.860908 0.362871
vn -0.860908 0.356600 0.362871
vn -0.860908 0.356600 0.362871
vn -0.860908 0.356600 0.362871
vn -0.573966 0.573966 0.584060
vn -0.573966 0.573966 0.584060
vn -0.573966 0.573966 0.584060
vn -0.352778 0.352778 0.866658
vn -0.352778 0.352778 0.866658
vn -0.352778 0.352778 0.866658
vn 0.356600 0.860908 0.362871
vn 0.356600 0.860908 0.362871
vn 0.356600 0.860908 0.362871
vn 0.352778 0.352778 0.866658
vn 0.352778 0.352778 0.866658
vn 0.352778 0.352778 0.866658
vn 0.573966 0.573966 0.584060
vn 0.573966 0.573966 0.584060
vn 0.573966 0.573966 0.584060
vn 0.860908 0.356600 0.362871
vn 0.860908 0.356600 0.362871
vn 0.860908 0.356600 0.362871
vn 0.356600 -0.860908 -0.362871
vn 0.356600 -0.860908 -0.362871
vn 0.356600 -0.860908 -0.362871
vn 0.352778 -0.352778 -0.866658
vn 0.352778 -0.352778 -0.866658
vn 0.352778 -0.352778 -0.866658
vn 0.573966 -0.573966 -0.584060
vn 0.573966 -0.573966 -0.584060
vn 0.573966 -0.573966 -0.584060
vn 0.860908 -0.356600 -0.362871
vn 0.860908 -0.356600 -0.362871
vn 0.860908 -0.356600 -0.362871
vn -0.356600 -0.860908 -0.362871
vn -0.356600 -0.860908 -0.362871
vn -0.356600 -0.860908 -0.362871
vn -0.860908 -0.356600 -0.362871
vn -0.860908 -0.356600 -0.362871
vn -0.860908 -0.356600 -0.362871
vn -0.573966 -0.573966 -0.584060
vn -0.573966 -0.573966 -0.584060
vn -0.573966 -0.573966 -0.584060
vn -0.352778 -0.352778 -0.866658
vn -0.352778 -0.352778 -0.866658
vn -0.352778 -0.352778 -0.866658
vn -0.356600 -0.860908 0.362871
vn -0.356600 -0.860908 0.362871
vn -0.356600 -0.860908 0.362871
vn -0.352778 -0.352778 0.866658
vn -0.352778 -0.352778 0.866658
vn -0.352778 -0.352778 0.866658
vn -0.573966 -0.573966 0.584060
vn -0.573966 -0.573966 0.584060
vn -0.573966 -0.573966 0.584060
vn -0.860908 -0.356600 0.362871
vn -0.860908 -0.356600 0.362871
vn -0.860908 -0.356600 0.362871
vn 0.356600 -0.860908 0.362871
vn 0.356600 -0.860908 0.362871
vn 0.356600 -0.860908 0.362871
vn 0.860908 -0.356600 0.362871
vn 0.860908 -0.356600 0.362871
vn 0.860908 -0.356600 0.362871
vn 0.573966 -0.573966 0.584060
vn 0.573966 -0.573966 0.584060
vn 0.573966 -0.573966 0.584060
vn 0.352778 -0.352778 0.866658
vn 0.352778 -0.352778 0.866658
vn 0.352778 -0.352778 0.866658
vn 0.000000 0.000000 1.000000
vn 0.000000 0.000000 1.000000
vn 0.000000 0.000000 1.000000
vn 0.000000 0.000000 1.000000
vn 0.000000 1.000000 0.000000
vn 0.000000 1.000000 0.000000
vn 0.000000 1.000000 0.000000
vn 0.000000 1.000000 0.000000
vn 0.000000 0.000000 -1.000000
vn 0.000000 0.000000 -1.000000
vn 0.000000 0.000000 -1.000000
vn 0.000000 0.000000 -1.000000
vn 0.000000 -1.000000 0.000000
vn 0.000000 -1.000000 0.000000
vn 0.000000 -1.000000 0.000000
vn 0.000000 -1.000000 0.000000
vn 1.000000 0.000000 0.000000
vn 1.000000 0.000000 0.000000
vn 1.000000 0.000000 0.000000
vn 1.000000 0.000000 0.000000
vn -1.000000 0.000000 0.000000
vn -1.000000 0.000000 0.000000
vn -1.000000 0.000000 0.000000
vn -1.000000 0.000000 0.000000
vn 0.221809 0.975090 0.000000
vn 0.221809 0.975090 0.000000
vn 0.221809 0.975090 0.000000
vn 0.221809 0.975090 0.000000
vn -0.229286 0.000000 -0.973359
vn -0.229286 0.000000 -0.973359
vn -0.229286 0.000000 -0.973359
vn -0.229286 0.000000 -0.973359
vn -0.221811 -0.975090 0.000000
vn -0.221811 -0.975090 0.000000
vn -0.221811 -0.975090 0.000000
vn -0.221811 -0.975090 0.000000
vn 0.229286 0.000000 0.973359
vn 0.229286 0.000000 0.973359
vn 0.229286 0.000000 0.973359
vn 0.229286 0.000000 0.973359
vn -0.071119 0.997468 0.000000
vn -0.071119 0.997468 0.000000
vn -0.071119 0.997468 0.000000
vn -0.071119 0.997468 0.000000
vn -0.122196 0.000000 -0.992506
vn -0.122196 0.000000 -0.992506
vn -0.122196 0.000000 -0.992506
vn -0.122196 0.000000 -0.992506
vn 0.071119 -0.997468 0.000000
vn 0.071119 -0.997468 0.000000
vn 0.071119 -0.997468 0.000000
vn 0.071119 -0.997468 0.000000
vn 0.122196 0.000000 0.992506
vn 0.122196 0.000000 0.992506
vn 0.122196 0.000000 0.992506
vn 0.122196 0.000000 0.992506
vn 0.083245 0.996529 0.000000
vn 0.083245 0.996529 0.000000
vn 0.083245 0.996529 0.000000
vn 0.083245 0.996529 0.000000
vn 0.142769 0.000000 -0.989756
vn 0.142769 0.000000 -0.989756
vn 0.142769 0.000000 -0.989756
vn 0.142769 0.000000 -0.989756
vn -0.083245 -0.996529 0.000000
vn -0.083245 -0.996529 0.000000
vn -0.083245 -0.996529 0.000000
vn -0.083245 -0.996529 0.000000
vn -0.142769 0.000000 0.989756
vn -0.142769 0.000000 0.989756
vn -0.142769 0.000000 0.989756
vn -0.142769 0.000000 0.989756
vn 0.139446 0.990230 0.000000
vn 0.139446 0.990230 0.000000
vn 0.139446 0.990230 0.000000
vn 0.139446 0.990230 0.000000
vn 0.236282 0.000000 -0.971685
vn 0.236282 0.000000 -0.971685
vn 0.236282 0.000000 -0.971685
vn 0.236282 0.000000 -0.971685
vn -0.139446 -0.990230 0.000000
vn -0.139446 -0.990230 0.000000
vn -0.139446 -0.990230 0.000000
vn -0.139446 -0.990230 0.000000
vn -0.236282 0.000000 0.971685
vn -0.236282 0.000000 0.971685
vn -0.236282 0.000000 0.971685
vn -0.236282 0.000000 0.971685
s off
f 1/7/1 2/8/2 8/15/3 7/14/4
f 2/8/5 3/9/6 9/16/7 8/15/8
f 3/9/9 4/10/10 10/17/11 9/16/12
f 4/10/13 5/11/14 11/18/15 10/17/16
f 5/11/17 6/12/18 12/19/19 11/18/20
f 6/12/21 1/13/22 7/20/23 12/19/24
f 2/2/25 1/1/26 13/27/27
f 3/3/28 2/2/29 13/27/30
f 4/4/31 3/3/32 13/27/33
f 5/5/34 4/4/35 13/27/36
f 6/6/37 5/5/38 13/27/39
f 1/1/40 6/6/41 13/27/42
f 7/25/43 8/24/44 14/28/45
f 8/24/46 9/23/47 14/28/48
f 9/23/49 10/22/50 14/28/51
f 10/22/52 11/21/53 14/28/54
f 11/21/55 12/26/56 14/28/57
f 12/26/58 7/25/59 14/28/60
f 15/29/61 21/30/62 22/31/63
f 21/30/64 16/32/65 29/33/66
f 21/30/67 29/33/68 22/31/69
f 22/31/70 29/33/71 17/34/72
f 15/29/73 22/31/74 23/35/75
f 22/31/76 17/34/77 30/36/78
f 22/31/79 30/36/80 23/35/81
f 23/35/82 30/36/83 18/37/84
f 15/29/85 23/35/86 24/38/87
f 23/35/88 18/37/89 31/39/90
f 23/35/91 31/39/92 24/38/93
f 24/38/94 31/39/95 19/40/96
f 15/29/97 24/38/98 21/30/99
f 24/38/100 19/40/101 32/41/102
f 24/38/103 32/41/104 21/30/105
f 21/30/106 32/41/107 16/32/108
f 20/42/109 26/43/110 25/44/111
f 26/43/112 17/34/113 29/33/114
f 26/43/115 29/33/116 25/44/117
f 25/44/118 29/33/119 16/32/120
f 20/42/121 27/45/122 26/43/123
f 27/45/124 18/37/125 30/36/126
f 27/45/127 30/36/128 26/43/129
f 26/43/130 30/36/131 17/34/132
f 20/42/133 28/46/134 27/45/135
f 28/46/136 19/40/137 31/39/138
f 28/46/139 31/39/140 27/45/141
f 27/45/142 31/39/143 18/37/144
f 20/42/145 25/44/146 28/46/147
f 25/44/148 16/32/149 32/41/150
f 25/44/151 32/41/152 28/46/153
f 28/46/154 32/41/155 19/40/156
f 33/47/157 56/48/158 53/49/159 35/50/160
f 35/50/161 53/49/162 54/51/163 37/52/164
f 37/52/165 54/51/166 55/53/167 39/54/168
f 39/54/169 55/53/170 56/55/171 33/56/172
f 34/57/173 40/58/174 38/59/175 36/60/176
f 39/61/177 33/47/178 35/50/179 37/62/180
f 41/63/181 36/60/182 38/64/183 42/65/184
f 43/66/185 42/65/186 38/64/187 40/67/188
f 44/68/189 43/66/190 40/67/191 34/69/192
f 41/63/193 44/70/194 34/57/195 36/60/196
f 45/71/197 49/72/198 50/73/199 46/74/200
f 47/75/201 46/74/202 50/73/203 51/76/204
f 48/77/205 47/75/206 51/76/207 52/78/208
f 45/71/209 48/79/210 52/80/211 49/72/212
f 49/72/213 41/63/214 42/65/215 50/73/216
f 51/76/217 50/73/218 42/65/219 43/66/220
f 52/78/221 51/76/222 43/66/223 44/68/224
f 49/72/225 52/80/226 44/70/227 41/63/228
f 53/49/229 45/71/230 46/74/231 54/51/232
f 55/53/233 54/51/234 46/74/235 47/75/236
f 56/55/237 55/53/238 47/75/239 48/77/240
f 53/49/241 56/48/242 48/79/243 45/71/244
