# This file uses meters as units for non-parametric coordinates.

v 45.000000 -50.000000 -0.000001
v 22.499998 -50.000000 -38.971146
v -22.500006 -50.000000 -38.971142
v -45.000000 -50.000000 0.000007
v -22.499994 -50.000000 38.971146
v 22.500013 -50.000000 38.971134
v 45.000000 50.000000 -0.000001
v 22.499998 50.000000 -38.971146
v -22.500006 50.000000 -38.971142
v -45.000000 50.000000 0.000007
v -22.499994 50.000000 38.971146
v 22.500013 50.000000 38.971134
v 50.000000 50.000000 -0.000001
v 24.999998 50.000000 -43.301277
v -25.000004 50.000000 -43.301273
v -50.000000 50.000000 0.000006
v -24.999994 50.000000 43.301273
v 25.000011 50.000000 43.301262
v 50.000000 -50.000000 -0.000001
v 24.999998 -50.000000 -43.301277
v -25.000004 -50.000000 -43.301273
v -50.000000 -50.000000 0.000006
v -24.999994 -50.000000 43.301273
v 25.000011 -50.000000 43.301262
vt 0.248092 0.303113
vt 0.248092 0.303113
vt 0.248092 0.303113
vt 0.248092 0.303113
vt 0.248092 0.303113
vt 0.248092 0.303113
vt 0.248092 0.303113
vt 0.248092 0.303113
vt 0.248092 0.303113
vt 0.248092 0.303113
vt 0.248092 0.303113
vt 0.248092 0.303113
vt 0.248092 0.303113
vt 0.248092 0.303113
vt 0.248092 0.303113
vt 0.248092 0.303113
vt 0.248092 0.303113
vt 0.248092 0.303113
vt 0.248092 0.303113
vt 0.248092 0.303113
vt 0.248092 0.303113
vt 0.248092 0.303113
vt 0.248092 0.303113
vt 0.248092 0.303113
vt 0.248092 0.303113
vt 0.248092 0.303113
vt 0.248092 0.303113
vt 0.248092 0.303113
vt 0.248092 0.303113
vt 0.248092 0.303113
vt 0.248092 0.303113
vt 0.248092 0.303113
vt 0.248092 0.303113
vt 0.248092 0.303113
vt 0.248092 0.303113
vn -0.866025 0.000000 0.500000
vn -0.866025 0.000000 0.500000
vn -0.866025 0.000000 0.500000
vn -0.866025 0.000000 0.500000
vn 0.000000 0.000000 1.000000
vn 0.000000 0.000000 1.000000
vn 0.000000 0.000000 1.000000
vn 0.000000 0.000000 1.000000
vn 0.866026 0.000000 0.500000
vn 0.866026 0.000000 0.500000
vn 0.866026 0.000000 0.500000
vn 0.866026 0.000000 0.500000
vn 0.866025 0.000000 -0.500000
vn 0.866025 0.000000 -0.500000
vn 0.866025 0.000000 -0.500000
vn 0.866025 0.000000 -0.500000
vn -0.000000 0.000000 -1.000000
vn -0.000000 0.000000 -1.000000
vn -0.000000 0.000000 -1.000000
vn -0.000000 0.000000 -1.000000
vn -0.866025 0.000000 -0.500000
vn -0.866025 0.000000 -0.500000
vn -0.866025 0.000000 -0.500000
vn -0.866025 0.000000 -0.500000
vn 0.000000 1.000000 -0.000000
vn 0.000000 1.000000 0.000000
vn 0.000000 1.000000 0.000000
vn 0.000000 1.000000 -0.000000
vn 0.000000 1.000000 -0.000001
vn 0.000000 1.000000 -0.000000
vn 0.000000 1.000000 -0.000000
vn 0.000000 1.000000 -0.000001
vn 0.000000 1.000000 -0.000000
vn 0.000000 1.000000 -0.000001
vn 0.000000 1.000000 -0.000001
vn 0.000000 1.000000 -0.000000
vn 0.000000 1.000000 -0.000000
vn 0.000000 1.000000 -0.000000
vn 0.000000 1.000000 -0.000000
vn 0.000000 1.000000 -0.000000
vn 0.000000 1.000000 0.000000
vn 0.000000 1.000000 -0.000000
vn 0.000000 1.000000 -0.000000
vn 0.000000 1.000000 0.000000
vn 0.000000 1.000000 0.000000
vn 0.000000 1.000000 0.000000
vn 0.000000 1.000000 0.000000
vn 0.000000 1.000000 0.000000
vn 0.866026 0.000000 -0.500000
vn 0.866026 0.000000 -0.500000
vn 0.866026 0.000000 -0.500000
vn 0.866026 0.000000 -0.500000
vn -0.000000 0.000000 -1.000000
vn -0.000000 0.000000 -1.000000
vn -0.000000 0.000000 -1.000000
vn -0.000000 0.000000 -1.000000
vn -0.866026 0.000000 -0.500000
vn -0.866026 0.000000 -0.500000
vn -0.866026 0.000000 -0.500000
vn -0.866026 0.000000 -0.500000
vn -0.866025 0.000000 0.500000
vn -0.866025 0.000000 0.500000
vn -0.866025 0.000000 0.500000
vn -0.866025 0.000000 0.500000
vn 0.000000 0.000000 1.000000
vn 0.000000 0.000000 1.000000
vn 0.000000 0.000000 1.000000
vn 0.000000 0.000000 1.000000
vn 0.866025 0.000000 0.500000
vn 0.866025 0.000000 0.500000
vn 0.866025 0.000000 0.500000
vn 0.866025 0.000000 0.500000
vn 0.000000 -1.000000 -0.000000
vn 0.000000 -1.000000 0.000000
vn 0.000000 -1.000000 0.000000
vn 0.000000 -1.000000 -0.000000
vn 0.000000 -1.000000 -0.000001
vn 0.000000 -1.000000 -0.000000
vn 0.000000 -1.000000 -0.000000
vn 0.000000 -1.000000 -0.000001
vn 0.000000 -1.000000 -0.000000
vn 0.000000 -1.000000 -0.000001
vn 0.000000 -1.000000 -0.000001
vn 0.000000 -1.000000 -0.000000
vn 0.000000 -1.000000 -0.000000
vn 0.000000 -1.000000 -0.000000
vn 0.000000 -1.000000 -0.000000
vn 0.000000 -1.000000 -0.000000
vn 0.000000 -1.000000 0.000000
vn 0.000000 -1.000000 -0.000000
vn 0.000000 -1.000000 -0.000000
vn 0.000000 -1.000000 0.000000
vn 0.000000 -1.000000 0.000000
vn 0.000000 -1.000000 0.000000
vn 0.000000 -1.000000 0.000000
vn 0.000000 -1.000000 0.000000
s off
f 2/2/1 1/1/2 7/8/3 8/9/4
f 3/3/5 2/2/6 8/9/7 9/10/8
f 4/4/9 3/3/10 9/10/11 10/11/12
f 5/5/13 4/4/14 10/11/15 11/12/16
f 6/6/17 5/5/18 11/12/19 12/13/20
f 1/7/21 6/6/22 12/13/23 7/14/24
f 8/9/25 7/8/26 13/15/27 14/16/28
f 9/10/29 8/9/30 14/16/31 15/17/32
f 10/11/33 9/10/34 15/17/35 16/18/36
f 11/12/37 10/11/38 16/18/39 17/19/40
f 12/13/41 11/12/42 17/19/43 18/20/44
f 7/14/45 12/13/46 18/20/47 13/21/48
f 14/16/49 13/15/50 19/22/51 20/23/52
f 15/17/53 14/16/54 20/23/55 21/24/56
f 16/18/57 15/17/58 21/24/59 22/25/60
f 17/19/61 16/18/62 22/25/63 23/26/64
f 18/20/65 17/19/66 23/26/67 24/27/68
f 13/21/69 18/20/70 24/27/71 19/28/72
f 20/23/73 19/22/74 1/29/75 2/30/76
f 21/24/77 20/23/78 2/30/79 3/31/80
f 22/25/81 21/24/82 3/31/83 4/32/84
f 23/26/85 22/25/86 4/32/87 5/33/88
f 24/27/89 23/26/90 5/33/91 6/34/92
f 19/28/93 24/27/94 6/34/95 1/35/96
