# This file uses meters as units for non-parametric coordinates.

v 46.193989 -50.000000 -19.134146
v 35.355358 -50.000000 -35.355320
v 19.134195 -50.000000 -46.193966
v 0.000025 -50.000000 -50.000000
v -19.134148 -50.000000 -46.193989
v -35.355324 -50.000000 -35.355358
v -46.193970 -50.000000 -19.134192
v -50.000000 -50.000000 -0.000019
v -46.193985 -50.000000 19.134155
v -35.355347 -50.000000 35.355328
v -19.134180 -50.000000 46.193970
v -0.000007 -50.000000 50.000000
v 19.134165 -50.000000 46.193974
v 35.355335 -50.000000 35.355339
v 46.193974 -50.000000 19.134171
v 50.000000 -50.000000 -0.000001
v 0.000000 50.000000 -0.000001
vt 0.248092 0.303113
vt 0.248092 0.303113
vt 0.248092 0.303113
vt 0.248092 0.303113
vt 0.248092 0.303113
vt 0.248092 0.303113
vt 0.248092 0.303113
vt 0.248092 0.303113
vt 0.248092 0.303113
vt 0.248092 0.303113
vt 0.248092 0.303113
vt 0.248092 0.303113
vt 0.248092 0.303113
vt 0.248092 0.303113
vt 0.248092 0.303113
vt 0.248092 0.303113
vt 0.248092 0.303113
vt 0.248092 0.303113
vt 0.248092 0.303113
vt 0.248092 0.303113
vt 0.248092 0.303113
vt 0.248092 0.303113
vt 0.248092 0.303113
vt 0.248092 0.303113
vt 0.248092 0.303113
vt 0.248092 0.303113
vt 0.248092 0.303113
vt 0.248092 0.303113
vt 0.248092 0.303113
vt 0.248092 0.303113
vt 0.248092 0.303113
vt 0.248092 0.303113
vt 0.248092 0.303113
vt 0.248092 0.303113
vn 0.000000 -1.000000 0.000000
vn 0.000000 -1.000000 0.000000
vn 0.000000 -1.000000 0.000000
vn 0.000000 -1.000000 0.000000
vn 0.000000 -1.000000 0.000000
vn 0.000000 -1.000000 0.000000
vn 0.000000 -1.000000 0.000000
vn 0.000000 -1.000000 0.000000
vn 0.000000 -1.000000 0.000000
vn 0.000000 -1.000000 0.000000
vn 0.000000 -1.000000 0.000000
vn 0.000000 -1.000000 0.000000
vn 0.000000 -1.000000 0.000000
vn 0.000000 -1.000000 0.000000
vn 0.000000 -1.000000 0.000000
vn 0.000000 -1.000000 0.000000
vn 0.746536 0.440300 -0.498819
vn 0.746536 0.440300 -0.498819
vn 0.746536 0.440300 -0.498819
vn 0.498820 0.440300 -0.746536
vn 0.498820 0.440300 -0.746536
vn 0.498820 0.440300 -0.746536
vn 0.175163 0.440300 -0.880599
vn 0.175163 0.440300 -0.880599
vn 0.175163 0.440300 -0.880599
vn -0.175161 0.440300 -0.880599
vn -0.175161 0.440300 -0.880599
vn -0.175161 0.440300 -0.880599
vn -0.498819 0.440300 -0.746536
vn -0.498819 0.440299 -0.746536
vn -0.498819 0.440299 -0.746536
vn -0.746536 0.440300 -0.498820
vn -0.746536 0.440300 -0.498820
vn -0.746536 0.440300 -0.498820
vn -0.880599 0.440300 -0.175162
vn -0.880599 0.440300 -0.175162
vn -0.880599 0.440300 -0.175162
vn -0.880599 0.440300 0.175162
vn -0.880599 0.440299 0.175162
vn -0.880599 0.440300 0.175162
vn -0.746536 0.440300 0.498819
vn -0.746536 0.440300 0.498819
vn -0.746536 0.440300 0.498819
vn -0.498819 0.440300 0.746536
vn -0.498819 0.440300 0.746536
vn -0.498819 0.440299 0.746536
vn -0.175162 0.440300 0.880599
vn -0.175162 0.440300 0.880599
vn -0.175162 0.440299 0.880599
vn 0.175162 0.440300 0.880599
vn 0.175162 0.440300 0.880599
vn 0.175162 0.440300 0.880599
vn 0.498819 0.440300 0.746536
vn 0.498819 0.440299 0.746536
vn 0.498819 0.440299 0.746536
vn 0.746536 0.440300 0.498819
vn 0.746536 0.440300 0.498819
vn 0.746536 0.440299 0.498819
vn 0.880599 0.440300 0.175162
vn 0.880599 0.440299 0.175162
vn 0.880599 0.440300 0.175162
vn 0.880599 0.440300 -0.175162
vn 0.880599 0.440300 -0.175162
vn 0.880599 0.440299 -0.175162
s off
f 1/1/1 16/16/2 15/15/3 14/14/4 13/13/5 12/12/6 11/11/7 10/10/8 9/9/9 8/8/10 7/7/11 6/6/12 5/5/13 4/4/14 3/3/15 2/2/16
f 1/17/17 2/18/18 17/34/19
f 2/18/20 3/19/21 17/34/22
f 3/19/23 4/20/24 17/34/25
f 4/20/26 5/21/27 17/34/28
f 5/21/29 6/22/30 17/34/31
f 6/22/32 7/23/33 17/34/34
f 7/23/35 8/24/36 17/34/37
f 8/24/38 9/25/39 17/34/40
f 9/25/41 10/26/42 17/34/43
f 10/26/44 11/27/45 17/34/46
f 11/27/47 12/28/48 17/34/49
f 12/28/50 13/29/51 17/34/52
f 13/29/53 14/30/54 17/34/55
f 14/30/56 15/31/57 17/34/58
f 15/31/59 16/32/60 17/34/61
f 16/32/62 1/33/63 17/34/64
