# This file uses meters as units for non-parametric coordinates.

v 45.045212 -50.000000 0.000001
v 31.865011 -50.000000 -31.819801
v 0.045210 -50.000000 -44.999996
v -31.774593 -50.000000 -31.819801
v -44.954788 -50.000000 0.000001
v -31.774593 -50.000000 31.819805
v 0.045210 -50.000000 45.000000
v 31.865011 -50.000000 31.819805
v 45.045212 50.000000 0.000001
v 31.865011 50.000000 -31.819801
v 0.045210 50.000000 -44.999996
v -31.774593 50.000000 -31.819801
v -44.954788 50.000000 0.000001
v -31.774593 50.000000 31.819805
v 0.045210 50.000000 45.000000
v 31.865011 50.000000 31.819805
v 50.045208 50.000000 0.000001
v 35.400551 50.000000 -35.355339
v 0.045210 50.000000 -49.999996
v -35.310127 50.000000 -35.355335
v -49.954788 50.000000 0.000001
v -35.310127 50.000000 35.355339
v 0.045210 50.000000 49.999996
v 35.400543 50.000000 35.355339
v 50.045208 -50.000000 0.000001
v 35.400551 -50.000000 -35.355339
v 0.045210 -50.000000 -49.999996
v -35.310127 -50.000000 -35.355335
v -49.954788 -50.000000 0.000001
v -35.310127 -50.000000 35.355339
v 0.045210 -50.000000 49.999996
v 35.400543 -50.000000 35.355339
v -20.848909 48.798267 41.730927
v -17.921749 50.000000 37.557842
v -17.921749 -50.000000 37.557842
v -19.918077 -47.409447 41.730927
v -37.820919 -50.000000 -17.222691
v -39.210083 -50.000000 -25.939995
v -44.781178 -50.000000 -12.490191
v -41.875137 -42.206604 -19.506050
v -42.153183 -47.845802 -18.834719
v 35.478004 50.000000 -23.097260
v 41.769779 50.000000 -19.978664
v 37.046127 50.000000 -31.382565
v 39.678413 46.616470 -25.027750
v 0.045210 -6.672502 49.999996
v 33.985001 -8.760550 36.532169
v -35.310127 -0.915098 -35.355335
v 2.730890 -6.615377 -49.975891
v 35.400551 -4.187298 -35.355339
v -20.332428 -4.444322 41.730927
v -35.310127 -2.730203 35.355339
v -50.045212 -1.803793 1.848938
v -38.991268 -1.702179 -26.468307
vt 0.248092 0.303113
vt 0.248092 0.303113
vt 0.248092 0.303113
vt 0.248092 0.303113
vt 0.248092 0.303113
vt 0.248092 0.303113
vt 0.248092 0.303113
vt 0.248092 0.303113
vt 0.248092 0.303113
vt 0.248092 0.303113
vt 0.248092 0.303113
vt 0.248092 0.303113
vt 0.248092 0.303113
vt 0.248092 0.303113
vt 0.248092 0.303113
vt 0.248092 0.303113
vt 0.248092 0.303113
vt 0.248092 0.303113
vt 0.248092 0.303113
vt 0.248092 0.303113
vt 0.248092 0.303113
vt 0.248092 0.303113
vt 0.248092 0.303113
vt 0.248092 0.303113
vt 0.248092 0.303113
vt 0.248092 0.303113
vt 0.248092 0.303113
vt 0.248092 0.303113
vt 0.248092 0.303113
vt 0.248092 0.303113
vt 0.248092 0.303113
vt 0.248092 0.303113
vt 0.248092 0.303113
vt 0.248092 0.303113
vt 0.248092 0.303113
vt 0.248092 0.303113
vt 0.248092 0.303113
vt 0.248092 0.303113
vt 0.248092 0.303113
vt 0.248092 0.303113
vt 0.248092 0.303113
vt 0.248092 0.303113
vt 0.248092 0.303113
vt 0.248092 0.303113
vt 0.248092 0.303113
vt 0.248092 0.303113
vt 0.248092 0.303113
vt 0.248092 0.303113
vt 0.248092 0.303113
vt 0.248092 0.303113
vt 0.248092 0.303113
vt 0.248092 0.303113
vt 0.248092 0.303113
vt 0.248092 0.303113
vt 0.248092 0.303113
vt 0.248092 0.303113
vt 0.248092 0.303113
vt 0.248092 0.303113
vt 0.248092 0.303113
vt 0.248092 0.303113
vt 0.248092 0.303113
vt 0.248092 0.303113
vt 0.248092 0.303113
vt 0.248092 0.303113
vt 0.248092 0.303113
vt 0.248092 0.303113
vt 0.248092 0.303113
vt 0.248092 0.303113
vt 0.248092 0.303113
vn -0.923880 -0.000000 0.382684
vn -0.923880 -0.000000 0.382684
vn -0.923880 -0.000000 0.382684
vn -0.923880 -0.000000 0.382684
vn -0.923880 -0.000000 0.382684
vn -0.382683 0.000000 0.923880
vn -0.382683 0.000000 0.923880
vn -0.382683 0.000000 0.923880
vn -0.382683 0.000000 0.923880
vn 0.382683 0.000000 0.923880
vn 0.382683 0.000000 0.923880
vn 0.382683 0.000000 0.923880
vn 0.382683 0.000000 0.923880
vn 0.923880 0.000000 0.382683
vn 0.923880 0.000000 0.382683
vn 0.923880 0.000000 0.382683
vn 0.923880 0.000000 0.382683
vn 0.923880 0.000000 0.382683
vn 0.923880 0.000000 -0.382683
vn 0.923880 0.000000 -0.382683
vn 0.923880 0.000000 -0.382683
vn 0.923880 0.000000 -0.382683
vn 0.382683 0.000000 -0.923880
vn 0.382683 0.000000 -0.923880
vn 0.382683 0.000000 -0.923880
vn 0.382683 0.000000 -0.923880
vn -0.382683 0.000000 -0.923880
vn -0.382683 0.000000 -0.923880
vn -0.382683 0.000000 -0.923880
vn -0.382683 0.000000 -0.923880
vn -0.923880 0.000000 -0.382684
vn -0.923880 0.000000 -0.382684
vn -0.923880 0.000000 -0.382684
vn -0.923880 0.000000 -0.382684
vn 0.000000 1.000000 0.000000
vn 0.000000 1.000000 0.000000
vn 0.000000 1.000000 0.000000
vn 0.000000 1.000000 0.000000
vn 0.000000 1.000000 -0.000001
vn 0.000000 1.000000 -0.000001
vn 0.000000 1.000000 -0.000001
vn 0.000000 1.000000 -0.000001
vn 0.000000 1.000000 0.000001
vn 0.000000 1.000000 0.000001
vn 0.000000 1.000000 0.000001
vn 0.000000 1.000000 0.000001
vn 0.000000 1.000000 -0.000000
vn 0.000000 1.000000 -0.000000
vn 0.000000 1.000000 -0.000000
vn 0.000000 1.000000 -0.000000
vn 0.000000 1.000000 0.000000
vn 0.000000 1.000000 0.000000
vn 0.000000 1.000000 0.000000
vn 0.000000 1.000000 0.000000
vn -0.017673 0.990060 0.139529
vn -0.017673 0.990060 0.139529
vn -0.017673 0.990060 0.139529
vn -0.017673 0.990060 0.139529
vn 0.000000 1.000000 0.000001
vn 0.000000 1.000000 0.000001
vn 0.000000 1.000000 0.000001
vn 0.000000 1.000000 0.000001
vn 0.000000 1.000000 0.000000
vn 0.000000 1.000000 0.000000
vn 0.000000 1.000000 0.000000
vn 0.000000 1.000000 0.000000
vn 0.923878 0.000000 -0.382686
vn 0.923878 0.000000 -0.382686
vn 0.923878 0.000000 -0.382686
vn 0.395207 -0.000479 -0.918592
vn 0.395179 0.000446 -0.918604
vn 0.395517 -0.011661 -0.918385
vn 0.395517 -0.011661 -0.918385
vn -0.370432 -0.000894 -0.928859
vn -0.370312 0.000891 -0.928907
vn -0.369614 0.010977 -0.929120
vn -0.369614 0.010977 -0.929121
vn -0.923879 -0.000000 -0.382684
vn -0.923879 -0.000000 -0.382684
vn -0.923879 -0.000000 -0.382684
vn -0.923879 -0.000000 -0.382685
vn -0.923879 -0.000000 -0.382684
vn -0.919785 -0.000130 0.392423
vn -0.919784 0.000121 0.392426
vn -0.919792 -0.008469 0.392314
vn -0.919792 -0.008469 0.392314
vn -0.387082 -0.001777 0.922044
vn -0.392327 -0.001857 0.919824
vn -0.393058 -0.001868 0.919512
vn -0.387082 -0.001777 0.922044
vn 0.376054 0.004835 0.926585
vn 0.376054 0.004835 0.926585
vn 0.375938 0.000202 0.926645
vn 0.375927 -0.000222 0.926649
vn 0.918520 -0.005259 0.395339
vn 0.918520 -0.005259 0.395339
vn 0.918924 -0.003359 0.394421
vn 0.919663 0.000179 0.392708
vn 0.000000 -1.000000 0.000000
vn 0.000000 -1.000000 0.000000
vn 0.000000 -1.000000 0.000000
vn 0.000000 -1.000000 0.000000
vn 0.000000 -1.000000 -0.000001
vn 0.000000 -1.000000 -0.000001
vn 0.000000 -1.000000 -0.000001
vn 0.000000 -1.000000 -0.000001
vn 0.000000 -1.000000 0.000001
vn 0.000000 -1.000000 0.000001
vn 0.000000 -1.000000 0.000001
vn 0.000000 -1.000000 0.000001
vn 0.000000 -1.000000 0.000000
vn 0.000000 -1.000000 0.000000
vn 0.000000 -1.000000 0.000000
vn 0.000000 -1.000000 0.000000
vn 0.000000 -1.000000 0.000000
vn 0.000000 -1.000000 0.000000
vn 0.000000 -1.000000 0.000000
vn 0.000000 -1.000000 0.000000
vn -0.037265 -0.955017 0.294201
vn -0.037265 -0.955017 0.294201
vn -0.037265 -0.955017 0.294201
vn -0.037265 -0.955017 0.294201
vn 0.000000 -1.000000 0.000001
vn 0.000000 -1.000000 0.000001
vn 0.000000 -1.000000 0.000001
vn 0.000000 -1.000000 0.000001
vn 0.000000 -1.000000 0.000000
vn 0.000000 -1.000000 0.000000
vn 0.000000 -1.000000 0.000000
vn 0.000000 -1.000000 0.000000
vn -0.073678 0.991591 0.106394
vn -0.073678 0.991591 0.106394
vn -0.073678 0.991591 0.106394
vn -0.073678 0.991591 0.106394
vn 0.382683 0.000000 -0.923880
vn 0.382683 0.000000 -0.923880
vn 0.382683 0.000000 -0.923880
vn 0.382683 0.000000 -0.923880
vn -0.162853 -0.958215 0.235166
vn -0.162853 -0.958215 0.235166
vn -0.162853 -0.958215 0.235166
vn -0.162853 -0.958215 0.235166
vn -0.375506 -0.001783 0.926818
vn -0.375011 -0.001778 0.927019
vn -0.379507 -0.001822 0.925187
vn -0.379507 -0.001822 0.925187
vn 0.000000 -1.000000 0.000000
vn 0.000000 -1.000000 0.000000
vn 0.000000 -1.000000 0.000000
vn 0.000000 -1.000000 0.000000
vn -0.923878 -0.000007 -0.382686
vn -0.923878 -0.000007 -0.382686
vn -0.923878 -0.000007 -0.382686
vn -0.279013 -0.868193 -0.410356
vn -0.279013 -0.868193 -0.410356
vn -0.279013 -0.868194 -0.410356
vn -0.923880 -0.000004 -0.382682
vn -0.923880 -0.000004 -0.382682
vn -0.923880 -0.000004 -0.382682
vn -0.466029 -0.881647 0.074265
vn -0.466029 -0.881647 0.074265
vn -0.466029 -0.881647 0.074265
vn -0.927863 0.000008 -0.372921
vn -0.927786 -0.000703 -0.373112
vn -0.928651 0.007553 -0.370877
vn -0.928651 0.007553 -0.370877
vn -0.928651 0.007553 -0.370877
vn 0.000000 1.000000 0.000000
vn 0.000000 1.000000 0.000000
vn 0.000000 1.000000 0.000000
vn 0.000000 1.000000 0.000000
vn 0.656460 0.744058 0.124246
vn 0.656460 0.744058 0.124246
vn 0.656460 0.744058 0.124246
vn 0.304367 0.728208 -0.614064
vn 0.304367 0.728208 -0.614064
vn 0.304367 0.728208 -0.614064
vn 0.923880 -0.000000 -0.382683
vn 0.923880 -0.000000 -0.382683
vn 0.923880 -0.000000 -0.382683
vn 0.923880 -0.000000 -0.382683
vn 0.923880 -0.000000 -0.382683
vn 0.375927 -0.000222 0.926649
vn 0.375938 0.000202 0.926645
vn 0.375754 -0.006606 0.926696
vn 0.375754 -0.006606 0.926696
vn 0.919663 0.000179 0.392708
vn 0.918924 -0.003359 0.394421
vn 0.923680 0.020787 0.382601
vn -0.370990 -0.009474 -0.928588
vn -0.370990 -0.009474 -0.928588
vn -0.370312 0.000891 -0.928907
vn -0.370432 -0.000894 -0.928859
vn 0.394893 0.009372 -0.918679
vn 0.394893 0.009372 -0.918679
vn 0.395179 0.000446 -0.918604
vn 0.395207 -0.000479 -0.918592
vn 0.923878 0.000000 -0.382686
vn 0.923879 0.000000 -0.382686
vn 0.923878 0.000000 -0.382686
vn 0.923878 0.000000 -0.382686
vn -0.371998 -0.001748 0.928232
vn -0.371998 -0.001748 0.928232
vn -0.375011 -0.001778 0.927019
vn -0.375506 -0.001783 0.926818
vn -0.393058 -0.001868 0.919512
vn -0.392327 -0.001857 0.919824
vn -0.397619 -0.001938 0.917549
vn -0.397619 -0.001938 0.917549
vn -0.919719 0.007738 0.392501
vn -0.919719 0.007738 0.392501
vn -0.919784 0.000121 0.392426
vn -0.919785 -0.000130 0.392423
vn -0.927305 -0.005031 -0.374273
vn -0.927305 -0.005031 -0.374273
vn -0.927786 -0.000703 -0.373112
vn -0.927863 0.000008 -0.372921
vn -0.923879 -0.000000 -0.382684
vn -0.923879 -0.000000 -0.382684
vn -0.923879 0.000000 -0.382684
s off
f 2/2/1 1/1/2 9/10/3 42/57/4 10/11/5
f 3/3/6 2/2/7 10/11/8 11/12/9
f 4/4/10 3/3/11 11/12/12 12/13/13
f 5/5/14 37/52/15 4/4/16 12/13/17 13/14/18
f 6/6/19 5/5/20 13/14/21 14/15/22
f 35/49/23 6/6/24 14/15/25 34/47/26
f 8/8/27 7/7/28 15/16/29 16/17/30
f 1/9/31 8/8/32 16/17/33 9/18/34
f 10/11/35 42/57/36 44/59/37 18/20/38
f 11/12/39 10/11/40 18/20/41 19/21/42
f 12/13/43 11/12/44 19/21/45 20/22/46
f 13/14/47 12/13/48 20/22/49 21/23/50
f 14/15/51 13/14/52 21/23/53 22/24/54
f 34/47/55 14/15/56 22/24/57 33/46/58
f 16/17/59 15/16/60 23/25/61 24/26/62
f 9/18/63 16/17/64 24/26/65 17/27/66
f 50/65/67 45/60/68 26/29/69
f 49/64/70 50/65/71 26/29/72 27/30/73
f 48/63/74 49/64/75 27/30/76 28/31/77
f 40/55/78 54/69/79 48/63/80 28/31/81 38/53/82
f 52/67/83 53/68/84 29/32/85 30/33/86
f 36/50/87 51/66/88 52/67/89 30/33/90
f 24/26/91 23/25/92 46/61/93 47/62/94
f 17/27/95 24/26/96 47/62/97 25/36/98
f 26/29/99 25/28/100 1/37/101 2/38/102
f 27/30/103 26/29/104 2/38/105 3/39/106
f 28/31/107 27/30/108 3/39/109 4/40/110
f 37/51/111 38/53/112 28/31/113 4/40/114
f 30/33/115 29/32/116 5/41/117 6/42/118
f 36/50/119 30/33/120 6/42/121 35/48/122
f 32/35/123 31/34/124 7/43/125 8/44/126
f 25/36/127 32/35/128 8/44/129 1/45/130
f 15/16/131 34/47/132 33/46/133 23/25/134
f 7/7/135 35/49/136 34/47/137 15/16/138
f 31/34/139 36/50/140 35/48/141 7/43/142
f 46/61/143 51/66/144 36/50/145 31/34/146
f 29/32/147 39/54/148 37/51/149 5/41/150
f 39/54/151 40/55/152 41/56/153
f 37/51/154 39/54/155 41/56/156
f 41/56/157 40/55/158 38/53/159
f 37/51/160 41/56/161 38/53/162
f 53/68/163 54/69/164 40/55/165 39/54/166 29/32/167
f 43/58/168 42/57/169 9/10/170 17/19/171
f 44/59/172 42/57/173 45/60/174
f 45/60/175 42/57/176 43/58/177
f 26/29/178 45/60/179 43/58/180 17/19/181 25/28/182
f 47/62/183 46/61/184 31/34/185 32/35/186
f 25/36/187 47/62/188 32/35/189
f 20/22/190 19/21/191 49/64/192 48/63/193
f 19/21/194 18/20/195 50/65/196 49/64/197
f 18/20/198 44/59/199 45/60/200 50/65/201
f 23/25/202 33/46/203 51/66/204 46/61/205
f 52/67/206 51/66/207 33/46/208 22/24/209
f 22/24/210 21/23/211 53/68/212 52/67/213
f 21/23/214 20/22/215 54/69/216 53/68/217
f 48/63/218 54/69/219 20/22/220
