# This file uses meters as units for non-parametric coordinates.

v -9.075928 7.210047 8.167601
v 9.533386 7.210047 8.167601
v -9.075928 7.210047 -11.489095
v 9.533386 7.210047 -11.489095
v 9.533386 152.737411 8.167601
v -9.075928 152.737411 8.167601
v -9.075928 152.737411 -11.489095
v 9.533386 152.737411 -11.489095
v -18.568878 0.000000 18.194756
v 19.026176 0.000000 18.194756
v -18.568878 0.000000 -21.516197
v 19.026176 0.000000 -21.516197
v 19.026176 12.825918 18.194756
v -18.568878 12.825918 18.194756
v -18.568878 12.825918 -21.516197
v 19.026176 12.825918 -21.516197
v 0.000000 237.903870 0.000038
v 64.288651 198.171280 0.000038
v 19.866028 198.171280 -61.142159
v -52.010651 198.171280 -37.787895
v -52.010651 198.171280 37.787971
v 19.866028 198.171280 61.142159
v 52.010483 133.882599 -37.787895
v -19.866333 133.882599 -61.142120
v -64.288788 133.882599 0.000038
v -19.866333 133.882599 61.142235
v 52.010483 133.882599 37.787971
v 0.000000 94.150040 0.000038
v 37.787781 227.169083 0.000038
v 11.676941 227.169083 -35.938416
v -30.571289 227.169083 -22.211151
v -30.571136 227.169083 22.211189
v 11.676941 227.169083 35.938454
v 49.465027 203.814880 -35.938416
v -18.894043 203.814880 -58.149643
v -61.142120 203.814880 0.000038
v -18.894043 203.814880 58.149681
v 49.465027 203.814880 35.938454
v 68.359070 166.026947 -22.211151
v 0.000000 166.026947 -71.876862
v -68.359070 166.026947 -22.211151
v -42.248230 166.026947 58.149681
v 42.248062 166.026947 58.149681
v 68.359070 166.026947 22.211189
v 42.248062 166.026947 -58.149643
v -42.248230 166.026947 -58.149643
v -68.359070 166.026947 22.211189
v 0.000000 166.026947 71.876862
v 18.893898 128.239029 -58.149643
v -49.465179 128.239029 -35.938416
v -49.465027 128.239014 35.938530
v 18.893898 128.239044 58.149681
v 61.141983 128.239029 0.000038
v 30.570976 104.884811 -22.211151
v -11.677246 104.884811 -35.938416
v -37.788086 104.884811 0.000038
v -11.677246 104.884811 35.938454
v 30.570976 104.884811 22.211189
vt 0.270536 0.303849
vt 0.270536 0.303849
vt 0.270536 0.303849
vt 0.270536 0.303849
vt 0.270536 0.303849
vt 0.270536 0.303849
vt 0.270536 0.303849
vt 0.270536 0.303849
vt 0.270536 0.303849
vt 0.270536 0.303849
vt 0.270536 0.303849
vt 0.270536 0.303849
vt 0.270536 0.303849
vt 0.270536 0.303849
vt 0.270536 0.303849
vt 0.270536 0.303849
vt 0.270536 0.303849
vt 0.270536 0.303849
vt 0.270536 0.303849
vt 0.270536 0.303849
vt 0.270536 0.303849
vt 0.270536 0.303849
vt 0.270536 0.303849
vt 0.270536 0.303849
vt 0.270536 0.303849
vt 0.270536 0.303849
vt 0.270536 0.303849
vt 0.270536 0.303849
vt 0.270536 0.303849
vt 0.270536 0.303849
vt 0.270536 0.303849
vt 0.270536 0.303849
vt 0.270536 0.303849
vt 0.270536 0.303849
vt 0.270536 0.303849
vt 0.270536 0.303849
vt 0.249863 0.300168
vt 0.249863 0.300168
vt 0.249863 0.300168
vt 0.249863 0.300168
vt 0.249863 0.300168
vt 0.249863 0.300168
vt 0.249863 0.300168
vt 0.249863 0.300168
vt 0.249863 0.300168
vt 0.249863 0.300168
vt 0.249863 0.300168
vt 0.249863 0.300168
vt 0.249863 0.300168
vt 0.249863 0.300168
vt 0.249863 0.300168
vt 0.249863 0.300168
vt 0.249863 0.300168
vt 0.249863 0.300168
vt 0.249863 0.300168
vt 0.249863 0.300168
vt 0.249863 0.300168
vt 0.249863 0.300168
vt 0.249863 0.300168
vt 0.249863 0.300168
vt 0.249863 0.300168
vt 0.249863 0.300168
vt 0.249863 0.300168
vt 0.249863 0.300168
vt 0.249863 0.300168
vt 0.249863 0.300168
vt 0.249863 0.300168
vt 0.249863 0.300168
vt 0.249863 0.300168
vt 0.249863 0.300168
vt 0.249863 0.300168
vt 0.249863 0.300168
vt 0.249863 0.300168
vt 0.249863 0.300168
vt 0.249863 0.300168
vt 0.249863 0.300168
vt 0.249863 0.300168
vt 0.249863 0.300168
vn 0.000000 0.000000 1.000000
vn 0.000000 0.000000 1.000000
vn 0.000000 0.000000 1.000000
vn 0.000000 0.000000 1.000000
vn 0.000000 0.000000 -1.000000
vn 0.000000 0.000000 -1.000000
vn 0.000000 0.000000 -1.000000
vn 0.000000 0.000000 -1.000000
vn 1.000000 0.000000 0.000000
vn 1.000000 0.000000 0.000000
vn 1.000000 0.000000 0.000000
vn 1.000000 0.000000 0.000000
vn -1.000000 0.000000 0.000000
vn -1.000000 0.000000 0.000000
vn -1.000000 0.000000 0.000000
vn -1.000000 0.000000 0.000000
vn 0.000000 0.000000 1.000000
vn 0.000000 0.000000 1.000000
vn 0.000000 0.000000 1.000000
vn 0.000000 0.000000 1.000000
vn 0.000000 0.000000 -1.000000
vn 0.000000 0.000000 -1.000000
vn 0.000000 0.000000 -1.000000
vn 0.000000 0.000000 -1.000000
vn 1.000000 0.000000 0.000000
vn 1.000000 0.000000 0.000000
vn 1.000000 0.000000 0.000000
vn 1.000000 0.000000 0.000000
vn -1.000000 0.000000 0.000000
vn -1.000000 0.000000 0.000000
vn -1.000000 0.000000 0.000000
vn -1.000000 0.000000 0.000000
vn 0.000000 1.000000 0.000000
vn 0.000000 1.000000 0.000000
vn 0.000000 1.000000 0.000000
vn 0.000000 1.000000 0.000000
vn 0.268035 0.943522 -0.194739
vn 0.268035 0.943522 -0.194739
vn 0.268035 0.943522 -0.194739
vn 0.724043 0.661694 -0.194739
vn 0.724043 0.661694 -0.194739
vn 0.724043 0.661694 -0.194739
vn 0.491123 0.794655 -0.356822
vn 0.491123 0.794655 -0.356822
vn 0.491123 0.794655 -0.356822
vn 0.408949 0.661694 -0.628428
vn 0.408949 0.661694 -0.628428
vn 0.408949 0.661694 -0.628428
vn -0.102380 0.943522 -0.315094
vn -0.102380 0.943522 -0.315094
vn -0.102380 0.943522 -0.315094
vn 0.038534 0.661694 -0.748783
vn 0.038534 0.661694 -0.748783
vn 0.038534 0.661694 -0.748783
vn -0.187593 0.794655 -0.577350
vn -0.187593 0.794655 -0.577350
vn -0.187593 0.794655 -0.577350
vn -0.471299 0.661694 -0.583129
vn -0.471299 0.661694 -0.583129
vn -0.471299 0.661694 -0.583129
vn -0.331309 0.943522 0.000000
vn -0.331309 0.943522 0.000000
vn -0.331309 0.943522 0.000000
vn -0.700228 0.661694 -0.268035
vn -0.700228 0.661694 -0.268035
vn -0.700228 0.661694 -0.268035
vn -0.607062 0.794654 0.000000
vn -0.607062 0.794654 0.000000
vn -0.607062 0.794654 0.000000
vn -0.700228 0.661694 0.268035
vn -0.700228 0.661694 0.268035
vn -0.700228 0.661694 0.268035
vn -0.102380 0.943522 0.315094
vn -0.102380 0.943522 0.315094
vn -0.102380 0.943522 0.315094
vn -0.471298 0.661694 0.583129
vn -0.471298 0.661694 0.583129
vn -0.471298 0.661694 0.583129
vn -0.187592 0.794654 0.577350
vn -0.187592 0.794654 0.577350
vn -0.187592 0.794655 0.577350
vn 0.038534 0.661694 0.748783
vn 0.038534 0.661694 0.748783
vn 0.038534 0.661694 0.748783
vn 0.268035 0.943522 0.194739
vn 0.268035 0.943522 0.194739
vn 0.268035 0.943522 0.194739
vn 0.408949 0.661694 0.628428
vn 0.408949 0.661694 0.628428
vn 0.408949 0.661694 0.628428
vn 0.491123 0.794655 0.356822
vn 0.491123 0.794655 0.356822
vn 0.491123 0.794655 0.356822
vn 0.724043 0.661694 0.194739
vn 0.724043 0.661694 0.194739
vn 0.724043 0.661694 0.194739
vn 0.992078 0.125624 0.000000
vn 0.992078 0.125624 0.000000
vn 0.992078 0.125624 0.000000
vn 0.904988 -0.330384 0.268035
vn 0.904988 -0.330384 0.268035
vn 0.904988 -0.330384 0.268035
vn 0.982247 -0.187592 -0.000000
vn 0.982247 -0.187592 -0.000000
vn 0.982247 -0.187592 -0.000000
vn 0.904988 -0.330384 -0.268035
vn 0.904988 -0.330384 -0.268035
vn 0.904988 -0.330384 -0.268035
vn 0.306569 0.125624 -0.943522
vn 0.306569 0.125624 -0.943522
vn 0.306569 0.125624 -0.943522
vn 0.534573 -0.330384 -0.777868
vn 0.534573 -0.330384 -0.777868
vn 0.534573 -0.330384 -0.777868
vn 0.303531 -0.187592 -0.934172
vn 0.303531 -0.187593 -0.934172
vn 0.303531 -0.187592 -0.934172
vn 0.024740 -0.330384 -0.943522
vn 0.024740 -0.330384 -0.943522
vn 0.024740 -0.330384 -0.943522
vn -0.802608 0.125624 -0.583129
vn -0.802608 0.125624 -0.583129
vn -0.802608 0.125624 -0.583129
vn -0.574604 -0.330384 -0.748783
vn -0.574604 -0.330384 -0.748783
vn -0.574604 -0.330384 -0.748783
vn -0.794655 -0.187592 -0.577350
vn -0.794655 -0.187592 -0.577350
vn -0.794655 -0.187592 -0.577350
vn -0.889698 -0.330384 -0.315094
vn -0.889698 -0.330384 -0.315094
vn -0.889698 -0.330384 -0.315094
vn -0.802608 0.125624 0.583129
vn -0.802608 0.125624 0.583129
vn -0.802608 0.125624 0.583129
vn -0.889698 -0.330384 0.315094
vn -0.889698 -0.330384 0.315094
vn -0.889698 -0.330384 0.315094
vn -0.794654 -0.187593 0.577350
vn -0.794654 -0.187593 0.577350
vn -0.794654 -0.187593 0.577350
vn -0.574603 -0.330384 0.748784
vn -0.574604 -0.330384 0.748784
vn -0.574603 -0.330384 0.748784
vn 0.306569 0.125624 0.943522
vn 0.306569 0.125624 0.943522
vn 0.306569 0.125624 0.943522
vn 0.024741 -0.330384 0.943522
vn 0.024741 -0.330384 0.943522
vn 0.024741 -0.330384 0.943522
vn 0.303531 -0.187593 0.934172
vn 0.303531 -0.187593 0.934172
vn 0.303531 -0.187593 0.934172
vn 0.534573 -0.330384 0.777868
vn 0.534573 -0.330384 0.777868
vn 0.534573 -0.330384 0.777868
vn 0.802608 -0.125624 -0.583129
vn 0.802608 -0.125624 -0.583129
vn 0.802608 -0.125624 -0.583129
vn 0.574604 0.330384 -0.748783
vn 0.574604 0.330384 -0.748783
vn 0.574604 0.330384 -0.748783
vn 0.794655 0.187592 -0.577350
vn 0.794655 0.187592 -0.577350
vn 0.794655 0.187592 -0.577350
vn 0.889698 0.330384 -0.315094
vn 0.889698 0.330384 -0.315094
vn 0.889698 0.330384 -0.315094
vn -0.306569 -0.125624 -0.943522
vn -0.306569 -0.125624 -0.943522
vn -0.306569 -0.125624 -0.943522
vn -0.534573 0.330384 -0.777868
vn -0.534573 0.330384 -0.777867
vn -0.534573 0.330384 -0.777868
vn -0.303531 0.187592 -0.934172
vn -0.303531 0.187592 -0.934172
vn -0.303531 0.187592 -0.934172
vn -0.024741 0.330384 -0.943522
vn -0.024741 0.330384 -0.943522
vn -0.024741 0.330384 -0.943522
vn -0.992078 -0.125624 -0.000000
vn -0.992078 -0.125624 -0.000000
vn -0.992078 -0.125624 -0.000000
vn -0.904988 0.330384 0.268035
vn -0.904988 0.330384 0.268035
vn -0.904988 0.330384 0.268035
vn -0.982247 0.187592 0.000000
vn -0.982247 0.187592 0.000000
vn -0.982247 0.187592 0.000000
vn -0.904988 0.330384 -0.268035
vn -0.904988 0.330384 -0.268035
vn -0.904988 0.330384 -0.268035
vn -0.306569 -0.125624 0.943522
vn -0.306568 -0.125624 0.943522
vn -0.306568 -0.125624 0.943522
vn -0.024740 0.330384 0.943522
vn -0.024740 0.330384 0.943522
vn -0.024740 0.330384 0.943522
vn -0.303531 0.187593 0.934173
vn -0.303531 0.187593 0.934173
vn -0.303531 0.187593 0.934173
vn -0.534573 0.330384 0.777868
vn -0.534573 0.330384 0.777868
vn -0.534573 0.330384 0.777868
vn 0.802608 -0.125624 0.583129
vn 0.802608 -0.125624 0.583129
vn 0.802608 -0.125624 0.583129
vn 0.889698 0.330384 0.315094
vn 0.889698 0.330384 0.315094
vn 0.889698 0.330384 0.315094
vn 0.794655 0.187592 0.577350
vn 0.794655 0.187592 0.577350
vn 0.794655 0.187592 0.577350
vn 0.574604 0.330384 0.748783
vn 0.574604 0.330384 0.748783
vn 0.574604 0.330384 0.748783
vn 0.102380 -0.943522 -0.315094
vn 0.102380 -0.943522 -0.315094
vn 0.102380 -0.943522 -0.315094
vn -0.038534 -0.661694 -0.748784
vn -0.038534 -0.661694 -0.748783
vn -0.038534 -0.661694 -0.748783
vn 0.187592 -0.794655 -0.577350
vn 0.187592 -0.794655 -0.577350
vn 0.187592 -0.794655 -0.577350
vn 0.471298 -0.661694 -0.583129
vn 0.471298 -0.661694 -0.583129
vn 0.471298 -0.661694 -0.583129
vn -0.268035 -0.943522 -0.194739
vn -0.268035 -0.943522 -0.194739
vn -0.268035 -0.943522 -0.194739
vn -0.724043 -0.661694 -0.194739
vn -0.724043 -0.661694 -0.194739
vn -0.724043 -0.661694 -0.194739
vn -0.491123 -0.794654 -0.356822
vn -0.491123 -0.794654 -0.356822
vn -0.491124 -0.794654 -0.356822
vn -0.408949 -0.661694 -0.628428
vn -0.408949 -0.661694 -0.628428
vn -0.408949 -0.661694 -0.628428
vn -0.268035 -0.943522 0.194739
vn -0.268035 -0.943522 0.194739
vn -0.268035 -0.943522 0.194739
vn -0.408949 -0.661694 0.628429
vn -0.408949 -0.661694 0.628428
vn -0.408949 -0.661694 0.628429
vn -0.491123 -0.794655 0.356822
vn -0.491123 -0.794655 0.356822
vn -0.491123 -0.794655 0.356822
vn -0.724043 -0.661694 0.194739
vn -0.724043 -0.661694 0.194739
vn -0.724043 -0.661694 0.194739
vn 0.102380 -0.943522 0.315094
vn 0.102380 -0.943522 0.315094
vn 0.102380 -0.943522 0.315094
vn 0.471298 -0.661694 0.583129
vn 0.471298 -0.661694 0.583129
vn 0.471298 -0.661694 0.583129
vn 0.187593 -0.794654 0.577350
vn 0.187593 -0.794654 0.577350
vn 0.187593 -0.794654 0.577350
vn -0.038534 -0.661694 0.748783
vn -0.038534 -0.661694 0.748783
vn -0.038534 -0.661694 0.748783
vn 0.331309 -0.943522 -0.000000
vn 0.331309 -0.943522 -0.000000
vn 0.331309 -0.943522 -0.000000
vn 0.700228 -0.661694 -0.268035
vn 0.700228 -0.661694 -0.268035
vn 0.700228 -0.661694 -0.268035
vn 0.607062 -0.794654 -0.000000
vn 0.607062 -0.794654 -0.000000
vn 0.607062 -0.794654 -0.000000
vn 0.700228 -0.661694 0.268035
vn 0.700228 -0.661694 0.268035
vn 0.700228 -0.661694 0.268035
vn 0.000000 -1.000000 0.000000
vn 0.000000 -1.000000 0.000000
vn 0.000000 -1.000000 0.000000
vn 0.000000 -1.000000 0.000000
s off
f 1/1/1 2/2/2 5/3/3 6/4/4
f 7/5/5 8/6/6 4/7/7 3/8/8
f 2/9/9 4/10/10 8/11/11 5/12/12
f 3/13/13 1/14/14 6/15/15 7/16/16
f 9/17/17 10/18/18 13/19/19 14/20/20
f 15/21/21 16/22/22 12/23/23 11/24/24
f 10/25/25 12/26/26 16/27/27 13/28/28
f 11/29/29 9/30/30 14/31/31 15/32/32
f 13/33/33 16/34/34 15/35/35 14/36/36
f 17/37/37 29/38/38 30/39/39
f 29/38/40 18/40/41 34/41/42
f 29/38/43 34/41/44 30/39/45
f 30/39/46 34/41/47 19/42/48
f 17/37/49 30/39/50 31/43/51
f 30/39/52 19/42/53 35/44/54
f 30/39/55 35/44/56 31/43/57
f 31/43/58 35/44/59 20/45/60
f 17/37/61 31/43/62 32/46/63
f 31/43/64 20/45/65 36/47/66
f 31/43/67 36/47/68 32/46/69
f 32/46/70 36/47/71 21/48/72
f 17/37/73 32/46/74 33/49/75
f 32/46/76 21/48/77 37/50/78
f 32/46/79 37/50/80 33/49/81
f 33/49/82 37/50/83 22/51/84
f 17/37/85 33/49/86 29/38/87
f 33/49/88 22/51/89 38/52/90
f 33/49/91 38/52/92 29/38/93
f 29/38/94 38/52/95 18/40/96
f 18/40/97 44/53/98 39/54/99
f 44/53/100 27/55/101 53/56/102
f 44/53/103 53/56/104 39/54/105
f 39/54/106 53/56/107 23/57/108
f 19/42/109 45/58/110 40/59/111
f 45/58/112 23/57/113 49/60/114
f 45/58/115 49/60/116 40/59/117
f 40/59/118 49/60/119 24/61/120
f 20/45/121 46/62/122 41/63/123
f 46/62/124 24/61/125 50/64/126
f 46/62/127 50/64/128 41/63/129
f 41/63/130 50/64/131 25/65/132
f 21/48/133 47/66/134 42/67/135
f 47/66/136 25/65/137 51/68/138
f 47/66/139 51/68/140 42/67/141
f 42/67/142 51/68/143 26/69/144
f 22/51/145 48/70/146 43/71/147
f 48/70/148 26/69/149 52/72/150
f 48/70/151 52/72/152 43/71/153
f 43/71/154 52/72/155 27/55/156
f 23/57/157 45/58/158 39/54/159
f 45/58/160 19/42/161 34/41/162
f 45/58/163 34/41/164 39/54/165
f 39/54/166 34/41/167 18/40/168
f 24/61/169 46/62/170 40/59/171
f 46/62/172 20/45/173 35/44/174
f 46/62/175 35/44/176 40/59/177
f 40/59/178 35/44/179 19/42/180
f 25/65/181 47/66/182 41/63/183
f 47/66/184 21/48/185 36/47/186
f 47/66/187 36/47/188 41/63/189
f 41/63/190 36/47/191 20/45/192
f 26/69/193 48/70/194 42/67/195
f 48/70/196 22/51/197 37/50/198
f 48/70/199 37/50/200 42/67/201
f 42/67/202 37/50/203 21/48/204
f 27/55/205 44/53/206 43/71/207
f 44/53/208 18/40/209 38/52/210
f 44/53/211 38/52/212 43/71/213
f 43/71/214 38/52/215 22/51/216
f 28/73/217 55/74/218 54/75/219
f 55/74/220 24/61/221 49/60/222
f 55/74/223 49/60/224 54/75/225
f 54/75/226 49/60/227 23/57/228
f 28/73/229 56/76/230 55/74/231
f 56/76/232 25/65/233 50/64/234
f 56/76/235 50/64/236 55/74/237
f 55/74/238 50/64/239 24/61/240
f 28/73/241 57/77/242 56/76/243
f 57/77/244 26/69/245 51/68/246
f 57/77/247 51/68/248 56/76/249
f 56/76/250 51/68/251 25/65/252
f 28/73/253 58/78/254 57/77/255
f 58/78/256 27/55/257 52/72/258
f 58/78/259 52/72/260 57/77/261
f 57/77/262 52/72/263 26/69/264
f 28/73/265 54/75/266 58/78/267
f 54/75/268 23/57/269 53/56/270
f 54/75/271 53/56/272 58/78/273
f 58/78/274 53/56/275 27/55/276
f 10/18/277 9/30/278 11/24/279 12/26/280
