# This file uses meters as units for non-parametric coordinates.

v -50.000000 -46.225376 46.225422
v -46.225357 -50.000000 46.225422
v -46.225357 -46.225376 50.000008
v 46.225357 -50.000000 46.225422
v 50.000000 -46.225376 46.225422
v 46.225357 -46.225376 50.000008
v -46.225357 50.000000 46.225422
v -50.000000 46.225376 46.225422
v -46.225357 46.225376 50.000008
v 50.000000 46.225376 46.225422
v 46.225357 50.000000 46.225422
v 46.225357 46.225376 50.000008
v -46.225357 46.225376 -50.000008
v -50.000000 46.225376 -46.225391
v -46.225357 50.000000 -46.225391
v 50.000000 46.225376 -46.225391
v 46.225357 46.225376 -50.000008
v 46.225357 50.000000 -46.225391
v -46.225357 -50.000000 -46.225391
v -50.000000 -46.225376 -46.225391
v -46.225357 -46.225376 -50.000008
v 50.000000 -46.225376 -46.225391
v 46.225357 -50.000000 -46.225391
v 46.225357 -46.225376 -50.000008
v -22.626015 50.000000 46.225422
v -22.626013 50.000000 -46.225391
v -20.414719 43.695419 -50.000008
v -22.626013 -46.225368 -50.000008
v 18.427645 -50.000000 -44.179802
v -22.626013 -50.000000 46.225422
v -20.715376 -43.448715 50.000008
v -24.854935 43.952477 50.000008
v 46.225357 -15.969543 50.000008
v -22.626015 -15.969543 50.000008
v -46.225357 -15.969546 50.000008
v -50.000000 -15.969543 46.225422
v -50.000000 28.413467 -44.013901
v -46.225357 -15.969543 -50.000008
v -22.626013 -15.969543 -50.000008
v 44.465553 25.034504 -50.000008
v 50.000000 -15.969543 -46.225395
v 50.000000 -12.339331 43.120659
v -50.000000 46.225368 8.474881
v -46.225357 50.000000 -1.279047
v -46.225357 50.000000 27.887980
v -40.829094 50.000000 20.058712
v 50.000000 -46.225376 -6.491052
v 50.000000 -46.225368 -25.127747
v 46.225357 -50.000000 -18.541735
v 50.000000 -38.779800 -17.663788
v -46.225357 -39.574387 -50.000008
v -46.225357 -24.462841 -50.000008
v -50.000000 -28.293247 -45.694077
v -43.052296 -32.105499 -49.999992
vt 0.248092 0.303113
vt 0.248092 0.303113
vt 0.248092 0.303113
vt 0.248092 0.303113
vt 0.248092 0.303113
vt 0.248092 0.303113
vt 0.248092 0.303113
vt 0.248092 0.303113
vt 0.248092 0.303113
vt 0.248092 0.303113
vt 0.248092 0.303113
vt 0.248092 0.303113
vt 0.248092 0.303113
vt 0.248092 0.303113
vt 0.248092 0.303113
vt 0.248092 0.303113
vt 0.248092 0.303113
vt 0.248092 0.303113
vt 0.248092 0.303113
vt 0.248092 0.303113
vt 0.248092 0.303113
vt 0.248092 0.303113
vt 0.248092 0.303113
vt 0.248092 0.303113
vt 0.248092 0.303113
vt 0.248092 0.303113
vt 0.248092 0.303113
vt 0.248092 0.303113
vt 0.248092 0.303113
vt 0.248092 0.303113
vt 0.248092 0.303113
vt 0.248092 0.303113
vt 0.248092 0.303113
vt 0.248092 0.303113
vt 0.248092 0.303113
vt 0.248092 0.303113
vt 0.248092 0.303113
vt 0.248092 0.303113
vt 0.248092 0.303113
vt 0.248092 0.303113
vt 0.248092 0.303113
vt 0.248092 0.303113
vt 0.248092 0.303113
vt 0.248092 0.303113
vt 0.248092 0.303113
vt 0.248092 0.303113
vt 0.248092 0.303113
vt 0.248092 0.303113
vt 0.248092 0.303113
vt 0.248092 0.303113
vt 0.248092 0.303113
vt 0.248092 0.303113
vt 0.248092 0.303113
vt 0.248092 0.303113
vt 0.248092 0.303113
vt 0.248092 0.303113
vt 0.248092 0.303113
vt 0.248092 0.303113
vt 0.248092 0.303113
vt 0.248092 0.303113
vt 0.248092 0.303113
vt 0.248092 0.303113
vt 0.248092 0.303113
vt 0.248092 0.303113
vt 0.248092 0.303113
vt 0.248092 0.303113
vt 0.248092 0.303113
vt 0.248092 0.303113
vt 0.248092 0.303113
vt 0.248092 0.303113
vt 0.248092 0.303113
vt 0.248092 0.303113
vt 0.248092 0.303113
vt 0.248092 0.303113
vt 0.248092 0.303113
vt 0.248092 0.303113
vn 0.000000 -1.000000 -0.000000
vn 0.000000 -1.000000 -0.000000
vn 0.000000 -1.000000 -0.000000
vn 0.000000 -1.000000 -0.000000
vn 0.000000 0.000000 1.000000
vn 0.000000 0.000000 1.000000
vn 0.000000 0.000000 1.000000
vn 0.000000 0.000000 1.000000
vn -1.000000 0.000000 0.000000
vn -1.000000 0.000000 0.000000
vn -1.000000 0.000000 0.000000
vn -1.000000 0.000000 0.000000
vn -1.000000 0.000000 0.000000
vn 1.000000 -0.000000 0.000000
vn 1.000000 -0.000000 0.000000
vn 1.000000 -0.000000 0.000000
vn 1.000000 -0.000000 0.000000
vn 1.000000 -0.000000 0.000000
vn 1.000000 -0.000000 0.000000
vn 1.000000 -0.000000 0.000000
vn 0.000000 1.000000 -0.000000
vn 0.000000 1.000000 -0.000000
vn 0.000000 1.000000 -0.000000
vn 0.000000 1.000000 -0.000000
vn 0.000000 1.000000 -0.000000
vn -0.000000 0.000000 -1.000000
vn -0.000000 0.000000 -1.000000
vn -0.000000 0.000000 -1.000000
vn -0.000000 0.000000 -1.000000
vn -0.000000 0.000000 -1.000000
vn -0.000000 0.000000 -1.000000
vn -0.000000 0.000000 -1.000000
vn -0.707105 -0.707109 0.000000
vn -0.707105 -0.707109 0.000000
vn -0.707105 -0.707109 0.000000
vn -0.707105 -0.707109 0.000000
vn 0.033579 -0.593894 0.803842
vn 0.033579 -0.593894 0.803842
vn 0.033579 -0.593894 0.803842
vn 0.033579 -0.593894 0.803842
vn -0.707101 0.000000 0.707112
vn -0.707101 0.000000 0.707112
vn -0.707101 0.000000 0.707112
vn -0.707101 0.000000 0.707112
vn 0.811027 0.028284 0.584325
vn 0.811027 0.028284 0.584325
vn 0.811027 0.028284 0.584325
vn 0.811027 0.028284 0.584325
vn -0.707105 0.707109 0.000000
vn -0.707105 0.707109 0.000000
vn -0.707105 0.707109 0.000000
vn -0.707105 0.707109 0.000000
vn 0.030565 0.604736 0.795839
vn 0.030565 0.604736 0.795840
vn 0.030565 0.604736 0.795840
vn 0.030565 0.604736 0.795840
vn 0.707105 0.707109 0.000000
vn 0.707105 0.707109 0.000000
vn 0.707105 0.707109 0.000000
vn 0.707105 0.707109 0.000000
vn -0.774530 0.016295 -0.632327
vn -0.774530 0.016295 -0.632327
vn -0.774530 0.016295 -0.632327
vn -0.774530 0.016295 -0.632327
vn 0.030903 0.603531 -0.796740
vn 0.030903 0.603531 -0.796740
vn 0.030903 0.603531 -0.796740
vn 0.030903 0.603531 -0.796740
vn 0.659735 0.011437 -0.751412
vn 0.659735 0.011437 -0.751412
vn 0.659735 0.011437 -0.751412
vn 0.659735 0.011437 -0.751412
vn 0.015246 -0.753076 -0.657757
vn 0.015246 -0.753076 -0.657757
vn 0.015246 -0.753076 -0.657757
vn 0.015246 -0.753076 -0.657757
vn -0.577347 -0.577349 0.577355
vn -0.577347 -0.577349 0.577355
vn -0.577347 -0.577349 0.577355
vn 0.577347 -0.577349 0.577355
vn 0.577347 -0.577349 0.577355
vn 0.577347 -0.577349 0.577355
vn -0.577347 0.577349 0.577355
vn -0.577347 0.577349 0.577355
vn -0.577347 0.577349 0.577355
vn 0.577347 0.577349 0.577355
vn 0.577347 0.577349 0.577355
vn 0.577347 0.577349 0.577355
vn -0.577348 0.577351 -0.577352
vn -0.577348 0.577351 -0.577352
vn -0.577348 0.577351 -0.577352
vn 0.577348 0.577351 -0.577352
vn 0.577348 0.577351 -0.577352
vn 0.577348 0.577351 -0.577352
vn -0.577348 -0.577351 -0.577352
vn -0.577348 -0.577351 -0.577352
vn -0.577348 -0.577351 -0.577352
vn 0.577348 -0.577351 -0.577352
vn 0.577348 -0.577351 -0.577352
vn 0.577348 -0.577351 -0.577352
vn 0.000000 1.000000 0.000000
vn 0.000000 1.000000 0.000000
vn 0.000000 1.000000 0.000000
vn 0.000000 1.000000 0.000000
vn -0.011164 0.597875 -0.801512
vn -0.011164 0.597875 -0.801512
vn -0.011164 0.597875 -0.801512
vn -0.011164 0.597875 -0.801512
vn 0.000000 0.000000 -1.000000
vn 0.000000 0.000000 -1.000000
vn 0.000000 0.000000 -1.000000
vn 0.000000 0.000000 -1.000000
vn -0.012383 -0.810907 -0.585044
vn -0.012383 -0.810907 -0.585044
vn -0.012383 -0.810907 -0.585044
vn -0.012383 -0.810907 -0.585044
vn 0.000000 -1.000000 -0.000000
vn 0.000000 -1.000000 -0.000000
vn 0.000000 -1.000000 -0.000000
vn 0.000000 -1.000000 -0.000000
vn 0.000000 -1.000000 -0.000000
vn -0.012037 -0.588690 0.808269
vn -0.012037 -0.588690 0.808269
vn -0.012037 -0.588690 0.808269
vn -0.012037 -0.588690 0.808269
vn -0.000000 0.000000 1.000000
vn -0.000000 0.000000 1.000000
vn -0.000000 0.000000 1.000000
vn -0.000000 0.000000 1.000000
vn -0.009921 0.610774 0.791743
vn -0.009921 0.610774 0.791743
vn -0.009921 0.610774 0.791743
vn -0.009921 0.610774 0.791743
vn 0.000000 0.000000 1.000000
vn 0.000000 0.000000 1.000000
vn 0.000000 0.000000 1.000000
vn 0.000000 0.000000 1.000000
vn -0.000000 0.000000 1.000000
vn -0.000000 0.000000 1.000000
vn -0.000000 0.000000 1.000000
vn -0.000000 0.000000 1.000000
vn -0.707101 0.000000 0.707112
vn -0.707101 0.000000 0.707112
vn -0.707101 0.000000 0.707112
vn -0.707101 0.000000 0.707112
vn -1.000000 0.000000 0.000000
vn -1.000000 0.000000 0.000000
vn -1.000000 0.000000 0.000000
vn -1.000000 0.000000 0.000000
vn -0.824103 -0.015651 -0.566223
vn -0.824103 -0.015651 -0.566223
vn -0.824103 -0.015651 -0.566223
vn -0.824103 -0.015651 -0.566223
vn -0.000000 0.000000 -1.000000
vn -0.000000 0.000000 -1.000000
vn -0.000000 0.000000 -1.000000
vn -0.000000 0.000000 -1.000000
vn -0.000000 0.000000 -1.000000
vn -0.000000 0.000000 -1.000000
vn -0.000000 0.000000 -1.000000
vn -0.000000 0.000000 -1.000000
vn 0.595822 -0.012574 -0.803018
vn 0.595822 -0.012574 -0.803018
vn 0.595822 -0.012574 -0.803018
vn 0.595822 -0.012574 -0.803018
vn 1.000000 0.000000 0.000000
vn 1.000000 0.000000 0.000000
vn 1.000000 0.000000 0.000000
vn 1.000000 0.000000 0.000000
vn 0.818204 -0.014777 0.574738
vn 0.818204 -0.014777 0.574738
vn 0.818204 -0.014777 0.574738
vn 0.818204 -0.014777 0.574738
vn -0.707105 0.707109 0.000000
vn -0.707105 0.707109 0.000000
vn -0.707105 0.707109 0.000000
vn -0.707105 0.707109 0.000000
vn -0.212572 0.966099 -0.146514
vn -0.212572 0.966099 -0.146514
vn -0.212572 0.966099 -0.146514
vn -0.513121 0.848450 0.129767
vn -0.513121 0.848450 0.129767
vn -0.513121 0.848450 0.129767
vn -1.000000 -0.000000 0.000000
vn -1.000000 -0.000000 0.000000
vn -1.000000 -0.000000 0.000000
vn 0.000000 1.000000 -0.000000
vn 0.000000 1.000000 -0.000000
vn 0.000000 1.000000 -0.000000
vn 0.000000 1.000000 -0.000000
vn 0.707105 -0.707109 0.000000
vn 0.707105 -0.707109 0.000000
vn 0.707105 -0.707109 0.000000
vn 0.707105 -0.707109 0.000000
vn 0.707105 -0.707108 0.000000
vn 0.707105 -0.707108 0.000000
vn 0.707106 -0.707108 0.000000
vn 0.707106 -0.707108 0.000000
vn 0.888882 -0.324350 0.323551
vn 0.888882 -0.324350 0.323551
vn 0.888882 -0.324350 0.323551
vn 0.933464 -0.298467 -0.198901
vn 0.933464 -0.298467 -0.198901
vn 0.933464 -0.298467 -0.198901
vn -0.720111 0.014993 -0.693697
vn -0.720111 0.014993 -0.693697
vn -0.720111 0.014993 -0.693697
vn -0.720111 0.014993 -0.693697
vn -0.605810 -0.251521 -0.754806
vn -0.605810 -0.251521 -0.754806
vn -0.605810 -0.251521 -0.754806
vn -0.441113 0.187404 -0.877667
vn -0.441113 0.187404 -0.877667
vn -0.441113 0.187404 -0.877667
s off
f 19/26/1 29/43/2 30/44/3 2/7/4
f 31/46/5 34/49/6 35/50/7 3/29/8
f 36/51/9 37/52/10 53/74/11 20/4/12 1/10/13
f 22/5/14 41/57/15 42/59/16 5/31/17 47/65/18 50/70/19 48/67/20
f 25/39/21 26/40/22 15/34/23 44/62/24 46/64/25
f 39/55/26 28/42/27 21/37/28 51/72/29 54/76/30 52/73/31 38/54/32
f 2/7/33 1/8/34 20/9/35 19/26/36
f 3/29/37 2/28/38 30/45/39 31/46/40
f 1/10/41 3/29/42 35/50/43 36/51/44
f 6/13/45 5/31/46 42/59/47 33/48/48
f 43/61/49 44/62/50 15/34/51 14/15/52
f 7/16/53 9/32/54 32/47/55 25/39/56
f 11/18/57 10/19/58 16/35/59 18/22/60
f 37/53/61 38/54/62 52/73/63 53/75/64
f 13/21/65 15/34/66 26/40/67 27/41/68
f 40/56/69 41/58/70 22/25/71 24/27/72
f 19/26/73 21/37/74 28/42/75 29/43/76
f 1/10/77 2/28/78 3/29/79
f 4/30/80 5/31/81 6/13/82
f 7/16/83 8/2/84 9/32/85
f 10/33/86 11/18/87 12/17/88
f 13/21/89 14/15/90 15/34/91
f 16/35/92 17/23/93 18/22/94
f 19/26/95 20/36/96 21/37/97
f 22/25/98 23/38/99 24/27/100
f 11/18/101 18/22/102 26/40/103 25/39/104
f 27/41/105 26/40/106 18/22/107 17/23/108
f 40/56/109 24/27/110 28/42/111 39/55/112
f 29/43/113 28/42/114 24/27/115 23/38/116
f 30/44/117 29/43/118 23/38/119 49/69/120 4/1/121
f 31/46/122 30/45/123 4/30/124 6/13/125
f 6/13/126 33/48/127 34/49/128 31/46/129
f 25/39/130 32/47/131 12/17/132 11/18/133
f 33/48/134 12/17/135 32/47/136 34/49/137
f 35/50/138 34/49/139 32/47/140 9/32/141
f 36/51/142 35/50/143 9/32/144 8/2/145
f 8/2/146 43/60/147 37/52/148 36/51/149
f 14/20/150 13/21/151 38/54/152 37/53/153
f 27/41/154 39/55/155 38/54/156 13/21/157
f 17/23/158 40/56/159 39/55/160 27/41/161
f 17/23/162 16/24/163 41/58/164 40/56/165
f 42/59/166 41/57/167 16/6/168 10/33/169
f 33/48/170 42/59/171 10/33/172 12/17/173
f 8/14/174 7/16/175 45/63/176 43/61/177
f 43/61/178 45/63/179 46/64/180
f 43/61/181 46/64/182 44/62/183
f 37/52/184 43/60/185 14/3/186
f 25/39/187 46/64/188 45/63/189 7/16/190
f 5/11/191 4/1/192 49/69/193 47/66/194
f 48/68/195 49/69/196 23/38/197 22/12/198
f 48/67/199 50/70/200 49/71/201
f 49/71/202 50/70/203 47/65/204
f 53/75/205 51/72/206 21/37/207 20/36/208
f 53/75/209 52/73/210 54/76/211
f 53/75/212 54/76/213 51/72/214
