# This file uses meters as units for non-parametric coordinates.

v -50.000000 0.000000 45.755424
v -45.755424 0.000000 50.000000
v -50.000000 5.123632 45.755424
v -45.755424 5.123632 50.000000
v 50.000000 0.000000 45.755424
v 45.755424 0.000000 50.000000
v 50.000000 5.123632 45.755424
v 45.755424 5.123632 50.000000
v -50.000000 5.123632 -45.755424
v -45.755424 5.123632 -50.000000
v -50.000000 0.000000 -45.755424
v -45.755424 0.000000 -50.000000
v 45.755424 5.123632 -50.000000
v 50.000000 5.123632 -45.755424
v 50.000000 0.000000 -45.755424
v 45.755424 0.000000 -50.000000
v -41.864777 5.123632 45.748428
v -45.748428 5.123632 41.864769
v 41.864769 5.123632 45.748428
v 45.748428 5.123632 41.864769
v 45.748428 5.123632 -41.864777
v 41.864769 5.123632 -45.748428
v -41.864777 5.123632 -45.748428
v -45.748428 5.123632 -41.864777
v -40.500198 3.131176 44.257271
v -44.257278 3.131176 40.500198
v 40.500198 3.131176 44.257271
v 44.257271 3.131176 40.500198
v 44.257271 3.131176 -40.500198
v 40.500198 3.131176 -44.257278
v -40.500198 3.131176 -44.257278
v -44.257278 3.131176 -40.500198
v -34.180279 3.131176 -39.729446
v -38.870506 3.131176 -39.729446
v -41.215630 3.131176 -35.667587
v -38.870529 3.131176 -31.605740
v -34.180298 3.131176 -31.605740
v -31.835175 3.131176 -35.667587
v -34.409046 5.533411 -39.333206
v -38.641754 5.533411 -39.333206
v -40.758095 5.533411 -35.667587
v -38.641754 5.533411 -32.001972
v -34.409046 5.533411 -32.001972
v -32.292709 5.533411 -35.667587
v -36.525406 5.533411 -35.667587
v -34.180279 3.131176 32.759254
v -38.870506 3.131176 32.759254
v -41.215630 3.131176 36.821106
v -38.870529 3.131176 40.882957
v -34.180298 3.131176 40.882957
v -31.835175 3.131176 36.821106
v -34.409046 5.533411 33.155479
v -38.641754 5.533411 33.155479
v -40.758095 5.533411 36.821106
v -38.641754 5.533411 40.486740
v -34.409046 5.533411 40.486740
v -32.292709 5.533411 36.821106
v -36.525406 5.533411 36.821106
v 37.864647 3.131176 32.759254
v 33.174423 3.131176 32.759254
v 30.829298 3.131176 36.821106
v 33.174400 3.131176 40.882957
v 37.864624 3.131176 40.882957
v 40.209747 3.131176 36.821106
v 37.635880 5.533411 33.155479
v 33.403168 5.533411 33.155479
v 31.286833 5.533411 36.821106
v 33.403168 5.533411 40.486740
v 37.635880 5.533411 40.486740
v 39.752213 5.533411 36.821106
v 35.519524 5.533411 36.821106
v 37.864647 3.131176 -39.729446
v 33.174423 3.131176 -39.729446
v 30.829298 3.131176 -35.667587
v 33.174400 3.131176 -31.605740
v 37.864624 3.131176 -31.605740
v 40.209747 3.131176 -35.667587
v 37.635880 5.533411 -39.333206
v 33.403168 5.533411 -39.333206
v 31.286833 5.533411 -35.667587
v 33.403168 5.533411 -32.001972
v 37.635880 5.533411 -32.001972
v 39.752213 5.533411 -35.667587
v 35.519524 5.533411 -35.667587
vt 0.090839 0.331699
vt 0.090839 0.331699
vt 0.090839 0.331699
vt 0.090839 0.331699
vt 0.090839 0.331699
vt 0.090839 0.331699
vt 0.090839 0.331699
vt 0.090839 0.331699
vt 0.090839 0.331699
vt 0.090839 0.331699
vt 0.090839 0.331699
vt 0.090839 0.331699
vt 0.090839 0.331699
vt 0.090839 0.331699
vt 0.090839 0.331699
vt 0.090839 0.331699
vt 0.090839 0.331699
vt 0.090839 0.331699
vt 0.090839 0.331699
vt 0.090839 0.331699
vt 0.090839 0.331699
vt 0.090839 0.331699
vt 0.090839 0.331699
vt 0.090839 0.331699
vt 0.090839 0.331699
vt 0.090839 0.331699
vt 0.090839 0.331699
vt 0.090839 0.331699
vt 0.090839 0.331699
vt 0.090839 0.331699
vt 0.090839 0.331699
vt 0.090839 0.331699
vt 0.090839 0.331699
vt 0.090839 0.331699
vt 0.090839 0.303294
vt 0.090839 0.331699
vt 0.090839 0.331699
vt 0.090839 0.331699
vt 0.090839 0.331699
vt 0.090839 0.331699
vt 0.090839 0.331699
vt 0.090839 0.331699
vt 0.090839 0.331699
vt 0.090839 0.303294
vt 0.090839 0.303294
vt 0.090839 0.303294
vt 0.090839 0.303294
vt 0.090839 0.303294
vt 0.090839 0.303294
vt 0.090839 0.303294
vt 0.090193 0.283282
vt 0.090193 0.283282
vt 0.090193 0.283282
vt 0.090193 0.283282
vt 0.090193 0.283282
vt 0.090193 0.283282
vt 0.090193 0.283282
vt 0.090193 0.283282
vt 0.090193 0.283282
vt 0.090193 0.283282
vt 0.090193 0.283282
vt 0.090193 0.283282
vt 0.090193 0.283282
vt 0.090193 0.283282
vt 0.090193 0.283282
vt 0.090193 0.283282
vt 0.090193 0.283282
vt 0.090193 0.283282
vt 0.090193 0.283282
vt 0.090193 0.283282
vt 0.090193 0.283282
vt 0.090193 0.283282
vt 0.090193 0.283282
vt 0.090193 0.283282
vt 0.090193 0.283282
vt 0.090193 0.283282
vt 0.090193 0.283282
vt 0.090193 0.283282
vt 0.090193 0.283282
vt 0.090193 0.283282
vt 0.090193 0.283282
vt 0.090193 0.283282
vt 0.090193 0.283282
vt 0.090193 0.283282
vt 0.090193 0.283282
vt 0.090193 0.283282
vt 0.090193 0.283282
vt 0.090193 0.283282
vt 0.090193 0.283282
vt 0.090193 0.283282
vt 0.090193 0.283282
vt 0.090193 0.283282
vt 0.090193 0.283282
vt 0.090193 0.283282
vt 0.090193 0.283282
vt 0.090193 0.283282
vt 0.090193 0.283282
vt 0.090193 0.283282
vt 0.090193 0.283282
vt 0.090193 0.283282
vt 0.090193 0.283282
vt 0.090193 0.283282
vt 0.090193 0.283282
vt 0.090193 0.283282
vt 0.090193 0.283282
vt 0.090193 0.283282
vt 0.090193 0.283282
vt 0.090193 0.283282
vt 0.090193 0.283282
vt 0.090193 0.283282
vt 0.090193 0.283282
vt 0.090193 0.283282
vt 0.090193 0.283282
vt 0.090193 0.283282
vt 0.090193 0.283282
vt 0.090193 0.283282
vt 0.090193 0.283282
vt 0.090193 0.283282
vt 0.090193 0.283282
vt 0.090193 0.283282
vt 0.090193 0.283282
vt 0.090193 0.283282
vt 0.090193 0.283282
vt 0.090193 0.283282
vt 0.090193 0.283282
vt 0.090193 0.283282
vt 0.090193 0.283282
vt 0.090193 0.283282
vt 0.090193 0.283282
vt 0.090193 0.283282
vt 0.090193 0.283282
vt 0.090193 0.283282
vt 0.090193 0.283282
vt 0.090193 0.283282
vn 0.000000 0.000000 1.000000
vn 0.000000 0.000000 1.000000
vn 0.000000 0.000000 1.000000
vn 0.000000 0.000000 1.000000
vn 0.000000 0.000000 -1.000000
vn 0.000000 0.000000 -1.000000
vn 0.000000 0.000000 -1.000000
vn 0.000000 0.000000 -1.000000
vn 1.000000 0.000000 0.000000
vn 1.000000 0.000000 0.000000
vn 1.000000 0.000000 0.000000
vn 1.000000 0.000000 0.000000
vn -1.000000 0.000000 0.000000
vn -1.000000 0.000000 0.000000
vn -1.000000 0.000000 0.000000
vn -1.000000 0.000000 0.000000
vn 0.000000 1.000000 -0.000000
vn 0.000000 1.000000 -0.000000
vn 0.000000 1.000000 -0.000000
vn 0.000000 1.000000 -0.000000
vn 0.000000 1.000000 -0.000000
vn 0.000000 1.000000 -0.000000
vn 0.000000 1.000000 -0.000000
vn 0.000000 1.000000 -0.000000
vn 0.000000 -1.000000 0.000000
vn 0.000000 -1.000000 0.000000
vn 0.000000 -1.000000 0.000000
vn 0.000000 -1.000000 0.000000
vn 0.000000 -1.000000 0.000000
vn 0.000000 -1.000000 0.000000
vn 0.000000 -1.000000 0.000000
vn 0.000000 -1.000000 0.000000
vn -0.707107 0.000000 0.707107
vn -0.707107 0.000000 0.707107
vn -0.707107 0.000000 0.707107
vn -0.707107 0.000000 0.707107
vn 0.707107 0.000000 0.707107
vn 0.707107 0.000000 0.707107
vn 0.707107 0.000000 0.707107
vn 0.707107 0.000000 0.707107
vn -0.707107 0.000000 -0.707107
vn -0.707107 0.000000 -0.707107
vn -0.707107 0.000000 -0.707107
vn -0.707107 0.000000 -0.707107
vn 0.707107 0.000000 -0.707107
vn 0.707107 0.000000 -0.707107
vn 0.707107 0.000000 -0.707107
vn 0.707107 0.000000 -0.707107
vn 0.000000 1.000000 0.000000
vn 0.000000 1.000000 0.000000
vn 0.000000 1.000000 0.000000
vn 0.000000 1.000000 0.000000
vn 0.000000 1.000000 0.000000
vn 0.000000 1.000000 0.000000
vn 0.000000 1.000000 0.000000
vn 0.000000 1.000000 0.000000
vn 0.000000 1.000000 0.000000
vn 0.000000 1.000000 0.000000
vn 0.000000 1.000000 0.000000
vn 0.000000 1.000000 0.000000
vn 0.000000 1.000000 0.000000
vn 0.000000 1.000000 0.000000
vn 0.000000 1.000000 0.000000
vn 0.000000 1.000000 0.000000
vn 0.000000 1.000000 -0.000000
vn 0.000000 1.000000 -0.000000
vn 0.000000 1.000000 -0.000000
vn 0.000000 1.000000 -0.000000
vn 0.000000 1.000000 0.000000
vn 0.000000 1.000000 0.000000
vn 0.000000 1.000000 0.000000
vn 0.000000 1.000000 0.000000
vn 0.000000 1.000000 0.000000
vn 0.000000 1.000000 0.000000
vn 0.000000 1.000000 0.000000
vn 0.000000 1.000000 0.000000
vn 0.000000 1.000000 0.000000
vn 0.000000 1.000000 0.000000
vn 0.000000 1.000000 0.000000
vn 0.000000 1.000000 0.000000
vn 0.496643 0.711823 -0.496642
vn 0.496643 0.711823 -0.496642
vn 0.496643 0.711823 -0.496642
vn 0.496643 0.711823 -0.496642
vn 0.000000 0.599181 -0.800614
vn 0.000000 0.599181 -0.800614
vn 0.000000 0.599181 -0.800614
vn 0.000000 0.599181 -0.800614
vn -0.496643 0.711823 -0.496643
vn -0.496643 0.711823 -0.496643
vn -0.496643 0.711823 -0.496643
vn -0.496643 0.711823 -0.496643
vn -0.800614 0.599181 0.000000
vn -0.800614 0.599181 0.000000
vn -0.800614 0.599181 0.000000
vn -0.800614 0.599181 0.000000
vn -0.496643 0.711823 0.496643
vn -0.496643 0.711823 0.496643
vn -0.496643 0.711823 0.496643
vn -0.496643 0.711823 0.496643
vn 0.000000 0.599179 0.800615
vn 0.000000 0.599179 0.800615
vn 0.000000 0.599179 0.800615
vn 0.000000 0.599179 0.800615
vn 0.496643 0.711823 0.496643
vn 0.496643 0.711823 0.496643
vn 0.496643 0.711823 0.496642
vn 0.496643 0.711823 0.496642
vn 0.800616 0.599178 0.000000
vn 0.800616 0.599178 0.000000
vn 0.800616 0.599178 0.000000
vn 0.800616 0.599178 0.000000
vn 0.000000 0.162747 -0.986668
vn 0.000000 0.162747 -0.986668
vn 0.000000 0.162747 -0.986668
vn 0.000000 0.162747 -0.986668
vn -0.854480 0.162744 -0.493334
vn -0.854480 0.162744 -0.493334
vn -0.854480 0.162744 -0.493334
vn -0.854480 0.162744 -0.493334
vn -0.854480 0.162747 0.493333
vn -0.854480 0.162747 0.493333
vn -0.854480 0.162747 0.493333
vn -0.854480 0.162747 0.493333
vn 0.000000 0.162744 0.986668
vn 0.000000 0.162744 0.986668
vn 0.000000 0.162744 0.986668
vn 0.000000 0.162744 0.986668
vn 0.854480 0.162741 0.493335
vn 0.854480 0.162741 0.493335
vn 0.854480 0.162741 0.493335
vn 0.854480 0.162741 0.493335
vn 0.854481 0.162746 -0.493332
vn 0.854481 0.162746 -0.493332
vn 0.854481 0.162746 -0.493332
vn 0.854481 0.162746 -0.493332
vn 0.000000 1.000000 -0.000000
vn 0.000000 1.000000 -0.000000
vn 0.000000 1.000000 -0.000000
vn 0.000000 1.000000 -0.000000
vn 0.000000 1.000000 0.000000
vn 0.000000 1.000000 -0.000000
vn 0.000000 1.000000 0.000000
vn 0.000000 1.000000 0.000000
vn 0.000000 1.000000 -0.000000
vn 0.000000 1.000000 0.000000
vn 0.000000 1.000000 -0.000000
vn 0.000000 1.000000 -0.000000
vn 0.000000 1.000000 -0.000000
vn 0.000000 1.000000 -0.000000
vn 0.000000 1.000000 -0.000000
vn 0.000000 1.000000 -0.000000
vn 0.000000 1.000000 -0.000000
vn 0.000000 1.000000 -0.000000
vn 0.000000 0.162741 -0.986669
vn 0.000000 0.162741 -0.986669
vn 0.000000 0.162741 -0.986669
vn 0.000000 0.162741 -0.986669
vn -0.854480 0.162742 -0.493335
vn -0.854480 0.162742 -0.493335
vn -0.854480 0.162742 -0.493335
vn -0.854480 0.162742 -0.493335
vn -0.854481 0.162746 0.493332
vn -0.854481 0.162746 0.493332
vn -0.854481 0.162746 0.493332
vn -0.854481 0.162746 0.493332
vn 0.000000 0.162738 0.986669
vn 0.000000 0.162738 0.986669
vn 0.000000 0.162738 0.986669
vn 0.000000 0.162738 0.986669
vn 0.854481 0.162740 0.493334
vn 0.854481 0.162740 0.493334
vn 0.854481 0.162740 0.493334
vn 0.854481 0.162740 0.493334
vn 0.854481 0.162743 -0.493333
vn 0.854481 0.162743 -0.493333
vn 0.854481 0.162743 -0.493333
vn 0.854481 0.162743 -0.493333
vn 0.000000 1.000000 -0.000000
vn 0.000000 1.000000 -0.000000
vn 0.000000 1.000000 -0.000000
vn 0.000000 1.000000 -0.000000
vn 0.000000 1.000000 0.000000
vn 0.000000 1.000000 -0.000000
vn 0.000000 1.000000 0.000000
vn 0.000000 1.000000 0.000000
vn 0.000000 1.000000 -0.000000
vn 0.000000 1.000000 0.000000
vn 0.000000 1.000000 0.000000
vn 0.000000 1.000000 -0.000000
vn 0.000000 1.000000 0.000000
vn 0.000000 1.000000 -0.000000
vn 0.000000 1.000000 -0.000000
vn 0.000000 1.000000 -0.000000
vn 0.000000 1.000000 -0.000000
vn 0.000000 1.000000 -0.000000
vn 0.000000 0.162741 -0.986669
vn 0.000000 0.162741 -0.986669
vn 0.000000 0.162741 -0.986669
vn 0.000000 0.162741 -0.986669
vn -0.854480 0.162740 -0.493334
vn -0.854480 0.162740 -0.493334
vn -0.854480 0.162740 -0.493334
vn -0.854480 0.162740 -0.493334
vn -0.854481 0.162744 0.493332
vn -0.854481 0.162744 0.493332
vn -0.854481 0.162744 0.493332
vn -0.854481 0.162744 0.493332
vn 0.000000 0.162738 0.986669
vn 0.000000 0.162738 0.986669
vn 0.000000 0.162738 0.986669
vn 0.000000 0.162738 0.986669
vn 0.854481 0.162740 0.493334
vn 0.854481 0.162740 0.493334
vn 0.854481 0.162740 0.493334
vn 0.854481 0.162740 0.493334
vn 0.854481 0.162745 -0.493332
vn 0.854481 0.162745 -0.493332
vn 0.854481 0.162745 -0.493332
vn 0.854481 0.162745 -0.493332
vn 0.000000 1.000000 0.000000
vn 0.000000 1.000000 -0.000000
vn 0.000000 1.000000 -0.000000
vn 0.000000 1.000000 -0.000000
vn 0.000000 1.000000 -0.000000
vn 0.000000 1.000000 -0.000000
vn 0.000000 1.000000 -0.000000
vn 0.000000 1.000000 0.000000
vn 0.000000 1.000000 -0.000000
vn 0.000000 1.000000 0.000000
vn 0.000000 1.000000 0.000000
vn 0.000000 1.000000 -0.000000
vn 0.000000 1.000000 0.000000
vn 0.000000 1.000000 0.000000
vn 0.000000 1.000000 -0.000000
vn 0.000000 1.000000 0.000000
vn 0.000000 1.000000 0.000000
vn 0.000000 1.000000 -0.000000
vn 0.000000 0.162747 -0.986668
vn 0.000000 0.162747 -0.986668
vn 0.000000 0.162747 -0.986668
vn 0.000000 0.162747 -0.986668
vn -0.854480 0.162742 -0.493334
vn -0.854480 0.162742 -0.493334
vn -0.854480 0.162742 -0.493334
vn -0.854480 0.162742 -0.493334
vn -0.854480 0.162746 0.493333
vn -0.854480 0.162746 0.493333
vn -0.854480 0.162746 0.493333
vn -0.854480 0.162746 0.493333
vn 0.000000 0.162744 0.986668
vn 0.000000 0.162744 0.986668
vn 0.000000 0.162744 0.986668
vn 0.000000 0.162744 0.986668
vn 0.854480 0.162741 0.493335
vn 0.854480 0.162741 0.493335
vn 0.854480 0.162741 0.493335
vn 0.854480 0.162741 0.493335
vn 0.854481 0.162746 -0.493332
vn 0.854481 0.162746 -0.493332
vn 0.854481 0.162746 -0.493332
vn 0.854481 0.162746 -0.493332
vn 0.000000 1.000000 0.000000
vn 0.000000 1.000000 -0.000000
vn 0.000000 1.000000 -0.000000
vn 0.000000 1.000000 -0.000000
vn 0.000000 1.000000 -0.000000
vn 0.000000 1.000000 -0.000000
vn 0.000000 1.000000 -0.000000
vn 0.000000 1.000000 0.000000
vn 0.000000 1.000000 -0.000000
vn 0.000000 1.000000 0.000000
vn 0.000000 1.000000 0.000000
vn 0.000000 1.000000 -0.000000
vn 0.000000 1.000000 0.000000
vn 0.000000 1.000000 0.000000
vn 0.000000 1.000000 -0.000000
vn 0.000000 1.000000 0.000000
vn 0.000000 1.000000 0.000000
vn 0.000000 1.000000 -0.000000
s off
f 4/9/1 2/19/2 6/10/3 8/22/4
f 12/14/5 10/23/6 13/15/7 16/26/8
f 7/16/9 5/21/10 15/17/11 14/18/12
f 9/11/13 11/12/14 1/13/15 3/20/16
f 26/35/17 25/50/18 27/49/19 28/48/20 29/47/21 30/46/22 31/45/23 32/44/24
f 11/24/25 12/14/26 16/26/27 15/4/28 5/5/29 6/6/30 2/7/31 1/8/32
f 1/13/33 2/19/34 4/9/35 3/20/36
f 6/10/37 5/21/38 7/16/39 8/22/40
f 9/3/41 10/23/42 12/14/43 11/24/44
f 13/15/45 14/25/46 15/4/47 16/26/48
f 3/1/49 4/9/50 17/28/51 18/27/52
f 4/9/53 8/22/54 19/29/55 17/28/56
f 8/22/57 7/2/58 20/30/59 19/29/60
f 7/2/61 14/25/62 21/31/63 20/30/64
f 14/25/65 13/15/66 22/32/67 21/31/68
f 13/15/69 10/23/70 23/33/71 22/32/72
f 10/23/73 9/3/74 24/34/75 23/33/76
f 9/3/77 3/1/78 18/27/79 24/34/80
f 18/27/81 17/28/82 25/36/83 26/43/84
f 17/28/85 19/29/86 27/37/87 25/36/88
f 19/29/89 20/30/90 28/38/91 27/37/92
f 20/30/93 21/31/94 29/39/95 28/38/96
f 21/31/97 22/32/98 30/40/99 29/39/100
f 22/32/101 23/33/102 31/41/103 30/40/104
f 23/33/105 24/34/106 32/42/107 31/41/108
f 24/34/109 18/27/110 26/43/111 32/42/112
f 33/51/113 34/52/114 40/53/115 39/54/116
f 34/52/117 35/55/118 41/56/119 40/53/120
f 35/55/121 36/57/122 42/58/123 41/56/124
f 36/57/125 37/59/126 43/60/127 42/58/128
f 37/59/129 38/61/130 44/62/131 43/60/132
f 38/61/133 33/63/134 39/64/135 44/62/136
f 39/65/137 40/66/138 45/67/139
f 40/66/140 41/68/141 45/67/142
f 41/68/143 42/69/144 45/67/145
f 42/69/146 43/70/147 45/67/148
f 43/70/149 44/71/150 45/67/151
f 44/71/152 39/65/153 45/67/154
f 46/72/155 47/73/156 53/74/157 52/75/158
f 47/73/159 48/76/160 54/77/161 53/74/162
f 48/76/163 49/78/164 55/79/165 54/77/166
f 49/78/167 50/80/168 56/81/169 55/79/170
f 50/80/171 51/82/172 57/83/173 56/81/174
f 51/82/175 46/84/176 52/85/177 57/83/178
f 52/86/179 53/87/180 58/88/181
f 53/87/182 54/89/183 58/88/184
f 54/89/185 55/90/186 58/88/187
f 55/90/188 56/91/189 58/88/190
f 56/91/191 57/92/192 58/88/193
f 57/92/194 52/86/195 58/88/196
f 59/93/197 60/94/198 66/95/199 65/96/200
f 60/94/201 61/97/202 67/98/203 66/95/204
f 61/97/205 62/99/206 68/100/207 67/98/208
f 62/99/209 63/101/210 69/102/211 68/100/212
f 63/101/213 64/103/214 70/104/215 69/102/216
f 64/103/217 59/105/218 65/106/219 70/104/220
f 65/107/221 66/108/222 71/109/223
f 66/108/224 67/110/225 71/109/226
f 67/110/227 68/111/228 71/109/229
f 68/111/230 69/112/231 71/109/232
f 69/112/233 70/113/234 71/109/235
f 70/113/236 65/107/237 71/109/238
f 72/114/239 73/115/240 79/116/241 78/117/242
f 73/115/243 74/118/244 80/119/245 79/116/246
f 74/118/247 75/120/248 81/121/249 80/119/250
f 75/120/251 76/122/252 82/123/253 81/121/254
f 76/122/255 77/124/256 83/125/257 82/123/258
f 77/124/259 72/126/260 78/127/261 83/125/262
f 78/128/263 79/129/264 84/130/265
f 79/129/266 80/131/267 84/130/268
f 80/131/269 81/132/270 84/130/271
f 81/132/272 82/133/273 84/130/274
f 82/133/275 83/134/276 84/130/277
f 83/134/278 78/128/279 84/130/280
