# This file uses meters as units for non-parametric coordinates.

v 18.986975 0.037034 -18.986977
v -0.159101 -1.271166 -27.742950
v -18.986980 0.037034 -18.986977
v -26.851646 0.037034 0.000000
v -20.923376 -1.306801 17.350012
v -0.000002 0.037034 26.851643
v 18.986977 0.037034 18.986979
v 26.851643 0.037034 0.000000
v 21.370329 8.174312 -21.370329
v -0.000002 8.174312 -30.222212
v -21.370335 8.174312 -21.370329
v -30.222214 8.174312 0.000000
v -21.370335 8.174312 21.370329
v -0.000002 8.174312 30.222212
v 21.370331 8.174312 21.370335
v 30.222214 8.174312 0.000000
v 27.124252 11.544881 -27.124252
v -0.000002 11.544881 -38.359489
v -27.124258 11.544881 -27.124252
v -38.359489 11.544881 0.000000
v -27.124258 11.544881 27.124252
v -1.982391 11.596564 37.492935
v 27.124256 11.544881 27.124258
v 38.359489 11.544881 0.000000
v 32.878170 8.174311 -32.878174
v 3.041762 7.737788 -46.412235
v -32.878174 8.174311 -32.878174
v -46.821575 7.728035 1.691167
v -32.878174 8.174311 32.878174
v -0.000002 8.174311 46.496765
v 32.878174 8.174311 32.878178
v 46.496765 8.174311 0.000000
v 35.261528 0.037034 -35.261532
v -0.000002 0.037034 -49.867332
v -37.512924 1.862325 -33.488815
v -49.867332 0.037034 0.000000
v -35.261532 0.037034 35.261532
v -0.000002 0.037034 49.867332
v 35.567043 1.216730 35.767406
v 49.867332 0.037034 0.000000
v 32.878170 -8.100243 -32.878174
v -0.000002 -8.100243 -46.496765
v -32.878174 -8.100243 -32.878174
v -46.496765 -8.100243 0.000000
v -32.878174 -8.100243 32.878174
v -0.000002 -8.100243 46.496765
v 32.878174 -8.100243 32.878178
v 46.496765 -8.100243 0.000000
v 27.124252 -11.470813 -27.124252
v 1.410673 -11.596564 -38.724033
v -27.124258 -11.470813 -27.124252
v -38.359489 -11.470813 0.000000
v -27.124258 -11.470813 27.124252
v -0.000002 -11.470813 38.359493
v 28.165722 -11.413494 25.167118
v 38.359489 -11.470813 0.000000
v 21.370329 -8.100243 -21.370329
v -0.000002 -8.100243 -30.222212
v -21.370335 -8.100243 -21.370329
v -31.645077 -8.331053 1.518356
v -21.370335 -8.100243 21.370329
v -0.000002 -8.100243 30.222212
v 21.370331 -8.100243 21.370335
v 30.222214 -8.100243 0.000000
v 28.896629 11.544881 22.845381
v 36.069748 11.544881 5.527924
v 39.785835 8.174311 16.201611
v 28.200247 9.485284 12.522380
v 31.597769 9.278558 13.955765
vt 0.248092 0.303113
vt 0.248092 0.303113
vt 0.248092 0.303113
vt 0.248092 0.303113
vt 0.248092 0.303113
vt 0.248092 0.303113
vt 0.248092 0.303113
vt 0.248092 0.303113
vt 0.248092 0.303113
vt 0.248092 0.303113
vt 0.248092 0.303113
vt 0.248092 0.303113
vt 0.248092 0.303113
vt 0.248092 0.303113
vt 0.248092 0.303113
vt 0.248092 0.303113
vt 0.248092 0.303113
vt 0.248092 0.303113
vt 0.248092 0.303113
vt 0.248092 0.303113
vt 0.248092 0.303113
vt 0.248092 0.303113
vt 0.248092 0.303113
vt 0.248092 0.303113
vt 0.248092 0.303113
vt 0.248092 0.303113
vt 0.248092 0.303113
vt 0.248092 0.303113
vt 0.248092 0.303113
vt 0.248092 0.303113
vt 0.248092 0.303113
vt 0.248092 0.303113
vt 0.248092 0.303113
vt 0.248092 0.303113
vt 0.248092 0.303113
vt 0.248092 0.303113
vt 0.248092 0.303113
vt 0.248092 0.303113
vt 0.248092 0.303113
vt 0.248092 0.303113
vt 0.248092 0.303113
vt 0.248092 0.303113
vt 0.248092 0.303113
vt 0.248092 0.303113
vt 0.248092 0.303113
vt 0.248092 0.303113
vt 0.248092 0.303113
vt 0.248092 0.303113
vt 0.248092 0.303113
vt 0.248092 0.303113
vt 0.248092 0.303113
vt 0.248092 0.303113
vt 0.248092 0.303113
vt 0.248092 0.303113
vt 0.248092 0.303113
vt 0.248092 0.303113
vt 0.248092 0.303113
vt 0.248092 0.303113
vt 0.248092 0.303113
vt 0.248092 0.303113
vt 0.248092 0.303113
vt 0.248092 0.303113
vt 0.248092 0.303113
vt 0.248092 0.303113
vt 0.248092 0.303113
vt 0.248092 0.303113
vt 0.248092 0.303113
vt 0.248092 0.303113
vt 0.248092 0.303113
vt 0.248092 0.303113
vt 0.248092 0.303113
vt 0.248092 0.303113
vt 0.248092 0.303113
vt 0.248092 0.303113
vt 0.248092 0.303113
vt 0.248092 0.303113
vt 0.248092 0.303113
vt 0.248092 0.303113
vt 0.248092 0.303113
vt 0.248092 0.303113
vt 0.248092 0.303113
vt 0.248092 0.303113
vt 0.248092 0.303113
vt 0.248092 0.303113
vt 0.248092 0.303113
vt 0.248092 0.303113
vn -0.388603 0.297376 0.872098
vn -0.388603 0.297376 0.872098
vn -0.388603 0.297376 0.872098
vn -0.388603 0.297376 0.872098
vn 0.391794 0.290951 0.872837
vn 0.391794 0.290951 0.872837
vn 0.391794 0.290951 0.872837
vn 0.391794 0.290951 0.872837
vn 0.862856 0.357407 0.357407
vn 0.862856 0.357407 0.357407
vn 0.862856 0.357407 0.357407
vn 0.862856 0.357407 0.357407
vn 0.902158 0.271905 -0.334931
vn 0.902158 0.271905 -0.334931
vn 0.902158 0.271905 -0.334931
vn 0.902158 0.271905 -0.334931
vn 0.360170 0.368632 -0.856964
vn 0.360170 0.368632 -0.856964
vn 0.360170 0.368632 -0.856964
vn 0.360170 0.368632 -0.856964
vn -0.357407 0.357407 -0.862856
vn -0.357407 0.357407 -0.862856
vn -0.357407 0.357407 -0.862856
vn -0.357407 0.357407 -0.862856
vn -0.862856 0.357407 -0.357407
vn -0.862856 0.357407 -0.357407
vn -0.862856 0.357407 -0.357407
vn -0.862856 0.357407 -0.357407
vn -0.862856 0.357407 0.357407
vn -0.862856 0.357407 0.357407
vn -0.862856 0.357407 0.357407
vn -0.862856 0.357407 0.357407
vn -0.156558 0.912487 0.377964
vn -0.156558 0.912487 0.377964
vn -0.156558 0.912487 0.377964
vn -0.156558 0.912487 0.377964
vn 0.156558 0.912487 0.377964
vn 0.156558 0.912487 0.377964
vn 0.156558 0.912487 0.377964
vn 0.156558 0.912487 0.377964
vn 0.377964 0.912487 0.156558
vn 0.377964 0.912487 0.156558
vn 0.377964 0.912487 0.156558
vn 0.377964 0.912487 0.156558
vn 0.377964 0.912487 -0.156558
vn 0.377964 0.912487 -0.156558
vn 0.377964 0.912487 -0.156558
vn 0.377964 0.912487 -0.156558
vn 0.156798 0.910811 -0.381887
vn 0.156798 0.910811 -0.381887
vn 0.156798 0.910811 -0.381887
vn 0.156798 0.910811 -0.381887
vn -0.158996 0.893508 -0.419957
vn -0.158996 0.893508 -0.419957
vn -0.158996 0.893508 -0.419957
vn -0.158996 0.893508 -0.419957
vn -0.377964 0.912487 -0.156558
vn -0.377964 0.912487 -0.156558
vn -0.377964 0.912487 -0.156558
vn -0.377964 0.912487 0.156558
vn -0.377964 0.912487 0.156558
vn -0.377964 0.912487 0.156558
vn -0.377964 0.912487 0.156558
vn 0.156246 0.913594 -0.375411
vn 0.156246 0.913594 -0.375411
vn 0.156246 0.913594 -0.375411
vn 0.156246 0.913594 -0.375411
vn -0.162701 0.888160 -0.429767
vn -0.162700 0.888160 -0.429767
vn -0.162700 0.888160 -0.429767
vn -0.162701 0.888160 -0.429767
vn -0.408518 0.898577 -0.160226
vn -0.408518 0.898577 -0.160226
vn -0.408518 0.898577 -0.160226
vn -0.408518 0.898577 -0.160226
vn -0.379043 0.912017 0.156690
vn -0.379043 0.912017 0.156690
vn -0.379043 0.912017 0.156690
vn -0.379043 0.912017 0.156690
vn -0.157653 0.911718 0.379363
vn -0.157653 0.911718 0.379363
vn -0.157653 0.911718 0.379363
vn -0.157653 0.911718 0.379363
vn 0.137646 0.925179 0.353693
vn 0.137646 0.925179 0.353693
vn 0.137646 0.925179 0.353693
vn 0.137646 0.925179 0.353693
vn 0.051063 0.957308 0.284524
vn 0.051063 0.957308 0.284524
vn 0.051063 0.957308 0.284524
vn 0.377964 0.912487 -0.156558
vn 0.377964 0.912487 -0.156558
vn 0.377964 0.912487 -0.156558
vn 0.377964 0.912487 -0.156558
vn 0.375927 0.306713 -0.874417
vn 0.375927 0.306713 -0.874417
vn 0.375927 0.306713 -0.874417
vn 0.375927 0.306713 -0.874417
vn -0.330151 0.425358 -0.842657
vn -0.330151 0.425358 -0.842657
vn -0.330151 0.425358 -0.842657
vn -0.330151 0.425358 -0.842657
vn -0.815276 0.496232 -0.298461
vn -0.815276 0.496232 -0.298462
vn -0.815276 0.496232 -0.298461
vn -0.815276 0.496232 -0.298461
vn -0.872597 0.315603 0.372786
vn -0.872597 0.315603 0.372786
vn -0.872597 0.315603 0.372786
vn -0.872597 0.315603 0.372786
vn -0.357407 0.357407 0.862856
vn -0.357407 0.357407 0.862856
vn -0.357407 0.357407 0.862856
vn -0.357407 0.357407 0.862856
vn 0.336053 0.411242 0.847318
vn 0.336053 0.411242 0.847318
vn 0.336053 0.411242 0.847318
vn 0.336053 0.411242 0.847318
vn 0.849106 0.405617 0.338370
vn 0.849106 0.405617 0.338370
vn 0.849106 0.405617 0.338370
vn 0.849106 0.405617 0.338370
vn 0.849106 0.405617 0.338370
vn 0.862856 0.357406 -0.357407
vn 0.862856 0.357406 -0.357407
vn 0.862856 0.357406 -0.357407
vn 0.862856 0.357407 -0.357407
vn 0.357407 -0.357407 -0.862856
vn 0.357407 -0.357407 -0.862856
vn 0.357407 -0.357407 -0.862856
vn 0.357407 -0.357407 -0.862856
vn -0.381476 -0.290692 -0.877482
vn -0.381476 -0.290692 -0.877482
vn -0.381476 -0.290692 -0.877482
vn -0.381476 -0.290692 -0.877482
vn -0.854050 -0.389372 -0.344945
vn -0.854050 -0.389372 -0.344945
vn -0.854050 -0.389372 -0.344945
vn -0.854050 -0.389372 -0.344945
vn -0.862856 -0.357406 0.357407
vn -0.862856 -0.357406 0.357407
vn -0.862856 -0.357406 0.357407
vn -0.862856 -0.357406 0.357407
vn -0.357407 -0.357407 0.862856
vn -0.357407 -0.357407 0.862856
vn -0.357407 -0.357407 0.862856
vn -0.357407 -0.357407 0.862856
vn 0.355050 -0.363575 0.861250
vn 0.355050 -0.363575 0.861250
vn 0.355050 -0.363575 0.861250
vn 0.355050 -0.363575 0.861250
vn 0.862565 -0.358539 0.356976
vn 0.862565 -0.358539 0.356976
vn 0.862565 -0.358539 0.356976
vn 0.862565 -0.358539 0.356976
vn 0.862856 -0.357407 -0.357407
vn 0.862856 -0.357406 -0.357407
vn 0.862856 -0.357406 -0.357407
vn 0.862856 -0.357406 -0.357407
vn 0.174371 -0.899489 -0.400643
vn 0.174371 -0.899489 -0.400643
vn 0.174371 -0.899489 -0.400643
vn 0.174371 -0.899489 -0.400643
vn -0.157640 -0.911727 -0.379347
vn -0.157640 -0.911727 -0.379347
vn -0.157640 -0.911727 -0.379347
vn -0.157640 -0.911727 -0.379347
vn -0.377965 -0.912487 -0.156558
vn -0.377965 -0.912487 -0.156558
vn -0.377965 -0.912487 -0.156558
vn -0.377965 -0.912487 -0.156558
vn -0.377965 -0.912487 0.156558
vn -0.377965 -0.912487 0.156558
vn -0.377965 -0.912487 0.156558
vn -0.377965 -0.912487 0.156558
vn -0.156558 -0.912487 0.377965
vn -0.156558 -0.912487 0.377965
vn -0.156558 -0.912487 0.377965
vn -0.156558 -0.912487 0.377965
vn 0.152488 -0.926055 0.345209
vn 0.152488 -0.926055 0.345209
vn 0.152488 -0.926055 0.345209
vn 0.152488 -0.926055 0.345209
vn 0.380055 -0.911574 0.156813
vn 0.380055 -0.911574 0.156813
vn 0.380055 -0.911574 0.156813
vn 0.380055 -0.911574 0.156813
vn 0.377964 -0.912487 -0.156558
vn 0.377964 -0.912487 -0.156558
vn 0.377964 -0.912487 -0.156558
vn 0.377964 -0.912487 -0.156558
vn -0.155690 -0.918265 0.364076
vn -0.155690 -0.918265 0.364076
vn -0.155690 -0.918265 0.364076
vn -0.155690 -0.918265 0.364076
vn 0.157243 -0.907600 0.389278
vn 0.157243 -0.907600 0.389278
vn 0.157243 -0.907600 0.389278
vn 0.157243 -0.907600 0.389278
vn 0.381920 -0.910230 0.160059
vn 0.381920 -0.910230 0.160059
vn 0.381920 -0.910230 0.160059
vn 0.381920 -0.910230 0.160059
vn 0.406010 -0.895662 -0.181508
vn 0.406010 -0.895662 -0.181508
vn 0.406010 -0.895662 -0.181508
vn 0.406010 -0.895662 -0.181508
vn 0.156558 -0.912487 -0.377964
vn 0.156558 -0.912487 -0.377964
vn 0.156558 -0.912487 -0.377964
vn 0.156558 -0.912487 -0.377964
vn -0.177792 -0.898278 -0.401855
vn -0.177792 -0.898278 -0.401855
vn -0.177792 -0.898278 -0.401855
vn -0.177792 -0.898278 -0.401855
vn -0.371627 -0.916026 -0.150962
vn -0.371627 -0.916026 -0.150962
vn -0.371627 -0.916026 -0.150962
vn -0.371627 -0.916026 -0.150962
vn -0.377965 -0.912487 0.156558
vn -0.377965 -0.912487 0.156558
vn -0.377965 -0.912487 0.156558
vn -0.377965 -0.912487 0.156558
vn -0.365024 -0.343192 0.865434
vn -0.365024 -0.343192 0.865434
vn -0.365024 -0.343192 0.865434
vn -0.365024 -0.343192 0.865434
vn 0.368642 -0.336344 0.866589
vn 0.368642 -0.336344 0.866589
vn 0.368642 -0.336344 0.866589
vn 0.368642 -0.336344 0.866589
vn 0.846770 -0.387300 0.364663
vn 0.846770 -0.387300 0.364663
vn 0.846770 -0.387300 0.364663
vn 0.846770 -0.387300 0.364663
vn 0.826571 -0.421818 -0.372626
vn 0.826571 -0.421818 -0.372626
vn 0.826571 -0.421818 -0.372626
vn 0.826571 -0.421818 -0.372626
vn 0.372366 -0.420660 -0.827278
vn 0.372366 -0.420660 -0.827278
vn 0.372366 -0.420660 -0.827278
vn 0.372366 -0.420660 -0.827278
vn -0.357407 -0.357407 -0.862856
vn -0.357407 -0.357407 -0.862856
vn -0.357407 -0.357407 -0.862856
vn -0.357407 -0.357407 -0.862856
vn -0.862856 -0.357407 -0.357407
vn -0.862856 -0.357407 -0.357407
vn -0.862856 -0.357407 -0.357407
vn -0.862856 -0.357407 -0.357407
vn -0.862856 -0.357407 0.357407
vn -0.862856 -0.357407 0.357407
vn -0.862856 -0.357407 0.357407
vn -0.862856 -0.357407 0.357407
vn 0.377965 0.912487 0.156558
vn 0.377965 0.912487 0.156558
vn 0.377965 0.912487 0.156558
vn 0.377965 0.912487 0.156558
vn 0.377964 0.912487 0.156558
vn 0.377964 0.912487 0.156558
vn 0.377964 0.912487 0.156558
vn 0.377964 0.912487 0.156558
vn -0.041700 0.970182 0.238764
vn -0.041700 0.970182 0.238764
vn -0.041700 0.970182 0.238764
vn 0.144560 0.968455 -0.202974
vn 0.144560 0.968455 -0.202974
vn 0.144560 0.968455 -0.202974
vn 0.182340 0.964602 -0.190511
vn 0.182340 0.964602 -0.190511
vn 0.182340 0.964602 -0.190511
vn -0.377964 0.912487 -0.156558
vn -0.377964 0.912487 -0.156558
vn -0.377964 0.912487 -0.156558
vn -0.377964 0.912487 -0.156558
vn -0.377964 0.912487 -0.156558
vn -0.377964 0.912487 -0.156558
vn -0.377964 0.912487 -0.156558
vn -0.377964 0.912487 -0.156558
s off
f 2/2/1 1/1/2 9/10/3 10/11/4
f 3/3/5 2/2/6 10/11/7 11/12/8
f 4/4/9 3/3/10 11/12/11 12/13/12
f 5/5/13 4/4/14 12/13/15 13/14/16
f 6/6/17 5/5/18 13/14/19 14/15/20
f 7/7/21 6/6/22 14/15/23 15/16/24
f 8/8/25 7/7/26 15/16/27 16/17/28
f 1/9/29 8/8/30 16/17/31 9/18/32
f 10/11/33 9/10/34 17/19/35 18/20/36
f 11/12/37 10/11/38 18/20/39 19/21/40
f 12/13/41 11/12/42 19/21/43 20/22/44
f 13/14/45 12/13/46 20/22/47 21/23/48
f 14/15/49 13/14/50 21/23/51 22/24/52
f 15/16/53 14/15/54 22/24/55 23/25/56
f 16/17/57 15/16/58 68/85/59
f 9/18/60 16/17/61 24/26/62 17/27/63
f 18/20/64 17/19/65 25/28/66 26/29/67
f 19/21/68 18/20/69 26/29/70 27/30/71
f 20/22/72 19/21/73 27/30/74 28/31/75
f 21/23/76 20/22/77 28/31/78 29/32/79
f 22/24/80 21/23/81 29/32/82 30/33/83
f 23/25/84 22/24/85 30/33/86 31/34/87
f 67/84/88 66/83/89 69/86/90
f 17/27/91 24/26/92 32/35/93 25/36/94
f 26/29/95 25/28/96 33/37/97 34/38/98
f 27/30/99 26/29/100 34/38/101 35/39/102
f 28/31/103 27/30/104 35/39/105 36/40/106
f 29/32/107 28/31/108 36/40/109 37/41/110
f 30/33/111 29/32/112 37/41/113 38/42/114
f 31/34/115 30/33/116 38/42/117 39/43/118
f 32/35/119 67/84/120 31/34/121 39/43/122 40/44/123
f 25/36/124 32/35/125 40/44/126 33/45/127
f 34/38/128 33/37/129 41/46/130 42/47/131
f 35/39/132 34/38/133 42/47/134 43/48/135
f 36/40/136 35/39/137 43/48/138 44/49/139
f 37/41/140 36/40/141 44/49/142 45/50/143
f 38/42/144 37/41/145 45/50/146 46/51/147
f 39/43/148 38/42/149 46/51/150 47/52/151
f 40/44/152 39/43/153 47/52/154 48/53/155
f 33/45/156 40/44/157 48/53/158 41/54/159
f 42/47/160 41/46/161 49/55/162 50/56/163
f 43/48/164 42/47/165 50/56/166 51/57/167
f 44/49/168 43/48/169 51/57/170 52/58/171
f 45/50/172 44/49/173 52/58/174 53/59/175
f 46/51/176 45/50/177 53/59/178 54/60/179
f 47/52/180 46/51/181 54/60/182 55/61/183
f 48/53/184 47/52/185 55/61/186 56/62/187
f 41/54/188 48/53/189 56/62/190 49/63/191
f 50/56/192 49/55/193 57/64/194 58/65/195
f 51/57/196 50/56/197 58/65/198 59/66/199
f 52/58/200 51/57/201 59/66/202 60/67/203
f 53/59/204 52/58/205 60/67/206 61/68/207
f 54/60/208 53/59/209 61/68/210 62/69/211
f 55/61/212 54/60/213 62/69/214 63/70/215
f 56/62/216 55/61/217 63/70/218 64/71/219
f 49/63/220 56/62/221 64/71/222 57/72/223
f 58/65/224 57/64/225 1/73/226 2/74/227
f 59/66/228 58/65/229 2/74/230 3/75/231
f 60/67/232 59/66/233 3/75/234 4/76/235
f 61/68/236 60/67/237 4/76/238 5/77/239
f 62/69/240 61/68/241 5/77/242 6/78/243
f 63/70/244 62/69/245 6/78/246 7/79/247
f 64/71/248 63/70/249 7/79/250 8/80/251
f 57/72/252 64/71/253 8/80/254 1/81/255
f 67/84/256 65/82/257 23/25/258 31/34/259
f 24/26/260 66/83/261 67/84/262 32/35/263
f 66/83/264 68/85/265 69/86/266
f 69/86/267 68/85/268 65/82/269
f 67/84/270 69/86/271 65/82/272
f 68/85/273 15/16/274 23/25/275 65/82/276
f 16/17/277 68/85/278 66/83/279 24/26/280
