# This file uses meters as units for non-parametric coordinates.

v -10.000000 0.000000 0.000000
v -10.000000 0.000000 10.000000
v -10.000000 100.000000 0.000000
v -10.000000 100.000000 10.000000
v 0.000000 100.000000 0.000000
v 0.000000 100.000000 10.000000
v 0.000000 0.000000 0.000000
v 0.000000 0.000000 10.000000
v -60.000004 0.000000 0.000000
v -60.000004 0.000000 10.000004
v -60.000004 100.000000 0.000000
v -60.000004 100.000000 10.000004
v -50.000000 100.000000 0.000000
v -50.000000 100.000000 10.000000
v -50.000000 0.000000 0.000000
v -50.000000 0.000000 10.000000
v -10.000000 22.357048 2.357049
v -10.000000 22.357048 7.642951
v -50.000000 22.357048 2.357048
v -50.000000 22.357048 7.642951
v -50.000000 27.642954 2.357048
v -50.000000 27.642954 7.642951
v -10.000000 27.642954 2.357049
v -10.000000 27.642954 7.642951
v -10.000000 47.357048 2.357049
v -10.000000 47.357048 7.642951
v -50.000000 47.357048 2.357048
v -50.000000 47.357048 7.642951
v -50.000000 52.642952 2.357048
v -50.000000 52.642952 7.642951
v -10.000000 52.642952 2.357049
v -10.000000 52.642952 7.642951
v -10.000000 72.357048 2.357049
v -10.000000 72.357048 7.642951
v -50.000000 72.357048 2.357048
v -50.000000 72.357048 7.642951
v -50.000000 77.642952 2.357048
v -50.000000 77.642952 7.642951
v -10.000000 77.642952 2.357049
v -10.000000 77.642952 7.642951
vt 0.247760 0.303287
vt 0.247760 0.303287
vt 0.247760 0.303287
vt 0.247760 0.303287
vt 0.247760 0.303287
vt 0.247760 0.303287
vt 0.247760 0.303287
vt 0.247760 0.303287
vt 0.247760 0.303287
vt 0.247760 0.303287
vt 0.247760 0.303287
vt 0.247760 0.303287
vt 0.247760 0.303287
vt 0.247760 0.303287
vt 0.247760 0.303287
vt 0.247760 0.303287
vt 0.247760 0.303287
vt 0.247760 0.303287
vt 0.247760 0.303287
vt 0.247760 0.303287
vt 0.247760 0.303287
vt 0.247760 0.303287
vt 0.247760 0.303287
vt 0.247760 0.303287
vt 0.247760 0.303287
vt 0.247760 0.303287
vt 0.247760 0.303287
vt 0.247760 0.303287
vt 0.247760 0.303287
vt 0.247760 0.303287
vt 0.247760 0.303287
vt 0.247760 0.303287
vt 0.247760 0.303287
vt 0.247760 0.303287
vt 0.247760 0.303287
vt 0.247760 0.303287
vt 0.247760 0.303287
vt 0.247760 0.303287
vt 0.247760 0.303287
vt 0.247760 0.303287
vn -1.000000 0.000000 0.000000
vn -1.000000 0.000000 0.000000
vn -1.000000 0.000000 0.000000
vn -1.000000 0.000000 0.000000
vn -1.000000 0.000000 0.000000
vn -1.000000 0.000000 0.000000
vn 0.000000 1.000000 0.000000
vn 0.000000 1.000000 0.000000
vn 0.000000 1.000000 0.000000
vn 0.000000 1.000000 0.000000
vn 0.000000 1.000000 0.000000
vn 0.000000 1.000000 0.000000
vn 1.000000 0.000000 0.000000
vn 1.000000 0.000000 0.000000
vn 1.000000 0.000000 0.000000
vn 1.000000 0.000000 0.000000
vn 1.000000 0.000000 0.000000
vn 1.000000 0.000000 0.000000
vn 0.000000 -1.000000 0.000000
vn 0.000000 -1.000000 0.000000
vn 0.000000 -1.000000 0.000000
vn 0.000000 -1.000000 0.000000
vn 0.000000 -1.000000 0.000000
vn 0.000000 -1.000000 0.000000
vn 0.000000 0.000000 1.000000
vn 0.000000 0.000000 1.000000
vn 0.000000 0.000000 1.000000
vn 0.000000 0.000000 1.000000
vn 0.000000 0.000000 1.000000
vn 0.000000 0.000000 1.000000
vn 0.000000 0.000000 -1.000000
vn 0.000000 0.000000 -1.000000
vn 0.000000 0.000000 -1.000000
vn 0.000000 0.000000 -1.000000
vn 0.000000 0.000000 -1.000000
vn 0.000000 0.000000 -1.000000
vn -1.000000 0.000000 0.000000
vn -1.000000 0.000000 0.000000
vn -1.000000 0.000000 0.000000
vn -1.000000 0.000000 0.000000
vn -1.000000 0.000000 0.000000
vn -1.000000 0.000000 0.000000
vn 0.000000 1.000000 0.000000
vn 0.000000 1.000000 0.000000
vn 0.000000 1.000000 0.000000
vn 0.000000 1.000000 0.000000
vn 0.000000 1.000000 0.000000
vn 0.000000 1.000000 0.000000
vn 1.000000 0.000000 0.000000
vn 1.000000 0.000000 0.000000
vn 1.000000 0.000000 0.000000
vn 1.000000 0.000000 0.000000
vn 1.000000 0.000000 0.000000
vn 1.000000 0.000000 0.000000
vn 0.000000 -1.000000 0.000000
vn 0.000000 -1.000000 0.000000
vn 0.000000 -1.000000 0.000000
vn 0.000000 -1.000000 0.000000
vn 0.000000 -1.000000 0.000000
vn 0.000000 -1.000000 0.000000
vn 0.000000 0.000000 1.000000
vn 0.000000 0.000000 1.000000
vn 0.000000 0.000000 1.000000
vn 0.000000 0.000000 1.000000
vn 0.000000 0.000000 1.000000
vn 0.000000 0.000000 1.000000
vn 0.000000 0.000000 -1.000000
vn 0.000000 0.000000 -1.000000
vn 0.000000 0.000000 -1.000000
vn 0.000000 0.000000 -1.000000
vn 0.000000 0.000000 -1.000000
vn 0.000000 0.000000 -1.000000
vn 0.000000 -1.000000 0.000000
vn 0.000000 -1.000000 0.000000
vn 0.000000 -1.000000 0.000000
vn 0.000000 -1.000000 0.000000
vn 0.000000 -1.000000 0.000000
vn 0.000000 -1.000000 0.000000
vn -1.000000 0.000000 0.000000
vn -1.000000 0.000000 0.000000
vn -1.000000 0.000000 0.000000
vn -1.000000 0.000000 0.000000
vn -1.000000 0.000000 0.000000
vn -1.000000 0.000000 0.000000
vn 0.000000 1.000000 0.000000
vn 0.000000 1.000000 0.000000
vn 0.000000 1.000000 0.000000
vn 0.000000 1.000000 0.000000
vn 0.000000 1.000000 0.000000
vn 0.000000 1.000000 0.000000
vn 1.000000 0.000000 0.000000
vn 1.000000 0.000000 0.000000
vn 1.000000 0.000000 0.000000
vn 1.000000 0.000000 0.000000
vn 1.000000 0.000000 0.000000
vn 1.000000 0.000000 0.000000
vn 0.000000 0.000000 1.000000
vn 0.000000 0.000000 1.000000
vn 0.000000 0.000000 1.000000
vn 0.000000 0.000000 1.000000
vn 0.000000 0.000000 1.000000
vn 0.000000 0.000000 1.000000
vn 0.000000 0.000000 -1.000000
vn 0.000000 0.000000 -1.000000
vn 0.000000 0.000000 -1.000000
vn 0.000000 0.000000 -1.000000
vn 0.000000 0.000000 -1.000000
vn 0.000000 0.000000 -1.000000
vn 0.000000 -1.000000 0.000000
vn 0.000000 -1.000000 0.000000
vn 0.000000 -1.000000 0.000000
vn 0.000000 -1.000000 0.000000
vn 0.000000 -1.000000 0.000000
vn 0.000000 -1.000000 0.000000
vn -1.000000 0.000000 0.000000
vn -1.000000 0.000000 0.000000
vn -1.000000 0.000000 0.000000
vn -1.000000 0.000000 0.000000
vn -1.000000 0.000000 0.000000
vn -1.000000 0.000000 0.000000
vn 0.000000 1.000000 0.000000
vn 0.000000 1.000000 0.000000
vn 0.000000 1.000000 0.000000
vn 0.000000 1.000000 0.000000
vn 0.000000 1.000000 0.000000
vn 0.000000 1.000000 0.000000
vn 1.000000 0.000000 0.000000
vn 1.000000 0.000000 0.000000
vn 1.000000 0.000000 0.000000
vn 1.000000 0.000000 0.000000
vn 1.000000 0.000000 0.000000
vn 1.000000 0.000000 0.000000
vn 0.000000 0.000000 1.000000
vn 0.000000 0.000000 1.000000
vn 0.000000 0.000000 1.000000
vn 0.000000 0.000000 1.000000
vn 0.000000 0.000000 1.000000
vn 0.000000 0.000000 1.000000
vn 0.000000 0.000000 -1.000000
vn 0.000000 0.000000 -1.000000
vn 0.000000 0.000000 -1.000000
vn 0.000000 0.000000 -1.000000
vn 0.000000 0.000000 -1.000000
vn 0.000000 0.000000 -1.000000
vn 0.000000 -1.000000 0.000000
vn 0.000000 -1.000000 0.000000
vn 0.000000 -1.000000 0.000000
vn 0.000000 -1.000000 0.000000
vn 0.000000 -1.000000 0.000000
vn 0.000000 -1.000000 0.000000
vn -1.000000 0.000000 0.000000
vn -1.000000 0.000000 0.000000
vn -1.000000 0.000000 0.000000
vn -1.000000 0.000000 0.000000
vn -1.000000 0.000000 0.000000
vn -1.000000 0.000000 0.000000
vn 0.000000 1.000000 0.000000
vn 0.000000 1.000000 0.000000
vn 0.000000 1.000000 0.000000
vn 0.000000 1.000000 0.000000
vn 0.000000 1.000000 0.000000
vn 0.000000 1.000000 0.000000
vn 1.000000 0.000000 0.000000
vn 1.000000 0.000000 0.000000
vn 1.000000 0.000000 0.000000
vn 1.000000 0.000000 0.000000
vn 1.000000 0.000000 0.000000
vn 1.000000 0.000000 0.000000
vn 0.000000 0.000000 1.000000
vn 0.000000 0.000000 1.000000
vn 0.000000 0.000000 1.000000
vn 0.000000 0.000000 1.000000
vn 0.000000 0.000000 1.000000
vn 0.000000 0.000000 1.000000
vn 0.000000 0.000000 -1.000000
vn 0.000000 0.000000 -1.000000
vn 0.000000 0.000000 -1.000000
vn 0.000000 0.000000 -1.000000
vn 0.000000 0.000000 -1.000000
vn 0.000000 0.000000 -1.000000
s off
f 1/1/1 2/2/2 3/4/3
f 3/4/4 2/2/5 4/3/6
f 3/4/7 4/3/8 5/6/9
f 5/6/10 4/3/11 6/5/12
f 8/7/13 7/8/14 6/5/15
f 6/5/16 7/8/17 5/6/18
f 7/8/19 8/7/20 1/1/21
f 1/1/22 8/7/23 2/2/24
f 4/3/25 2/2/26 6/5/27
f 6/5/28 2/2/29 8/7/30
f 7/8/31 1/1/32 5/6/33
f 5/6/34 1/1/35 3/4/36
f 9/9/37 10/10/38 11/12/39
f 11/12/40 10/10/41 12/11/42
f 11/12/43 12/11/44 13/14/45
f 13/14/46 12/11/47 14/13/48
f 13/14/49 14/13/50 15/16/51
f 15/16/52 14/13/53 16/15/54
f 15/16/55 16/15/56 9/9/57
f 9/9/58 16/15/59 10/10/60
f 10/10/61 16/15/62 12/11/63
f 12/11/64 16/15/65 14/13/66
f 15/16/67 9/9/68 13/14/69
f 13/14/70 9/9/71 11/12/72
f 17/17/73 18/18/74 19/20/75
f 19/20/76 18/18/77 20/19/78
f 19/20/79 20/19/80 21/22/81
f 21/22/82 20/19/83 22/21/84
f 21/22/85 22/21/86 23/24/87
f 23/24/88 22/21/89 24/23/90
f 23/24/91 24/23/92 17/17/93
f 17/17/94 24/23/95 18/18/96
f 18/18/97 24/23/98 20/19/99
f 20/19/100 24/23/101 22/21/102
f 23/24/103 17/17/104 21/22/105
f 21/22/106 17/17/107 19/20/108
f 25/25/109 26/26/110 27/28/111
f 27/28/112 26/26/113 28/27/114
f 27/28/115 28/27/116 29/30/117
f 29/30/118 28/27/119 30/29/120
f 29/30/121 30/29/122 31/32/123
f 31/32/124 30/29/125 32/31/126
f 31/32/127 32/31/128 25/25/129
f 25/25/130 32/31/131 26/26/132
f 26/26/133 32/31/134 28/27/135
f 28/27/136 32/31/137 30/29/138
f 31/32/139 25/25/140 29/30/141
f 29/30/142 25/25/143 27/28/144
f 33/33/145 34/34/146 35/36/147
f 35/36/148 34/34/149 36/35/150
f 35/36/151 36/35/152 37/38/153
f 37/38/154 36/35/155 38/37/156
f 37/38/157 38/37/158 39/40/159
f 39/40/160 38/37/161 40/39/162
f 39/40/163 40/39/164 33/33/165
f 33/33/166 40/39/167 34/34/168
f 34/34/169 40/39/170 36/35/171
f 36/35/172 40/39/173 38/37/174
f 39/40/175 33/33/176 37/38/177
f 37/38/178 33/33/179 35/36/180
