# This file uses meters as units for non-parametric coordinates.

v 35.355335 -50.000000 -35.355339
v -0.000003 -50.000000 -49.999996
v -35.355339 -50.000000 -35.355339
v -49.999996 -50.000000 -0.000001
v -35.355339 -50.000000 35.355335
v -0.000003 -50.000000 49.999996
v 35.355339 -50.000000 35.355339
v 50.000000 -50.000000 -0.000001
v 35.355335 50.000000 -35.355339
v -0.000003 50.000000 -49.999996
v -35.355339 50.000000 -35.355339
v -49.999996 50.000000 -0.000001
v -35.355339 50.000000 35.355335
v -0.000003 50.000000 49.999996
v 35.355339 50.000000 35.355339
v 50.000000 50.000000 -0.000001
v -0.000003 -50.000000 -0.000001
v -0.000003 50.000000 -0.000001
v 6.489256 50.000000 47.312054
v 21.027056 50.000000 41.290298
v 10.889546 50.000000 38.451248
v 9.915147 44.536201 45.892994
v 50.000000 4.994899 -0.000001
v 50.000000 34.366901 -0.000001
v 48.035152 19.896248 4.743499
v 48.689892 18.494349 -3.162901
v 13.868482 -50.000000 -44.255482
v 2.234560 -50.000000 -49.074409
v 6.748598 -44.580002 -47.204651
v 6.626097 -50.000000 -41.144451
v -35.355339 -1.732002 -35.355339
v -35.355339 30.253000 -35.355339
v -30.956350 15.911500 -37.177456
v -36.651005 15.123100 -32.227303
v -48.350727 50.000000 3.981681
v -39.750141 50.000000 24.745340
v -46.576004 43.713001 8.266249
v -39.350353 50.000000 11.654649
v 16.418736 -47.810524 43.199127
vt 0.248092 0.303113
vt 0.248092 0.303113
vt 0.248092 0.303113
vt 0.248092 0.303113
vt 0.248092 0.303113
vt 0.248092 0.303113
vt 0.248092 0.303113
vt 0.248092 0.303113
vt 0.248092 0.303113
vt 0.248092 0.303113
vt 0.248092 0.303113
vt 0.248092 0.303113
vt 0.248092 0.303113
vt 0.248092 0.303113
vt 0.248092 0.303113
vt 0.248092 0.303113
vt 0.248092 0.303113
vt 0.248092 0.303113
vt 0.248092 0.303113
vt 0.248092 0.303113
vt 0.248092 0.303113
vt 0.248092 0.303113
vt 0.248092 0.303113
vt 0.248092 0.303113
vt 0.248092 0.303113
vt 0.248092 0.303113
vt 0.248092 0.303113
vt 0.248092 0.303113
vt 0.248092 0.303113
vt 0.248092 0.303113
vt 0.248092 0.303113
vt 0.248092 0.303113
vt 0.248092 0.303113
vt 0.248092 0.303113
vt 0.248092 0.303113
vt 0.248092 0.303113
vt 0.248092 0.303113
vt 0.248092 0.303113
vt 0.248092 0.303113
vt 0.248092 0.303113
vt 0.248092 0.303113
vt 0.248092 0.303113
vt 0.248092 0.303113
vt 0.248092 0.303113
vt 0.248092 0.303113
vt 0.248092 0.303113
vt 0.248092 0.303113
vt 0.248092 0.303113
vt 0.248092 0.303113
vt 0.248092 0.303113
vt 0.248092 0.303113
vt 0.248092 0.303113
vt 0.248092 0.303113
vt 0.248092 0.303113
vt 0.248092 0.303113
vt 0.248092 0.303113
vt 0.248092 0.303113
vt 0.248092 0.303113
vt 0.248092 0.303113
vt 0.248092 0.303113
vt 0.248092 0.303113
vt 0.248092 0.303113
vt 0.248092 0.303113
vt 0.248092 0.303113
vt 0.248092 0.303113
vt 0.248092 0.303113
vt 0.248092 0.303113
vn 0.382683 0.000000 -0.923880
vn 0.382683 0.000000 -0.923880
vn 0.382683 0.000000 -0.923880
vn 0.382683 0.000000 -0.923880
vn 0.382683 0.000000 -0.923880
vn 0.382683 0.000000 -0.923880
vn 0.382683 0.000000 -0.923880
vn -0.382683 0.000000 -0.923880
vn -0.382683 0.000000 -0.923880
vn -0.382683 0.000000 -0.923880
vn -0.382683 0.000000 -0.923880
vn -0.382683 0.000000 -0.923880
vn -0.382683 0.000000 -0.923880
vn -0.382683 0.000000 -0.923880
vn -0.923880 0.000000 -0.382683
vn -0.923880 0.000000 -0.382683
vn -0.923880 0.000000 -0.382683
vn -0.923880 0.000000 -0.382683
vn -0.923880 0.000000 -0.382683
vn -0.923880 0.000000 -0.382683
vn -0.923880 0.000000 -0.382683
vn -0.923880 -0.000000 0.382683
vn -0.923880 -0.000000 0.382683
vn -0.923880 -0.000000 0.382683
vn -0.923880 -0.000000 0.382683
vn -0.923880 -0.000000 0.382683
vn -0.923880 -0.000000 0.382683
vn -0.923880 -0.000000 0.382683
vn -0.382683 0.000000 0.923880
vn -0.382683 0.000000 0.923880
vn -0.382683 0.000000 0.923880
vn -0.382683 0.000000 0.923880
vn 0.382683 0.000000 0.923880
vn 0.382683 0.000000 0.923880
vn 0.382683 0.000000 0.923880
vn 0.382683 0.000000 0.923880
vn 0.382683 0.000000 0.923880
vn 0.923880 0.000000 0.382683
vn 0.923880 0.000000 0.382683
vn 0.923880 0.000000 0.382683
vn 0.923880 0.000000 0.382683
vn 0.923880 0.000000 0.382683
vn 0.923880 0.000000 0.382683
vn 0.923880 0.000000 0.382683
vn 0.923880 0.000000 -0.382684
vn 0.923880 0.000000 -0.382684
vn 0.923880 0.000000 -0.382684
vn 0.923880 0.000000 -0.382684
vn 0.923879 0.000000 -0.382684
vn 0.923880 0.000000 -0.382684
vn 0.923880 0.000000 -0.382684
vn 0.000000 -1.000000 0.000000
vn 0.000000 -1.000000 0.000000
vn 0.000000 -1.000000 0.000000
vn 0.000000 -1.000000 0.000000
vn 0.000000 -1.000000 0.000000
vn 0.000000 -1.000000 0.000000
vn 0.000000 -1.000000 0.000000
vn 0.000000 -1.000000 0.000000
vn 0.000000 -1.000000 0.000000
vn 0.000000 -1.000000 0.000000
vn 0.000000 -1.000000 0.000000
vn 0.000000 -1.000000 0.000000
vn 0.000000 -1.000000 -0.000000
vn 0.000000 -1.000000 -0.000000
vn 0.000000 -1.000000 -0.000000
vn 0.000000 -1.000000 0.000000
vn 0.000000 -1.000000 0.000000
vn 0.000000 -1.000000 0.000000
vn -0.081216 -0.993382 0.081216
vn 0.020093 -0.998874 0.042990
vn 0.010248 -0.998855 0.046730
vn 0.000000 -1.000000 0.000000
vn 0.000000 -1.000000 0.000000
vn 0.000000 -1.000000 0.000000
vn 0.000000 -1.000000 -0.000000
vn 0.000000 -1.000000 -0.000000
vn 0.000000 -1.000000 -0.000000
vn 0.000000 1.000000 0.000000
vn 0.000000 1.000000 0.000000
vn 0.000000 1.000000 0.000000
vn 0.000000 1.000000 0.000000
vn 0.000000 1.000000 0.000000
vn 0.000000 1.000000 0.000000
vn 0.000000 1.000000 0.000000
vn 0.000000 1.000000 0.000000
vn 0.000000 1.000000 0.000000
vn 0.000000 1.000000 0.000000
vn 0.000000 1.000000 0.000000
vn 0.000000 1.000000 0.000000
vn 0.000000 1.000000 0.000000
vn 0.000000 1.000000 0.000000
vn 0.000000 1.000000 0.000000
vn 0.000000 1.000000 0.000000
vn 0.000000 1.000000 0.000000
vn 0.000000 1.000000 0.000000
vn 0.000000 1.000000 0.000000
vn 0.000000 1.000000 0.000000
vn 0.000000 1.000000 0.000000
vn 0.000000 1.000000 0.000000
vn 0.000000 1.000000 0.000000
vn 0.000000 1.000000 0.000000
vn 0.000000 1.000000 0.000000
vn 0.000000 1.000000 0.000000
vn 0.000000 1.000000 0.000000
vn 0.000000 1.000000 0.000000
vn 0.000000 1.000000 0.000000
vn 0.000000 1.000000 0.000000
vn -0.159782 0.805577 0.570540
vn -0.159782 0.805577 0.570540
vn -0.159782 0.805577 0.570540
vn 0.817955 0.407373 0.406198
vn 0.817955 0.407373 0.406198
vn 0.817955 0.407373 0.406198
vn 0.989786 -0.101620 0.099984
vn 0.989786 -0.101620 0.099984
vn 0.989786 -0.101620 0.099984
vn 0.991866 0.110898 0.062474
vn 0.991866 0.110898 0.062474
vn 0.991866 0.110898 0.062474
vn 0.762804 -0.489571 -0.422434
vn 0.762804 -0.489571 -0.422434
vn 0.762803 -0.489571 -0.422434
vn -0.276525 -0.713532 -0.643744
vn -0.276525 -0.713532 -0.643744
vn -0.276525 -0.713532 -0.643744
vn -0.644626 -0.101455 -0.757736
vn -0.644626 -0.101455 -0.757736
vn -0.644626 -0.101455 -0.757736
vn -0.660408 0.087638 -0.745776
vn -0.660408 0.087638 -0.745776
vn -0.660408 0.087638 -0.745776
vn -0.650955 0.758856 -0.019880
vn -0.650955 0.758856 -0.019880
vn -0.650955 0.758856 -0.019880
vn -0.615070 0.318059 0.721476
vn -0.615070 0.318059 0.721476
vn -0.615070 0.318059 0.721476
vn 0.382684 0.000000 0.923879
vn 0.382683 0.000000 0.923880
vn 0.382683 0.000000 0.923880
vn 0.382684 0.000000 0.923879
vn 0.382684 0.000000 0.923879
vn 0.010248 -0.998855 0.046730
vn 0.020093 -0.998874 0.042990
vn 0.132182 -0.991225 0.000000
s off
f 1/9/1 27/48/2 29/52/3 28/50/4 2/10/5 10/19/6 9/18/7
f 2/10/8 3/11/9 31/55/10 33/57/11 32/56/12 11/20/13 10/19/14
f 3/11/15 4/12/16 12/21/17 11/20/18 32/56/19 34/58/20 31/55/21
f 4/12/22 5/13/23 13/22/24 36/62/25 37/63/26 35/60/27 12/21/28
f 5/13/29 6/14/30 14/23/31 13/22/32
f 22/42/33 39/66/34 7/15/35 15/24/36 20/40/37
f 7/15/38 8/16/39 23/44/40 25/46/41 24/45/42 16/25/43 15/24/44
f 8/16/45 1/17/46 9/26/47 16/25/48 24/45/49 26/47/50 23/44/51
f 2/2/52 28/51/53 30/53/54 27/49/55 1/1/56 17/35/57
f 3/3/58 2/2/59 17/35/60
f 4/4/61 3/3/62 17/35/63
f 5/5/64 4/4/65 17/35/66
f 6/6/67 5/5/68 17/35/69
f 7/7/70 39/67/71 17/35/72
f 8/8/73 7/7/74 17/35/75
f 1/1/76 8/8/77 17/35/78
f 9/33/79 10/32/80 18/36/81
f 10/32/82 11/31/83 18/36/84
f 11/31/85 12/30/86 18/36/87
f 12/30/88 35/59/89 38/64/90 36/61/91 13/29/92 18/36/93
f 13/29/94 14/28/95 18/36/96
f 14/28/97 19/37/98 21/41/99 20/39/100 15/27/101 18/36/102
f 15/27/103 16/34/104 18/36/105
f 16/34/106 9/33/107 18/36/108
f 21/43/109 22/42/110 20/40/111
f 19/38/112 22/42/113 21/43/114
f 24/45/115 25/46/116 26/47/117
f 26/47/118 25/46/119 23/44/120
f 28/50/121 29/52/122 30/54/123
f 30/54/124 29/52/125 27/48/126
f 32/56/127 33/57/128 34/58/129
f 34/58/130 33/57/131 31/55/132
f 38/65/133 37/63/134 36/62/135
f 35/60/136 37/63/137 38/65/138
f 6/14/139 39/66/140 22/42/141 19/38/142 14/23/143
f 17/35/144 39/67/145 6/6/146
