# This file uses meters as units for non-parametric coordinates.

v -46.349106 -43.945873 46.008263
v 45.671387 -43.945873 46.008263
v -46.349106 45.795303 46.008263
v 45.671387 45.795303 46.008263
v -46.349106 45.795303 -46.012230
v 45.671387 45.795303 -46.012230
v -46.349106 -43.945873 -46.012230
v 45.671387 -43.945873 -46.012230
v 29.325130 -28.147959 49.950180
v 48.775398 -28.147959 49.950180
v 29.325130 28.147949 49.950180
v 48.775398 28.147949 49.950180
v 29.325130 28.147949 30.500031
v 48.775398 28.147949 30.500031
v 29.325130 -28.147959 30.500031
v 48.775398 -28.147959 30.500031
v 29.325130 -28.147959 -30.500031
v 48.775398 -28.147959 -30.500031
v 29.325130 28.147949 -30.500031
v 48.775398 28.147949 -30.500031
v 29.325130 28.147949 -49.950180
v 48.775398 28.147949 -49.950180
v 29.325130 -28.147959 -49.950180
v 48.775398 -28.147959 -49.950180
v -48.775391 -28.147959 -30.500031
v -29.325150 -28.147959 -30.500031
v -48.775391 28.147949 -30.500031
v -29.325150 28.147949 -30.500031
v -48.775391 28.147949 -49.950180
v -29.325150 28.147949 -49.950180
v -48.775391 -28.147959 -49.950180
v -29.325150 -28.147959 -49.950180
v -48.775391 -28.147959 49.950180
v -29.325150 -28.147959 49.950180
v -48.775391 28.147949 49.950180
v -29.325150 28.147949 49.950180
v -48.775391 28.147949 30.500031
v -29.325150 28.147949 30.500031
v -48.775391 -28.147959 30.500031
v -29.325150 -28.147959 30.500031
v -49.092850 30.530819 -30.499916
v 49.092903 30.530819 -30.499916
v -49.092850 50.532795 -30.499916
v 49.092903 50.532795 -30.499916
v -49.092850 50.532795 -49.950180
v 49.092903 50.532795 -49.950180
v -49.092850 30.530819 -49.950180
v 49.092903 30.530819 -49.950180
v -49.092850 30.530819 49.950180
v 49.092903 30.530819 49.950180
v -49.092850 50.532795 49.950180
v 49.092903 50.532795 49.950180
v -49.092850 50.532795 30.499916
v 49.092903 50.532795 30.499916
v -49.092850 30.530819 30.499916
v 49.092903 30.530819 30.499916
v 29.325163 30.530819 -28.359299
v 29.325163 30.530819 28.359299
v 29.325163 50.532795 -28.359299
v 29.325163 50.532795 28.359299
v 48.775398 50.532795 -28.359299
v 48.775398 50.532795 28.359299
v 48.775398 30.530819 -28.359299
v 48.775398 30.530819 28.359299
v -48.775391 30.530819 -28.359299
v -48.775391 30.530819 28.359299
v -48.775391 50.532795 -28.359299
v -48.775391 50.532795 28.359299
v -29.325150 50.532795 -28.359299
v -29.325150 50.532795 28.359299
v -29.325150 30.530819 -28.359299
v -29.325150 30.530819 28.359299
v -49.092850 -50.532776 49.950180
v 49.092903 -50.532776 49.950180
v -49.092850 -30.530823 49.950180
v 49.092903 -30.530823 49.950180
v -49.092850 -30.530823 30.499916
v 49.092903 -30.530823 30.499916
v -49.092850 -50.532776 30.499916
v 49.092903 -50.532776 30.499916
v 29.325163 -50.532776 -28.359299
v 29.325163 -50.532776 28.359299
v 29.325163 -30.530823 -28.359299
v 29.325163 -30.530823 28.359299
v 48.775398 -30.530823 -28.359299
v 48.775398 -30.530823 28.359299
v 48.775398 -50.532776 -28.359299
v 48.775398 -50.532776 28.359299
v -49.092850 -50.532776 -30.499916
v 49.092903 -50.532776 -30.499916
v -49.092850 -30.530823 -30.499916
v 49.092903 -30.530823 -30.499916
v -49.092850 -30.530823 -49.950180
v 49.092903 -30.530823 -49.950180
v -49.092850 -50.532776 -49.950180
v 49.092903 -50.532776 -49.950180
v -48.775391 -50.532776 -28.359299
v -48.775391 -50.532776 28.359299
v -48.775391 -30.530823 -28.359299
v -48.775391 -30.530823 28.359299
v -29.325150 -30.530823 -28.359299
v -29.325150 -30.530823 28.359299
v -29.325150 -50.532776 -28.359299
v -29.325150 -50.532776 28.359299
vt 0.268148 0.301199
vt 0.268148 0.301199
vt 0.268148 0.301199
vt 0.268148 0.301199
vt 0.268148 0.301199
vt 0.268148 0.301199
vt 0.268148 0.301199
vt 0.268148 0.301199
vt 0.248316 0.306340
vt 0.248316 0.306340
vt 0.248316 0.306340
vt 0.248316 0.306340
vt 0.248316 0.306340
vt 0.248316 0.306340
vt 0.248316 0.306340
vt 0.248316 0.306340
vt 0.248316 0.306340
vt 0.248316 0.306340
vt 0.248316 0.306340
vt 0.248316 0.306340
vt 0.248316 0.306340
vt 0.248316 0.306340
vt 0.248316 0.306340
vt 0.248316 0.306340
vt 0.248316 0.306340
vt 0.248316 0.306340
vt 0.248316 0.306340
vt 0.248316 0.306340
vt 0.248316 0.306340
vt 0.248316 0.306340
vt 0.248316 0.306340
vt 0.248316 0.306340
vt 0.248316 0.306340
vt 0.248316 0.306340
vt 0.248316 0.306340
vt 0.248316 0.306340
vt 0.248316 0.306340
vt 0.248316 0.306340
vt 0.248316 0.306340
vt 0.248316 0.306340
vt 0.248316 0.306340
vt 0.248316 0.306340
vt 0.248316 0.306340
vt 0.248316 0.306340
vt 0.248316 0.306340
vt 0.248316 0.306340
vt 0.248316 0.306340
vt 0.248316 0.306340
vt 0.248316 0.306340
vt 0.248316 0.306340
vt 0.248316 0.306340
vt 0.248316 0.306340
vt 0.248316 0.306340
vt 0.248316 0.306340
vt 0.248316 0.306340
vt 0.248316 0.306340
vt 0.248316 0.306340
vt 0.248316 0.306340
vt 0.248316 0.306340
vt 0.248316 0.306340
vt 0.248316 0.306340
vt 0.248316 0.306340
vt 0.248316 0.306340
vt 0.248316 0.306340
vt 0.248316 0.306340
vt 0.248316 0.306340
vt 0.248316 0.306340
vt 0.248316 0.306340
vt 0.248316 0.306340
vt 0.248316 0.306340
vt 0.248316 0.306340
vt 0.248316 0.306340
vt 0.248316 0.306340
vt 0.248316 0.306340
vt 0.248316 0.306340
vt 0.248316 0.306340
vt 0.248316 0.306340
vt 0.248316 0.306340
vt 0.248316 0.306340
vt 0.248316 0.306340
vt 0.248316 0.306340
vt 0.248316 0.306340
vt 0.248316 0.306340
vt 0.248316 0.306340
vt 0.248316 0.306340
vt 0.248316 0.306340
vt 0.248316 0.306340
vt 0.248316 0.306340
vt 0.248316 0.306340
vt 0.248316 0.306340
vt 0.248316 0.306340
vt 0.248316 0.306340
vt 0.248316 0.306340
vt 0.248316 0.306340
vt 0.248316 0.306340
vt 0.248316 0.306340
vt 0.248316 0.306340
vt 0.248316 0.306340
vt 0.248316 0.306340
vt 0.248316 0.306340
vt 0.248316 0.306340
vt 0.248316 0.306340
vt 0.248316 0.306340
vt 0.248316 0.306340
vn 0.000000 0.000000 1.000000
vn 0.000000 0.000000 1.000000
vn 0.000000 0.000000 1.000000
vn 0.000000 0.000000 1.000000
vn 0.000000 1.000000 0.000000
vn 0.000000 1.000000 0.000000
vn 0.000000 1.000000 0.000000
vn 0.000000 1.000000 0.000000
vn 0.000000 0.000000 -1.000000
vn 0.000000 0.000000 -1.000000
vn 0.000000 0.000000 -1.000000
vn 0.000000 0.000000 -1.000000
vn 0.000000 -1.000000 0.000000
vn 0.000000 -1.000000 0.000000
vn 0.000000 -1.000000 0.000000
vn 0.000000 -1.000000 0.000000
vn 1.000000 0.000000 0.000000
vn 1.000000 0.000000 0.000000
vn 1.000000 0.000000 0.000000
vn 1.000000 0.000000 0.000000
vn -1.000000 0.000000 0.000000
vn -1.000000 0.000000 0.000000
vn -1.000000 0.000000 0.000000
vn -1.000000 0.000000 0.000000
vn 0.000000 0.000000 1.000000
vn 0.000000 0.000000 1.000000
vn 0.000000 0.000000 1.000000
vn 0.000000 0.000000 1.000000
vn 0.000000 1.000000 0.000000
vn 0.000000 1.000000 0.000000
vn 0.000000 1.000000 0.000000
vn 0.000000 1.000000 0.000000
vn 0.000000 0.000000 -1.000000
vn 0.000000 0.000000 -1.000000
vn 0.000000 0.000000 -1.000000
vn 0.000000 0.000000 -1.000000
vn 0.000000 -1.000000 0.000000
vn 0.000000 -1.000000 0.000000
vn 0.000000 -1.000000 0.000000
vn 0.000000 -1.000000 0.000000
vn 1.000000 0.000000 0.000000
vn 1.000000 0.000000 0.000000
vn 1.000000 0.000000 0.000000
vn 1.000000 0.000000 0.000000
vn -1.000000 0.000000 0.000000
vn -1.000000 0.000000 0.000000
vn -1.000000 0.000000 0.000000
vn -1.000000 0.000000 0.000000
vn 0.000000 0.000000 1.000000
vn 0.000000 0.000000 1.000000
vn 0.000000 0.000000 1.000000
vn 0.000000 0.000000 1.000000
vn 0.000000 1.000000 0.000000
vn 0.000000 1.000000 0.000000
vn 0.000000 1.000000 0.000000
vn 0.000000 1.000000 0.000000
vn 0.000000 0.000000 -1.000000
vn 0.000000 0.000000 -1.000000
vn 0.000000 0.000000 -1.000000
vn 0.000000 0.000000 -1.000000
vn 0.000000 -1.000000 0.000000
vn 0.000000 -1.000000 0.000000
vn 0.000000 -1.000000 0.000000
vn 0.000000 -1.000000 0.000000
vn 1.000000 0.000000 0.000000
vn 1.000000 0.000000 0.000000
vn 1.000000 0.000000 0.000000
vn 1.000000 0.000000 0.000000
vn -1.000000 0.000000 0.000000
vn -1.000000 0.000000 0.000000
vn -1.000000 0.000000 0.000000
vn -1.000000 0.000000 0.000000
vn 0.000000 0.000000 1.000000
vn 0.000000 0.000000 1.000000
vn 0.000000 0.000000 1.000000
vn 0.000000 0.000000 1.000000
vn 0.000000 1.000000 0.000000
vn 0.000000 1.000000 0.000000
vn 0.000000 1.000000 0.000000
vn 0.000000 1.000000 0.000000
vn 0.000000 0.000000 -1.000000
vn 0.000000 0.000000 -1.000000
vn 0.000000 0.000000 -1.000000
vn 0.000000 0.000000 -1.000000
vn 0.000000 -1.000000 0.000000
vn 0.000000 -1.000000 0.000000
vn 0.000000 -1.000000 0.000000
vn 0.000000 -1.000000 0.000000
vn 1.000000 0.000000 0.000000
vn 1.000000 0.000000 0.000000
vn 1.000000 0.000000 0.000000
vn 1.000000 0.000000 0.000000
vn -1.000000 0.000000 0.000000
vn -1.000000 0.000000 0.000000
vn -1.000000 0.000000 0.000000
vn -1.000000 0.000000 0.000000
vn 0.000000 0.000000 1.000000
vn 0.000000 0.000000 1.000000
vn 0.000000 0.000000 1.000000
vn 0.000000 0.000000 1.000000
vn 0.000000 1.000000 0.000000
vn 0.000000 1.000000 0.000000
vn 0.000000 1.000000 0.000000
vn 0.000000 1.000000 0.000000
vn 0.000000 0.000000 -1.000000
vn 0.000000 0.000000 -1.000000
vn 0.000000 0.000000 -1.000000
vn 0.000000 0.000000 -1.000000
vn 0.000000 -1.000000 0.000000
vn 0.000000 -1.000000 0.000000
vn 0.000000 -1.000000 0.000000
vn 0.000000 -1.000000 0.000000
vn 1.000000 0.000000 0.000000
vn 1.000000 0.000000 0.000000
vn 1.000000 0.000000 0.000000
vn 1.000000 0.000000 0.000000
vn -1.000000 0.000000 0.000000
vn -1.000000 0.000000 0.000000
vn -1.000000 0.000000 0.000000
vn -1.000000 0.000000 0.000000
vn 0.000000 0.000000 1.000000
vn 0.000000 0.000000 1.000000
vn 0.000000 0.000000 1.000000
vn 0.000000 0.000000 1.000000
vn 0.000000 1.000000 0.000000
vn 0.000000 1.000000 0.000000
vn 0.000000 1.000000 0.000000
vn 0.000000 1.000000 0.000000
vn 0.000000 0.000000 -1.000000
vn 0.000000 0.000000 -1.000000
vn 0.000000 0.000000 -1.000000
vn 0.000000 0.000000 -1.000000
vn 0.000000 -1.000000 0.000000
vn 0.000000 -1.000000 0.000000
vn 0.000000 -1.000000 0.000000
vn 0.000000 -1.000000 0.000000
vn 1.000000 0.000000 0.000000
vn 1.000000 0.000000 0.000000
vn 1.000000 0.000000 0.000000
vn 1.000000 0.000000 0.000000
vn -1.000000 0.000000 0.000000
vn -1.000000 0.000000 0.000000
vn -1.000000 0.000000 0.000000
vn -1.000000 0.000000 0.000000
vn 0.000000 0.000000 1.000000
vn 0.000000 0.000000 1.000000
vn 0.000000 0.000000 1.000000
vn 0.000000 0.000000 1.000000
vn 0.000000 1.000000 0.000000
vn 0.000000 1.000000 0.000000
vn 0.000000 1.000000 0.000000
vn 0.000000 1.000000 0.000000
vn 0.000000 0.000000 -1.000000
vn 0.000000 0.000000 -1.000000
vn 0.000000 0.000000 -1.000000
vn 0.000000 0.000000 -1.000000
vn 0.000000 -1.000000 0.000000
vn 0.000000 -1.000000 0.000000
vn 0.000000 -1.000000 0.000000
vn 0.000000 -1.000000 0.000000
vn 1.000000 0.000000 0.000000
vn 1.000000 0.000000 0.000000
vn 1.000000 0.000000 0.000000
vn 1.000000 0.000000 0.000000
vn -1.000000 0.000000 0.000000
vn -1.000000 0.000000 0.000000
vn -1.000000 0.000000 0.000000
vn -1.000000 0.000000 0.000000
vn -1.000000 0.000000 0.000000
vn -1.000000 0.000000 0.000000
vn -1.000000 0.000000 0.000000
vn -1.000000 0.000000 0.000000
vn 0.000000 1.000000 0.000000
vn 0.000000 1.000000 0.000000
vn 0.000000 1.000000 0.000000
vn 0.000000 1.000000 0.000000
vn 1.000000 0.000000 0.000000
vn 1.000000 0.000000 0.000000
vn 1.000000 0.000000 0.000000
vn 1.000000 0.000000 0.000000
vn 0.000000 -1.000000 0.000000
vn 0.000000 -1.000000 0.000000
vn 0.000000 -1.000000 0.000000
vn 0.000000 -1.000000 0.000000
vn 0.000000 0.000000 1.000000
vn 0.000000 0.000000 1.000000
vn 0.000000 0.000000 1.000000
vn 0.000000 0.000000 1.000000
vn 0.000000 0.000000 -1.000000
vn 0.000000 0.000000 -1.000000
vn 0.000000 0.000000 -1.000000
vn 0.000000 0.000000 -1.000000
vn -1.000000 0.000000 0.000000
vn -1.000000 0.000000 0.000000
vn -1.000000 0.000000 0.000000
vn -1.000000 0.000000 0.000000
vn 0.000000 1.000000 0.000000
vn 0.000000 1.000000 0.000000
vn 0.000000 1.000000 0.000000
vn 0.000000 1.000000 0.000000
vn 1.000000 0.000000 0.000000
vn 1.000000 0.000000 0.000000
vn 1.000000 0.000000 0.000000
vn 1.000000 0.000000 0.000000
vn 0.000000 -1.000000 0.000000
vn 0.000000 -1.000000 0.000000
vn 0.000000 -1.000000 0.000000
vn 0.000000 -1.000000 0.000000
vn 0.000000 0.000000 1.000000
vn 0.000000 0.000000 1.000000
vn 0.000000 0.000000 1.000000
vn 0.000000 0.000000 1.000000
vn 0.000000 0.000000 -1.000000
vn 0.000000 0.000000 -1.000000
vn 0.000000 0.000000 -1.000000
vn 0.000000 0.000000 -1.000000
vn 0.000000 0.000000 1.000000
vn 0.000000 0.000000 1.000000
vn 0.000000 0.000000 1.000000
vn 0.000000 0.000000 1.000000
vn 0.000000 1.000000 0.000000
vn 0.000000 1.000000 0.000000
vn 0.000000 1.000000 0.000000
vn 0.000000 1.000000 0.000000
vn 0.000000 0.000000 -1.000000
vn 0.000000 0.000000 -1.000000
vn 0.000000 0.000000 -1.000000
vn 0.000000 0.000000 -1.000000
vn 0.000000 -1.000000 0.000000
vn 0.000000 -1.000000 0.000000
vn 0.000000 -1.000000 0.000000
vn 0.000000 -1.000000 0.000000
vn 1.000000 0.000000 0.000000
vn 1.000000 0.000000 0.000000
vn 1.000000 0.000000 0.000000
vn 1.000000 0.000000 0.000000
vn -1.000000 0.000000 0.000000
vn -1.000000 0.000000 0.000000
vn -1.000000 0.000000 0.000000
vn -1.000000 0.000000 0.000000
vn -1.000000 0.000000 0.000000
vn -1.000000 0.000000 0.000000
vn -1.000000 0.000000 0.000000
vn -1.000000 0.000000 0.000000
vn 0.000000 1.000000 0.000000
vn 0.000000 1.000000 0.000000
vn 0.000000 1.000000 0.000000
vn 0.000000 1.000000 0.000000
vn 1.000000 0.000000 0.000000
vn 1.000000 0.000000 0.000000
vn 1.000000 0.000000 0.000000
vn 1.000000 0.000000 0.000000
vn 0.000000 -1.000000 0.000000
vn 0.000000 -1.000000 0.000000
vn 0.000000 -1.000000 0.000000
vn 0.000000 -1.000000 0.000000
vn 0.000000 0.000000 1.000000
vn 0.000000 0.000000 1.000000
vn 0.000000 0.000000 1.000000
vn 0.000000 0.000000 1.000000
vn 0.000000 0.000000 -1.000000
vn 0.000000 0.000000 -1.000000
vn 0.000000 0.000000 -1.000000
vn 0.000000 0.000000 -1.000000
vn 0.000000 0.000000 1.000000
vn 0.000000 0.000000 1.000000
vn 0.000000 0.000000 1.000000
vn 0.000000 0.000000 1.000000
vn 0.000000 1.000000 0.000000
vn 0.000000 1.000000 0.000000
vn 0.000000 1.000000 0.000000
vn 0.000000 1.000000 0.000000
vn 0.000000 0.000000 -1.000000
vn 0.000000 0.000000 -1.000000
vn 0.000000 0.000000 -1.000000
vn 0.000000 0.000000 -1.000000
vn 0.000000 -1.000000 0.000000
vn 0.000000 -1.000000 0.000000
vn 0.000000 -1.000000 0.000000
vn 0.000000 -1.000000 0.000000
vn 1.000000 0.000000 0.000000
vn 1.000000 0.000000 0.000000
vn 1.000000 0.000000 0.000000
vn 1.000000 0.000000 0.000000
vn -1.000000 0.000000 0.000000
vn -1.000000 0.000000 0.000000
vn -1.000000 0.000000 0.000000
vn -1.000000 0.000000 0.000000
vn -1.000000 0.000000 0.000000
vn -1.000000 0.000000 0.000000
vn -1.000000 0.000000 0.000000
vn -1.000000 0.000000 0.000000
vn 0.000000 1.000000 0.000000
vn 0.000000 1.000000 0.000000
vn 0.000000 1.000000 0.000000
vn 0.000000 1.000000 0.000000
vn 1.000000 0.000000 0.000000
vn 1.000000 0.000000 0.000000
vn 1.000000 0.000000 0.000000
vn 1.000000 0.000000 0.000000
vn 0.000000 -1.000000 0.000000
vn 0.000000 -1.000000 0.000000
vn 0.000000 -1.000000 0.000000
vn 0.000000 -1.000000 0.000000
vn 0.000000 0.000000 1.000000
vn 0.000000 0.000000 1.000000
vn 0.000000 0.000000 1.000000
vn 0.000000 0.000000 1.000000
vn 0.000000 0.000000 -1.000000
vn 0.000000 0.000000 -1.000000
vn 0.000000 0.000000 -1.000000
vn 0.000000 0.000000 -1.000000
s off
f 1/1/1 2/2/2 4/3/3 3/4/4
f 3/4/5 4/3/6 6/5/7 5/6/8
f 5/6/9 6/5/10 8/7/11 7/8/12
f 7/8/13 8/7/14 2/2/15 1/1/16
f 2/2/17 8/7/18 6/5/19 4/3/20
f 7/8/21 1/1/22 3/4/23 5/6/24
f 9/9/25 10/10/26 12/11/27 11/12/28
f 11/12/29 12/11/30 14/13/31 13/14/32
f 13/14/33 14/13/34 16/15/35 15/16/36
f 15/16/37 16/15/38 10/10/39 9/9/40
f 10/10/41 16/15/42 14/13/43 12/11/44
f 15/16/45 9/9/46 11/12/47 13/14/48
f 17/17/49 18/18/50 20/19/51 19/20/52
f 19/20/53 20/19/54 22/21/55 21/22/56
f 21/22/57 22/21/58 24/23/59 23/24/60
f 23/24/61 24/23/62 18/18/63 17/17/64
f 18/18/65 24/23/66 22/21/67 20/19/68
f 23/24/69 17/17/70 19/20/71 21/22/72
f 25/25/73 26/26/74 28/27/75 27/28/76
f 27/28/77 28/27/78 30/29/79 29/30/80
f 29/30/81 30/29/82 32/31/83 31/32/84
f 31/32/85 32/31/86 26/26/87 25/25/88
f 26/26/89 32/31/90 30/29/91 28/27/92
f 31/32/93 25/25/94 27/28/95 29/30/96
f 33/33/97 34/34/98 36/35/99 35/36/100
f 35/36/101 36/35/102 38/37/103 37/38/104
f 37/38/105 38/37/106 40/39/107 39/40/108
f 39/40/109 40/39/110 34/34/111 33/33/112
f 34/34/113 40/39/114 38/37/115 36/35/116
f 39/40/117 33/33/118 35/36/119 37/38/120
f 41/41/121 42/42/122 44/43/123 43/44/124
f 43/44/125 44/43/126 46/45/127 45/46/128
f 45/46/129 46/45/130 48/47/131 47/48/132
f 47/48/133 48/47/134 42/42/135 41/41/136
f 42/42/137 48/47/138 46/45/139 44/43/140
f 47/48/141 41/41/142 43/44/143 45/46/144
f 49/49/145 50/50/146 52/51/147 51/52/148
f 51/52/149 52/51/150 54/53/151 53/54/152
f 53/54/153 54/53/154 56/55/155 55/56/156
f 55/56/157 56/55/158 50/50/159 49/49/160
f 50/50/161 56/55/162 54/53/163 52/51/164
f 55/56/165 49/49/166 51/52/167 53/54/168
f 57/57/169 58/58/170 60/59/171 59/60/172
f 59/60/173 60/59/174 62/61/175 61/62/176
f 61/62/177 62/61/178 64/63/179 63/64/180
f 63/64/181 64/63/182 58/58/183 57/57/184
f 58/58/185 64/63/186 62/61/187 60/59/188
f 63/64/189 57/57/190 59/60/191 61/62/192
f 65/65/193 66/66/194 68/67/195 67/68/196
f 67/68/197 68/67/198 70/69/199 69/70/200
f 69/70/201 70/69/202 72/71/203 71/72/204
f 71/72/205 72/71/206 66/66/207 65/65/208
f 66/66/209 72/71/210 70/69/211 68/67/212
f 71/72/213 65/65/214 67/68/215 69/70/216
f 73/73/217 74/74/218 76/75/219 75/76/220
f 75/76/221 76/75/222 78/77/223 77/78/224
f 77/78/225 78/77/226 80/79/227 79/80/228
f 79/80/229 80/79/230 74/74/231 73/73/232
f 74/74/233 80/79/234 78/77/235 76/75/236
f 79/80/237 73/73/238 75/76/239 77/78/240
f 81/81/241 82/82/242 84/83/243 83/84/244
f 83/84/245 84/83/246 86/85/247 85/86/248
f 85/86/249 86/85/250 88/87/251 87/88/252
f 87/88/253 88/87/254 82/82/255 81/81/256
f 82/82/257 88/87/258 86/85/259 84/83/260
f 87/88/261 81/81/262 83/84/263 85/86/264
f 89/89/265 90/90/266 92/91/267 91/92/268
f 91/92/269 92/91/270 94/93/271 93/94/272
f 93/94/273 94/93/274 96/95/275 95/96/276
f 95/96/277 96/95/278 90/90/279 89/89/280
f 90/90/281 96/95/282 94/93/283 92/91/284
f 95/96/285 89/89/286 91/92/287 93/94/288
f 97/97/289 98/98/290 100/99/291 99/100/292
f 99/100/293 100/99/294 102/101/295 101/102/296
f 101/102/297 102/101/298 104/103/299 103/104/300
f 103/104/301 104/103/302 98/98/303 97/97/304
f 98/98/305 104/103/306 102/101/307 100/99/308
f 103/104/309 97/97/310 99/100/311 101/102/312
