# This file uses meters as units for non-parametric coordinates.

v 43.301273 -50.000000 -25.000046
v 25.000000 -50.000000 -43.301346
v 0.000000 -50.000000 -50.000046
v 50.000000 -50.000000 -0.000048
v 43.301273 50.000000 -25.000046
v 25.000000 50.000000 -43.301346
v 0.000000 50.000000 -50.000046
v 50.000000 50.000000 -0.000048
v 0.000000 -50.000000 -0.000048
v 0.000000 50.000000 -0.000048
vt 0.249371 0.302667
vt 0.249371 0.302667
vt 0.249371 0.302667
vt 0.249371 0.302667
vt 0.249371 0.302667
vt 0.249371 0.302667
vt 0.249371 0.302667
vt 0.249371 0.302667
vt 0.249371 0.302667
vt 0.249371 0.302667
vn 0.707107 0.000000 -0.707106
vn 0.707107 0.000000 -0.707106
vn 0.707107 0.000000 -0.707106
vn 0.707107 0.000000 -0.707106
vn 0.258818 0.000000 -0.965926
vn 0.258818 0.000000 -0.965926
vn 0.258818 0.000000 -0.965926
vn 0.258818 0.000000 -0.965926
vn 0.965926 0.000000 -0.258819
vn 0.965926 0.000000 -0.258819
vn 0.965926 0.000000 -0.258819
vn 0.965926 0.000000 -0.258819
vn 0.000000 -1.000000 0.000000
vn 0.000000 -1.000000 0.000000
vn 0.000000 -1.000000 0.000000
vn 0.000000 -1.000000 0.000000
vn 0.000000 -1.000000 0.000000
vn 0.000000 -1.000000 0.000000
vn 0.000000 -1.000000 0.000000
vn 0.000000 -1.000000 0.000000
vn 0.000000 -1.000000 0.000000
vn 0.000000 1.000000 0.000000
vn 0.000000 1.000000 0.000000
vn 0.000000 1.000000 0.000000
vn 0.000000 1.000000 0.000000
vn 0.000000 1.000000 0.000000
vn 0.000000 1.000000 0.000000
vn 0.000000 1.000000 0.000000
vn 0.000000 1.000000 0.000000
vn 0.000000 1.000000 0.000000
vn 0.000000 0.000000 1.000000
vn 0.000000 0.000000 1.000000
vn 0.000000 0.000000 1.000000
vn 0.000000 0.000000 1.000000
vn -1.000000 0.000000 0.000000
vn -1.000000 0.000000 0.000000
vn -1.000000 0.000000 0.000000
vn -1.000000 0.000000 0.000000
s off
f 1/1/1 2/2/2 6/3/3 5/4/4
f 2/2/5 3/5/6 7/6/7 6/3/8
f 4/7/9 1/1/10 5/4/11 8/8/12
f 2/2/13 1/1/14 9/9/15
f 3/5/16 2/2/17 9/9/18
f 1/1/19 4/7/20 9/9/21
f 5/4/22 6/3/23 10/10/24
f 6/3/25 7/6/26 10/10/27
f 8/8/28 5/4/29 10/10/30
f 9/9/31 4/7/32 8/8/33 10/10/34
f 3/5/35 9/9/36 10/10/37 7/6/38
