# This file uses meters as units for non-parametric coordinates.

v 2.837915 -14.177933 -2.837915
v 0.000000 -14.177933 -4.013419
v -2.837915 -14.177933 -2.837915
v -4.013419 -14.177933 0.000000
v -2.837915 -14.177933 2.837915
v 0.000000 -14.177933 4.013419
v 2.837915 -14.177933 2.837916
v 4.013419 -14.177933 0.000000
v 2.837915 14.882359 -2.837915
v 0.000000 14.882359 -4.013419
v -2.837915 14.882359 -2.837915
v -4.013419 14.882359 0.000000
v -2.837915 14.882359 2.837915
v 0.000000 14.882359 4.013419
v 2.837915 14.882359 2.837916
v 4.013419 14.882359 0.000000
v 3.947854 -16.047913 -3.947855
v 0.000000 -16.047913 -5.583109
v -3.947854 -16.047913 -3.947855
v -5.583109 -16.047913 -0.000000
v -3.947854 -16.047913 3.947855
v 0.000000 -16.047913 5.583109
v 3.947854 -16.047913 3.947855
v 5.583109 -16.047913 -0.000000
v 3.230189 -18.318024 -3.230189
v 0.000000 -18.318024 -4.568176
v 0.000000 -18.318024 -0.000000
v -3.230189 -18.318024 -3.230189
v -4.568176 -18.318024 -0.000000
v -3.230189 -18.318024 3.230189
v 0.000000 -18.318024 4.568176
v 3.230189 -18.318024 3.230189
v 4.568176 -18.318024 -0.000000
v 4.252132 65.232330 -4.252133
v 0.000000 65.232330 -6.013424
v -4.252132 65.232330 -4.252133
v -6.013424 65.232330 -0.000000
v -4.252132 65.232330 4.252133
v 0.000000 65.232330 6.013424
v 4.252132 65.232330 4.252133
v 6.013424 65.232330 -0.000000
v 4.252132 113.051834 -4.252133
v 0.000000 113.051834 -6.013424
v -4.252132 113.051834 -4.252133
v -6.013424 113.051834 -0.000000
v -4.252132 113.051834 4.252133
v 0.000000 113.051834 6.013424
v 4.252132 113.051834 4.252133
v 6.013424 113.051834 -0.000000
v 3.425952 114.525604 -3.425951
v 0.000000 114.525604 -4.845028
v 0.000000 114.525604 0.000000
v -3.425952 114.525604 -3.425951
v -4.845028 114.525604 0.000000
v -3.425952 114.525604 3.425952
v 0.000000 114.525604 4.845028
v 3.425952 114.525604 3.425952
v 4.845028 114.525604 0.000000
v 2.856700 32.497086 2.856701
v 0.000000 32.497086 4.039985
v -2.856700 32.497086 2.856700
v -4.039985 32.497086 -0.000000
v -2.856700 32.497086 -2.856700
v 0.000000 32.497086 -4.039984
v 2.856700 32.497086 -2.856700
v 4.039985 32.497086 -0.000000
vt 0.007532 0.354069
vt 0.007532 0.354069
vt 0.007532 0.354069
vt 0.007532 0.354069
vt 0.007532 0.354069
vt 0.007532 0.354069
vt 0.007532 0.354069
vt 0.007532 0.354069
vt 0.081712 0.280660
vt 0.081713 0.280660
vt 0.081713 0.280660
vt 0.081712 0.280660
vt 0.081713 0.280660
vt 0.081713 0.280660
vt 0.081713 0.280660
vt 0.081713 0.280660
vt 0.081713 0.280660
vt 0.081713 0.280660
vt 0.081713 0.280660
vt 0.081713 0.280660
vt 0.081712 0.280660
vt 0.081712 0.280660
vt 0.081712 0.280660
vt 0.081712 0.280660
vt 0.007532 0.354069
vt 0.007532 0.354069
vt 0.007532 0.354069
vt 0.007532 0.354069
vt 0.007532 0.354069
vt 0.007532 0.354069
vt 0.007532 0.354069
vt 0.007532 0.354069
vt 0.007532 0.354069
vt 0.007532 0.354069
vt 0.007532 0.354069
vt 0.007532 0.354069
vt 0.007532 0.354069
vt 0.007532 0.354069
vt 0.007532 0.354069
vt 0.007532 0.354069
vt 0.007532 0.354069
vt 0.007532 0.354069
vt 0.007532 0.354069
vt 0.007532 0.354069
vt 0.007532 0.354069
vt 0.007532 0.354069
vt 0.007532 0.354069
vt 0.007532 0.354069
vt 0.007532 0.354069
vt 0.007532 0.354069
vt 0.007532 0.354069
vt 0.007532 0.354069
vt 0.007532 0.354069
vt 0.007532 0.354069
vt 0.007532 0.354069
vt 0.007532 0.354069
vt 0.007532 0.354069
vt 0.007532 0.354069
vt 0.007532 0.354069
vt 0.007532 0.354069
vt 0.007532 0.354069
vt 0.007532 0.354069
vt 0.007532 0.354069
vt 0.007532 0.354069
vt 0.007532 0.354069
vt 0.007532 0.354069
vt 0.007532 0.354069
vt 0.007532 0.354069
vt 0.007532 0.354069
vt 0.007532 0.354069
vt 0.007532 0.354069
vt 0.007532 0.354069
vt 0.007532 0.354069
vt 0.007532 0.354069
vt 0.007532 0.354069
vt 0.007532 0.354069
vt 0.007532 0.354069
vt 0.007532 0.354069
vt 0.007532 0.354069
vt 0.007532 0.354069
vt 0.007532 0.354069
vt 0.007532 0.354069
vn 0.382684 0.000000 -0.923880
vn 0.382684 0.000000 -0.923880
vn 0.382684 0.000000 -0.923880
vn 0.382684 0.000000 -0.923880
vn -0.382684 0.000000 -0.923880
vn -0.382684 0.000000 -0.923880
vn -0.382684 0.000000 -0.923880
vn -0.382684 0.000000 -0.923880
vn -0.923879 0.000000 -0.382684
vn -0.923879 0.000000 -0.382684
vn -0.923879 0.000000 -0.382684
vn -0.923879 0.000000 -0.382684
vn -0.923879 0.000000 0.382684
vn -0.923879 0.000000 0.382684
vn -0.923879 0.000000 0.382684
vn -0.923879 0.000000 0.382684
vn -0.382684 0.000000 0.923880
vn -0.382684 0.000000 0.923880
vn -0.382684 0.000000 0.923880
vn -0.382684 0.000000 0.923880
vn 0.382683 0.000000 0.923880
vn 0.382683 0.000000 0.923880
vn 0.382683 0.000000 0.923880
vn 0.382683 0.000000 0.923880
vn 0.923880 0.000000 0.382684
vn 0.923880 0.000000 0.382684
vn 0.923880 0.000000 0.382684
vn 0.923880 0.000000 0.382684
vn 0.923879 0.000000 -0.382684
vn 0.923879 0.000000 -0.382684
vn 0.923879 0.000000 -0.382684
vn 0.923879 0.000000 -0.382684
vn 0.000000 -1.000000 0.000000
vn 0.000000 -1.000000 0.000000
vn 0.000000 -1.000000 0.000000
vn 0.000000 -1.000000 0.000000
vn 0.000000 -1.000000 0.000000
vn 0.000000 -1.000000 0.000000
vn 0.000000 -1.000000 0.000000
vn 0.000000 -1.000000 0.000000
vn 0.000000 -1.000000 0.000000
vn 0.000000 -1.000000 0.000000
vn 0.000000 -1.000000 0.000000
vn 0.000000 -1.000000 0.000000
vn 0.000000 -1.000000 0.000000
vn 0.000000 -1.000000 0.000000
vn 0.000000 -1.000000 0.000000
vn 0.000000 -1.000000 0.000000
vn 0.000000 -1.000000 0.000000
vn 0.000000 -1.000000 0.000000
vn 0.000000 -1.000000 0.000000
vn 0.000000 -1.000000 0.000000
vn 0.000000 -1.000000 0.000000
vn 0.000000 -1.000000 0.000000
vn 0.000000 -1.000000 0.000000
vn 0.000000 -1.000000 0.000000
vn 0.000000 1.000000 0.000000
vn 0.000000 1.000000 0.000000
vn 0.000000 1.000000 0.000000
vn 0.000000 1.000000 0.000000
vn 0.000000 1.000000 -0.000002
vn 0.000000 1.000000 0.000000
vn 0.000000 1.000000 -0.000002
vn 0.000000 1.000000 -0.000002
vn 0.000000 1.000000 0.000000
vn 0.000000 1.000000 -0.000002
vn 0.000000 1.000000 0.000000
vn 0.000000 1.000000 0.000000
vn 0.000000 1.000000 0.000000
vn 0.000000 1.000000 0.000000
vn 0.000000 1.000000 0.000000
vn 0.000000 1.000000 0.000000
vn 0.000000 1.000000 0.000002
vn 0.000000 1.000000 0.000000
vn 0.000000 1.000000 0.000002
vn 0.000000 1.000000 0.000002
vn 0.000000 1.000000 0.000000
vn 0.000000 1.000000 0.000002
vn 0.000000 1.000000 0.000000
vn 0.000000 1.000000 0.000000
vn 0.302403 0.612828 -0.730065
vn 0.302403 0.612828 -0.730065
vn 0.302403 0.612828 -0.730065
vn 0.302403 0.612828 -0.730065
vn -0.302403 0.612828 -0.730065
vn -0.302403 0.612828 -0.730065
vn -0.302403 0.612828 -0.730065
vn -0.302403 0.612828 -0.730065
vn -0.730065 0.612828 -0.302403
vn -0.730065 0.612828 -0.302403
vn -0.730065 0.612828 -0.302403
vn -0.730065 0.612828 -0.302403
vn -0.730065 0.612828 0.302403
vn -0.730065 0.612828 0.302403
vn -0.730065 0.612828 0.302403
vn -0.730065 0.612828 0.302403
vn -0.302403 0.612828 0.730065
vn -0.302403 0.612828 0.730065
vn -0.302403 0.612828 0.730065
vn -0.302403 0.612828 0.730065
vn 0.302403 0.612828 0.730065
vn 0.302403 0.612828 0.730065
vn 0.302403 0.612828 0.730065
vn 0.302403 0.612828 0.730065
vn 0.730065 0.612828 0.302403
vn 0.730065 0.612828 0.302403
vn 0.730065 0.612828 0.302403
vn 0.730065 0.612828 0.302403
vn 0.730065 0.612828 -0.302403
vn 0.730065 0.612828 -0.302403
vn 0.730065 0.612828 -0.302403
vn 0.730065 0.612828 -0.302403
vn 0.353698 -0.381767 -0.853903
vn 0.353698 -0.381767 -0.853904
vn 0.353698 -0.381767 -0.853904
vn 0.353698 -0.381767 -0.853903
vn -0.353698 -0.381767 -0.853904
vn -0.353698 -0.381767 -0.853904
vn -0.353698 -0.381767 -0.853904
vn -0.353698 -0.381767 -0.853904
vn -0.853903 -0.381767 -0.353698
vn -0.853903 -0.381767 -0.353698
vn -0.853903 -0.381767 -0.353698
vn -0.853904 -0.381767 -0.353698
vn -0.853904 -0.381767 0.353698
vn -0.853904 -0.381767 0.353698
vn -0.853904 -0.381767 0.353698
vn -0.853904 -0.381767 0.353698
vn -0.353698 -0.381767 0.853903
vn -0.353698 -0.381767 0.853904
vn -0.353698 -0.381767 0.853904
vn -0.353698 -0.381767 0.853903
vn 0.353698 -0.381767 0.853904
vn 0.353698 -0.381767 0.853904
vn 0.353698 -0.381767 0.853904
vn 0.353698 -0.381767 0.853904
vn 0.853903 -0.381767 0.353698
vn 0.853903 -0.381767 0.353698
vn 0.853903 -0.381767 0.353698
vn 0.853904 -0.381767 0.353698
vn 0.853904 -0.381767 -0.353698
vn 0.853904 -0.381767 -0.353698
vn 0.853904 -0.381767 -0.353698
vn 0.853904 -0.381767 -0.353698
vn 0.382683 -0.001393 -0.923879
vn 0.382683 -0.001393 -0.923879
vn 0.382385 -0.039479 -0.923159
vn 0.382385 -0.039479 -0.923159
vn -0.382683 -0.001393 -0.923879
vn -0.382683 -0.001393 -0.923879
vn -0.382385 -0.039479 -0.923159
vn -0.382385 -0.039479 -0.923159
vn -0.923879 -0.001393 -0.382683
vn -0.923879 -0.001393 -0.382683
vn -0.923159 -0.039479 -0.382385
vn -0.923159 -0.039479 -0.382385
vn -0.923879 -0.001393 0.382683
vn -0.923879 -0.001393 0.382683
vn -0.923159 -0.039479 0.382385
vn -0.923159 -0.039479 0.382385
vn -0.382683 -0.001393 0.923879
vn -0.382683 -0.001393 0.923879
vn -0.382385 -0.039479 0.923159
vn -0.382385 -0.039479 0.923159
vn 0.382683 -0.001393 0.923879
vn 0.382683 -0.001393 0.923879
vn 0.382385 -0.039479 0.923159
vn 0.382385 -0.039479 0.923159
vn 0.923879 -0.001393 0.382683
vn 0.923879 -0.001393 0.382683
vn 0.923159 -0.039479 0.382385
vn 0.923159 -0.039479 0.382385
vn 0.923879 -0.001393 -0.382683
vn 0.923879 -0.001393 -0.382683
vn 0.923159 -0.039479 -0.382385
vn 0.923159 -0.039479 -0.382385
vn 0.382683 0.000000 -0.923880
vn 0.382683 0.000000 -0.923880
vn 0.382683 0.000000 -0.923880
vn 0.382683 0.000000 -0.923880
vn -0.382683 0.000000 -0.923880
vn -0.382683 0.000000 -0.923880
vn -0.382683 0.000000 -0.923880
vn -0.382683 0.000000 -0.923880
vn -0.923880 0.000000 -0.382684
vn -0.923880 0.000000 -0.382684
vn -0.923880 0.000000 -0.382684
vn -0.923880 0.000000 -0.382684
vn -0.923880 0.000000 0.382684
vn -0.923880 0.000000 0.382684
vn -0.923880 0.000000 0.382684
vn -0.923880 0.000000 0.382684
vn -0.382683 0.000000 0.923880
vn -0.382683 0.000000 0.923880
vn -0.382683 0.000000 0.923880
vn -0.382683 0.000000 0.923880
vn 0.382683 0.000000 0.923880
vn 0.382683 0.000000 0.923880
vn 0.382683 0.000000 0.923880
vn 0.382683 0.000000 0.923880
vn 0.923880 0.000000 0.382684
vn 0.923880 0.000000 0.382684
vn 0.923880 0.000000 0.382684
vn 0.923880 0.000000 0.382684
vn 0.923880 0.000000 -0.382684
vn 0.923880 0.000000 -0.382684
vn 0.923880 0.000000 -0.382684
vn 0.923880 0.000000 -0.382684
vn 0.308728 0.590898 -0.745337
vn 0.308728 0.590898 -0.745337
vn 0.308728 0.590898 -0.745337
vn 0.308728 0.590898 -0.745337
vn -0.308728 0.590898 -0.745336
vn -0.308728 0.590898 -0.745336
vn -0.308728 0.590898 -0.745336
vn -0.308728 0.590898 -0.745336
vn -0.745337 0.590898 -0.308728
vn -0.745337 0.590898 -0.308728
vn -0.745337 0.590898 -0.308728
vn -0.745337 0.590898 -0.308728
vn -0.745337 0.590898 0.308727
vn -0.745337 0.590898 0.308727
vn -0.745337 0.590898 0.308727
vn -0.745337 0.590898 0.308727
vn -0.308728 0.590898 0.745337
vn -0.308728 0.590898 0.745337
vn -0.308728 0.590898 0.745337
vn -0.308728 0.590898 0.745337
vn 0.308728 0.590898 0.745336
vn 0.308728 0.590898 0.745336
vn 0.308728 0.590898 0.745336
vn 0.308728 0.590898 0.745336
vn 0.745337 0.590898 0.308728
vn 0.745337 0.590898 0.308728
vn 0.745337 0.590898 0.308728
vn 0.745337 0.590898 0.308728
vn 0.745337 0.590898 -0.308727
vn 0.745337 0.590898 -0.308727
vn 0.745337 0.590898 -0.308727
vn 0.745337 0.590898 -0.308727
vn 0.382385 -0.039479 0.923159
vn 0.382385 -0.039479 0.923159
vn 0.382091 -0.055610 0.922450
vn 0.382091 -0.055610 0.922450
vn -0.382385 -0.039479 0.923159
vn -0.382385 -0.039479 0.923159
vn -0.382091 -0.055610 0.922450
vn -0.382091 -0.055610 0.922450
vn -0.923159 -0.039479 0.382385
vn -0.923159 -0.039479 0.382385
vn -0.922450 -0.055610 0.382091
vn -0.922450 -0.055610 0.382091
vn -0.923159 -0.039479 -0.382385
vn -0.923159 -0.039479 -0.382385
vn -0.922450 -0.055610 -0.382092
vn -0.922450 -0.055610 -0.382092
vn -0.382385 -0.039479 -0.923159
vn -0.382385 -0.039479 -0.923159
vn -0.382091 -0.055610 -0.922450
vn -0.382091 -0.055610 -0.922450
vn 0.382385 -0.039479 -0.923159
vn 0.382385 -0.039479 -0.923159
vn 0.382091 -0.055610 -0.922450
vn 0.382091 -0.055610 -0.922450
vn 0.923159 -0.039479 -0.382385
vn 0.923159 -0.039479 -0.382385
vn 0.922450 -0.055610 -0.382091
vn 0.922450 -0.055610 -0.382091
vn 0.923159 -0.039479 0.382385
vn 0.923159 -0.039479 0.382385
vn 0.922450 -0.055610 0.382092
vn 0.922450 -0.055610 0.382092
s off
f 1/9/1 2/10/2 10/11/3 9/12/4
f 2/10/5 3/13/6 11/14/7 10/11/8
f 3/13/9 4/15/10 12/16/11 11/14/12
f 4/15/13 5/17/14 13/18/15 12/16/16
f 5/17/17 6/19/18 14/20/19 13/18/20
f 6/19/21 7/21/22 15/22/23 14/20/24
f 7/21/25 8/23/26 16/24/27 15/22/28
f 8/23/29 1/9/30 9/12/31 16/24/32
f 26/45/33 25/46/34 27/35/35
f 28/47/36 26/45/37 27/35/38
f 29/48/39 28/47/40 27/35/41
f 30/49/42 29/48/43 27/35/44
f 31/50/45 30/49/46 27/35/47
f 32/51/48 31/50/49 27/35/50
f 33/52/51 32/51/52 27/35/53
f 25/46/54 33/52/55 27/35/56
f 50/69/57 51/70/58 52/36/59
f 51/70/60 53/71/61 52/36/62
f 53/71/63 54/72/64 52/36/65
f 54/72/66 55/73/67 52/36/68
f 55/73/69 56/74/70 52/36/71
f 56/74/72 57/26/73 52/36/74
f 57/26/75 58/25/76 52/36/77
f 58/25/78 50/69/79 52/36/80
f 2/2/81 1/1/82 17/38/83 18/37/84
f 3/3/85 2/2/86 18/37/87 19/39/88
f 4/4/89 3/3/90 19/39/91 20/40/92
f 5/5/93 4/4/94 20/40/95 21/41/96
f 6/6/97 5/5/98 21/41/99 22/42/100
f 7/7/101 6/6/102 22/42/103 23/43/104
f 8/8/105 7/7/106 23/43/107 24/44/108
f 1/1/109 8/8/110 24/44/111 17/38/112
f 18/37/113 17/38/114 25/46/115 26/45/116
f 19/39/117 18/37/118 26/45/119 28/47/120
f 20/40/121 19/39/122 28/47/123 29/48/124
f 21/41/125 20/40/126 29/48/127 30/49/128
f 22/42/129 21/41/130 30/49/131 31/50/132
f 23/43/133 22/42/134 31/50/135 32/51/136
f 24/44/137 23/43/138 32/51/139 33/52/140
f 17/38/141 24/44/142 33/52/143 25/46/144
f 9/33/145 10/32/146 64/80/147 65/81/148
f 10/32/149 11/31/150 63/79/151 64/80/152
f 11/31/153 12/30/154 62/78/155 63/79/156
f 12/30/157 13/29/158 61/77/159 62/78/160
f 13/29/161 14/28/162 60/76/163 61/77/164
f 14/28/165 15/27/166 59/75/167 60/76/168
f 15/27/169 16/34/170 66/82/171 59/75/172
f 16/34/173 9/33/174 65/81/175 66/82/176
f 34/53/177 35/54/178 43/62/179 42/61/180
f 35/54/181 36/55/182 44/63/183 43/62/184
f 36/55/185 37/56/186 45/64/187 44/63/188
f 37/56/189 38/57/190 46/65/191 45/64/192
f 38/57/193 39/58/194 47/66/195 46/65/196
f 39/58/197 40/59/198 48/67/199 47/66/200
f 40/59/201 41/60/202 49/68/203 48/67/204
f 41/60/205 34/53/206 42/61/207 49/68/208
f 42/61/209 43/62/210 51/70/211 50/69/212
f 43/62/213 44/63/214 53/71/215 51/70/216
f 44/63/217 45/64/218 54/72/219 53/71/220
f 45/64/221 46/65/222 55/73/223 54/72/224
f 46/65/225 47/66/226 56/74/227 55/73/228
f 47/66/229 48/67/230 57/26/231 56/74/232
f 48/67/233 49/68/234 58/25/235 57/26/236
f 49/68/237 42/61/238 50/69/239 58/25/240
f 60/76/241 59/75/242 40/59/243 39/58/244
f 61/77/245 60/76/246 39/58/247 38/57/248
f 62/78/249 61/77/250 38/57/251 37/56/252
f 63/79/253 62/78/254 37/56/255 36/55/256
f 64/80/257 63/79/258 36/55/259 35/54/260
f 65/81/261 64/80/262 35/54/263 34/53/264
f 66/82/265 65/81/266 34/53/267 41/60/268
f 59/75/269 66/82/270 41/60/271 40/59/272
