# This file uses meters as units for non-parametric coordinates.

v 0.000000 53.875580 -1.977595
v -12.880074 50.962029 -1.977595
v -13.365669 42.027054 -1.977595
v -15.308051 42.124176 -1.977595
v -16.279240 39.307724 -1.977595
v -15.502288 32.023792 -1.977595
v -12.297359 30.567017 -1.977595
v -11.131930 25.516815 -1.977595
v -10.160740 23.185959 -1.977595
v -6.275977 21.923409 -1.977595
v -6.955810 16.096268 -1.977595
v -10.549217 15.027962 -1.977595
v -19.192814 15.513554 -1.977595
v -26.165524 10.172005 -1.977595
v -26.165524 -0.996685 -1.977595
v -24.046192 -6.126804 -1.977595
v -22.631516 -21.734467 -1.977595
v -20.800648 -51.897141 -1.977595
v 0.000000 -53.875580 -1.977595
v 0.000000 21.540623 -1.977595
v 0.000000 42.189941 -1.977595
v 0.000000 14.490852 -1.977595
v 0.000000 -23.200340 -1.977595
v 0.000000 30.416012 -1.977595
v 0.000000 53.875580 1.223420
v -12.880074 50.962029 1.223420
v -13.365669 42.027054 1.223420
v 0.000000 42.189941 1.223420
v -6.275977 21.923409 1.223420
v 0.000000 21.540623 1.223420
v -6.955810 16.096268 1.223420
v 0.000000 14.490852 1.223420
v -12.297359 30.567017 1.223420
v -15.308051 42.124176 1.223420
v -16.279240 39.307724 1.223420
v -15.502288 32.023792 1.223420
v 0.000000 30.416012 1.223420
v -10.549217 15.027962 1.223420
v -24.046192 -6.126804 1.223420
v -22.631516 -21.734467 1.223420
v 0.000000 -23.200340 1.223420
v -19.192814 15.513554 1.223420
v -26.165524 10.172005 1.223420
v -26.165524 -0.996685 1.223420
v -20.800648 -51.897141 1.223420
v 0.000000 -53.875580 1.223420
v -11.131930 25.516815 1.223420
v -10.160740 23.185959 1.223420
v 12.880074 50.962029 -1.977595
v 13.365669 42.027054 -1.977595
v 15.308051 42.124176 -1.977595
v 16.279240 39.307724 -1.977595
v 15.502288 32.023792 -1.977595
v 12.297359 30.567017 -1.977595
v 11.131930 25.516815 -1.977595
v 10.160740 23.185959 -1.977595
v 6.275977 21.923409 -1.977595
v 6.955810 16.096268 -1.977595
v 10.549217 15.027962 -1.977595
v 19.192814 15.513554 -1.977595
v 26.165524 10.172005 -1.977595
v 26.165524 -0.996685 -1.977595
v 24.046192 -6.126804 -1.977595
v 22.631516 -21.734467 -1.977595
v 20.800648 -51.897141 -1.977595
v 12.880074 50.962029 1.223420
v 13.365669 42.027054 1.223420
v 6.275977 21.923409 1.223420
v 6.955810 16.096268 1.223420
v 12.297359 30.567017 1.223420
v 15.308051 42.124176 1.223420
v 16.279240 39.307724 1.223420
v 15.502288 32.023792 1.223420
v 10.549217 15.027962 1.223420
v 24.046192 -6.126804 1.223420
v 22.631516 -21.734467 1.223420
v 19.192814 15.513554 1.223420
v 26.165524 10.172005 1.223420
v 26.165524 -0.996685 1.223420
v 20.800648 -51.897141 1.223420
v 11.131930 25.516815 1.223420
v 10.160740 23.185959 1.223420
vt 0.079811 0.231678
vt 0.079811 0.231678
vt 0.079811 0.231678
vt 0.079811 0.231678
vt 0.079811 0.231678
vt 0.079811 0.231678
vt 0.079811 0.231678
vt 0.079811 0.231678
vt 0.079811 0.231678
vt 0.079811 0.231678
vt 0.079811 0.231678
vt 0.079811 0.231678
vt 0.079811 0.231678
vt 0.079811 0.231678
vt 0.079811 0.231678
vt 0.079811 0.231678
vt 0.079811 0.231678
vt 0.079811 0.231678
vt 0.079811 0.231678
vt 0.079811 0.231678
vt 0.079811 0.231678
vt 0.079811 0.231678
vt 0.079811 0.231678
vt 0.079811 0.231678
vt 0.079811 0.231678
vt 0.079811 0.231678
vt 0.079811 0.231678
vt 0.079811 0.231678
vt 0.079811 0.231678
vt 0.079811 0.231678
vt 0.079811 0.231678
vt 0.079811 0.231678
vt 0.079811 0.231678
vt 0.079811 0.231678
vt 0.079811 0.231678
vt 0.079811 0.231678
vt 0.079811 0.231678
vt 0.079811 0.231678
vt 0.079811 0.231678
vt 0.079811 0.231678
vt 0.079811 0.231678
vt 0.079811 0.231678
vt 0.079811 0.231678
vt 0.079811 0.231678
vt 0.079811 0.231678
vt 0.079811 0.231678
vt 0.079811 0.231678
vt 0.079811 0.231678
vt 0.079811 0.231678
vt 0.079811 0.231678
vt 0.079811 0.231678
vt 0.079811 0.231678
vt 0.079811 0.231678
vt 0.079811 0.231678
vt 0.079811 0.231678
vt 0.079811 0.231678
vt 0.079811 0.231678
vt 0.079811 0.231678
vt 0.079811 0.231678
vt 0.079811 0.231678
vt 0.079811 0.231678
vt 0.079811 0.231678
vt 0.079811 0.231678
vt 0.079811 0.231678
vt 0.079811 0.231678
vt 0.079811 0.231678
vt 0.079811 0.231678
vt 0.079811 0.231678
vt 0.079811 0.231678
vt 0.079811 0.231678
vt 0.079811 0.231678
vt 0.079811 0.231678
vt 0.079811 0.231678
vt 0.079811 0.231678
vt 0.079811 0.231678
vt 0.079811 0.231678
vt 0.079811 0.231678
vt 0.079811 0.231678
vt 0.079811 0.231678
vt 0.079811 0.231678
vt 0.079811 0.231678
vt 0.079811 0.231678
vt 0.079811 0.231678
vt 0.079811 0.231678
vt 0.079811 0.231678
vt 0.079811 0.231678
vt 0.079811 0.231678
vt 0.079811 0.231678
vt 0.079811 0.231678
vt 0.079811 0.231678
vt 0.079811 0.231678
vt 0.079811 0.231678
vt 0.079811 0.231678
vt 0.079811 0.231678
vt 0.079811 0.231678
vt 0.079811 0.231678
vt 0.079811 0.231678
vt 0.079811 0.231678
vt 0.079811 0.231678
vt 0.079811 0.231678
vt 0.079811 0.231678
vt 0.079811 0.231678
vt 0.079811 0.231678
vt 0.079811 0.231678
vt 0.079811 0.231678
vt 0.079811 0.231678
vt 0.079811 0.231678
vt 0.079811 0.231678
vt 0.079811 0.231678
vt 0.079811 0.231678
vt 0.079811 0.231678
vt 0.079811 0.231678
vt 0.079811 0.231678
vt 0.079811 0.231678
vt 0.079811 0.231678
vt 0.079811 0.231678
vt 0.079811 0.231678
vt 0.079811 0.231678
vt 0.079811 0.231678
vt 0.079811 0.231678
vt 0.079811 0.231678
vt 0.079811 0.231678
vt 0.079811 0.231678
vt 0.079811 0.231678
vt 0.079811 0.231678
vt 0.079811 0.231678
vt 0.079811 0.231678
vt 0.079811 0.231678
vt 0.079811 0.231678
vt 0.079811 0.231678
vt 0.079811 0.231678
vt 0.079811 0.231678
vt 0.079811 0.231678
vt 0.079811 0.231678
vn 0.000000 0.000000 1.000000
vn 0.000000 0.000000 1.000000
vn -0.000000 0.000000 1.000000
vn 0.000000 0.000000 1.000000
vn 0.000000 0.000000 1.000000
vn -0.000000 0.000000 1.000000
vn 0.000000 0.000000 1.000000
vn 0.000000 0.000000 1.000000
vn -0.000000 0.000000 1.000000
vn -0.000000 0.000000 1.000000
vn -0.000000 0.000000 1.000000
vn -0.000000 0.000000 1.000000
vn -0.000000 0.000000 1.000000
vn 0.000000 0.000000 1.000000
vn -0.000000 0.000000 1.000000
vn -0.000000 0.000000 1.000000
vn -0.000000 0.000000 1.000000
vn 0.000000 0.000000 1.000000
vn 0.000000 0.000000 1.000000
vn 0.000000 0.000000 1.000000
vn 0.000000 0.000000 1.000000
vn 0.000000 -0.000000 1.000000
vn 0.000000 -0.000000 1.000000
vn 0.000000 0.000000 1.000000
vn 0.000000 0.000000 1.000000
vn -0.000000 0.000000 1.000000
vn -0.000000 0.000000 1.000000
vn -0.000000 0.000000 1.000000
vn 0.000000 -0.000000 1.000000
vn 0.000000 -0.000000 1.000000
vn 0.000000 -0.000000 1.000000
vn 0.000000 -0.000000 1.000000
vn -0.000000 0.000000 1.000000
vn -0.000000 0.000000 1.000000
vn -0.000000 0.000000 1.000000
vn -0.000000 0.000000 1.000000
vn -0.000000 0.000000 1.000000
vn 0.000000 0.000000 1.000000
vn -0.000000 0.000000 -1.000000
vn -0.000000 0.000000 -1.000000
vn -0.000000 0.000000 -1.000000
vn -0.000000 0.000000 -1.000000
vn 0.000000 0.000000 -1.000000
vn -0.000000 0.000000 -1.000000
vn -0.000000 0.000000 -1.000000
vn 0.000000 0.000000 -1.000000
vn -0.000000 0.000000 -1.000000
vn 0.000000 0.000000 -1.000000
vn 0.000000 0.000000 -1.000000
vn 0.000000 0.000000 -1.000000
vn -0.000000 0.000000 -1.000000
vn -0.000000 0.000000 -1.000000
vn -0.000000 0.000000 -1.000000
vn -0.000000 0.000000 -1.000000
vn -0.000000 0.000000 -1.000000
vn -0.000000 0.000000 -1.000000
vn -0.000000 0.000000 -1.000000
vn -0.000000 0.000000 -1.000000
vn -0.000000 0.000000 -1.000000
vn -0.000000 0.000000 -1.000000
vn -0.000000 0.000000 -1.000000
vn -0.000000 0.000000 -1.000000
vn 0.000000 0.000000 -1.000000
vn 0.000000 0.000000 -1.000000
vn 0.000000 0.000000 -1.000000
vn -0.000000 0.000000 -1.000000
vn -0.000000 0.000000 -1.000000
vn -0.000000 0.000000 -1.000000
vn -0.000000 0.000000 -1.000000
vn -0.000000 0.000000 -1.000000
vn -0.000000 0.000000 -1.000000
vn 0.000000 0.000000 -1.000000
vn 0.000000 0.000000 -1.000000
vn 0.000000 0.000000 -1.000000
vn 0.000000 0.000000 -1.000000
vn -0.000000 0.000000 -1.000000
vn -0.220632 0.975357 0.000000
vn -0.220632 0.975357 0.000000
vn -0.220632 0.975357 0.000000
vn -0.220632 0.975357 0.000000
vn -0.998526 0.054268 0.000000
vn -0.998526 0.054268 0.000000
vn -0.998526 0.054268 0.000000
vn -0.998526 0.054268 0.000000
vn -0.993263 0.115881 0.000000
vn -0.993263 0.115881 0.000000
vn -0.993263 0.115881 0.000000
vn -0.993263 0.115881 0.000000
vn 0.049939 0.998752 0.000000
vn 0.049939 0.998752 0.000000
vn 0.049939 0.998752 0.000000
vn 0.049939 0.998752 0.000000
vn -0.945373 0.325990 0.000000
vn -0.999815 0.019227 0.000000
vn -0.999815 0.019227 0.000000
vn -0.945373 0.325990 0.000000
vn -0.999815 0.019227 0.000000
vn -0.994359 -0.106065 0.000000
vn -0.994359 -0.106065 0.000000
vn -0.999815 0.019227 0.000000
vn -0.413801 -0.910368 0.000000
vn -0.413801 -0.910368 0.000000
vn -0.413801 -0.910368 0.000000
vn -0.413801 -0.910368 0.000000
vn -0.284969 0.958537 0.000000
vn -0.047565 0.998868 0.000000
vn -0.047565 0.998868 0.000000
vn -0.284969 0.958537 0.000000
vn -0.985788 -0.167992 0.000000
vn -0.997495 -0.070732 0.000000
vn -0.997495 -0.070732 0.000000
vn -0.985788 -0.167992 0.000000
vn -0.047565 0.998868 0.000000
vn 0.056091 0.998426 0.000000
vn 0.056091 0.998426 0.000000
vn -0.047565 0.998868 0.000000
vn -0.608131 0.793837 0.000000
vn -0.608131 0.793837 0.000000
vn -0.608131 0.793837 0.000000
vn -0.608131 0.793837 0.000000
vn -1.000000 0.000000 0.000000
vn -1.000000 0.000000 0.000000
vn -1.000000 0.000000 0.000000
vn -1.000000 0.000000 0.000000
vn -0.924238 -0.381817 0.000000
vn -0.985788 -0.167992 0.000000
vn -0.985788 -0.167992 0.000000
vn -0.924238 -0.381817 0.000000
vn -0.997495 -0.070732 0.000000
vn -0.998163 -0.060588 0.000000
vn -0.998163 -0.060588 0.000000
vn -0.997495 -0.070732 0.000000
vn -0.094687 -0.995507 0.000000
vn -0.094687 -0.995507 0.000000
vn -0.094687 -0.995507 0.000000
vn -0.094687 -0.995507 0.000000
vn -0.974391 -0.224859 0.000000
vn -0.960564 -0.278058 0.000000
vn -0.960564 -0.278058 0.000000
vn -0.974391 -0.224859 0.000000
vn -0.960564 -0.278058 0.000000
vn -0.923077 -0.384615 0.000000
vn -0.923077 -0.384615 0.000000
vn -0.960564 -0.278058 0.000000
vn -0.309087 -0.951034 0.000000
vn -0.309087 -0.951034 0.000000
vn -0.309087 -0.951034 0.000000
vn -0.309087 -0.951034 0.000000
vn 0.000000 0.000000 1.000000
vn -0.000000 0.000000 1.000000
vn -0.000000 0.000000 1.000000
vn 0.000000 0.000000 1.000000
vn -0.000000 0.000000 1.000000
vn -0.000000 0.000000 1.000000
vn -0.000000 0.000000 1.000000
vn 0.000000 0.000000 1.000000
vn 0.000000 0.000000 1.000000
vn 0.000000 0.000000 1.000000
vn 0.000000 0.000000 1.000000
vn 0.000000 0.000000 1.000000
vn -0.000000 0.000000 1.000000
vn -0.000000 0.000000 1.000000
vn 0.000000 0.000000 1.000000
vn 0.000000 0.000000 1.000000
vn -0.000000 0.000000 1.000000
vn -0.000000 0.000000 1.000000
vn -0.000000 -0.000000 1.000000
vn -0.000000 -0.000000 1.000000
vn -0.000000 0.000000 1.000000
vn -0.000000 0.000000 1.000000
vn -0.000000 0.000000 1.000000
vn -0.000000 0.000000 1.000000
vn 0.000000 0.000000 1.000000
vn 0.000000 0.000000 1.000000
vn 0.000000 0.000000 1.000000
vn -0.000000 0.000000 1.000000
vn -0.000000 -0.000000 1.000000
vn -0.000000 -0.000000 1.000000
vn -0.000000 -0.000000 1.000000
vn -0.000000 -0.000000 1.000000
vn 0.000000 0.000000 1.000000
vn -0.000000 0.000000 1.000000
vn 0.000000 0.000000 1.000000
vn 0.000000 0.000000 1.000000
vn 0.000000 0.000000 1.000000
vn 0.000000 0.000000 1.000000
vn 0.000000 0.000000 -1.000000
vn 0.000000 0.000000 -1.000000
vn 0.000000 0.000000 -1.000000
vn 0.000000 0.000000 -1.000000
vn 0.000000 0.000000 -1.000000
vn 0.000000 0.000000 -1.000000
vn 0.000000 0.000000 -1.000000
vn 0.000000 0.000000 -1.000000
vn 0.000000 0.000000 -1.000000
vn 0.000000 0.000000 -1.000000
vn 0.000000 0.000000 -1.000000
vn 0.000000 0.000000 -1.000000
vn 0.000000 0.000000 -1.000000
vn 0.000000 0.000000 -1.000000
vn 0.000000 0.000000 -1.000000
vn 0.000000 0.000000 -1.000000
vn 0.000000 0.000000 -1.000000
vn 0.000000 0.000000 -1.000000
vn 0.000000 0.000000 -1.000000
vn -0.000000 0.000000 -1.000000
vn -0.000000 0.000000 -1.000000
vn 0.000000 0.000000 -1.000000
vn 0.000000 0.000000 -1.000000
vn -0.000000 0.000000 -1.000000
vn -0.000000 0.000000 -1.000000
vn -0.000000 0.000000 -1.000000
vn -0.000000 0.000000 -1.000000
vn -0.000000 0.000000 -1.000000
vn 0.000000 0.000000 -1.000000
vn 0.000000 0.000000 -1.000000
vn 0.000000 0.000000 -1.000000
vn 0.000000 0.000000 -1.000000
vn 0.000000 0.000000 -1.000000
vn 0.000000 0.000000 -1.000000
vn 0.000000 0.000000 -1.000000
vn 0.000000 0.000000 -1.000000
vn 0.000000 0.000000 -1.000000
vn 0.000000 0.000000 -1.000000
vn 0.220632 0.975357 0.000000
vn 0.220632 0.975357 0.000000
vn 0.220632 0.975357 0.000000
vn 0.220632 0.975357 0.000000
vn 0.998526 0.054268 0.000000
vn 0.998526 0.054268 0.000000
vn 0.998526 0.054268 0.000000
vn 0.998526 0.054268 0.000000
vn 0.993263 0.115881 0.000000
vn 0.993263 0.115881 0.000000
vn 0.993263 0.115881 0.000000
vn 0.993263 0.115881 0.000000
vn -0.049939 0.998752 0.000000
vn -0.049939 0.998752 0.000000
vn -0.049939 0.998752 0.000000
vn -0.049939 0.998752 0.000000
vn 0.945373 0.325990 0.000000
vn 0.945373 0.325990 0.000000
vn 0.999815 0.019227 0.000000
vn 0.999815 0.019227 0.000000
vn 0.999815 0.019227 0.000000
vn 0.999815 0.019227 0.000000
vn 0.994359 -0.106065 0.000000
vn 0.994359 -0.106065 0.000000
vn 0.413801 -0.910368 0.000000
vn 0.413801 -0.910368 0.000000
vn 0.413801 -0.910368 0.000000
vn 0.413801 -0.910368 0.000000
vn 0.284969 0.958537 0.000000
vn 0.284969 0.958537 0.000000
vn 0.047565 0.998868 0.000000
vn 0.047565 0.998868 0.000000
vn 0.985788 -0.167992 0.000000
vn 0.985788 -0.167992 0.000000
vn 0.997495 -0.070732 0.000000
vn 0.997495 -0.070732 0.000000
vn 0.047565 0.998868 0.000000
vn 0.047565 0.998868 0.000000
vn -0.056091 0.998426 0.000000
vn -0.056091 0.998426 0.000000
vn 0.608131 0.793837 0.000000
vn 0.608131 0.793837 0.000000
vn 0.608131 0.793837 0.000000
vn 0.608131 0.793837 0.000000
vn 1.000000 0.000000 0.000000
vn 1.000000 0.000000 0.000000
vn 1.000000 0.000000 0.000000
vn 1.000000 0.000000 0.000000
vn 0.924238 -0.381817 0.000000
vn 0.924238 -0.381817 0.000000
vn 0.985788 -0.167992 0.000000
vn 0.985788 -0.167992 0.000000
vn 0.997495 -0.070732 0.000000
vn 0.997495 -0.070732 0.000000
vn 0.998163 -0.060588 0.000000
vn 0.998163 -0.060588 0.000000
vn 0.094687 -0.995507 0.000000
vn 0.094687 -0.995507 0.000000
vn 0.094687 -0.995507 0.000000
vn 0.094687 -0.995507 0.000000
vn 0.974391 -0.224859 0.000000
vn 0.974391 -0.224859 0.000000
vn 0.960564 -0.278058 0.000000
vn 0.960564 -0.278058 0.000000
vn 0.960564 -0.278058 0.000000
vn 0.960564 -0.278058 0.000000
vn 0.923077 -0.384615 0.000000
vn 0.923077 -0.384615 0.000000
vn 0.309087 -0.951034 0.000000
vn 0.309087 -0.951034 0.000000
vn 0.309087 -0.951034 0.000000
vn 0.309087 -0.951034 0.000000
s off
f 25/44/1 26/45/2 27/46/3 28/47/4
f 30/51/5 29/48/6 31/49/7 32/50/8
f 33/55/9 27/46/10 34/52/11 35/53/12 36/54/13
f 28/47/14 27/46/15 33/55/16 37/56/17
f 32/50/18 31/49/19 38/57/20 39/58/21 40/59/22 41/60/23
f 39/58/24 38/57/25 42/61/26 43/62/27 44/63/28
f 41/60/29 40/59/30 45/64/31 46/65/32
f 37/56/33 33/55/34 47/66/35 48/67/36 29/48/37 30/51/38
f 1/20/39 21/23/40 3/22/41 2/21/42
f 20/24/43 22/27/44 11/26/45 10/25/46
f 7/28/47 6/31/48 5/30/49 4/29/50 3/22/51
f 21/23/52 24/32/53 7/28/54 3/22/55
f 22/27/56 23/36/57 17/35/58 16/34/59 12/33/60 11/26/61
f 16/34/62 15/39/63 14/38/64 13/37/65 12/33/66
f 23/36/67 19/41/68 18/40/69 17/35/70
f 24/32/71 20/24/72 10/25/73 9/43/74 8/42/75 7/28/76
f 1/1/77 2/2/78 26/45/79 25/44/80
f 2/2/81 3/3/82 27/46/83 26/45/84
f 10/10/85 11/11/86 31/49/87 29/48/88
f 3/3/89 4/4/90 34/52/91 27/46/92
f 4/4/93 5/5/94 35/53/95 34/52/96
f 5/5/97 6/6/98 36/54/99 35/53/100
f 6/6/101 7/7/102 33/55/103 36/54/104
f 11/11/105 12/12/106 38/57/107 31/49/108
f 16/16/109 17/17/110 40/59/111 39/58/112
f 12/12/113 13/13/114 42/61/115 38/57/116
f 13/13/117 14/14/118 43/62/119 42/61/120
f 14/14/121 15/15/122 44/63/123 43/62/124
f 15/15/125 16/16/126 39/58/127 44/63/128
f 17/17/129 18/18/130 45/64/131 40/59/132
f 18/18/133 19/19/134 46/65/135 45/64/136
f 7/7/137 8/8/138 47/66/139 33/55/140
f 8/8/141 9/9/142 48/67/143 47/66/144
f 9/9/145 10/10/146 29/48/147 48/67/148
f 25/68/149 28/71/150 67/70/151 66/69/152
f 30/72/153 32/75/154 69/74/155 68/73/156
f 70/76/157 73/79/158 72/78/159 71/77/160 67/70/161
f 28/71/162 37/80/163 70/76/164 67/70/165
f 32/75/166 41/84/167 76/83/168 75/82/169 74/81/170 69/74/171
f 75/82/172 79/87/173 78/86/174 77/85/175 74/81/176
f 41/84/177 46/89/178 80/88/179 76/83/180
f 37/80/181 30/72/182 68/73/183 82/91/184 81/90/185 70/76/186
f 1/92/187 49/95/188 50/94/189 21/93/190
f 20/96/191 57/99/192 58/98/193 22/97/194
f 54/100/195 50/94/196 51/103/197 52/102/198 53/101/199
f 21/93/200 50/94/201 54/100/202 24/104/203
f 22/97/204 58/98/205 59/108/206 63/107/207 64/106/208 23/105/209
f 63/107/210 59/108/211 60/111/212 61/110/213 62/109/214
f 23/105/215 64/106/216 65/113/217 19/112/218
f 24/104/219 54/100/220 55/115/221 56/114/222 57/99/223 20/96/224
f 1/116/225 25/68/226 66/69/227 49/117/228
f 49/117/229 66/69/230 67/70/231 50/118/232
f 57/119/233 68/73/234 69/74/235 58/120/236
f 50/118/237 67/70/238 71/77/239 51/121/240
f 51/121/241 71/77/242 72/78/243 52/122/244
f 52/122/245 72/78/246 73/79/247 53/123/248
f 53/123/249 73/79/250 70/76/251 54/124/252
f 58/120/253 69/74/254 74/81/255 59/125/256
f 63/126/257 75/82/258 76/83/259 64/127/260
f 59/125/261 74/81/262 77/85/263 60/128/264
f 60/128/265 77/85/266 78/86/267 61/129/268
f 61/129/269 78/86/270 79/87/271 62/130/272
f 62/130/273 79/87/274 75/82/275 63/126/276
f 64/127/277 76/83/278 80/88/279 65/131/280
f 65/131/281 80/88/282 46/89/283 19/132/284
f 54/124/285 70/76/286 81/90/287 55/133/288
f 55/133/289 81/90/290 82/91/291 56/134/292
f 56/134/293 82/91/294 68/73/295 57/119/296
