# This file uses meters as units for non-parametric coordinates.

v 65.295799 -4.127107 -65.742912
v 53.527916 -4.127107 -78.478691
v 65.295799 1.660575 -65.742912
v 53.527916 1.660575 -78.478691
v -63.654987 -4.127107 -65.742912
v -51.887066 -4.127107 -78.478691
v -63.654987 1.660575 -65.742912
v -51.887066 1.660575 -78.478691
v 65.295799 1.660575 65.742882
v 53.527916 1.660575 78.478691
v 65.295799 -4.127107 65.742882
v 53.527916 -4.127107 78.478691
v -51.887066 1.660575 78.478691
v -63.654987 1.660575 65.742882
v -63.654987 -4.127107 65.742882
v -51.887066 -4.127107 78.478691
v 49.212971 2.821112 -72.904236
v 60.144966 2.821112 -61.073055
v -47.572117 2.821112 -72.904236
v -58.504143 2.821112 -61.073055
v -58.504143 2.821112 61.073017
v -47.572117 2.821112 72.904221
v 49.212971 2.821112 72.904221
v 60.144966 2.821112 61.073017
v 0.000009 2.821112 72.904221
v 0.000009 1.660575 78.478691
v 0.000009 -4.127107 78.478691
v 0.000009 -4.127107 -78.478691
v 0.000009 1.660575 -78.478691
v 0.000009 2.821112 -72.904236
v 0.000009 2.821112 66.764862
v 0.000009 2.821112 -58.180756
v 0.000009 2.821112 -50.805969
v 0.000009 2.821112 -29.963285
v 0.000009 2.821112 -18.563251
v 0.000009 2.821112 2.279444
v 0.000009 2.821112 13.679485
v 0.000009 2.821112 34.522163
v 0.000009 2.821112 45.922199
v -38.884144 -4.127107 -78.478691
v -38.884144 1.660575 -78.478691
v -35.492840 2.821112 -72.904236
v -47.846077 2.821112 -65.691193
v -47.846077 2.821112 -44.848488
v -47.846077 2.821112 -33.448452
v -47.846077 2.821112 -12.605771
v -47.846077 2.821112 -1.205722
v -47.846077 2.821112 19.636969
v -47.846077 2.821112 31.036993
v -47.846077 2.821112 51.879650
v -35.492840 2.821112 72.904221
v -38.884144 1.660575 78.478691
v -38.884144 -4.127107 78.478691
v 40.524982 -4.127107 -78.478691
v 40.524982 1.660575 -78.478691
v 37.133644 2.821112 -72.904236
v 47.846107 2.821112 -65.691193
v 47.846107 2.821112 -44.848488
v 47.846107 2.821112 -33.448452
v 47.846107 2.821112 -12.605771
v 47.846107 2.821112 -1.205722
v 47.846107 2.821112 19.636969
v 47.846107 2.821112 31.036993
v 47.846107 2.821112 51.879650
v 37.133644 2.821112 72.904221
v 40.524982 1.660575 78.478691
v 40.524982 -4.127107 78.478691
v 0.000009 -4.127107 0.000000
v 0.000018 2.821112 48.954533
v -44.260593 2.821112 36.038807
v -44.260593 2.821112 50.372475
v 0.000018 2.821112 62.894341
v 44.260624 2.821112 36.038807
v 44.260624 2.821112 50.372475
v 0.000018 2.821112 -47.773628
v -44.260593 2.821112 -60.689384
v -44.260593 2.821112 -46.355682
v 0.000018 2.821112 -33.833809
v 44.260624 2.821112 -60.689384
v 44.260624 2.821112 -46.355682
v 0.000018 2.821112 -15.530910
v -44.260593 2.821112 -28.446632
v -44.260593 2.821112 -14.112958
v 0.000018 2.821112 -1.591083
v 44.260624 2.821112 -28.446632
v 44.260624 2.821112 -14.112958
v 0.000018 2.821112 16.711809
v -44.260593 2.821112 3.796099
v -44.260593 2.821112 18.129782
v 0.000018 2.821112 30.651632
v 44.459961 2.821112 2.664805
v 44.459961 2.821112 17.218161
vt 0.079394 0.306933
vt 0.079394 0.306933
vt 0.079394 0.306933
vt 0.079394 0.306933
vt 0.079394 0.306933
vt 0.079394 0.306933
vt 0.079394 0.306933
vt 0.079394 0.306933
vt 0.079394 0.306933
vt 0.079394 0.306933
vt 0.079394 0.306933
vt 0.079394 0.306933
vt 0.079395 0.306933
vt 0.079395 0.306933
vt 0.079395 0.306933
vt 0.079395 0.306933
vt 0.079394 0.306933
vt 0.079394 0.306933
vt 0.079394 0.306933
vt 0.079394 0.306933
vt 0.079394 0.306933
vt 0.079395 0.306933
vt 0.090985 0.303069
vt 0.090985 0.303069
vt 0.090985 0.303069
vt 0.090985 0.303069
vt 0.090985 0.303069
vt 0.090985 0.303069
vt 0.090985 0.303069
vt 0.090985 0.303069
vt 0.090985 0.303069
vt 0.079394 0.306933
vt 0.079394 0.306933
vt 0.079394 0.306933
vt 0.079394 0.306933
vt 0.090985 0.303069
vt 0.090985 0.303069
vt 0.090985 0.303069
vt 0.090985 0.303069
vt 0.090985 0.303069
vt 0.090985 0.303069
vt 0.090985 0.303069
vt 0.090985 0.303069
vt 0.090985 0.303069
vt 0.090985 0.303069
vt 0.079394 0.306933
vt 0.079394 0.306933
vt 0.090985 0.303069
vt 0.090985 0.303069
vt 0.090985 0.303069
vt 0.090985 0.303069
vt 0.090985 0.303069
vt 0.090985 0.303069
vt 0.090985 0.303069
vt 0.090985 0.303069
vt 0.090985 0.303069
vt 0.090985 0.303069
vt 0.079394 0.306933
vt 0.079395 0.306933
vt 0.079394 0.306933
vt 0.079394 0.306933
vt 0.090985 0.303069
vt 0.090985 0.303069
vt 0.090985 0.303069
vt 0.090985 0.303069
vt 0.090985 0.303069
vt 0.090985 0.303069
vt 0.090985 0.303069
vt 0.090985 0.303069
vt 0.090985 0.303069
vt 0.090985 0.303069
vt 0.079394 0.306933
vt 0.079394 0.306933
vt 0.206811 0.352385
vt 0.206811 0.352385
vt 0.206811 0.352385
vt 0.206811 0.352385
vt 0.206811 0.352385
vt 0.206811 0.352385
vt 0.206811 0.352385
vt 0.206811 0.352385
vt 0.206811 0.352385
vt 0.206811 0.352385
vt 0.206811 0.352385
vt 0.206811 0.352385
vt 0.206811 0.352385
vt 0.206811 0.352385
vt 0.206811 0.352385
vt 0.206811 0.352385
vt 0.206811 0.352385
vt 0.206811 0.352385
vt 0.206811 0.352385
vt 0.206811 0.352385
vt 0.206811 0.352385
vt 0.206811 0.352385
vt 0.206811 0.352385
vt 0.206811 0.352385
vt 0.079394 0.306933
vt 0.079394 0.306933
vt 0.079394 0.306933
vt 0.079394 0.306933
vt 0.079394 0.306933
vt 0.079394 0.306933
vt 0.079394 0.306933
vt 0.079394 0.306933
vt 0.080676 0.304530
vt 0.080677 0.304530
vt 0.080676 0.304530
vt 0.080677 0.304530
vt 0.080677 0.304530
vt 0.080677 0.304530
vt 0.080677 0.304530
vt 0.080676 0.304530
vt 0.080677 0.304530
vt 0.080677 0.304530
vt 0.080677 0.304530
vt 0.080676 0.304530
vt 0.080677 0.304530
vt 0.080677 0.304530
vt 0.080676 0.304530
vt 0.206811 0.352385
vt 0.206811 0.352385
vt 0.206811 0.352385
vt 0.206811 0.352385
vt 0.206811 0.352385
vt 0.206811 0.352385
vt 0.206811 0.352385
vt 0.206811 0.352385
vt 0.206811 0.352385
vt 0.206811 0.352385
vt 0.206811 0.352385
vt 0.206811 0.352385
vt 0.206811 0.352385
vt 0.206811 0.352385
vt 0.206811 0.352385
vt 0.206811 0.352385
vt 0.206811 0.352385
vt 0.206811 0.352385
vt 0.206811 0.352385
vt 0.206811 0.352385
vt 0.206811 0.352385
vt 0.206811 0.352385
vt 0.206811 0.352385
vt 0.206811 0.352385
vt 0.209622 0.302003
vt 0.209622 0.302003
vt 0.209622 0.302003
vt 0.209622 0.302003
vt 0.209622 0.302003
vt 0.209622 0.302003
vt 0.209622 0.302003
vt 0.209622 0.302003
vt 0.209622 0.302003
vt 0.209622 0.302003
vt 0.209622 0.302003
vt 0.209622 0.302003
vt 0.209622 0.302003
vt 0.209622 0.302003
vt 0.209622 0.302003
vt 0.209622 0.302003
vt 0.209622 0.302003
vt 0.209622 0.302003
vt 0.209622 0.302003
vt 0.209622 0.302003
vt 0.209622 0.302003
vt 0.209622 0.302003
vt 0.209622 0.302003
vt 0.209622 0.302003
vt 0.206811 0.352385
vt 0.206811 0.352385
vt 0.206811 0.352385
vt 0.206811 0.352385
vt 0.206811 0.352385
vt 0.206811 0.352385
vt 0.206811 0.352385
vt 0.206811 0.352385
vt 0.206811 0.352385
vt 0.206811 0.352385
vt 0.206811 0.352385
vt 0.206811 0.352385
vt 0.206811 0.352385
vt 0.206811 0.352385
vt 0.206811 0.352385
vt 0.206811 0.352385
vt 0.206811 0.352385
vt 0.206811 0.352385
vt 0.206811 0.352385
vt 0.206811 0.352385
vt 0.206811 0.352385
vt 0.206811 0.352385
vt 0.206811 0.352385
vt 0.206811 0.352385
vn 0.000000 0.000000 -1.000000
vn 0.000000 0.000000 -1.000000
vn 0.000000 0.000000 -1.000000
vn 0.000000 0.000000 -1.000000
vn 0.000000 0.000000 1.000000
vn 0.000000 0.000000 1.000000
vn 0.000000 0.000000 1.000000
vn 0.000000 0.000000 1.000000
vn -1.000000 0.000000 0.000000
vn -1.000000 0.000000 0.000000
vn -1.000000 0.000000 0.000000
vn -1.000000 0.000000 0.000000
vn 1.000000 0.000000 0.000000
vn 1.000000 0.000000 0.000000
vn 1.000000 0.000000 0.000000
vn 1.000000 0.000000 0.000000
vn 0.734465 0.000000 -0.678647
vn 0.734465 0.000000 -0.678647
vn 0.734465 0.000000 -0.678647
vn 0.734465 0.000000 -0.678647
vn -0.734464 0.000000 -0.678648
vn -0.734464 0.000000 -0.678648
vn -0.734464 0.000000 -0.678648
vn -0.734464 0.000000 -0.678648
vn 0.734466 0.000000 0.678646
vn 0.734466 0.000000 0.678646
vn 0.734466 0.000000 0.678646
vn 0.734466 0.000000 0.678646
vn -0.734464 0.000000 0.678647
vn -0.734464 0.000000 0.678647
vn -0.734464 0.000000 0.678647
vn -0.734464 0.000000 0.678647
vn 0.120930 0.986352 -0.111740
vn 0.120930 0.986352 -0.111740
vn 0.120930 0.986352 -0.111740
vn 0.120930 0.986352 -0.111740
vn 0.000000 0.979009 -0.203818
vn 0.000000 0.979009 -0.203818
vn 0.000000 0.979009 -0.203818
vn 0.000000 0.979009 -0.203818
vn -0.120930 0.986352 -0.111740
vn -0.120930 0.986352 -0.111740
vn -0.120930 0.986352 -0.111740
vn -0.120930 0.986352 -0.111740
vn -0.219800 0.975545 0.000000
vn -0.219800 0.975545 0.000000
vn -0.219800 0.975545 0.000000
vn -0.219800 0.975545 0.000000
vn -0.120930 0.986352 0.111740
vn -0.120930 0.986352 0.111740
vn -0.120930 0.986352 0.111740
vn -0.120930 0.986352 0.111740
vn 0.000000 0.979009 0.203818
vn 0.000000 0.979009 0.203818
vn 0.000000 0.979009 0.203818
vn 0.000000 0.979009 0.203818
vn 0.120930 0.986352 0.111740
vn 0.120930 0.986352 0.111740
vn 0.120930 0.986352 0.111740
vn 0.120930 0.986352 0.111740
vn 0.219800 0.975545 0.000000
vn 0.219800 0.975545 0.000000
vn 0.219800 0.975545 0.000000
vn 0.219800 0.975545 0.000000
vn 0.000000 1.000000 -0.000000
vn 0.000000 1.000000 0.000000
vn 0.000000 1.000000 -0.000000
vn 0.000000 1.000000 -0.000000
vn 0.000000 0.979009 0.203818
vn 0.000000 0.979009 0.203818
vn 0.000000 0.979009 0.203818
vn 0.000000 0.979009 0.203818
vn 0.000000 0.000000 1.000000
vn 0.000000 0.000000 1.000000
vn 0.000000 0.000000 1.000000
vn 0.000000 0.000000 1.000000
vn 0.000000 0.000000 -1.000000
vn 0.000000 0.000000 -1.000000
vn 0.000000 0.000000 -1.000000
vn 0.000000 0.000000 -1.000000
vn 0.000000 0.979009 -0.203818
vn 0.000000 0.979009 -0.203818
vn 0.000000 0.979009 -0.203818
vn 0.000000 0.979009 -0.203818
vn 0.000000 1.000000 0.000000
vn 0.000000 1.000000 0.000000
vn 0.000000 1.000000 0.000000
vn 0.000000 1.000000 0.000000
vn 0.000000 1.000000 0.000000
vn 0.000000 1.000000 0.000000
vn 0.000000 1.000000 0.000000
vn 0.000000 1.000000 0.000000
vn 0.000000 1.000000 0.000000
vn 0.000000 1.000000 -0.000000
vn 0.000000 1.000000 -0.000000
vn 0.000000 1.000000 0.000000
vn 0.000000 1.000000 -0.000000
vn 0.000000 1.000000 -0.000000
vn 0.000000 1.000000 0.000000
vn 0.000000 1.000000 -0.000000
vn 0.000000 1.000000 -0.000000
vn 0.000000 1.000000 0.000000
vn 0.000000 1.000000 0.000000
vn 0.000000 1.000000 0.000000
vn 0.000000 1.000000 0.000000
vn 0.000000 1.000000 -0.000000
vn 0.000000 1.000000 -0.000000
vn 0.000000 1.000000 0.000000
vn 0.000000 1.000000 0.000000
vn 0.000000 1.000000 0.000000
vn 0.000000 1.000000 -0.000000
vn 0.000000 1.000000 0.000000
vn 0.000000 1.000000 -0.000000
vn 0.000000 1.000000 -0.000000
vn 0.000000 1.000000 0.000000
vn 0.000000 1.000000 0.000000
vn 0.000000 1.000000 -0.000000
vn 0.000000 1.000000 0.000000
vn 0.000000 1.000000 0.000000
vn 0.000000 1.000000 0.000000
vn 0.000000 1.000000 -0.000000
vn 0.000000 1.000000 0.000000
vn 0.000000 1.000000 0.000000
vn 0.000000 1.000000 0.000000
vn 0.000000 1.000000 -0.000000
vn 0.000000 1.000000 -0.000000
vn 0.000000 1.000000 0.000000
vn 0.000000 1.000000 -0.000000
vn 0.000000 1.000000 -0.000000
vn 0.000000 1.000000 0.000000
vn 0.000000 1.000000 0.000000
vn 0.000000 1.000000 0.000000
vn 0.000000 1.000000 0.000000
vn 0.000000 1.000000 -0.000000
vn 0.000000 1.000000 -0.000000
vn 0.000000 1.000000 -0.000000
vn 0.000000 1.000000 -0.000000
vn 0.000000 1.000000 0.000000
vn 0.000000 1.000000 0.000000
vn 0.000000 1.000000 0.000000
vn 0.000000 1.000000 0.000000
vn 0.000000 1.000000 -0.000000
vn 0.000000 1.000000 -0.000000
vn 0.000000 1.000000 -0.000000
vn 0.000000 1.000000 -0.000000
vn 0.000000 1.000000 0.000000
vn 0.000000 1.000000 0.000000
vn 0.000000 1.000000 0.000000
vn 0.000000 1.000000 0.000000
vn 0.000000 1.000000 -0.000000
vn 0.000000 1.000000 -0.000000
vn 0.000000 0.000000 -1.000000
vn 0.000000 0.000000 -1.000000
vn 0.000000 0.000000 -1.000000
vn 0.000000 0.000000 -1.000000
vn 0.000000 0.979009 -0.203818
vn 0.000000 0.979009 -0.203818
vn 0.000000 0.979009 -0.203818
vn 0.000000 0.979009 -0.203818
vn 0.000000 1.000000 -0.000000
vn 0.000000 1.000000 -0.000000
vn 0.000000 1.000000 0.000000
vn 0.000000 1.000000 -0.000000
vn 0.000000 1.000000 -0.000000
vn 0.000000 1.000000 -0.000000
vn 0.000000 1.000000 0.000000
vn 0.000000 1.000000 0.000000
vn 0.000000 1.000000 -0.000000
vn 0.000000 1.000000 -0.000000
vn 0.000000 1.000000 -0.000000
vn 0.000000 1.000000 0.000000
vn 0.000000 1.000000 -0.000000
vn 0.000000 1.000000 -0.000000
vn 0.000000 1.000000 0.000000
vn 0.000000 1.000000 0.000000
vn 0.000000 1.000000 0.000000
vn 0.000000 1.000000 0.000000
vn 0.000000 1.000000 -0.000000
vn 0.000000 1.000000 -0.000000
vn 0.000000 1.000000 0.000000
vn 0.000000 1.000000 0.000000
vn 0.000000 1.000000 0.000000
vn 0.000000 1.000000 0.000000
vn 0.000000 1.000000 -0.000000
vn 0.000000 1.000000 0.000000
vn 0.000000 1.000000 0.000000
vn 0.000000 1.000000 -0.000000
vn 0.000000 1.000000 -0.000000
vn 0.000000 1.000000 0.000000
vn 0.000000 1.000000 0.000000
vn 0.000000 1.000000 0.000000
vn 0.000000 0.979009 0.203818
vn 0.000000 0.979009 0.203818
vn 0.000000 0.979009 0.203818
vn 0.000000 0.979009 0.203818
vn 0.000000 0.000000 1.000000
vn 0.000000 0.000000 1.000000
vn 0.000000 0.000000 1.000000
vn 0.000000 0.000000 1.000000
vn 0.000000 0.000000 -1.000000
vn 0.000000 0.000000 -1.000000
vn 0.000000 0.000000 -1.000000
vn 0.000000 0.000000 -1.000000
vn 0.000000 0.979009 -0.203818
vn 0.000000 0.979009 -0.203818
vn 0.000000 0.979009 -0.203818
vn 0.000000 0.979009 -0.203818
vn 0.000000 1.000000 0.000000
vn 0.000000 1.000000 -0.000000
vn 0.000000 1.000000 0.000000
vn 0.000000 1.000000 0.000000
vn 0.000000 1.000000 0.000000
vn 0.000000 1.000000 -0.000000
vn 0.000000 1.000000 -0.000000
vn 0.000000 1.000000 0.000000
vn 0.000000 1.000000 -0.000000
vn 0.000000 1.000000 -0.000000
vn 0.000000 1.000000 0.000000
vn 0.000000 1.000000 -0.000000
vn 0.000000 1.000000 0.000000
vn 0.000000 1.000000 0.000000
vn 0.000000 1.000000 -0.000000
vn 0.000000 1.000000 0.000000
vn 0.000000 1.000000 -0.000000
vn 0.000000 1.000000 -0.000000
vn 0.000000 1.000000 0.000000
vn 0.000000 1.000000 -0.000000
vn 0.000000 1.000000 0.000000
vn 0.000000 1.000000 0.000000
vn 0.000000 1.000000 -0.000000
vn 0.000000 1.000000 -0.000000
vn 0.000000 1.000000 -0.000000
vn 0.000000 1.000000 -0.000000
vn 0.000000 1.000000 0.000000
vn 0.000000 1.000000 -0.000000
vn 0.000000 1.000000 -0.000000
vn 0.000000 1.000000 0.000000
vn 0.000000 1.000000 -0.000000
vn 0.000000 1.000000 0.000000
vn 0.000000 1.000000 -0.000000
vn 0.000000 1.000000 -0.000000
vn 0.000000 1.000000 0.000000
vn 0.000000 1.000000 0.000000
vn 0.000000 1.000000 0.000000
vn 0.000000 1.000000 -0.000000
vn 0.000000 1.000000 -0.000000
vn 0.000000 0.979009 0.203818
vn 0.000000 0.979009 0.203818
vn 0.000000 0.979009 0.203818
vn 0.000000 0.979009 0.203818
vn 0.000000 0.000000 1.000000
vn 0.000000 0.000000 1.000000
vn 0.000000 0.000000 1.000000
vn 0.000000 0.000000 1.000000
vn 0.000000 -1.000000 0.000000
vn 0.000000 -1.000000 0.000000
vn 0.000000 -1.000000 0.000000
vn 0.000000 -1.000000 0.000000
vn 0.000000 -1.000000 0.000000
vn 0.000000 -1.000000 0.000000
vn 0.000000 -1.000000 0.000000
vn 0.000000 -1.000000 0.000000
vn 0.000000 -1.000000 0.000000
vn 0.000000 -1.000000 0.000000
vn 0.000000 -1.000000 0.000000
vn 0.000000 -1.000000 0.000000
vn 0.000000 -1.000000 0.000000
vn 0.000000 -1.000000 0.000000
vn 0.000000 -1.000000 0.000000
vn 0.000000 -1.000000 0.000000
vn 0.000000 -1.000000 0.000000
vn 0.000000 -1.000000 0.000000
vn 0.000000 -1.000000 0.000000
vn 0.000000 -1.000000 0.000000
vn 0.000000 -1.000000 0.000000
vn 0.000000 -1.000000 0.000000
vn 0.000000 -1.000000 0.000000
vn 0.000000 -1.000000 0.000000
vn 0.000000 -1.000000 0.000000
vn 0.000000 -1.000000 0.000000
vn 0.000000 -1.000000 0.000000
vn 0.000000 -1.000000 0.000000
vn 0.000000 -1.000000 0.000000
vn 0.000000 -1.000000 0.000000
vn 0.000000 -1.000000 -0.000000
vn 0.000000 -1.000000 -0.000000
vn 0.000000 -1.000000 -0.000000
vn 0.000000 -1.000000 0.000000
vn 0.000000 -1.000000 0.000000
vn 0.000000 -1.000000 0.000000
vn 0.000000 -1.000000 0.000000
vn 0.000000 -1.000000 0.000000
vn 0.000000 -1.000000 0.000000
vn 0.000000 -1.000000 0.000000
vn 0.000000 -1.000000 0.000000
vn 0.000000 -1.000000 0.000000
vn 0.000000 1.000000 -0.000000
vn 0.000000 1.000000 -0.000000
vn 0.000000 1.000000 -0.000000
vn 0.000000 1.000000 -0.000000
vn 0.000000 1.000000 -0.000000
vn 0.000000 1.000000 0.000000
vn 0.000000 1.000000 0.000000
vn 0.000000 1.000000 -0.000000
vn 0.000000 1.000000 0.000000
vn 0.000000 1.000000 -0.000000
vn 0.000000 1.000000 0.000000
vn 0.000000 1.000000 0.000000
vn 0.000000 1.000000 0.000000
vn 0.000000 1.000000 -0.000000
vn 0.000000 1.000000 -0.000000
vn 0.000000 1.000000 0.000000
vn 0.000000 1.000000 -0.000000
vn 0.000000 1.000000 -0.000000
vn 0.000000 1.000000 -0.000000
vn 0.000000 1.000000 -0.000000
vn 0.000000 1.000000 -0.000000
vn 0.000000 1.000000 0.000000
vn 0.000000 1.000000 0.000000
vn 0.000000 1.000000 0.000000
vn 0.000000 1.000000 -0.000000
vn 0.000000 1.000000 -0.000000
vn 0.000000 1.000000 -0.000000
vn 0.000000 1.000000 -0.000000
vn 0.000000 1.000000 -0.000000
vn 0.000000 1.000000 0.000000
vn 0.000000 1.000000 0.000000
vn 0.000000 1.000000 -0.000000
vn 0.000000 1.000000 0.000000
vn 0.000000 1.000000 0.000000
vn 0.000000 1.000000 0.000000
vn 0.000000 1.000000 0.000000
vn 0.000000 1.000000 0.000000
vn 0.000000 1.000000 -0.000000
vn 0.000000 1.000000 -0.000000
vn 0.000000 1.000000 0.000000
vn 0.000000 1.000000 -0.000000
vn 0.000000 1.000000 -0.000000
vn 0.000000 1.000000 -0.000000
vn 0.000000 1.000000 -0.000000
vn 0.000000 1.000000 0.000000
vn 0.000000 1.000000 0.000000
vn 0.000000 1.000000 0.000000
vn 0.000000 1.000000 0.000000
vn 0.000000 1.000000 -0.000000
vn 0.000000 1.000000 -0.000000
vn 0.000000 1.000000 -0.000000
vn 0.000000 1.000000 -0.000000
vn 0.000000 1.000000 -0.000000
vn 0.000000 1.000000 0.000000
vn 0.000000 1.000000 0.000000
vn 0.000000 1.000000 -0.000000
vn 0.000000 1.000000 0.000000
vn 0.000000 1.000000 0.000000
vn 0.000000 1.000000 0.000000
vn 0.000000 1.000000 0.000000
vn 0.000000 1.000000 0.000000
vn 0.000000 1.000000 -0.000000
vn 0.000000 1.000000 -0.000000
vn 0.000000 1.000000 0.000000
vn 0.000000 1.000000 -0.000000
vn 0.000000 1.000000 -0.000000
vn 0.000000 1.000000 -0.000000
vn 0.000000 1.000000 -0.000000
vn 0.000000 1.000000 0.000000
vn 0.000000 1.000000 0.000000
vn 0.000000 1.000000 0.000000
vn 0.000000 1.000000 0.000000
vn 0.000000 1.000000 -0.000000
vn 0.000000 1.000000 -0.000000
vn 0.000000 1.000000 -0.000000
vn 0.000000 1.000000 -0.000000
vn 0.000000 1.000000 -0.000000
vn 0.000000 1.000000 0.000000
vn 0.000000 1.000000 0.000000
vn 0.000000 1.000000 -0.000000
vn 0.000000 1.000000 0.000000
vn 0.000000 1.000000 0.000000
vn 0.000000 1.000000 0.000000
vn 0.000000 1.000000 0.000000
vn 0.000000 1.000000 -0.000000
vn 0.000000 1.000000 -0.000000
vn 0.000000 1.000000 -0.000000
vn 0.000000 1.000000 -0.000000
vn 0.000000 1.000000 -0.000000
vn 0.000000 1.000000 -0.000000
vn 0.000000 1.000000 -0.000000
vn 0.000000 1.000000 -0.000000
vn 0.000000 1.000000 0.000000
vn 0.000000 1.000000 -0.000000
vn 0.000000 1.000000 -0.000000
vn 0.000000 1.000000 0.000000
s off
f 4/1/1 2/2/2 54/3/3 55/4/4
f 12/5/5 10/6/6 66/7/7 67/8/8
f 5/9/9 15/10/10 14/11/11 7/12/12
f 9/13/13 11/14/14 1/15/15 3/16/16
f 1/15/17 2/2/18 4/1/19 3/16/20
f 6/17/21 5/9/22 7/12/23 8/18/24
f 9/13/25 10/6/26 12/5/27 11/14/28
f 13/19/29 14/11/30 15/10/31 16/20/32
f 3/16/33 4/1/34 17/21/35 18/22/36
f 4/1/37 55/4/38 56/32/39 17/21/40
f 8/18/41 7/12/42 20/33/43 19/34/44
f 14/11/45 21/35/46 20/33/47 7/12/48
f 14/11/49 13/19/50 22/46/51 21/35/52
f 66/7/53 10/6/54 23/47/55 65/58/56
f 10/6/57 9/13/58 24/59/59 23/47/60
f 24/59/61 9/13/62 3/16/63 18/22/64
f 31/37/65 50/56/66 51/57/67 25/31/68
f 52/60/69 26/61/70 25/72/71 51/73/72
f 27/98/73 26/61/74 52/60/75 53/99/76
f 29/100/77 28/101/78 40/102/79 41/103/80
f 30/104/81 29/100/82 41/103/83 42/105/84
f 24/30/85 64/70/86 65/71/87 23/29/88
f 24/30/89 18/23/90 64/70/91
f 64/70/92 18/23/93 63/69/94
f 63/69/95 18/23/96 62/68/97
f 62/68/98 18/23/99 61/67/100
f 61/67/101 18/23/102 60/66/103
f 60/66/104 18/23/105 59/65/106
f 59/65/107 18/23/108 58/64/109
f 18/23/110 57/63/111 58/64/112
f 69/145/113 70/146/114 71/147/115 72/148/116
f 57/63/117 18/23/118 17/24/119 56/62/120
f 43/49/121 32/38/122 30/36/123 42/48/124
f 43/49/125 33/39/126 32/38/127
f 75/149/128 76/150/129 77/151/130 78/152/131
f 34/40/132 44/50/133 45/51/134 35/41/135
f 81/153/136 82/154/137 83/155/138 84/156/139
f 36/42/140 46/52/141 47/53/142 37/43/143
f 87/157/144 88/158/145 89/159/146 90/160/147
f 38/44/148 48/54/149 49/55/150 39/45/151
f 41/103/152 40/102/153 6/17/154 8/18/155
f 42/105/156 41/103/157 8/18/158 19/34/159
f 20/26/160 43/49/161 42/48/162 19/25/163
f 43/49/164 20/26/165 44/50/166
f 44/50/167 20/26/168 45/51/169
f 20/26/170 21/27/171 45/51/172
f 45/51/173 21/27/174 46/52/175
f 46/52/176 21/27/177 47/53/178
f 47/53/179 21/27/180 48/54/181
f 48/54/182 21/27/183 49/55/184
f 21/27/185 50/56/186 49/55/187
f 51/57/188 50/56/189 21/27/190 22/28/191
f 13/19/192 52/60/193 51/73/194 22/46/195
f 53/99/196 52/60/197 13/19/198 16/20/199
f 55/4/200 54/3/201 28/101/202 29/100/203
f 56/32/204 55/4/205 29/100/206 30/104/207
f 32/38/208 57/63/209 56/62/210 30/36/211
f 32/38/212 33/39/213 57/63/214
f 80/161/215 79/162/216 75/149/217 78/152/218
f 59/65/219 58/64/220 34/40/221 35/41/222
f 86/163/223 85/164/224 81/153/225 84/156/226
f 61/67/227 60/66/228 36/42/229 37/43/230
f 92/165/231 91/166/232 87/157/233 90/160/234
f 63/69/235 62/68/236 38/44/237 39/45/238
f 74/167/239 73/168/240 69/145/241 72/148/242
f 65/71/243 64/70/244 31/37/245 25/31/246
f 26/61/247 66/7/248 65/58/249 25/72/250
f 67/8/251 66/7/252 26/61/253 27/98/254
f 54/106/255 2/107/256 68/108/257
f 2/107/258 1/109/259 68/108/260
f 5/110/261 6/111/262 68/108/263
f 12/112/264 67/113/265 68/108/266
f 11/114/267 12/112/268 68/108/269
f 15/115/270 5/110/271 68/108/272
f 16/116/273 15/115/274 68/108/275
f 27/117/276 53/118/277 68/108/278
f 40/119/279 28/120/280 68/108/281
f 1/109/282 11/114/283 68/108/284
f 6/111/285 40/119/286 68/108/287
f 53/118/288 16/116/289 68/108/290
f 28/120/291 54/106/292 68/108/293
f 67/113/294 27/117/295 68/108/296
f 39/74/297 49/75/298 70/122/299 69/121/300
f 49/75/301 50/76/302 71/123/303 70/122/304
f 50/76/305 31/77/306 72/124/307 71/123/308
f 64/78/309 63/79/310 73/126/311 74/125/312
f 63/79/313 39/80/314 69/127/315 73/126/316
f 31/169/317 64/81/318 74/128/319 72/170/320
f 33/82/321 43/83/322 76/130/323 75/129/324
f 43/83/325 44/84/326 77/131/327 76/130/328
f 44/84/329 34/85/330 78/132/331 77/131/332
f 58/86/333 57/87/334 79/134/335 80/133/336
f 57/87/337 33/88/338 75/135/339 79/134/340
f 34/171/341 58/89/342 80/136/343 78/172/344
f 35/90/345 45/91/346 82/138/347 81/137/348
f 45/91/349 46/173/350 83/174/351 82/138/352
f 46/175/353 36/176/354 84/177/355 83/178/356
f 60/92/357 59/93/358 85/140/359 86/139/360
f 59/93/361 35/179/362 81/180/363 85/140/364
f 36/181/365 60/92/366 86/139/367 84/182/368
f 37/94/369 47/95/370 88/142/371 87/141/372
f 47/95/373 48/183/374 89/184/375 88/142/376
f 48/185/377 38/186/378 90/187/379 89/188/380
f 62/96/381 61/97/382 91/144/383 92/143/384
f 61/97/385 37/189/386 87/190/387 91/144/388
f 38/191/389 62/96/390 92/143/391 90/192/392
