# This file uses meters as units for non-parametric coordinates.

v 25.000011 -50.000000 -43.301262
v -24.999994 -50.000000 -43.301273
v -50.000000 -50.000000 -0.000006
v -25.000004 -50.000000 43.301273
v 24.999998 -50.000000 43.301277
v 50.000000 -50.000000 0.000001
v 25.000011 50.000000 -43.301262
v -24.999994 50.000000 -43.301273
v -50.000000 50.000000 -0.000006
v -25.000004 50.000000 43.301273
v 24.999998 50.000000 43.301277
v 50.000000 50.000000 0.000001
v 0.000000 -50.000000 0.000001
v 0.000000 50.000000 0.000001
vt 0.248092 0.303113
vt 0.248092 0.303113
vt 0.248092 0.303113
vt 0.248092 0.303113
vt 0.248092 0.303113
vt 0.248092 0.303113
vt 0.248092 0.303113
vt 0.248092 0.303113
vt 0.248092 0.303113
vt 0.248092 0.303113
vt 0.248092 0.303113
vt 0.248092 0.303113
vt 0.248092 0.303113
vt 0.248092 0.303113
vt 0.248092 0.303113
vt 0.248092 0.303113
vt 0.248092 0.303113
vt 0.248092 0.303113
vt 0.248092 0.303113
vt 0.248092 0.303113
vt 0.248092 0.303113
vt 0.248092 0.303113
vt 0.248092 0.303113
vt 0.248092 0.303113
vt 0.248092 0.303113
vt 0.248092 0.303113
vt 0.248092 0.303113
vt 0.248092 0.303113
vn 0.000000 0.000000 -1.000000
vn 0.000000 0.000000 -1.000000
vn 0.000000 0.000000 -1.000000
vn 0.000000 0.000000 -1.000000
vn -0.866025 0.000000 -0.500000
vn -0.866025 0.000000 -0.500000
vn -0.866025 0.000000 -0.500000
vn -0.866025 0.000000 -0.500000
vn -0.866026 0.000000 0.500000
vn -0.866026 0.000000 0.500000
vn -0.866026 0.000000 0.500000
vn -0.866026 0.000000 0.500000
vn -0.000000 0.000000 1.000000
vn -0.000000 0.000000 1.000000
vn -0.000000 0.000000 1.000000
vn -0.000000 0.000000 1.000000
vn 0.866026 0.000000 0.500000
vn 0.866026 0.000000 0.500000
vn 0.866026 0.000000 0.500000
vn 0.866026 0.000000 0.500000
vn 0.866025 0.000000 -0.500000
vn 0.866025 0.000000 -0.500000
vn 0.866025 0.000000 -0.500000
vn 0.866025 0.000000 -0.500000
vn 0.000000 -1.000000 0.000000
vn 0.000000 -1.000000 0.000000
vn 0.000000 -1.000000 0.000000
vn 0.000000 -1.000000 0.000000
vn 0.000000 -1.000000 0.000000
vn 0.000000 -1.000000 0.000000
vn 0.000000 -1.000000 0.000000
vn 0.000000 -1.000000 0.000000
vn 0.000000 -1.000000 0.000000
vn 0.000000 -1.000000 0.000000
vn 0.000000 -1.000000 0.000000
vn 0.000000 -1.000000 0.000000
vn 0.000000 -1.000000 0.000000
vn 0.000000 -1.000000 0.000000
vn 0.000000 -1.000000 0.000000
vn 0.000000 -1.000000 0.000000
vn 0.000000 -1.000000 0.000000
vn 0.000000 -1.000000 0.000000
vn 0.000000 1.000000 0.000000
vn 0.000000 1.000000 0.000000
vn 0.000000 1.000000 0.000000
vn 0.000000 1.000000 0.000000
vn 0.000000 1.000000 0.000000
vn 0.000000 1.000000 0.000000
vn 0.000000 1.000000 0.000000
vn 0.000000 1.000000 0.000000
vn 0.000000 1.000000 0.000000
vn 0.000000 1.000000 0.000000
vn 0.000000 1.000000 0.000000
vn 0.000000 1.000000 0.000000
vn 0.000000 1.000000 0.000000
vn 0.000000 1.000000 0.000000
vn 0.000000 1.000000 0.000000
vn 0.000000 1.000000 0.000000
vn 0.000000 1.000000 0.000000
vn 0.000000 1.000000 0.000000
s off
f 1/7/1 2/8/2 8/15/3 7/14/4
f 2/8/5 3/9/6 9/16/7 8/15/8
f 3/9/9 4/10/10 10/17/11 9/16/12
f 4/10/13 5/11/14 11/18/15 10/17/16
f 5/11/17 6/12/18 12/19/19 11/18/20
f 6/12/21 1/13/22 7/20/23 12/19/24
f 2/2/25 1/1/26 13/27/27
f 3/3/28 2/2/29 13/27/30
f 4/4/31 3/3/32 13/27/33
f 5/5/34 4/4/35 13/27/36
f 6/6/37 5/5/38 13/27/39
f 1/1/40 6/6/41 13/27/42
f 7/25/43 8/24/44 14/28/45
f 8/24/46 9/23/47 14/28/48
f 9/23/49 10/22/50 14/28/51
f 10/22/52 11/21/53 14/28/54
f 11/21/55 12/26/56 14/28/57
f 12/26/58 7/25/59 14/28/60
