# This file uses meters as units for non-parametric coordinates.

v 99.999908 35.355335 -35.355568
v 99.999908 0.000000 -50.000191
v 99.999908 -35.355339 -35.355568
v 99.999908 -49.999996 -0.000191
v 99.999908 -35.355339 35.355186
v 99.999908 0.000000 49.999809
v 99.999908 35.355339 35.355186
v 99.999908 50.000000 -0.000191
v -0.000024 35.355335 -35.355568
v -0.000024 0.000000 -50.000191
v -0.000024 -35.355339 -35.355568
v -0.000024 -50.000000 -0.000191
v -0.000119 -35.355339 35.355186
v -0.000119 0.000000 49.999809
v -0.000119 35.355339 35.355186
v -0.000024 50.000000 -0.000191
v 31.071091 50.000000 -0.000191
v 31.071091 35.355339 35.355186
v 31.071091 0.000000 49.999809
v 31.071091 -35.355339 35.355186
v 31.071091 -49.999992 -0.000191
v 31.071091 -35.355339 -35.355568
v 31.071091 0.000000 -50.000191
v 33.183693 33.696503 -36.535519
v 68.697647 50.000000 -0.000191
v 68.697647 35.355339 35.355186
v 68.697647 0.000000 49.999809
v 68.697647 -35.355335 35.355186
v 68.697647 -49.999996 -0.000191
v 68.697647 -35.355335 -35.355568
v 68.697647 0.000000 -50.000191
v 68.697647 35.355335 -35.355568
v 92.641022 40.197330 -43.215382
v 95.277405 0.000000 -58.722115
v 72.703987 0.000000 -58.722115
v 72.703979 41.522709 -41.522980
v 95.277405 -41.522709 -41.522980
v 74.551689 -41.522713 -41.522980
v 95.277405 -58.721989 -0.000191
v 72.703987 -58.721985 -0.000191
v 95.277405 -41.522713 41.522408
v 72.703979 -41.522717 41.522408
v 95.277405 -0.000008 58.721733
v 74.078285 -4.060437 58.210697
v 95.277405 41.522713 41.522789
v 74.551689 41.522709 41.522789
v 95.277405 58.721992 -0.000191
v 74.551689 58.721989 -0.000191
v 27.064610 58.721992 -0.000191
v 26.439816 41.522713 41.522789
v 4.491091 58.721989 -0.000191
v 4.491138 41.522713 41.522789
v 26.371269 5.069583 59.377628
v 4.491138 -0.000008 58.721733
v 27.064610 -41.522717 41.522408
v 4.491138 -41.522717 41.522408
v 22.648062 -58.772072 1.408617
v 2.643430 -58.721989 -0.000191
v 27.064610 -41.522713 -41.522980
v 4.491138 -41.522713 -41.522980
v 24.282682 0.277547 -58.601006
v 4.491138 0.000000 -58.722115
v 27.064610 41.522713 -41.522980
v 8.402890 40.178131 -43.042969
v 99.999908 29.991875 -29.992104
v 99.999908 0.000000 -42.415047
v 99.999908 0.000000 -0.000191
v 99.999908 -29.991875 -29.992104
v 99.999908 -42.414921 -0.000191
v 99.999908 -29.991875 29.991722
v 99.999908 0.000000 42.414665
v 99.999908 29.991877 29.991722
v 99.999908 42.414925 -0.000191
v -0.000024 29.991875 -29.992104
v -0.000024 0.000000 -42.415047
v -0.000024 0.000000 -0.000191
v -0.000024 -29.991875 -29.992104
v -0.000024 -42.414921 -0.000191
v -0.000119 -29.991875 29.991722
v -0.000119 0.000001 42.414665
v -0.000119 29.991875 29.991722
v -0.000024 42.414925 -0.000191
vt 0.248341 0.302724
vt 0.248341 0.302725
vt 0.248341 0.302725
vt 0.248341 0.302724
vt 0.248341 0.302725
vt 0.248341 0.302725
vt 0.248341 0.302724
vt 0.248341 0.302724
vt 0.248341 0.302725
vt 0.248341 0.302725
vt 0.248341 0.302725
vt 0.248341 0.302725
vt 0.248341 0.302724
vt 0.248341 0.302724
vt 0.248341 0.302724
vt 0.248341 0.302724
vt 0.248341 0.302724
vt 0.248341 0.302724
vt 0.248341 0.302724
vt 0.248341 0.302724
vt 0.248341 0.302725
vt 0.248341 0.302725
vt 0.248341 0.302725
vt 0.248341 0.302725
vt 0.248341 0.302724
vt 0.248341 0.302724
vt 0.080062 0.228840
vt 0.248341 0.302725
vt 0.248341 0.302725
vt 0.248341 0.302725
vt 0.248341 0.302725
vt 0.248341 0.302724
vt 0.248341 0.302724
vt 0.248341 0.302725
vt 0.248341 0.302724
vt 0.248341 0.302724
vt 0.248341 0.302725
vt 0.248341 0.302725
vt 0.248341 0.302725
vt 0.248341 0.302725
vt 0.248341 0.302725
vt 0.248341 0.302724
vt 0.248341 0.302724
vt 0.080062 0.228840
vt 0.248341 0.302725
vt 0.248341 0.302725
vt 0.248341 0.302725
vt 0.248341 0.302725
vt 0.248341 0.302725
vt 0.248341 0.302725
vt 0.248341 0.302725
vt 0.248341 0.302725
vt 0.248341 0.302725
vt 0.248341 0.302724
vt 0.248341 0.302725
vt 0.248341 0.302725
vt 0.248341 0.302725
vt 0.248341 0.302724
vt 0.248341 0.302724
vt 0.248341 0.302725
vt 0.248341 0.302725
vt 0.248341 0.302725
vt 0.248341 0.302724
vt 0.248341 0.302725
vt 0.248341 0.302725
vt 0.248341 0.302725
vt 0.080062 0.228840
vt 0.080062 0.228840
vt 0.270355 0.303106
vt 0.270355 0.303106
vt 0.270355 0.303106
vt 0.270355 0.303106
vt 0.270355 0.303106
vt 0.270355 0.303106
vt 0.270355 0.303106
vt 0.270355 0.303106
vt 0.270355 0.303106
vt 0.270355 0.303106
vt 0.270355 0.303106
vt 0.270355 0.303106
vt 0.270355 0.303106
vt 0.270355 0.303106
vt 0.270355 0.303106
vt 0.270355 0.303106
vt 0.270355 0.303106
vt 0.270355 0.303106
vt 0.270355 0.303106
vt 0.270355 0.303106
vt 0.270355 0.303106
vt 0.270355 0.303106
vt 0.270355 0.303106
vt 0.270355 0.303106
vt 0.270355 0.303106
vt 0.270355 0.303106
vt 0.270355 0.303106
vt 0.270355 0.303106
vt 0.270355 0.303106
vt 0.270355 0.303106
vt 0.270355 0.303106
vt 0.270355 0.303106
vt 0.080062 0.228840
vt 0.080062 0.228840
vt 0.080062 0.228840
vt 0.080062 0.228840
vt 0.080062 0.228840
vt 0.080062 0.228840
vt 0.080062 0.228840
vt 0.080062 0.228840
vt 0.080062 0.228840
vt 0.080062 0.228840
vt 0.080062 0.228840
vt 0.080062 0.228840
vt 0.080062 0.228840
vt 0.080062 0.228840
vn -0.025402 0.370739 -0.928390
vn -0.025402 0.370739 -0.928390
vn -0.025402 0.370739 -0.928390
vn -0.025402 0.370739 -0.928390
vn 0.000000 -0.382681 -0.923881
vn 0.000000 -0.382681 -0.923881
vn 0.000000 -0.382681 -0.923881
vn 0.000000 -0.382681 -0.923881
vn 0.000000 -0.923880 -0.382683
vn 0.000000 -0.923880 -0.382683
vn 0.000000 -0.923880 -0.382683
vn 0.000000 -0.923880 -0.382683
vn -0.000000 -0.923879 0.382684
vn -0.000000 -0.923879 0.382684
vn -0.000000 -0.923879 0.382684
vn -0.000000 -0.923879 0.382684
vn 0.025874 -0.394530 0.918519
vn 0.025874 -0.394530 0.918519
vn 0.025874 -0.394530 0.918519
vn 0.025874 -0.394530 0.918519
vn -0.046444 0.362389 0.930869
vn -0.046444 0.362389 0.930869
vn -0.046444 0.362389 0.930869
vn -0.046444 0.362389 0.930869
vn -0.000000 0.923880 0.382682
vn -0.000000 0.923880 0.382682
vn -0.000000 0.923880 0.382682
vn -0.000000 0.923880 0.382682
vn 0.013830 0.921111 -0.389055
vn 0.013830 0.921111 -0.389055
vn 0.013830 0.921111 -0.389055
vn 0.013830 0.921111 -0.389055
vn 1.000000 0.000000 0.000000
vn 1.000000 0.000000 0.000000
vn 1.000000 0.000001 0.000000
vn 1.000000 -0.000000 0.000000
vn 1.000000 0.000000 0.000000
vn 1.000000 -0.000000 0.000000
vn 1.000000 0.000000 0.000000
vn 1.000000 -0.000000 0.000000
vn 1.000000 0.000000 0.000000
vn 1.000000 -0.000000 0.000000
vn 1.000000 0.000000 0.000000
vn 1.000000 0.000000 0.000000
vn 1.000000 -0.000000 0.000000
vn 1.000000 -0.000000 0.000000
vn 1.000000 -0.000001 0.000000
vn 1.000000 0.000000 0.000000
vn 1.000000 -0.000000 0.000000
vn 1.000000 0.000000 0.000000
vn 1.000000 0.000000 0.000000
vn 1.000000 0.000000 0.000000
vn 1.000000 0.000000 0.000000
vn 1.000000 0.000000 0.000000
vn 1.000000 0.000000 0.000000
vn 1.000000 0.000000 0.000000
vn -1.000000 -0.000000 0.000000
vn -1.000000 0.000000 0.000000
vn -1.000000 -0.000000 0.000000
vn -1.000000 0.000000 0.000000
vn -1.000000 0.000000 0.000000
vn -1.000000 0.000000 0.000000
vn -1.000000 0.000000 0.000000
vn -1.000000 -0.000000 -0.000001
vn -1.000000 0.000000 0.000000
vn -1.000000 -0.000000 -0.000001
vn -1.000000 0.000000 -0.000002
vn -1.000000 0.000000 -0.000003
vn -1.000000 0.000000 -0.000002
vn -1.000000 -0.000000 -0.000001
vn -1.000000 0.000001 -0.000002
vn -1.000000 -0.000000 -0.000001
vn -1.000000 -0.000000 -0.000002
vn -1.000000 -0.000001 -0.000002
vn -1.000000 -0.000000 -0.000002
vn -1.000000 0.000000 -0.000001
vn -1.000000 0.000000 -0.000003
vn -1.000000 0.000000 -0.000001
vn -1.000000 -0.000000 0.000000
vn -1.000000 0.000000 0.000000
vn -0.000000 0.923880 0.382682
vn -0.000000 0.923880 0.382681
vn -0.000000 0.923880 0.382682
vn -0.000000 0.923880 0.382682
vn -0.060967 0.409303 0.910360
vn -0.060967 0.409303 0.910360
vn -0.060967 0.409303 0.910360
vn -0.060967 0.409303 0.910359
vn 0.028411 -0.369307 0.928873
vn 0.028411 -0.369307 0.928873
vn 0.028411 -0.369307 0.928873
vn 0.028411 -0.369307 0.928873
vn -0.013976 -0.920856 0.389652
vn -0.013976 -0.920856 0.389652
vn -0.013976 -0.920856 0.389652
vn -0.013976 -0.920856 0.389652
vn 0.011383 -0.926169 -0.376937
vn 0.011383 -0.926169 -0.376937
vn 0.011383 -0.926169 -0.376937
vn 0.011383 -0.926169 -0.376937
vn 0.005135 -0.380292 -0.924852
vn 0.005135 -0.380292 -0.924852
vn 0.005135 -0.380292 -0.924852
vn 0.005135 -0.380292 -0.924852
vn 0.023943 0.371433 -0.928151
vn 0.023943 0.371433 -0.928151
vn 0.023943 0.371433 -0.928151
vn 0.023943 0.371433 -0.928151
vn -0.015651 0.920730 -0.389887
vn -0.015651 0.920730 -0.389887
vn -0.015651 0.920730 -0.389887
vn -0.015651 0.920730 -0.389887
vn 0.000000 0.923880 0.382683
vn 0.000000 0.923880 0.382683
vn 0.000000 0.923880 0.382683
vn 0.000000 0.923880 0.382683
vn 0.000000 0.382683 0.923880
vn 0.000000 0.382683 0.923880
vn 0.000000 0.382683 0.923880
vn 0.000000 0.382683 0.923880
vn 0.000000 -0.382683 0.923880
vn 0.000000 -0.382683 0.923880
vn 0.000000 -0.382683 0.923880
vn 0.000000 -0.382683 0.923880
vn -0.000000 -0.923880 0.382683
vn -0.000000 -0.923880 0.382683
vn -0.000000 -0.923880 0.382683
vn -0.000000 -0.923880 0.382683
vn 0.000000 -0.923880 -0.382683
vn 0.000000 -0.923880 -0.382683
vn 0.000000 -0.923880 -0.382683
vn 0.000000 -0.923880 -0.382683
vn 0.000000 -0.382683 -0.923880
vn 0.000000 -0.382683 -0.923880
vn 0.000000 -0.382683 -0.923880
vn 0.000000 -0.382683 -0.923880
vn 0.006396 0.376857 -0.926249
vn 0.006396 0.376857 -0.926249
vn 0.006396 0.376857 -0.926249
vn 0.006396 0.376857 -0.926249
vn -0.014442 0.918256 -0.395724
vn -0.014442 0.918256 -0.395724
vn -0.014442 0.918256 -0.395724
vn -0.014442 0.918256 -0.395724
vn 0.816750 0.238222 -0.525518
vn 0.816750 0.238222 -0.525518
vn 0.816750 0.238222 -0.525518
vn 0.816750 0.238222 -0.525518
vn -0.895433 0.170368 -0.411307
vn -0.895433 0.170368 -0.411307
vn -0.895434 0.170368 -0.411307
vn -0.895434 0.170368 -0.411307
vn 0.862753 -0.193493 -0.467137
vn 0.862753 -0.193493 -0.467137
vn 0.862753 -0.193493 -0.467137
vn 0.862753 -0.193494 -0.467137
vn -0.852854 -0.217181 -0.474839
vn -0.852854 -0.217181 -0.474839
vn -0.852854 -0.217181 -0.474839
vn -0.852854 -0.217181 -0.474839
vn 0.862754 -0.467136 -0.193494
vn 0.862754 -0.467136 -0.193494
vn 0.862754 -0.467136 -0.193494
vn 0.862754 -0.467136 -0.193494
vn -0.852855 -0.474837 -0.217181
vn -0.852855 -0.474837 -0.217182
vn -0.852855 -0.474837 -0.217181
vn -0.852855 -0.474837 -0.217181
vn 0.862753 -0.467137 0.193495
vn 0.862753 -0.467137 0.193495
vn 0.862753 -0.467137 0.193495
vn 0.862753 -0.467137 0.193495
vn -0.895433 -0.411307 0.170369
vn -0.895433 -0.411307 0.170369
vn -0.895433 -0.411307 0.170369
vn -0.895433 -0.411307 0.170369
vn 0.862751 -0.193496 0.467141
vn 0.862751 -0.193496 0.467141
vn 0.862751 -0.193496 0.467141
vn 0.862751 -0.193496 0.467141
vn -0.876889 -0.175937 0.447338
vn -0.876889 -0.175937 0.447338
vn -0.876889 -0.175937 0.447338
vn -0.876889 -0.175937 0.447338
vn 0.862755 0.193491 0.467134
vn 0.862755 0.193491 0.467134
vn 0.862755 0.193491 0.467134
vn 0.862756 0.193491 0.467134
vn -0.783102 0.228487 0.578399
vn -0.783102 0.228487 0.578399
vn -0.783102 0.228487 0.578398
vn -0.783102 0.228487 0.578399
vn 0.862755 0.467135 0.193493
vn 0.862755 0.467135 0.193493
vn 0.862755 0.467135 0.193493
vn 0.862755 0.467135 0.193493
vn -0.809042 0.543012 0.224922
vn -0.809042 0.543012 0.224922
vn -0.809042 0.543012 0.224922
vn -0.809042 0.543012 0.224922
vn 0.790989 0.553701 -0.260292
vn 0.790989 0.553701 -0.260292
vn 0.790989 0.553701 -0.260292
vn 0.790989 0.553701 -0.260292
vn -0.852855 0.489332 -0.182190
vn -0.852855 0.489332 -0.182190
vn -0.852855 0.489331 -0.182190
vn -0.852855 0.489331 -0.182190
vn 0.881368 0.433894 0.186887
vn 0.881368 0.433894 0.186887
vn 0.881368 0.433894 0.186887
vn 0.881368 0.433894 0.186887
vn -0.917288 0.395545 -0.046122
vn -0.942638 0.236045 0.236044
vn -0.873491 0.449782 0.186305
vn -0.873491 0.449782 0.186305
vn 0.895633 0.182689 0.405545
vn 0.895633 0.182689 0.405545
vn 0.895633 0.182689 0.405545
vn 0.895633 0.182689 0.405545
vn -0.942638 0.236045 0.236044
vn -0.942636 -0.000001 0.333822
vn -0.873489 0.186306 0.449787
vn -0.873488 0.186306 0.449787
vn 0.863660 -0.179501 0.471033
vn 0.863659 -0.179501 0.471033
vn 0.863659 -0.179501 0.471033
vn 0.863659 -0.179501 0.471033
vn -0.942636 -0.000001 0.333822
vn -0.952037 -0.200943 0.230755
vn -0.873484 -0.186311 0.449793
vn -0.873484 -0.186311 0.449793
vn 0.800184 -0.567807 0.193133
vn 0.800184 -0.567807 0.193133
vn 0.800185 -0.567807 0.193133
vn 0.800185 -0.567807 0.193133
vn -0.952037 -0.200943 0.230755
vn -0.963791 -0.266658 0.000000
vn -0.914212 -0.366152 0.173637
vn -0.914211 -0.366152 0.173637
vn 0.783609 -0.589536 -0.195969
vn 0.783609 -0.589536 -0.195969
vn 0.783609 -0.589536 -0.195969
vn 0.783609 -0.589536 -0.195969
vn -0.963791 -0.266658 0.000000
vn -0.952039 -0.200939 -0.230750
vn -0.914214 -0.366147 -0.173635
vn -0.914214 -0.366147 -0.173635
vn 0.827137 -0.187941 -0.529644
vn 0.827137 -0.187941 -0.529644
vn 0.827137 -0.187941 -0.529644
vn 0.827137 -0.187941 -0.529644
vn -0.952039 -0.200939 -0.230750
vn -0.922186 0.039546 -0.384719
vn -0.873491 -0.186305 -0.449783
vn -0.873491 -0.186305 -0.449783
vn 0.767000 0.198574 -0.610147
vn 0.767000 0.198574 -0.610147
vn 0.767000 0.198574 -0.610147
vn 0.767000 0.198574 -0.610147
vn -0.922186 0.039546 -0.384719
vn -0.889371 0.332729 -0.313546
vn -0.794817 0.261088 -0.547813
vn -0.794817 0.261088 -0.547813
vn 0.862285 0.473412 -0.179852
vn 0.862285 0.473412 -0.179852
vn 0.862285 0.473412 -0.179852
vn 0.862285 0.473412 -0.179852
vn -0.889371 0.332729 -0.313546
vn -0.917288 0.395545 -0.046122
vn -0.769702 0.573204 -0.281062
vn -0.769702 0.573204 -0.281062
vn 1.000000 0.000000 0.000000
vn 1.000000 0.000000 0.000000
vn 1.000000 0.000000 0.000000
vn 1.000000 0.000000 0.000000
vn 1.000000 -0.000000 0.000000
vn 1.000000 0.000000 0.000000
vn 1.000000 0.000000 0.000000
vn 1.000000 -0.000000 0.000000
vn 1.000000 0.000000 0.000000
vn 1.000000 -0.000000 0.000000
vn 1.000000 -0.000000 0.000000
vn 1.000000 0.000000 0.000000
vn 1.000000 -0.000000 0.000000
vn 1.000000 0.000000 0.000000
vn 1.000000 0.000000 0.000000
vn 1.000000 -0.000000 0.000000
vn 1.000000 0.000000 0.000000
vn 1.000000 -0.000000 0.000000
vn 1.000000 -0.000000 0.000000
vn 1.000000 -0.000000 0.000000
vn 1.000000 0.000000 0.000000
vn 1.000000 0.000000 0.000000
vn 1.000000 -0.000000 0.000000
vn 1.000000 0.000000 0.000000
vn 1.000000 0.000000 0.000000
vn 1.000000 0.000000 0.000000
vn 1.000000 0.000000 0.000000
vn 1.000000 0.000000 0.000000
vn 1.000000 0.000000 0.000000
vn 1.000000 0.000000 0.000000
vn 1.000000 0.000000 0.000000
vn 1.000000 0.000000 0.000000
vn -0.889371 0.332729 -0.313546
vn -0.922186 0.039546 -0.384719
vn -1.000000 0.000000 0.000000
vn -1.000000 -0.000000 0.000000
vn -0.922186 0.039546 -0.384719
vn -0.952039 -0.200939 -0.230750
vn -1.000000 0.000000 0.000000
vn -1.000000 0.000000 0.000000
vn -0.952039 -0.200939 -0.230750
vn -0.963791 -0.266658 0.000000
vn -1.000000 -0.000000 -0.000001
vn -1.000000 0.000000 0.000000
vn -0.963791 -0.266658 0.000000
vn -0.952037 -0.200943 0.230755
vn -1.000000 0.000000 -0.000002
vn -1.000000 -0.000000 -0.000001
vn -0.952037 -0.200943 0.230755
vn -0.942636 -0.000001 0.333822
vn -1.000000 -0.000000 -0.000001
vn -1.000000 0.000000 -0.000002
vn -0.942636 -0.000001 0.333822
vn -0.942638 0.236045 0.236044
vn -1.000000 -0.000000 -0.000002
vn -1.000000 -0.000000 -0.000001
vn -0.942638 0.236045 0.236044
vn -0.917288 0.395545 -0.046122
vn -1.000000 0.000000 -0.000001
vn -1.000000 -0.000000 -0.000002
vn -0.917288 0.395545 -0.046122
vn -0.889371 0.332729 -0.313546
vn -1.000000 -0.000000 0.000000
vn -1.000000 0.000000 -0.000001
s off
f 33/1/1 34/2/2 35/3/3 36/4/4
f 34/2/5 37/5/6 38/6/7 35/3/8
f 37/5/9 39/7/10 40/8/11 38/6/12
f 39/7/13 41/9/14 42/10/15 40/8/16
f 41/9/17 43/11/18 44/12/19 42/10/20
f 43/11/21 45/13/22 46/14/23 44/12/24
f 45/13/25 47/15/26 48/16/27 46/14/28
f 47/15/29 33/1/30 36/4/31 48/16/32
f 66/27/33 65/44/34 67/101/35
f 68/102/36 66/27/37 67/101/38
f 69/104/39 68/102/40 67/101/41
f 70/105/42 69/104/43 67/101/44
f 71/107/45 70/105/46 67/101/47
f 72/108/48 71/107/49 67/101/50
f 73/110/51 72/108/52 67/101/53
f 65/44/54 73/110/55 67/101/56
f 74/111/57 75/113/58 76/114/59
f 75/113/60 77/112/61 76/114/62
f 77/112/63 78/109/64 76/114/65
f 78/109/66 79/106/67 76/114/68
f 79/106/69 80/103/70 76/114/71
f 80/103/72 81/68/73 76/114/74
f 81/68/75 82/67/76 76/114/77
f 82/67/78 74/111/79 76/114/80
f 50/17/81 49/18/82 51/19/83 52/20/84
f 53/21/85 50/17/86 52/20/87 54/22/88
f 55/23/89 53/21/90 54/22/91 56/24/92
f 57/25/93 55/23/94 56/24/95 58/26/96
f 59/28/97 57/25/98 58/26/99 60/29/100
f 61/30/101 59/28/102 60/29/103 62/31/104
f 63/32/105 61/30/106 62/31/107 64/33/108
f 49/18/109 63/32/110 64/33/111 51/19/112
f 26/34/113 25/35/114 17/36/115 18/37/116
f 27/38/117 26/34/118 18/37/119 19/39/120
f 28/40/121 27/38/122 19/39/123 20/41/124
f 29/42/125 28/40/126 20/41/127 21/43/128
f 30/45/129 29/42/130 21/43/131 22/46/132
f 31/47/133 30/45/134 22/46/135 23/48/136
f 32/49/137 31/47/138 23/48/139 24/50/140
f 25/35/141 32/49/142 24/50/143 17/36/144
f 1/51/145 2/52/146 34/2/147 33/1/148
f 31/47/149 32/49/150 36/4/151 35/3/152
f 2/52/153 3/53/154 37/5/155 34/2/156
f 30/45/157 31/47/158 35/3/159 38/6/160
f 3/53/161 4/54/162 39/7/163 37/5/164
f 29/42/165 30/45/166 38/6/167 40/8/168
f 4/54/169 5/55/170 41/9/171 39/7/172
f 28/40/173 29/42/174 40/8/175 42/10/176
f 5/55/177 6/56/178 43/11/179 41/9/180
f 27/38/181 28/40/182 42/10/183 44/12/184
f 6/56/185 7/57/186 45/13/187 43/11/188
f 26/34/189 27/38/190 44/12/191 46/14/192
f 7/57/193 8/58/194 47/15/195 45/13/196
f 25/35/197 26/34/198 46/14/199 48/16/200
f 8/58/201 1/51/202 33/1/203 47/15/204
f 32/49/205 25/35/206 48/16/207 36/4/208
f 18/37/209 17/36/210 49/18/211 50/17/212
f 16/59/213 15/60/214 52/20/215 51/19/216
f 19/39/217 18/37/218 50/17/219 53/21/220
f 15/60/221 14/61/222 54/22/223 52/20/224
f 20/41/225 19/39/226 53/21/227 55/23/228
f 14/61/229 13/62/230 56/24/231 54/22/232
f 21/43/233 20/41/234 55/23/235 57/25/236
f 13/62/237 12/63/238 58/26/239 56/24/240
f 22/46/241 21/43/242 57/25/243 59/28/244
f 12/63/245 11/64/246 60/29/247 58/26/248
f 23/48/249 22/46/250 59/28/251 61/30/252
f 11/64/253 10/65/254 62/31/255 60/29/256
f 24/50/257 23/48/258 61/30/259 63/32/260
f 10/65/261 9/66/262 64/33/263 62/31/264
f 17/36/265 24/50/266 63/32/267 49/18/268
f 9/66/269 16/59/270 51/19/271 64/33/272
f 2/69/273 1/70/274 65/71/275 66/72/276
f 3/73/277 2/69/278 66/72/279 68/74/280
f 4/75/281 3/73/282 68/74/283 69/76/284
f 5/77/285 4/75/286 69/76/287 70/78/288
f 6/79/289 5/77/290 70/78/291 71/80/292
f 7/81/293 6/79/294 71/80/295 72/82/296
f 8/83/297 7/81/298 72/82/299 73/84/300
f 1/70/301 8/83/302 73/84/303 65/71/304
f 9/85/305 10/86/306 75/87/307 74/88/308
f 10/86/309 11/89/310 77/90/311 75/87/312
f 11/89/313 12/91/314 78/92/315 77/90/316
f 12/91/317 13/93/318 79/94/319 78/92/320
f 13/93/321 14/95/322 80/96/323 79/94/324
f 14/95/325 15/97/326 81/98/327 80/96/328
f 15/97/329 16/99/330 82/100/331 81/98/332
f 16/99/333 9/85/334 74/88/335 82/100/336
