# This file uses meters as units for non-parametric coordinates.

v 25.000011 -50.000000 -43.301262
v -24.999994 -50.000000 -43.301273
v -50.000000 -50.000000 -0.000006
v -25.000004 -50.000000 43.301273
v 24.999998 -50.000000 43.301277
v 50.000000 -50.000000 0.000001
v 0.000000 50.000000 0.000001
vt 0.248092 0.303113
vt 0.248092 0.303113
vt 0.248092 0.303113
vt 0.248092 0.303113
vt 0.248092 0.303113
vt 0.248092 0.303113
vt 0.248092 0.303113
vt 0.248092 0.303113
vt 0.248092 0.303113
vt 0.248092 0.303113
vt 0.248092 0.303113
vt 0.248092 0.303113
vt 0.248092 0.303113
vt 0.248092 0.303113
vn 0.000000 -1.000000 0.000000
vn 0.000000 -1.000000 0.000000
vn 0.000000 -1.000000 0.000000
vn 0.000000 -1.000000 0.000000
vn 0.000000 -1.000000 0.000000
vn 0.000000 -1.000000 0.000000
vn 0.000000 0.397360 -0.917663
vn 0.000000 0.397360 -0.917663
vn 0.000000 0.397360 -0.917663
vn -0.794719 0.397360 -0.458832
vn -0.794719 0.397360 -0.458832
vn -0.794719 0.397360 -0.458832
vn -0.794720 0.397360 0.458831
vn -0.794719 0.397360 0.458831
vn -0.794720 0.397360 0.458831
vn -0.000000 0.397360 0.917663
vn -0.000000 0.397360 0.917663
vn -0.000000 0.397360 0.917663
vn 0.794719 0.397360 0.458831
vn 0.794719 0.397360 0.458831
vn 0.794719 0.397360 0.458831
vn 0.794720 0.397360 -0.458831
vn 0.794720 0.397360 -0.458831
vn 0.794720 0.397360 -0.458831
s off
f 1/1/1 6/6/2 5/5/3 4/4/4 3/3/5 2/2/6
f 1/7/7 2/8/8 7/14/9
f 2/8/10 3/9/11 7/14/12
f 3/9/13 4/10/14 7/14/15
f 4/10/16 5/11/17 7/14/18
f 5/11/19 6/12/20 7/14/21
f 6/12/22 1/13/23 7/14/24
