# This file uses meters as units for non-parametric coordinates.

v 0.000000 50.131313 0.000000
v 44.838867 22.419409 0.000000
v 13.855896 22.419409 -42.644272
v -36.275330 22.419409 -26.355591
v -36.275330 22.419409 26.355591
v 13.855896 22.419411 42.644234
v 36.275330 -22.419409 -26.355591
v -13.855896 -22.419411 -42.644230
v -44.838867 -22.419409 0.000000
v -13.855896 -22.419409 42.644272
v 36.275330 -22.419409 26.355591
v 0.000000 -50.131313 0.000000
v 26.355591 42.644241 0.000000
v 8.144302 42.644241 -25.065647
v -21.322174 42.644241 -15.491409
v -21.322098 42.644241 15.491447
v 8.144302 42.644241 25.065651
v 34.499969 26.355593 -25.065647
v -13.177795 26.355591 -40.557098
v -42.644196 26.355593 0.000000
v -13.177795 26.355591 40.557098
v 34.499969 26.355593 25.065651
v 47.677765 0.000000 -15.491409
v 0.000000 0.000000 -50.131302
v -47.677765 0.000000 -15.491409
v -29.466400 0.000000 40.557098
v 29.466400 0.000000 40.557098
v 47.677765 0.000000 15.491447
v 29.466400 0.000000 -40.557098
v -29.466400 0.000000 -40.557098
v -47.677765 0.000000 15.491447
v 0.000000 0.000000 50.131302
v 13.177795 -26.355591 -40.557098
v -34.499969 -26.355591 -25.065647
v -34.499893 -26.355597 25.065689
v 13.177795 -26.355587 40.557098
v 42.644196 -26.355593 0.000000
v 21.322098 -42.644241 -15.491409
v -8.144302 -42.644241 -25.065647
v -26.355591 -42.644241 0.000000
v -8.144302 -42.644241 25.065651
v 21.322098 -42.644241 15.491447
vt 0.249863 0.300168
vt 0.249863 0.300168
vt 0.249863 0.300168
vt 0.249863 0.300168
vt 0.249863 0.300168
vt 0.249863 0.300168
vt 0.249863 0.300168
vt 0.249863 0.300168
vt 0.249863 0.300168
vt 0.249863 0.300168
vt 0.249863 0.300168
vt 0.249863 0.300168
vt 0.249863 0.300168
vt 0.249863 0.300168
vt 0.249863 0.300168
vt 0.249863 0.300168
vt 0.249863 0.300168
vt 0.249863 0.300168
vt 0.249863 0.300168
vt 0.249863 0.300168
vt 0.249863 0.300168
vt 0.249863 0.300168
vt 0.249863 0.300168
vt 0.249863 0.300168
vt 0.249863 0.300168
vt 0.249863 0.300168
vt 0.249863 0.300168
vt 0.249863 0.300168
vt 0.249863 0.300168
vt 0.249863 0.300168
vt 0.249863 0.300168
vt 0.249863 0.300168
vt 0.249863 0.300168
vt 0.249863 0.300168
vt 0.249863 0.300168
vt 0.249863 0.300168
vt 0.249863 0.300168
vt 0.249863 0.300168
vt 0.249863 0.300168
vt 0.249863 0.300168
vt 0.249863 0.300168
vt 0.249863 0.300168
vn 0.268035 0.943522 -0.194739
vn 0.268035 0.943522 -0.194739
vn 0.268035 0.943522 -0.194739
vn 0.724043 0.661694 -0.194739
vn 0.724043 0.661694 -0.194739
vn 0.724043 0.661694 -0.194739
vn 0.491123 0.794654 -0.356822
vn 0.491123 0.794654 -0.356822
vn 0.491123 0.794654 -0.356822
vn 0.408949 0.661694 -0.628428
vn 0.408949 0.661694 -0.628428
vn 0.408949 0.661694 -0.628428
vn -0.102380 0.943522 -0.315094
vn -0.102380 0.943522 -0.315094
vn -0.102380 0.943522 -0.315094
vn 0.038534 0.661694 -0.748783
vn 0.038534 0.661694 -0.748783
vn 0.038534 0.661694 -0.748783
vn -0.187592 0.794654 -0.577350
vn -0.187592 0.794654 -0.577350
vn -0.187592 0.794654 -0.577350
vn -0.471299 0.661694 -0.583129
vn -0.471299 0.661694 -0.583129
vn -0.471299 0.661694 -0.583129
vn -0.331309 0.943522 0.000000
vn -0.331309 0.943522 0.000000
vn -0.331309 0.943522 0.000000
vn -0.700228 0.661694 -0.268035
vn -0.700228 0.661694 -0.268035
vn -0.700228 0.661694 -0.268035
vn -0.607062 0.794654 0.000000
vn -0.607062 0.794654 0.000000
vn -0.607062 0.794654 0.000000
vn -0.700228 0.661694 0.268035
vn -0.700228 0.661694 0.268035
vn -0.700228 0.661694 0.268035
vn -0.102380 0.943522 0.315094
vn -0.102380 0.943522 0.315094
vn -0.102380 0.943522 0.315094
vn -0.471298 0.661694 0.583129
vn -0.471298 0.661694 0.583129
vn -0.471298 0.661694 0.583129
vn -0.187592 0.794654 0.577350
vn -0.187592 0.794654 0.577350
vn -0.187592 0.794654 0.577350
vn 0.038534 0.661694 0.748783
vn 0.038534 0.661694 0.748783
vn 0.038534 0.661694 0.748783
vn 0.268035 0.943522 0.194739
vn 0.268035 0.943522 0.194739
vn 0.268035 0.943522 0.194739
vn 0.408949 0.661694 0.628428
vn 0.408949 0.661694 0.628428
vn 0.408949 0.661694 0.628428
vn 0.491123 0.794654 0.356822
vn 0.491123 0.794655 0.356822
vn 0.491123 0.794654 0.356822
vn 0.724043 0.661694 0.194739
vn 0.724043 0.661694 0.194739
vn 0.724043 0.661694 0.194739
vn 0.992078 0.125624 0.000000
vn 0.992078 0.125624 0.000000
vn 0.992078 0.125624 0.000000
vn 0.904988 -0.330384 0.268035
vn 0.904988 -0.330384 0.268035
vn 0.904988 -0.330384 0.268035
vn 0.982247 -0.187592 -0.000000
vn 0.982247 -0.187592 -0.000000
vn 0.982247 -0.187592 -0.000000
vn 0.904988 -0.330384 -0.268035
vn 0.904988 -0.330384 -0.268035
vn 0.904988 -0.330384 -0.268035
vn 0.306569 0.125624 -0.943522
vn 0.306569 0.125624 -0.943522
vn 0.306569 0.125624 -0.943522
vn 0.534573 -0.330384 -0.777868
vn 0.534573 -0.330384 -0.777868
vn 0.534573 -0.330384 -0.777868
vn 0.303531 -0.187592 -0.934172
vn 0.303531 -0.187593 -0.934172
vn 0.303531 -0.187592 -0.934172
vn 0.024740 -0.330384 -0.943522
vn 0.024740 -0.330384 -0.943522
vn 0.024740 -0.330384 -0.943522
vn -0.802608 0.125624 -0.583129
vn -0.802608 0.125624 -0.583129
vn -0.802608 0.125624 -0.583129
vn -0.574604 -0.330384 -0.748783
vn -0.574604 -0.330384 -0.748783
vn -0.574604 -0.330384 -0.748783
vn -0.794655 -0.187592 -0.577350
vn -0.794655 -0.187592 -0.577350
vn -0.794655 -0.187592 -0.577350
vn -0.889698 -0.330384 -0.315094
vn -0.889698 -0.330384 -0.315094
vn -0.889698 -0.330384 -0.315094
vn -0.802608 0.125624 0.583129
vn -0.802608 0.125624 0.583129
vn -0.802608 0.125624 0.583129
vn -0.889698 -0.330384 0.315094
vn -0.889698 -0.330384 0.315094
vn -0.889698 -0.330384 0.315094
vn -0.794654 -0.187593 0.577350
vn -0.794654 -0.187593 0.577350
vn -0.794654 -0.187593 0.577350
vn -0.574603 -0.330384 0.748784
vn -0.574604 -0.330384 0.748784
vn -0.574603 -0.330384 0.748784
vn 0.306569 0.125624 0.943522
vn 0.306569 0.125624 0.943522
vn 0.306569 0.125624 0.943522
vn 0.024741 -0.330384 0.943522
vn 0.024741 -0.330384 0.943522
vn 0.024741 -0.330384 0.943522
vn 0.303531 -0.187593 0.934172
vn 0.303531 -0.187593 0.934172
vn 0.303531 -0.187593 0.934172
vn 0.534573 -0.330384 0.777868
vn 0.534573 -0.330384 0.777868
vn 0.534573 -0.330384 0.777868
vn 0.802608 -0.125624 -0.583129
vn 0.802608 -0.125624 -0.583129
vn 0.802608 -0.125624 -0.583129
vn 0.574604 0.330384 -0.748783
vn 0.574604 0.330384 -0.748783
vn 0.574604 0.330384 -0.748783
vn 0.794654 0.187592 -0.577350
vn 0.794654 0.187592 -0.577350
vn 0.794654 0.187592 -0.577350
vn 0.889698 0.330384 -0.315094
vn 0.889698 0.330384 -0.315094
vn 0.889698 0.330384 -0.315094
vn -0.306569 -0.125624 -0.943522
vn -0.306569 -0.125624 -0.943522
vn -0.306569 -0.125624 -0.943522
vn -0.534573 0.330384 -0.777867
vn -0.534573 0.330384 -0.777867
vn -0.534573 0.330384 -0.777867
vn -0.303531 0.187592 -0.934172
vn -0.303531 0.187592 -0.934172
vn -0.303531 0.187592 -0.934172
vn -0.024741 0.330384 -0.943522
vn -0.024741 0.330384 -0.943522
vn -0.024741 0.330384 -0.943522
vn -0.992078 -0.125624 -0.000000
vn -0.992078 -0.125624 -0.000000
vn -0.992078 -0.125624 -0.000000
vn -0.904988 0.330384 0.268035
vn -0.904988 0.330384 0.268035
vn -0.904988 0.330384 0.268035
vn -0.982247 0.187592 0.000000
vn -0.982247 0.187592 0.000000
vn -0.982247 0.187592 0.000000
vn -0.904988 0.330384 -0.268035
vn -0.904988 0.330384 -0.268035
vn -0.904988 0.330384 -0.268035
vn -0.306569 -0.125624 0.943522
vn -0.306569 -0.125624 0.943522
vn -0.306568 -0.125624 0.943522
vn -0.024740 0.330384 0.943522
vn -0.024740 0.330384 0.943522
vn -0.024740 0.330384 0.943522
vn -0.303531 0.187593 0.934173
vn -0.303531 0.187593 0.934173
vn -0.303531 0.187593 0.934173
vn -0.534573 0.330384 0.777868
vn -0.534573 0.330384 0.777868
vn -0.534573 0.330384 0.777868
vn 0.802608 -0.125624 0.583129
vn 0.802608 -0.125624 0.583129
vn 0.802608 -0.125624 0.583129
vn 0.889698 0.330384 0.315094
vn 0.889698 0.330384 0.315094
vn 0.889698 0.330384 0.315094
vn 0.794655 0.187592 0.577350
vn 0.794655 0.187592 0.577350
vn 0.794655 0.187592 0.577350
vn 0.574604 0.330384 0.748783
vn 0.574604 0.330384 0.748783
vn 0.574604 0.330384 0.748783
vn 0.102380 -0.943522 -0.315094
vn 0.102380 -0.943522 -0.315094
vn 0.102380 -0.943522 -0.315094
vn -0.038534 -0.661694 -0.748783
vn -0.038534 -0.661694 -0.748783
vn -0.038534 -0.661694 -0.748783
vn 0.187592 -0.794654 -0.577350
vn 0.187592 -0.794654 -0.577350
vn 0.187592 -0.794654 -0.577350
vn 0.471298 -0.661694 -0.583129
vn 0.471299 -0.661694 -0.583129
vn 0.471299 -0.661694 -0.583129
vn -0.268035 -0.943522 -0.194739
vn -0.268035 -0.943522 -0.194739
vn -0.268035 -0.943522 -0.194739
vn -0.724043 -0.661694 -0.194739
vn -0.724043 -0.661694 -0.194739
vn -0.724043 -0.661694 -0.194739
vn -0.491123 -0.794654 -0.356822
vn -0.491124 -0.794654 -0.356822
vn -0.491124 -0.794654 -0.356822
vn -0.408949 -0.661694 -0.628428
vn -0.408949 -0.661694 -0.628428
vn -0.408949 -0.661694 -0.628428
vn -0.268035 -0.943522 0.194739
vn -0.268035 -0.943522 0.194739
vn -0.268035 -0.943522 0.194739
vn -0.408949 -0.661694 0.628428
vn -0.408949 -0.661694 0.628428
vn -0.408949 -0.661694 0.628428
vn -0.491123 -0.794655 0.356822
vn -0.491123 -0.794655 0.356822
vn -0.491123 -0.794655 0.356822
vn -0.724043 -0.661694 0.194739
vn -0.724043 -0.661694 0.194739
vn -0.724043 -0.661694 0.194739
vn 0.102380 -0.943522 0.315094
vn 0.102380 -0.943522 0.315094
vn 0.102380 -0.943522 0.315094
vn 0.471298 -0.661694 0.583129
vn 0.471298 -0.661694 0.583129
vn 0.471298 -0.661694 0.583129
vn 0.187593 -0.794654 0.577350
vn 0.187593 -0.794654 0.577350
vn 0.187593 -0.794654 0.577350
vn -0.038534 -0.661694 0.748783
vn -0.038534 -0.661694 0.748783
vn -0.038534 -0.661694 0.748783
vn 0.331309 -0.943522 -0.000000
vn 0.331309 -0.943522 -0.000000
vn 0.331309 -0.943522 -0.000000
vn 0.700228 -0.661694 -0.268035
vn 0.700228 -0.661694 -0.268035
vn 0.700228 -0.661694 -0.268035
vn 0.607062 -0.794654 -0.000000
vn 0.607062 -0.794654 -0.000000
vn 0.607062 -0.794654 -0.000000
vn 0.700228 -0.661694 0.268035
vn 0.700228 -0.661694 0.268035
vn 0.700228 -0.661694 0.268035
s off
f 1/1/1 13/2/2 14/3/3
f 13/2/4 2/4/5 18/5/6
f 13/2/7 18/5/8 14/3/9
f 14/3/10 18/5/11 3/6/12
f 1/1/13 14/3/14 15/7/15
f 14/3/16 3/6/17 19/8/18
f 14/3/19 19/8/20 15/7/21
f 15/7/22 19/8/23 4/9/24
f 1/1/25 15/7/26 16/10/27
f 15/7/28 4/9/29 20/11/30
f 15/7/31 20/11/32 16/10/33
f 16/10/34 20/11/35 5/12/36
f 1/1/37 16/10/38 17/13/39
f 16/10/40 5/12/41 21/14/42
f 16/10/43 21/14/44 17/13/45
f 17/13/46 21/14/47 6/15/48
f 1/1/49 17/13/50 13/2/51
f 17/13/52 6/15/53 22/16/54
f 17/13/55 22/16/56 13/2/57
f 13/2/58 22/16/59 2/4/60
f 2/4/61 28/17/62 23/18/63
f 28/17/64 11/19/65 37/20/66
f 28/17/67 37/20/68 23/18/69
f 23/18/70 37/20/71 7/21/72
f 3/6/73 29/22/74 24/23/75
f 29/22/76 7/21/77 33/24/78
f 29/22/79 33/24/80 24/23/81
f 24/23/82 33/24/83 8/25/84
f 4/9/85 30/26/86 25/27/87
f 30/26/88 8/25/89 34/28/90
f 30/26/91 34/28/92 25/27/93
f 25/27/94 34/28/95 9/29/96
f 5/12/97 31/30/98 26/31/99
f 31/30/100 9/29/101 35/32/102
f 31/30/103 35/32/104 26/31/105
f 26/31/106 35/32/107 10/33/108
f 6/15/109 32/34/110 27/35/111
f 32/34/112 10/33/113 36/36/114
f 32/34/115 36/36/116 27/35/117
f 27/35/118 36/36/119 11/19/120
f 7/21/121 29/22/122 23/18/123
f 29/22/124 3/6/125 18/5/126
f 29/22/127 18/5/128 23/18/129
f 23/18/130 18/5/131 2/4/132
f 8/25/133 30/26/134 24/23/135
f 30/26/136 4/9/137 19/8/138
f 30/26/139 19/8/140 24/23/141
f 24/23/142 19/8/143 3/6/144
f 9/29/145 31/30/146 25/27/147
f 31/30/148 5/12/149 20/11/150
f 31/30/151 20/11/152 25/27/153
f 25/27/154 20/11/155 4/9/156
f 10/33/157 32/34/158 26/31/159
f 32/34/160 6/15/161 21/14/162
f 32/34/163 21/14/164 26/31/165
f 26/31/166 21/14/167 5/12/168
f 11/19/169 28/17/170 27/35/171
f 28/17/172 2/4/173 22/16/174
f 28/17/175 22/16/176 27/35/177
f 27/35/178 22/16/179 6/15/180
f 12/37/181 39/38/182 38/39/183
f 39/38/184 8/25/185 33/24/186
f 39/38/187 33/24/188 38/39/189
f 38/39/190 33/24/191 7/21/192
f 12/37/193 40/40/194 39/38/195
f 40/40/196 9/29/197 34/28/198
f 40/40/199 34/28/200 39/38/201
f 39/38/202 34/28/203 8/25/204
f 12/37/205 41/41/206 40/40/207
f 41/41/208 10/33/209 35/32/210
f 41/41/211 35/32/212 40/40/213
f 40/40/214 35/32/215 9/29/216
f 12/37/217 42/42/218 41/41/219
f 42/42/220 11/19/221 36/36/222
f 42/42/223 36/36/224 41/41/225
f 41/41/226 36/36/227 10/33/228
f 12/37/229 38/39/230 42/42/231
f 38/39/232 7/21/233 37/20/234
f 38/39/235 37/20/236 42/42/237
f 42/42/238 37/20/239 11/19/240
