# This file uses meters as units for non-parametric coordinates.

v 4.586898 0.000000 -4.586899
v 0.000000 0.000000 -6.486853
v -4.586898 0.000000 -4.586899
v -6.486853 0.000000 0.000000
v -4.586898 0.000000 4.586899
v 0.000000 0.000000 6.486853
v 4.586898 0.000000 4.586899
v 6.486853 0.000000 0.000000
v 4.224173 1.061953 -4.224167
v 0.000000 1.061953 -5.973902
v -4.224173 1.061953 -4.224167
v -5.973883 1.061953 0.000000
v -4.224173 1.061953 4.224192
v 0.000000 1.061953 5.973901
v 4.224173 1.061953 4.224192
v 5.973883 1.061953 0.000000
v 3.348092 1.061953 -3.348085
v 0.000000 1.061953 -4.734917
v 0.000000 1.061953 0.000000
v -3.348092 1.061953 -3.348085
v -4.734919 1.061953 0.000000
v -3.348092 1.061953 3.348110
v 0.000000 1.061953 4.734916
v 3.348092 1.061953 3.348110
v 4.734919 1.061953 0.000000
vt 0.080940 0.328580
vt 0.080940 0.328580
vt 0.080940 0.328580
vt 0.080940 0.328580
vt 0.080940 0.328580
vt 0.080940 0.328580
vt 0.080940 0.328580
vt 0.080940 0.328580
vt 0.080940 0.328580
vt 0.080940 0.328580
vt 0.080940 0.328580
vt 0.080940 0.328580
vt 0.080940 0.328580
vt 0.080940 0.328580
vt 0.080940 0.328580
vt 0.080940 0.328580
vt 0.080940 0.328580
vt 0.080940 0.328580
vt 0.080128 0.276581
vt 0.080128 0.276581
vt 0.080128 0.276581
vt 0.080128 0.276581
vt 0.080128 0.276581
vt 0.080128 0.276581
vt 0.080128 0.276581
vt 0.080128 0.276581
vt 0.080128 0.276581
vt 0.080128 0.276581
vt 0.080128 0.276581
vt 0.080128 0.276581
vt 0.080128 0.276581
vt 0.080128 0.276581
vt 0.080128 0.276581
vt 0.080128 0.276581
vt 0.080128 0.276581
vt 0.080128 0.276581
vt 0.080128 0.276581
vt 0.080128 0.276581
vt 0.080128 0.276581
vt 0.080128 0.276581
vt 0.080128 0.276581
vt 0.080128 0.276581
vt 0.080940 0.328580
vt 0.080940 0.328580
vt 0.080940 0.328580
vt 0.080940 0.328580
vt 0.080940 0.328580
vt 0.080940 0.328580
vt 0.080940 0.328580
vt 0.080940 0.328580
vt 0.080940 0.328580
vt 0.080940 0.328580
vt 0.080940 0.328580
vt 0.080940 0.328580
vt 0.080940 0.328580
vt 0.080940 0.328580
vt 0.080940 0.328580
vt 0.080940 0.328580
vn 0.349465 0.407530 -0.843679
vn 0.349465 0.407530 -0.843679
vn 0.349465 0.407530 -0.843679
vn 0.349465 0.407530 -0.843679
vn -0.349465 0.407530 -0.843679
vn -0.349465 0.407530 -0.843679
vn -0.349465 0.407530 -0.843679
vn -0.349465 0.407530 -0.843679
vn -0.843677 0.407535 -0.349463
vn -0.843677 0.407535 -0.349463
vn -0.843677 0.407535 -0.349463
vn -0.843677 0.407535 -0.349463
vn -0.843679 0.407531 0.349462
vn -0.843679 0.407531 0.349463
vn -0.843679 0.407531 0.349463
vn -0.843679 0.407531 0.349463
vn -0.349465 0.407522 0.843683
vn -0.349465 0.407522 0.843683
vn -0.349465 0.407522 0.843683
vn -0.349465 0.407522 0.843683
vn 0.349465 0.407522 0.843683
vn 0.349465 0.407522 0.843683
vn 0.349465 0.407522 0.843683
vn 0.349465 0.407522 0.843683
vn 0.843679 0.407532 0.349462
vn 0.843679 0.407532 0.349462
vn 0.843679 0.407532 0.349462
vn 0.843679 0.407532 0.349463
vn 0.843677 0.407535 -0.349463
vn 0.843677 0.407535 -0.349463
vn 0.843677 0.407535 -0.349463
vn 0.843677 0.407535 -0.349463
vn 0.000000 1.000000 0.000000
vn 0.000000 1.000000 0.000000
vn 0.000000 1.000000 0.000000
vn 0.000000 1.000000 0.000000
vn 0.000000 1.000000 0.000000
vn 0.000000 1.000000 0.000000
vn 0.000000 1.000000 -0.000000
vn 0.000000 1.000000 -0.000000
vn 0.000000 1.000000 -0.000000
vn 0.000000 1.000000 0.000000
vn 0.000000 1.000000 0.000000
vn 0.000000 1.000000 0.000000
vn 0.000000 1.000000 0.000000
vn 0.000000 1.000000 0.000000
vn 0.000000 1.000000 0.000000
vn 0.000000 1.000000 0.000000
vn 0.000000 1.000000 0.000000
vn 0.000000 1.000000 0.000000
vn 0.000000 1.000000 -0.000000
vn 0.000000 1.000000 -0.000000
vn 0.000000 1.000000 -0.000000
vn 0.000000 1.000000 0.000000
vn 0.000000 1.000000 0.000000
vn 0.000000 1.000000 0.000000
vn 0.000000 1.000000 0.000000
vn 0.000000 1.000000 0.000000
vn 0.000000 1.000000 0.000000
vn 0.000000 1.000000 0.000000
vn 0.000000 1.000000 0.000000
vn 0.000000 1.000000 0.000000
vn 0.000000 1.000000 0.000000
vn 0.000000 1.000000 0.000000
vn 0.000000 1.000000 0.000000
vn 0.000000 1.000000 0.000000
vn 0.000000 1.000000 0.000000
vn 0.000000 1.000000 0.000000
vn 0.000000 1.000000 0.000000
vn 0.000000 1.000000 0.000000
vn 0.000000 1.000000 0.000000
vn 0.000000 1.000000 0.000000
vn 0.000000 1.000000 -0.000000
vn 0.000000 1.000000 -0.000000
vn 0.000000 1.000000 -0.000000
vn 0.000000 1.000000 -0.000000
vn 0.000000 1.000000 -0.000000
vn 0.000000 1.000000 -0.000000
vn 0.000000 1.000000 -0.000000
vn 0.000000 1.000000 -0.000000
vn 0.000000 1.000000 0.000000
vn 0.000000 1.000000 0.000000
vn 0.000000 1.000000 0.000000
vn 0.000000 1.000000 0.000000
vn 0.000000 1.000000 0.000000
vn 0.000000 1.000000 0.000000
vn 0.000000 1.000000 0.000000
vn 0.000000 1.000000 0.000000
s off
f 1/1/1 2/2/2 10/3/3 9/4/4
f 2/2/5 3/5/6 11/6/7 10/3/8
f 3/5/9 4/7/10 12/8/11 11/6/12
f 4/7/13 5/9/14 13/10/15 12/8/16
f 5/9/17 6/11/18 14/12/19 13/10/20
f 6/11/21 7/13/22 15/14/23 14/12/24
f 7/13/25 8/15/26 16/16/27 15/14/28
f 8/15/29 1/17/30 9/18/31 16/16/32
f 17/19/33 18/20/34 19/21/35
f 18/22/36 20/23/37 19/24/38
f 20/25/39 21/26/40 19/27/41
f 21/28/42 22/29/43 19/30/44
f 22/31/45 23/32/46 19/33/47
f 23/34/48 24/35/49 19/36/50
f 24/37/51 25/38/52 19/39/53
f 25/40/54 17/41/55 19/42/56
f 9/43/57 10/44/58 18/45/59 17/46/60
f 10/44/61 11/47/62 20/48/63 18/45/64
f 11/47/65 12/49/66 21/50/67 20/48/68
f 12/49/69 13/51/70 22/52/71 21/50/72
f 13/51/73 14/53/74 23/54/75 22/52/76
f 14/53/77 15/55/78 24/56/79 23/54/80
f 15/55/81 16/57/82 25/58/83 24/56/84
f 16/57/85 9/43/86 17/46/87 25/58/88
v 3.081296 0.000000 -3.081303
v 0.000000 0.000000 -4.357607
v -3.081296 0.000000 -3.081303
v -4.357610 0.000000 0.000000
v -3.081296 0.000000 3.081278
v 0.000000 0.000000 4.357607
v 3.081296 0.000000 3.081278
v 4.357607 0.000000 0.000000
v 3.081296 2.886434 -3.081303
v 0.000000 2.886434 -4.357607
v -3.081296 2.886434 -3.081303
v -4.357610 2.886434 0.000000
v -3.081296 2.886434 3.081278
v 0.000000 2.886434 4.357607
v 3.081296 2.886434 3.081278
v 4.357607 2.886434 0.000000
v 2.765471 3.279861 -2.765469
v 0.000000 3.279861 -3.910980
v 0.000000 3.279861 0.000000
v -2.616169 3.279861 -2.536177
v -3.910967 3.279861 0.000000
v -2.765471 3.279861 2.765469
v 0.000000 3.279861 3.910955
v 2.763745 3.279861 2.492027
v 3.910967 3.279861 0.000000
vt 0.248092 0.303113
vt 0.248092 0.303113
vt 0.248092 0.303113
vt 0.248092 0.303113
vt 0.248092 0.303113
vt 0.248092 0.303113
vt 0.248092 0.303113
vt 0.248092 0.303113
vt 0.248092 0.303113
vt 0.248092 0.303113
vt 0.248092 0.303113
vt 0.248092 0.303113
vt 0.248092 0.303113
vt 0.248092 0.303113
vt 0.248092 0.303113
vt 0.248092 0.303113
vt 0.248092 0.303113
vt 0.248092 0.303113
vt 0.248092 0.303113
vt 0.248092 0.303113
vt 0.248092 0.303113
vt 0.248092 0.303113
vt 0.248092 0.303113
vt 0.248092 0.303113
vt 0.248092 0.303113
vt 0.248092 0.303113
vt 0.248092 0.303113
vt 0.248092 0.303113
vt 0.248092 0.303113
vt 0.248092 0.303113
vt 0.248092 0.303113
vt 0.248092 0.303113
vt 0.248092 0.303113
vt 0.248092 0.303113
vt 0.248092 0.303113
vn 0.382681 0.000000 -0.923881
vn 0.382681 0.000000 -0.923881
vn 0.382681 0.000000 -0.923881
vn 0.382681 0.000000 -0.923881
vn -0.382681 0.000000 -0.923881
vn -0.382681 0.000000 -0.923881
vn -0.382681 0.000000 -0.923881
vn -0.382681 0.000000 -0.923881
vn -0.923880 0.000000 -0.382683
vn -0.923880 0.000000 -0.382683
vn -0.923880 0.000000 -0.382683
vn -0.923880 0.000000 -0.382683
vn -0.923879 0.000000 0.382685
vn -0.923879 0.000000 0.382685
vn -0.923879 0.000000 0.382685
vn -0.923879 0.000000 0.382685
vn -0.382687 0.000000 0.923878
vn -0.382687 0.000000 0.923878
vn -0.382687 0.000000 0.923878
vn -0.382687 0.000000 0.923878
vn 0.382687 0.000000 0.923878
vn 0.382687 0.000000 0.923878
vn 0.382687 0.000000 0.923878
vn 0.382687 0.000000 0.923878
vn 0.923879 0.000000 0.382685
vn 0.923879 0.000000 0.382685
vn 0.923879 0.000000 0.382685
vn 0.923879 0.000000 0.382685
vn 0.923880 0.000000 -0.382682
vn 0.923880 0.000000 -0.382682
vn 0.923880 0.000000 -0.382682
vn 0.923880 0.000000 -0.382682
vn 0.000000 1.000000 0.000000
vn 0.000000 1.000000 0.000000
vn 0.000000 1.000000 0.000000
vn 0.000000 1.000000 0.000000
vn 0.000000 1.000000 0.000000
vn 0.000000 1.000000 0.000000
vn 0.000000 1.000000 0.000000
vn 0.000000 1.000000 0.000000
vn 0.000000 1.000000 0.000000
vn 0.000000 1.000000 0.000000
vn 0.000000 1.000000 0.000000
vn 0.000000 1.000000 0.000000
vn 0.000000 1.000000 0.000000
vn 0.000000 1.000000 0.000000
vn 0.000000 1.000000 0.000000
vn 0.000000 1.000000 0.000000
vn 0.000000 1.000000 0.000000
vn 0.000000 1.000000 0.000000
vn 0.000000 1.000000 0.000000
vn 0.000000 1.000000 0.000000
vn 0.000000 1.000000 0.000000
vn 0.000000 1.000000 0.000000
vn 0.000000 1.000000 0.000000
vn 0.000000 1.000000 0.000000
vn 0.264073 0.723756 -0.637528
vn 0.264073 0.723756 -0.637528
vn 0.264073 0.723756 -0.637528
vn 0.264073 0.723756 -0.637528
vn -0.246127 0.812179 -0.528949
vn -0.246127 0.812179 -0.528949
vn -0.246127 0.812179 -0.528949
vn -0.246127 0.812179 -0.528949
vn -0.543318 0.801852 -0.248676
vn -0.543318 0.801852 -0.248676
vn -0.543318 0.801852 -0.248676
vn -0.543318 0.801852 -0.248676
vn -0.637528 0.723757 0.264074
vn -0.637528 0.723757 0.264074
vn -0.637528 0.723757 0.264074
vn -0.637528 0.723757 0.264074
vn -0.264073 0.723756 0.637528
vn -0.264073 0.723756 0.637528
vn -0.264073 0.723756 0.637528
vn -0.264073 0.723756 0.637528
vn 0.247525 0.806588 0.536793
vn 0.247525 0.806588 0.536793
vn 0.247525 0.806588 0.536793
vn 0.247525 0.806588 0.536793
vn 0.590190 0.765382 0.256642
vn 0.590190 0.765382 0.256642
vn 0.590190 0.765382 0.256642
vn 0.590190 0.765382 0.256642
vn 0.637525 0.723760 -0.264071
vn 0.637525 0.723760 -0.264071
vn 0.637525 0.723760 -0.264071
vn 0.637525 0.723760 -0.264071
s off
f 26/59/89 27/60/90 35/61/91 34/62/92
f 27/60/93 28/63/94 36/64/95 35/61/96
f 28/63/97 29/65/98 37/66/99 36/64/100
f 29/65/101 30/67/102 38/68/103 37/66/104
f 30/67/105 31/69/106 39/70/107 38/68/108
f 31/69/109 32/71/110 40/72/111 39/70/112
f 32/71/113 33/73/114 41/74/115 40/72/116
f 33/73/117 26/75/118 34/76/119 41/74/120
f 42/77/121 43/78/122 44/79/123
f 43/78/124 45/80/125 44/79/126
f 45/80/127 46/81/128 44/79/129
f 46/81/130 47/82/131 44/79/132
f 47/82/133 48/83/134 44/79/135
f 48/83/136 49/84/137 44/79/138
f 49/84/139 50/85/140 44/79/141
f 50/85/142 42/77/143 44/79/144
f 34/86/145 35/87/146 43/78/147 42/77/148
f 35/87/149 36/88/150 45/80/151 43/78/152
f 36/88/153 37/89/154 46/81/155 45/80/156
f 37/89/157 38/90/158 47/82/159 46/81/160
f 38/90/161 39/91/162 48/83/163 47/82/164
f 39/91/165 40/92/166 49/84/167 48/83/168
f 40/92/169 41/93/170 50/85/171 49/84/172
f 41/93/173 34/86/174 42/77/175 50/85/176
