# This file uses meters as units for non-parametric coordinates.

v -9.335836 1.384621 14.632797
v -7.951208 0.000000 14.632797
v -7.951208 1.384621 16.017399
v 7.951218 0.000000 14.632797
v 9.335836 1.384621 14.632797
v 7.951218 1.384621 16.017399
v -7.951208 8.951257 14.632797
v -9.335836 7.566636 14.632797
v -7.951208 7.566636 16.017399
v 9.335836 7.566636 14.632797
v 7.951218 8.951257 14.632797
v 7.951218 7.566636 16.017399
v -7.951208 7.566636 -16.017399
v -9.335836 7.566636 -14.632775
v -7.951208 8.951257 -14.632775
v 9.335836 7.566636 -14.632775
v 7.951218 7.566636 -16.017399
v 7.951218 8.951257 -14.632775
v -7.951208 0.000000 -14.632775
v -9.335836 1.384621 -14.632775
v -7.951208 1.384621 -16.017399
v 9.335836 1.384621 -14.632775
v 7.951218 0.000000 -14.632775
v 7.951218 1.384621 -16.017399
v 6.947811 8.951257 -8.730724
v -7.951208 8.951257 9.107262
v -9.335836 6.550618 8.434894
v -9.335836 1.384621 9.107262
v -7.951208 0.000000 9.107262
v 7.280088 0.000000 -10.457394
v 9.335836 1.384621 -9.683262
v 9.335836 7.566636 -9.683262
v -5.557632 8.951257 14.632797
v -1.280136 8.951257 14.632797
v -3.984811 7.566636 16.017399
v -4.071423 8.951257 13.105529
v 2.222417 7.566636 -16.017399
v 5.888327 7.566636 -16.017399
v 4.885390 8.951257 -14.632775
v 3.675420 5.858323 -16.017399
v 3.454232 8.951257 12.505795
v 3.130479 8.951257 -7.461642
v -2.889411 8.951257 7.783488
v -2.886148 8.951257 11.856843
v -0.221754 8.951257 12.505795
v 2.465028 8.951257 -12.505813
v -2.889411 8.951257 -12.505813
v 3.454232 8.951257 12.505795
v 3.130479 8.951257 -7.461642
v -2.889411 8.951257 7.783488
v -2.886148 8.951257 11.856843
v -0.221754 8.951257 12.505795
v 2.465028 8.951257 -12.505813
v -2.889411 8.951257 -12.505813
v 2.891724 6.910352 11.243783
v 2.625385 6.910352 -6.708662
v -2.326904 6.910352 6.998011
v -2.637018 6.910352 10.726543
v -0.132339 6.910352 11.243783
v 2.077947 6.910352 -11.243801
v -2.326904 6.910352 -11.243801
vt 0.080128 0.274956
vt 0.080128 0.274956
vt 0.080128 0.274956
vt 0.080128 0.274956
vt 0.080128 0.274956
vt 0.080128 0.274956
vt 0.080128 0.274956
vt 0.080128 0.274956
vt 0.080128 0.274956
vt 0.080128 0.274956
vt 0.080128 0.274956
vt 0.080128 0.274956
vt 0.080128 0.274956
vt 0.080128 0.274956
vt 0.080128 0.274956
vt 0.080128 0.274956
vt 0.080128 0.274956
vt 0.080128 0.274956
vt 0.080128 0.274956
vt 0.080128 0.274956
vt 0.080128 0.274956
vt 0.080128 0.274956
vt 0.080128 0.274956
vt 0.080128 0.274956
vt 0.080128 0.274956
vt 0.080128 0.274956
vt 0.080128 0.274956
vt 0.080128 0.274956
vt 0.080128 0.274956
vt 0.080128 0.274956
vt 0.080128 0.274956
vt 0.080128 0.274956
vt 0.080128 0.274956
vt 0.080128 0.274956
vt 0.080128 0.274956
vt 0.080128 0.274956
vt 0.080128 0.274956
vt 0.080128 0.274956
vt 0.080128 0.274956
vt 0.080128 0.274956
vt 0.080128 0.274956
vt 0.080128 0.274956
vt 0.080128 0.274956
vt 0.080128 0.274956
vt 0.080128 0.274956
vt 0.080128 0.274956
vt 0.080128 0.274956
vt 0.080128 0.274956
vt 0.080128 0.274956
vt 0.080128 0.274956
vt 0.080128 0.274956
vt 0.080128 0.274956
vt 0.080128 0.274956
vt 0.080128 0.274956
vt 0.080128 0.274956
vt 0.080128 0.274956
vt 0.080128 0.274956
vt 0.080128 0.274956
vt 0.080128 0.274956
vt 0.080128 0.274956
vt 0.080128 0.274956
vt 0.080128 0.274956
vt 0.080128 0.274956
vt 0.080128 0.274956
vt 0.080128 0.274956
vt 0.080128 0.274956
vt 0.080128 0.274956
vt 0.080128 0.274956
vt 0.080128 0.274956
vt 0.080128 0.274956
vt 0.080128 0.274956
vt 0.080128 0.274956
vt 0.080128 0.274956
vt 0.080128 0.274956
vt 0.080128 0.274956
vt 0.080128 0.274956
vt 0.080128 0.274956
vt 0.080128 0.274956
vt 0.080128 0.274956
vt 0.080128 0.227832
vt 0.080128 0.227832
vt 0.080128 0.227832
vt 0.080128 0.227832
vt 0.080128 0.227832
vt 0.080128 0.227832
vt 0.080128 0.227832
vn 0.000000 -1.000000 0.000000
vn 0.000000 -1.000000 0.000000
vn 0.000000 -1.000000 0.000000
vn 0.000000 -1.000000 0.000000
vn 0.000000 0.000000 1.000000
vn 0.000000 0.000000 1.000000
vn 0.000000 0.000000 1.000000
vn 0.000000 0.000000 1.000000
vn -1.000000 0.000000 0.000000
vn -1.000000 0.000000 0.000000
vn -1.000000 0.000000 0.000000
vn -1.000000 0.000000 0.000000
vn 1.000000 0.000000 0.000000
vn 1.000000 0.000000 0.000000
vn 1.000000 0.000000 0.000000
vn 1.000000 0.000000 0.000000
vn 0.000000 1.000000 -0.000000
vn 0.000000 1.000000 -0.000000
vn 0.000000 1.000000 -0.000000
vn 0.000000 1.000000 -0.000000
vn 0.000000 0.000000 -1.000000
vn 0.000000 0.000000 -1.000000
vn 0.000000 0.000000 -1.000000
vn 0.000000 0.000000 -1.000000
vn 0.000000 0.000000 -1.000000
vn -0.707105 -0.707109 0.000000
vn -0.707105 -0.707109 0.000000
vn -0.707105 -0.707109 0.000000
vn -0.707105 -0.707109 0.000000
vn 0.000000 -0.707102 0.707112
vn 0.000000 -0.707102 0.707112
vn 0.000000 -0.707102 0.707112
vn 0.000000 -0.707102 0.707112
vn -0.707100 0.000000 0.707114
vn -0.707100 0.000000 0.707114
vn -0.707100 0.000000 0.707114
vn -0.707100 0.000000 0.707114
vn 0.628174 -0.778026 -0.008533
vn 0.628174 -0.778026 -0.008533
vn 0.628174 -0.778026 -0.008533
vn 0.628174 -0.778026 -0.008533
vn 0.707102 0.000000 0.707111
vn 0.707102 0.000000 0.707111
vn 0.707102 0.000000 0.707111
vn 0.707102 0.000000 0.707111
vn -0.801608 0.595617 -0.051619
vn -0.801608 0.595617 -0.051619
vn -0.801608 0.595617 -0.051619
vn -0.801608 0.595617 -0.051619
vn 0.395441 0.833995 0.384810
vn 0.395441 0.833995 0.384810
vn 0.395441 0.833995 0.384810
vn 0.589646 0.807566 -0.012409
vn 0.589646 0.807566 -0.012409
vn 0.589646 0.807566 -0.012409
vn 0.589646 0.807566 -0.012409
vn -0.707105 0.000000 -0.707108
vn -0.707105 0.000000 -0.707108
vn -0.707105 0.000000 -0.707108
vn -0.707105 0.000000 -0.707108
vn 0.000000 0.707107 -0.707106
vn 0.000000 0.707107 -0.707106
vn 0.000000 0.707107 -0.707106
vn 0.000000 0.707107 -0.707106
vn 0.707108 0.000000 -0.707106
vn 0.707108 0.000000 -0.707106
vn 0.707108 0.000000 -0.707106
vn 0.707108 0.000000 -0.707106
vn 0.000000 -0.707107 -0.707106
vn 0.000000 -0.707107 -0.707106
vn 0.000000 -0.707107 -0.707106
vn 0.000000 -0.707107 -0.707106
vn -0.577345 -0.577349 0.577357
vn -0.577345 -0.577349 0.577357
vn -0.577345 -0.577349 0.577357
vn 0.577349 -0.577347 0.577355
vn 0.577349 -0.577347 0.577356
vn 0.577349 -0.577347 0.577356
vn -0.577346 0.577348 0.577356
vn -0.577346 0.577348 0.577356
vn -0.577346 0.577348 0.577356
vn 0.577349 0.577346 0.577355
vn 0.577349 0.577346 0.577355
vn 0.577349 0.577346 0.577355
vn -0.577348 0.577352 -0.577351
vn -0.577348 0.577352 -0.577351
vn -0.577348 0.577352 -0.577351
vn 0.577351 0.577351 -0.577350
vn 0.577351 0.577351 -0.577350
vn 0.577351 0.577351 -0.577350
vn -0.577348 -0.577352 -0.577351
vn -0.577348 -0.577352 -0.577351
vn -0.577348 -0.577352 -0.577351
vn 0.577351 -0.577351 -0.577350
vn 0.577351 -0.577351 -0.577350
vn 0.577351 -0.577351 -0.577350
vn 0.000000 1.000000 0.000000
vn 0.000000 1.000000 0.000000
vn 0.000000 1.000000 0.000000
vn -0.808090 0.588920 0.012783
vn -0.808090 0.588920 0.012783
vn -0.808090 0.588920 0.012783
vn -0.808090 0.588920 0.012783
vn -1.000000 -0.000000 0.000000
vn -1.000000 -0.000000 0.000000
vn -1.000000 -0.000000 0.000000
vn -1.000000 -0.000000 0.000000
vn -0.707105 -0.707109 0.000000
vn -0.707105 -0.707109 0.000000
vn -0.707105 -0.707109 0.000000
vn -0.707105 -0.707109 0.000000
vn 0.000000 -1.000000 0.000000
vn 0.000000 -1.000000 0.000000
vn 0.000000 -1.000000 0.000000
vn 0.000000 -1.000000 0.000000
vn 0.620132 -0.783171 0.045610
vn 0.620132 -0.783171 0.045610
vn 0.620132 -0.783171 0.045610
vn 0.620132 -0.783171 0.045610
vn 1.000000 0.000000 0.000000
vn 1.000000 0.000000 0.000000
vn 1.000000 0.000000 0.000000
vn 1.000000 0.000000 0.000000
vn 0.599883 0.798163 0.055469
vn 0.599883 0.798163 0.055469
vn 0.599883 0.798163 0.055469
vn 0.599883 0.798163 0.055469
vn 0.000000 0.707102 0.707112
vn 0.000000 0.707102 0.707112
vn 0.000000 0.707102 0.707112
vn 0.000000 0.707102 0.707112
vn 0.000000 0.707102 0.707112
vn 0.000000 0.707102 0.707112
vn 0.000000 0.707102 0.707112
vn 0.000000 0.707102 0.707112
vn 0.000000 1.000000 -0.000000
vn 0.000000 1.000000 -0.000000
vn 0.000000 1.000000 -0.000000
vn 0.000000 1.000000 -0.000000
vn 0.000000 1.000000 -0.000000
vn -0.231645 0.875845 0.423362
vn -0.231645 0.875845 0.423362
vn -0.231645 0.875845 0.423362
vn 0.000000 0.000000 1.000000
vn 0.000000 0.000000 1.000000
vn 0.000000 0.000000 1.000000
vn 0.000000 0.707107 -0.707106
vn 0.000000 0.707107 -0.707106
vn 0.000000 0.707107 -0.707106
vn 0.000000 0.707107 -0.707106
vn 0.325863 0.277162 -0.903877
vn 0.325863 0.277162 -0.903877
vn 0.325863 0.277162 -0.903877
vn -0.000000 0.000000 -1.000000
vn -0.000000 0.000000 -1.000000
vn -0.000000 0.000000 -1.000000
vn -0.000000 0.000000 -1.000000
vn 0.000000 1.000000 0.000000
vn 0.000000 1.000000 0.000000
vn 0.000000 1.000000 0.000000
vn 0.000000 1.000000 0.000000
vn -0.384694 0.498323 -0.776971
vn -0.384694 0.498323 -0.776971
vn -0.384694 0.498323 -0.776971
vn 0.000000 1.000000 0.000000
vn 0.000000 1.000000 0.000000
vn 0.000000 1.000000 0.000000
vn 0.000000 1.000000 0.000000
vn 0.000000 1.000000 0.000000
vn 0.000000 1.000000 0.000000
vn 0.000000 1.000000 0.000000
vn 0.000000 1.000000 0.000000
vn 0.000000 1.000000 0.000000
vn 0.000000 1.000000 0.000000
vn 0.000000 1.000000 0.000000
vn 0.000000 1.000000 0.000000
vn 0.000000 1.000000 0.000001
vn 0.000000 1.000000 0.000001
vn 0.000000 1.000000 0.000001
vn 0.000000 1.000000 0.000001
vn 0.000000 1.000000 0.000000
vn 0.000000 1.000000 0.000000
vn 0.000000 1.000000 0.000000
vn 0.000000 1.000000 0.000000
vn 0.000000 1.000000 0.000000
vn 0.000000 1.000000 0.000000
vn 0.000000 1.000000 0.000000
vn 0.000000 1.000000 0.000000
vn 0.000000 1.000000 0.000000
vn 0.000000 1.000000 0.000000
vn 0.000000 1.000000 0.000000
vn 0.000000 1.000000 0.000000
vn 0.000000 0.000000 0.000000
vn 0.000000 0.000000 0.000000
vn 0.000000 0.000000 0.000000
vn 0.000000 0.000000 0.000000
vn 0.000000 0.000000 0.000000
vn 0.000000 0.000000 0.000000
vn 0.000000 0.000000 0.000000
vn 0.000000 0.000000 0.000000
vn 0.000000 0.000000 0.000000
vn 0.000000 0.000000 0.000000
vn 0.000000 0.000000 0.000000
vn 0.000000 0.000000 0.000000
vn 0.000000 0.000000 0.000000
vn 0.000000 0.000000 0.000000
vn 0.000000 0.000000 0.000000
vn 0.000000 0.000000 0.000000
vn 0.000000 0.000000 0.000000
vn 0.000000 0.000000 0.000000
vn 0.000000 0.000000 0.000000
vn 0.000000 0.000000 0.000000
vn 0.000000 0.000000 0.000000
vn 0.000000 0.000000 0.000000
vn 0.000000 0.000000 0.000000
vn 0.000000 0.000000 0.000000
vn 0.000000 0.000000 0.000000
vn 0.000000 0.000000 0.000000
vn 0.000000 0.000000 0.000000
vn 0.000000 0.000000 0.000000
vn -0.967804 0.251252 0.015061
vn -0.967804 0.251253 0.015061
vn -0.967804 0.251253 0.015061
vn -0.967804 0.251253 0.015061
vn 0.983381 0.177385 0.038677
vn 0.983381 0.177385 0.038677
vn 0.983381 0.177385 0.038677
vn 0.983381 0.177385 0.038677
vn 0.189548 0.508133 -0.840162
vn 0.189548 0.508133 -0.840162
vn 0.189549 0.508133 -0.840162
vn 0.189548 0.508133 -0.840162
vn 0.000000 0.525931 -0.850527
vn 0.000000 0.525931 -0.850527
vn 0.000000 0.525931 -0.850527
vn 0.000000 0.525931 -0.850527
vn -0.955621 0.268604 0.120996
vn -0.955621 0.268604 0.120996
vn -0.955621 0.268604 0.120996
vn -0.955621 0.268604 0.120996
vn 0.000000 0.525931 0.850527
vn 0.000000 0.525931 0.850527
vn 0.000000 0.525931 0.850527
vn 0.000000 0.525931 0.850527
vn 0.964053 0.265709 0.000000
vn 0.964053 0.265709 0.000000
vn 0.964053 0.265709 0.000000
vn 0.964053 0.265709 0.000000
s off
f 29/45/1 30/46/2 4/1/3 2/7/4
f 6/13/5 12/17/6 35/53/7 3/29/8
f 8/2/9 27/41/10 28/43/11 1/10/12
f 31/47/13 32/49/14 10/33/15 5/31/16
f 36/54/17 26/40/18 7/16/19 33/51/20
f 40/58/21 24/27/22 21/37/23 13/21/24 37/55/25
f 2/7/26 1/8/27 28/44/28 29/45/29
f 3/29/30 2/28/31 4/30/32 6/13/33
f 1/10/34 3/29/35 9/32/36 8/2/37
f 5/11/38 4/1/39 30/46/40 31/48/41
f 6/13/42 5/31/43 10/33/44 12/17/45
f 8/14/46 7/16/47 26/40/48 27/42/49
f 33/51/50 35/53/51 36/54/52
f 11/18/53 10/19/54 32/50/55 25/39/56
f 14/20/57 13/21/58 21/37/59 20/36/60
f 38/56/61 39/57/62 18/22/63 17/23/64
f 17/23/65 16/24/66 22/25/67 24/27/68
f 19/26/69 21/37/70 24/27/71 23/38/72
f 1/10/73 2/28/74 3/29/75
f 4/30/76 5/31/77 6/13/78
f 7/16/79 8/2/80 9/32/81
f 10/33/82 11/18/83 12/17/84
f 13/21/85 14/15/86 15/34/87
f 16/35/88 17/23/89 18/22/90
f 19/26/91 20/36/92 21/37/93
f 22/25/94 23/38/95 24/27/96
f 25/39/97 18/22/98 39/57/99
f 27/42/100 26/40/101 15/34/102 14/15/103
f 28/43/104 27/41/105 14/3/106 20/4/107
f 29/45/108 28/44/109 20/9/110 19/26/111
f 19/26/112 23/38/113 30/46/114 29/45/115
f 31/48/116 30/46/117 23/38/118 22/12/119
f 22/5/120 16/6/121 32/49/122 31/47/123
f 25/39/124 32/50/125 16/35/126 18/22/127
f 7/16/128 9/32/129 35/53/130 33/51/131
f 34/52/132 35/53/133 12/17/134 11/18/135
f 55/80/136 56/81/137 57/82/138 58/83/139 59/84/140
f 36/54/141 35/53/142 34/52/143
f 3/29/144 35/53/145 9/32/146
f 13/21/147 15/34/148 39/57/149 37/55/150
f 37/55/151 39/57/152 40/58/153
f 17/23/154 24/27/155 40/58/156 38/56/157
f 56/81/158 60/85/159 61/86/160 57/82/161
f 40/58/162 39/57/163 38/56/164
f 11/18/165 25/39/166 42/60/167 41/59/168
f 26/40/169 36/54/170 44/62/171 43/61/172
f 36/54/173 34/52/174 45/63/175 44/62/176
f 34/52/177 11/18/178 41/59/179 45/63/180
f 25/39/181 39/57/182 46/64/183 42/60/184
f 39/57/185 15/34/186 47/65/187 46/64/188
f 15/34/189 26/40/190 43/61/191 47/65/192
f 41/59/193 42/60/194 49/67/195 48/66/196
f 43/61/197 44/62/198 51/69/199 50/68/200
f 44/62/201 45/63/202 52/70/203 51/69/204
f 45/63/205 41/59/206 48/66/207 52/70/208
f 42/60/209 46/64/210 53/71/211 49/67/212
f 46/64/213 47/65/214 54/72/215 53/71/216
f 47/65/217 43/61/218 50/68/219 54/72/220
f 48/66/221 49/67/222 56/74/223 55/73/224
f 50/68/225 51/69/226 58/76/227 57/75/228
f 51/69/229 52/70/230 59/77/231 58/76/232
f 52/70/233 48/66/234 55/73/235 59/77/236
f 49/67/237 53/71/238 60/78/239 56/74/240
f 53/71/241 54/72/242 61/79/243 60/78/244
f 54/72/245 50/68/246 57/75/247 61/79/248
v 2.150146 4.514576 -1.078375
v 0.282384 4.514576 -2.156733
v -1.585378 4.514576 -1.078375
v -1.585378 4.514576 1.078341
v 0.282384 4.514576 2.156698
v 2.150146 4.514576 1.078341
v 1.533343 27.585165 -0.722246
v 0.282384 27.585163 -1.444493
v -0.968576 27.585165 -0.722246
v -0.968576 27.585163 0.722229
v 0.282384 27.585163 1.444459
v 1.533343 27.585163 0.722229
v 0.282384 29.416906 3.615943
v 3.898335 29.416906 -0.000017
v 0.282384 33.032867 -0.000017
v -3.333568 29.416906 -0.000017
v 0.282384 25.800951 -0.000017
v 0.282384 29.416906 -3.615977
v 2.839244 29.416908 2.556844
v 0.282384 31.973778 2.556844
v -2.274486 29.416908 2.556844
v 0.282384 26.860050 2.556844
v 2.839244 29.416908 -2.556876
v 0.282384 31.973778 -2.556877
v -2.274486 29.416908 -2.556876
v 0.282384 26.860050 -2.556878
v 2.839244 31.973776 -0.000017
v -2.274486 31.973776 -0.000017
v -2.274486 26.860050 -0.000017
v 2.839244 26.860050 -0.000017
vt 0.091423 0.302399
vt 0.091423 0.302399
vt 0.091423 0.302399
vt 0.091423 0.302399
vt 0.091423 0.302399
vt 0.091423 0.302399
vt 0.091423 0.302399
vt 0.091423 0.302399
vt 0.091423 0.302399
vt 0.091423 0.302399
vt 0.091423 0.302399
vt 0.091423 0.302399
vt 0.091423 0.302399
vt 0.091423 0.302399
vt 0.091423 0.302399
vt 0.091423 0.302399
vt 0.091423 0.302399
vt 0.091423 0.302399
vt 0.091423 0.302399
vt 0.091423 0.302399
vt 0.248379 0.303887
vt 0.248379 0.303887
vt 0.248379 0.303887
vt 0.248379 0.303887
vt 0.248379 0.303887
vt 0.248379 0.303887
vt 0.248379 0.303887
vt 0.248379 0.303887
vt 0.248379 0.303887
vt 0.248379 0.303887
vt 0.248379 0.303887
vt 0.248379 0.303887
vt 0.248379 0.303887
vt 0.248379 0.303887
vt 0.248379 0.303887
vt 0.248379 0.303887
vt 0.248379 0.303887
vt 0.248379 0.303887
vt 0.091423 0.302399
vt 0.091423 0.302399
vt 0.091423 0.302399
vt 0.091423 0.302399
vn 0.499824 0.026727 -0.865715
vn 0.499824 0.026727 -0.865715
vn 0.499824 0.026727 -0.865715
vn 0.499824 0.026727 -0.865715
vn -0.499824 0.026727 -0.865715
vn -0.499824 0.026727 -0.865715
vn -0.499824 0.026727 -0.865715
vn -0.499824 0.026727 -0.865715
vn -0.999643 0.026726 0.000000
vn -0.999643 0.026726 0.000000
vn -0.999643 0.026726 0.000000
vn -0.999643 0.026726 0.000000
vn -0.499820 0.026726 0.865717
vn -0.499820 0.026726 0.865717
vn -0.499820 0.026726 0.865717
vn -0.499820 0.026726 0.865717
vn 0.499820 0.026726 0.865717
vn 0.499820 0.026726 0.865717
vn 0.499820 0.026726 0.865717
vn 0.499820 0.026726 0.865717
vn 0.999643 0.026726 0.000000
vn 0.999643 0.026726 0.000000
vn 0.999643 0.026726 0.000000
vn 0.999643 0.026726 0.000000
vn 0.357407 0.357407 0.862856
vn 0.357407 0.357407 0.862856
vn 0.357407 0.357407 0.862856
vn 0.862856 0.357407 0.357407
vn 0.862856 0.357407 0.357407
vn 0.862856 0.357407 0.357407
vn 0.577350 0.577350 0.577350
vn 0.577350 0.577350 0.577350
vn 0.577350 0.577350 0.577350
vn 0.357407 0.862856 0.357407
vn 0.357407 0.862856 0.357407
vn 0.357407 0.862856 0.357407
vn -0.357407 0.357407 0.862856
vn -0.357407 0.357407 0.862856
vn -0.357407 0.357407 0.862856
vn -0.357407 0.862856 0.357407
vn -0.357407 0.862856 0.357407
vn -0.357407 0.862856 0.357407
vn -0.577350 0.577350 0.577350
vn -0.577350 0.577350 0.577350
vn -0.577350 0.577350 0.577350
vn -0.862856 0.357407 0.357407
vn -0.862856 0.357407 0.357407
vn -0.862856 0.357407 0.357407
vn -0.357407 -0.357407 0.862856
vn -0.357407 -0.357407 0.862856
vn -0.357407 -0.357407 0.862856
vn -0.862856 -0.357407 0.357407
vn -0.862856 -0.357407 0.357407
vn -0.862856 -0.357407 0.357407
vn -0.577350 -0.577350 0.577350
vn -0.577350 -0.577350 0.577350
vn -0.577350 -0.577350 0.577350
vn -0.357407 -0.862856 0.357407
vn -0.357407 -0.862856 0.357407
vn -0.357407 -0.862856 0.357407
vn 0.357407 -0.357407 0.862856
vn 0.357407 -0.357407 0.862856
vn 0.357407 -0.357407 0.862856
vn 0.357407 -0.862856 0.357407
vn 0.357407 -0.862856 0.357407
vn 0.357407 -0.862856 0.357407
vn 0.577350 -0.577350 0.577350
vn 0.577350 -0.577350 0.577350
vn 0.577350 -0.577350 0.577350
vn 0.862856 -0.357407 0.357407
vn 0.862856 -0.357407 0.357407
vn 0.862856 -0.357407 0.357407
vn 0.357407 0.357407 -0.862856
vn 0.357407 0.357407 -0.862856
vn 0.357407 0.357407 -0.862856
vn 0.357407 0.862856 -0.357407
vn 0.357407 0.862856 -0.357407
vn 0.357407 0.862856 -0.357407
vn 0.577350 0.577350 -0.577350
vn 0.577350 0.577350 -0.577350
vn 0.577350 0.577350 -0.577350
vn 0.862856 0.357407 -0.357407
vn 0.862856 0.357407 -0.357407
vn 0.862856 0.357407 -0.357407
vn -0.357407 0.357407 -0.862856
vn -0.357407 0.357407 -0.862856
vn -0.357407 0.357407 -0.862856
vn -0.862856 0.357407 -0.357407
vn -0.862856 0.357407 -0.357407
vn -0.862856 0.357407 -0.357407
vn -0.577350 0.577350 -0.577350
vn -0.577350 0.577350 -0.577350
vn -0.577350 0.577350 -0.577350
vn -0.357407 0.862856 -0.357407
vn -0.357407 0.862856 -0.357407
vn -0.357407 0.862856 -0.357407
vn -0.357407 -0.357407 -0.862856
vn -0.357407 -0.357407 -0.862856
vn -0.357407 -0.357407 -0.862856
vn -0.357407 -0.862856 -0.357407
vn -0.357407 -0.862856 -0.357407
vn -0.357407 -0.862856 -0.357407
vn -0.577350 -0.577350 -0.577350
vn -0.577350 -0.577350 -0.577350
vn -0.577350 -0.577350 -0.577350
vn -0.862856 -0.357407 -0.357407
vn -0.862856 -0.357407 -0.357407
vn -0.862856 -0.357407 -0.357407
vn 0.357407 -0.357407 -0.862856
vn 0.357407 -0.357407 -0.862856
vn 0.357407 -0.357407 -0.862856
vn 0.862856 -0.357407 -0.357407
vn 0.862856 -0.357407 -0.357407
vn 0.862856 -0.357407 -0.357407
vn 0.577350 -0.577350 -0.577350
vn 0.577350 -0.577350 -0.577350
vn 0.577350 -0.577350 -0.577350
vn 0.357407 -0.862856 -0.357407
vn 0.357407 -0.862856 -0.357407
vn 0.357407 -0.862856 -0.357407
s off
f 62/87/249 63/88/250 69/125/251 68/90/252
f 63/127/253 64/91/254 70/92/255 69/89/256
f 64/93/257 65/94/258 71/95/259 70/96/260
f 65/97/261 66/98/262 72/126/263 71/100/264
f 66/128/265 67/101/266 73/102/267 72/99/268
f 67/103/269 62/104/270 68/105/271 73/106/272
f 74/107/273 80/108/274 81/109/275
f 80/108/276 75/110/277 88/111/278
f 80/108/279 88/111/280 81/109/281
f 81/109/282 88/111/283 76/112/284
f 74/107/285 81/109/286 82/113/287
f 81/109/288 76/112/289 89/114/290
f 81/109/291 89/114/292 82/113/293
f 82/113/294 89/114/295 77/115/296
f 74/107/297 82/113/298 83/116/299
f 82/113/300 77/115/301 90/117/302
f 82/113/303 90/117/304 83/116/305
f 83/116/306 90/117/307 78/118/308
f 74/107/309 83/116/310 80/108/311
f 83/116/312 78/118/313 91/119/314
f 83/116/315 91/119/316 80/108/317
f 80/108/318 91/119/319 75/110/320
f 79/120/321 85/121/322 84/122/323
f 85/121/324 76/112/325 88/111/326
f 85/121/327 88/111/328 84/122/329
f 84/122/330 88/111/331 75/110/332
f 79/120/333 86/123/334 85/121/335
f 86/123/336 77/115/337 89/114/338
f 86/123/339 89/114/340 85/121/341
f 85/121/342 89/114/343 76/112/344
f 79/120/345 87/124/346 86/123/347
f 87/124/348 78/118/349 90/117/350
f 87/124/351 90/117/352 86/123/353
f 86/123/354 90/117/355 77/115/356
f 79/120/357 84/122/358 87/124/359
f 84/122/360 75/110/361 91/119/362
f 84/122/363 91/119/364 87/124/365
f 87/124/366 91/119/367 78/118/368
